<?xml version="1.0" encoding="UTF-8" standalone="no"?>
<!DOCTYPE svg PUBLIC "-//W3C//DTD SVG 1.1//EN"
 "http://www.w3.org/Graphics/SVG/1.1/DTD/svg11.dtd">
<!-- Generated by graphviz version 14.1.2 (20260124.0452)
 -->
<!-- Title: SvController::elevateThreadPriority Pages: 1 -->
<svg width="723pt" height="126pt"
 viewBox="0.00 0.00 723.00 126.00" xmlns="http://www.w3.org/2000/svg" xmlns:xlink="http://www.w3.org/1999/xlink">
<g id="graph0" class="graph" transform="scale(1 1) rotate(0) translate(4 122)">
<title>SvController::elevateThreadPriority</title>
<!-- Node1 -->
<g id="Node000001" class="node">
<title>Node1</title>
<g id="a_Node000001"><a xlink:title=" ">
<polygon fill="#999999" stroke="#666666" points="715.25,-66 577.75,-66 577.75,-34 715.25,-34 715.25,-66"/>
<text xml:space="preserve" text-anchor="start" x="585.75" y="-52.5" font-family="Helvetica,sans-Serif" font-size="10.00">SvController::elevateThread</text>
<text xml:space="preserve" text-anchor="middle" x="646.5" y="-40.5" font-family="Helvetica,sans-Serif" font-size="10.00">Priority</text>
</a>
</g>
</g>
<!-- Node2 -->
<g id="Node000002" class="node">
<title>Node2</title>
<g id="a_Node000002"><a xlink:href="class_sv_controller.html#ab8c8181a6f1a3db44e42d2d1dcd3e2ff" target="_top" xlink:title=" ">
<polygon fill="white" stroke="#666666" points="541.75,-100 420.75,-100 420.75,-68 541.75,-68 541.75,-100"/>
<text xml:space="preserve" text-anchor="start" x="428.75" y="-86.5" font-family="Helvetica,sans-Serif" font-size="10.00">SvController::writerLoop</text>
<text xml:space="preserve" text-anchor="middle" x="481.25" y="-74.5" font-family="Helvetica,sans-Serif" font-size="10.00">Batch</text>
</a>
</g>
</g>
<!-- Node1&#45;&gt;Node2 -->
<g id="edge1_Node000001_Node000002" class="edge">
<title>Node1&#45;&gt;Node2</title>
<g id="a_edge1_Node000001_Node000002"><a xlink:title=" ">
<path fill="none" stroke="#63b8ff" d="M566.51,-66.45C558.28,-68.17 550.01,-69.89 542.04,-71.55"/>
<polygon fill="#63b8ff" stroke="#63b8ff" points="567.13,-69.9 576.2,-64.43 565.7,-63.04 567.13,-69.9"/>
</a>
</g>
</g>
<!-- Node6 -->
<g id="Node000006" class="node">
<title>Node6</title>
<g id="a_Node000006"><a xlink:href="class_sv_controller.html#ab18faef1f888c015ba3850d11320b4a5" target="_top" xlink:title=" ">
<polygon fill="white" stroke="#666666" points="541.75,-32 420.75,-32 420.75,0 541.75,0 541.75,-32"/>
<text xml:space="preserve" text-anchor="start" x="428.75" y="-18.5" font-family="Helvetica,sans-Serif" font-size="10.00">SvController::writerLoop</text>
<text xml:space="preserve" text-anchor="middle" x="481.25" y="-6.5" font-family="Helvetica,sans-Serif" font-size="10.00">Immediate</text>
</a>
</g>
</g>
<!-- Node1&#45;&gt;Node6 -->
<g id="edge6_Node000001_Node000006" class="edge">
<title>Node1&#45;&gt;Node6</title>
<g id="a_edge6_Node000001_Node000006"><a xlink:title=" ">
<path fill="none" stroke="#63b8ff" d="M566.51,-33.55C558.28,-31.83 550.01,-30.11 542.04,-28.45"/>
<polygon fill="#63b8ff" stroke="#63b8ff" points="565.7,-36.96 576.2,-35.57 567.13,-30.1 565.7,-36.96"/>
</a>
</g>
</g>
<!-- Node2&#45;&gt;Node2 -->
<g id="edge5_Node000002_Node000002" class="edge">
<title>Node2&#45;&gt;Node2</title>
<g id="a_edge5_Node000002_Node000002"><a xlink:title=" ">
<path fill="none" stroke="#63b8ff" d="M507.41,-111.71C503.05,-115.48 494.33,-118 481.25,-118 457.33,-118 447.99,-109.58 453.22,-100.44"/>
<polygon fill="#63b8ff" stroke="#63b8ff" points="510.85,-112.37 509.03,-101.94 503.94,-111.23 510.85,-112.37"/>
</a>
</g>
</g>
<!-- Node3 -->
<g id="Node000003" class="node">
<title>Node3</title>
<g id="a_Node000003"><a xlink:href="class_sv_controller.html#a30dfd716e1e85042e41a2299fac5711f" target="_top" xlink:title=" ">
<polygon fill="white" stroke="#666666" points="384.75,-60 263.75,-60 263.75,-40 384.75,-40 384.75,-60"/>
<text xml:space="preserve" text-anchor="middle" x="324.25" y="-46.5" font-family="Helvetica,sans-Serif" font-size="10.00">SvController::writerLoop</text>
</a>
</g>
</g>
<!-- Node2&#45;&gt;Node3 -->
<g id="edge2_Node000002_Node000003" class="edge">
<title>Node2&#45;&gt;Node3</title>
<g id="a_edge2_Node000002_Node000003"><a xlink:title=" ">
<path fill="none" stroke="#63b8ff" d="M409.17,-68.41C396.92,-65.72 384.46,-62.99 373.01,-60.48"/>
<polygon fill="#63b8ff" stroke="#63b8ff" points="408.33,-71.81 418.84,-70.53 409.83,-64.97 408.33,-71.81"/>
</a>
</g>
</g>
<!-- Node4 -->
<g id="Node000004" class="node">
<title>Node4</title>
<g id="a_Node000004"><a xlink:href="class_sv_controller.html#afc0ec922fad685082c626ca36cb764a8" target="_top" xlink:title=" ">
<polygon fill="white" stroke="#666666" points="227.75,-60 121,-60 121,-40 227.75,-40 227.75,-60"/>
<text xml:space="preserve" text-anchor="middle" x="174.38" y="-46.5" font-family="Helvetica,sans-Serif" font-size="10.00">SvController::startAll</text>
</a>
</g>
</g>
<!-- Node3&#45;&gt;Node4 -->
<g id="edge3_Node000003_Node000004" class="edge">
<title>Node3&#45;&gt;Node4</title>
<g id="a_edge3_Node000003_Node000004"><a xlink:title=" ">
<path fill="none" stroke="#63b8ff" d="M252.17,-50C244.09,-50 235.96,-50 228.17,-50"/>
<polygon fill="#63b8ff" stroke="#63b8ff" points="252.02,-53.5 262.02,-50 252.02,-46.5 252.02,-53.5"/>
</a>
</g>
</g>
<!-- Node5 -->
<g id="Node000005" class="node">
<title>Node5</title>
<g id="a_Node000005"><a xlink:href="sv__controller_8cc.html#a1b6b0344797b9edf84722fde0e1c660a" target="_top" xlink:title=" ">
<polygon fill="white" stroke="#666666" points="85,-60 0,-60 0,-40 85,-40 85,-60"/>
<text xml:space="preserve" text-anchor="middle" x="42.5" y="-46.5" font-family="Helvetica,sans-Serif" font-size="10.00">sv_mp_start_all</text>
</a>
</g>
</g>
<!-- Node4&#45;&gt;Node5 -->
<g id="edge4_Node000004_Node000005" class="edge">
<title>Node4&#45;&gt;Node5</title>
<g id="a_edge4_Node000004_Node000005"><a xlink:title=" ">
<path fill="none" stroke="#63b8ff" d="M109.1,-50C100.95,-50 92.79,-50 85.13,-50"/>
<polygon fill="#63b8ff" stroke="#63b8ff" points="109.04,-53.5 119.04,-50 109.04,-46.5 109.04,-53.5"/>
</a>
</g>
</g>
<!-- Node6&#45;&gt;Node3 -->
<g id="edge7_Node000006_Node000003" class="edge">
<title>Node6&#45;&gt;Node3</title>
<g id="a_edge7_Node000006_Node000003"><a xlink:title=" ">
<path fill="none" stroke="#63b8ff" d="M409.17,-31.59C396.92,-34.28 384.46,-37.01 373.01,-39.52"/>
<polygon fill="#63b8ff" stroke="#63b8ff" points="409.83,-35.03 418.84,-29.47 408.33,-28.19 409.83,-35.03"/>
</a>
</g>
</g>
<!-- Node6&#45;&gt;Node6 -->
<g id="edge8_Node000006_Node000006" class="edge">
<title>Node6&#45;&gt;Node6</title>
<g id="a_edge8_Node000006_Node000006"><a xlink:title=" ">
<path fill="none" stroke="#63b8ff" d="M507.41,-43.71C503.05,-47.48 494.33,-50 481.25,-50 457.33,-50 447.99,-41.58 453.22,-32.44"/>
<polygon fill="#63b8ff" stroke="#63b8ff" points="510.85,-44.37 509.03,-33.94 503.94,-43.23 510.85,-44.37"/>
</a>
</g>
</g>
</g>
</svg>
