<?xml version="1.0" encoding="UTF-8" standalone="no"?>
<!DOCTYPE svg PUBLIC "-//W3C//DTD SVG 1.1//EN"
 "http://www.w3.org/Graphics/SVG/1.1/DTD/svg11.dtd">
<!-- Generated by graphviz version 14.1.2 (20260124.0452)
 -->
<!-- Title: SvController::writerLoop Pages: 1 -->
<!--zoomable 708 -->

<svg id="main" version="1.1" xmlns="http://www.w3.org/2000/svg" xmlns:xlink="http://www.w3.org/1999/xlink" xml:space="preserve" onload="init(evt)">

<style type="text/css"><![CDATA[
.node, .edge {opacity: 0.7;}
.node.selected, .edge.selected {opacity: 1;}
.edge:hover path { stroke: red; }
.edge:hover polygon { stroke: red; fill: red; }
]]></style>

<defs>
  <circle id="rim" cx="0" cy="0" r="7"/>
  <circle id="rim2" cx="0" cy="0" r="3.5"/>
  <g id="zoomPlus">
    <use xlink:href="#rim" fill="#404040"><set attributeName="fill" to="#808080" begin="zoomplus.mouseover" end="zoomplus.mouseout"/></use>
    <path d="M-4,0h8M0,-4v8" fill="none" stroke="white" stroke-width="1.5" pointer-events="none"/>
  </g>
  <g id="zoomMin">
    <use xlink:href="#rim" fill="#404040"><set attributeName="fill" to="#808080" begin="zoomminus.mouseover" end="zoomminus.mouseout"/></use>
    <path d="M-4,0h8" fill="none" stroke="white" stroke-width="1.5" pointer-events="none"/>
  </g>
  <g id="arrowUp" transform="translate(30 24)">
    <use xlink:href="#rim"/>
    <path pointer-events="none" fill="none" stroke="white" stroke-width="1.5" d="M0,-3.0v7 M-2.5,-0.5L0,-3.0L2.5,-0.5"/>
  </g>
  <g id="arrowRight" transform="rotate(90) translate(36 -43)">
    <use xlink:href="#rim"/>
    <path pointer-events="none" fill="none" stroke="white" stroke-width="1.5" d="M0,-3.0v7 M-2.5,-0.5L0,-3.0L2.5,-0.5"/>
  </g>
  <g id="arrowDown" transform="rotate(180) translate(-30 -48)">
    <use xlink:href="#rim"/>
    <path pointer-events="none" fill="none" stroke="white" stroke-width="1.5" d="M0,-3.0v7 M-2.5,-0.5L0,-3.0L2.5,-0.5"/>
  </g>
  <g id="arrowLeft" transform="rotate(270) translate(-36 17)">
    <use xlink:href="#rim"/>
    <path pointer-events="none" fill="none" stroke="white" stroke-width="1.5" d="M0,-3.0v7 M-2.5,-0.5L0,-3.0L2.5,-0.5"/>
  </g>
  <g id="resetDef">
    <use xlink:href="#rim2" fill="#404040"><set attributeName="fill" to="#808080" begin="reset.mouseover" end="reset.mouseout"/></use>
  </g>
</defs>
<script type="application/ecmascript">
var viewWidth = 646;
var viewHeight = 708;
var sectionId = 'dynsection-40';
</script>
<script type="application/ecmascript" xlink:href="svg.min.js"/>
<svg id="graph" class="graph">
<g id="viewport">
<title>SvController::writerLoop</title>
<!-- Node1 -->
<g id="Node000001" class="node">
<title>Node1</title>
<g id="a_Node000001"><a xlink:title=" ">
<polygon fill="#999999" stroke="#666666" points="121,-448 0,-448 0,-428 121,-428 121,-448"/>
<text xml:space="preserve" text-anchor="middle" x="60.5" y="-434.5" font-family="Helvetica,sans-Serif" font-size="10.00">SvController::writerLoop</text>
</a>
</g>
</g>
<!-- Node2 -->
<g id="Node000002" class="node">
<title>Node2</title>
<g id="a_Node000002"><a xlink:href="npcap__transmitter__impl_8cc.html#a3603a13e403ee5dc84d62e476f8c2a86" target="_top" xlink:title="Check if SendQueue API is available.">
<polygon fill="white" stroke="#666666" points="295.25,-510 157,-510 157,-490 295.25,-490 295.25,-510"/>
<text xml:space="preserve" text-anchor="middle" x="226.12" y="-496.5" font-family="Helvetica,sans-Serif" font-size="10.00">npcap_sendqueue_available</text>
</a>
</g>
</g>
<!-- Node1&#45;&gt;Node2 -->
<g id="edge1_Node000001_Node000002" class="edge">
<title>Node1&#45;&gt;Node2</title>
<g id="a_edge1_Node000001_Node000002"><a xlink:title=" ">
<path fill="none" stroke="#63b8ff" d="M82.36,-448.5C101.46,-457.84 130.67,-471.46 157,-481 162.07,-482.84 167.41,-484.6 172.77,-486.27"/>
<polygon fill="#63b8ff" stroke="#63b8ff" points="171.71,-489.6 182.29,-489.1 173.71,-482.89 171.71,-489.6"/>
</a>
</g>
</g>
<!-- Node3 -->
<g id="Node000003" class="node">
<title>Node3</title>
<g id="a_Node000003"><a xlink:href="class_sv_controller.html#ab8c8181a6f1a3db44e42d2d1dcd3e2ff" target="_top" xlink:title=" ">
<polygon fill="white" stroke="#666666" points="286.62,-297 165.62,-297 165.62,-265 286.62,-265 286.62,-297"/>
<text xml:space="preserve" text-anchor="start" x="173.62" y="-283.5" font-family="Helvetica,sans-Serif" font-size="10.00">SvController::writerLoop</text>
<text xml:space="preserve" text-anchor="middle" x="226.12" y="-271.5" font-family="Helvetica,sans-Serif" font-size="10.00">Batch</text>
</a>
</g>
</g>
<!-- Node1&#45;&gt;Node3 -->
<g id="edge2_Node000001_Node000003" class="edge">
<title>Node1&#45;&gt;Node3</title>
<g id="a_edge2_Node000001_Node000003"><a xlink:title=" ">
<path fill="none" stroke="#63b8ff" d="M72.24,-427.7C97.91,-403.07 163.4,-340.22 199.79,-305.31"/>
<polygon fill="#63b8ff" stroke="#63b8ff" points="202.06,-307.98 206.85,-298.53 197.21,-302.93 202.06,-307.98"/>
</a>
</g>
</g>
<!-- Node17 -->
<g id="Node000017" class="node">
<title>Node17</title>
<g id="a_Node000017"><a xlink:href="class_sv_controller.html#ab18faef1f888c015ba3850d11320b4a5" target="_top" xlink:title=" ">
<polygon fill="white" stroke="#666666" points="286.62,-454 165.62,-454 165.62,-422 286.62,-422 286.62,-454"/>
<text xml:space="preserve" text-anchor="start" x="173.62" y="-440.5" font-family="Helvetica,sans-Serif" font-size="10.00">SvController::writerLoop</text>
<text xml:space="preserve" text-anchor="middle" x="226.12" y="-428.5" font-family="Helvetica,sans-Serif" font-size="10.00">Immediate</text>
</a>
</g>
</g>
<!-- Node1&#45;&gt;Node17 -->
<g id="edge21_Node000001_Node000017" class="edge">
<title>Node1&#45;&gt;Node17</title>
<g id="a_edge21_Node000001_Node000017"><a xlink:title=" ">
<path fill="none" stroke="#63b8ff" d="M121.5,-438C131.95,-438 142.91,-438 153.63,-438"/>
<polygon fill="#63b8ff" stroke="#63b8ff" points="153.62,-441.5 163.62,-438 153.62,-434.5 153.62,-441.5"/>
</a>
</g>
</g>
<!-- Node3&#45;&gt;Node3 -->
<g id="edge20_Node000003_Node000003" class="edge">
<title>Node3&#45;&gt;Node3</title>
<g id="a_edge20_Node000003_Node000003"><a xlink:title=" ">
<path fill="none" stroke="#63b8ff" d="M196.56,-297.44C191.04,-306.58 200.89,-315 226.12,-315 239.92,-315 249.12,-312.48 253.73,-308.71"/>
<polygon fill="#63b8ff" stroke="#63b8ff" points="257.16,-309.39 255.43,-298.93 250.26,-308.18 257.16,-309.39"/>
</a>
</g>
</g>
<!-- Node4 -->
<g id="Node000004" class="node">
<title>Node4</title>
<g id="a_Node000004"><a xlink:href="class_sv_controller.html#a02cc9113aeda2832ff4aa7ac87a96953" target="_top" xlink:title=" ">
<polygon fill="white" stroke="#666666" points="470.62,-322 331.62,-322 331.62,-290 470.62,-290 470.62,-322"/>
<text xml:space="preserve" text-anchor="start" x="339.62" y="-308.5" font-family="Helvetica,sans-Serif" font-size="10.00">SvController::checkDuration</text>
<text xml:space="preserve" text-anchor="middle" x="401.12" y="-296.5" font-family="Helvetica,sans-Serif" font-size="10.00">Elapsed</text>
</a>
</g>
</g>
<!-- Node3&#45;&gt;Node4 -->
<g id="edge3_Node000003_Node000004" class="edge">
<title>Node3&#45;&gt;Node4</title>
<g id="a_edge3_Node000003_Node000004"><a xlink:title=" ">
<path fill="none" stroke="#63b8ff" d="M286.66,-289.6C297.44,-291.16 308.83,-292.81 320.08,-294.43"/>
<polygon fill="#63b8ff" stroke="#63b8ff" points="319.36,-297.87 329.76,-295.83 320.36,-290.94 319.36,-297.87"/>
</a>
</g>
</g>
<!-- Node5 -->
<g id="Node000005" class="node">
<title>Node5</title>
<g id="a_Node000005"><a xlink:href="sv__stats__impl_8cc.html#ae7cd346e20d4749f60fa7332dfae0dd7" target="_top" xlink:title="Get current time in milliseconds.">
<polygon fill="white" stroke="#666666" points="637.75,-341 507,-341 507,-321 637.75,-321 637.75,-341"/>
<text xml:space="preserve" text-anchor="middle" x="572.38" y="-327.5" font-family="Helvetica,sans-Serif" font-size="10.00">npcap_stats_get_time_ms</text>
</a>
</g>
</g>
<!-- Node3&#45;&gt;Node5 -->
<g id="edge10_Node000003_Node000005" class="edge">
<title>Node3&#45;&gt;Node5</title>
<g id="a_edge10_Node000003_Node000005"><a xlink:title=" ">
<path fill="none" stroke="#63b8ff" d="M237.86,-264.64C254.54,-240.91 289.16,-197.94 331.25,-181 388.87,-157.81 416.21,-151.74 471,-181 522.67,-208.6 552.41,-275.89 564.69,-310.18"/>
<polygon fill="#63b8ff" stroke="#63b8ff" points="561.28,-311.04 567.82,-319.38 567.91,-308.78 561.28,-311.04"/>
</a>
</g>
</g>
<!-- Node6 -->
<g id="Node000006" class="node">
<title>Node6</title>
<g id="a_Node000006"><a xlink:href="class_sv_controller.html#a8226108f3af97705b3d2caf0e8f130f5" target="_top" xlink:title=" ">
<polygon fill="white" stroke="#666666" points="469.88,-222 332.38,-222 332.38,-190 469.88,-190 469.88,-222"/>
<text xml:space="preserve" text-anchor="start" x="340.38" y="-208.5" font-family="Helvetica,sans-Serif" font-size="10.00">SvController::elevateThread</text>
<text xml:space="preserve" text-anchor="middle" x="401.12" y="-196.5" font-family="Helvetica,sans-Serif" font-size="10.00">Priority</text>
</a>
</g>
</g>
<!-- Node3&#45;&gt;Node6 -->
<g id="edge5_Node000003_Node000006" class="edge">
<title>Node3&#45;&gt;Node6</title>
<g id="a_edge5_Node000003_Node000006"><a xlink:title=" ">
<path fill="none" stroke="#63b8ff" d="M259.11,-264.62C279.52,-254.43 306.66,-241.34 331.25,-231 334.82,-229.5 338.51,-228 342.25,-226.53"/>
<polygon fill="#63b8ff" stroke="#63b8ff" points="343.34,-229.86 351.42,-223 340.83,-223.33 343.34,-229.86"/>
</a>
</g>
</g>
<!-- Node7 -->
<g id="Node000007" class="node">
<title>Node7</title>
<g id="a_Node000007"><a xlink:href="npcap__transmitter__impl_8cc.html#a3469e50a088ee2f93c0678e6d0286f56" target="_top" xlink:title="Add a packet to the queue.">
<polygon fill="white" stroke="#666666" points="448.5,-58 353.75,-58 353.75,-38 448.5,-38 448.5,-58"/>
<text xml:space="preserve" text-anchor="middle" x="401.12" y="-44.5" font-family="Helvetica,sans-Serif" font-size="10.00">npcap_queue_add</text>
</a>
</g>
</g>
<!-- Node3&#45;&gt;Node7 -->
<g id="edge6_Node000003_Node000007" class="edge">
<title>Node3&#45;&gt;Node7</title>
<g id="a_edge6_Node000003_Node000007"><a xlink:title=" ">
<path fill="none" stroke="#63b8ff" d="M230.25,-264.77C238.8,-224.78 266.44,-120.88 331.25,-67 334.74,-64.09 338.65,-61.63 342.78,-59.54"/>
<polygon fill="#63b8ff" stroke="#63b8ff" points="344.12,-62.77 351.99,-55.68 341.41,-56.32 344.12,-62.77"/>
</a>
</g>
</g>
<!-- Node8 -->
<g id="Node000008" class="node">
<title>Node8</title>
<g id="a_Node000008"><a xlink:href="npcap__transmitter__impl_8cc.html#a745d7b22094024f754840a72a108339e" target="_top" xlink:title="Allocate a send queue.">
<polygon fill="white" stroke="#666666" points="454.12,-20 348.12,-20 348.12,0 454.12,0 454.12,-20"/>
<text xml:space="preserve" text-anchor="middle" x="401.12" y="-6.5" font-family="Helvetica,sans-Serif" font-size="10.00">npcap_queue_create</text>
</a>
</g>
</g>
<!-- Node3&#45;&gt;Node8 -->
<g id="edge7_Node000003_Node000008" class="edge">
<title>Node3&#45;&gt;Node8</title>
<g id="a_edge7_Node000003_Node000008"><a xlink:title=" ">
<path fill="none" stroke="#63b8ff" d="M228.95,-264.62C234.85,-219.82 257.49,-94.23 331.25,-29 333.29,-27.2 335.48,-25.56 337.79,-24.08"/>
<polygon fill="#63b8ff" stroke="#63b8ff" points="339.25,-27.27 346.49,-19.53 336,-21.07 339.25,-27.27"/>
</a>
</g>
</g>
<!-- Node9 -->
<g id="Node000009" class="node">
<title>Node9</title>
<g id="a_Node000009"><a xlink:href="npcap__transmitter__impl_8cc.html#ae10474fb21e8e779e37605a98dd327eb" target="_top" xlink:title="Destroy a send queue.">
<polygon fill="white" stroke="#666666" points="456.75,-134 345.5,-134 345.5,-114 456.75,-114 456.75,-134"/>
<text xml:space="preserve" text-anchor="middle" x="401.12" y="-120.5" font-family="Helvetica,sans-Serif" font-size="10.00">npcap_queue_destroy</text>
</a>
</g>
</g>
<!-- Node3&#45;&gt;Node9 -->
<g id="edge8_Node000003_Node000009" class="edge">
<title>Node3&#45;&gt;Node9</title>
<g id="a_edge8_Node000003_Node000009"><a xlink:title=" ">
<path fill="none" stroke="#63b8ff" d="M235.77,-264.62C251.27,-236.77 286.41,-180.07 331.25,-148 336.21,-144.45 341.73,-141.39 347.44,-138.76"/>
<polygon fill="#63b8ff" stroke="#63b8ff" points="348.52,-142.1 356.43,-135.05 345.85,-135.63 348.52,-142.1"/>
</a>
</g>
</g>
<!-- Node10 -->
<g id="Node000010" class="node">
<title>Node10</title>
<g id="a_Node000010"><a xlink:href="npcap__transmitter__impl_8cc.html#ae6e10a3445bc66c81ead5b438b868ea8" target="_top" xlink:title="Transmit all packets in the queue.">
<polygon fill="white" stroke="#666666" points="458.25,-96 344,-96 344,-76 458.25,-76 458.25,-96"/>
<text xml:space="preserve" text-anchor="middle" x="401.12" y="-82.5" font-family="Helvetica,sans-Serif" font-size="10.00">npcap_queue_transmit</text>
</a>
</g>
</g>
<!-- Node3&#45;&gt;Node10 -->
<g id="edge9_Node000003_Node000010" class="edge">
<title>Node3&#45;&gt;Node10</title>
<g id="a_edge9_Node000003_Node000010"><a xlink:title=" ">
<path fill="none" stroke="#63b8ff" d="M232.14,-264.57C243.66,-229.63 275.41,-147.7 331.25,-105 332.81,-103.81 334.44,-102.69 336.12,-101.64"/>
<polygon fill="#63b8ff" stroke="#63b8ff" points="337.66,-104.79 344.93,-97.08 334.44,-98.57 337.66,-104.79"/>
</a>
</g>
</g>
<!-- Node11 -->
<g id="Node000011" class="node">
<title>Node11</title>
<g id="a_Node000011"><a xlink:href="sv__stats__impl_8cc.html#a210b53baa9526fbb867d2a6b3ad925c4" target="_top" xlink:title="Record a successful packet transmission.">
<polygon fill="white" stroke="#666666" points="451.88,-272 350.38,-272 350.38,-240 451.88,-240 451.88,-272"/>
<text xml:space="preserve" text-anchor="start" x="358.38" y="-258.5" font-family="Helvetica,sans-Serif" font-size="10.00">npcap_stats_record</text>
<text xml:space="preserve" text-anchor="middle" x="401.12" y="-246.5" font-family="Helvetica,sans-Serif" font-size="10.00">_packet</text>
</a>
</g>
</g>
<!-- Node3&#45;&gt;Node11 -->
<g id="edge11_Node000003_Node000011" class="edge">
<title>Node3&#45;&gt;Node11</title>
<g id="a_edge11_Node000003_Node000011"><a xlink:title=" ">
<path fill="none" stroke="#63b8ff" d="M286.66,-272.4C303.58,-269.95 322.03,-267.29 339.03,-264.83"/>
<polygon fill="#63b8ff" stroke="#63b8ff" points="339.08,-268.36 348.47,-263.46 338.08,-261.43 339.08,-268.36"/>
</a>
</g>
</g>
<!-- Node12 -->
<g id="Node000012" class="node">
<title>Node12</title>
<g id="a_Node000012"><a xlink:href="sv__stats__impl_8cc.html#a4e5f02e3cc9b2b06496cca1b54582e0a" target="_top" xlink:title="Reset all statistics to zero.">
<polygon fill="white" stroke="#666666" points="449.25,-536 353,-536 353,-516 449.25,-516 449.25,-536"/>
<text xml:space="preserve" text-anchor="middle" x="401.12" y="-522.5" font-family="Helvetica,sans-Serif" font-size="10.00">npcap_stats_reset</text>
</a>
</g>
</g>
<!-- Node3&#45;&gt;Node12 -->
<g id="edge13_Node000003_Node000012" class="edge">
<title>Node3&#45;&gt;Node12</title>
<g id="a_edge13_Node000003_Node000012"><a xlink:title=" ">
<path fill="none" stroke="#63b8ff" d="M236.33,-297.38C250.02,-322.05 276.17,-370.4 295.25,-413 313.54,-453.83 298.13,-476.93 331.25,-507 334.56,-510.01 338.31,-512.55 342.31,-514.69"/>
<polygon fill="#63b8ff" stroke="#63b8ff" points="340.69,-517.8 351.25,-518.62 343.51,-511.39 340.69,-517.8"/>
</a>
</g>
</g>
<!-- Node13 -->
<g id="Node000013" class="node">
<title>Node13</title>
<g id="a_Node000013"><a xlink:href="sv__stats__impl_8cc.html#a4437629953bc0b691829d9c7b77cc061" target="_top" xlink:title="End the current statistics session.">
<polygon fill="white" stroke="#666666" points="465.75,-448 336.5,-448 336.5,-428 465.75,-428 465.75,-448"/>
<text xml:space="preserve" text-anchor="middle" x="401.12" y="-434.5" font-family="Helvetica,sans-Serif" font-size="10.00">npcap_stats_session_end</text>
</a>
</g>
</g>
<!-- Node3&#45;&gt;Node13 -->
<g id="edge14_Node000003_Node000013" class="edge">
<title>Node3&#45;&gt;Node13</title>
<g id="a_edge14_Node000003_Node000013"><a xlink:title=" ">
<path fill="none" stroke="#63b8ff" d="M234.91,-297.4C249.57,-326.46 284.08,-386.95 331.25,-419 333.21,-420.33 335.27,-421.58 337.39,-422.73"/>
<polygon fill="#63b8ff" stroke="#63b8ff" points="335.8,-425.85 346.34,-426.88 338.75,-419.5 335.8,-425.85"/>
</a>
</g>
</g>
<!-- Node14 -->
<g id="Node000014" class="node">
<title>Node14</title>
<g id="a_Node000014"><a xlink:href="sv__stats__impl_8cc.html#ad0737fafaaf6836a17171d40d5a3f77d" target="_top" xlink:title="Start a new statistics session.">
<polygon fill="white" stroke="#666666" points="455.25,-372 347,-372 347,-340 455.25,-340 455.25,-372"/>
<text xml:space="preserve" text-anchor="start" x="355" y="-358.5" font-family="Helvetica,sans-Serif" font-size="10.00">npcap_stats_session</text>
<text xml:space="preserve" text-anchor="middle" x="401.12" y="-346.5" font-family="Helvetica,sans-Serif" font-size="10.00">_start</text>
</a>
</g>
</g>
<!-- Node3&#45;&gt;Node14 -->
<g id="edge16_Node000003_Node000014" class="edge">
<title>Node3&#45;&gt;Node14</title>
<g id="a_edge16_Node000003_Node000014"><a xlink:title=" ">
<path fill="none" stroke="#63b8ff" d="M259.11,-297.38C279.52,-307.57 306.66,-320.66 331.25,-331 334.82,-332.5 338.51,-334 342.25,-335.47"/>
<polygon fill="#63b8ff" stroke="#63b8ff" points="340.83,-338.67 351.42,-339 343.34,-332.14 340.83,-338.67"/>
</a>
</g>
</g>
<!-- Node15 -->
<g id="Node000015" class="node">
<title>Node15</title>
<g id="a_Node000015"><a xlink:href="class_sv_controller.html#a3c943142f1ce34aac0434603ee3531c0" target="_top" xlink:title=" ">
<polygon fill="white" stroke="#666666" points="469.12,-498 333.12,-498 333.12,-466 469.12,-466 469.12,-498"/>
<text xml:space="preserve" text-anchor="start" x="341.12" y="-484.5" font-family="Helvetica,sans-Serif" font-size="10.00">SvController::restoreThread</text>
<text xml:space="preserve" text-anchor="middle" x="401.12" y="-472.5" font-family="Helvetica,sans-Serif" font-size="10.00">Priority</text>
</a>
</g>
</g>
<!-- Node3&#45;&gt;Node15 -->
<g id="edge18_Node000003_Node000015" class="edge">
<title>Node3&#45;&gt;Node15</title>
<g id="a_edge18_Node000003_Node000015"><a xlink:title=" ">
<path fill="none" stroke="#63b8ff" d="M234.96,-297.26C254.05,-336.33 303.44,-433.94 331.25,-457 332.35,-457.91 333.49,-458.8 334.66,-459.65"/>
<polygon fill="#63b8ff" stroke="#63b8ff" points="332.52,-462.44 342.85,-464.77 336.23,-456.5 332.52,-462.44"/>
</a>
</g>
</g>
<!-- Node16 -->
<g id="Node000016" class="node">
<title>Node16</title>
<g id="a_Node000016"><a xlink:href="class_sv_controller.html#a94fbbcc5d8c76669fe2c02d8de1927d4" target="_top" xlink:title=" ">
<polygon fill="white" stroke="#666666" points="462,-410 340.25,-410 340.25,-390 462,-390 462,-410"/>
<text xml:space="preserve" text-anchor="middle" x="401.12" y="-396.5" font-family="Helvetica,sans-Serif" font-size="10.00">SvController::spinPause</text>
</a>
</g>
</g>
<!-- Node3&#45;&gt;Node16 -->
<g id="edge19_Node000003_Node000016" class="edge">
<title>Node3&#45;&gt;Node16</title>
<g id="a_edge19_Node000003_Node000016"><a xlink:title=" ">
<path fill="none" stroke="#63b8ff" d="M239.74,-297.43C257.67,-319.66 292.69,-359.07 331.25,-381 334.08,-382.61 337.05,-384.09 340.11,-385.45"/>
<polygon fill="#63b8ff" stroke="#63b8ff" points="338.75,-388.68 349.34,-389.07 341.31,-382.16 338.75,-388.68"/>
</a>
</g>
</g>
<!-- Node4&#45;&gt;Node5 -->
<g id="edge4_Node000004_Node000005" class="edge">
<title>Node4&#45;&gt;Node5</title>
<g id="a_edge4_Node000004_Node000005"><a xlink:title=" ">
<path fill="none" stroke="#63b8ff" d="M470.97,-316.17C478.99,-317.35 487.21,-318.57 495.32,-319.77"/>
<polygon fill="#63b8ff" stroke="#63b8ff" points="494.79,-323.23 505.2,-321.22 495.82,-316.3 494.79,-323.23"/>
</a>
</g>
</g>
<!-- Node11&#45;&gt;Node5 -->
<g id="edge12_Node000011_Node000005" class="edge">
<title>Node11&#45;&gt;Node5</title>
<g id="a_edge12_Node000011_Node000005"><a xlink:title=" ">
<path fill="none" stroke="#63b8ff" d="M449.46,-272.37C456.73,-275.12 464.1,-278.04 471,-281 495.42,-291.47 522.33,-304.99 542.13,-315.33"/>
<polygon fill="#63b8ff" stroke="#63b8ff" points="540.25,-318.29 550.73,-319.85 543.51,-312.1 540.25,-318.29"/>
</a>
</g>
</g>
<!-- Node13&#45;&gt;Node5 -->
<g id="edge15_Node000013_Node000005" class="edge">
<title>Node13&#45;&gt;Node5</title>
<g id="a_edge15_Node000013_Node000005"><a xlink:title=" ">
<path fill="none" stroke="#63b8ff" d="M450.63,-427.61C457.67,-425.26 464.67,-422.41 471,-419 504.61,-400.88 536.54,-369.63 555.02,-349.66"/>
<polygon fill="#63b8ff" stroke="#63b8ff" points="557.4,-352.25 561.51,-342.49 552.21,-347.55 557.4,-352.25"/>
</a>
</g>
</g>
<!-- Node14&#45;&gt;Node5 -->
<g id="edge17_Node000014_Node000005" class="edge">
<title>Node14&#45;&gt;Node5</title>
<g id="a_edge17_Node000014_Node000005"><a xlink:title=" ">
<path fill="none" stroke="#63b8ff" d="M455.68,-348.09C468.31,-346.22 482.02,-344.2 495.44,-342.22"/>
<polygon fill="#63b8ff" stroke="#63b8ff" points="495.73,-345.71 505.11,-340.79 494.7,-338.79 495.73,-345.71"/>
</a>
</g>
</g>
<!-- Node17&#45;&gt;Node4 -->
<g id="edge22_Node000017_Node000004" class="edge">
<title>Node17&#45;&gt;Node4</title>
<g id="a_edge22_Node000017_Node000004"><a xlink:title=" ">
<path fill="none" stroke="#63b8ff" d="M239.14,-421.62C256.9,-398.46 292.28,-356.18 331.25,-331 333.09,-329.81 335,-328.67 336.96,-327.57"/>
<polygon fill="#63b8ff" stroke="#63b8ff" points="338.35,-330.78 345.69,-323.14 335.19,-324.54 338.35,-330.78"/>
</a>
</g>
</g>
<!-- Node17&#45;&gt;Node5 -->
<g id="edge26_Node000017_Node000005" class="edge">
<title>Node17&#45;&gt;Node5</title>
<g id="a_edge26_Node000017_Node000005"><a xlink:title=" ">
<path fill="none" stroke="#63b8ff" d="M260.06,-454.33C272.11,-461.38 285.23,-470.46 295.25,-481 317.74,-504.65 303.08,-528.52 331.25,-545 384.86,-576.36 418.58,-578.31 471,-545 539.55,-501.44 562.1,-397.31 568.81,-352.32"/>
<polygon fill="#63b8ff" stroke="#63b8ff" points="572.25,-352.94 570.13,-342.56 565.32,-352 572.25,-352.94"/>
</a>
</g>
</g>
<!-- Node17&#45;&gt;Node6 -->
<g id="edge23_Node000017_Node000006" class="edge">
<title>Node17&#45;&gt;Node6</title>
<g id="a_edge23_Node000017_Node000006"><a xlink:title=" ">
<path fill="none" stroke="#63b8ff" d="M238.2,-421.5C252.51,-399.76 277.66,-360.05 295.25,-324 314.69,-284.17 299.58,-262.01 331.25,-231 331.99,-230.28 332.74,-229.58 333.52,-228.9"/>
<polygon fill="#63b8ff" stroke="#63b8ff" points="335.27,-231.95 341.31,-223.24 331.16,-226.29 335.27,-231.95"/>
</a>
</g>
</g>
<!-- Node17&#45;&gt;Node11 -->
<g id="edge28_Node000017_Node000011" class="edge">
<title>Node17&#45;&gt;Node11</title>
<g id="a_edge28_Node000017_Node000011"><a xlink:title=" ">
<path fill="none" stroke="#63b8ff" d="M236.2,-421.65C256.45,-385.67 305.55,-301.23 331.25,-281 333.96,-278.87 336.87,-276.9 339.91,-275.1"/>
<polygon fill="#63b8ff" stroke="#63b8ff" points="341.35,-278.29 348.6,-270.57 338.12,-272.09 341.35,-278.29"/>
</a>
</g>
</g>
<!-- Node17&#45;&gt;Node12 -->
<g id="edge29_Node000017_Node000012" class="edge">
<title>Node17&#45;&gt;Node12</title>
<g id="a_edge29_Node000017_Node000012"><a xlink:title=" ">
<path fill="none" stroke="#63b8ff" d="M253.9,-454.36C266.56,-462.24 281.81,-471.92 295.25,-481 311.6,-492.05 313.46,-498.46 331.25,-507 334.93,-508.77 338.81,-510.39 342.77,-511.89"/>
<polygon fill="#63b8ff" stroke="#63b8ff" points="341.33,-515.1 351.93,-515.04 343.61,-508.48 341.33,-515.1"/>
</a>
</g>
</g>
<!-- Node17&#45;&gt;Node13 -->
<g id="edge30_Node000017_Node000013" class="edge">
<title>Node17&#45;&gt;Node13</title>
<g id="a_edge30_Node000017_Node000013"><a xlink:title=" ">
<path fill="none" stroke="#63b8ff" d="M286.66,-438C298.98,-438 312.12,-438 324.91,-438"/>
<polygon fill="#63b8ff" stroke="#63b8ff" points="324.53,-441.5 334.53,-438 324.53,-434.5 324.53,-441.5"/>
</a>
</g>
</g>
<!-- Node17&#45;&gt;Node14 -->
<g id="edge31_Node000017_Node000014" class="edge">
<title>Node17&#45;&gt;Node14</title>
<g id="a_edge31_Node000017_Node000014"><a xlink:title=" ">
<path fill="none" stroke="#63b8ff" d="M254.38,-421.58C275.05,-409.5 304.4,-393.14 331.25,-381 334.55,-379.51 337.98,-378.04 341.45,-376.6"/>
<polygon fill="#63b8ff" stroke="#63b8ff" points="342.55,-379.93 350.54,-372.98 339.96,-373.43 342.55,-379.93"/>
</a>
</g>
</g>
<!-- Node17&#45;&gt;Node15 -->
<g id="edge32_Node000017_Node000015" class="edge">
<title>Node17&#45;&gt;Node15</title>
<g id="a_edge32_Node000017_Node000015"><a xlink:title=" ">
<path fill="none" stroke="#63b8ff" d="M286.66,-453.14C298.83,-456.24 311.79,-459.53 324.44,-462.75"/>
<polygon fill="#63b8ff" stroke="#63b8ff" points="323.43,-466.1 333.98,-465.18 325.15,-459.32 323.43,-466.1"/>
</a>
</g>
</g>
<!-- Node17&#45;&gt;Node16 -->
<g id="edge33_Node000017_Node000016" class="edge">
<title>Node17&#45;&gt;Node16</title>
<g id="a_edge33_Node000017_Node000016"><a xlink:title=" ">
<path fill="none" stroke="#63b8ff" d="M286.66,-424.92C304.38,-421.03 323.79,-416.77 341.45,-412.89"/>
<polygon fill="#63b8ff" stroke="#63b8ff" points="341.99,-416.35 351.01,-410.79 340.49,-409.52 341.99,-416.35"/>
</a>
</g>
</g>
<!-- Node17&#45;&gt;Node17 -->
<g id="edge34_Node000017_Node000017" class="edge">
<title>Node17&#45;&gt;Node17</title>
<g id="a_edge34_Node000017_Node000017"><a xlink:title=" ">
<path fill="none" stroke="#63b8ff" d="M196.56,-454.44C191.04,-463.58 200.89,-472 226.12,-472 239.92,-472 249.12,-469.48 253.73,-465.71"/>
<polygon fill="#63b8ff" stroke="#63b8ff" points="257.16,-466.39 255.43,-455.93 250.26,-465.18 257.16,-466.39"/>
</a>
</g>
</g>
<!-- Node18 -->
<g id="Node000018" class="node">
<title>Node18</title>
<g id="a_Node000018"><a xlink:href="npcap__transmitter__impl_8cc.html#adc39100394280e20f1f1a569849bdf2d" target="_top" xlink:title="Send a single packet.">
<polygon fill="white" stroke="#666666" points="452.62,-650 349.62,-650 349.62,-630 452.62,-630 452.62,-650"/>
<text xml:space="preserve" text-anchor="middle" x="401.12" y="-636.5" font-family="Helvetica,sans-Serif" font-size="10.00">npcap_send_packet</text>
</a>
</g>
</g>
<!-- Node17&#45;&gt;Node18 -->
<g id="edge24_Node000017_Node000018" class="edge">
<title>Node17&#45;&gt;Node18</title>
<g id="a_edge24_Node000017_Node000018"><a xlink:title=" ">
<path fill="none" stroke="#63b8ff" d="M264.07,-454.47C275.54,-461.21 287.26,-470.04 295.25,-481 333.09,-532.92 286.22,-575.18 331.25,-621 333.69,-623.49 336.43,-625.65 339.36,-627.55"/>
<polygon fill="#63b8ff" stroke="#63b8ff" points="337.47,-630.51 347.96,-632 340.69,-624.29 337.47,-630.51"/>
</a>
</g>
</g>
<!-- Node19 -->
<g id="Node000019" class="node">
<title>Node19</title>
<g id="a_Node000019"><a xlink:href="npcap__transmitter__impl_8cc.html#a53c0941475ca471f1cc998f9641f8b5e" target="_top" xlink:title="Send a packet with trailing zero&#45;padding.">
<polygon fill="white" stroke="#666666" points="471,-612 331.25,-612 331.25,-592 471,-592 471,-612"/>
<text xml:space="preserve" text-anchor="middle" x="401.12" y="-598.5" font-family="Helvetica,sans-Serif" font-size="10.00">npcap_send_packet_padded</text>
</a>
</g>
</g>
<!-- Node17&#45;&gt;Node19 -->
<g id="edge25_Node000017_Node000019" class="edge">
<title>Node17&#45;&gt;Node19</title>
<g id="a_edge25_Node000017_Node000019"><a xlink:title=" ">
<path fill="none" stroke="#63b8ff" d="M262.37,-454.34C274.12,-461.2 286.44,-470.14 295.25,-481 324.22,-516.71 298.41,-545.81 331.25,-578 334.61,-581.29 338.44,-584.13 342.54,-586.58"/>
<polygon fill="#63b8ff" stroke="#63b8ff" points="340.64,-589.54 351.14,-590.95 343.8,-583.3 340.64,-589.54"/>
</a>
</g>
</g>
<!-- Node20 -->
<g id="Node000020" class="node">
<title>Node20</title>
<g id="a_Node000020"><a xlink:href="sv__stats__impl_8cc.html#a280e159261a15485b1e0309f59df84e8" target="_top" xlink:title="Record a failed packet transmission.">
<polygon fill="white" stroke="#666666" points="451.88,-700 350.38,-700 350.38,-668 451.88,-668 451.88,-700"/>
<text xml:space="preserve" text-anchor="start" x="358.38" y="-686.5" font-family="Helvetica,sans-Serif" font-size="10.00">npcap_stats_record</text>
<text xml:space="preserve" text-anchor="middle" x="401.12" y="-674.5" font-family="Helvetica,sans-Serif" font-size="10.00">_failure</text>
</a>
</g>
</g>
<!-- Node17&#45;&gt;Node20 -->
<g id="edge27_Node000017_Node000020" class="edge">
<title>Node17&#45;&gt;Node20</title>
<g id="a_edge27_Node000017_Node000020"><a xlink:title=" ">
<path fill="none" stroke="#63b8ff" d="M264.76,-454.44C276.14,-461.14 287.63,-469.95 295.25,-481 341.07,-547.45 278.57,-597.85 331.25,-659 333.86,-662.03 336.87,-664.7 340.14,-667.04"/>
<polygon fill="#63b8ff" stroke="#63b8ff" points="338.24,-669.98 348.63,-672.05 341.8,-663.95 338.24,-669.98"/>
</a>
</g>
</g>
</g>
</svg>

<g id="navigator" transform="translate(0 0)" fill="#404254">
  <rect fill="#f2f5e9" fill-opacity="0.5" stroke="#606060" stroke-width=".5" x="0" y="0" width="60" height="60"/>
  <use id="zoomplus" xlink:href="#zoomPlus" x="17" y="9" onmousedown="handleZoom(evt,'in')"/>
  <use id="zoomminus" xlink:href="#zoomMin" x="42" y="9" onmousedown="handleZoom(evt,'out')"/>
  <use id="reset" xlink:href="#resetDef" x="30" y="36" onmousedown="handleReset()"/>
   <use id="arrowup" xlink:href="#arrowUp" x="0" y="0" onmousedown="handlePan(0,-1)"/>
  <use id="arrowright" xlink:href="#arrowRight" x="0" y="0" onmousedown="handlePan(1,0)"/>
  <use id="arrowdown" xlink:href="#arrowDown" x="0" y="0" onmousedown="handlePan(0,1)"/>
  <use id="arrowleft" xlink:href="#arrowLeft" x="0" y="0" onmousedown="handlePan(-1,0)"/>
</g>
<svg viewBox="0 0 15 15" width="100%" height="30px" preserveAspectRatio="xMaxYMin meet">
 <g id="arrow_out" transform="scale(0.3 0.3)">
  <a xlink:href="class_sv_controller_a30dfd716e1e85042e41a2299fac5711f_cgraph_org.svg" target="_base">
   <rect id="button" ry="5" rx="5" y="6" x="6" height="38" width="38"
        fill="#f2f5e9" fill-opacity="0.5" stroke="#606060" stroke-width="1.0"/>
   <path id="arrow"
     d="M 11.500037,31.436501 C 11.940474,20.09759 22.043105,11.32322 32.158766,21.979434 L 37.068811,17.246167 C 37.068811,17.246167 37.088388,32 37.088388,32 L 22.160133,31.978069 C 22.160133,31.978069 26.997745,27.140456 26.997745,27.140456 C 18.528582,18.264221 13.291696,25.230495 11.500037,31.436501 z"
     style="fill:#404040;"/>
  </a>
 </g>
</svg>

<style type='text/css'>
<![CDATA[
[data-mouse-over-selected='false'] { opacity: 0.7; }
[data-mouse-over-selected='true']  { opacity: 1.0; }
]]>
</style>
<script type="application/ecmascript"><![CDATA[
document.addEventListener('DOMContentLoaded', (event) => {
  highlightEdges();
  highlightAdjacentNodes();
});
]]></script>
</svg>
