<?xml version="1.0" encoding="UTF-8" standalone="no"?>
<!DOCTYPE svg PUBLIC "-//W3C//DTD SVG 1.1//EN"
 "http://www.w3.org/Graphics/SVG/1.1/DTD/svg11.dtd">
<!-- Generated by graphviz version 14.1.2 (20260124.0452)
 -->
<!-- Title: SvController::instance Pages: 1 -->
<!--zoomable 836 -->

<svg id="main" version="1.1" xmlns="http://www.w3.org/2000/svg" xmlns:xlink="http://www.w3.org/1999/xlink" xml:space="preserve" onload="init(evt)">

<style type="text/css"><![CDATA[
.node, .edge {opacity: 0.7;}
.node.selected, .edge.selected {opacity: 1;}
.edge:hover path { stroke: red; }
.edge:hover polygon { stroke: red; fill: red; }
]]></style>

<defs>
  <circle id="rim" cx="0" cy="0" r="7"/>
  <circle id="rim2" cx="0" cy="0" r="3.5"/>
  <g id="zoomPlus">
    <use xlink:href="#rim" fill="#404040"><set attributeName="fill" to="#808080" begin="zoomplus.mouseover" end="zoomplus.mouseout"/></use>
    <path d="M-4,0h8M0,-4v8" fill="none" stroke="white" stroke-width="1.5" pointer-events="none"/>
  </g>
  <g id="zoomMin">
    <use xlink:href="#rim" fill="#404040"><set attributeName="fill" to="#808080" begin="zoomminus.mouseover" end="zoomminus.mouseout"/></use>
    <path d="M-4,0h8" fill="none" stroke="white" stroke-width="1.5" pointer-events="none"/>
  </g>
  <g id="arrowUp" transform="translate(30 24)">
    <use xlink:href="#rim"/>
    <path pointer-events="none" fill="none" stroke="white" stroke-width="1.5" d="M0,-3.0v7 M-2.5,-0.5L0,-3.0L2.5,-0.5"/>
  </g>
  <g id="arrowRight" transform="rotate(90) translate(36 -43)">
    <use xlink:href="#rim"/>
    <path pointer-events="none" fill="none" stroke="white" stroke-width="1.5" d="M0,-3.0v7 M-2.5,-0.5L0,-3.0L2.5,-0.5"/>
  </g>
  <g id="arrowDown" transform="rotate(180) translate(-30 -48)">
    <use xlink:href="#rim"/>
    <path pointer-events="none" fill="none" stroke="white" stroke-width="1.5" d="M0,-3.0v7 M-2.5,-0.5L0,-3.0L2.5,-0.5"/>
  </g>
  <g id="arrowLeft" transform="rotate(270) translate(-36 17)">
    <use xlink:href="#rim"/>
    <path pointer-events="none" fill="none" stroke="white" stroke-width="1.5" d="M0,-3.0v7 M-2.5,-0.5L0,-3.0L2.5,-0.5"/>
  </g>
  <g id="resetDef">
    <use xlink:href="#rim2" fill="#404040"><set attributeName="fill" to="#808080" begin="reset.mouseover" end="reset.mouseout"/></use>
  </g>
</defs>
<script type="application/ecmascript">
var viewWidth = 451;
var viewHeight = 836;
var sectionId = 'dynsection-21';
</script>
<script type="application/ecmascript" xlink:href="svg.min.js"/>
<svg id="graph" class="graph">
<g id="viewport">
<title>SvController::instance</title>
<!-- Node1 -->
<g id="Node000001" class="node">
<title>Node1</title>
<g id="a_Node000001"><a xlink:title=" ">
<polygon fill="#999999" stroke="#666666" points="443.25,-412 330.5,-412 330.5,-392 443.25,-392 443.25,-412"/>
<text xml:space="preserve" text-anchor="middle" x="386.88" y="-398.5" font-family="Helvetica,sans-Serif" font-size="10.00">SvController::instance</text>
</a>
</g>
</g>
<!-- Node2 -->
<g id="Node000002" class="node">
<title>Node2</title>
<g id="a_Node000002"><a xlink:href="sv__controller_8cc.html#a37ca1523522cda12526f77a86f22dd56" target="_top" xlink:title=" ">
<polygon fill="white" stroke="#666666" points="276.12,-828 165.62,-828 165.62,-808 276.12,-808 276.12,-828"/>
<text xml:space="preserve" text-anchor="middle" x="220.88" y="-814.5" font-family="Helvetica,sans-Serif" font-size="10.00">sv_mp_add_publisher</text>
</a>
</g>
</g>
<!-- Node1&#45;&gt;Node2 -->
<g id="edge1_Node000001_Node000002" class="edge">
<title>Node1&#45;&gt;Node2</title>
<g id="a_edge1_Node000001_Node000002"><a xlink:title=" ">
<path fill="none" stroke="#63b8ff" d="M383.83,-423.54C376.3,-498.16 347.82,-744.07 294.5,-799 289.42,-804.24 283.08,-808.09 276.29,-810.92"/>
<polygon fill="#63b8ff" stroke="#63b8ff" points="387.28,-424.18 384.77,-413.88 380.31,-423.49 387.28,-424.18"/>
</a>
</g>
</g>
<!-- Node3 -->
<g id="Node000003" class="node">
<title>Node3</title>
<g id="a_Node000003"><a xlink:href="sv__controller_8cc.html#ad6449fd2c8114de07386cd501c39b7fe" target="_top" xlink:title=" ">
<polygon fill="white" stroke="#666666" points="288.12,-790 153.62,-790 153.62,-770 288.12,-770 288.12,-790"/>
<text xml:space="preserve" text-anchor="middle" x="220.88" y="-776.5" font-family="Helvetica,sans-Serif" font-size="10.00">sv_mp_configure_publisher</text>
</a>
</g>
</g>
<!-- Node1&#45;&gt;Node3 -->
<g id="edge2_Node000001_Node000003" class="edge">
<title>Node1&#45;&gt;Node3</title>
<g id="a_edge2_Node000001_Node000003"><a xlink:title=" ">
<path fill="none" stroke="#63b8ff" d="M383.24,-423.71C374.32,-493.77 343.04,-712.14 294.5,-761 291.1,-764.42 287.17,-767.25 282.93,-769.59"/>
<polygon fill="#63b8ff" stroke="#63b8ff" points="386.7,-424.29 384.46,-413.93 379.75,-423.42 386.7,-424.29"/>
</a>
</g>
</g>
<!-- Node4 -->
<g id="Node000004" class="node">
<title>Node4</title>
<g id="a_Node000004"><a xlink:href="sv__controller_8cc.html#a0e6b44d9a104d34fbd3e88a0a6def5b6" target="_top" xlink:title=" ">
<polygon fill="white" stroke="#666666" points="286.62,-752 155.12,-752 155.12,-720 286.62,-720 286.62,-752"/>
<text xml:space="preserve" text-anchor="start" x="163.12" y="-738.5" font-family="Helvetica,sans-Serif" font-size="10.00">sv_mp_get_current_repeat</text>
<text xml:space="preserve" text-anchor="middle" x="220.88" y="-726.5" font-family="Helvetica,sans-Serif" font-size="10.00">_cycle</text>
</a>
</g>
</g>
<!-- Node1&#45;&gt;Node4 -->
<g id="edge3_Node000001_Node000004" class="edge">
<title>Node1&#45;&gt;Node4</title>
<g id="a_edge3_Node000001_Node000004"><a xlink:title=" ">
<path fill="none" stroke="#63b8ff" d="M385.89,-423.64C384.74,-479.13 373.98,-627.94 294.5,-711 291.37,-714.28 287.78,-717.12 283.93,-719.6"/>
<polygon fill="#63b8ff" stroke="#63b8ff" points="389.39,-424 385.99,-413.96 382.39,-423.92 389.39,-424"/>
</a>
</g>
</g>
<!-- Node5 -->
<g id="Node000005" class="node">
<title>Node5</title>
<g id="a_Node000005"><a xlink:href="sv__controller_8cc.html#ab2f50b0a91fb6bcaecbad0ba5650c824" target="_top" xlink:title=" ">
<polygon fill="white" stroke="#666666" points="275.75,-702 166,-702 166,-682 275.75,-682 275.75,-702"/>
<text xml:space="preserve" text-anchor="middle" x="220.88" y="-688.5" font-family="Helvetica,sans-Serif" font-size="10.00">sv_mp_get_last_error</text>
</a>
</g>
</g>
<!-- Node1&#45;&gt;Node5 -->
<g id="edge4_Node000001_Node000005" class="edge">
<title>Node1&#45;&gt;Node5</title>
<g id="a_edge4_Node000001_Node000005"><a xlink:title=" ">
<path fill="none" stroke="#63b8ff" d="M385.2,-423.69C382.38,-474.96 367.96,-604.46 294.5,-673 289.26,-677.89 282.92,-681.56 276.19,-684.3"/>
<polygon fill="#63b8ff" stroke="#63b8ff" points="388.68,-424.08 385.63,-413.93 381.69,-423.77 388.68,-424.08"/>
</a>
</g>
</g>
<!-- Node6 -->
<g id="Node000006" class="node">
<title>Node6</title>
<g id="a_Node000006"><a xlink:href="sv__controller_8cc.html#a89715d3cc5ecea346991f8a14b808b8b" target="_top" xlink:title=" ">
<polygon fill="white" stroke="#666666" points="275,-664 166.75,-664 166.75,-632 275,-632 275,-664"/>
<text xml:space="preserve" text-anchor="start" x="174.75" y="-650.5" font-family="Helvetica,sans-Serif" font-size="10.00">sv_mp_get_publisher</text>
<text xml:space="preserve" text-anchor="middle" x="220.88" y="-638.5" font-family="Helvetica,sans-Serif" font-size="10.00">_count</text>
</a>
</g>
</g>
<!-- Node1&#45;&gt;Node6 -->
<g id="edge5_Node000001_Node000006" class="edge">
<title>Node1&#45;&gt;Node6</title>
<g id="a_edge5_Node000001_Node000006"><a xlink:title=" ">
<path fill="none" stroke="#63b8ff" d="M382.9,-423.75C375.77,-467.63 353.66,-567.32 294.5,-623 288.97,-628.21 282.29,-632.34 275.27,-635.61"/>
<polygon fill="#63b8ff" stroke="#63b8ff" points="386.34,-424.39 384.37,-413.98 379.42,-423.35 386.34,-424.39"/>
</a>
</g>
</g>
<!-- Node7 -->
<g id="Node000007" class="node">
<title>Node7</title>
<g id="a_Node000007"><a xlink:href="sv__controller_8cc.html#a18632d17429f282727988ddac33d95cc" target="_top" xlink:title=" ">
<polygon fill="white" stroke="#666666" points="276.5,-614 165.25,-614 165.25,-582 276.5,-582 276.5,-614"/>
<text xml:space="preserve" text-anchor="start" x="173.25" y="-600.5" font-family="Helvetica,sans-Serif" font-size="10.00">sv_mp_get_remaining</text>
<text xml:space="preserve" text-anchor="middle" x="220.88" y="-588.5" font-family="Helvetica,sans-Serif" font-size="10.00">_seconds</text>
</a>
</g>
</g>
<!-- Node1&#45;&gt;Node7 -->
<g id="edge6_Node000001_Node000007" class="edge">
<title>Node1&#45;&gt;Node7</title>
<g id="a_edge6_Node000001_Node000007"><a xlink:title=" ">
<path fill="none" stroke="#63b8ff" d="M380.13,-423.18C369.32,-459.09 342.63,-531.99 294.5,-573 289.22,-577.5 283.09,-581.2 276.67,-584.24"/>
<polygon fill="#63b8ff" stroke="#63b8ff" points="383.49,-424.17 382.88,-413.59 376.76,-422.24 383.49,-424.17"/>
</a>
</g>
</g>
<!-- Node8 -->
<g id="Node000008" class="node">
<title>Node8</title>
<g id="a_Node000008"><a xlink:href="sv__controller_8cc.html#a718dc981ae1f24b5cdde08637e34ce6b" target="_top" xlink:title=" ">
<polygon fill="white" stroke="#666666" points="280.62,-564 161.12,-564 161.12,-544 280.62,-544 280.62,-564"/>
<text xml:space="preserve" text-anchor="middle" x="220.88" y="-550.5" font-family="Helvetica,sans-Serif" font-size="10.00">sv_mp_get_send_mode</text>
</a>
</g>
</g>
<!-- Node1&#45;&gt;Node8 -->
<g id="edge7_Node000001_Node000008" class="edge">
<title>Node1&#45;&gt;Node8</title>
<g id="a_edge7_Node000001_Node000008"><a xlink:title=" ">
<path fill="none" stroke="#63b8ff" d="M377.43,-422.5C364.2,-451.98 335.79,-506 294.5,-535 289.59,-538.45 284.11,-541.27 278.4,-543.58"/>
<polygon fill="#63b8ff" stroke="#63b8ff" points="380.54,-424.13 381.29,-413.56 374.11,-421.35 380.54,-424.13"/>
</a>
</g>
</g>
<!-- Node9 -->
<g id="Node000009" class="node">
<title>Node9</title>
<g id="a_Node000009"><a xlink:href="sv__controller_8cc.html#a6f3f93c37fab4aa14fb0dad9ea254435" target="_top" xlink:title=" ">
<polygon fill="white" stroke="#666666" points="292.25,-526 149.5,-526 149.5,-506 292.25,-506 292.25,-526"/>
<text xml:space="preserve" text-anchor="middle" x="220.88" y="-512.5" font-family="Helvetica,sans-Serif" font-size="10.00">sv_mp_get_usb_min_gap_us</text>
</a>
</g>
</g>
<!-- Node1&#45;&gt;Node9 -->
<g id="edge8_Node000001_Node000009" class="edge">
<title>Node1&#45;&gt;Node9</title>
<g id="a_edge8_Node000001_Node000009"><a xlink:title=" ">
<path fill="none" stroke="#63b8ff" d="M372.26,-421.6C356.17,-443.29 327.39,-477.71 294.5,-497 288.65,-500.43 282.19,-503.25 275.59,-505.56"/>
<polygon fill="#63b8ff" stroke="#63b8ff" points="375.03,-423.76 378.03,-413.6 369.35,-419.66 375.03,-423.76"/>
</a>
</g>
</g>
<!-- Node10 -->
<g id="Node000010" class="node">
<title>Node10</title>
<g id="a_Node000010"><a xlink:href="sv__controller_8cc.html#ac929588885bf48bcabceb05324ccd1fc" target="_top" xlink:title=" ">
<polygon fill="white" stroke="#666666" points="285.5,-488 156.25,-488 156.25,-468 285.5,-468 285.5,-488"/>
<text xml:space="preserve" text-anchor="middle" x="220.88" y="-474.5" font-family="Helvetica,sans-Serif" font-size="10.00">sv_mp_get_usb_pad_size</text>
</a>
</g>
</g>
<!-- Node1&#45;&gt;Node10 -->
<g id="edge9_Node000001_Node000010" class="edge">
<title>Node1&#45;&gt;Node10</title>
<g id="a_edge9_Node000001_Node000010"><a xlink:title=" ">
<path fill="none" stroke="#63b8ff" d="M362.76,-419.17C344.91,-431.73 319.16,-448.38 294.5,-459 286.84,-462.3 278.47,-465.14 270.23,-467.54"/>
<polygon fill="#63b8ff" stroke="#63b8ff" points="364.75,-422.05 370.83,-413.38 360.66,-416.37 364.75,-422.05"/>
</a>
</g>
</g>
<!-- Node11 -->
<g id="Node000011" class="node">
<title>Node11</title>
<g id="a_Node000011"><a xlink:href="sv__controller_8cc.html#a644da1157cf2e83b99a634f3dc566db1" target="_top" xlink:title=" ">
<polygon fill="white" stroke="#666666" points="292.25,-450 149.5,-450 149.5,-430 292.25,-430 292.25,-450"/>
<text xml:space="preserve" text-anchor="middle" x="220.88" y="-436.5" font-family="Helvetica,sans-Serif" font-size="10.00">sv_mp_is_duration_complete</text>
</a>
</g>
</g>
<!-- Node1&#45;&gt;Node11 -->
<g id="edge10_Node000001_Node000011" class="edge">
<title>Node1&#45;&gt;Node11</title>
<g id="a_edge10_Node000001_Node000011"><a xlink:title=" ">
<path fill="none" stroke="#63b8ff" d="M329.55,-415.05C309.12,-419.78 286.32,-425.07 266.98,-429.55"/>
<polygon fill="#63b8ff" stroke="#63b8ff" points="330.2,-418.49 339.15,-412.83 328.62,-411.67 330.2,-418.49"/>
</a>
</g>
</g>
<!-- Node12 -->
<g id="Node000012" class="node">
<title>Node12</title>
<g id="a_Node000012"><a xlink:href="sv__controller_8cc.html#acbaa0a307291cbd4eebd6c6d94ff2963" target="_top" xlink:title=" ">
<polygon fill="white" stroke="#666666" points="268.25,-412 173.5,-412 173.5,-392 268.25,-392 268.25,-412"/>
<text xml:space="preserve" text-anchor="middle" x="220.88" y="-398.5" font-family="Helvetica,sans-Serif" font-size="10.00">sv_mp_is_running</text>
</a>
</g>
</g>
<!-- Node1&#45;&gt;Node12 -->
<g id="edge11_Node000001_Node000012" class="edge">
<title>Node1&#45;&gt;Node12</title>
<g id="a_edge11_Node000001_Node000012"><a xlink:title=" ">
<path fill="none" stroke="#63b8ff" d="M318.85,-402C301.98,-402 284.23,-402 268.6,-402"/>
<polygon fill="#63b8ff" stroke="#63b8ff" points="318.84,-405.5 328.84,-402 318.84,-398.5 318.84,-405.5"/>
</a>
</g>
</g>
<!-- Node14 -->
<g id="Node000014" class="node">
<title>Node14</title>
<g id="a_Node000014"><a xlink:href="sv__controller_8cc.html#a01cd45badf0b201495ad2c3a8d4d45f2" target="_top" xlink:title=" ">
<polygon fill="white" stroke="#666666" points="294.5,-374 147.25,-374 147.25,-354 294.5,-354 294.5,-374"/>
<text xml:space="preserve" text-anchor="middle" x="220.88" y="-360.5" font-family="Helvetica,sans-Serif" font-size="10.00">sv_mp_remove_all_publishers</text>
</a>
</g>
</g>
<!-- Node1&#45;&gt;Node14 -->
<g id="edge13_Node000001_Node000014" class="edge">
<title>Node1&#45;&gt;Node14</title>
<g id="a_edge13_Node000001_Node000014"><a xlink:title=" ">
<path fill="none" stroke="#63b8ff" d="M329.55,-388.95C309.12,-384.22 286.32,-378.93 266.98,-374.45"/>
<polygon fill="#63b8ff" stroke="#63b8ff" points="328.62,-392.33 339.15,-391.17 330.2,-385.51 328.62,-392.33"/>
</a>
</g>
</g>
<!-- Node15 -->
<g id="Node000015" class="node">
<title>Node15</title>
<g id="a_Node000015"><a xlink:href="sv__controller_8cc.html#ab3fde2e0bbe3ab795aea81d68d57b93a" target="_top" xlink:title=" ">
<polygon fill="white" stroke="#666666" points="284.38,-336 157.38,-336 157.38,-316 284.38,-316 284.38,-336"/>
<text xml:space="preserve" text-anchor="middle" x="220.88" y="-322.5" font-family="Helvetica,sans-Serif" font-size="10.00">sv_mp_remove_publisher</text>
</a>
</g>
</g>
<!-- Node1&#45;&gt;Node15 -->
<g id="edge14_Node000001_Node000015" class="edge">
<title>Node1&#45;&gt;Node15</title>
<g id="a_edge14_Node000001_Node000015"><a xlink:title=" ">
<path fill="none" stroke="#63b8ff" d="M362.76,-384.83C344.91,-372.27 319.16,-355.62 294.5,-345 286.84,-341.7 278.47,-338.86 270.23,-336.46"/>
<polygon fill="#63b8ff" stroke="#63b8ff" points="360.66,-387.63 370.83,-390.62 364.75,-381.95 360.66,-387.63"/>
</a>
</g>
</g>
<!-- Node16 -->
<g id="Node000016" class="node">
<title>Node16</title>
<g id="a_Node000016"><a xlink:href="sv__controller_8cc.html#a5a4e1896309f676cd254911b12b1ab77" target="_top" xlink:title=" ">
<polygon fill="white" stroke="#666666" points="264.5,-298 177.25,-298 177.25,-278 264.5,-278 264.5,-298"/>
<text xml:space="preserve" text-anchor="middle" x="220.88" y="-284.5" font-family="Helvetica,sans-Serif" font-size="10.00">sv_mp_reset_all</text>
</a>
</g>
</g>
<!-- Node1&#45;&gt;Node16 -->
<g id="edge15_Node000001_Node000016" class="edge">
<title>Node1&#45;&gt;Node16</title>
<g id="a_edge15_Node000001_Node000016"><a xlink:title=" ">
<path fill="none" stroke="#63b8ff" d="M372.26,-382.4C356.17,-360.71 327.39,-326.29 294.5,-307 285.51,-301.73 275.04,-297.89 264.9,-295.11"/>
<polygon fill="#63b8ff" stroke="#63b8ff" points="369.35,-384.34 378.03,-390.4 375.03,-380.24 369.35,-384.34"/>
</a>
</g>
</g>
<!-- Node17 -->
<g id="Node000017" class="node">
<title>Node17</title>
<g id="a_Node000017"><a xlink:href="sv__controller_8cc.html#a29bbed5b9e350d16b5db94f7e0762b84" target="_top" xlink:title=" ">
<polygon fill="white" stroke="#666666" points="272.75,-260 169,-260 169,-240 272.75,-240 272.75,-260"/>
<text xml:space="preserve" text-anchor="middle" x="220.88" y="-246.5" font-family="Helvetica,sans-Serif" font-size="10.00">sv_mp_set_duration</text>
</a>
</g>
</g>
<!-- Node1&#45;&gt;Node17 -->
<g id="edge16_Node000001_Node000017" class="edge">
<title>Node1&#45;&gt;Node17</title>
<g id="a_edge16_Node000001_Node000017"><a xlink:title=" ">
<path fill="none" stroke="#63b8ff" d="M377.43,-381.5C364.2,-352.02 335.79,-298 294.5,-269 288.1,-264.51 280.71,-261.07 273.15,-258.45"/>
<polygon fill="#63b8ff" stroke="#63b8ff" points="374.11,-382.65 381.29,-390.44 380.54,-379.87 374.11,-382.65"/>
</a>
</g>
</g>
<!-- Node18 -->
<g id="Node000018" class="node">
<title>Node18</title>
<g id="a_Node000018"><a xlink:href="sv__controller_8cc.html#a4d38ae474762b7236baa5ed32bf113e5" target="_top" xlink:title=" ">
<polygon fill="white" stroke="#666666" points="275,-222 166.75,-222 166.75,-190 275,-190 275,-222"/>
<text xml:space="preserve" text-anchor="start" x="174.75" y="-208.5" font-family="Helvetica,sans-Serif" font-size="10.00">sv_mp_set_publisher</text>
<text xml:space="preserve" text-anchor="middle" x="220.88" y="-196.5" font-family="Helvetica,sans-Serif" font-size="10.00">_equations</text>
</a>
</g>
</g>
<!-- Node1&#45;&gt;Node18 -->
<g id="edge17_Node000001_Node000018" class="edge">
<title>Node1&#45;&gt;Node18</title>
<g id="a_edge17_Node000001_Node000018"><a xlink:title=" ">
<path fill="none" stroke="#63b8ff" d="M380.13,-380.82C369.32,-344.91 342.63,-272.01 294.5,-231 288.82,-226.16 282.14,-222.24 275.19,-219.07"/>
<polygon fill="#63b8ff" stroke="#63b8ff" points="376.76,-381.76 382.88,-390.41 383.49,-379.83 376.76,-381.76"/>
</a>
</g>
</g>
<!-- Node19 -->
<g id="Node000019" class="node">
<title>Node19</title>
<g id="a_Node000019"><a xlink:href="sv__controller_8cc.html#a4e19eb64427914d1d201436993af1e4c" target="_top" xlink:title=" ">
<polygon fill="white" stroke="#666666" points="280.62,-172 161.12,-172 161.12,-152 280.62,-152 280.62,-172"/>
<text xml:space="preserve" text-anchor="middle" x="220.88" y="-158.5" font-family="Helvetica,sans-Serif" font-size="10.00">sv_mp_set_send_mode</text>
</a>
</g>
</g>
<!-- Node1&#45;&gt;Node19 -->
<g id="edge18_Node000001_Node000019" class="edge">
<title>Node1&#45;&gt;Node19</title>
<g id="a_edge18_Node000001_Node000019"><a xlink:title=" ">
<path fill="none" stroke="#63b8ff" d="M383.29,-380.18C376.84,-335.76 355.87,-234.53 294.5,-181 290.47,-177.49 285.87,-174.61 280.99,-172.26"/>
<polygon fill="#63b8ff" stroke="#63b8ff" points="379.82,-380.62 384.6,-390.07 386.76,-379.7 379.82,-380.62"/>
</a>
</g>
</g>
<!-- Node20 -->
<g id="Node000020" class="node">
<title>Node20</title>
<g id="a_Node000020"><a xlink:href="sv__controller_8cc.html#a83f8396fc31b1e00a30a7f20be93aca0" target="_top" xlink:title=" ">
<polygon fill="white" stroke="#666666" points="292.25,-134 149.5,-134 149.5,-114 292.25,-114 292.25,-134"/>
<text xml:space="preserve" text-anchor="middle" x="220.88" y="-120.5" font-family="Helvetica,sans-Serif" font-size="10.00">sv_mp_set_usb_min_gap_us</text>
</a>
</g>
</g>
<!-- Node1&#45;&gt;Node20 -->
<g id="edge19_Node000001_Node000020" class="edge">
<title>Node1&#45;&gt;Node20</title>
<g id="a_edge19_Node000001_Node000020"><a xlink:title=" ">
<path fill="none" stroke="#63b8ff" d="M384.8,-380.28C381.14,-330.59 365.04,-207.9 294.5,-143 290.76,-139.56 286.47,-136.72 281.89,-134.39"/>
<polygon fill="#63b8ff" stroke="#63b8ff" points="381.31,-380.49 385.42,-390.25 388.3,-380.06 381.31,-380.49"/>
</a>
</g>
</g>
<!-- Node21 -->
<g id="Node000021" class="node">
<title>Node21</title>
<g id="a_Node000021"><a xlink:href="sv__controller_8cc.html#aa77b032dcd6f5060771fadabd305ca53" target="_top" xlink:title=" ">
<polygon fill="white" stroke="#666666" points="285.5,-96 156.25,-96 156.25,-76 285.5,-76 285.5,-96"/>
<text xml:space="preserve" text-anchor="middle" x="220.88" y="-82.5" font-family="Helvetica,sans-Serif" font-size="10.00">sv_mp_set_usb_pad_size</text>
</a>
</g>
</g>
<!-- Node1&#45;&gt;Node21 -->
<g id="edge20_Node000001_Node000021" class="edge">
<title>Node1&#45;&gt;Node21</title>
<g id="a_edge20_Node000001_Node000021"><a xlink:title=" ">
<path fill="none" stroke="#63b8ff" d="M385.95,-380.49C384.91,-326.02 374.37,-181.54 294.5,-105 290.92,-101.57 286.81,-98.75 282.4,-96.41"/>
<polygon fill="#63b8ff" stroke="#63b8ff" points="382.45,-380.29 386.03,-390.26 389.45,-380.23 382.45,-380.29"/>
</a>
</g>
</g>
<!-- Node22 -->
<g id="Node000022" class="node">
<title>Node22</title>
<g id="a_Node000022"><a xlink:href="sv__controller_8cc.html#a1b6b0344797b9edf84722fde0e1c660a" target="_top" xlink:title=" ">
<polygon fill="white" stroke="#666666" points="263.38,-58 178.38,-58 178.38,-38 263.38,-38 263.38,-58"/>
<text xml:space="preserve" text-anchor="middle" x="220.88" y="-44.5" font-family="Helvetica,sans-Serif" font-size="10.00">sv_mp_start_all</text>
</a>
</g>
</g>
<!-- Node1&#45;&gt;Node22 -->
<g id="edge21_Node000001_Node000022" class="edge">
<title>Node1&#45;&gt;Node22</title>
<g id="a_edge21_Node000001_Node000022"><a xlink:title=" ">
<path fill="none" stroke="#63b8ff" d="M382.84,-380.44C373.02,-313.68 340.09,-112.12 294.5,-67 286.26,-58.84 274.97,-54.06 263.74,-51.29"/>
<polygon fill="#63b8ff" stroke="#63b8ff" points="379.34,-380.7 384.23,-390.09 386.27,-379.7 379.34,-380.7"/>
</a>
</g>
</g>
<!-- Node23 -->
<g id="Node000023" class="node">
<title>Node23</title>
<g id="a_Node000023"><a xlink:href="sv__controller_8cc.html#a8e437b55605082f953598ed00550c10d" target="_top" xlink:title=" ">
<polygon fill="white" stroke="#666666" points="263,-20 178.75,-20 178.75,0 263,0 263,-20"/>
<text xml:space="preserve" text-anchor="middle" x="220.88" y="-6.5" font-family="Helvetica,sans-Serif" font-size="10.00">sv_mp_stop_all</text>
</a>
</g>
</g>
<!-- Node1&#45;&gt;Node23 -->
<g id="edge22_Node000001_Node000023" class="edge">
<title>Node1&#45;&gt;Node23</title>
<g id="a_edge22_Node000001_Node000023"><a xlink:title=" ">
<path fill="none" stroke="#63b8ff" d="M383.47,-380.38C375.08,-308.63 344.8,-80.1 294.5,-29 286.18,-20.55 274.6,-15.7 263.12,-12.97"/>
<polygon fill="#63b8ff" stroke="#63b8ff" points="379.96,-380.49 384.58,-390.03 386.92,-379.7 379.96,-380.49"/>
</a>
</g>
</g>
<!-- Node13 -->
<g id="Node000013" class="node">
<title>Node13</title>
<g id="a_Node000013"><a xlink:href="sv__native__refactored_8cc.html#af14f0670e1b30534e33524f8c49a5580" target="_top" xlink:title="Start publishing.">
<polygon fill="white" stroke="#666666" points="111.25,-412 0,-412 0,-392 111.25,-392 111.25,-412"/>
<text xml:space="preserve" text-anchor="middle" x="55.62" y="-398.5" font-family="Helvetica,sans-Serif" font-size="10.00">npcap_publisher_start</text>
</a>
</g>
</g>
<!-- Node12&#45;&gt;Node13 -->
<g id="edge12_Node000012_Node000013" class="edge">
<title>Node12&#45;&gt;Node13</title>
<g id="a_edge12_Node000012_Node000013"><a xlink:title=" ">
<path fill="none" stroke="#63b8ff" d="M161.98,-402C145.56,-402 127.73,-402 111.49,-402"/>
<polygon fill="#63b8ff" stroke="#63b8ff" points="161.58,-405.5 171.58,-402 161.58,-398.5 161.58,-405.5"/>
</a>
</g>
</g>
</g>
</svg>

<g id="navigator" transform="translate(0 0)" fill="#404254">
  <rect fill="#f2f5e9" fill-opacity="0.5" stroke="#606060" stroke-width=".5" x="0" y="0" width="60" height="60"/>
  <use id="zoomplus" xlink:href="#zoomPlus" x="17" y="9" onmousedown="handleZoom(evt,'in')"/>
  <use id="zoomminus" xlink:href="#zoomMin" x="42" y="9" onmousedown="handleZoom(evt,'out')"/>
  <use id="reset" xlink:href="#resetDef" x="30" y="36" onmousedown="handleReset()"/>
   <use id="arrowup" xlink:href="#arrowUp" x="0" y="0" onmousedown="handlePan(0,-1)"/>
  <use id="arrowright" xlink:href="#arrowRight" x="0" y="0" onmousedown="handlePan(1,0)"/>
  <use id="arrowdown" xlink:href="#arrowDown" x="0" y="0" onmousedown="handlePan(0,1)"/>
  <use id="arrowleft" xlink:href="#arrowLeft" x="0" y="0" onmousedown="handlePan(-1,0)"/>
</g>
<svg viewBox="0 0 15 15" width="100%" height="30px" preserveAspectRatio="xMaxYMin meet">
 <g id="arrow_out" transform="scale(0.3 0.3)">
  <a xlink:href="class_sv_controller_afc102679fe80499c39d27cb8640394cc_icgraph_org.svg" target="_base">
   <rect id="button" ry="5" rx="5" y="6" x="6" height="38" width="38"
        fill="#f2f5e9" fill-opacity="0.5" stroke="#606060" stroke-width="1.0"/>
   <path id="arrow"
     d="M 11.500037,31.436501 C 11.940474,20.09759 22.043105,11.32322 32.158766,21.979434 L 37.068811,17.246167 C 37.068811,17.246167 37.088388,32 37.088388,32 L 22.160133,31.978069 C 22.160133,31.978069 26.997745,27.140456 26.997745,27.140456 C 18.528582,18.264221 13.291696,25.230495 11.500037,31.436501 z"
     style="fill:#404040;"/>
  </a>
 </g>
</svg>

<style type='text/css'>
<![CDATA[
[data-mouse-over-selected='false'] { opacity: 0.7; }
[data-mouse-over-selected='true']  { opacity: 1.0; }
]]>
</style>
<script type="application/ecmascript"><![CDATA[
document.addEventListener('DOMContentLoaded', (event) => {
  highlightEdges();
  highlightAdjacentNodes();
});
]]></script>
</svg>
