<?xml version="1.0" encoding="UTF-8" standalone="no"?>
<!DOCTYPE svg PUBLIC "-//W3C//DTD SVG 1.1//EN"
 "http://www.w3.org/Graphics/SVG/1.1/DTD/svg11.dtd">
<!-- Generated by graphviz version 14.1.2 (20260124.0452)
 -->
<!-- Title: SvController::writerLoopBatch Pages: 1 -->
<!--zoomable 544 -->

<svg id="main" version="1.1" xmlns="http://www.w3.org/2000/svg" xmlns:xlink="http://www.w3.org/1999/xlink" xml:space="preserve" onload="init(evt)">

<style type="text/css"><![CDATA[
.node, .edge {opacity: 0.7;}
.node.selected, .edge.selected {opacity: 1;}
.edge:hover path { stroke: red; }
.edge:hover polygon { stroke: red; fill: red; }
]]></style>

<defs>
  <circle id="rim" cx="0" cy="0" r="7"/>
  <circle id="rim2" cx="0" cy="0" r="3.5"/>
  <g id="zoomPlus">
    <use xlink:href="#rim" fill="#404040"><set attributeName="fill" to="#808080" begin="zoomplus.mouseover" end="zoomplus.mouseout"/></use>
    <path d="M-4,0h8M0,-4v8" fill="none" stroke="white" stroke-width="1.5" pointer-events="none"/>
  </g>
  <g id="zoomMin">
    <use xlink:href="#rim" fill="#404040"><set attributeName="fill" to="#808080" begin="zoomminus.mouseover" end="zoomminus.mouseout"/></use>
    <path d="M-4,0h8" fill="none" stroke="white" stroke-width="1.5" pointer-events="none"/>
  </g>
  <g id="arrowUp" transform="translate(30 24)">
    <use xlink:href="#rim"/>
    <path pointer-events="none" fill="none" stroke="white" stroke-width="1.5" d="M0,-3.0v7 M-2.5,-0.5L0,-3.0L2.5,-0.5"/>
  </g>
  <g id="arrowRight" transform="rotate(90) translate(36 -43)">
    <use xlink:href="#rim"/>
    <path pointer-events="none" fill="none" stroke="white" stroke-width="1.5" d="M0,-3.0v7 M-2.5,-0.5L0,-3.0L2.5,-0.5"/>
  </g>
  <g id="arrowDown" transform="rotate(180) translate(-30 -48)">
    <use xlink:href="#rim"/>
    <path pointer-events="none" fill="none" stroke="white" stroke-width="1.5" d="M0,-3.0v7 M-2.5,-0.5L0,-3.0L2.5,-0.5"/>
  </g>
  <g id="arrowLeft" transform="rotate(270) translate(-36 17)">
    <use xlink:href="#rim"/>
    <path pointer-events="none" fill="none" stroke="white" stroke-width="1.5" d="M0,-3.0v7 M-2.5,-0.5L0,-3.0L2.5,-0.5"/>
  </g>
  <g id="resetDef">
    <use xlink:href="#rim2" fill="#404040"><set attributeName="fill" to="#808080" begin="reset.mouseover" end="reset.mouseout"/></use>
  </g>
</defs>
<script type="application/ecmascript">
var viewWidth = 471;
var viewHeight = 544;
var sectionId = 'dynsection-42';
</script>
<script type="application/ecmascript" xlink:href="svg.min.js"/>
<svg id="graph" class="graph">
<g id="viewport">
<title>SvController::writerLoopBatch</title>
<!-- Node1 -->
<g id="Node000001" class="node">
<title>Node1</title>
<g id="a_Node000001"><a xlink:title=" ">
<polygon fill="#999999" stroke="#666666" points="121,-290 0,-290 0,-258 121,-258 121,-290"/>
<text xml:space="preserve" text-anchor="start" x="8" y="-276.5" font-family="Helvetica,sans-Serif" font-size="10.00">SvController::writerLoop</text>
<text xml:space="preserve" text-anchor="middle" x="60.5" y="-264.5" font-family="Helvetica,sans-Serif" font-size="10.00">Batch</text>
</a>
</g>
</g>
<!-- Node1&#45;&gt;Node1 -->
<g id="edge18_Node000001_Node000001" class="edge">
<title>Node1&#45;&gt;Node1</title>
<g id="a_edge18_Node000001_Node000001"><a xlink:title=" ">
<path fill="none" stroke="#63b8ff" d="M30.86,-290.44C25.33,-299.58 35.21,-308 60.5,-308 74.33,-308 83.55,-305.48 88.16,-301.71"/>
<polygon fill="#63b8ff" stroke="#63b8ff" points="91.6,-302.39 89.87,-291.93 84.7,-301.18 91.6,-302.39"/>
</a>
</g>
</g>
<!-- Node2 -->
<g id="Node000002" class="node">
<title>Node2</title>
<g id="a_Node000002"><a xlink:href="class_sv_controller.html#a02cc9113aeda2832ff4aa7ac87a96953" target="_top" xlink:title=" ">
<polygon fill="white" stroke="#666666" points="296,-536 157,-536 157,-504 296,-504 296,-536"/>
<text xml:space="preserve" text-anchor="start" x="165" y="-522.5" font-family="Helvetica,sans-Serif" font-size="10.00">SvController::checkDuration</text>
<text xml:space="preserve" text-anchor="middle" x="226.5" y="-510.5" font-family="Helvetica,sans-Serif" font-size="10.00">Elapsed</text>
</a>
</g>
</g>
<!-- Node1&#45;&gt;Node2 -->
<g id="edge1_Node000001_Node000002" class="edge">
<title>Node1&#45;&gt;Node2</title>
<g id="a_edge1_Node000001_Node000002"><a xlink:title=" ">
<path fill="none" stroke="#63b8ff" d="M64.5,-290.39C72.54,-329.85 98.04,-431.25 157,-490 159.8,-492.79 162.9,-495.34 166.19,-497.66"/>
<polygon fill="#63b8ff" stroke="#63b8ff" points="164.24,-500.58 174.59,-502.86 167.92,-494.62 164.24,-500.58"/>
</a>
</g>
</g>
<!-- Node3 -->
<g id="Node000003" class="node">
<title>Node3</title>
<g id="a_Node000003"><a xlink:href="sv__stats__impl_8cc.html#ae7cd346e20d4749f60fa7332dfae0dd7" target="_top" xlink:title="Get current time in milliseconds.">
<polygon fill="white" stroke="#666666" points="462.75,-240 332,-240 332,-220 462.75,-220 462.75,-240"/>
<text xml:space="preserve" text-anchor="middle" x="397.38" y="-226.5" font-family="Helvetica,sans-Serif" font-size="10.00">npcap_stats_get_time_ms</text>
</a>
</g>
</g>
<!-- Node1&#45;&gt;Node3 -->
<g id="edge8_Node000001_Node000003" class="edge">
<title>Node1&#45;&gt;Node3</title>
<g id="a_edge8_Node000001_Node000003"><a xlink:title=" ">
<path fill="none" stroke="#63b8ff" d="M64.25,-290.26C71.54,-327.69 95.25,-419.57 157,-457 209.83,-489.02 244.23,-490.71 296,-457 367.94,-410.15 388.7,-298.73 394.37,-251.62"/>
<polygon fill="#63b8ff" stroke="#63b8ff" points="397.83,-252.21 395.41,-241.89 390.87,-251.46 397.83,-252.21"/>
</a>
</g>
</g>
<!-- Node4 -->
<g id="Node000004" class="node">
<title>Node4</title>
<g id="a_Node000004"><a xlink:href="class_sv_controller.html#a8226108f3af97705b3d2caf0e8f130f5" target="_top" xlink:title=" ">
<polygon fill="white" stroke="#666666" points="295.25,-448 157.75,-448 157.75,-416 295.25,-416 295.25,-448"/>
<text xml:space="preserve" text-anchor="start" x="165.75" y="-434.5" font-family="Helvetica,sans-Serif" font-size="10.00">SvController::elevateThread</text>
<text xml:space="preserve" text-anchor="middle" x="226.5" y="-422.5" font-family="Helvetica,sans-Serif" font-size="10.00">Priority</text>
</a>
</g>
</g>
<!-- Node1&#45;&gt;Node4 -->
<g id="edge3_Node000001_Node000004" class="edge">
<title>Node1&#45;&gt;Node4</title>
<g id="a_edge3_Node000001_Node000004"><a xlink:title=" ">
<path fill="none" stroke="#63b8ff" d="M69.12,-290.33C82.88,-318.11 114.42,-374.7 157,-407 158.32,-408 159.69,-408.97 161.1,-409.9"/>
<polygon fill="#63b8ff" stroke="#63b8ff" points="159.09,-412.79 169.5,-414.78 162.6,-406.73 159.09,-412.79"/>
</a>
</g>
</g>
<!-- Node5 -->
<g id="Node000005" class="node">
<title>Node5</title>
<g id="a_Node000005"><a xlink:href="npcap__transmitter__impl_8cc.html#a3469e50a088ee2f93c0678e6d0286f56" target="_top" xlink:title="Add a packet to the queue.">
<polygon fill="white" stroke="#666666" points="273.88,-398 179.12,-398 179.12,-378 273.88,-378 273.88,-398"/>
<text xml:space="preserve" text-anchor="middle" x="226.5" y="-384.5" font-family="Helvetica,sans-Serif" font-size="10.00">npcap_queue_add</text>
</a>
</g>
</g>
<!-- Node1&#45;&gt;Node5 -->
<g id="edge4_Node000001_Node000005" class="edge">
<title>Node1&#45;&gt;Node5</title>
<g id="a_edge4_Node000001_Node000005"><a xlink:title=" ">
<path fill="none" stroke="#63b8ff" d="M73.51,-290.34C89.98,-311.59 121.62,-348.43 157,-369 160.57,-371.08 164.38,-372.93 168.3,-374.6"/>
<polygon fill="#63b8ff" stroke="#63b8ff" points="166.85,-377.79 177.45,-378.02 169.31,-371.24 166.85,-377.79"/>
</a>
</g>
</g>
<!-- Node6 -->
<g id="Node000006" class="node">
<title>Node6</title>
<g id="a_Node000006"><a xlink:href="npcap__transmitter__impl_8cc.html#a745d7b22094024f754840a72a108339e" target="_top" xlink:title="Allocate a send queue.">
<polygon fill="white" stroke="#666666" points="279.5,-360 173.5,-360 173.5,-340 279.5,-340 279.5,-360"/>
<text xml:space="preserve" text-anchor="middle" x="226.5" y="-346.5" font-family="Helvetica,sans-Serif" font-size="10.00">npcap_queue_create</text>
</a>
</g>
</g>
<!-- Node1&#45;&gt;Node6 -->
<g id="edge5_Node000001_Node000006" class="edge">
<title>Node1&#45;&gt;Node6</title>
<g id="a_edge5_Node000001_Node000006"><a xlink:title=" ">
<path fill="none" stroke="#63b8ff" d="M84.89,-290.38C103.67,-302.93 131.08,-319.91 157,-331 161.28,-332.83 165.78,-334.53 170.35,-336.11"/>
<polygon fill="#63b8ff" stroke="#63b8ff" points="169.02,-339.36 179.61,-339.08 171.16,-332.69 169.02,-339.36"/>
</a>
</g>
</g>
<!-- Node7 -->
<g id="Node000007" class="node">
<title>Node7</title>
<g id="a_Node000007"><a xlink:href="npcap__transmitter__impl_8cc.html#ae10474fb21e8e779e37605a98dd327eb" target="_top" xlink:title="Destroy a send queue.">
<polygon fill="white" stroke="#666666" points="282.12,-322 170.88,-322 170.88,-302 282.12,-302 282.12,-322"/>
<text xml:space="preserve" text-anchor="middle" x="226.5" y="-308.5" font-family="Helvetica,sans-Serif" font-size="10.00">npcap_queue_destroy</text>
</a>
</g>
</g>
<!-- Node1&#45;&gt;Node7 -->
<g id="edge6_Node000001_Node000007" class="edge">
<title>Node1&#45;&gt;Node7</title>
<g id="a_edge6_Node000001_Node000007"><a xlink:title=" ">
<path fill="none" stroke="#63b8ff" d="M121.17,-287.83C136.87,-291.46 153.75,-295.37 169.26,-298.97"/>
<polygon fill="#63b8ff" stroke="#63b8ff" points="168.27,-302.33 178.8,-301.18 169.85,-295.51 168.27,-302.33"/>
</a>
</g>
</g>
<!-- Node8 -->
<g id="Node000008" class="node">
<title>Node8</title>
<g id="a_Node000008"><a xlink:href="npcap__transmitter__impl_8cc.html#ae6e10a3445bc66c81ead5b438b868ea8" target="_top" xlink:title="Transmit all packets in the queue.">
<polygon fill="white" stroke="#666666" points="283.62,-284 169.38,-284 169.38,-264 283.62,-264 283.62,-284"/>
<text xml:space="preserve" text-anchor="middle" x="226.5" y="-270.5" font-family="Helvetica,sans-Serif" font-size="10.00">npcap_queue_transmit</text>
</a>
</g>
</g>
<!-- Node1&#45;&gt;Node8 -->
<g id="edge7_Node000001_Node000008" class="edge">
<title>Node1&#45;&gt;Node8</title>
<g id="a_edge7_Node000001_Node000008"><a xlink:title=" ">
<path fill="none" stroke="#63b8ff" d="M121.17,-274C132.97,-274 145.44,-274 157.49,-274"/>
<polygon fill="#63b8ff" stroke="#63b8ff" points="157.37,-277.5 167.37,-274 157.37,-270.5 157.37,-277.5"/>
</a>
</g>
</g>
<!-- Node9 -->
<g id="Node000009" class="node">
<title>Node9</title>
<g id="a_Node000009"><a xlink:href="sv__stats__impl_8cc.html#a210b53baa9526fbb867d2a6b3ad925c4" target="_top" xlink:title="Record a successful packet transmission.">
<polygon fill="white" stroke="#666666" points="277.25,-246 175.75,-246 175.75,-214 277.25,-214 277.25,-246"/>
<text xml:space="preserve" text-anchor="start" x="183.75" y="-232.5" font-family="Helvetica,sans-Serif" font-size="10.00">npcap_stats_record</text>
<text xml:space="preserve" text-anchor="middle" x="226.5" y="-220.5" font-family="Helvetica,sans-Serif" font-size="10.00">_packet</text>
</a>
</g>
</g>
<!-- Node1&#45;&gt;Node9 -->
<g id="edge9_Node000001_Node000009" class="edge">
<title>Node1&#45;&gt;Node9</title>
<g id="a_edge9_Node000001_Node000009"><a xlink:title=" ">
<path fill="none" stroke="#63b8ff" d="M121.17,-257.99C135.19,-254.23 150.15,-250.21 164.24,-246.44"/>
<polygon fill="#63b8ff" stroke="#63b8ff" points="165.1,-249.83 173.86,-243.86 163.29,-243.07 165.1,-249.83"/>
</a>
</g>
</g>
<!-- Node10 -->
<g id="Node000010" class="node">
<title>Node10</title>
<g id="a_Node000010"><a xlink:href="sv__stats__impl_8cc.html#a4e5f02e3cc9b2b06496cca1b54582e0a" target="_top" xlink:title="Reset all statistics to zero.">
<polygon fill="white" stroke="#666666" points="274.62,-196 178.38,-196 178.38,-176 274.62,-176 274.62,-196"/>
<text xml:space="preserve" text-anchor="middle" x="226.5" y="-182.5" font-family="Helvetica,sans-Serif" font-size="10.00">npcap_stats_reset</text>
</a>
</g>
</g>
<!-- Node1&#45;&gt;Node10 -->
<g id="edge11_Node000001_Node000010" class="edge">
<title>Node1&#45;&gt;Node10</title>
<g id="a_edge11_Node000001_Node000010"><a xlink:title=" ">
<path fill="none" stroke="#63b8ff" d="M79.96,-257.56C98.32,-242 127.87,-219 157,-205 160.66,-203.24 164.52,-201.62 168.45,-200.13"/>
<polygon fill="#63b8ff" stroke="#63b8ff" points="169.25,-203.55 177.56,-196.98 166.96,-196.94 169.25,-203.55"/>
</a>
</g>
</g>
<!-- Node11 -->
<g id="Node000011" class="node">
<title>Node11</title>
<g id="a_Node000011"><a xlink:href="sv__stats__impl_8cc.html#a4437629953bc0b691829d9c7b77cc061" target="_top" xlink:title="End the current statistics session.">
<polygon fill="white" stroke="#666666" points="291.12,-158 161.88,-158 161.88,-138 291.12,-138 291.12,-158"/>
<text xml:space="preserve" text-anchor="middle" x="226.5" y="-144.5" font-family="Helvetica,sans-Serif" font-size="10.00">npcap_stats_session_end</text>
</a>
</g>
</g>
<!-- Node1&#45;&gt;Node11 -->
<g id="edge12_Node000001_Node000011" class="edge">
<title>Node1&#45;&gt;Node11</title>
<g id="a_edge12_Node000001_Node000011"><a xlink:title=" ">
<path fill="none" stroke="#63b8ff" d="M71.69,-257.57C87.19,-233.95 118.94,-190.67 157,-167 159.43,-165.49 161.98,-164.1 164.61,-162.81"/>
<polygon fill="#63b8ff" stroke="#63b8ff" points="165.84,-166.09 173.68,-158.97 163.1,-159.65 165.84,-166.09"/>
</a>
</g>
</g>
<!-- Node12 -->
<g id="Node000012" class="node">
<title>Node12</title>
<g id="a_Node000012"><a xlink:href="sv__stats__impl_8cc.html#ad0737fafaaf6836a17171d40d5a3f77d" target="_top" xlink:title="Start a new statistics session.">
<polygon fill="white" stroke="#666666" points="280.62,-120 172.38,-120 172.38,-88 280.62,-88 280.62,-120"/>
<text xml:space="preserve" text-anchor="start" x="180.38" y="-106.5" font-family="Helvetica,sans-Serif" font-size="10.00">npcap_stats_session</text>
<text xml:space="preserve" text-anchor="middle" x="226.5" y="-94.5" font-family="Helvetica,sans-Serif" font-size="10.00">_start</text>
</a>
</g>
</g>
<!-- Node1&#45;&gt;Node12 -->
<g id="edge14_Node000001_Node000012" class="edge">
<title>Node1&#45;&gt;Node12</title>
<g id="a_edge14_Node000001_Node000012"><a xlink:title=" ">
<path fill="none" stroke="#63b8ff" d="M68.11,-257.61C80.91,-227.85 111.84,-164.71 157,-129 158.71,-127.65 160.51,-126.36 162.36,-125.14"/>
<polygon fill="#63b8ff" stroke="#63b8ff" points="163.82,-128.34 170.75,-120.33 160.33,-122.27 163.82,-128.34"/>
</a>
</g>
</g>
<!-- Node13 -->
<g id="Node000013" class="node">
<title>Node13</title>
<g id="a_Node000013"><a xlink:href="class_sv_controller.html#a3c943142f1ce34aac0434603ee3531c0" target="_top" xlink:title=" ">
<polygon fill="white" stroke="#666666" points="294.5,-70 158.5,-70 158.5,-38 294.5,-38 294.5,-70"/>
<text xml:space="preserve" text-anchor="start" x="166.5" y="-56.5" font-family="Helvetica,sans-Serif" font-size="10.00">SvController::restoreThread</text>
<text xml:space="preserve" text-anchor="middle" x="226.5" y="-44.5" font-family="Helvetica,sans-Serif" font-size="10.00">Priority</text>
</a>
</g>
</g>
<!-- Node1&#45;&gt;Node13 -->
<g id="edge16_Node000001_Node000013" class="edge">
<title>Node1&#45;&gt;Node13</title>
<g id="a_edge16_Node000001_Node000013"><a xlink:title=" ">
<path fill="none" stroke="#63b8ff" d="M65.1,-257.61C74.06,-220.53 100.81,-129.55 157,-79 157.92,-78.17 158.86,-77.38 159.84,-76.6"/>
<polygon fill="#63b8ff" stroke="#63b8ff" points="161.59,-79.64 167.94,-71.16 157.69,-73.83 161.59,-79.64"/>
</a>
</g>
</g>
<!-- Node14 -->
<g id="Node000014" class="node">
<title>Node14</title>
<g id="a_Node000014"><a xlink:href="class_sv_controller.html#a94fbbcc5d8c76669fe2c02d8de1927d4" target="_top" xlink:title=" ">
<polygon fill="white" stroke="#666666" points="287.38,-20 165.62,-20 165.62,0 287.38,0 287.38,-20"/>
<text xml:space="preserve" text-anchor="middle" x="226.5" y="-6.5" font-family="Helvetica,sans-Serif" font-size="10.00">SvController::spinPause</text>
</a>
</g>
</g>
<!-- Node1&#45;&gt;Node14 -->
<g id="edge17_Node000001_Node000014" class="edge">
<title>Node1&#45;&gt;Node14</title>
<g id="a_edge17_Node000001_Node000014"><a xlink:title=" ">
<path fill="none" stroke="#63b8ff" d="M62.92,-257.79C67.63,-214.03 86.72,-92.51 157,-29 158.08,-28.02 159.21,-27.09 160.38,-26.21"/>
<polygon fill="#63b8ff" stroke="#63b8ff" points="161.98,-29.33 168.7,-21.14 158.34,-23.36 161.98,-29.33"/>
</a>
</g>
</g>
<!-- Node2&#45;&gt;Node3 -->
<g id="edge2_Node000002_Node000003" class="edge">
<title>Node2&#45;&gt;Node3</title>
<g id="a_edge2_Node000002_Node000003"><a xlink:title=" ">
<path fill="none" stroke="#63b8ff" d="M277.7,-503.69C284.43,-499.96 290.79,-495.44 296,-490 362.93,-420.03 386.56,-300.57 393.68,-251.76"/>
<polygon fill="#63b8ff" stroke="#63b8ff" points="397.14,-252.33 395.01,-241.95 390.2,-251.39 397.14,-252.33"/>
</a>
</g>
</g>
<!-- Node9&#45;&gt;Node3 -->
<g id="edge10_Node000009_Node000003" class="edge">
<title>Node9&#45;&gt;Node3</title>
<g id="a_edge10_Node000009_Node000003"><a xlink:title=" ">
<path fill="none" stroke="#63b8ff" d="M277.71,-230C291.06,-230 305.78,-230 320.18,-230"/>
<polygon fill="#63b8ff" stroke="#63b8ff" points="320.12,-233.5 330.12,-230 320.12,-226.5 320.12,-233.5"/>
</a>
</g>
</g>
<!-- Node11&#45;&gt;Node3 -->
<g id="edge13_Node000011_Node000003" class="edge">
<title>Node11&#45;&gt;Node3</title>
<g id="a_edge13_Node000011_Node000003"><a xlink:title=" ">
<path fill="none" stroke="#63b8ff" d="M272.37,-158.43C280.39,-160.86 288.55,-163.71 296,-167 324.34,-179.5 354.07,-199.09 373.74,-213.11"/>
<polygon fill="#63b8ff" stroke="#63b8ff" points="371.42,-215.75 381.57,-218.78 375.53,-210.08 371.42,-215.75"/>
</a>
</g>
</g>
<!-- Node12&#45;&gt;Node3 -->
<g id="edge15_Node000012_Node000003" class="edge">
<title>Node12&#45;&gt;Node3</title>
<g id="a_edge15_Node000012_Node000003"><a xlink:title=" ">
<path fill="none" stroke="#63b8ff" d="M279.9,-120.37C285.51,-122.92 290.99,-125.79 296,-129 331.19,-151.52 363.66,-188.32 381.67,-210.73"/>
<polygon fill="#63b8ff" stroke="#63b8ff" points="378.81,-212.76 387.74,-218.46 384.31,-208.43 378.81,-212.76"/>
</a>
</g>
</g>
</g>
</svg>

<g id="navigator" transform="translate(0 0)" fill="#404254">
  <rect fill="#f2f5e9" fill-opacity="0.5" stroke="#606060" stroke-width=".5" x="0" y="0" width="60" height="60"/>
  <use id="zoomplus" xlink:href="#zoomPlus" x="17" y="9" onmousedown="handleZoom(evt,'in')"/>
  <use id="zoomminus" xlink:href="#zoomMin" x="42" y="9" onmousedown="handleZoom(evt,'out')"/>
  <use id="reset" xlink:href="#resetDef" x="30" y="36" onmousedown="handleReset()"/>
   <use id="arrowup" xlink:href="#arrowUp" x="0" y="0" onmousedown="handlePan(0,-1)"/>
  <use id="arrowright" xlink:href="#arrowRight" x="0" y="0" onmousedown="handlePan(1,0)"/>
  <use id="arrowdown" xlink:href="#arrowDown" x="0" y="0" onmousedown="handlePan(0,1)"/>
  <use id="arrowleft" xlink:href="#arrowLeft" x="0" y="0" onmousedown="handlePan(-1,0)"/>
</g>
<svg viewBox="0 0 15 15" width="100%" height="30px" preserveAspectRatio="xMaxYMin meet">
 <g id="arrow_out" transform="scale(0.3 0.3)">
  <a xlink:href="class_sv_controller_ab8c8181a6f1a3db44e42d2d1dcd3e2ff_cgraph_org.svg" target="_base">
   <rect id="button" ry="5" rx="5" y="6" x="6" height="38" width="38"
        fill="#f2f5e9" fill-opacity="0.5" stroke="#606060" stroke-width="1.0"/>
   <path id="arrow"
     d="M 11.500037,31.436501 C 11.940474,20.09759 22.043105,11.32322 32.158766,21.979434 L 37.068811,17.246167 C 37.068811,17.246167 37.088388,32 37.088388,32 L 22.160133,31.978069 C 22.160133,31.978069 26.997745,27.140456 26.997745,27.140456 C 18.528582,18.264221 13.291696,25.230495 11.500037,31.436501 z"
     style="fill:#404040;"/>
  </a>
 </g>
</svg>

<style type='text/css'>
<![CDATA[
[data-mouse-over-selected='false'] { opacity: 0.7; }
[data-mouse-over-selected='true']  { opacity: 1.0; }
]]>
</style>
<script type="application/ecmascript"><![CDATA[
document.addEventListener('DOMContentLoaded', (event) => {
  highlightEdges();
  highlightAdjacentNodes();
});
]]></script>
</svg>
