<?xml version="1.0" encoding="UTF-8" standalone="no"?>
<!DOCTYPE svg PUBLIC "-//W3C//DTD SVG 1.1//EN"
 "http://www.w3.org/Graphics/SVG/1.1/DTD/svg11.dtd">
<!-- Generated by graphviz version 14.1.2 (20260124.0452)
 -->
<!-- Title: SvPublisherInstance::prebuildFrames Pages: 1 -->
<svg width="430pt" height="166pt"
 viewBox="0.00 0.00 430.00 166.00" xmlns="http://www.w3.org/2000/svg" xmlns:xlink="http://www.w3.org/1999/xlink">
<g id="graph0" class="graph" transform="scale(1 1) rotate(0) translate(4 162)">
<title>SvPublisherInstance::prebuildFrames</title>
<!-- Node1 -->
<g id="Node000001" class="node">
<title>Node1</title>
<g id="a_Node000001"><a xlink:title=" ">
<polygon fill="#999999" stroke="#666666" points="106,-86 0,-86 0,-54 106,-54 106,-86"/>
<text xml:space="preserve" text-anchor="start" x="8" y="-72.5" font-family="Helvetica,sans-Serif" font-size="10.00">SvPublisherInstance</text>
<text xml:space="preserve" text-anchor="middle" x="53" y="-60.5" font-family="Helvetica,sans-Serif" font-size="10.00">::prebuildFrames</text>
</a>
</g>
</g>
<!-- Node2 -->
<g id="Node000002" class="node">
<title>Node2</title>
<g id="a_Node000002"><a xlink:href="class_sv_publisher_instance.html#a07adb7a283b437e611991af165079d33" target="_top" xlink:title=" ">
<polygon fill="white" stroke="#666666" points="263.75,-158 157.75,-158 157.75,-126 263.75,-126 263.75,-158"/>
<text xml:space="preserve" text-anchor="start" x="165.75" y="-144.5" font-family="Helvetica,sans-Serif" font-size="10.00">SvPublisherInstance</text>
<text xml:space="preserve" text-anchor="middle" x="210.75" y="-132.5" font-family="Helvetica,sans-Serif" font-size="10.00">::allocFrameCache</text>
</a>
</g>
</g>
<!-- Node1&#45;&gt;Node2 -->
<g id="edge1_Node000001_Node000002" class="edge">
<title>Node1&#45;&gt;Node2</title>
<g id="a_edge1_Node000001_Node000002"><a xlink:title=" ">
<path fill="none" stroke="#63b8ff" d="M82.44,-86.47C99.43,-95.99 121.62,-107.85 142,-117 145.32,-118.49 148.75,-119.96 152.24,-121.4"/>
<polygon fill="#63b8ff" stroke="#63b8ff" points="150.77,-124.59 161.36,-125.05 153.37,-118.09 150.77,-124.59"/>
</a>
</g>
</g>
<!-- Node4 -->
<g id="Node000004" class="node">
<title>Node4</title>
<g id="a_Node000004"><a xlink:href="class_sv_publisher_instance.html#ab6205cb086a0af417f339ab47403ec2b" target="_top" xlink:title=" ">
<polygon fill="white" stroke="#666666" points="263.75,-108 157.75,-108 157.75,-76 263.75,-76 263.75,-108"/>
<text xml:space="preserve" text-anchor="start" x="165.75" y="-94.5" font-family="Helvetica,sans-Serif" font-size="10.00">SvPublisherInstance</text>
<text xml:space="preserve" text-anchor="middle" x="210.75" y="-82.5" font-family="Helvetica,sans-Serif" font-size="10.00">::getPacketsPerSec</text>
</a>
</g>
</g>
<!-- Node1&#45;&gt;Node4 -->
<g id="edge3_Node000001_Node000004" class="edge">
<title>Node1&#45;&gt;Node4</title>
<g id="a_edge3_Node000001_Node000004"><a xlink:title=" ">
<path fill="none" stroke="#63b8ff" d="M106.3,-77.39C119.14,-79.2 133.02,-81.16 146.33,-83.04"/>
<polygon fill="#63b8ff" stroke="#63b8ff" points="145.44,-86.45 155.83,-84.38 146.42,-79.52 145.44,-86.45"/>
</a>
</g>
</g>
<!-- Node5 -->
<g id="Node000005" class="node">
<title>Node5</title>
<g id="a_Node000005"><a xlink:href="sv__encoder__impl_8cc.html#a58f4a492f4c37293fdfcc0401b72abd1" target="_top" xlink:title="Encode a single SV packet.">
<polygon fill="white" stroke="#666666" points="279.5,-58 142,-58 142,-38 279.5,-38 279.5,-58"/>
<text xml:space="preserve" text-anchor="middle" x="210.75" y="-44.5" font-family="Helvetica,sans-Serif" font-size="10.00">sv_encoder_encode_packet</text>
</a>
</g>
</g>
<!-- Node1&#45;&gt;Node5 -->
<g id="edge4_Node000001_Node000005" class="edge">
<title>Node1&#45;&gt;Node5</title>
<g id="a_edge4_Node000001_Node000005"><a xlink:title=" ">
<path fill="none" stroke="#63b8ff" d="M106.3,-62.61C114.07,-61.51 122.23,-60.36 130.41,-59.21"/>
<polygon fill="#63b8ff" stroke="#63b8ff" points="130.64,-62.71 140.05,-57.85 129.66,-55.78 130.64,-62.71"/>
</a>
</g>
</g>
<!-- Node6 -->
<g id="Node000006" class="node">
<title>Node6</title>
<g id="a_Node000006"><a xlink:href="sv__encoder__impl_8cc.html#a3b78a24c9d83ba55bcd667b3b7fec64c" target="_top" xlink:title="Set encoder configuration.">
<polygon fill="white" stroke="#666666" points="269,-20 152.5,-20 152.5,0 269,0 269,-20"/>
<text xml:space="preserve" text-anchor="middle" x="210.75" y="-6.5" font-family="Helvetica,sans-Serif" font-size="10.00">sv_encoder_set_config</text>
</a>
</g>
</g>
<!-- Node1&#45;&gt;Node6 -->
<g id="edge5_Node000001_Node000006" class="edge">
<title>Node1&#45;&gt;Node6</title>
<g id="a_edge5_Node000001_Node000006"><a xlink:title=" ">
<path fill="none" stroke="#63b8ff" d="M86.06,-53.53C102.51,-45.47 123.03,-36.02 142,-29 146.97,-27.16 152.19,-25.4 157.45,-23.74"/>
<polygon fill="#63b8ff" stroke="#63b8ff" points="158.19,-27.17 166.76,-20.94 156.17,-20.47 158.19,-27.17"/>
</a>
</g>
</g>
<!-- Node3 -->
<g id="Node000003" class="node">
<title>Node3</title>
<g id="a_Node000003"><a xlink:href="class_sv_publisher_instance.html#a0dac671a8464aeed05e6e83485c5c0ab" target="_top" xlink:title=" ">
<polygon fill="white" stroke="#666666" points="421.5,-158 315.5,-158 315.5,-126 421.5,-126 421.5,-158"/>
<text xml:space="preserve" text-anchor="start" x="323.5" y="-144.5" font-family="Helvetica,sans-Serif" font-size="10.00">SvPublisherInstance</text>
<text xml:space="preserve" text-anchor="middle" x="368.5" y="-132.5" font-family="Helvetica,sans-Serif" font-size="10.00">::freeFrameCache</text>
</a>
</g>
</g>
<!-- Node2&#45;&gt;Node3 -->
<g id="edge2_Node000002_Node000003" class="edge">
<title>Node2&#45;&gt;Node3</title>
<g id="a_edge2_Node000002_Node000003"><a xlink:title=" ">
<path fill="none" stroke="#63b8ff" d="M264.05,-142C276.76,-142 290.5,-142 303.68,-142"/>
<polygon fill="#63b8ff" stroke="#63b8ff" points="303.56,-145.5 313.56,-142 303.56,-138.5 303.56,-145.5"/>
</a>
</g>
</g>
</g>
</svg>
