<?xml version="1.0" encoding="UTF-8" standalone="no"?>
<!DOCTYPE svg PUBLIC "-//W3C//DTD SVG 1.1//EN"
 "http://www.w3.org/Graphics/SVG/1.1/DTD/svg11.dtd">
<!-- Generated by graphviz version 14.1.2 (20260124.0452)
 -->
<!-- Title: SvController::startAll Pages: 1 -->
<svg width="789pt" height="755pt"
 viewBox="0.00 0.00 789.00 755.00" xmlns="http://www.w3.org/2000/svg" xmlns:xlink="http://www.w3.org/1999/xlink">
<g id="graph0" class="graph" transform="scale(1 1) rotate(0) translate(4 751.06)">
<title>SvController::startAll</title>
<!-- Node1 -->
<g id="Node000001" class="node">
<title>Node1</title>
<g id="a_Node000001"><a xlink:title=" ">
<polygon fill="#999999" stroke="#666666" points="106.75,-416.06 0,-416.06 0,-396.06 106.75,-396.06 106.75,-416.06"/>
<text xml:space="preserve" text-anchor="middle" x="53.38" y="-402.56" font-family="Helvetica,sans-Serif" font-size="10.00">SvController::startAll</text>
</a>
</g>
</g>
<!-- Node2 -->
<g id="Node000002" class="node">
<title>Node2</title>
<g id="a_Node000002"><a xlink:href="npcap__transmitter__impl_8cc.html#abbf1f613938819749a5833ac67f5dc7b" target="_top" xlink:title="Check if an interface is open.">
<polygon fill="white" stroke="#666666" points="243.88,-482.06 162.62,-482.06 162.62,-462.06 243.88,-462.06 243.88,-482.06"/>
<text xml:space="preserve" text-anchor="middle" x="203.25" y="-468.56" font-family="Helvetica,sans-Serif" font-size="10.00">npcap_is_open</text>
</a>
</g>
</g>
<!-- Node1&#45;&gt;Node2 -->
<g id="edge1_Node000001_Node000002" class="edge">
<title>Node1&#45;&gt;Node2</title>
<g id="a_edge1_Node000001_Node000002"><a xlink:title=" ">
<path fill="none" stroke="#63b8ff" d="M71.53,-416.38C89.01,-426.6 117.13,-442.26 142.75,-453.06 146.79,-454.77 151.05,-456.41 155.34,-457.96"/>
<polygon fill="#63b8ff" stroke="#63b8ff" points="153.98,-461.2 164.57,-461.14 156.26,-454.58 153.98,-461.2"/>
</a>
</g>
</g>
<!-- Node3 -->
<g id="Node000003" class="node">
<title>Node3</title>
<g id="a_Node000003"><a xlink:href="sv__native__refactored_8cc.html#a2a043b3a2450447e0dbb5e912b86eeca" target="_top" xlink:title=" ">
<polygon fill="white" stroke="#666666" points="252.88,-444.06 153.62,-444.06 153.62,-412.06 252.88,-412.06 252.88,-444.06"/>
<text xml:space="preserve" text-anchor="start" x="161.62" y="-430.56" font-family="Helvetica,sans-Serif" font-size="10.00">npcap_publisher_is</text>
<text xml:space="preserve" text-anchor="middle" x="203.25" y="-418.56" font-family="Helvetica,sans-Serif" font-size="10.00">_running</text>
</a>
</g>
</g>
<!-- Node1&#45;&gt;Node3 -->
<g id="edge2_Node000001_Node000003" class="edge">
<title>Node1&#45;&gt;Node3</title>
<g id="a_edge2_Node000001_Node000003"><a xlink:title=" ">
<path fill="none" stroke="#63b8ff" d="M106.93,-413.88C118.38,-415.59 130.57,-417.4 142.29,-419.14"/>
<polygon fill="#63b8ff" stroke="#63b8ff" points="141.42,-422.55 151.83,-420.56 142.45,-415.63 141.42,-422.55"/>
</a>
</g>
</g>
<!-- Node4 -->
<g id="Node000004" class="node">
<title>Node4</title>
<g id="a_Node000004"><a xlink:href="sv__stats__impl_8cc.html#ae7cd346e20d4749f60fa7332dfae0dd7" target="_top" xlink:title="Get current time in milliseconds.">
<polygon fill="white" stroke="#666666" points="780.5,-463.06 649.75,-463.06 649.75,-443.06 780.5,-443.06 780.5,-463.06"/>
<text xml:space="preserve" text-anchor="middle" x="715.12" y="-449.56" font-family="Helvetica,sans-Serif" font-size="10.00">npcap_stats_get_time_ms</text>
</a>
</g>
</g>
<!-- Node1&#45;&gt;Node4 -->
<g id="edge3_Node000001_Node000004" class="edge">
<title>Node1&#45;&gt;Node4</title>
<g id="a_edge3_Node000001_Node000004"><a xlink:title=" ">
<path fill="none" stroke="#63b8ff" d="M60.72,-395.63C107.16,-320.45 399.08,130.88 613.75,-38.06 677.21,-88 705.35,-353.52 712.33,-431.51"/>
<polygon fill="#63b8ff" stroke="#63b8ff" points="708.82,-431.55 713.17,-441.21 715.8,-430.95 708.82,-431.55"/>
</a>
</g>
</g>
<!-- Node5 -->
<g id="Node000005" class="node">
<title>Node5</title>
<g id="a_Node000005"><a xlink:href="class_sv_controller.html#a30dfd716e1e85042e41a2299fac5711f" target="_top" xlink:title=" ">
<polygon fill="white" stroke="#666666" points="263.75,-394.06 142.75,-394.06 142.75,-374.06 263.75,-374.06 263.75,-394.06"/>
<text xml:space="preserve" text-anchor="middle" x="203.25" y="-380.56" font-family="Helvetica,sans-Serif" font-size="10.00">SvController::writerLoop</text>
</a>
</g>
</g>
<!-- Node1&#45;&gt;Node5 -->
<g id="edge4_Node000001_Node000005" class="edge">
<title>Node1&#45;&gt;Node5</title>
<g id="a_edge4_Node000001_Node000005"><a xlink:title=" ">
<path fill="none" stroke="#63b8ff" d="M106.93,-398.25C114.71,-397.09 122.85,-395.88 130.94,-394.67"/>
<polygon fill="#63b8ff" stroke="#63b8ff" points="131.43,-398.14 140.81,-393.2 130.4,-391.21 131.43,-398.14"/>
</a>
</g>
</g>
<!-- Node6 -->
<g id="Node000006" class="node">
<title>Node6</title>
<g id="a_Node000006"><a xlink:href="npcap__transmitter__impl_8cc.html#a3603a13e403ee5dc84d62e476f8c2a86" target="_top" xlink:title="Check if SendQueue API is available.">
<polygon fill="white" stroke="#666666" points="438,-525.06 299.75,-525.06 299.75,-505.06 438,-505.06 438,-525.06"/>
<text xml:space="preserve" text-anchor="middle" x="368.88" y="-511.56" font-family="Helvetica,sans-Serif" font-size="10.00">npcap_sendqueue_available</text>
</a>
</g>
</g>
<!-- Node5&#45;&gt;Node6 -->
<g id="edge5_Node000005_Node000006" class="edge">
<title>Node5&#45;&gt;Node6</title>
<g id="a_edge5_Node000005_Node000006"><a xlink:title=" ">
<path fill="none" stroke="#63b8ff" d="M251.35,-394.54C255.87,-396.84 260.12,-399.64 263.75,-403.06 296.02,-433.45 266.92,-466.29 299.75,-496.06 300.82,-497.04 301.94,-497.96 303.1,-498.84"/>
<polygon fill="#63b8ff" stroke="#63b8ff" points="301.01,-501.66 311.37,-503.9 304.67,-495.69 301.01,-501.66"/>
</a>
</g>
</g>
<!-- Node7 -->
<g id="Node000007" class="node">
<title>Node7</title>
<g id="a_Node000007"><a xlink:href="class_sv_controller.html#ab8c8181a6f1a3db44e42d2d1dcd3e2ff" target="_top" xlink:title=" ">
<polygon fill="white" stroke="#666666" points="429.38,-469.06 308.38,-469.06 308.38,-437.06 429.38,-437.06 429.38,-469.06"/>
<text xml:space="preserve" text-anchor="start" x="316.38" y="-455.56" font-family="Helvetica,sans-Serif" font-size="10.00">SvController::writerLoop</text>
<text xml:space="preserve" text-anchor="middle" x="368.88" y="-443.56" font-family="Helvetica,sans-Serif" font-size="10.00">Batch</text>
</a>
</g>
</g>
<!-- Node5&#45;&gt;Node7 -->
<g id="edge6_Node000005_Node000007" class="edge">
<title>Node5&#45;&gt;Node7</title>
<g id="a_edge6_Node000005_Node000007"><a xlink:title=" ">
<path fill="none" stroke="#63b8ff" d="M239.77,-394.52C247.74,-397.11 256.09,-400.02 263.75,-403.06 284.82,-411.44 307.59,-422.17 326.45,-431.54"/>
<polygon fill="#63b8ff" stroke="#63b8ff" points="324.62,-434.54 335.13,-435.9 327.77,-428.29 324.62,-434.54"/>
</a>
</g>
</g>
<!-- Node20 -->
<g id="Node000020" class="node">
<title>Node20</title>
<g id="a_Node000020"><a xlink:href="class_sv_controller.html#ab18faef1f888c015ba3850d11320b4a5" target="_top" xlink:title=" ">
<polygon fill="white" stroke="#666666" points="429.38,-331.06 308.38,-331.06 308.38,-299.06 429.38,-299.06 429.38,-331.06"/>
<text xml:space="preserve" text-anchor="start" x="316.38" y="-317.56" font-family="Helvetica,sans-Serif" font-size="10.00">SvController::writerLoop</text>
<text xml:space="preserve" text-anchor="middle" x="368.88" y="-305.56" font-family="Helvetica,sans-Serif" font-size="10.00">Immediate</text>
</a>
</g>
</g>
<!-- Node5&#45;&gt;Node20 -->
<g id="edge25_Node000005_Node000020" class="edge">
<title>Node5&#45;&gt;Node20</title>
<g id="a_edge25_Node000005_Node000020"><a xlink:title=" ">
<path fill="none" stroke="#63b8ff" d="M229.1,-373.58C252.67,-363.65 288.76,-348.43 318.23,-336"/>
<polygon fill="#63b8ff" stroke="#63b8ff" points="319.5,-339.26 327.35,-332.15 316.78,-332.81 319.5,-339.26"/>
</a>
</g>
</g>
<!-- Node7&#45;&gt;Node4 -->
<g id="edge14_Node000007_Node000004" class="edge">
<title>Node7&#45;&gt;Node4</title>
<g id="a_edge14_Node000007_Node000004"><a xlink:title=" ">
<path fill="none" stroke="#63b8ff" d="M403.37,-469.4C415.34,-476.4 428.27,-485.44 438,-496.06 461.63,-521.87 444.14,-547.84 474,-566.06 527.02,-598.42 557.09,-591.52 613.75,-566.06 656.03,-547.07 687.76,-500.48 703.36,-473.42"/>
<polygon fill="#63b8ff" stroke="#63b8ff" points="706.35,-475.24 708.14,-464.8 700.23,-471.85 706.35,-475.24"/>
</a>
</g>
</g>
<!-- Node7&#45;&gt;Node7 -->
<g id="edge24_Node000007_Node000007" class="edge">
<title>Node7&#45;&gt;Node7</title>
<g id="a_edge24_Node000007_Node000007"><a xlink:title=" ">
<path fill="none" stroke="#63b8ff" d="M339.31,-469.51C333.79,-478.65 343.64,-487.06 368.88,-487.06 382.67,-487.06 391.87,-484.55 396.48,-480.77"/>
<polygon fill="#63b8ff" stroke="#63b8ff" points="399.91,-481.45 398.18,-471 393.01,-480.25 399.91,-481.45"/>
</a>
</g>
</g>
<!-- Node8 -->
<g id="Node000008" class="node">
<title>Node8</title>
<g id="a_Node000008"><a xlink:href="class_sv_controller.html#a02cc9113aeda2832ff4aa7ac87a96953" target="_top" xlink:title=" ">
<polygon fill="white" stroke="#666666" points="613.38,-469.06 474.38,-469.06 474.38,-437.06 613.38,-437.06 613.38,-469.06"/>
<text xml:space="preserve" text-anchor="start" x="482.38" y="-455.56" font-family="Helvetica,sans-Serif" font-size="10.00">SvController::checkDuration</text>
<text xml:space="preserve" text-anchor="middle" x="543.88" y="-443.56" font-family="Helvetica,sans-Serif" font-size="10.00">Elapsed</text>
</a>
</g>
</g>
<!-- Node7&#45;&gt;Node8 -->
<g id="edge7_Node000007_Node000008" class="edge">
<title>Node7&#45;&gt;Node8</title>
<g id="a_edge7_Node000007_Node000008"><a xlink:title=" ">
<path fill="none" stroke="#63b8ff" d="M429.41,-453.06C440.19,-453.06 451.58,-453.06 462.83,-453.06"/>
<polygon fill="#63b8ff" stroke="#63b8ff" points="462.49,-456.56 472.49,-453.06 462.49,-449.56 462.49,-456.56"/>
</a>
</g>
</g>
<!-- Node9 -->
<g id="Node000009" class="node">
<title>Node9</title>
<g id="a_Node000009"><a xlink:href="class_sv_controller.html#a8226108f3af97705b3d2caf0e8f130f5" target="_top" xlink:title=" ">
<polygon fill="white" stroke="#666666" points="612.62,-419.06 475.12,-419.06 475.12,-387.06 612.62,-387.06 612.62,-419.06"/>
<text xml:space="preserve" text-anchor="start" x="483.12" y="-405.56" font-family="Helvetica,sans-Serif" font-size="10.00">SvController::elevateThread</text>
<text xml:space="preserve" text-anchor="middle" x="543.88" y="-393.56" font-family="Helvetica,sans-Serif" font-size="10.00">Priority</text>
</a>
</g>
</g>
<!-- Node7&#45;&gt;Node9 -->
<g id="edge9_Node000007_Node000009" class="edge">
<title>Node7&#45;&gt;Node9</title>
<g id="a_edge9_Node000007_Node000009"><a xlink:title=" ">
<path fill="none" stroke="#63b8ff" d="M426.52,-436.69C441.97,-432.23 458.88,-427.34 474.89,-422.71"/>
<polygon fill="#63b8ff" stroke="#63b8ff" points="475.72,-426.12 484.35,-419.98 473.77,-419.39 475.72,-426.12"/>
</a>
</g>
</g>
<!-- Node10 -->
<g id="Node000010" class="node">
<title>Node10</title>
<g id="a_Node000010"><a xlink:href="npcap__transmitter__impl_8cc.html#a3469e50a088ee2f93c0678e6d0286f56" target="_top" xlink:title="Add a packet to the queue.">
<polygon fill="white" stroke="#666666" points="591.25,-747.06 496.5,-747.06 496.5,-727.06 591.25,-727.06 591.25,-747.06"/>
<text xml:space="preserve" text-anchor="middle" x="543.88" y="-733.56" font-family="Helvetica,sans-Serif" font-size="10.00">npcap_queue_add</text>
</a>
</g>
</g>
<!-- Node7&#45;&gt;Node10 -->
<g id="edge10_Node000007_Node000010" class="edge">
<title>Node7&#45;&gt;Node10</title>
<g id="a_edge10_Node000007_Node000010"><a xlink:title=" ">
<path fill="none" stroke="#63b8ff" d="M408.12,-469.54C419.4,-476.2 430.67,-484.98 438,-496.06 493.13,-579.44 407.25,-643.66 474,-718.06 477.4,-721.85 481.48,-724.92 485.94,-727.39"/>
<polygon fill="#63b8ff" stroke="#63b8ff" points="484.22,-730.46 494.78,-731.3 487.05,-724.06 484.22,-730.46"/>
</a>
</g>
</g>
<!-- Node11 -->
<g id="Node000011" class="node">
<title>Node11</title>
<g id="a_Node000011"><a xlink:href="npcap__transmitter__impl_8cc.html#a745d7b22094024f754840a72a108339e" target="_top" xlink:title="Allocate a send queue.">
<polygon fill="white" stroke="#666666" points="596.88,-709.06 490.88,-709.06 490.88,-689.06 596.88,-689.06 596.88,-709.06"/>
<text xml:space="preserve" text-anchor="middle" x="543.88" y="-695.56" font-family="Helvetica,sans-Serif" font-size="10.00">npcap_queue_create</text>
</a>
</g>
</g>
<!-- Node7&#45;&gt;Node11 -->
<g id="edge11_Node000007_Node000011" class="edge">
<title>Node7&#45;&gt;Node11</title>
<g id="a_edge11_Node000007_Node000011"><a xlink:title=" ">
<path fill="none" stroke="#63b8ff" d="M407.55,-469.48C418.94,-476.17 430.41,-484.99 438,-496.06 485.08,-564.81 417.36,-618.95 474,-680.06 475.99,-682.21 478.2,-684.13 480.58,-685.83"/>
<polygon fill="#63b8ff" stroke="#63b8ff" points="478.67,-688.77 489.09,-690.67 482.13,-682.69 478.67,-688.77"/>
</a>
</g>
</g>
<!-- Node12 -->
<g id="Node000012" class="node">
<title>Node12</title>
<g id="a_Node000012"><a xlink:href="npcap__transmitter__impl_8cc.html#ae10474fb21e8e779e37605a98dd327eb" target="_top" xlink:title="Destroy a send queue.">
<polygon fill="white" stroke="#666666" points="599.5,-671.06 488.25,-671.06 488.25,-651.06 599.5,-651.06 599.5,-671.06"/>
<text xml:space="preserve" text-anchor="middle" x="543.88" y="-657.56" font-family="Helvetica,sans-Serif" font-size="10.00">npcap_queue_destroy</text>
</a>
</g>
</g>
<!-- Node7&#45;&gt;Node12 -->
<g id="edge12_Node000007_Node000012" class="edge">
<title>Node7&#45;&gt;Node12</title>
<g id="a_edge12_Node000007_Node000012"><a xlink:title=" ">
<path fill="none" stroke="#63b8ff" d="M406.89,-469.49C418.36,-476.22 430.06,-485.06 438,-496.06 477.09,-550.27 427.39,-594.16 474,-642.06 475.37,-643.47 476.83,-644.77 478.37,-645.98"/>
<polygon fill="#63b8ff" stroke="#63b8ff" points="476.28,-648.81 486.62,-651.14 479.99,-642.87 476.28,-648.81"/>
</a>
</g>
</g>
<!-- Node13 -->
<g id="Node000013" class="node">
<title>Node13</title>
<g id="a_Node000013"><a xlink:href="npcap__transmitter__impl_8cc.html#ae6e10a3445bc66c81ead5b438b868ea8" target="_top" xlink:title="Transmit all packets in the queue.">
<polygon fill="white" stroke="#666666" points="601,-633.06 486.75,-633.06 486.75,-613.06 601,-613.06 601,-633.06"/>
<text xml:space="preserve" text-anchor="middle" x="543.88" y="-619.56" font-family="Helvetica,sans-Serif" font-size="10.00">npcap_queue_transmit</text>
</a>
</g>
</g>
<!-- Node7&#45;&gt;Node13 -->
<g id="edge13_Node000007_Node000013" class="edge">
<title>Node7&#45;&gt;Node13</title>
<g id="a_edge13_Node000007_Node000013"><a xlink:title=" ">
<path fill="none" stroke="#63b8ff" d="M405.59,-469.52C417.24,-476.34 429.38,-485.23 438,-496.06 468.19,-534.01 439.69,-564.79 474,-599.06 477.18,-602.25 480.81,-605.01 484.7,-607.4"/>
<polygon fill="#63b8ff" stroke="#63b8ff" points="482.96,-610.44 493.45,-611.94 486.18,-604.23 482.96,-610.44"/>
</a>
</g>
</g>
<!-- Node14 -->
<g id="Node000014" class="node">
<title>Node14</title>
<g id="a_Node000014"><a xlink:href="sv__stats__impl_8cc.html#a210b53baa9526fbb867d2a6b3ad925c4" target="_top" xlink:title="Record a successful packet transmission.">
<polygon fill="white" stroke="#666666" points="594.62,-331.06 493.12,-331.06 493.12,-299.06 594.62,-299.06 594.62,-331.06"/>
<text xml:space="preserve" text-anchor="start" x="501.12" y="-317.56" font-family="Helvetica,sans-Serif" font-size="10.00">npcap_stats_record</text>
<text xml:space="preserve" text-anchor="middle" x="543.88" y="-305.56" font-family="Helvetica,sans-Serif" font-size="10.00">_packet</text>
</a>
</g>
</g>
<!-- Node7&#45;&gt;Node14 -->
<g id="edge15_Node000007_Node000014" class="edge">
<title>Node7&#45;&gt;Node14</title>
<g id="a_edge15_Node000007_Node000014"><a xlink:title=" ">
<path fill="none" stroke="#63b8ff" d="M380.81,-436.94C398,-412.73 433.58,-366.96 474,-340.06 476.82,-338.19 479.8,-336.43 482.88,-334.79"/>
<polygon fill="#63b8ff" stroke="#63b8ff" points="484.09,-338.08 491.58,-330.59 481.05,-331.78 484.09,-338.08"/>
</a>
</g>
</g>
<!-- Node15 -->
<g id="Node000015" class="node">
<title>Node15</title>
<g id="a_Node000015"><a xlink:href="sv__stats__impl_8cc.html#a4e5f02e3cc9b2b06496cca1b54582e0a" target="_top" xlink:title="Reset all statistics to zero.">
<polygon fill="white" stroke="#666666" points="592,-369.06 495.75,-369.06 495.75,-349.06 592,-349.06 592,-369.06"/>
<text xml:space="preserve" text-anchor="middle" x="543.88" y="-355.56" font-family="Helvetica,sans-Serif" font-size="10.00">npcap_stats_reset</text>
</a>
</g>
</g>
<!-- Node7&#45;&gt;Node15 -->
<g id="edge17_Node000007_Node000015" class="edge">
<title>Node7&#45;&gt;Node15</title>
<g id="a_edge17_Node000007_Node000015"><a xlink:title=" ">
<path fill="none" stroke="#63b8ff" d="M388.15,-436.77C407.99,-419.87 441.25,-393.75 474,-378.06 477.68,-376.3 481.56,-374.67 485.52,-373.18"/>
<polygon fill="#63b8ff" stroke="#63b8ff" points="486.36,-376.59 494.68,-370.03 484.09,-369.97 486.36,-376.59"/>
</a>
</g>
</g>
<!-- Node16 -->
<g id="Node000016" class="node">
<title>Node16</title>
<g id="a_Node000016"><a xlink:href="sv__stats__impl_8cc.html#a4437629953bc0b691829d9c7b77cc061" target="_top" xlink:title="End the current statistics session.">
<polygon fill="white" stroke="#666666" points="608.5,-557.06 479.25,-557.06 479.25,-537.06 608.5,-537.06 608.5,-557.06"/>
<text xml:space="preserve" text-anchor="middle" x="543.88" y="-543.56" font-family="Helvetica,sans-Serif" font-size="10.00">npcap_stats_session_end</text>
</a>
</g>
</g>
<!-- Node7&#45;&gt;Node16 -->
<g id="edge18_Node000007_Node000016" class="edge">
<title>Node7&#45;&gt;Node16</title>
<g id="a_edge18_Node000007_Node000016"><a xlink:title=" ">
<path fill="none" stroke="#63b8ff" d="M398.07,-469.43C410.62,-477.07 425.37,-486.56 438,-496.06 455.11,-508.93 455.19,-517.84 474,-528.06 477.01,-529.7 480.17,-531.2 483.42,-532.58"/>
<polygon fill="#63b8ff" stroke="#63b8ff" points="481.98,-535.78 492.57,-536.05 484.46,-529.24 481.98,-535.78"/>
</a>
</g>
</g>
<!-- Node17 -->
<g id="Node000017" class="node">
<title>Node17</title>
<g id="a_Node000017"><a xlink:href="sv__stats__impl_8cc.html#ad0737fafaaf6836a17171d40d5a3f77d" target="_top" xlink:title="Start a new statistics session.">
<polygon fill="white" stroke="#666666" points="598,-519.06 489.75,-519.06 489.75,-487.06 598,-487.06 598,-519.06"/>
<text xml:space="preserve" text-anchor="start" x="497.75" y="-505.56" font-family="Helvetica,sans-Serif" font-size="10.00">npcap_stats_session</text>
<text xml:space="preserve" text-anchor="middle" x="543.88" y="-493.56" font-family="Helvetica,sans-Serif" font-size="10.00">_start</text>
</a>
</g>
</g>
<!-- Node7&#45;&gt;Node17 -->
<g id="edge20_Node000007_Node000017" class="edge">
<title>Node7&#45;&gt;Node17</title>
<g id="a_edge20_Node000007_Node000017"><a xlink:title=" ">
<path fill="none" stroke="#63b8ff" d="M426.52,-469.44C443.09,-474.23 461.33,-479.5 478.35,-484.42"/>
<polygon fill="#63b8ff" stroke="#63b8ff" points="477.3,-487.75 487.88,-487.17 479.24,-481.03 477.3,-487.75"/>
</a>
</g>
</g>
<!-- Node18 -->
<g id="Node000018" class="node">
<title>Node18</title>
<g id="a_Node000018"><a xlink:href="class_sv_controller.html#a3c943142f1ce34aac0434603ee3531c0" target="_top" xlink:title=" ">
<polygon fill="white" stroke="#666666" points="611.88,-281.06 475.88,-281.06 475.88,-249.06 611.88,-249.06 611.88,-281.06"/>
<text xml:space="preserve" text-anchor="start" x="483.88" y="-267.56" font-family="Helvetica,sans-Serif" font-size="10.00">SvController::restoreThread</text>
<text xml:space="preserve" text-anchor="middle" x="543.88" y="-255.56" font-family="Helvetica,sans-Serif" font-size="10.00">Priority</text>
</a>
</g>
</g>
<!-- Node7&#45;&gt;Node18 -->
<g id="edge22_Node000007_Node000018" class="edge">
<title>Node7&#45;&gt;Node18</title>
<g id="a_edge22_Node000007_Node000018"><a xlink:title=" ">
<path fill="none" stroke="#63b8ff" d="M382.64,-436.71C396.88,-418.15 420.26,-386.71 438,-358.06 456.01,-328.99 448.2,-312.51 474,-290.06 474.94,-289.25 475.9,-288.46 476.89,-287.7"/>
<polygon fill="#63b8ff" stroke="#63b8ff" points="478.66,-290.72 485.11,-282.31 474.83,-284.86 478.66,-290.72"/>
</a>
</g>
</g>
<!-- Node19 -->
<g id="Node000019" class="node">
<title>Node19</title>
<g id="a_Node000019"><a xlink:href="class_sv_controller.html#a94fbbcc5d8c76669fe2c02d8de1927d4" target="_top" xlink:title=" ">
<polygon fill="white" stroke="#666666" points="604.75,-231.06 483,-231.06 483,-211.06 604.75,-211.06 604.75,-231.06"/>
<text xml:space="preserve" text-anchor="middle" x="543.88" y="-217.56" font-family="Helvetica,sans-Serif" font-size="10.00">SvController::spinPause</text>
</a>
</g>
</g>
<!-- Node7&#45;&gt;Node19 -->
<g id="edge23_Node000007_Node000019" class="edge">
<title>Node7&#45;&gt;Node19</title>
<g id="a_edge23_Node000007_Node000019"><a xlink:title=" ">
<path fill="none" stroke="#63b8ff" d="M384.23,-436.64C399.44,-418.5 423.25,-387.9 438,-358.06 462.3,-308.91 434.71,-278.31 474,-240.06 474.89,-239.2 475.81,-238.37 476.77,-237.58"/>
<polygon fill="#63b8ff" stroke="#63b8ff" points="478.42,-240.68 484.85,-232.26 474.57,-234.84 478.42,-240.68"/>
</a>
</g>
</g>
<!-- Node8&#45;&gt;Node4 -->
<g id="edge8_Node000008_Node000004" class="edge">
<title>Node8&#45;&gt;Node4</title>
<g id="a_edge8_Node000008_Node000004"><a xlink:title=" ">
<path fill="none" stroke="#63b8ff" d="M613.72,-453.06C621.74,-453.06 629.96,-453.06 638.07,-453.06"/>
<polygon fill="#63b8ff" stroke="#63b8ff" points="637.93,-456.56 647.93,-453.06 637.93,-449.56 637.93,-456.56"/>
</a>
</g>
</g>
<!-- Node14&#45;&gt;Node4 -->
<g id="edge16_Node000014_Node000004" class="edge">
<title>Node14&#45;&gt;Node4</title>
<g id="a_edge16_Node000014_Node000004"><a xlink:title=" ">
<path fill="none" stroke="#63b8ff" d="M594.87,-329.83C601.48,-332.74 607.96,-336.13 613.75,-340.06 651.36,-365.6 684.04,-408.32 701.23,-433.28"/>
<polygon fill="#63b8ff" stroke="#63b8ff" points="698.29,-435.18 706.78,-441.53 704.1,-431.28 698.29,-435.18"/>
</a>
</g>
</g>
<!-- Node16&#45;&gt;Node4 -->
<g id="edge19_Node000016_Node000004" class="edge">
<title>Node16&#45;&gt;Node4</title>
<g id="a_edge19_Node000016_Node000004"><a xlink:title=" ">
<path fill="none" stroke="#63b8ff" d="M592.05,-536.58C599.49,-534.21 606.95,-531.39 613.75,-528.06 644.64,-512.93 675.67,-487.88 694.87,-470.93"/>
<polygon fill="#63b8ff" stroke="#63b8ff" points="697.09,-473.65 702.18,-464.36 692.4,-468.45 697.09,-473.65"/>
</a>
</g>
</g>
<!-- Node17&#45;&gt;Node4 -->
<g id="edge21_Node000017_Node000004" class="edge">
<title>Node17&#45;&gt;Node4</title>
<g id="a_edge21_Node000017_Node000004"><a xlink:title=" ">
<path fill="none" stroke="#63b8ff" d="M598.43,-487.24C620.78,-480.64 646.48,-473.05 667.98,-466.7"/>
<polygon fill="#63b8ff" stroke="#63b8ff" points="668.75,-470.12 677.35,-463.93 666.77,-463.41 668.75,-470.12"/>
</a>
</g>
</g>
<!-- Node20&#45;&gt;Node4 -->
<g id="edge30_Node000020_Node000004" class="edge">
<title>Node20&#45;&gt;Node4</title>
<g id="a_edge30_Node000020_Node000004"><a xlink:title=" ">
<path fill="none" stroke="#63b8ff" d="M378.78,-298.81C394.18,-272.61 428.56,-221.98 474,-202.06 530.89,-177.13 562.32,-167.24 613.75,-202.06 692.22,-255.2 709.35,-380.67 713.08,-431.31"/>
<polygon fill="#63b8ff" stroke="#63b8ff" points="709.59,-431.46 713.69,-441.22 716.57,-431.03 709.59,-431.46"/>
</a>
</g>
</g>
<!-- Node20&#45;&gt;Node8 -->
<g id="edge26_Node000020_Node000008" class="edge">
<title>Node20&#45;&gt;Node8</title>
<g id="a_edge26_Node000020_Node000008"><a xlink:title=" ">
<path fill="none" stroke="#63b8ff" d="M380.81,-331.19C398,-355.4 433.58,-401.16 474,-428.06 475.79,-429.25 477.64,-430.39 479.54,-431.49"/>
<polygon fill="#63b8ff" stroke="#63b8ff" points="477.52,-434.38 488,-435.88 480.74,-428.17 477.52,-434.38"/>
</a>
</g>
</g>
<!-- Node20&#45;&gt;Node9 -->
<g id="edge27_Node000020_Node000009" class="edge">
<title>Node20&#45;&gt;Node9</title>
<g id="a_edge27_Node000020_Node000009"><a xlink:title=" ">
<path fill="none" stroke="#63b8ff" d="M393.94,-331.49C414.57,-345.11 445.41,-364.39 474,-378.06 477.06,-379.53 480.22,-380.95 483.44,-382.34"/>
<polygon fill="#63b8ff" stroke="#63b8ff" points="481.86,-385.48 492.44,-386.04 484.52,-379 481.86,-385.48"/>
</a>
</g>
</g>
<!-- Node20&#45;&gt;Node14 -->
<g id="edge32_Node000020_Node000014" class="edge">
<title>Node20&#45;&gt;Node14</title>
<g id="a_edge32_Node000020_Node000014"><a xlink:title=" ">
<path fill="none" stroke="#63b8ff" d="M429.41,-315.06C446.17,-315.06 464.42,-315.06 481.3,-315.06"/>
<polygon fill="#63b8ff" stroke="#63b8ff" points="481.21,-318.56 491.21,-315.06 481.21,-311.56 481.21,-318.56"/>
</a>
</g>
</g>
<!-- Node20&#45;&gt;Node15 -->
<g id="edge33_Node000020_Node000015" class="edge">
<title>Node20&#45;&gt;Node15</title>
<g id="a_edge33_Node000020_Node000015"><a xlink:title=" ">
<path fill="none" stroke="#63b8ff" d="M429.41,-330.21C449.35,-335.28 471.41,-340.89 490.73,-345.8"/>
<polygon fill="#63b8ff" stroke="#63b8ff" points="489.74,-349.16 500.29,-348.23 491.46,-342.38 489.74,-349.16"/>
</a>
</g>
</g>
<!-- Node20&#45;&gt;Node16 -->
<g id="edge34_Node000020_Node000016" class="edge">
<title>Node20&#45;&gt;Node16</title>
<g id="a_edge34_Node000020_Node000016"><a xlink:title=" ">
<path fill="none" stroke="#63b8ff" d="M381.1,-331.34C395.56,-352.8 420.88,-392.07 438,-428.06 458.29,-470.72 439.35,-495.96 474,-528.06 474.93,-528.93 475.9,-529.75 476.9,-530.54"/>
<polygon fill="#63b8ff" stroke="#63b8ff" points="475.02,-533.5 485.35,-535.88 478.76,-527.58 475.02,-533.5"/>
</a>
</g>
</g>
<!-- Node20&#45;&gt;Node17 -->
<g id="edge35_Node000020_Node000017" class="edge">
<title>Node20&#45;&gt;Node17</title>
<g id="a_edge35_Node000020_Node000017"><a xlink:title=" ">
<path fill="none" stroke="#63b8ff" d="M379.53,-331.47C402.73,-370.68 460.67,-467.38 474,-478.06 475.75,-479.47 477.59,-480.79 479.49,-482.05"/>
<polygon fill="#63b8ff" stroke="#63b8ff" points="477.71,-485.07 488.13,-487 481.19,-478.99 477.71,-485.07"/>
</a>
</g>
</g>
<!-- Node20&#45;&gt;Node18 -->
<g id="edge36_Node000020_Node000018" class="edge">
<title>Node20&#45;&gt;Node18</title>
<g id="a_edge36_Node000020_Node000018"><a xlink:title=" ">
<path fill="none" stroke="#63b8ff" d="M426.52,-298.69C441.97,-294.23 458.88,-289.34 474.89,-284.71"/>
<polygon fill="#63b8ff" stroke="#63b8ff" points="475.72,-288.12 484.35,-281.98 473.77,-281.39 475.72,-288.12"/>
</a>
</g>
</g>
<!-- Node20&#45;&gt;Node19 -->
<g id="edge37_Node000020_Node000019" class="edge">
<title>Node20&#45;&gt;Node19</title>
<g id="a_edge37_Node000020_Node000019"><a xlink:title=" ">
<path fill="none" stroke="#63b8ff" d="M388.15,-298.77C407.99,-281.87 441.25,-255.75 474,-240.06 477.68,-238.3 481.56,-236.67 485.52,-235.18"/>
<polygon fill="#63b8ff" stroke="#63b8ff" points="486.36,-238.59 494.68,-232.03 484.09,-231.97 486.36,-238.59"/>
</a>
</g>
</g>
<!-- Node20&#45;&gt;Node20 -->
<g id="edge38_Node000020_Node000020" class="edge">
<title>Node20&#45;&gt;Node20</title>
<g id="a_edge38_Node000020_Node000020"><a xlink:title=" ">
<path fill="none" stroke="#63b8ff" d="M339.31,-331.51C333.79,-340.65 343.64,-349.06 368.88,-349.06 382.67,-349.06 391.87,-346.55 396.48,-342.77"/>
<polygon fill="#63b8ff" stroke="#63b8ff" points="399.91,-343.45 398.18,-333 393.01,-342.25 399.91,-343.45"/>
</a>
</g>
</g>
<!-- Node21 -->
<g id="Node000021" class="node">
<title>Node21</title>
<g id="a_Node000021"><a xlink:href="npcap__transmitter__impl_8cc.html#adc39100394280e20f1f1a569849bdf2d" target="_top" xlink:title="Send a single packet.">
<polygon fill="white" stroke="#666666" points="595.38,-105.06 492.38,-105.06 492.38,-85.06 595.38,-85.06 595.38,-105.06"/>
<text xml:space="preserve" text-anchor="middle" x="543.88" y="-91.56" font-family="Helvetica,sans-Serif" font-size="10.00">npcap_send_packet</text>
</a>
</g>
</g>
<!-- Node20&#45;&gt;Node21 -->
<g id="edge28_Node000020_Node000021" class="edge">
<title>Node20&#45;&gt;Node21</title>
<g id="a_edge28_Node000020_Node000021"><a xlink:title=" ">
<path fill="none" stroke="#63b8ff" d="M373.59,-298.68C383.15,-260.3 412.32,-164.04 474,-114.06 476.4,-112.12 478.99,-110.37 481.7,-108.8"/>
<polygon fill="#63b8ff" stroke="#63b8ff" points="483.11,-112.01 490.61,-104.52 480.08,-105.7 483.11,-112.01"/>
</a>
</g>
</g>
<!-- Node22 -->
<g id="Node000022" class="node">
<title>Node22</title>
<g id="a_Node000022"><a xlink:href="npcap__transmitter__impl_8cc.html#a53c0941475ca471f1cc998f9641f8b5e" target="_top" xlink:title="Send a packet with trailing zero&#45;padding.">
<polygon fill="white" stroke="#666666" points="613.75,-67.06 474,-67.06 474,-47.06 613.75,-47.06 613.75,-67.06"/>
<text xml:space="preserve" text-anchor="middle" x="543.88" y="-53.56" font-family="Helvetica,sans-Serif" font-size="10.00">npcap_send_packet_padded</text>
</a>
</g>
</g>
<!-- Node20&#45;&gt;Node22 -->
<g id="edge29_Node000020_Node000022" class="edge">
<title>Node20&#45;&gt;Node22</title>
<g id="a_edge29_Node000020_Node000022"><a xlink:title=" ">
<path fill="none" stroke="#63b8ff" d="M372.13,-298.58C378.95,-255.26 403.4,-137.31 474,-76.06 475.11,-75.1 476.26,-74.19 477.45,-73.33"/>
<polygon fill="#63b8ff" stroke="#63b8ff" points="479.08,-76.42 485.9,-68.31 475.51,-70.4 479.08,-76.42"/>
</a>
</g>
</g>
<!-- Node23 -->
<g id="Node000023" class="node">
<title>Node23</title>
<g id="a_Node000023"><a xlink:href="sv__stats__impl_8cc.html#a280e159261a15485b1e0309f59df84e8" target="_top" xlink:title="Record a failed packet transmission.">
<polygon fill="white" stroke="#666666" points="594.62,-155.06 493.12,-155.06 493.12,-123.06 594.62,-123.06 594.62,-155.06"/>
<text xml:space="preserve" text-anchor="start" x="501.12" y="-141.56" font-family="Helvetica,sans-Serif" font-size="10.00">npcap_stats_record</text>
<text xml:space="preserve" text-anchor="middle" x="543.88" y="-129.56" font-family="Helvetica,sans-Serif" font-size="10.00">_failure</text>
</a>
</g>
</g>
<!-- Node20&#45;&gt;Node23 -->
<g id="edge31_Node000020_Node000023" class="edge">
<title>Node20&#45;&gt;Node23</title>
<g id="a_edge31_Node000020_Node000023"><a xlink:title=" ">
<path fill="none" stroke="#63b8ff" d="M377.67,-298.85C392.58,-269.35 427.8,-206.5 474,-169.06 477.65,-166.11 481.63,-163.39 485.79,-160.9"/>
<polygon fill="#63b8ff" stroke="#63b8ff" points="487.26,-164.08 494.38,-156.23 483.92,-157.93 487.26,-164.08"/>
</a>
</g>
</g>
</g>
</svg>
