<?xml version="1.0" encoding="UTF-8" standalone="no"?>
<!DOCTYPE svg PUBLIC "-//W3C//DTD SVG 1.1//EN"
 "http://www.w3.org/Graphics/SVG/1.1/DTD/svg11.dtd">
<!-- Generated by graphviz version 14.1.2 (20260124.0452)
 -->
<!-- Title: SvController::findPublisher Pages: 1 -->
<svg width="503pt" height="116pt"
 viewBox="0.00 0.00 503.00 116.00" xmlns="http://www.w3.org/2000/svg" xmlns:xlink="http://www.w3.org/1999/xlink">
<g id="graph0" class="graph" transform="scale(1 1) rotate(0) translate(4 112)">
<title>SvController::findPublisher</title>
<!-- Node1 -->
<g id="Node000001" class="node">
<title>Node1</title>
<g id="a_Node000001"><a xlink:title=" ">
<polygon fill="#999999" stroke="#666666" points="495,-70 362.75,-70 362.75,-50 495,-50 495,-70"/>
<text xml:space="preserve" text-anchor="middle" x="428.88" y="-56.5" font-family="Helvetica,sans-Serif" font-size="10.00">SvController::findPublisher</text>
</a>
</g>
</g>
<!-- Node2 -->
<g id="Node000002" class="node">
<title>Node2</title>
<g id="a_Node000002"><a xlink:href="class_sv_controller.html#ab944012e84223042f41a82ef24d71389" target="_top" xlink:title=" ">
<polygon fill="white" stroke="#666666" points="326.75,-108 170.5,-108 170.5,-88 326.75,-88 326.75,-108"/>
<text xml:space="preserve" text-anchor="middle" x="248.62" y="-94.5" font-family="Helvetica,sans-Serif" font-size="10.00">SvController::configurePublisher</text>
</a>
</g>
</g>
<!-- Node1&#45;&gt;Node2 -->
<g id="edge1_Node000001_Node000002" class="edge">
<title>Node1&#45;&gt;Node2</title>
<g id="a_edge1_Node000001_Node000002"><a xlink:title=" ">
<path fill="none" stroke="#63b8ff" d="M367.58,-72.85C345.14,-77.64 319.96,-83.01 298.64,-87.55"/>
<polygon fill="#63b8ff" stroke="#63b8ff" points="368.16,-76.31 377.22,-70.8 366.71,-69.46 368.16,-76.31"/>
</a>
</g>
</g>
<!-- Node4 -->
<g id="Node000004" class="node">
<title>Node4</title>
<g id="a_Node000004"><a xlink:href="class_sv_controller.html#a5715442dc284c1cfe20432aa12e6722e" target="_top" xlink:title=" ">
<polygon fill="white" stroke="#666666" points="313.62,-70 183.62,-70 183.62,-50 313.62,-50 313.62,-70"/>
<text xml:space="preserve" text-anchor="middle" x="248.62" y="-56.5" font-family="Helvetica,sans-Serif" font-size="10.00">SvController::getPublisher</text>
</a>
</g>
</g>
<!-- Node1&#45;&gt;Node4 -->
<g id="edge3_Node000001_Node000004" class="edge">
<title>Node1&#45;&gt;Node4</title>
<g id="a_edge3_Node000001_Node000004"><a xlink:title=" ">
<path fill="none" stroke="#63b8ff" d="M351.02,-60C338.64,-60 325.95,-60 313.91,-60"/>
<polygon fill="#63b8ff" stroke="#63b8ff" points="350.75,-63.5 360.75,-60 350.75,-56.5 350.75,-63.5"/>
</a>
</g>
</g>
<!-- Node5 -->
<g id="Node000005" class="node">
<title>Node5</title>
<g id="a_Node000005"><a xlink:href="class_sv_controller.html#a2f73efbc4d8210e348f18b954228b3da" target="_top" xlink:title=" ">
<polygon fill="white" stroke="#666666" points="313.62,-32 183.62,-32 183.62,0 313.62,0 313.62,-32"/>
<text xml:space="preserve" text-anchor="start" x="191.62" y="-18.5" font-family="Helvetica,sans-Serif" font-size="10.00">SvController::setPublisher</text>
<text xml:space="preserve" text-anchor="middle" x="248.62" y="-6.5" font-family="Helvetica,sans-Serif" font-size="10.00">Equations</text>
</a>
</g>
</g>
<!-- Node1&#45;&gt;Node5 -->
<g id="edge4_Node000001_Node000005" class="edge">
<title>Node1&#45;&gt;Node5</title>
<g id="a_edge4_Node000001_Node000005"><a xlink:title=" ">
<path fill="none" stroke="#63b8ff" d="M374.72,-46.88C355.61,-42.16 333.84,-36.79 313.88,-31.86"/>
<polygon fill="#63b8ff" stroke="#63b8ff" points="373.62,-50.21 384.16,-49.21 375.29,-43.42 373.62,-50.21"/>
</a>
</g>
</g>
<!-- Node3 -->
<g id="Node000003" class="node">
<title>Node3</title>
<g id="a_Node000003"><a xlink:href="sv__controller_8cc.html#ad6449fd2c8114de07386cd501c39b7fe" target="_top" xlink:title=" ">
<polygon fill="white" stroke="#666666" points="134.5,-108 0,-108 0,-88 134.5,-88 134.5,-108"/>
<text xml:space="preserve" text-anchor="middle" x="67.25" y="-94.5" font-family="Helvetica,sans-Serif" font-size="10.00">sv_mp_configure_publisher</text>
</a>
</g>
</g>
<!-- Node2&#45;&gt;Node3 -->
<g id="edge2_Node000002_Node000003" class="edge">
<title>Node2&#45;&gt;Node3</title>
<g id="a_edge2_Node000002_Node000003"><a xlink:title=" ">
<path fill="none" stroke="#63b8ff" d="M158.89,-98C150.83,-98 142.76,-98 134.95,-98"/>
<polygon fill="#63b8ff" stroke="#63b8ff" points="158.74,-101.5 168.74,-98 158.74,-94.5 158.74,-101.5"/>
</a>
</g>
</g>
<!-- Node6 -->
<g id="Node000006" class="node">
<title>Node6</title>
<g id="a_Node000006"><a xlink:href="sv__controller_8cc.html#a4d38ae474762b7236baa5ed32bf113e5" target="_top" xlink:title=" ">
<polygon fill="white" stroke="#666666" points="121.38,-32 13.12,-32 13.12,0 121.38,0 121.38,-32"/>
<text xml:space="preserve" text-anchor="start" x="21.12" y="-18.5" font-family="Helvetica,sans-Serif" font-size="10.00">sv_mp_set_publisher</text>
<text xml:space="preserve" text-anchor="middle" x="67.25" y="-6.5" font-family="Helvetica,sans-Serif" font-size="10.00">_equations</text>
</a>
</g>
</g>
<!-- Node5&#45;&gt;Node6 -->
<g id="edge5_Node000005_Node000006" class="edge">
<title>Node5&#45;&gt;Node6</title>
<g id="a_edge5_Node000005_Node000006"><a xlink:title=" ">
<path fill="none" stroke="#63b8ff" d="M172.33,-16C155.32,-16 137.6,-16 121.71,-16"/>
<polygon fill="#63b8ff" stroke="#63b8ff" points="171.86,-19.5 181.86,-16 171.86,-12.5 171.86,-19.5"/>
</a>
</g>
</g>
</g>
</svg>
