<?xml version="1.0" encoding="UTF-8" standalone="no"?>
<!DOCTYPE svg PUBLIC "-//W3C//DTD SVG 1.1//EN"
 "http://www.w3.org/Graphics/SVG/1.1/DTD/svg11.dtd">
<!-- Generated by graphviz version 14.1.2 (20260124.0452)
 -->
<!-- Title: SvController::stopAll Pages: 1 -->
<svg width="286pt" height="66pt"
 viewBox="0.00 0.00 286.00 66.00" xmlns="http://www.w3.org/2000/svg" xmlns:xlink="http://www.w3.org/1999/xlink">
<g id="graph0" class="graph" transform="scale(1 1) rotate(0) translate(4 62)">
<title>SvController::stopAll</title>
<!-- Node1 -->
<g id="Node000001" class="node">
<title>Node1</title>
<g id="a_Node000001"><a xlink:title=" ">
<polygon fill="#999999" stroke="#666666" points="278,-39 172,-39 172,-19 278,-19 278,-39"/>
<text xml:space="preserve" text-anchor="middle" x="225" y="-25.5" font-family="Helvetica,sans-Serif" font-size="10.00">SvController::stopAll</text>
</a>
</g>
</g>
<!-- Node2 -->
<g id="Node000002" class="node">
<title>Node2</title>
<g id="a_Node000002"><a xlink:href="sv__controller_8cc.html#a8e437b55605082f953598ed00550c10d" target="_top" xlink:title=" ">
<polygon fill="white" stroke="#666666" points="110.12,-58 25.88,-58 25.88,-38 110.12,-38 110.12,-58"/>
<text xml:space="preserve" text-anchor="middle" x="68" y="-44.5" font-family="Helvetica,sans-Serif" font-size="10.00">sv_mp_stop_all</text>
</a>
</g>
</g>
<!-- Node1&#45;&gt;Node2 -->
<g id="edge1_Node000001_Node000002" class="edge">
<title>Node1&#45;&gt;Node2</title>
<g id="a_edge1_Node000001_Node000002"><a xlink:title=" ">
<path fill="none" stroke="#63b8ff" d="M160.52,-36.78C143.53,-38.86 125.6,-41.06 110.16,-42.96"/>
<polygon fill="#63b8ff" stroke="#63b8ff" points="160.52,-40.31 170.02,-35.62 159.67,-33.36 160.52,-40.31"/>
</a>
</g>
</g>
<!-- Node3 -->
<g id="Node000003" class="node">
<title>Node3</title>
<g id="a_Node000003"><a xlink:href="class_sv_controller.html#ad6f36b653bfc35677fc11eb9e6f01e19" target="_top" xlink:title=" ">
<polygon fill="white" stroke="#666666" points="136,-20 0,-20 0,0 136,0 136,-20"/>
<text xml:space="preserve" text-anchor="middle" x="68" y="-6.5" font-family="Helvetica,sans-Serif" font-size="10.00">SvController::~SvController</text>
</a>
</g>
</g>
<!-- Node1&#45;&gt;Node3 -->
<g id="edge2_Node000001_Node000003" class="edge">
<title>Node1&#45;&gt;Node3</title>
<g id="a_edge2_Node000001_Node000003"><a xlink:title=" ">
<path fill="none" stroke="#63b8ff" d="M160.15,-21.17C152.27,-20.21 144.19,-19.22 136.26,-18.24"/>
<polygon fill="#63b8ff" stroke="#63b8ff" points="159.67,-24.64 170.02,-22.38 160.52,-17.69 159.67,-24.64"/>
</a>
</g>
</g>
</g>
</svg>
