<?xml version="1.0" encoding="UTF-8" standalone="no"?>
<!DOCTYPE svg PUBLIC "-//W3C//DTD SVG 1.1//EN"
 "http://www.w3.org/Graphics/SVG/1.1/DTD/svg11.dtd">
<!-- Generated by graphviz version 14.1.2 (20260124.0452)
 -->
<!-- Title: SvController::writerLoopImmediate Pages: 1 -->
<!--zoomable 518 -->

<svg id="main" version="1.1" xmlns="http://www.w3.org/2000/svg" xmlns:xlink="http://www.w3.org/1999/xlink" xml:space="preserve" onload="init(evt)">

<style type="text/css"><![CDATA[
.node, .edge {opacity: 0.7;}
.node.selected, .edge.selected {opacity: 1;}
.edge:hover path { stroke: red; }
.edge:hover polygon { stroke: red; fill: red; }
]]></style>

<defs>
  <circle id="rim" cx="0" cy="0" r="7"/>
  <circle id="rim2" cx="0" cy="0" r="3.5"/>
  <g id="zoomPlus">
    <use xlink:href="#rim" fill="#404040"><set attributeName="fill" to="#808080" begin="zoomplus.mouseover" end="zoomplus.mouseout"/></use>
    <path d="M-4,0h8M0,-4v8" fill="none" stroke="white" stroke-width="1.5" pointer-events="none"/>
  </g>
  <g id="zoomMin">
    <use xlink:href="#rim" fill="#404040"><set attributeName="fill" to="#808080" begin="zoomminus.mouseover" end="zoomminus.mouseout"/></use>
    <path d="M-4,0h8" fill="none" stroke="white" stroke-width="1.5" pointer-events="none"/>
  </g>
  <g id="arrowUp" transform="translate(30 24)">
    <use xlink:href="#rim"/>
    <path pointer-events="none" fill="none" stroke="white" stroke-width="1.5" d="M0,-3.0v7 M-2.5,-0.5L0,-3.0L2.5,-0.5"/>
  </g>
  <g id="arrowRight" transform="rotate(90) translate(36 -43)">
    <use xlink:href="#rim"/>
    <path pointer-events="none" fill="none" stroke="white" stroke-width="1.5" d="M0,-3.0v7 M-2.5,-0.5L0,-3.0L2.5,-0.5"/>
  </g>
  <g id="arrowDown" transform="rotate(180) translate(-30 -48)">
    <use xlink:href="#rim"/>
    <path pointer-events="none" fill="none" stroke="white" stroke-width="1.5" d="M0,-3.0v7 M-2.5,-0.5L0,-3.0L2.5,-0.5"/>
  </g>
  <g id="arrowLeft" transform="rotate(270) translate(-36 17)">
    <use xlink:href="#rim"/>
    <path pointer-events="none" fill="none" stroke="white" stroke-width="1.5" d="M0,-3.0v7 M-2.5,-0.5L0,-3.0L2.5,-0.5"/>
  </g>
  <g id="resetDef">
    <use xlink:href="#rim2" fill="#404040"><set attributeName="fill" to="#808080" begin="reset.mouseover" end="reset.mouseout"/></use>
  </g>
</defs>
<script type="application/ecmascript">
var viewWidth = 472;
var viewHeight = 518;
var sectionId = 'dynsection-44';
</script>
<script type="application/ecmascript" xlink:href="svg.min.js"/>
<svg id="graph" class="graph">
<g id="viewport">
<title>SvController::writerLoopImmediate</title>
<!-- Node1 -->
<g id="Node000001" class="node">
<title>Node1</title>
<g id="a_Node000001"><a xlink:title=" ">
<polygon fill="#999999" stroke="#666666" points="121,-271 0,-271 0,-239 121,-239 121,-271"/>
<text xml:space="preserve" text-anchor="start" x="8" y="-257.5" font-family="Helvetica,sans-Serif" font-size="10.00">SvController::writerLoop</text>
<text xml:space="preserve" text-anchor="middle" x="60.5" y="-245.5" font-family="Helvetica,sans-Serif" font-size="10.00">Immediate</text>
</a>
</g>
</g>
<!-- Node1&#45;&gt;Node1 -->
<g id="edge17_Node000001_Node000001" class="edge">
<title>Node1&#45;&gt;Node1</title>
<g id="a_edge17_Node000001_Node000001"><a xlink:title=" ">
<path fill="none" stroke="#63b8ff" d="M30.8,-271.44C25.25,-280.58 35.15,-289 60.5,-289 74.36,-289 83.6,-286.48 88.23,-282.71"/>
<polygon fill="#63b8ff" stroke="#63b8ff" points="91.66,-283.39 89.94,-272.93 84.76,-282.18 91.66,-283.39"/>
</a>
</g>
</g>
<!-- Node2 -->
<g id="Node000002" class="node">
<title>Node2</title>
<g id="a_Node000002"><a xlink:href="class_sv_controller.html#a02cc9113aeda2832ff4aa7ac87a96953" target="_top" xlink:title=" ">
<polygon fill="white" stroke="#666666" points="296.38,-510 157.38,-510 157.38,-478 296.38,-478 296.38,-510"/>
<text xml:space="preserve" text-anchor="start" x="165.38" y="-496.5" font-family="Helvetica,sans-Serif" font-size="10.00">SvController::checkDuration</text>
<text xml:space="preserve" text-anchor="middle" x="226.88" y="-484.5" font-family="Helvetica,sans-Serif" font-size="10.00">Elapsed</text>
</a>
</g>
</g>
<!-- Node1&#45;&gt;Node2 -->
<g id="edge1_Node000001_Node000002" class="edge">
<title>Node1&#45;&gt;Node2</title>
<g id="a_edge1_Node000001_Node000002"><a xlink:title=" ">
<path fill="none" stroke="#63b8ff" d="M64.78,-271.44C73.29,-310.05 99.51,-407.53 157,-464 159.83,-466.78 162.96,-469.32 166.28,-471.65"/>
<polygon fill="#63b8ff" stroke="#63b8ff" points="164.39,-474.6 174.75,-476.84 168.05,-468.63 164.39,-474.6"/>
</a>
</g>
</g>
<!-- Node3 -->
<g id="Node000003" class="node">
<title>Node3</title>
<g id="a_Node000003"><a xlink:href="sv__stats__impl_8cc.html#ae7cd346e20d4749f60fa7332dfae0dd7" target="_top" xlink:title="Get current time in milliseconds.">
<polygon fill="white" stroke="#666666" points="463.5,-240 332.75,-240 332.75,-220 463.5,-220 463.5,-240"/>
<text xml:space="preserve" text-anchor="middle" x="398.12" y="-226.5" font-family="Helvetica,sans-Serif" font-size="10.00">npcap_stats_get_time_ms</text>
</a>
</g>
</g>
<!-- Node1&#45;&gt;Node3 -->
<g id="edge6_Node000001_Node000003" class="edge">
<title>Node1&#45;&gt;Node3</title>
<g id="a_edge6_Node000001_Node000003"><a xlink:title=" ">
<path fill="none" stroke="#63b8ff" d="M64.63,-271.48C72.57,-308.02 97.25,-395.44 157,-431 210.37,-462.76 243.92,-463.67 296.75,-431 361.67,-390.86 385.99,-294.64 393.85,-251.53"/>
<polygon fill="#63b8ff" stroke="#63b8ff" points="397.26,-252.36 395.46,-241.91 390.35,-251.2 397.26,-252.36"/>
</a>
</g>
</g>
<!-- Node4 -->
<g id="Node000004" class="node">
<title>Node4</title>
<g id="a_Node000004"><a xlink:href="class_sv_controller.html#a8226108f3af97705b3d2caf0e8f130f5" target="_top" xlink:title=" ">
<polygon fill="white" stroke="#666666" points="295.62,-422 158.12,-422 158.12,-390 295.62,-390 295.62,-422"/>
<text xml:space="preserve" text-anchor="start" x="166.12" y="-408.5" font-family="Helvetica,sans-Serif" font-size="10.00">SvController::elevateThread</text>
<text xml:space="preserve" text-anchor="middle" x="226.88" y="-396.5" font-family="Helvetica,sans-Serif" font-size="10.00">Priority</text>
</a>
</g>
</g>
<!-- Node1&#45;&gt;Node4 -->
<g id="edge3_Node000001_Node000004" class="edge">
<title>Node1&#45;&gt;Node4</title>
<g id="a_edge3_Node000001_Node000004"><a xlink:title=" ">
<path fill="none" stroke="#63b8ff" d="M69.8,-271.32C84.11,-297.92 115.9,-350.71 157,-381 158.51,-382.12 160.08,-383.19 161.69,-384.21"/>
<polygon fill="#63b8ff" stroke="#63b8ff" points="159.57,-387.03 170,-388.88 163,-380.93 159.57,-387.03"/>
</a>
</g>
</g>
<!-- Node5 -->
<g id="Node000005" class="node">
<title>Node5</title>
<g id="a_Node000005"><a xlink:href="npcap__transmitter__impl_8cc.html#adc39100394280e20f1f1a569849bdf2d" target="_top" xlink:title="Send a single packet.">
<polygon fill="white" stroke="#666666" points="278.38,-372 175.38,-372 175.38,-352 278.38,-352 278.38,-372"/>
<text xml:space="preserve" text-anchor="middle" x="226.88" y="-358.5" font-family="Helvetica,sans-Serif" font-size="10.00">npcap_send_packet</text>
</a>
</g>
</g>
<!-- Node1&#45;&gt;Node5 -->
<g id="edge4_Node000001_Node000005" class="edge">
<title>Node1&#45;&gt;Node5</title>
<g id="a_edge4_Node000001_Node000005"><a xlink:title=" ">
<path fill="none" stroke="#63b8ff" d="M74.95,-271.47C92.01,-291.31 123.29,-324.29 157,-343 159.85,-344.58 162.83,-346.04 165.9,-347.38"/>
<polygon fill="#63b8ff" stroke="#63b8ff" points="164.56,-350.61 175.15,-350.96 167.09,-344.08 164.56,-350.61"/>
</a>
</g>
</g>
<!-- Node6 -->
<g id="Node000006" class="node">
<title>Node6</title>
<g id="a_Node000006"><a xlink:href="npcap__transmitter__impl_8cc.html#a53c0941475ca471f1cc998f9641f8b5e" target="_top" xlink:title="Send a packet with trailing zero&#45;padding.">
<polygon fill="white" stroke="#666666" points="296.75,-334 157,-334 157,-314 296.75,-314 296.75,-334"/>
<text xml:space="preserve" text-anchor="middle" x="226.88" y="-320.5" font-family="Helvetica,sans-Serif" font-size="10.00">npcap_send_packet_padded</text>
</a>
</g>
</g>
<!-- Node1&#45;&gt;Node6 -->
<g id="edge5_Node000001_Node000006" class="edge">
<title>Node1&#45;&gt;Node6</title>
<g id="a_edge5_Node000001_Node000006"><a xlink:title=" ">
<path fill="none" stroke="#63b8ff" d="M88.76,-271.27C107.48,-281.93 133.15,-295.59 157,-305 161.67,-306.84 166.58,-308.58 171.55,-310.19"/>
<polygon fill="#63b8ff" stroke="#63b8ff" points="170.39,-313.5 180.98,-313.09 172.45,-306.81 170.39,-313.5"/>
</a>
</g>
</g>
<!-- Node7 -->
<g id="Node000007" class="node">
<title>Node7</title>
<g id="a_Node000007"><a xlink:href="sv__stats__impl_8cc.html#a280e159261a15485b1e0309f59df84e8" target="_top" xlink:title="Record a failed packet transmission.">
<polygon fill="white" stroke="#666666" points="277.62,-296 176.12,-296 176.12,-264 277.62,-264 277.62,-296"/>
<text xml:space="preserve" text-anchor="start" x="184.12" y="-282.5" font-family="Helvetica,sans-Serif" font-size="10.00">npcap_stats_record</text>
<text xml:space="preserve" text-anchor="middle" x="226.88" y="-270.5" font-family="Helvetica,sans-Serif" font-size="10.00">_failure</text>
</a>
</g>
</g>
<!-- Node1&#45;&gt;Node7 -->
<g id="edge7_Node000001_Node000007" class="edge">
<title>Node1&#45;&gt;Node7</title>
<g id="a_edge7_Node000001_Node000007"><a xlink:title=" ">
<path fill="none" stroke="#63b8ff" d="M121.31,-264.1C135.43,-266.24 150.51,-268.54 164.69,-270.7"/>
<polygon fill="#63b8ff" stroke="#63b8ff" points="163.93,-274.12 174.35,-272.16 164.99,-267.2 163.93,-274.12"/>
</a>
</g>
</g>
<!-- Node8 -->
<g id="Node000008" class="node">
<title>Node8</title>
<g id="a_Node000008"><a xlink:href="sv__stats__impl_8cc.html#a210b53baa9526fbb867d2a6b3ad925c4" target="_top" xlink:title="Record a successful packet transmission.">
<polygon fill="white" stroke="#666666" points="277.62,-246 176.12,-246 176.12,-214 277.62,-214 277.62,-246"/>
<text xml:space="preserve" text-anchor="start" x="184.12" y="-232.5" font-family="Helvetica,sans-Serif" font-size="10.00">npcap_stats_record</text>
<text xml:space="preserve" text-anchor="middle" x="226.88" y="-220.5" font-family="Helvetica,sans-Serif" font-size="10.00">_packet</text>
</a>
</g>
</g>
<!-- Node1&#45;&gt;Node8 -->
<g id="edge8_Node000001_Node000008" class="edge">
<title>Node1&#45;&gt;Node8</title>
<g id="a_edge8_Node000001_Node000008"><a xlink:title=" ">
<path fill="none" stroke="#63b8ff" d="M121.31,-245.9C135.43,-243.76 150.51,-241.46 164.69,-239.3"/>
<polygon fill="#63b8ff" stroke="#63b8ff" points="164.99,-242.8 174.35,-237.84 163.93,-235.88 164.99,-242.8"/>
</a>
</g>
</g>
<!-- Node9 -->
<g id="Node000009" class="node">
<title>Node9</title>
<g id="a_Node000009"><a xlink:href="sv__stats__impl_8cc.html#a4e5f02e3cc9b2b06496cca1b54582e0a" target="_top" xlink:title="Reset all statistics to zero.">
<polygon fill="white" stroke="#666666" points="275,-196 178.75,-196 178.75,-176 275,-176 275,-196"/>
<text xml:space="preserve" text-anchor="middle" x="226.88" y="-182.5" font-family="Helvetica,sans-Serif" font-size="10.00">npcap_stats_reset</text>
</a>
</g>
</g>
<!-- Node1&#45;&gt;Node9 -->
<g id="edge10_Node000001_Node000009" class="edge">
<title>Node1&#45;&gt;Node9</title>
<g id="a_edge10_Node000001_Node000009"><a xlink:title=" ">
<path fill="none" stroke="#63b8ff" d="M88.76,-238.73C107.48,-228.07 133.15,-214.41 157,-205 161.67,-203.16 166.58,-201.42 171.55,-199.81"/>
<polygon fill="#63b8ff" stroke="#63b8ff" points="172.45,-203.19 180.98,-196.91 170.39,-196.5 172.45,-203.19"/>
</a>
</g>
</g>
<!-- Node10 -->
<g id="Node000010" class="node">
<title>Node10</title>
<g id="a_Node000010"><a xlink:href="sv__stats__impl_8cc.html#a4437629953bc0b691829d9c7b77cc061" target="_top" xlink:title="End the current statistics session.">
<polygon fill="white" stroke="#666666" points="291.5,-158 162.25,-158 162.25,-138 291.5,-138 291.5,-158"/>
<text xml:space="preserve" text-anchor="middle" x="226.88" y="-144.5" font-family="Helvetica,sans-Serif" font-size="10.00">npcap_stats_session_end</text>
</a>
</g>
</g>
<!-- Node1&#45;&gt;Node10 -->
<g id="edge11_Node000001_Node000010" class="edge">
<title>Node1&#45;&gt;Node10</title>
<g id="a_edge11_Node000001_Node000010"><a xlink:title=" ">
<path fill="none" stroke="#63b8ff" d="M74.95,-238.53C92.01,-218.69 123.29,-185.71 157,-167 159.85,-165.42 162.83,-163.96 165.9,-162.62"/>
<polygon fill="#63b8ff" stroke="#63b8ff" points="167.09,-165.92 175.15,-159.04 164.56,-159.39 167.09,-165.92"/>
</a>
</g>
</g>
<!-- Node11 -->
<g id="Node000011" class="node">
<title>Node11</title>
<g id="a_Node000011"><a xlink:href="sv__stats__impl_8cc.html#ad0737fafaaf6836a17171d40d5a3f77d" target="_top" xlink:title="Start a new statistics session.">
<polygon fill="white" stroke="#666666" points="281,-120 172.75,-120 172.75,-88 281,-88 281,-120"/>
<text xml:space="preserve" text-anchor="start" x="180.75" y="-106.5" font-family="Helvetica,sans-Serif" font-size="10.00">npcap_stats_session</text>
<text xml:space="preserve" text-anchor="middle" x="226.88" y="-94.5" font-family="Helvetica,sans-Serif" font-size="10.00">_start</text>
</a>
</g>
</g>
<!-- Node1&#45;&gt;Node11 -->
<g id="edge13_Node000001_Node000011" class="edge">
<title>Node1&#45;&gt;Node11</title>
<g id="a_edge13_Node000001_Node000011"><a xlink:title=" ">
<path fill="none" stroke="#63b8ff" d="M69.8,-238.68C84.11,-212.08 115.9,-159.29 157,-129 158.77,-127.7 160.61,-126.46 162.5,-125.28"/>
<polygon fill="#63b8ff" stroke="#63b8ff" points="163.97,-128.47 171.05,-120.59 160.6,-122.33 163.97,-128.47"/>
</a>
</g>
</g>
<!-- Node12 -->
<g id="Node000012" class="node">
<title>Node12</title>
<g id="a_Node000012"><a xlink:href="class_sv_controller.html#a3c943142f1ce34aac0434603ee3531c0" target="_top" xlink:title=" ">
<polygon fill="white" stroke="#666666" points="294.88,-70 158.88,-70 158.88,-38 294.88,-38 294.88,-70"/>
<text xml:space="preserve" text-anchor="start" x="166.88" y="-56.5" font-family="Helvetica,sans-Serif" font-size="10.00">SvController::restoreThread</text>
<text xml:space="preserve" text-anchor="middle" x="226.88" y="-44.5" font-family="Helvetica,sans-Serif" font-size="10.00">Priority</text>
</a>
</g>
</g>
<!-- Node1&#45;&gt;Node12 -->
<g id="edge15_Node000001_Node000012" class="edge">
<title>Node1&#45;&gt;Node12</title>
<g id="a_edge15_Node000001_Node000012"><a xlink:title=" ">
<path fill="none" stroke="#63b8ff" d="M66.03,-238.65C76.38,-204.23 104.97,-123.8 157,-79 157.94,-78.19 158.91,-77.41 159.9,-76.65"/>
<polygon fill="#63b8ff" stroke="#63b8ff" points="161.67,-79.67 168.14,-71.28 157.85,-73.8 161.67,-79.67"/>
</a>
</g>
</g>
<!-- Node13 -->
<g id="Node000013" class="node">
<title>Node13</title>
<g id="a_Node000013"><a xlink:href="class_sv_controller.html#a94fbbcc5d8c76669fe2c02d8de1927d4" target="_top" xlink:title=" ">
<polygon fill="white" stroke="#666666" points="287.75,-20 166,-20 166,0 287.75,0 287.75,-20"/>
<text xml:space="preserve" text-anchor="middle" x="226.88" y="-6.5" font-family="Helvetica,sans-Serif" font-size="10.00">SvController::spinPause</text>
</a>
</g>
</g>
<!-- Node1&#45;&gt;Node13 -->
<g id="edge16_Node000001_Node000013" class="edge">
<title>Node1&#45;&gt;Node13</title>
<g id="a_edge16_Node000001_Node000013"><a xlink:title=" ">
<path fill="none" stroke="#63b8ff" d="M63.54,-238.52C69.61,-196.87 91.36,-86.58 157,-29 158.1,-28.03 159.25,-27.12 160.43,-26.24"/>
<polygon fill="#63b8ff" stroke="#63b8ff" points="162.07,-29.34 168.86,-21.21 158.48,-23.33 162.07,-29.34"/>
</a>
</g>
</g>
<!-- Node2&#45;&gt;Node3 -->
<g id="edge2_Node000002_Node000003" class="edge">
<title>Node2&#45;&gt;Node3</title>
<g id="a_edge2_Node000002_Node000003"><a xlink:title=" ">
<path fill="none" stroke="#63b8ff" d="M278.17,-477.55C284.96,-473.84 291.42,-469.36 296.75,-464 358.16,-402.25 384.5,-296.95 393.37,-251.71"/>
<polygon fill="#63b8ff" stroke="#63b8ff" points="396.81,-252.35 395.19,-241.88 389.93,-251.08 396.81,-252.35"/>
</a>
</g>
</g>
<!-- Node8&#45;&gt;Node3 -->
<g id="edge9_Node000008_Node000003" class="edge">
<title>Node8&#45;&gt;Node3</title>
<g id="a_edge9_Node000008_Node000003"><a xlink:title=" ">
<path fill="none" stroke="#63b8ff" d="M277.74,-230C291.42,-230 306.56,-230 321.34,-230"/>
<polygon fill="#63b8ff" stroke="#63b8ff" points="321.02,-233.5 331.02,-230 321.02,-226.5 321.02,-233.5"/>
</a>
</g>
</g>
<!-- Node10&#45;&gt;Node3 -->
<g id="edge12_Node000010_Node000003" class="edge">
<title>Node10&#45;&gt;Node3</title>
<g id="a_edge12_Node000010_Node000003"><a xlink:title=" ">
<path fill="none" stroke="#63b8ff" d="M273,-158.41C281.05,-160.84 289.26,-163.7 296.75,-167 325.1,-179.48 354.82,-199.08 374.5,-213.1"/>
<polygon fill="#63b8ff" stroke="#63b8ff" points="372.18,-215.74 382.33,-218.78 376.29,-210.07 372.18,-215.74"/>
</a>
</g>
</g>
<!-- Node11&#45;&gt;Node3 -->
<g id="edge14_Node000011_Node000003" class="edge">
<title>Node11&#45;&gt;Node3</title>
<g id="a_edge14_Node000011_Node000003"><a xlink:title=" ">
<path fill="none" stroke="#63b8ff" d="M280.56,-120.35C286.2,-122.9 291.71,-125.78 296.75,-129 331.96,-151.49 364.42,-188.3 382.42,-210.72"/>
<polygon fill="#63b8ff" stroke="#63b8ff" points="379.56,-212.75 388.49,-218.45 385.07,-208.42 379.56,-212.75"/>
</a>
</g>
</g>
</g>
</svg>

<g id="navigator" transform="translate(0 0)" fill="#404254">
  <rect fill="#f2f5e9" fill-opacity="0.5" stroke="#606060" stroke-width=".5" x="0" y="0" width="60" height="60"/>
  <use id="zoomplus" xlink:href="#zoomPlus" x="17" y="9" onmousedown="handleZoom(evt,'in')"/>
  <use id="zoomminus" xlink:href="#zoomMin" x="42" y="9" onmousedown="handleZoom(evt,'out')"/>
  <use id="reset" xlink:href="#resetDef" x="30" y="36" onmousedown="handleReset()"/>
   <use id="arrowup" xlink:href="#arrowUp" x="0" y="0" onmousedown="handlePan(0,-1)"/>
  <use id="arrowright" xlink:href="#arrowRight" x="0" y="0" onmousedown="handlePan(1,0)"/>
  <use id="arrowdown" xlink:href="#arrowDown" x="0" y="0" onmousedown="handlePan(0,1)"/>
  <use id="arrowleft" xlink:href="#arrowLeft" x="0" y="0" onmousedown="handlePan(-1,0)"/>
</g>
<svg viewBox="0 0 15 15" width="100%" height="30px" preserveAspectRatio="xMaxYMin meet">
 <g id="arrow_out" transform="scale(0.3 0.3)">
  <a xlink:href="class_sv_controller_ab18faef1f888c015ba3850d11320b4a5_cgraph_org.svg" target="_base">
   <rect id="button" ry="5" rx="5" y="6" x="6" height="38" width="38"
        fill="#f2f5e9" fill-opacity="0.5" stroke="#606060" stroke-width="1.0"/>
   <path id="arrow"
     d="M 11.500037,31.436501 C 11.940474,20.09759 22.043105,11.32322 32.158766,21.979434 L 37.068811,17.246167 C 37.068811,17.246167 37.088388,32 37.088388,32 L 22.160133,31.978069 C 22.160133,31.978069 26.997745,27.140456 26.997745,27.140456 C 18.528582,18.264221 13.291696,25.230495 11.500037,31.436501 z"
     style="fill:#404040;"/>
  </a>
 </g>
</svg>

<style type='text/css'>
<![CDATA[
[data-mouse-over-selected='false'] { opacity: 0.7; }
[data-mouse-over-selected='true']  { opacity: 1.0; }
]]>
</style>
<script type="application/ecmascript"><![CDATA[
document.addEventListener('DOMContentLoaded', (event) => {
  highlightEdges();
  highlightAdjacentNodes();
});
]]></script>
</svg>
