<?xml version="1.0" encoding="UTF-8" standalone="no"?>
<!DOCTYPE svg PUBLIC "-//W3C//DTD SVG 1.1//EN"
 "http://www.w3.org/Graphics/SVG/1.1/DTD/svg11.dtd">
<!-- Generated by graphviz version 14.1.2 (20260124.0452)
 -->
<!-- Title: SvController::SvController Pages: 1 -->
<svg width="635pt" height="836pt"
 viewBox="0.00 0.00 635.00 836.00" xmlns="http://www.w3.org/2000/svg" xmlns:xlink="http://www.w3.org/1999/xlink">
<g id="graph0" class="graph" transform="scale(1 1) rotate(0) translate(4 832)">
<title>SvController::SvController</title>
<!-- Node1 -->
<g id="Node000001" class="node">
<title>Node1</title>
<g id="a_Node000001"><a xlink:title=" ">
<polygon fill="#999999" stroke="#666666" points="626.5,-374 496.5,-374 496.5,-354 626.5,-354 626.5,-374"/>
<text xml:space="preserve" text-anchor="middle" x="561.5" y="-360.5" font-family="Helvetica,sans-Serif" font-size="10.00">SvController::SvController</text>
</a>
</g>
</g>
<!-- Node2 -->
<g id="Node000002" class="node">
<title>Node2</title>
<g id="a_Node000002"><a xlink:href="class_sv_controller.html#afc102679fe80499c39d27cb8640394cc" target="_top" xlink:title=" ">
<polygon fill="white" stroke="#666666" points="451.88,-412 339.12,-412 339.12,-392 451.88,-392 451.88,-412"/>
<text xml:space="preserve" text-anchor="middle" x="395.5" y="-398.5" font-family="Helvetica,sans-Serif" font-size="10.00">SvController::instance</text>
</a>
</g>
</g>
<!-- Node1&#45;&gt;Node2 -->
<g id="edge1_Node000001_Node000002" class="edge">
<title>Node1&#45;&gt;Node2</title>
<g id="a_edge1_Node000001_Node000002"><a xlink:title=" ">
<path fill="none" stroke="#63b8ff" d="M504.18,-377.05C483.74,-381.78 460.94,-387.07 441.6,-391.55"/>
<polygon fill="#63b8ff" stroke="#63b8ff" points="504.83,-380.49 513.78,-374.83 503.25,-373.67 504.83,-380.49"/>
</a>
</g>
</g>
<!-- Node25 -->
<g id="Node000025" class="node">
<title>Node25</title>
<g id="a_Node000025"><a xlink:href="class_sv_controller.html#ae194e435526afc5c0ed73988e607a4b2" target="_top" xlink:title=" ">
<polygon fill="white" stroke="#666666" points="454.12,-374 336.88,-374 336.88,-354 454.12,-354 454.12,-374"/>
<text xml:space="preserve" text-anchor="middle" x="395.5" y="-360.5" font-family="Helvetica,sans-Serif" font-size="10.00">SvController::operator=</text>
</a>
</g>
</g>
<!-- Node1&#45;&gt;Node25 -->
<g id="edge24_Node000001_Node000025" class="edge">
<title>Node1&#45;&gt;Node25</title>
<g id="a_edge24_Node000001_Node000025"><a xlink:title=" ">
<path fill="none" stroke="#63b8ff" d="M484.77,-364C474.61,-364 464.32,-364 454.52,-364"/>
<polygon fill="#63b8ff" stroke="#63b8ff" points="484.64,-367.5 494.64,-364 484.64,-360.5 484.64,-367.5"/>
</a>
</g>
</g>
<!-- Node26 -->
<g id="Node000026" class="node">
<title>Node26</title>
<g id="a_Node000026"><a xlink:href="class_sv_controller.html#aab0054840ff8f82d8110d4a31d06c713" target="_top" xlink:title=" ">
<polygon fill="white" stroke="#666666" points="460.5,-336 330.5,-336 330.5,-316 460.5,-316 460.5,-336"/>
<text xml:space="preserve" text-anchor="middle" x="395.5" y="-322.5" font-family="Helvetica,sans-Serif" font-size="10.00">SvController::SvController</text>
</a>
</g>
</g>
<!-- Node1&#45;&gt;Node26 -->
<g id="edge25_Node000001_Node000026" class="edge">
<title>Node1&#45;&gt;Node26</title>
<g id="a_edge25_Node000001_Node000026"><a xlink:title=" ">
<path fill="none" stroke="#63b8ff" d="M504.18,-350.95C483.74,-346.22 460.94,-340.93 441.6,-336.45"/>
<polygon fill="#63b8ff" stroke="#63b8ff" points="503.25,-354.33 513.78,-353.17 504.83,-347.51 503.25,-354.33"/>
</a>
</g>
</g>
<!-- Node3 -->
<g id="Node000003" class="node">
<title>Node3</title>
<g id="a_Node000003"><a xlink:href="sv__controller_8cc.html#a37ca1523522cda12526f77a86f22dd56" target="_top" xlink:title=" ">
<polygon fill="white" stroke="#666666" points="276.12,-828 165.62,-828 165.62,-808 276.12,-808 276.12,-828"/>
<text xml:space="preserve" text-anchor="middle" x="220.88" y="-814.5" font-family="Helvetica,sans-Serif" font-size="10.00">sv_mp_add_publisher</text>
</a>
</g>
</g>
<!-- Node2&#45;&gt;Node3 -->
<g id="edge2_Node000002_Node000003" class="edge">
<title>Node2&#45;&gt;Node3</title>
<g id="a_edge2_Node000002_Node000003"><a xlink:title=" ">
<path fill="none" stroke="#63b8ff" d="M391.96,-423.56C382.73,-498.25 348.65,-744.35 294.5,-799 289.45,-804.09 283.22,-807.87 276.55,-810.67"/>
<polygon fill="#63b8ff" stroke="#63b8ff" points="395.4,-424.24 393.13,-413.89 388.45,-423.4 395.4,-424.24"/>
</a>
</g>
</g>
<!-- Node4 -->
<g id="Node000004" class="node">
<title>Node4</title>
<g id="a_Node000004"><a xlink:href="sv__controller_8cc.html#ad6449fd2c8114de07386cd501c39b7fe" target="_top" xlink:title=" ">
<polygon fill="white" stroke="#666666" points="288.12,-790 153.62,-790 153.62,-770 288.12,-770 288.12,-790"/>
<text xml:space="preserve" text-anchor="middle" x="220.88" y="-776.5" font-family="Helvetica,sans-Serif" font-size="10.00">sv_mp_configure_publisher</text>
</a>
</g>
</g>
<!-- Node2&#45;&gt;Node4 -->
<g id="edge3_Node000002_Node000004" class="edge">
<title>Node2&#45;&gt;Node4</title>
<g id="a_edge3_Node000002_Node000004"><a xlink:title=" ">
<path fill="none" stroke="#63b8ff" d="M395.36,-423.74C396.57,-485.87 391.14,-665.87 294.5,-761 291.06,-764.38 287.1,-767.18 282.84,-769.5"/>
<polygon fill="#63b8ff" stroke="#63b8ff" points="398.86,-423.75 395.08,-413.85 391.87,-423.95 398.86,-423.75"/>
</a>
</g>
</g>
<!-- Node5 -->
<g id="Node000005" class="node">
<title>Node5</title>
<g id="a_Node000005"><a xlink:href="sv__controller_8cc.html#a0e6b44d9a104d34fbd3e88a0a6def5b6" target="_top" xlink:title=" ">
<polygon fill="white" stroke="#666666" points="286.62,-752 155.12,-752 155.12,-720 286.62,-720 286.62,-752"/>
<text xml:space="preserve" text-anchor="start" x="163.12" y="-738.5" font-family="Helvetica,sans-Serif" font-size="10.00">sv_mp_get_current_repeat</text>
<text xml:space="preserve" text-anchor="middle" x="220.88" y="-726.5" font-family="Helvetica,sans-Serif" font-size="10.00">_cycle</text>
</a>
</g>
</g>
<!-- Node2&#45;&gt;Node5 -->
<g id="edge4_Node000002_Node000005" class="edge">
<title>Node2&#45;&gt;Node5</title>
<g id="a_edge4_Node000002_Node000005"><a xlink:title=" ">
<path fill="none" stroke="#63b8ff" d="M393.84,-423.68C390.96,-479.27 375.67,-628.31 294.5,-711 291.32,-714.24 287.71,-717.05 283.83,-719.51"/>
<polygon fill="#63b8ff" stroke="#63b8ff" points="397.32,-424.12 394.24,-413.98 390.33,-423.82 397.32,-424.12"/>
</a>
</g>
</g>
<!-- Node6 -->
<g id="Node000006" class="node">
<title>Node6</title>
<g id="a_Node000006"><a xlink:href="sv__controller_8cc.html#ab2f50b0a91fb6bcaecbad0ba5650c824" target="_top" xlink:title=" ">
<polygon fill="white" stroke="#666666" points="275.75,-702 166,-702 166,-682 275.75,-682 275.75,-702"/>
<text xml:space="preserve" text-anchor="middle" x="220.88" y="-688.5" font-family="Helvetica,sans-Serif" font-size="10.00">sv_mp_get_last_error</text>
</a>
</g>
</g>
<!-- Node2&#45;&gt;Node6 -->
<g id="edge5_Node000002_Node000006" class="edge">
<title>Node2&#45;&gt;Node6</title>
<g id="a_edge5_Node000002_Node000006"><a xlink:title=" ">
<path fill="none" stroke="#63b8ff" d="M393.07,-423.73C388.49,-475.11 369.67,-604.83 294.5,-673 289.19,-677.82 282.81,-681.44 276.06,-684.16"/>
<polygon fill="#63b8ff" stroke="#63b8ff" points="396.54,-424.2 393.84,-413.96 389.57,-423.65 396.54,-424.2"/>
</a>
</g>
</g>
<!-- Node7 -->
<g id="Node000007" class="node">
<title>Node7</title>
<g id="a_Node000007"><a xlink:href="sv__controller_8cc.html#a89715d3cc5ecea346991f8a14b808b8b" target="_top" xlink:title=" ">
<polygon fill="white" stroke="#666666" points="275,-664 166.75,-664 166.75,-632 275,-632 275,-664"/>
<text xml:space="preserve" text-anchor="start" x="174.75" y="-650.5" font-family="Helvetica,sans-Serif" font-size="10.00">sv_mp_get_publisher</text>
<text xml:space="preserve" text-anchor="middle" x="220.88" y="-638.5" font-family="Helvetica,sans-Serif" font-size="10.00">_count</text>
</a>
</g>
</g>
<!-- Node2&#45;&gt;Node7 -->
<g id="edge6_Node000002_Node000007" class="edge">
<title>Node2&#45;&gt;Node7</title>
<g id="a_edge6_Node000002_Node000007"><a xlink:title=" ">
<path fill="none" stroke="#63b8ff" d="M390.61,-423.78C381.64,-467.72 355.43,-567.51 294.5,-623 288.98,-628.03 282.4,-632.05 275.49,-635.27"/>
<polygon fill="#63b8ff" stroke="#63b8ff" points="394.04,-424.47 392.49,-413.99 387.17,-423.14 394.04,-424.47"/>
</a>
</g>
</g>
<!-- Node8 -->
<g id="Node000008" class="node">
<title>Node8</title>
<g id="a_Node000008"><a xlink:href="sv__controller_8cc.html#a18632d17429f282727988ddac33d95cc" target="_top" xlink:title=" ">
<polygon fill="white" stroke="#666666" points="276.5,-614 165.25,-614 165.25,-582 276.5,-582 276.5,-614"/>
<text xml:space="preserve" text-anchor="start" x="173.25" y="-600.5" font-family="Helvetica,sans-Serif" font-size="10.00">sv_mp_get_remaining</text>
<text xml:space="preserve" text-anchor="middle" x="220.88" y="-588.5" font-family="Helvetica,sans-Serif" font-size="10.00">_seconds</text>
</a>
</g>
</g>
<!-- Node2&#45;&gt;Node8 -->
<g id="edge7_Node000002_Node000008" class="edge">
<title>Node2&#45;&gt;Node8</title>
<g id="a_edge7_Node000002_Node000008"><a xlink:title=" ">
<path fill="none" stroke="#63b8ff" d="M387.8,-422.73C375.21,-458.48 344.68,-531.87 294.5,-573 289.24,-577.31 283.19,-580.9 276.88,-583.87"/>
<polygon fill="#63b8ff" stroke="#63b8ff" points="391.01,-424.17 390.9,-413.58 384.38,-421.93 391.01,-424.17"/>
</a>
</g>
</g>
<!-- Node9 -->
<g id="Node000009" class="node">
<title>Node9</title>
<g id="a_Node000009"><a xlink:href="sv__controller_8cc.html#a718dc981ae1f24b5cdde08637e34ce6b" target="_top" xlink:title=" ">
<polygon fill="white" stroke="#666666" points="280.62,-564 161.12,-564 161.12,-544 280.62,-544 280.62,-564"/>
<text xml:space="preserve" text-anchor="middle" x="220.88" y="-550.5" font-family="Helvetica,sans-Serif" font-size="10.00">sv_mp_get_send_mode</text>
</a>
</g>
</g>
<!-- Node2&#45;&gt;Node9 -->
<g id="edge8_Node000002_Node000009" class="edge">
<title>Node2&#45;&gt;Node9</title>
<g id="a_edge8_Node000002_Node000009"><a xlink:title=" ">
<path fill="none" stroke="#63b8ff" d="M384.93,-422.11C369.89,-451.51 337.89,-505.88 294.5,-535 289.41,-538.41 283.75,-541.21 277.88,-543.51"/>
<polygon fill="#63b8ff" stroke="#63b8ff" points="387.88,-424.04 389.18,-413.53 381.61,-420.93 387.88,-424.04"/>
</a>
</g>
</g>
<!-- Node10 -->
<g id="Node000010" class="node">
<title>Node10</title>
<g id="a_Node000010"><a xlink:href="sv__controller_8cc.html#a6f3f93c37fab4aa14fb0dad9ea254435" target="_top" xlink:title=" ">
<polygon fill="white" stroke="#666666" points="292.25,-526 149.5,-526 149.5,-506 292.25,-506 292.25,-526"/>
<text xml:space="preserve" text-anchor="middle" x="220.88" y="-512.5" font-family="Helvetica,sans-Serif" font-size="10.00">sv_mp_get_usb_min_gap_us</text>
</a>
</g>
</g>
<!-- Node2&#45;&gt;Node10 -->
<g id="edge9_Node000002_Node000010" class="edge">
<title>Node2&#45;&gt;Node10</title>
<g id="a_edge9_Node000002_Node000010"><a xlink:title=" ">
<path fill="none" stroke="#63b8ff" d="M379.43,-421.27C361.49,-442.9 329.52,-477.51 294.5,-497 288.35,-500.42 281.56,-503.25 274.68,-505.57"/>
<polygon fill="#63b8ff" stroke="#63b8ff" points="382.13,-423.5 385.7,-413.52 376.69,-419.1 382.13,-423.5"/>
</a>
</g>
</g>
<!-- Node11 -->
<g id="Node000011" class="node">
<title>Node11</title>
<g id="a_Node000011"><a xlink:href="sv__controller_8cc.html#ac929588885bf48bcabceb05324ccd1fc" target="_top" xlink:title=" ">
<polygon fill="white" stroke="#666666" points="285.5,-488 156.25,-488 156.25,-468 285.5,-468 285.5,-488"/>
<text xml:space="preserve" text-anchor="middle" x="220.88" y="-474.5" font-family="Helvetica,sans-Serif" font-size="10.00">sv_mp_get_usb_pad_size</text>
</a>
</g>
</g>
<!-- Node2&#45;&gt;Node11 -->
<g id="edge10_Node000002_Node000011" class="edge">
<title>Node2&#45;&gt;Node11</title>
<g id="a_edge10_Node000002_Node000011"><a xlink:title=" ">
<path fill="none" stroke="#63b8ff" d="M369.79,-418.53C350.09,-431.09 321.45,-448.02 294.5,-459 286.53,-462.25 277.85,-465.08 269.34,-467.5"/>
<polygon fill="#63b8ff" stroke="#63b8ff" points="371.46,-421.62 377.94,-413.24 367.65,-415.74 371.46,-421.62"/>
</a>
</g>
</g>
<!-- Node12 -->
<g id="Node000012" class="node">
<title>Node12</title>
<g id="a_Node000012"><a xlink:href="sv__controller_8cc.html#a644da1157cf2e83b99a634f3dc566db1" target="_top" xlink:title=" ">
<polygon fill="white" stroke="#666666" points="292.25,-450 149.5,-450 149.5,-430 292.25,-430 292.25,-450"/>
<text xml:space="preserve" text-anchor="middle" x="220.88" y="-436.5" font-family="Helvetica,sans-Serif" font-size="10.00">sv_mp_is_duration_complete</text>
</a>
</g>
</g>
<!-- Node2&#45;&gt;Node12 -->
<g id="edge11_Node000002_Node000012" class="edge">
<title>Node2&#45;&gt;Node12</title>
<g id="a_edge11_Node000002_Node000012"><a xlink:title=" ">
<path fill="none" stroke="#63b8ff" d="M335.81,-414.92C314.15,-419.69 289.89,-425.03 269.35,-429.55"/>
<polygon fill="#63b8ff" stroke="#63b8ff" points="336.38,-418.38 345.39,-412.81 334.88,-411.54 336.38,-418.38"/>
</a>
</g>
</g>
<!-- Node13 -->
<g id="Node000013" class="node">
<title>Node13</title>
<g id="a_Node000013"><a xlink:href="sv__controller_8cc.html#acbaa0a307291cbd4eebd6c6d94ff2963" target="_top" xlink:title=" ">
<polygon fill="white" stroke="#666666" points="268.25,-412 173.5,-412 173.5,-392 268.25,-392 268.25,-412"/>
<text xml:space="preserve" text-anchor="middle" x="220.88" y="-398.5" font-family="Helvetica,sans-Serif" font-size="10.00">sv_mp_is_running</text>
</a>
</g>
</g>
<!-- Node2&#45;&gt;Node13 -->
<g id="edge12_Node000002_Node000013" class="edge">
<title>Node2&#45;&gt;Node13</title>
<g id="a_edge12_Node000002_Node000013"><a xlink:title=" ">
<path fill="none" stroke="#63b8ff" d="M327.54,-402C307.87,-402 286.78,-402 268.66,-402"/>
<polygon fill="#63b8ff" stroke="#63b8ff" points="327.42,-405.5 337.42,-402 327.42,-398.5 327.42,-405.5"/>
</a>
</g>
</g>
<!-- Node15 -->
<g id="Node000015" class="node">
<title>Node15</title>
<g id="a_Node000015"><a xlink:href="sv__controller_8cc.html#a01cd45badf0b201495ad2c3a8d4d45f2" target="_top" xlink:title=" ">
<polygon fill="white" stroke="#666666" points="294.5,-374 147.25,-374 147.25,-354 294.5,-354 294.5,-374"/>
<text xml:space="preserve" text-anchor="middle" x="220.88" y="-360.5" font-family="Helvetica,sans-Serif" font-size="10.00">sv_mp_remove_all_publishers</text>
</a>
</g>
</g>
<!-- Node2&#45;&gt;Node15 -->
<g id="edge14_Node000002_Node000015" class="edge">
<title>Node2&#45;&gt;Node15</title>
<g id="a_edge14_Node000002_Node000015"><a xlink:title=" ">
<path fill="none" stroke="#63b8ff" d="M335.81,-389.08C314.15,-384.31 289.89,-378.97 269.35,-374.45"/>
<polygon fill="#63b8ff" stroke="#63b8ff" points="334.88,-392.46 345.39,-391.19 336.38,-385.62 334.88,-392.46"/>
</a>
</g>
</g>
<!-- Node16 -->
<g id="Node000016" class="node">
<title>Node16</title>
<g id="a_Node000016"><a xlink:href="sv__controller_8cc.html#ab3fde2e0bbe3ab795aea81d68d57b93a" target="_top" xlink:title=" ">
<polygon fill="white" stroke="#666666" points="284.38,-336 157.38,-336 157.38,-316 284.38,-316 284.38,-336"/>
<text xml:space="preserve" text-anchor="middle" x="220.88" y="-322.5" font-family="Helvetica,sans-Serif" font-size="10.00">sv_mp_remove_publisher</text>
</a>
</g>
</g>
<!-- Node2&#45;&gt;Node16 -->
<g id="edge15_Node000002_Node000016" class="edge">
<title>Node2&#45;&gt;Node16</title>
<g id="a_edge15_Node000002_Node000016"><a xlink:title=" ">
<path fill="none" stroke="#63b8ff" d="M338.08,-387.13C335.46,-385.86 332.92,-384.49 330.5,-383 310.67,-370.83 314.52,-356.84 294.5,-345 288.67,-341.55 282.21,-338.72 275.62,-336.39"/>
<polygon fill="#63b8ff" stroke="#63b8ff" points="336.51,-390.27 347.08,-390.96 339.25,-383.82 336.51,-390.27"/>
</a>
</g>
</g>
<!-- Node17 -->
<g id="Node000017" class="node">
<title>Node17</title>
<g id="a_Node000017"><a xlink:href="sv__controller_8cc.html#a5a4e1896309f676cd254911b12b1ab77" target="_top" xlink:title=" ">
<polygon fill="white" stroke="#666666" points="264.5,-298 177.25,-298 177.25,-278 264.5,-278 264.5,-298"/>
<text xml:space="preserve" text-anchor="middle" x="220.88" y="-284.5" font-family="Helvetica,sans-Serif" font-size="10.00">sv_mp_reset_all</text>
</a>
</g>
</g>
<!-- Node2&#45;&gt;Node17 -->
<g id="edge16_Node000002_Node000017" class="edge">
<title>Node2&#45;&gt;Node17</title>
<g id="a_edge16_Node000002_Node000017"><a xlink:title=" ">
<path fill="none" stroke="#63b8ff" d="M334.46,-386.07C333.09,-385.11 331.77,-384.08 330.5,-383 302.12,-358.68 323.27,-330.85 294.5,-307 286.07,-300.01 275.36,-295.57 264.76,-292.74"/>
<polygon fill="#63b8ff" stroke="#63b8ff" points="332.4,-388.92 342.82,-390.87 335.89,-382.85 332.4,-388.92"/>
</a>
</g>
</g>
<!-- Node18 -->
<g id="Node000018" class="node">
<title>Node18</title>
<g id="a_Node000018"><a xlink:href="sv__controller_8cc.html#a29bbed5b9e350d16b5db94f7e0762b84" target="_top" xlink:title=" ">
<polygon fill="white" stroke="#666666" points="272.75,-260 169,-260 169,-240 272.75,-240 272.75,-260"/>
<text xml:space="preserve" text-anchor="middle" x="220.88" y="-246.5" font-family="Helvetica,sans-Serif" font-size="10.00">sv_mp_set_duration</text>
</a>
</g>
</g>
<!-- Node2&#45;&gt;Node18 -->
<g id="edge17_Node000002_Node000018" class="edge">
<title>Node2&#45;&gt;Node18</title>
<g id="a_edge17_Node000002_Node000018"><a xlink:title=" ">
<path fill="none" stroke="#63b8ff" d="M332.86,-385.15C332.05,-384.46 331.26,-383.75 330.5,-383 292.61,-345.76 333,-305.62 294.5,-269 288.46,-263.25 280.9,-259.19 272.95,-256.33"/>
<polygon fill="#63b8ff" stroke="#63b8ff" points="330.86,-388.03 341.12,-390.68 334.76,-382.21 330.86,-388.03"/>
</a>
</g>
</g>
<!-- Node19 -->
<g id="Node000019" class="node">
<title>Node19</title>
<g id="a_Node000019"><a xlink:href="sv__controller_8cc.html#a4d38ae474762b7236baa5ed32bf113e5" target="_top" xlink:title=" ">
<polygon fill="white" stroke="#666666" points="275,-222 166.75,-222 166.75,-190 275,-190 275,-222"/>
<text xml:space="preserve" text-anchor="start" x="174.75" y="-208.5" font-family="Helvetica,sans-Serif" font-size="10.00">sv_mp_set_publisher</text>
<text xml:space="preserve" text-anchor="middle" x="220.88" y="-196.5" font-family="Helvetica,sans-Serif" font-size="10.00">_equations</text>
</a>
</g>
</g>
<!-- Node2&#45;&gt;Node19 -->
<g id="edge18_Node000002_Node000019" class="edge">
<title>Node2&#45;&gt;Node19</title>
<g id="a_edge18_Node000002_Node000019"><a xlink:title=" ">
<path fill="none" stroke="#63b8ff" d="M332.73,-385.18C331.96,-384.48 331.21,-383.76 330.5,-383 282.8,-332.55 341.1,-282.46 294.5,-231 289.22,-225.17 282.51,-220.7 275.32,-217.27"/>
<polygon fill="#63b8ff" stroke="#63b8ff" points="330.39,-387.81 340.57,-390.74 334.44,-382.1 330.39,-387.81"/>
</a>
</g>
</g>
<!-- Node20 -->
<g id="Node000020" class="node">
<title>Node20</title>
<g id="a_Node000020"><a xlink:href="sv__controller_8cc.html#a4e19eb64427914d1d201436993af1e4c" target="_top" xlink:title=" ">
<polygon fill="white" stroke="#666666" points="280.62,-172 161.12,-172 161.12,-152 280.62,-152 280.62,-172"/>
<text xml:space="preserve" text-anchor="middle" x="220.88" y="-158.5" font-family="Helvetica,sans-Serif" font-size="10.00">sv_mp_set_send_mode</text>
</a>
</g>
</g>
<!-- Node2&#45;&gt;Node20 -->
<g id="edge19_Node000002_Node000020" class="edge">
<title>Node2&#45;&gt;Node20</title>
<g id="a_edge19_Node000002_Node000020"><a xlink:title=" ">
<path fill="none" stroke="#63b8ff" d="M332.3,-384.88C331.68,-384.27 331.08,-383.65 330.5,-383 269.74,-315 356.37,-247.99 294.5,-181 290.61,-176.79 285.91,-173.46 280.8,-170.84"/>
<polygon fill="#63b8ff" stroke="#63b8ff" points="329.99,-387.52 340.09,-390.72 334.19,-381.92 329.99,-387.52"/>
</a>
</g>
</g>
<!-- Node21 -->
<g id="Node000021" class="node">
<title>Node21</title>
<g id="a_Node000021"><a xlink:href="sv__controller_8cc.html#a83f8396fc31b1e00a30a7f20be93aca0" target="_top" xlink:title=" ">
<polygon fill="white" stroke="#666666" points="292.25,-134 149.5,-134 149.5,-114 292.25,-114 292.25,-134"/>
<text xml:space="preserve" text-anchor="middle" x="220.88" y="-120.5" font-family="Helvetica,sans-Serif" font-size="10.00">sv_mp_set_usb_min_gap_us</text>
</a>
</g>
</g>
<!-- Node2&#45;&gt;Node21 -->
<g id="edge20_Node000002_Node000021" class="edge">
<title>Node2&#45;&gt;Node21</title>
<g id="a_edge20_Node000002_Node000021"><a xlink:title=" ">
<path fill="none" stroke="#63b8ff" d="M331.93,-384.56C331.44,-384.05 330.96,-383.53 330.5,-383 259.74,-301.59 366.58,-223.24 294.5,-143 291.45,-139.61 287.88,-136.79 283.98,-134.45"/>
<polygon fill="#63b8ff" stroke="#63b8ff" points="329.66,-387.23 339.7,-390.61 333.97,-381.7 329.66,-387.23"/>
</a>
</g>
</g>
<!-- Node22 -->
<g id="Node000022" class="node">
<title>Node22</title>
<g id="a_Node000022"><a xlink:href="sv__controller_8cc.html#aa77b032dcd6f5060771fadabd305ca53" target="_top" xlink:title=" ">
<polygon fill="white" stroke="#666666" points="285.5,-96 156.25,-96 156.25,-76 285.5,-76 285.5,-96"/>
<text xml:space="preserve" text-anchor="middle" x="220.88" y="-82.5" font-family="Helvetica,sans-Serif" font-size="10.00">sv_mp_set_usb_pad_size</text>
</a>
</g>
</g>
<!-- Node2&#45;&gt;Node22 -->
<g id="edge21_Node000002_Node000022" class="edge">
<title>Node2&#45;&gt;Node22</title>
<g id="a_edge21_Node000002_Node000022"><a xlink:title=" ">
<path fill="none" stroke="#63b8ff" d="M331.92,-384.57C331.43,-384.06 330.96,-383.54 330.5,-383 249.72,-288.15 376.82,-198.51 294.5,-105 291.49,-101.58 287.94,-98.73 284.06,-96.38"/>
<polygon fill="#63b8ff" stroke="#63b8ff" points="329.62,-387.21 339.63,-390.67 333.96,-381.72 329.62,-387.21"/>
</a>
</g>
</g>
<!-- Node23 -->
<g id="Node000023" class="node">
<title>Node23</title>
<g id="a_Node000023"><a xlink:href="sv__controller_8cc.html#a1b6b0344797b9edf84722fde0e1c660a" target="_top" xlink:title=" ">
<polygon fill="white" stroke="#666666" points="263.38,-58 178.38,-58 178.38,-38 263.38,-38 263.38,-58"/>
<text xml:space="preserve" text-anchor="middle" x="220.88" y="-44.5" font-family="Helvetica,sans-Serif" font-size="10.00">sv_mp_start_all</text>
</a>
</g>
</g>
<!-- Node2&#45;&gt;Node23 -->
<g id="edge22_Node000002_Node000023" class="edge">
<title>Node2&#45;&gt;Node23</title>
<g id="a_edge22_Node000002_Node000023"><a xlink:title=" ">
<path fill="none" stroke="#63b8ff" d="M331.9,-384.58C331.42,-384.07 330.95,-383.54 330.5,-383 239.67,-274.69 387.09,-173.81 294.5,-67 286.73,-58.04 275.31,-53.05 263.81,-50.34"/>
<polygon fill="#63b8ff" stroke="#63b8ff" points="329.58,-387.2 339.58,-390.71 333.95,-381.73 329.58,-387.2"/>
</a>
</g>
</g>
<!-- Node24 -->
<g id="Node000024" class="node">
<title>Node24</title>
<g id="a_Node000024"><a xlink:href="sv__controller_8cc.html#a8e437b55605082f953598ed00550c10d" target="_top" xlink:title=" ">
<polygon fill="white" stroke="#666666" points="263,-20 178.75,-20 178.75,0 263,0 263,-20"/>
<text xml:space="preserve" text-anchor="middle" x="220.88" y="-6.5" font-family="Helvetica,sans-Serif" font-size="10.00">sv_mp_stop_all</text>
</a>
</g>
</g>
<!-- Node2&#45;&gt;Node24 -->
<g id="edge23_Node000002_Node000024" class="edge">
<title>Node2&#45;&gt;Node24</title>
<g id="a_edge23_Node000002_Node000024"><a xlink:title=" ">
<path fill="none" stroke="#63b8ff" d="M331.58,-384.24C331.21,-383.84 330.85,-383.42 330.5,-383 229.62,-261.21 397.36,-149.12 294.5,-29 286.62,-19.79 274.88,-14.77 263.12,-12.1"/>
<polygon fill="#63b8ff" stroke="#63b8ff" points="329.31,-386.91 339.25,-390.55 333.75,-381.5 329.31,-386.91"/>
</a>
</g>
</g>
<!-- Node14 -->
<g id="Node000014" class="node">
<title>Node14</title>
<g id="a_Node000014"><a xlink:href="sv__native__refactored_8cc.html#af14f0670e1b30534e33524f8c49a5580" target="_top" xlink:title="Start publishing.">
<polygon fill="white" stroke="#666666" points="111.25,-412 0,-412 0,-392 111.25,-392 111.25,-412"/>
<text xml:space="preserve" text-anchor="middle" x="55.62" y="-398.5" font-family="Helvetica,sans-Serif" font-size="10.00">npcap_publisher_start</text>
</a>
</g>
</g>
<!-- Node13&#45;&gt;Node14 -->
<g id="edge13_Node000013_Node000014" class="edge">
<title>Node13&#45;&gt;Node14</title>
<g id="a_edge13_Node000013_Node000014"><a xlink:title=" ">
<path fill="none" stroke="#63b8ff" d="M161.98,-402C145.56,-402 127.73,-402 111.49,-402"/>
<polygon fill="#63b8ff" stroke="#63b8ff" points="161.58,-405.5 171.58,-402 161.58,-398.5 161.58,-405.5"/>
</a>
</g>
</g>
</g>
</svg>
