<?xml version="1.0" encoding="UTF-8" standalone="no"?>
<!DOCTYPE svg PUBLIC "-//W3C//DTD SVG 1.1//EN"
 "http://www.w3.org/Graphics/SVG/1.1/DTD/svg11.dtd">
<!-- Generated by graphviz version 14.1.2 (20260124.0452)
 -->
<!-- Title: SvController::resetAll Pages: 1 -->
<svg width="394pt" height="66pt"
 viewBox="0.00 0.00 394.00 66.00" xmlns="http://www.w3.org/2000/svg" xmlns:xlink="http://www.w3.org/1999/xlink">
<g id="graph0" class="graph" transform="scale(1 1) rotate(0) translate(4 62)">
<title>SvController::resetAll</title>
<!-- Node1 -->
<g id="Node000001" class="node">
<title>Node1</title>
<g id="a_Node000001"><a xlink:title=" ">
<polygon fill="#999999" stroke="#666666" points="109,-39 0,-39 0,-19 109,-19 109,-39"/>
<text xml:space="preserve" text-anchor="middle" x="54.5" y="-25.5" font-family="Helvetica,sans-Serif" font-size="10.00">SvController::resetAll</text>
</a>
</g>
</g>
<!-- Node2 -->
<g id="Node000002" class="node">
<title>Node2</title>
<g id="a_Node000002"><a xlink:href="sv__native__refactored_8cc.html#afc51a55f01e77fb4264498f176d9438e" target="_top" xlink:title="Stop publishing.">
<polygon fill="white" stroke="#666666" points="255.5,-58 145,-58 145,-38 255.5,-38 255.5,-58"/>
<text xml:space="preserve" text-anchor="middle" x="200.25" y="-44.5" font-family="Helvetica,sans-Serif" font-size="10.00">npcap_publisher_stop</text>
</a>
</g>
</g>
<!-- Node1&#45;&gt;Node2 -->
<g id="edge1_Node000001_Node000002" class="edge">
<title>Node1&#45;&gt;Node2</title>
<g id="a_edge1_Node000001_Node000002"><a xlink:title=" ">
<path fill="none" stroke="#63b8ff" d="M109.44,-36.13C117.23,-37.16 125.33,-38.23 133.33,-39.29"/>
<polygon fill="#63b8ff" stroke="#63b8ff" points="132.66,-42.73 143.03,-40.57 133.58,-35.79 132.66,-42.73"/>
</a>
</g>
</g>
<!-- Node4 -->
<g id="Node000004" class="node">
<title>Node4</title>
<g id="a_Node000004"><a xlink:href="sv__stats__impl_8cc.html#a4e5f02e3cc9b2b06496cca1b54582e0a" target="_top" xlink:title="Reset all statistics to zero.">
<polygon fill="white" stroke="#666666" points="248.38,-20 152.12,-20 152.12,0 248.38,0 248.38,-20"/>
<text xml:space="preserve" text-anchor="middle" x="200.25" y="-6.5" font-family="Helvetica,sans-Serif" font-size="10.00">npcap_stats_reset</text>
</a>
</g>
</g>
<!-- Node1&#45;&gt;Node4 -->
<g id="edge3_Node000001_Node000004" class="edge">
<title>Node1&#45;&gt;Node4</title>
<g id="a_edge3_Node000001_Node000004"><a xlink:title=" ">
<path fill="none" stroke="#63b8ff" d="M109.44,-21.87C119.51,-20.54 130.08,-19.14 140.3,-17.79"/>
<polygon fill="#63b8ff" stroke="#63b8ff" points="140.67,-21.27 150.13,-16.49 139.76,-14.33 140.67,-21.27"/>
</a>
</g>
</g>
<!-- Node3 -->
<g id="Node000003" class="node">
<title>Node3</title>
<g id="a_Node000003"><a xlink:href="sv__native__refactored_8cc.html#a24b2107199112b58a421c0c873ea7d12" target="_top" xlink:title=" ">
<polygon fill="white" stroke="#666666" points="385.5,-58 291.5,-58 291.5,-38 385.5,-38 385.5,-58"/>
<text xml:space="preserve" text-anchor="middle" x="338.5" y="-44.5" font-family="Helvetica,sans-Serif" font-size="10.00">free_frame_cache</text>
</a>
</g>
</g>
<!-- Node2&#45;&gt;Node3 -->
<g id="edge2_Node000002_Node000003" class="edge">
<title>Node2&#45;&gt;Node3</title>
<g id="a_edge2_Node000002_Node000003"><a xlink:title=" ">
<path fill="none" stroke="#63b8ff" d="M255.88,-48C263.74,-48 271.85,-48 279.77,-48"/>
<polygon fill="#63b8ff" stroke="#63b8ff" points="279.67,-51.5 289.67,-48 279.67,-44.5 279.67,-51.5"/>
</a>
</g>
</g>
</g>
</svg>
