<?xml version="1.0" encoding="UTF-8" standalone="no"?>
<!DOCTYPE svg PUBLIC "-//W3C//DTD SVG 1.1//EN"
 "http://www.w3.org/Graphics/SVG/1.1/DTD/svg11.dtd">
<!-- Generated by graphviz version 14.1.2 (20260124.0452)
 -->
<!-- Title: SvPublisherInstance::SvPublisherInstance Pages: 1 -->
<svg width="268pt" height="90pt"
 viewBox="0.00 0.00 268.00 90.00" xmlns="http://www.w3.org/2000/svg" xmlns:xlink="http://www.w3.org/1999/xlink">
<g id="graph0" class="graph" transform="scale(1 1) rotate(0) translate(4 86)">
<title>SvPublisherInstance::SvPublisherInstance</title>
<!-- Node1 -->
<g id="Node000001" class="node">
<title>Node1</title>
<g id="a_Node000001"><a xlink:title=" ">
<polygon fill="#999999" stroke="#666666" points="260,-57 148,-57 148,-25 260,-25 260,-57"/>
<text xml:space="preserve" text-anchor="start" x="156" y="-43.5" font-family="Helvetica,sans-Serif" font-size="10.00">SvPublisherInstance</text>
<text xml:space="preserve" text-anchor="middle" x="204" y="-31.5" font-family="Helvetica,sans-Serif" font-size="10.00">::SvPublisherInstance</text>
</a>
</g>
</g>
<!-- Node2 -->
<g id="Node000002" class="node">
<title>Node2</title>
<g id="a_Node000002"><a xlink:href="class_sv_publisher_instance.html#ab8f847cecfe3ea38af6db2da901c08fd" target="_top" xlink:title=" ">
<polygon fill="white" stroke="#666666" points="109,-82 3,-82 3,-50 109,-50 109,-82"/>
<text xml:space="preserve" text-anchor="start" x="11" y="-68.5" font-family="Helvetica,sans-Serif" font-size="10.00">SvPublisherInstance</text>
<text xml:space="preserve" text-anchor="middle" x="56" y="-56.5" font-family="Helvetica,sans-Serif" font-size="10.00">::operator=</text>
</a>
</g>
</g>
<!-- Node1&#45;&gt;Node2 -->
<g id="edge1_Node000001_Node000002" class="edge">
<title>Node1&#45;&gt;Node2</title>
<g id="a_edge1_Node000001_Node000002"><a xlink:title=" ">
<path fill="none" stroke="#63b8ff" d="M136.73,-52.35C127.56,-53.92 118.25,-55.51 109.38,-57.03"/>
<polygon fill="#63b8ff" stroke="#63b8ff" points="137.05,-55.84 146.31,-50.71 135.86,-48.94 137.05,-55.84"/>
</a>
</g>
</g>
<!-- Node3 -->
<g id="Node000003" class="node">
<title>Node3</title>
<g id="a_Node000003"><a xlink:href="class_sv_publisher_instance.html#a5ae4e89c099b7ef55b69e9b5a76f67c0" target="_top" xlink:title=" ">
<polygon fill="white" stroke="#666666" points="112,-32 0,-32 0,0 112,0 112,-32"/>
<text xml:space="preserve" text-anchor="start" x="8" y="-18.5" font-family="Helvetica,sans-Serif" font-size="10.00">SvPublisherInstance</text>
<text xml:space="preserve" text-anchor="middle" x="56" y="-6.5" font-family="Helvetica,sans-Serif" font-size="10.00">::SvPublisherInstance</text>
</a>
</g>
</g>
<!-- Node1&#45;&gt;Node3 -->
<g id="edge2_Node000001_Node000003" class="edge">
<title>Node1&#45;&gt;Node3</title>
<g id="a_edge2_Node000001_Node000003"><a xlink:title=" ">
<path fill="none" stroke="#63b8ff" d="M136.47,-29.61C128.38,-28.22 120.18,-26.82 112.27,-25.46"/>
<polygon fill="#63b8ff" stroke="#63b8ff" points="135.86,-33.06 146.31,-31.29 137.05,-26.16 135.86,-33.06"/>
</a>
</g>
</g>
</g>
</svg>
