<?xml version="1.0" encoding="UTF-8" standalone="no"?>
<!DOCTYPE svg PUBLIC "-//W3C//DTD SVG 1.1//EN"
 "http://www.w3.org/Graphics/SVG/1.1/DTD/svg11.dtd">
<!-- Generated by graphviz version 14.1.2 (20260124.0452)
 -->
<!-- Title: SVStructure Pages: 1 -->
<svg width="607pt" height="316pt"
 viewBox="0.00 0.00 607.00 316.00" xmlns="http://www.w3.org/2000/svg" xmlns:xlink="http://www.w3.org/1999/xlink">
<g id="graph0" class="graph" transform="scale(1 1) rotate(0) translate(4 312)">
<title>SVStructure</title>
<polygon fill="white" stroke="none" points="-4,4 -4,-312 603.25,-312 603.25,4 -4,4"/>
<!-- SAVPDU -->
<g id="node1" class="node">
<title>SAVPDU</title>
<polygon fill="#ffcccc" stroke="black" points="111.12,-258.5 111.12,-307.5 280.88,-307.5 280.88,-258.5 111.12,-258.5"/>
<text xml:space="preserve" text-anchor="middle" x="196" y="-290.2" font-family="Times New Roman,serif" font-size="14.00">SAVPDU (0x60)</text>
<polyline fill="none" stroke="black" points="111.12,-283 280.88,-283"/>
<text xml:space="preserve" text-anchor="middle" x="196" y="-265.7" font-family="Times New Roman,serif" font-size="14.00">Contains entire SV message</text>
</g>
<!-- NOASDU -->
<g id="node2" class="node">
<title>NOASDU</title>
<polygon fill="#ccffcc" stroke="black" points="53.38,-172.5 53.38,-221.5 188.62,-221.5 188.62,-172.5 53.38,-172.5"/>
<text xml:space="preserve" text-anchor="middle" x="121" y="-204.2" font-family="Times New Roman,serif" font-size="14.00">noASDU (0x80)</text>
<polyline fill="none" stroke="black" points="53.38,-197 188.62,-197"/>
<text xml:space="preserve" text-anchor="middle" x="121" y="-179.7" font-family="Times New Roman,serif" font-size="14.00">Number of ASDUs: 1</text>
</g>
<!-- SAVPDU&#45;&gt;NOASDU -->
<g id="edge1" class="edge">
<title>SAVPDU&#45;&gt;NOASDU</title>
<path fill="none" stroke="black" d="M174.71,-258.15C167.03,-249.55 158.23,-239.69 150,-230.48"/>
<polygon fill="black" stroke="black" points="152.62,-228.16 143.35,-223.03 147.4,-232.83 152.62,-228.16"/>
</g>
<!-- SEQASDU -->
<g id="node3" class="node">
<title>SEQASDU</title>
<polygon fill="#ccccff" stroke="black" points="207.12,-172.5 207.12,-221.5 334.88,-221.5 334.88,-172.5 207.12,-172.5"/>
<text xml:space="preserve" text-anchor="middle" x="271" y="-204.2" font-family="Times New Roman,serif" font-size="14.00">seqASDU (0xA2)</text>
<polyline fill="none" stroke="black" points="207.12,-197 334.88,-197"/>
<text xml:space="preserve" text-anchor="middle" x="271" y="-179.7" font-family="Times New Roman,serif" font-size="14.00">Sequence of ASDUs</text>
</g>
<!-- SAVPDU&#45;&gt;SEQASDU -->
<g id="edge2" class="edge">
<title>SAVPDU&#45;&gt;SEQASDU</title>
<path fill="none" stroke="black" d="M217.29,-258.15C224.97,-249.55 233.77,-239.69 242,-230.48"/>
<polygon fill="black" stroke="black" points="244.6,-232.83 248.65,-223.03 239.38,-228.16 244.6,-232.83"/>
</g>
<!-- ASDU -->
<g id="node4" class="node">
<title>ASDU</title>
<polygon fill="#ffffcc" stroke="black" points="191.75,-86.5 191.75,-135.5 350.25,-135.5 350.25,-86.5 191.75,-86.5"/>
<text xml:space="preserve" text-anchor="middle" x="271" y="-118.2" font-family="Times New Roman,serif" font-size="14.00">ASDU (0x30)</text>
<polyline fill="none" stroke="black" points="191.75,-111 350.25,-111"/>
<text xml:space="preserve" text-anchor="middle" x="271" y="-93.7" font-family="Times New Roman,serif" font-size="14.00">One measurement sample</text>
</g>
<!-- SEQASDU&#45;&gt;ASDU -->
<g id="edge3" class="edge">
<title>SEQASDU&#45;&gt;ASDU</title>
<path fill="none" stroke="black" d="M271,-172.15C271,-164.44 271,-155.71 271,-147.35"/>
<polygon fill="black" stroke="black" points="274.5,-147.42 271,-137.42 267.5,-147.42 274.5,-147.42"/>
</g>
<!-- SVID -->
<g id="node5" class="node">
<title>SVID</title>
<polygon fill="#ffccff" stroke="black" points="0,-0.5 0,-49.5 82,-49.5 82,-0.5 0,-0.5"/>
<text xml:space="preserve" text-anchor="middle" x="41" y="-32.2" font-family="Times New Roman,serif" font-size="14.00">svID (0x80)</text>
<polyline fill="none" stroke="black" points="0,-25 82,-25"/>
<text xml:space="preserve" text-anchor="middle" x="41" y="-7.7" font-family="Times New Roman,serif" font-size="14.00">&quot;MUnn01&quot;</text>
</g>
<!-- ASDU&#45;&gt;SVID -->
<g id="edge4" class="edge">
<title>ASDU&#45;&gt;SVID</title>
<path fill="none" stroke="black" d="M192.25,-86.12C163.21,-76.76 129.96,-65.38 92.86,-50.58"/>
<polygon fill="black" stroke="black" points="94.28,-47.38 83.69,-46.88 91.66,-53.87 94.28,-47.38"/>
</g>
<!-- SMPCNT -->
<g id="node6" class="node">
<title>SMPCNT</title>
<polygon fill="#ccffff" stroke="black" points="100.25,-0.5 100.25,-49.5 201.75,-49.5 201.75,-0.5 100.25,-0.5"/>
<text xml:space="preserve" text-anchor="middle" x="151" y="-32.2" font-family="Times New Roman,serif" font-size="14.00">smpCnt (0x82)</text>
<polyline fill="none" stroke="black" points="100.25,-25 201.75,-25"/>
<text xml:space="preserve" text-anchor="middle" x="151" y="-7.7" font-family="Times New Roman,serif" font-size="14.00">Sample counter</text>
</g>
<!-- ASDU&#45;&gt;SMPCNT -->
<g id="edge5" class="edge">
<title>ASDU&#45;&gt;SMPCNT</title>
<path fill="none" stroke="black" d="M236.93,-86.15C223.76,-76.93 208.52,-66.26 194.57,-56.5"/>
<polygon fill="black" stroke="black" points="196.59,-53.64 186.39,-50.77 192.58,-59.38 196.59,-53.64"/>
</g>
<!-- CONFREV -->
<g id="node7" class="node">
<title>CONFREV</title>
<polygon fill="#ffccff" stroke="black" points="220.25,-0.5 220.25,-49.5 321.75,-49.5 321.75,-0.5 220.25,-0.5"/>
<text xml:space="preserve" text-anchor="middle" x="271" y="-32.2" font-family="Times New Roman,serif" font-size="14.00">confRev (0x83)</text>
<polyline fill="none" stroke="black" points="220.25,-25 321.75,-25"/>
<text xml:space="preserve" text-anchor="middle" x="271" y="-7.7" font-family="Times New Roman,serif" font-size="14.00">Config revision</text>
</g>
<!-- ASDU&#45;&gt;CONFREV -->
<g id="edge6" class="edge">
<title>ASDU&#45;&gt;CONFREV</title>
<path fill="none" stroke="black" d="M271,-86.15C271,-78.44 271,-69.71 271,-61.35"/>
<polygon fill="black" stroke="black" points="274.5,-61.42 271,-51.42 267.5,-61.42 274.5,-61.42"/>
</g>
<!-- SMPSYNCH -->
<g id="node8" class="node">
<title>SMPSYNCH</title>
<polygon fill="#ccffff" stroke="black" points="339.62,-0.5 339.62,-49.5 452.38,-49.5 452.38,-0.5 339.62,-0.5"/>
<text xml:space="preserve" text-anchor="middle" x="396" y="-32.2" font-family="Times New Roman,serif" font-size="14.00">smpSynch (0x85)</text>
<polyline fill="none" stroke="black" points="339.62,-25 452.38,-25"/>
<text xml:space="preserve" text-anchor="middle" x="396" y="-7.7" font-family="Times New Roman,serif" font-size="14.00">Sync status</text>
</g>
<!-- ASDU&#45;&gt;SMPSYNCH -->
<g id="edge7" class="edge">
<title>ASDU&#45;&gt;SMPSYNCH</title>
<path fill="none" stroke="black" d="M306.49,-86.15C320.34,-76.84 336.39,-66.06 351.04,-56.21"/>
<polygon fill="black" stroke="black" points="352.82,-59.23 359.17,-50.75 348.92,-53.42 352.82,-59.23"/>
</g>
<!-- SEQDATA -->
<g id="node9" class="node">
<title>SEQDATA</title>
<polygon fill="#ffffcc" stroke="black" points="470.75,-0.5 470.75,-49.5 599.25,-49.5 599.25,-0.5 470.75,-0.5"/>
<text xml:space="preserve" text-anchor="middle" x="535" y="-32.2" font-family="Times New Roman,serif" font-size="14.00">seqData (0x87)</text>
<polyline fill="none" stroke="black" points="470.75,-25 599.25,-25"/>
<text xml:space="preserve" text-anchor="middle" x="535" y="-7.7" font-family="Times New Roman,serif" font-size="14.00">8 channels × 8 bytes</text>
</g>
<!-- ASDU&#45;&gt;SEQDATA -->
<g id="edge8" class="edge">
<title>ASDU&#45;&gt;SEQDATA</title>
<path fill="none" stroke="black" d="M347.31,-86.05C379.31,-75.97 417.15,-64.01 459.56,-50.45"/>
<polygon fill="black" stroke="black" points="460.54,-53.81 468.99,-47.43 458.4,-47.15 460.54,-53.81"/>
</g>
</g>
</svg>
