<?xml version="1.0" encoding="UTF-8" standalone="no"?>
<!DOCTYPE svg PUBLIC "-//W3C//DTD SVG 1.1//EN"
 "http://www.w3.org/Graphics/SVG/1.1/DTD/svg11.dtd">
<!-- Generated by graphviz version 14.1.2 (20260124.0452)
 -->
<!-- Title: equation_processor.h Pages: 1 -->
<svg width="462pt" height="196pt"
 viewBox="0.00 0.00 462.00 196.00" xmlns="http://www.w3.org/2000/svg" xmlns:xlink="http://www.w3.org/1999/xlink">
<g id="graph0" class="graph" transform="scale(1 1) rotate(0) translate(4 192)">
<title>equation_processor.h</title>
<!-- Node1 -->
<g id="Node000001" class="node">
<title>Node1</title>
<g id="a_Node000001"><a xlink:title="Equation Processing for SV Publisher.">
<polygon fill="#999999" stroke="#666666" points="246.62,-188 137.62,-188 137.62,-168 246.62,-168 246.62,-188"/>
<text xml:space="preserve" text-anchor="middle" x="192.12" y="-174.5" font-family="Helvetica,sans-Serif" font-size="10.00">equation_processor.h</text>
</a>
</g>
</g>
<!-- Node2 -->
<g id="Node000002" class="node">
<title>Node2</title>
<g id="a_Node000002"><a xlink:href="equation__processor_8cc.html" target="_top" xlink:title="Equation Processing Implementation.">
<polygon fill="white" stroke="#666666" points="114.25,-132 0,-132 0,-112 114.25,-112 114.25,-132"/>
<text xml:space="preserve" text-anchor="middle" x="57.12" y="-118.5" font-family="Helvetica,sans-Serif" font-size="10.00">equation_processor.cc</text>
</a>
</g>
</g>
<!-- Node1&#45;&gt;Node2 -->
<g id="edge1_Node000001_Node000002" class="edge">
<title>Node1&#45;&gt;Node2</title>
<g id="a_edge1_Node000001_Node000002"><a xlink:title=" ">
<path fill="none" stroke="#63b8ff" d="M158.13,-163.4C134.01,-153.75 102.24,-141.05 80.82,-132.48"/>
<polygon fill="#63b8ff" stroke="#63b8ff" points="156.62,-166.57 167.2,-167.03 159.22,-160.07 156.62,-166.57"/>
</a>
</g>
</g>
<!-- Node3 -->
<g id="Node000003" class="node">
<title>Node3</title>
<g id="a_Node000003"><a xlink:href="sv__native__refactored_8cc.html" target="_top" xlink:title="SV Publisher &#45; Main Entry Point for Tauri FFI.">
<polygon fill="white" stroke="#666666" points="252.25,-132 132,-132 132,-112 252.25,-112 252.25,-132"/>
<text xml:space="preserve" text-anchor="middle" x="192.12" y="-118.5" font-family="Helvetica,sans-Serif" font-size="10.00">sv_native_refactored.cc</text>
</a>
</g>
</g>
<!-- Node1&#45;&gt;Node3 -->
<g id="edge2_Node000001_Node000003" class="edge">
<title>Node1&#45;&gt;Node3</title>
<g id="a_edge2_Node000001_Node000003"><a xlink:title=" ">
<path fill="none" stroke="#63b8ff" d="M192.12,-156.13C192.12,-147.9 192.12,-138.85 192.12,-132.3"/>
<polygon fill="#63b8ff" stroke="#63b8ff" points="188.63,-156.08 192.13,-166.08 195.63,-156.08 188.63,-156.08"/>
</a>
</g>
</g>
<!-- Node4 -->
<g id="Node000004" class="node">
<title>Node4</title>
<g id="a_Node000004"><a xlink:href="sv__publisher__instance_8h.html" target="_top" xlink:title="Single SV Publisher Instance (one Merging Unit).">
<polygon fill="white" stroke="#666666" points="391.62,-132 270.62,-132 270.62,-112 391.62,-112 391.62,-132"/>
<text xml:space="preserve" text-anchor="middle" x="331.12" y="-118.5" font-family="Helvetica,sans-Serif" font-size="10.00">sv_publisher_instance.h</text>
</a>
</g>
</g>
<!-- Node1&#45;&gt;Node4 -->
<g id="edge3_Node000001_Node000004" class="edge">
<title>Node1&#45;&gt;Node4</title>
<g id="a_edge3_Node000001_Node000004"><a xlink:title=" ">
<path fill="none" stroke="#63b8ff" d="M226.79,-163.53C251.67,-153.87 284.57,-141.08 306.72,-132.48"/>
<polygon fill="#63b8ff" stroke="#63b8ff" points="225.8,-160.16 217.75,-167.05 228.34,-166.69 225.8,-160.16"/>
</a>
</g>
</g>
<!-- Node5 -->
<g id="Node000005" class="node">
<title>Node5</title>
<g id="a_Node000005"><a xlink:href="sv__controller_8h.html" target="_top" xlink:title="Main Controller + SharedBuffer for Multi&#45;Publisher SV System.">
<polygon fill="white" stroke="#666666" points="310,-76 230.25,-76 230.25,-56 310,-56 310,-76"/>
<text xml:space="preserve" text-anchor="middle" x="270.12" y="-62.5" font-family="Helvetica,sans-Serif" font-size="10.00">sv_controller.h</text>
</a>
</g>
</g>
<!-- Node4&#45;&gt;Node5 -->
<g id="edge4_Node000004_Node000005" class="edge">
<title>Node4&#45;&gt;Node5</title>
<g id="a_edge4_Node000004_Node000005"><a xlink:title=" ">
<path fill="none" stroke="#63b8ff" d="M312.06,-104.13C301.69,-94.94 289.25,-83.93 280.63,-76.3"/>
<polygon fill="#63b8ff" stroke="#63b8ff" points="309.56,-106.58 319.37,-110.59 314.2,-101.34 309.56,-106.58"/>
</a>
</g>
</g>
<!-- Node7 -->
<g id="Node000007" class="node">
<title>Node7</title>
<g id="a_Node000007"><a xlink:href="sv__publisher__instance_8cc.html" target="_top" xlink:title="Implementation of SvPublisherInstance.">
<polygon fill="white" stroke="#666666" points="454.25,-76 328,-76 328,-56 454.25,-56 454.25,-76"/>
<text xml:space="preserve" text-anchor="middle" x="391.12" y="-62.5" font-family="Helvetica,sans-Serif" font-size="10.00">sv_publisher_instance.cc</text>
</a>
</g>
</g>
<!-- Node4&#45;&gt;Node7 -->
<g id="edge6_Node000004_Node000007" class="edge">
<title>Node4&#45;&gt;Node7</title>
<g id="a_edge6_Node000004_Node000007"><a xlink:title=" ">
<path fill="none" stroke="#63b8ff" d="M349.87,-104.13C360.08,-94.94 372.31,-83.93 380.79,-76.3"/>
<polygon fill="#63b8ff" stroke="#63b8ff" points="347.79,-101.29 342.7,-110.58 352.48,-106.49 347.79,-101.29"/>
</a>
</g>
</g>
<!-- Node6 -->
<g id="Node000006" class="node">
<title>Node6</title>
<g id="a_Node000006"><a xlink:href="sv__controller_8cc.html" target="_top" xlink:title="Implementation of SharedBuffer + SvController + Multi&#45;Publisher FFI.">
<polygon fill="white" stroke="#666666" points="312.62,-20 227.62,-20 227.62,0 312.62,0 312.62,-20"/>
<text xml:space="preserve" text-anchor="middle" x="270.12" y="-6.5" font-family="Helvetica,sans-Serif" font-size="10.00">sv_controller.cc</text>
</a>
</g>
</g>
<!-- Node5&#45;&gt;Node6 -->
<g id="edge5_Node000005_Node000006" class="edge">
<title>Node5&#45;&gt;Node6</title>
<g id="a_edge5_Node000005_Node000006"><a xlink:title=" ">
<path fill="none" stroke="#63b8ff" d="M270.12,-44.13C270.12,-35.9 270.12,-26.85 270.12,-20.3"/>
<polygon fill="#63b8ff" stroke="#63b8ff" points="266.63,-44.08 270.13,-54.08 273.63,-44.08 266.63,-44.08"/>
</a>
</g>
</g>
</g>
</svg>
