<?xml version="1.0" encoding="UTF-8" standalone="no"?>
<!DOCTYPE svg PUBLIC "-//W3C//DTD SVG 1.1//EN"
 "http://www.w3.org/Graphics/SVG/1.1/DTD/svg11.dtd">
<!-- Generated by graphviz version 14.1.2 (20260124.0452)
 -->
<!-- Title: eq_load_equations Pages: 1 -->
<svg width="452pt" height="256pt"
 viewBox="0.00 0.00 452.00 256.00" xmlns="http://www.w3.org/2000/svg" xmlns:xlink="http://www.w3.org/1999/xlink">

<svg id="main" version="1.1" xmlns="http://www.w3.org/2000/svg" xmlns:xlink="http://www.w3.org/1999/xlink" xml:space="preserve">

<style type="text/css"><![CDATA[
.node, .edge {opacity: 0.7;}
.node.selected, .edge.selected {opacity: 1;}
.edge:hover path { stroke: red; }
.edge:hover polygon { stroke: red; fill: red; }
]]></style>
<script type="application/ecmascript" xlink:href="svg.min.js"/>
<svg id="graph" class="graph">
<g id="graph0" class="graph" transform="scale(1 1) rotate(0) translate(4 252)">
<title>eq_load_equations</title>
<!-- Node1 -->
<g id="Node000001" class="node">
<title>Node1</title>
<g id="a_Node000001"><a xlink:title=" ">
<polygon fill="#999999" stroke="#666666" points="97,-58 0,-58 0,-38 97,-38 97,-58"/>
<text xml:space="preserve" text-anchor="middle" x="48.5" y="-44.5" font-family="Helvetica,sans-Serif" font-size="10.00">eq_load_equations</text>
</a>
</g>
</g>
<!-- Node2 -->
<g id="Node000002" class="node">
<title>Node2</title>
<g id="a_Node000002"><a xlink:href="equation__processor_8cc.html#a8103716ec53a0b4e13650d1587fabace" target="_top" xlink:title=" ">
<polygon fill="white" stroke="#666666" points="232.62,-153 134.88,-153 134.88,-133 232.62,-133 232.62,-153"/>
<text xml:space="preserve" text-anchor="middle" x="183.75" y="-139.5" font-family="Helvetica,sans-Serif" font-size="10.00">eq_parse_equation</text>
</a>
</g>
</g>
<!-- Node1&#45;&gt;Node2 -->
<g id="edge1_Node000001_Node000002" class="edge">
<title>Node1&#45;&gt;Node2</title>
<g id="a_edge1_Node000001_Node000002"><a xlink:title=" ">
<path fill="none" stroke="#63b8ff" d="M64.01,-58.35C86.84,-74.62 131.37,-106.37 158.94,-126.02"/>
<polygon fill="#63b8ff" stroke="#63b8ff" points="156.85,-128.83 167.02,-131.79 160.91,-123.13 156.85,-128.83"/>
</a>
</g>
</g>
<!-- Node4 -->
<g id="Node000004" class="node">
<title>Node4</title>
<g id="a_Node000004"><a xlink:href="equation__processor_8cc.html#ac1326429ee84fb3c0408537b03c067e9" target="_top" xlink:title=" ">
<polygon fill="white" stroke="#666666" points="437.5,-134 405,-134 405,-114 437.5,-114 437.5,-134"/>
<text xml:space="preserve" text-anchor="middle" x="421.25" y="-120.5" font-family="Helvetica,sans-Serif" font-size="10.00">trim</text>
</a>
</g>
</g>
<!-- Node1&#45;&gt;Node4 -->
<g id="edge11_Node000001_Node000004" class="edge">
<title>Node1&#45;&gt;Node4</title>
<g id="a_edge11_Node000001_Node000004"><a xlink:title=" ">
<path fill="none" stroke="#63b8ff" d="M97.38,-40.8C161.08,-33.41 275.82,-27.87 363,-67 380.95,-75.05 396.41,-91.39 406.73,-104.52"/>
<polygon fill="#63b8ff" stroke="#63b8ff" points="403.9,-106.58 412.67,-112.53 409.52,-102.41 403.9,-106.58"/>
</a>
</g>
</g>
<!-- Node9 -->
<g id="Node000009" class="node">
<title>Node9</title>
<g id="a_Node000009"><a xlink:href="equation__processor_8cc.html#a22fd2b8dd483ee4ad3dc97ac142e1470" target="_top" xlink:title=" ">
<polygon fill="white" stroke="#666666" points="234.5,-20 133,-20 133,0 234.5,0 234.5,-20"/>
<text xml:space="preserve" text-anchor="middle" x="183.75" y="-6.5" font-family="Helvetica,sans-Serif" font-size="10.00">eq_processor_reset</text>
</a>
</g>
</g>
<!-- Node1&#45;&gt;Node9 -->
<g id="edge9_Node000001_Node000009" class="edge">
<title>Node1&#45;&gt;Node9</title>
<g id="a_edge9_Node000001_Node000009"><a xlink:title=" ">
<path fill="none" stroke="#63b8ff" d="M86.26,-37.52C101.41,-33.2 119.15,-28.14 135.26,-23.54"/>
<polygon fill="#63b8ff" stroke="#63b8ff" points="135.99,-26.97 144.65,-20.87 134.07,-20.24 135.99,-26.97"/>
</a>
</g>
</g>
<!-- Node3 -->
<g id="Node000003" class="node">
<title>Node3</title>
<g id="a_Node000003"><a xlink:href="equation__processor_8cc.html#ab11083e2183c7caba557d0f7a0ad56dc" target="_top" xlink:title=" ">
<polygon fill="white" stroke="#666666" points="360.38,-172 273.12,-172 273.12,-152 360.38,-152 360.38,-172"/>
<text xml:space="preserve" text-anchor="middle" x="316.75" y="-158.5" font-family="Helvetica,sans-Serif" font-size="10.00">parse_amplitude</text>
</a>
</g>
</g>
<!-- Node2&#45;&gt;Node3 -->
<g id="edge2_Node000002_Node000003" class="edge">
<title>Node2&#45;&gt;Node3</title>
<g id="a_edge2_Node000002_Node000003"><a xlink:title=" ">
<path fill="none" stroke="#63b8ff" d="M232.79,-149.97C242.23,-151.34 252.2,-152.78 261.83,-154.18"/>
<polygon fill="#63b8ff" stroke="#63b8ff" points="261.02,-157.6 271.42,-155.57 262.03,-150.67 261.02,-157.6"/>
</a>
</g>
</g>
<!-- Node2&#45;&gt;Node4 -->
<g id="edge8_Node000002_Node000004" class="edge">
<title>Node2&#45;&gt;Node4</title>
<g id="a_edge8_Node000002_Node000004"><a xlink:title=" ">
<path fill="none" stroke="#63b8ff" d="M232.98,-139.11C281.42,-135.2 354.34,-129.32 393.35,-126.17"/>
<polygon fill="#63b8ff" stroke="#63b8ff" points="393.56,-129.66 403.25,-125.37 393,-122.69 393.56,-129.66"/>
</a>
</g>
</g>
<!-- Node5 -->
<g id="Node000005" class="node">
<title>Node5</title>
<g id="a_Node000005"><a xlink:href="equation__processor_8cc.html#a88db7263b4473e36aba6a711bfee46b4" target="_top" xlink:title=" ">
<polygon fill="white" stroke="#666666" points="360.75,-96 272.75,-96 272.75,-76 360.75,-76 360.75,-96"/>
<text xml:space="preserve" text-anchor="middle" x="316.75" y="-82.5" font-family="Helvetica,sans-Serif" font-size="10.00">parse_frequency</text>
</a>
</g>
</g>
<!-- Node2&#45;&gt;Node5 -->
<g id="edge4_Node000002_Node000005" class="edge">
<title>Node2&#45;&gt;Node5</title>
<g id="a_edge4_Node000002_Node000005"><a xlink:title=" ">
<path fill="none" stroke="#63b8ff" d="M208.78,-132.55C229.18,-123.67 258.71,-110.82 281.58,-100.87"/>
<polygon fill="#63b8ff" stroke="#63b8ff" points="282.71,-104.19 290.49,-96.99 279.92,-97.77 282.71,-104.19"/>
</a>
</g>
</g>
<!-- Node6 -->
<g id="Node000006" class="node">
<title>Node6</title>
<g id="a_Node000006"><a xlink:href="equation__processor_8cc.html#a7c902fb3d0dd9ddec694b0ed1f5ae4ed" target="_top" xlink:title=" ">
<polygon fill="white" stroke="#666666" points="352.5,-248 281,-248 281,-228 352.5,-228 352.5,-248"/>
<text xml:space="preserve" text-anchor="middle" x="316.75" y="-234.5" font-family="Helvetica,sans-Serif" font-size="10.00">parse_phase</text>
</a>
</g>
</g>
<!-- Node2&#45;&gt;Node6 -->
<g id="edge5_Node000002_Node000006" class="edge">
<title>Node2&#45;&gt;Node6</title>
<g id="a_edge5_Node000002_Node000006"><a xlink:title=" ">
<path fill="none" stroke="#63b8ff" d="M194.17,-153.29C209.11,-169.11 239.68,-199.62 270.5,-219 272.47,-220.24 274.54,-221.43 276.66,-222.57"/>
<polygon fill="#63b8ff" stroke="#63b8ff" points="274.91,-225.61 285.43,-226.85 277.98,-219.32 274.91,-225.61"/>
</a>
</g>
</g>
<!-- Node7 -->
<g id="Node000007" class="node">
<title>Node7</title>
<g id="a_Node000007"><a xlink:href="equation__processor_8cc.html#a1812b6f4961abf271c0dfba1449e5d7f" target="_top" xlink:title=" ">
<polygon fill="white" stroke="#666666" points="360.38,-210 273.12,-210 273.12,-190 360.38,-190 360.38,-210"/>
<text xml:space="preserve" text-anchor="middle" x="316.75" y="-196.5" font-family="Helvetica,sans-Serif" font-size="10.00">parse_wavetype</text>
</a>
</g>
</g>
<!-- Node2&#45;&gt;Node7 -->
<g id="edge6_Node000002_Node000007" class="edge">
<title>Node2&#45;&gt;Node7</title>
<g id="a_edge6_Node000002_Node000007"><a xlink:title=" ">
<path fill="none" stroke="#63b8ff" d="M207.99,-153.45C225.21,-161.15 249.27,-171.84 270.5,-181 273.68,-182.37 277,-183.79 280.32,-185.2"/>
<polygon fill="#63b8ff" stroke="#63b8ff" points="278.85,-188.38 289.42,-189.05 281.57,-181.93 278.85,-188.38"/>
</a>
</g>
</g>
<!-- Node3&#45;&gt;Node4 -->
<g id="edge3_Node000003_Node000004" class="edge">
<title>Node3&#45;&gt;Node4</title>
<g id="a_edge3_Node000003_Node000004"><a xlink:title=" ">
<path fill="none" stroke="#63b8ff" d="M346.03,-151.52C361.14,-145.91 379.61,-139.07 394.34,-133.6"/>
<polygon fill="#63b8ff" stroke="#63b8ff" points="395.19,-137.02 403.35,-130.27 392.75,-130.46 395.19,-137.02"/>
</a>
</g>
</g>
<!-- Node8 -->
<g id="Node000008" class="node">
<title>Node8</title>
<g id="a_Node000008"><a xlink:href="equation__processor_8cc.html#a431d9c2aa50d604907558f307a28f5ad" target="_top" xlink:title=" ">
<polygon fill="white" stroke="#666666" points="443.5,-210 399,-210 399,-190 443.5,-190 443.5,-210"/>
<text xml:space="preserve" text-anchor="middle" x="421.25" y="-196.5" font-family="Helvetica,sans-Serif" font-size="10.00">find_ci</text>
</a>
</g>
</g>
<!-- Node7&#45;&gt;Node8 -->
<g id="edge7_Node000007_Node000008" class="edge">
<title>Node7&#45;&gt;Node8</title>
<g id="a_edge7_Node000007_Node000008"><a xlink:title=" ">
<path fill="none" stroke="#63b8ff" d="M360.63,-200C369.5,-200 378.72,-200 387.18,-200"/>
<polygon fill="#63b8ff" stroke="#63b8ff" points="387,-203.5 397,-200 387,-196.5 387,-203.5"/>
</a>
</g>
</g>
<!-- Node10 -->
<g id="Node000010" class="node">
<title>Node10</title>
<g id="a_Node000010"><a xlink:href="equation__processor_8cc.html#a46ef0c0ecb1771fa6ad1d6bd29d1b96f" target="_top" xlink:title=" ">
<polygon fill="white" stroke="#666666" points="363,-20 270.5,-20 270.5,0 363,0 363,-20"/>
<text xml:space="preserve" text-anchor="middle" x="316.75" y="-6.5" font-family="Helvetica,sans-Serif" font-size="10.00">eq_processor_init</text>
</a>
</g>
</g>
<!-- Node9&#45;&gt;Node10 -->
<g id="edge10_Node000009_Node000010" class="edge">
<title>Node9&#45;&gt;Node10</title>
<g id="a_edge10_Node000009_Node000010"><a xlink:title=" ">
<path fill="none" stroke="#63b8ff" d="M234.65,-10C242.61,-10 250.9,-10 259,-10"/>
<polygon fill="#63b8ff" stroke="#63b8ff" points="258.78,-13.5 268.78,-10 258.78,-6.5 258.78,-13.5"/>
</a>
</g>
</g>
</g>
</svg>
</svg>

<style type='text/css'>
<![CDATA[
[data-mouse-over-selected='false'] { opacity: 0.7; }
[data-mouse-over-selected='true']  { opacity: 1.0; }
]]>
</style>
<script type="application/ecmascript"><![CDATA[
document.addEventListener('DOMContentLoaded', (event) => {
  highlightEdges();
  highlightAdjacentNodes();
});
]]></script>
</svg>
