<?xml version="1.0" encoding="UTF-8" standalone="no"?>
<!DOCTYPE svg PUBLIC "-//W3C//DTD SVG 1.1//EN"
 "http://www.w3.org/Graphics/SVG/1.1/DTD/svg11.dtd">
<!-- Generated by graphviz version 14.1.2 (20260124.0452)
 -->
<!-- Title: trim Pages: 1 -->
<svg width="460pt" height="104pt"
 viewBox="0.00 0.00 460.00 104.00" xmlns="http://www.w3.org/2000/svg" xmlns:xlink="http://www.w3.org/1999/xlink">

<svg id="main" version="1.1" xmlns="http://www.w3.org/2000/svg" xmlns:xlink="http://www.w3.org/1999/xlink" xml:space="preserve">

<style type="text/css"><![CDATA[
.node, .edge {opacity: 0.7;}
.node.selected, .edge.selected {opacity: 1;}
.edge:hover path { stroke: red; }
.edge:hover polygon { stroke: red; fill: red; }
]]></style>
<script type="application/ecmascript" xlink:href="svg.min.js"/>
<svg id="graph" class="graph">
<g id="graph0" class="graph" transform="scale(1 1) rotate(0) translate(4 100)">
<title>trim</title>
<!-- Node1 -->
<g id="Node000001" class="node">
<title>Node1</title>
<g id="a_Node000001"><a xlink:title=" ">
<polygon fill="#999999" stroke="#666666" points="451.75,-58 419.25,-58 419.25,-38 451.75,-38 451.75,-58"/>
<text xml:space="preserve" text-anchor="middle" x="435.5" y="-44.5" font-family="Helvetica,sans-Serif" font-size="10.00">trim</text>
</a>
</g>
</g>
<!-- Node2 -->
<g id="Node000002" class="node">
<title>Node2</title>
<g id="a_Node000002"><a xlink:href="equation__processor_8cc.html#a6c84bd97ee3baa8a7d6433b3441ef6a1" target="_top" xlink:title=" ">
<polygon fill="white" stroke="#666666" points="111.62,-96 14.62,-96 14.62,-76 111.62,-76 111.62,-96"/>
<text xml:space="preserve" text-anchor="middle" x="63.12" y="-82.5" font-family="Helvetica,sans-Serif" font-size="10.00">eq_load_equations</text>
</a>
</g>
</g>
<!-- Node1&#45;&gt;Node2 -->
<g id="edge1_Node000001_Node000002" class="edge">
<title>Node1&#45;&gt;Node2</title>
<g id="a_edge1_Node000001_Node000002"><a xlink:title=" ">
<path fill="none" stroke="#63b8ff" d="M408.13,-56.24C400.2,-58.44 391.43,-60.59 383.25,-62 287.98,-78.44 174.79,-83.62 112.05,-85.25"/>
<polygon fill="#63b8ff" stroke="#63b8ff" points="408.9,-59.66 417.52,-53.5 406.94,-52.94 408.9,-59.66"/>
</a>
</g>
</g>
<!-- Node3 -->
<g id="Node000003" class="node">
<title>Node3</title>
<g id="a_Node000003"><a xlink:href="equation__processor_8cc.html#a8103716ec53a0b4e13650d1587fabace" target="_top" xlink:title=" ">
<polygon fill="white" stroke="#666666" points="260,-58 162.25,-58 162.25,-38 260,-38 260,-58"/>
<text xml:space="preserve" text-anchor="middle" x="211.12" y="-44.5" font-family="Helvetica,sans-Serif" font-size="10.00">eq_parse_equation</text>
</a>
</g>
</g>
<!-- Node1&#45;&gt;Node3 -->
<g id="edge2_Node000001_Node000003" class="edge">
<title>Node1&#45;&gt;Node3</title>
<g id="a_edge2_Node000001_Node000003"><a xlink:title=" ">
<path fill="none" stroke="#63b8ff" d="M407.72,-48C371.32,-48 305.61,-48 260.47,-48"/>
<polygon fill="#63b8ff" stroke="#63b8ff" points="407.35,-51.5 417.35,-48 407.35,-44.5 407.35,-51.5"/>
</a>
</g>
</g>
<!-- Node5 -->
<g id="Node000005" class="node">
<title>Node5</title>
<g id="a_Node000005"><a xlink:href="equation__processor_8cc.html#ab11083e2183c7caba557d0f7a0ad56dc" target="_top" xlink:title=" ">
<polygon fill="white" stroke="#666666" points="383.25,-20 296,-20 296,0 383.25,0 383.25,-20"/>
<text xml:space="preserve" text-anchor="middle" x="339.62" y="-6.5" font-family="Helvetica,sans-Serif" font-size="10.00">parse_amplitude</text>
</a>
</g>
</g>
<!-- Node1&#45;&gt;Node5 -->
<g id="edge5_Node000001_Node000005" class="edge">
<title>Node1&#45;&gt;Node5</title>
<g id="a_edge5_Node000001_Node000005"><a xlink:title=" ">
<path fill="none" stroke="#63b8ff" d="M408.33,-37.41C395.25,-32.11 379.47,-25.72 366.44,-20.45"/>
<polygon fill="#63b8ff" stroke="#63b8ff" points="407.01,-40.65 417.6,-41.16 409.64,-34.16 407.01,-40.65"/>
</a>
</g>
</g>
<!-- Node3&#45;&gt;Node2 -->
<g id="edge3_Node000003_Node000002" class="edge">
<title>Node3&#45;&gt;Node2</title>
<g id="a_edge3_Node000003_Node000002"><a xlink:title=" ">
<path fill="none" stroke="#63b8ff" d="M158.72,-61.38C140.86,-66.03 121.1,-71.17 104.28,-75.55"/>
<polygon fill="#63b8ff" stroke="#63b8ff" points="159.58,-64.77 168.38,-58.87 157.82,-58 159.58,-64.77"/>
</a>
</g>
</g>
<!-- Node4 -->
<g id="Node000004" class="node">
<title>Node4</title>
<g id="a_Node000004"><a xlink:href="equation__processor_8cc.html#a0c185ca473430af355b8e7e73cf3f22a" target="_top" xlink:title=" ">
<polygon fill="white" stroke="#666666" points="126.25,-58 0,-58 0,-38 126.25,-38 126.25,-58"/>
<text xml:space="preserve" text-anchor="middle" x="63.12" y="-44.5" font-family="Helvetica,sans-Serif" font-size="10.00">eq_set_channel_equation</text>
</a>
</g>
</g>
<!-- Node3&#45;&gt;Node4 -->
<g id="edge4_Node000003_Node000004" class="edge">
<title>Node3&#45;&gt;Node4</title>
<g id="a_edge4_Node000003_Node000004"><a xlink:title=" ">
<path fill="none" stroke="#63b8ff" d="M150.55,-48C142.66,-48 134.55,-48 126.6,-48"/>
<polygon fill="#63b8ff" stroke="#63b8ff" points="150.4,-51.5 160.4,-48 150.4,-44.5 150.4,-51.5"/>
</a>
</g>
</g>
<!-- Node5&#45;&gt;Node3 -->
<g id="edge6_Node000005_Node000003" class="edge">
<title>Node5&#45;&gt;Node3</title>
<g id="a_edge6_Node000005_Node000003"><a xlink:title=" ">
<path fill="none" stroke="#63b8ff" d="M292.98,-23.71C277.8,-28.27 261.14,-33.28 246.91,-37.55"/>
<polygon fill="#63b8ff" stroke="#63b8ff" points="293.7,-27.15 302.27,-20.92 291.69,-20.44 293.7,-27.15"/>
</a>
</g>
</g>
</g>
</svg>
</svg>

<style type='text/css'>
<![CDATA[
[data-mouse-over-selected='false'] { opacity: 0.7; }
[data-mouse-over-selected='true']  { opacity: 1.0; }
]]>
</style>
<script type="application/ecmascript"><![CDATA[
document.addEventListener('DOMContentLoaded', (event) => {
  highlightEdges();
  highlightAdjacentNodes();
});
]]></script>
</svg>
