<?xml version="1.0" encoding="UTF-8" standalone="no"?>
<!DOCTYPE svg PUBLIC "-//W3C//DTD SVG 1.1//EN"
 "http://www.w3.org/Graphics/SVG/1.1/DTD/svg11.dtd">
<!-- Generated by graphviz version 14.1.2 (20260124.0452)
 -->
<!-- Title: find_ci Pages: 1 -->
<svg width="492pt" height="85pt"
 viewBox="0.00 0.00 492.00 85.00" xmlns="http://www.w3.org/2000/svg" xmlns:xlink="http://www.w3.org/1999/xlink">

<svg id="main" version="1.1" xmlns="http://www.w3.org/2000/svg" xmlns:xlink="http://www.w3.org/1999/xlink" xml:space="preserve">

<style type="text/css"><![CDATA[
.node, .edge {opacity: 0.7;}
.node.selected, .edge.selected {opacity: 1;}
.edge:hover path { stroke: red; }
.edge:hover polygon { stroke: red; fill: red; }
]]></style>
<script type="application/ecmascript" xlink:href="svg.min.js"/>
<svg id="graph" class="graph">
<g id="graph0" class="graph" transform="scale(1 1) rotate(0) translate(4 81)">
<title>find_ci</title>
<!-- Node1 -->
<g id="Node000001" class="node">
<title>Node1</title>
<g id="a_Node000001"><a xlink:title=" ">
<polygon fill="#999999" stroke="#666666" points="484,-58 439.5,-58 439.5,-38 484,-38 484,-58"/>
<text xml:space="preserve" text-anchor="middle" x="461.75" y="-44.5" font-family="Helvetica,sans-Serif" font-size="10.00">find_ci</text>
</a>
</g>
</g>
<!-- Node2 -->
<g id="Node000002" class="node">
<title>Node2</title>
<g id="a_Node000002"><a xlink:href="equation__processor_8cc.html#a4e86eed1c3ffd369c09d7271ea54ee89" target="_top" xlink:title=" ">
<polygon fill="white" stroke="#666666" points="403.5,-77 296,-77 296,-57 403.5,-57 403.5,-77"/>
<text xml:space="preserve" text-anchor="middle" x="349.75" y="-63.5" font-family="Helvetica,sans-Serif" font-size="10.00">eq_validate_equation</text>
</a>
</g>
</g>
<!-- Node1&#45;&gt;Node2 -->
<g id="edge1_Node000001_Node000002" class="edge">
<title>Node1&#45;&gt;Node2</title>
<g id="a_edge1_Node000001_Node000002"><a xlink:title=" ">
<path fill="none" stroke="#63b8ff" d="M427.8,-53.69C420.25,-54.99 412.04,-56.41 403.88,-57.82"/>
<polygon fill="#63b8ff" stroke="#63b8ff" points="428.27,-57.16 437.53,-52.01 427.08,-50.26 428.27,-57.16"/>
</a>
</g>
</g>
<!-- Node3 -->
<g id="Node000003" class="node">
<title>Node3</title>
<g id="a_Node000003"><a xlink:href="equation__processor_8cc.html#a1812b6f4961abf271c0dfba1449e5d7f" target="_top" xlink:title=" ">
<polygon fill="white" stroke="#666666" points="393.38,-39 306.12,-39 306.12,-19 393.38,-19 393.38,-39"/>
<text xml:space="preserve" text-anchor="middle" x="349.75" y="-25.5" font-family="Helvetica,sans-Serif" font-size="10.00">parse_wavetype</text>
</a>
</g>
</g>
<!-- Node1&#45;&gt;Node3 -->
<g id="edge2_Node000001_Node000003" class="edge">
<title>Node1&#45;&gt;Node3</title>
<g id="a_edge2_Node000001_Node000003"><a xlink:title=" ">
<path fill="none" stroke="#63b8ff" d="M428.01,-42.34C417.28,-40.49 405.2,-38.4 393.83,-36.44"/>
<polygon fill="#63b8ff" stroke="#63b8ff" points="427.08,-45.74 437.53,-43.99 428.27,-38.84 427.08,-45.74"/>
</a>
</g>
</g>
<!-- Node4 -->
<g id="Node000004" class="node">
<title>Node4</title>
<g id="a_Node000004"><a xlink:href="equation__processor_8cc.html#a8103716ec53a0b4e13650d1587fabace" target="_top" xlink:title=" ">
<polygon fill="white" stroke="#666666" points="260,-39 162.25,-39 162.25,-19 260,-19 260,-39"/>
<text xml:space="preserve" text-anchor="middle" x="211.12" y="-25.5" font-family="Helvetica,sans-Serif" font-size="10.00">eq_parse_equation</text>
</a>
</g>
</g>
<!-- Node3&#45;&gt;Node4 -->
<g id="edge3_Node000003_Node000004" class="edge">
<title>Node3&#45;&gt;Node4</title>
<g id="a_edge3_Node000003_Node000004"><a xlink:title=" ">
<path fill="none" stroke="#63b8ff" d="M294.69,-29C283.25,-29 271.25,-29 260.06,-29"/>
<polygon fill="#63b8ff" stroke="#63b8ff" points="294.38,-32.5 304.38,-29 294.38,-25.5 294.38,-32.5"/>
</a>
</g>
</g>
<!-- Node5 -->
<g id="Node000005" class="node">
<title>Node5</title>
<g id="a_Node000005"><a xlink:href="equation__processor_8cc.html#a6c84bd97ee3baa8a7d6433b3441ef6a1" target="_top" xlink:title=" ">
<polygon fill="white" stroke="#666666" points="111.62,-58 14.62,-58 14.62,-38 111.62,-38 111.62,-58"/>
<text xml:space="preserve" text-anchor="middle" x="63.12" y="-44.5" font-family="Helvetica,sans-Serif" font-size="10.00">eq_load_equations</text>
</a>
</g>
</g>
<!-- Node4&#45;&gt;Node5 -->
<g id="edge4_Node000004_Node000005" class="edge">
<title>Node4&#45;&gt;Node5</title>
<g id="a_edge4_Node000004_Node000005"><a xlink:title=" ">
<path fill="none" stroke="#63b8ff" d="M150.72,-36.73C137.77,-38.42 124.22,-40.18 111.79,-41.8"/>
<polygon fill="#63b8ff" stroke="#63b8ff" points="150.95,-40.23 160.41,-35.47 150.05,-33.29 150.95,-40.23"/>
</a>
</g>
</g>
<!-- Node6 -->
<g id="Node000006" class="node">
<title>Node6</title>
<g id="a_Node000006"><a xlink:href="equation__processor_8cc.html#a0c185ca473430af355b8e7e73cf3f22a" target="_top" xlink:title=" ">
<polygon fill="white" stroke="#666666" points="126.25,-20 0,-20 0,0 126.25,0 126.25,-20"/>
<text xml:space="preserve" text-anchor="middle" x="63.12" y="-6.5" font-family="Helvetica,sans-Serif" font-size="10.00">eq_set_channel_equation</text>
</a>
</g>
</g>
<!-- Node4&#45;&gt;Node6 -->
<g id="edge5_Node000004_Node000006" class="edge">
<title>Node4&#45;&gt;Node6</title>
<g id="a_edge5_Node000004_Node000006"><a xlink:title=" ">
<path fill="none" stroke="#63b8ff" d="M150.55,-21.25C142.66,-20.22 134.55,-19.16 126.6,-18.13"/>
<polygon fill="#63b8ff" stroke="#63b8ff" points="150.05,-24.71 160.41,-22.53 150.95,-17.77 150.05,-24.71"/>
</a>
</g>
</g>
</g>
</svg>
</svg>

<style type='text/css'>
<![CDATA[
[data-mouse-over-selected='false'] { opacity: 0.7; }
[data-mouse-over-selected='true']  { opacity: 1.0; }
]]>
</style>
<script type="application/ecmascript"><![CDATA[
document.addEventListener('DOMContentLoaded', (event) => {
  highlightEdges();
  highlightAdjacentNodes();
});
]]></script>
</svg>
