<?xml version="1.0" encoding="UTF-8" standalone="no"?>
<!DOCTYPE svg PUBLIC "-//W3C//DTD SVG 1.1//EN"
 "http://www.w3.org/Graphics/SVG/1.1/DTD/svg11.dtd">
<!-- Generated by graphviz version 14.1.2 (20260124.0452)
 -->
<!-- Title: eq_parse_equation Pages: 1 -->
<svg width="310pt" height="180pt"
 viewBox="0.00 0.00 310.00 180.00" xmlns="http://www.w3.org/2000/svg" xmlns:xlink="http://www.w3.org/1999/xlink">
<g id="graph0" class="graph" transform="scale(1 1) rotate(0) translate(4 176)">
<title>eq_parse_equation</title>
<!-- Node1 -->
<g id="Node000001" class="node">
<title>Node1</title>
<g id="a_Node000001"><a xlink:title=" ">
<polygon fill="#999999" stroke="#666666" points="97.75,-96 0,-96 0,-76 97.75,-76 97.75,-96"/>
<text xml:space="preserve" text-anchor="middle" x="48.88" y="-82.5" font-family="Helvetica,sans-Serif" font-size="10.00">eq_parse_equation</text>
</a>
</g>
</g>
<!-- Node2 -->
<g id="Node000002" class="node">
<title>Node2</title>
<g id="a_Node000002"><a xlink:href="equation__processor_8cc.html#ab11083e2183c7caba557d0f7a0ad56dc" target="_top" xlink:title=" ">
<polygon fill="white" stroke="#666666" points="221.38,-172 134.12,-172 134.12,-152 221.38,-152 221.38,-172"/>
<text xml:space="preserve" text-anchor="middle" x="177.75" y="-158.5" font-family="Helvetica,sans-Serif" font-size="10.00">parse_amplitude</text>
</a>
</g>
</g>
<!-- Node1&#45;&gt;Node2 -->
<g id="edge1_Node000001_Node000002" class="edge">
<title>Node1&#45;&gt;Node2</title>
<g id="a_edge1_Node000001_Node000002"><a xlink:title=" ">
<path fill="none" stroke="#63b8ff" d="M66.13,-96.39C82.93,-107.05 109.98,-124.01 133.75,-138 138.27,-140.66 143.08,-143.42 147.8,-146.08"/>
<polygon fill="#63b8ff" stroke="#63b8ff" points="146.05,-149.11 156.48,-150.93 149.46,-143 146.05,-149.11"/>
</a>
</g>
</g>
<!-- Node3 -->
<g id="Node000003" class="node">
<title>Node3</title>
<g id="a_Node000003"><a xlink:href="equation__processor_8cc.html#ac1326429ee84fb3c0408537b03c067e9" target="_top" xlink:title=" ">
<polygon fill="white" stroke="#666666" points="296.25,-153 263.75,-153 263.75,-133 296.25,-133 296.25,-153"/>
<text xml:space="preserve" text-anchor="middle" x="280" y="-139.5" font-family="Helvetica,sans-Serif" font-size="10.00">trim</text>
</a>
</g>
</g>
<!-- Node1&#45;&gt;Node3 -->
<g id="edge7_Node000001_Node000003" class="edge">
<title>Node1&#45;&gt;Node3</title>
<g id="a_edge7_Node000001_Node000003"><a xlink:title=" ">
<path fill="none" stroke="#63b8ff" d="M91.9,-96.45C138.73,-108.11 213.04,-126.59 252.44,-136.39"/>
<polygon fill="#63b8ff" stroke="#63b8ff" points="251.46,-139.76 262.01,-138.77 253.15,-132.96 251.46,-139.76"/>
</a>
</g>
</g>
<!-- Node4 -->
<g id="Node000004" class="node">
<title>Node4</title>
<g id="a_Node000004"><a xlink:href="equation__processor_8cc.html#a88db7263b4473e36aba6a711bfee46b4" target="_top" xlink:title=" ">
<polygon fill="white" stroke="#666666" points="221.75,-96 133.75,-96 133.75,-76 221.75,-76 221.75,-96"/>
<text xml:space="preserve" text-anchor="middle" x="177.75" y="-82.5" font-family="Helvetica,sans-Serif" font-size="10.00">parse_frequency</text>
</a>
</g>
</g>
<!-- Node1&#45;&gt;Node4 -->
<g id="edge3_Node000001_Node000004" class="edge">
<title>Node1&#45;&gt;Node4</title>
<g id="a_edge3_Node000001_Node000004"><a xlink:title=" ">
<path fill="none" stroke="#63b8ff" d="M98.2,-86C106.01,-86 114.15,-86 122.1,-86"/>
<polygon fill="#63b8ff" stroke="#63b8ff" points="122.03,-89.5 132.03,-86 122.03,-82.5 122.03,-89.5"/>
</a>
</g>
</g>
<!-- Node5 -->
<g id="Node000005" class="node">
<title>Node5</title>
<g id="a_Node000005"><a xlink:href="equation__processor_8cc.html#a7c902fb3d0dd9ddec694b0ed1f5ae4ed" target="_top" xlink:title=" ">
<polygon fill="white" stroke="#666666" points="213.5,-58 142,-58 142,-38 213.5,-38 213.5,-58"/>
<text xml:space="preserve" text-anchor="middle" x="177.75" y="-44.5" font-family="Helvetica,sans-Serif" font-size="10.00">parse_phase</text>
</a>
</g>
</g>
<!-- Node1&#45;&gt;Node5 -->
<g id="edge4_Node000001_Node000005" class="edge">
<title>Node1&#45;&gt;Node5</title>
<g id="a_edge4_Node000001_Node000005"><a xlink:title=" ">
<path fill="none" stroke="#63b8ff" d="M84.88,-75.52C99.16,-71.24 115.87,-66.23 131.09,-61.67"/>
<polygon fill="#63b8ff" stroke="#63b8ff" points="131.83,-65.11 140.41,-58.88 129.83,-58.4 131.83,-65.11"/>
</a>
</g>
</g>
<!-- Node6 -->
<g id="Node000006" class="node">
<title>Node6</title>
<g id="a_Node000006"><a xlink:href="equation__processor_8cc.html#a1812b6f4961abf271c0dfba1449e5d7f" target="_top" xlink:title=" ">
<polygon fill="white" stroke="#666666" points="221.38,-20 134.12,-20 134.12,0 221.38,0 221.38,-20"/>
<text xml:space="preserve" text-anchor="middle" x="177.75" y="-6.5" font-family="Helvetica,sans-Serif" font-size="10.00">parse_wavetype</text>
</a>
</g>
</g>
<!-- Node1&#45;&gt;Node6 -->
<g id="edge5_Node000001_Node000006" class="edge">
<title>Node1&#45;&gt;Node6</title>
<g id="a_edge5_Node000001_Node000006"><a xlink:title=" ">
<path fill="none" stroke="#63b8ff" d="M63.63,-75.51C79.85,-63.41 107.89,-43.35 133.75,-29 136.1,-27.7 138.55,-26.42 141.05,-25.17"/>
<polygon fill="#63b8ff" stroke="#63b8ff" points="142.45,-28.38 150,-20.95 139.46,-22.05 142.45,-28.38"/>
</a>
</g>
</g>
<!-- Node2&#45;&gt;Node3 -->
<g id="edge2_Node000002_Node000003" class="edge">
<title>Node2&#45;&gt;Node3</title>
<g id="a_edge2_Node000002_Node000003"><a xlink:title=" ">
<path fill="none" stroke="#63b8ff" d="M221.85,-153.83C232.29,-151.85 243.16,-149.79 252.57,-148.01"/>
<polygon fill="#63b8ff" stroke="#63b8ff" points="252.92,-151.5 262.1,-146.2 251.62,-144.63 252.92,-151.5"/>
</a>
</g>
</g>
<!-- Node7 -->
<g id="Node000007" class="node">
<title>Node7</title>
<g id="a_Node000007"><a xlink:href="equation__processor_8cc.html#a431d9c2aa50d604907558f307a28f5ad" target="_top" xlink:title=" ">
<polygon fill="white" stroke="#666666" points="302.25,-20 257.75,-20 257.75,0 302.25,0 302.25,-20"/>
<text xml:space="preserve" text-anchor="middle" x="280" y="-6.5" font-family="Helvetica,sans-Serif" font-size="10.00">find_ci</text>
</a>
</g>
</g>
<!-- Node6&#45;&gt;Node7 -->
<g id="edge6_Node000006_Node000007" class="edge">
<title>Node6&#45;&gt;Node7</title>
<g id="a_edge6_Node000006_Node000007"><a xlink:title=" ">
<path fill="none" stroke="#63b8ff" d="M221.85,-10C229.93,-10 238.25,-10 245.97,-10"/>
<polygon fill="#63b8ff" stroke="#63b8ff" points="245.95,-13.5 255.95,-10 245.95,-6.5 245.95,-13.5"/>
</a>
</g>
</g>
</g>
</svg>
