<?xml version="1.0" encoding="UTF-8" standalone="no"?>
<!DOCTYPE svg PUBLIC "-//W3C//DTD SVG 1.1//EN"
 "http://www.w3.org/Graphics/SVG/1.1/DTD/svg11.dtd">
<!-- Generated by graphviz version 14.1.2 (20260124.0452)
 -->
<!-- Title: eq_generate_9_2le_samples Pages: 1 -->
<svg width="290pt" height="66pt"
 viewBox="0.00 0.00 290.00 66.00" xmlns="http://www.w3.org/2000/svg" xmlns:xlink="http://www.w3.org/1999/xlink">
<g id="graph0" class="graph" transform="scale(1 1) rotate(0) translate(4 62)">
<title>eq_generate_9_2le_samples</title>
<!-- Node1 -->
<g id="Node000001" class="node">
<title>Node1</title>
<g id="a_Node000001"><a xlink:title=" ">
<polygon fill="#999999" stroke="#666666" points="139.75,-39 0,-39 0,-19 139.75,-19 139.75,-39"/>
<text xml:space="preserve" text-anchor="middle" x="69.88" y="-25.5" font-family="Helvetica,sans-Serif" font-size="10.00">eq_generate_9_2le_samples</text>
</a>
</g>
</g>
<!-- Node2 -->
<g id="Node000002" class="node">
<title>Node2</title>
<g id="a_Node000002"><a xlink:href="equation__processor_8cc.html#a1addff49ce4c3bb05ee99b5e21bbad6f" target="_top" xlink:title=" ">
<polygon fill="white" stroke="#666666" points="281.75,-58 175.75,-58 175.75,-38 281.75,-38 281.75,-58"/>
<text xml:space="preserve" text-anchor="middle" x="228.75" y="-44.5" font-family="Helvetica,sans-Serif" font-size="10.00">eq_generate_sample</text>
</a>
</g>
</g>
<!-- Node1&#45;&gt;Node2 -->
<g id="edge1_Node000001_Node000002" class="edge">
<title>Node1&#45;&gt;Node2</title>
<g id="a_edge1_Node000001_Node000002"><a xlink:title=" ">
<path fill="none" stroke="#63b8ff" d="M140.14,-37.39C148.08,-38.35 156.15,-39.33 164.01,-40.28"/>
<polygon fill="#63b8ff" stroke="#63b8ff" points="163.5,-43.74 173.85,-41.47 164.34,-36.79 163.5,-43.74"/>
</a>
</g>
</g>
<!-- Node3 -->
<g id="Node000003" class="node">
<title>Node3</title>
<g id="a_Node000003"><a xlink:href="equation__processor_8cc.html#a6d9bcf560d60c580e2c153b1f32b879a" target="_top" xlink:title=" ">
<polygon fill="white" stroke="#666666" points="270.88,-20 186.62,-20 186.62,0 270.88,0 270.88,-20"/>
<text xml:space="preserve" text-anchor="middle" x="228.75" y="-6.5" font-family="Helvetica,sans-Serif" font-size="10.00">eq_get_channel</text>
</a>
</g>
</g>
<!-- Node1&#45;&gt;Node3 -->
<g id="edge2_Node000001_Node000003" class="edge">
<title>Node1&#45;&gt;Node3</title>
<g id="a_edge2_Node000001_Node000003"><a xlink:title=" ">
<path fill="none" stroke="#63b8ff" d="M140.14,-20.61C151.84,-19.19 163.81,-17.74 175,-16.39"/>
<polygon fill="#63b8ff" stroke="#63b8ff" points="175.32,-19.88 184.83,-15.2 174.48,-12.93 175.32,-19.88"/>
</a>
</g>
</g>
</g>
</svg>
