<?xml version="1.0" encoding="UTF-8" standalone="no"?>
<!DOCTYPE svg PUBLIC "-//W3C//DTD SVG 1.1//EN"
 "http://www.w3.org/Graphics/SVG/1.1/DTD/svg11.dtd">
<!-- Generated by graphviz version 14.1.2 (20260124.0452)
 -->
<!-- Title: eq_set_channel_equation Pages: 1 -->
<svg width="473pt" height="180pt"
 viewBox="0.00 0.00 473.00 180.00" xmlns="http://www.w3.org/2000/svg" xmlns:xlink="http://www.w3.org/1999/xlink">
<g id="graph0" class="graph" transform="scale(1 1) rotate(0) translate(4 176)">
<title>eq_set_channel_equation</title>
<!-- Node1 -->
<g id="Node000001" class="node">
<title>Node1</title>
<g id="a_Node000001"><a xlink:title=" ">
<polygon fill="#999999" stroke="#666666" points="126.25,-96 0,-96 0,-76 126.25,-76 126.25,-96"/>
<text xml:space="preserve" text-anchor="middle" x="63.12" y="-82.5" font-family="Helvetica,sans-Serif" font-size="10.00">eq_set_channel_equation</text>
</a>
</g>
</g>
<!-- Node2 -->
<g id="Node000002" class="node">
<title>Node2</title>
<g id="a_Node000002"><a xlink:href="equation__processor_8cc.html#a8103716ec53a0b4e13650d1587fabace" target="_top" xlink:title=" ">
<polygon fill="white" stroke="#666666" points="260,-96 162.25,-96 162.25,-76 260,-76 260,-96"/>
<text xml:space="preserve" text-anchor="middle" x="211.12" y="-82.5" font-family="Helvetica,sans-Serif" font-size="10.00">eq_parse_equation</text>
</a>
</g>
</g>
<!-- Node1&#45;&gt;Node2 -->
<g id="edge1_Node000001_Node000002" class="edge">
<title>Node1&#45;&gt;Node2</title>
<g id="a_edge1_Node000001_Node000002"><a xlink:title=" ">
<path fill="none" stroke="#63b8ff" d="M126.47,-86C134.48,-86 142.68,-86 150.65,-86"/>
<polygon fill="#63b8ff" stroke="#63b8ff" points="150.61,-89.5 160.61,-86 150.61,-82.5 150.61,-89.5"/>
</a>
</g>
</g>
<!-- Node3 -->
<g id="Node000003" class="node">
<title>Node3</title>
<g id="a_Node000003"><a xlink:href="equation__processor_8cc.html#ab11083e2183c7caba557d0f7a0ad56dc" target="_top" xlink:title=" ">
<polygon fill="white" stroke="#666666" points="383.62,-172 296.38,-172 296.38,-152 383.62,-152 383.62,-172"/>
<text xml:space="preserve" text-anchor="middle" x="340" y="-158.5" font-family="Helvetica,sans-Serif" font-size="10.00">parse_amplitude</text>
</a>
</g>
</g>
<!-- Node2&#45;&gt;Node3 -->
<g id="edge2_Node000002_Node000003" class="edge">
<title>Node2&#45;&gt;Node3</title>
<g id="a_edge2_Node000002_Node000003"><a xlink:title=" ">
<path fill="none" stroke="#63b8ff" d="M228.38,-96.39C245.18,-107.05 272.23,-124.01 296,-138 300.52,-140.66 305.33,-143.42 310.05,-146.08"/>
<polygon fill="#63b8ff" stroke="#63b8ff" points="308.3,-149.11 318.73,-150.93 311.71,-143 308.3,-149.11"/>
</a>
</g>
</g>
<!-- Node4 -->
<g id="Node000004" class="node">
<title>Node4</title>
<g id="a_Node000004"><a xlink:href="equation__processor_8cc.html#ac1326429ee84fb3c0408537b03c067e9" target="_top" xlink:title=" ">
<polygon fill="white" stroke="#666666" points="458.5,-153 426,-153 426,-133 458.5,-133 458.5,-153"/>
<text xml:space="preserve" text-anchor="middle" x="442.25" y="-139.5" font-family="Helvetica,sans-Serif" font-size="10.00">trim</text>
</a>
</g>
</g>
<!-- Node2&#45;&gt;Node4 -->
<g id="edge8_Node000002_Node000004" class="edge">
<title>Node2&#45;&gt;Node4</title>
<g id="a_edge8_Node000002_Node000004"><a xlink:title=" ">
<path fill="none" stroke="#63b8ff" d="M254.15,-96.45C300.98,-108.11 375.29,-126.59 414.69,-136.39"/>
<polygon fill="#63b8ff" stroke="#63b8ff" points="413.71,-139.76 424.26,-138.77 415.4,-132.96 413.71,-139.76"/>
</a>
</g>
</g>
<!-- Node5 -->
<g id="Node000005" class="node">
<title>Node5</title>
<g id="a_Node000005"><a xlink:href="equation__processor_8cc.html#a88db7263b4473e36aba6a711bfee46b4" target="_top" xlink:title=" ">
<polygon fill="white" stroke="#666666" points="384,-96 296,-96 296,-76 384,-76 384,-96"/>
<text xml:space="preserve" text-anchor="middle" x="340" y="-82.5" font-family="Helvetica,sans-Serif" font-size="10.00">parse_frequency</text>
</a>
</g>
</g>
<!-- Node2&#45;&gt;Node5 -->
<g id="edge4_Node000002_Node000005" class="edge">
<title>Node2&#45;&gt;Node5</title>
<g id="a_edge4_Node000002_Node000005"><a xlink:title=" ">
<path fill="none" stroke="#63b8ff" d="M260.45,-86C268.26,-86 276.4,-86 284.35,-86"/>
<polygon fill="#63b8ff" stroke="#63b8ff" points="284.28,-89.5 294.28,-86 284.28,-82.5 284.28,-89.5"/>
</a>
</g>
</g>
<!-- Node6 -->
<g id="Node000006" class="node">
<title>Node6</title>
<g id="a_Node000006"><a xlink:href="equation__processor_8cc.html#a7c902fb3d0dd9ddec694b0ed1f5ae4ed" target="_top" xlink:title=" ">
<polygon fill="white" stroke="#666666" points="375.75,-58 304.25,-58 304.25,-38 375.75,-38 375.75,-58"/>
<text xml:space="preserve" text-anchor="middle" x="340" y="-44.5" font-family="Helvetica,sans-Serif" font-size="10.00">parse_phase</text>
</a>
</g>
</g>
<!-- Node2&#45;&gt;Node6 -->
<g id="edge5_Node000002_Node000006" class="edge">
<title>Node2&#45;&gt;Node6</title>
<g id="a_edge5_Node000002_Node000006"><a xlink:title=" ">
<path fill="none" stroke="#63b8ff" d="M247.13,-75.52C261.41,-71.24 278.12,-66.23 293.34,-61.67"/>
<polygon fill="#63b8ff" stroke="#63b8ff" points="294.08,-65.11 302.66,-58.88 292.08,-58.4 294.08,-65.11"/>
</a>
</g>
</g>
<!-- Node7 -->
<g id="Node000007" class="node">
<title>Node7</title>
<g id="a_Node000007"><a xlink:href="equation__processor_8cc.html#a1812b6f4961abf271c0dfba1449e5d7f" target="_top" xlink:title=" ">
<polygon fill="white" stroke="#666666" points="383.62,-20 296.38,-20 296.38,0 383.62,0 383.62,-20"/>
<text xml:space="preserve" text-anchor="middle" x="340" y="-6.5" font-family="Helvetica,sans-Serif" font-size="10.00">parse_wavetype</text>
</a>
</g>
</g>
<!-- Node2&#45;&gt;Node7 -->
<g id="edge6_Node000002_Node000007" class="edge">
<title>Node2&#45;&gt;Node7</title>
<g id="a_edge6_Node000002_Node000007"><a xlink:title=" ">
<path fill="none" stroke="#63b8ff" d="M225.88,-75.51C242.1,-63.41 270.14,-43.35 296,-29 298.35,-27.7 300.8,-26.42 303.3,-25.17"/>
<polygon fill="#63b8ff" stroke="#63b8ff" points="304.7,-28.38 312.25,-20.95 301.71,-22.05 304.7,-28.38"/>
</a>
</g>
</g>
<!-- Node3&#45;&gt;Node4 -->
<g id="edge3_Node000003_Node000004" class="edge">
<title>Node3&#45;&gt;Node4</title>
<g id="a_edge3_Node000003_Node000004"><a xlink:title=" ">
<path fill="none" stroke="#63b8ff" d="M384.1,-153.83C394.54,-151.85 405.41,-149.79 414.82,-148.01"/>
<polygon fill="#63b8ff" stroke="#63b8ff" points="415.17,-151.5 424.35,-146.2 413.87,-144.63 415.17,-151.5"/>
</a>
</g>
</g>
<!-- Node8 -->
<g id="Node000008" class="node">
<title>Node8</title>
<g id="a_Node000008"><a xlink:href="equation__processor_8cc.html#a431d9c2aa50d604907558f307a28f5ad" target="_top" xlink:title=" ">
<polygon fill="white" stroke="#666666" points="464.5,-20 420,-20 420,0 464.5,0 464.5,-20"/>
<text xml:space="preserve" text-anchor="middle" x="442.25" y="-6.5" font-family="Helvetica,sans-Serif" font-size="10.00">find_ci</text>
</a>
</g>
</g>
<!-- Node7&#45;&gt;Node8 -->
<g id="edge7_Node000007_Node000008" class="edge">
<title>Node7&#45;&gt;Node8</title>
<g id="a_edge7_Node000007_Node000008"><a xlink:title=" ">
<path fill="none" stroke="#63b8ff" d="M384.1,-10C392.18,-10 400.5,-10 408.22,-10"/>
<polygon fill="#63b8ff" stroke="#63b8ff" points="408.2,-13.5 418.2,-10 408.2,-6.5 408.2,-13.5"/>
</a>
</g>
</g>
</g>
</svg>
