<?xml version="1.0" encoding="UTF-8" standalone="no"?>
<!DOCTYPE svg PUBLIC "-//W3C//DTD SVG 1.1//EN"
 "http://www.w3.org/Graphics/SVG/1.1/DTD/svg11.dtd">
<!-- Generated by graphviz version 14.1.2 (20260124.0452)
 -->
<!-- Title: parse_amplitude Pages: 1 -->
<svg width="391pt" height="66pt"
 viewBox="0.00 0.00 391.00 66.00" xmlns="http://www.w3.org/2000/svg" xmlns:xlink="http://www.w3.org/1999/xlink">
<g id="graph0" class="graph" transform="scale(1 1) rotate(0) translate(4 62)">
<title>parse_amplitude</title>
<!-- Node1 -->
<g id="Node000001" class="node">
<title>Node1</title>
<g id="a_Node000001"><a xlink:title=" ">
<polygon fill="#999999" stroke="#666666" points="383.25,-39 296,-39 296,-19 383.25,-19 383.25,-39"/>
<text xml:space="preserve" text-anchor="middle" x="339.62" y="-25.5" font-family="Helvetica,sans-Serif" font-size="10.00">parse_amplitude</text>
</a>
</g>
</g>
<!-- Node2 -->
<g id="Node000002" class="node">
<title>Node2</title>
<g id="a_Node000002"><a xlink:href="equation__processor_8cc.html#a8103716ec53a0b4e13650d1587fabace" target="_top" xlink:title=" ">
<polygon fill="white" stroke="#666666" points="260,-39 162.25,-39 162.25,-19 260,-19 260,-39"/>
<text xml:space="preserve" text-anchor="middle" x="211.12" y="-25.5" font-family="Helvetica,sans-Serif" font-size="10.00">eq_parse_equation</text>
</a>
</g>
</g>
<!-- Node1&#45;&gt;Node2 -->
<g id="edge1_Node000001_Node000002" class="edge">
<title>Node1&#45;&gt;Node2</title>
<g id="a_edge1_Node000001_Node000002"><a xlink:title=" ">
<path fill="none" stroke="#63b8ff" d="M284.53,-29C276.42,-29 268.1,-29 260.13,-29"/>
<polygon fill="#63b8ff" stroke="#63b8ff" points="284.28,-32.5 294.28,-29 284.28,-25.5 284.28,-32.5"/>
</a>
</g>
</g>
<!-- Node3 -->
<g id="Node000003" class="node">
<title>Node3</title>
<g id="a_Node000003"><a xlink:href="equation__processor_8cc.html#a6c84bd97ee3baa8a7d6433b3441ef6a1" target="_top" xlink:title=" ">
<polygon fill="white" stroke="#666666" points="111.62,-58 14.62,-58 14.62,-38 111.62,-38 111.62,-58"/>
<text xml:space="preserve" text-anchor="middle" x="63.12" y="-44.5" font-family="Helvetica,sans-Serif" font-size="10.00">eq_load_equations</text>
</a>
</g>
</g>
<!-- Node2&#45;&gt;Node3 -->
<g id="edge2_Node000002_Node000003" class="edge">
<title>Node2&#45;&gt;Node3</title>
<g id="a_edge2_Node000002_Node000003"><a xlink:title=" ">
<path fill="none" stroke="#63b8ff" d="M150.72,-36.73C137.77,-38.42 124.22,-40.18 111.79,-41.8"/>
<polygon fill="#63b8ff" stroke="#63b8ff" points="150.95,-40.23 160.41,-35.47 150.05,-33.29 150.95,-40.23"/>
</a>
</g>
</g>
<!-- Node4 -->
<g id="Node000004" class="node">
<title>Node4</title>
<g id="a_Node000004"><a xlink:href="equation__processor_8cc.html#a0c185ca473430af355b8e7e73cf3f22a" target="_top" xlink:title=" ">
<polygon fill="white" stroke="#666666" points="126.25,-20 0,-20 0,0 126.25,0 126.25,-20"/>
<text xml:space="preserve" text-anchor="middle" x="63.12" y="-6.5" font-family="Helvetica,sans-Serif" font-size="10.00">eq_set_channel_equation</text>
</a>
</g>
</g>
<!-- Node2&#45;&gt;Node4 -->
<g id="edge3_Node000002_Node000004" class="edge">
<title>Node2&#45;&gt;Node4</title>
<g id="a_edge3_Node000002_Node000004"><a xlink:title=" ">
<path fill="none" stroke="#63b8ff" d="M150.55,-21.25C142.66,-20.22 134.55,-19.16 126.6,-18.13"/>
<polygon fill="#63b8ff" stroke="#63b8ff" points="150.05,-24.71 160.41,-22.53 150.95,-17.77 150.05,-24.71"/>
</a>
</g>
</g>
</g>
</svg>
