<?xml version="1.0" encoding="UTF-8" standalone="no"?>
<!DOCTYPE svg PUBLIC "-//W3C//DTD SVG 1.1//EN"
 "http://www.w3.org/Graphics/SVG/1.1/DTD/svg11.dtd">
<!-- Generated by graphviz version 14.1.2 (20260124.0452)
 -->
<!-- Title: ber_encode_visible_string Pages: 1 -->
<svg width="367pt" height="104pt"
 viewBox="0.00 0.00 367.00 104.00" xmlns="http://www.w3.org/2000/svg" xmlns:xlink="http://www.w3.org/1999/xlink">
<g id="graph0" class="graph" transform="scale(1 1) rotate(0) translate(4 100)">
<title>ber_encode_visible_string</title>
<!-- Node1 -->
<g id="Node000001" class="node">
<title>Node1</title>
<g id="a_Node000001"><a xlink:title="Encode a visible (ASCII) string.">
<polygon fill="#999999" stroke="#666666" points="99.25,-64 0,-64 0,-32 99.25,-32 99.25,-64"/>
<text xml:space="preserve" text-anchor="start" x="8" y="-50.5" font-family="Helvetica,sans-Serif" font-size="10.00">ber_encode_visible</text>
<text xml:space="preserve" text-anchor="middle" x="49.62" y="-38.5" font-family="Helvetica,sans-Serif" font-size="10.00">_string</text>
</a>
</g>
</g>
<!-- Node2 -->
<g id="Node000002" class="node">
<title>Node2</title>
<g id="a_Node000002"><a xlink:href="group__ber__functions.html#ga0b5f606e5a3877b66ed1ea77b9cfa521" target="_top" xlink:title="Encode a complete TLV (Tag&#45;Length&#45;Value) structure.">
<polygon fill="white" stroke="#666666" points="217.25,-58 135.25,-58 135.25,-38 217.25,-38 217.25,-58"/>
<text xml:space="preserve" text-anchor="middle" x="176.25" y="-44.5" font-family="Helvetica,sans-Serif" font-size="10.00">ber_encode_tlv</text>
</a>
</g>
</g>
<!-- Node1&#45;&gt;Node2 -->
<g id="edge1_Node000001_Node000002" class="edge">
<title>Node1&#45;&gt;Node2</title>
<g id="a_edge1_Node000001_Node000002"><a xlink:title=" ">
<path fill="none" stroke="#63b8ff" d="M99.52,-48C107.4,-48 115.58,-48 123.53,-48"/>
<polygon fill="#63b8ff" stroke="#63b8ff" points="123.42,-51.5 133.42,-48 123.42,-44.5 123.42,-51.5"/>
</a>
</g>
</g>
<!-- Node3 -->
<g id="Node000003" class="node">
<title>Node3</title>
<g id="a_Node000003"><a xlink:href="group__ber__functions.html#gae8c87366b9131a84e9349a936f2a4603" target="_top" xlink:title="Encode a BER length field.">
<polygon fill="white" stroke="#666666" points="355.12,-96 257.38,-96 257.38,-76 355.12,-76 355.12,-96"/>
<text xml:space="preserve" text-anchor="middle" x="306.25" y="-82.5" font-family="Helvetica,sans-Serif" font-size="10.00">ber_encode_length</text>
</a>
</g>
</g>
<!-- Node2&#45;&gt;Node3 -->
<g id="edge2_Node000002_Node000003" class="edge">
<title>Node2&#45;&gt;Node3</title>
<g id="a_edge2_Node000002_Node000003"><a xlink:title=" ">
<path fill="none" stroke="#63b8ff" d="M212.57,-58.48C226.98,-62.76 243.83,-67.77 259.19,-72.33"/>
<polygon fill="#63b8ff" stroke="#63b8ff" points="258.02,-75.63 268.6,-75.12 260.01,-68.92 258.02,-75.63"/>
</a>
</g>
</g>
<!-- Node4 -->
<g id="Node000004" class="node">
<title>Node4</title>
<g id="a_Node000004"><a xlink:href="group__ber__functions.html#ga598f5cfdc4720cc0b4300b291e509048" target="_top" xlink:title="Encode a single&#45;byte ASN.1 tag.">
<polygon fill="white" stroke="#666666" points="348.75,-58 263.75,-58 263.75,-38 348.75,-38 348.75,-58"/>
<text xml:space="preserve" text-anchor="middle" x="306.25" y="-44.5" font-family="Helvetica,sans-Serif" font-size="10.00">ber_encode_tag</text>
</a>
</g>
</g>
<!-- Node2&#45;&gt;Node4 -->
<g id="edge3_Node000002_Node000004" class="edge">
<title>Node2&#45;&gt;Node4</title>
<g id="a_edge3_Node000002_Node000004"><a xlink:title=" ">
<path fill="none" stroke="#63b8ff" d="M217.75,-48C228.74,-48 240.8,-48 252.36,-48"/>
<polygon fill="#63b8ff" stroke="#63b8ff" points="252.18,-51.5 262.18,-48 252.18,-44.5 252.18,-51.5"/>
</a>
</g>
</g>
<!-- Node5 -->
<g id="Node000005" class="node">
<title>Node5</title>
<g id="a_Node000005"><a xlink:href="group__ber__functions.html#ga8601aff017ed95b7f021ca988d85382a" target="_top" xlink:title="Calculate bytes needed to encode a BER length field.">
<polygon fill="white" stroke="#666666" points="359.25,-20 253.25,-20 253.25,0 359.25,0 359.25,-20"/>
<text xml:space="preserve" text-anchor="middle" x="306.25" y="-6.5" font-family="Helvetica,sans-Serif" font-size="10.00">ber_length_of_length</text>
</a>
</g>
</g>
<!-- Node2&#45;&gt;Node5 -->
<g id="edge4_Node000002_Node000005" class="edge">
<title>Node2&#45;&gt;Node5</title>
<g id="a_edge4_Node000002_Node000005"><a xlink:title=" ">
<path fill="none" stroke="#63b8ff" d="M212.57,-37.52C226.98,-33.24 243.83,-28.23 259.19,-23.67"/>
<polygon fill="#63b8ff" stroke="#63b8ff" points="260.01,-27.08 268.6,-20.88 258.02,-20.37 260.01,-27.08"/>
</a>
</g>
</g>
</g>
</svg>
