<?xml version="1.0" encoding="UTF-8" standalone="no"?>
<!DOCTYPE svg PUBLIC "-//W3C//DTD SVG 1.1//EN"
 "http://www.w3.org/Graphics/SVG/1.1/DTD/svg11.dtd">
<!-- Generated by graphviz version 14.1.2 (20260124.0452)
 -->
<!-- Title: ber_encode_octet_string Pages: 1 -->
<svg width="391pt" height="104pt"
 viewBox="0.00 0.00 391.00 104.00" xmlns="http://www.w3.org/2000/svg" xmlns:xlink="http://www.w3.org/1999/xlink">

<svg id="main" version="1.1" xmlns="http://www.w3.org/2000/svg" xmlns:xlink="http://www.w3.org/1999/xlink" xml:space="preserve">

<style type="text/css"><![CDATA[
.node, .edge {opacity: 0.7;}
.node.selected, .edge.selected {opacity: 1;}
.edge:hover path { stroke: red; }
.edge:hover polygon { stroke: red; fill: red; }
]]></style>
<script type="application/ecmascript" xlink:href="svg.min.js"/>
<svg id="graph" class="graph">
<g id="graph0" class="graph" transform="scale(1 1) rotate(0) translate(4 100)">
<title>ber_encode_octet_string</title>
<!-- Node1 -->
<g id="Node000001" class="node">
<title>Node1</title>
<g id="a_Node000001"><a xlink:title="Encode an octet (byte) string.">
<polygon fill="#999999" stroke="#666666" points="122.5,-58 0,-58 0,-38 122.5,-38 122.5,-58"/>
<text xml:space="preserve" text-anchor="middle" x="61.25" y="-44.5" font-family="Helvetica,sans-Serif" font-size="10.00">ber_encode_octet_string</text>
</a>
</g>
</g>
<!-- Node2 -->
<g id="Node000002" class="node">
<title>Node2</title>
<g id="a_Node000002"><a xlink:href="group__ber__functions.html#ga0b5f606e5a3877b66ed1ea77b9cfa521" target="_top" xlink:title="Encode a complete TLV (Tag&#45;Length&#45;Value) structure.">
<polygon fill="white" stroke="#666666" points="240.5,-58 158.5,-58 158.5,-38 240.5,-38 240.5,-58"/>
<text xml:space="preserve" text-anchor="middle" x="199.5" y="-44.5" font-family="Helvetica,sans-Serif" font-size="10.00">ber_encode_tlv</text>
</a>
</g>
</g>
<!-- Node1&#45;&gt;Node2 -->
<g id="edge1_Node000001_Node000002" class="edge">
<title>Node1&#45;&gt;Node2</title>
<g id="a_edge1_Node000001_Node000002"><a xlink:title=" ">
<path fill="none" stroke="#63b8ff" d="M122.8,-48C130.73,-48 138.8,-48 146.57,-48"/>
<polygon fill="#63b8ff" stroke="#63b8ff" points="146.56,-51.5 156.56,-48 146.56,-44.5 146.56,-51.5"/>
</a>
</g>
</g>
<!-- Node3 -->
<g id="Node000003" class="node">
<title>Node3</title>
<g id="a_Node000003"><a xlink:href="group__ber__functions.html#gae8c87366b9131a84e9349a936f2a4603" target="_top" xlink:title="Encode a BER length field.">
<polygon fill="white" stroke="#666666" points="378.38,-96 280.62,-96 280.62,-76 378.38,-76 378.38,-96"/>
<text xml:space="preserve" text-anchor="middle" x="329.5" y="-82.5" font-family="Helvetica,sans-Serif" font-size="10.00">ber_encode_length</text>
</a>
</g>
</g>
<!-- Node2&#45;&gt;Node3 -->
<g id="edge2_Node000002_Node000003" class="edge">
<title>Node2&#45;&gt;Node3</title>
<g id="a_edge2_Node000002_Node000003"><a xlink:title=" ">
<path fill="none" stroke="#63b8ff" d="M235.82,-58.48C250.23,-62.76 267.08,-67.77 282.44,-72.33"/>
<polygon fill="#63b8ff" stroke="#63b8ff" points="281.27,-75.63 291.85,-75.12 283.26,-68.92 281.27,-75.63"/>
</a>
</g>
</g>
<!-- Node4 -->
<g id="Node000004" class="node">
<title>Node4</title>
<g id="a_Node000004"><a xlink:href="group__ber__functions.html#ga598f5cfdc4720cc0b4300b291e509048" target="_top" xlink:title="Encode a single&#45;byte ASN.1 tag.">
<polygon fill="white" stroke="#666666" points="372,-58 287,-58 287,-38 372,-38 372,-58"/>
<text xml:space="preserve" text-anchor="middle" x="329.5" y="-44.5" font-family="Helvetica,sans-Serif" font-size="10.00">ber_encode_tag</text>
</a>
</g>
</g>
<!-- Node2&#45;&gt;Node4 -->
<g id="edge3_Node000002_Node000004" class="edge">
<title>Node2&#45;&gt;Node4</title>
<g id="a_edge3_Node000002_Node000004"><a xlink:title=" ">
<path fill="none" stroke="#63b8ff" d="M241,-48C251.99,-48 264.05,-48 275.61,-48"/>
<polygon fill="#63b8ff" stroke="#63b8ff" points="275.43,-51.5 285.43,-48 275.43,-44.5 275.43,-51.5"/>
</a>
</g>
</g>
<!-- Node5 -->
<g id="Node000005" class="node">
<title>Node5</title>
<g id="a_Node000005"><a xlink:href="group__ber__functions.html#ga8601aff017ed95b7f021ca988d85382a" target="_top" xlink:title="Calculate bytes needed to encode a BER length field.">
<polygon fill="white" stroke="#666666" points="382.5,-20 276.5,-20 276.5,0 382.5,0 382.5,-20"/>
<text xml:space="preserve" text-anchor="middle" x="329.5" y="-6.5" font-family="Helvetica,sans-Serif" font-size="10.00">ber_length_of_length</text>
</a>
</g>
</g>
<!-- Node2&#45;&gt;Node5 -->
<g id="edge4_Node000002_Node000005" class="edge">
<title>Node2&#45;&gt;Node5</title>
<g id="a_edge4_Node000002_Node000005"><a xlink:title=" ">
<path fill="none" stroke="#63b8ff" d="M235.82,-37.52C250.23,-33.24 267.08,-28.23 282.44,-23.67"/>
<polygon fill="#63b8ff" stroke="#63b8ff" points="283.26,-27.08 291.85,-20.88 281.27,-20.37 283.26,-27.08"/>
</a>
</g>
</g>
</g>
</svg>
</svg>

<style type='text/css'>
<![CDATA[
[data-mouse-over-selected='false'] { opacity: 0.7; }
[data-mouse-over-selected='true']  { opacity: 1.0; }
]]>
</style>
<script type="application/ecmascript"><![CDATA[
document.addEventListener('DOMContentLoaded', (event) => {
  highlightEdges();
  highlightAdjacentNodes();
});
]]></script>
</svg>
