<?xml version="1.0" encoding="UTF-8" standalone="no"?>
<!DOCTYPE svg PUBLIC "-//W3C//DTD SVG 1.1//EN"
 "http://www.w3.org/Graphics/SVG/1.1/DTD/svg11.dtd">
<!-- Generated by graphviz version 14.1.2 (20260124.0452)
 -->
<!-- Title: ber_encode_signed Pages: 1 -->
<!--zoomable 104 -->

<svg id="main" version="1.1" xmlns="http://www.w3.org/2000/svg" xmlns:xlink="http://www.w3.org/1999/xlink" xml:space="preserve" onload="init(evt)">

<style type="text/css"><![CDATA[
.node, .edge {opacity: 0.7;}
.node.selected, .edge.selected {opacity: 1;}
.edge:hover path { stroke: red; }
.edge:hover polygon { stroke: red; fill: red; }
]]></style>

<defs>
  <circle id="rim" cx="0" cy="0" r="7"/>
  <circle id="rim2" cx="0" cy="0" r="3.5"/>
  <g id="zoomPlus">
    <use xlink:href="#rim" fill="#404040"><set attributeName="fill" to="#808080" begin="zoomplus.mouseover" end="zoomplus.mouseout"/></use>
    <path d="M-4,0h8M0,-4v8" fill="none" stroke="white" stroke-width="1.5" pointer-events="none"/>
  </g>
  <g id="zoomMin">
    <use xlink:href="#rim" fill="#404040"><set attributeName="fill" to="#808080" begin="zoomminus.mouseover" end="zoomminus.mouseout"/></use>
    <path d="M-4,0h8" fill="none" stroke="white" stroke-width="1.5" pointer-events="none"/>
  </g>
  <g id="arrowUp" transform="translate(30 24)">
    <use xlink:href="#rim"/>
    <path pointer-events="none" fill="none" stroke="white" stroke-width="1.5" d="M0,-3.0v7 M-2.5,-0.5L0,-3.0L2.5,-0.5"/>
  </g>
  <g id="arrowRight" transform="rotate(90) translate(36 -43)">
    <use xlink:href="#rim"/>
    <path pointer-events="none" fill="none" stroke="white" stroke-width="1.5" d="M0,-3.0v7 M-2.5,-0.5L0,-3.0L2.5,-0.5"/>
  </g>
  <g id="arrowDown" transform="rotate(180) translate(-30 -48)">
    <use xlink:href="#rim"/>
    <path pointer-events="none" fill="none" stroke="white" stroke-width="1.5" d="M0,-3.0v7 M-2.5,-0.5L0,-3.0L2.5,-0.5"/>
  </g>
  <g id="arrowLeft" transform="rotate(270) translate(-36 17)">
    <use xlink:href="#rim"/>
    <path pointer-events="none" fill="none" stroke="white" stroke-width="1.5" d="M0,-3.0v7 M-2.5,-0.5L0,-3.0L2.5,-0.5"/>
  </g>
  <g id="resetDef">
    <use xlink:href="#rim2" fill="#404040"><set attributeName="fill" to="#808080" begin="reset.mouseover" end="reset.mouseout"/></use>
  </g>
</defs>
<script type="application/ecmascript">
var viewWidth = 515;
var viewHeight = 104;
var sectionId = 'dynsection-3';
</script>
<script type="application/ecmascript" xlink:href="svg.min.js"/>
<svg id="graph" class="graph">
<g id="viewport">
<title>ber_encode_signed</title>
<!-- Node1 -->
<g id="Node000001" class="node">
<title>Node1</title>
<g id="a_Node000001"><a xlink:title="Encode a signed integer.">
<polygon fill="#999999" stroke="#666666" points="100,-58 0,-58 0,-38 100,-38 100,-58"/>
<text xml:space="preserve" text-anchor="middle" x="50" y="-44.5" font-family="Helvetica,sans-Serif" font-size="10.00">ber_encode_signed</text>
</a>
</g>
</g>
<!-- Node2 -->
<g id="Node000002" class="node">
<title>Node2</title>
<g id="a_Node000002"><a xlink:href="group__ber__functions.html#ga0b5f606e5a3877b66ed1ea77b9cfa521" target="_top" xlink:title="Encode a complete TLV (Tag&#45;Length&#45;Value) structure.">
<polygon fill="white" stroke="#666666" points="364.5,-58 282.5,-58 282.5,-38 364.5,-38 364.5,-58"/>
<text xml:space="preserve" text-anchor="middle" x="323.5" y="-44.5" font-family="Helvetica,sans-Serif" font-size="10.00">ber_encode_tlv</text>
</a>
</g>
</g>
<!-- Node1&#45;&gt;Node2 -->
<g id="edge1_Node000001_Node000002" class="edge">
<title>Node1&#45;&gt;Node2</title>
<g id="a_edge1_Node000001_Node000002"><a xlink:title=" ">
<path fill="none" stroke="#63b8ff" d="M100.48,-48C148.77,-48 221.91,-48 270.91,-48"/>
<polygon fill="#63b8ff" stroke="#63b8ff" points="270.69,-51.5 280.69,-48 270.69,-44.5 270.69,-51.5"/>
</a>
</g>
</g>
<!-- Node6 -->
<g id="Node000006" class="node">
<title>Node6</title>
<g id="a_Node000006"><a xlink:href="group__ber__functions.html#gaf975471663de004b1adfb9e209ddc137" target="_top" xlink:title="Encode an unsigned integer.">
<polygon fill="white" stroke="#666666" points="246.5,-39 136,-39 136,-19 246.5,-19 246.5,-39"/>
<text xml:space="preserve" text-anchor="middle" x="191.25" y="-25.5" font-family="Helvetica,sans-Serif" font-size="10.00">ber_encode_unsigned</text>
</a>
</g>
</g>
<!-- Node1&#45;&gt;Node6 -->
<g id="edge5_Node000001_Node000006" class="edge">
<title>Node1&#45;&gt;Node6</title>
<g id="a_edge5_Node000001_Node000006"><a xlink:title=" ">
<path fill="none" stroke="#63b8ff" d="M100.49,-41.25C108.24,-40.19 116.37,-39.08 124.42,-37.98"/>
<polygon fill="#63b8ff" stroke="#63b8ff" points="124.78,-41.47 134.22,-36.65 123.84,-34.53 124.78,-41.47"/>
</a>
</g>
</g>
<!-- Node3 -->
<g id="Node000003" class="node">
<title>Node3</title>
<g id="a_Node000003"><a xlink:href="group__ber__functions.html#gae8c87366b9131a84e9349a936f2a4603" target="_top" xlink:title="Encode a BER length field.">
<polygon fill="white" stroke="#666666" points="502.38,-96 404.62,-96 404.62,-76 502.38,-76 502.38,-96"/>
<text xml:space="preserve" text-anchor="middle" x="453.5" y="-82.5" font-family="Helvetica,sans-Serif" font-size="10.00">ber_encode_length</text>
</a>
</g>
</g>
<!-- Node2&#45;&gt;Node3 -->
<g id="edge2_Node000002_Node000003" class="edge">
<title>Node2&#45;&gt;Node3</title>
<g id="a_edge2_Node000002_Node000003"><a xlink:title=" ">
<path fill="none" stroke="#63b8ff" d="M359.82,-58.48C374.23,-62.76 391.08,-67.77 406.44,-72.33"/>
<polygon fill="#63b8ff" stroke="#63b8ff" points="405.27,-75.63 415.85,-75.12 407.26,-68.92 405.27,-75.63"/>
</a>
</g>
</g>
<!-- Node4 -->
<g id="Node000004" class="node">
<title>Node4</title>
<g id="a_Node000004"><a xlink:href="group__ber__functions.html#ga598f5cfdc4720cc0b4300b291e509048" target="_top" xlink:title="Encode a single&#45;byte ASN.1 tag.">
<polygon fill="white" stroke="#666666" points="496,-58 411,-58 411,-38 496,-38 496,-58"/>
<text xml:space="preserve" text-anchor="middle" x="453.5" y="-44.5" font-family="Helvetica,sans-Serif" font-size="10.00">ber_encode_tag</text>
</a>
</g>
</g>
<!-- Node2&#45;&gt;Node4 -->
<g id="edge3_Node000002_Node000004" class="edge">
<title>Node2&#45;&gt;Node4</title>
<g id="a_edge3_Node000002_Node000004"><a xlink:title=" ">
<path fill="none" stroke="#63b8ff" d="M365,-48C375.99,-48 388.05,-48 399.61,-48"/>
<polygon fill="#63b8ff" stroke="#63b8ff" points="399.43,-51.5 409.43,-48 399.43,-44.5 399.43,-51.5"/>
</a>
</g>
</g>
<!-- Node5 -->
<g id="Node000005" class="node">
<title>Node5</title>
<g id="a_Node000005"><a xlink:href="group__ber__functions.html#ga8601aff017ed95b7f021ca988d85382a" target="_top" xlink:title="Calculate bytes needed to encode a BER length field.">
<polygon fill="white" stroke="#666666" points="506.5,-20 400.5,-20 400.5,0 506.5,0 506.5,-20"/>
<text xml:space="preserve" text-anchor="middle" x="453.5" y="-6.5" font-family="Helvetica,sans-Serif" font-size="10.00">ber_length_of_length</text>
</a>
</g>
</g>
<!-- Node2&#45;&gt;Node5 -->
<g id="edge4_Node000002_Node000005" class="edge">
<title>Node2&#45;&gt;Node5</title>
<g id="a_edge4_Node000002_Node000005"><a xlink:title=" ">
<path fill="none" stroke="#63b8ff" d="M359.82,-37.52C374.23,-33.24 391.08,-28.23 406.44,-23.67"/>
<polygon fill="#63b8ff" stroke="#63b8ff" points="407.26,-27.08 415.85,-20.88 405.27,-20.37 407.26,-27.08"/>
</a>
</g>
</g>
<!-- Node6&#45;&gt;Node2 -->
<g id="edge6_Node000006_Node000002" class="edge">
<title>Node6&#45;&gt;Node2</title>
<g id="a_edge6_Node000006_Node000002"><a xlink:title=" ">
<path fill="none" stroke="#63b8ff" d="M246.73,-36.95C254.7,-38.11 262.88,-39.3 270.78,-40.46"/>
<polygon fill="#63b8ff" stroke="#63b8ff" points="270.21,-43.91 280.61,-41.89 271.22,-36.98 270.21,-43.91"/>
</a>
</g>
</g>
</g>
</svg>

<g id="navigator" transform="translate(0 0)" fill="#404254">
  <rect fill="#f2f5e9" fill-opacity="0.5" stroke="#606060" stroke-width=".5" x="0" y="0" width="60" height="60"/>
  <use id="zoomplus" xlink:href="#zoomPlus" x="17" y="9" onmousedown="handleZoom(evt,'in')"/>
  <use id="zoomminus" xlink:href="#zoomMin" x="42" y="9" onmousedown="handleZoom(evt,'out')"/>
  <use id="reset" xlink:href="#resetDef" x="30" y="36" onmousedown="handleReset()"/>
   <use id="arrowup" xlink:href="#arrowUp" x="0" y="0" onmousedown="handlePan(0,-1)"/>
  <use id="arrowright" xlink:href="#arrowRight" x="0" y="0" onmousedown="handlePan(1,0)"/>
  <use id="arrowdown" xlink:href="#arrowDown" x="0" y="0" onmousedown="handlePan(0,1)"/>
  <use id="arrowleft" xlink:href="#arrowLeft" x="0" y="0" onmousedown="handlePan(-1,0)"/>
</g>
<svg viewBox="0 0 15 15" width="100%" height="30px" preserveAspectRatio="xMaxYMin meet">
 <g id="arrow_out" transform="scale(0.3 0.3)">
  <a xlink:href="group__ber__functions_ga7cdf29a8107215d38dc986e0f952020b_cgraph_org.svg" target="_base">
   <rect id="button" ry="5" rx="5" y="6" x="6" height="38" width="38"
        fill="#f2f5e9" fill-opacity="0.5" stroke="#606060" stroke-width="1.0"/>
   <path id="arrow"
     d="M 11.500037,31.436501 C 11.940474,20.09759 22.043105,11.32322 32.158766,21.979434 L 37.068811,17.246167 C 37.068811,17.246167 37.088388,32 37.088388,32 L 22.160133,31.978069 C 22.160133,31.978069 26.997745,27.140456 26.997745,27.140456 C 18.528582,18.264221 13.291696,25.230495 11.500037,31.436501 z"
     style="fill:#404040;"/>
  </a>
 </g>
</svg>

<style type='text/css'>
<![CDATA[
[data-mouse-over-selected='false'] { opacity: 0.7; }
[data-mouse-over-selected='true']  { opacity: 1.0; }
]]>
</style>
<script type="application/ecmascript"><![CDATA[
document.addEventListener('DOMContentLoaded', (event) => {
  highlightEdges();
  highlightAdjacentNodes();
});
]]></script>
</svg>
