<?xml version="1.0" encoding="UTF-8" standalone="no"?>
<!DOCTYPE svg PUBLIC "-//W3C//DTD SVG 1.1//EN"
 "http://www.w3.org/Graphics/SVG/1.1/DTD/svg11.dtd">
<!-- Generated by graphviz version 14.1.2 (20260124.0452)
 -->
<!-- Title: ber_encode_boolean Pages: 1 -->
<svg width="373pt" height="104pt"
 viewBox="0.00 0.00 373.00 104.00" xmlns="http://www.w3.org/2000/svg" xmlns:xlink="http://www.w3.org/1999/xlink">
<g id="graph0" class="graph" transform="scale(1 1) rotate(0) translate(4 100)">
<title>ber_encode_boolean</title>
<!-- Node1 -->
<g id="Node000001" class="node">
<title>Node1</title>
<g id="a_Node000001"><a xlink:title="Encode a boolean value.">
<polygon fill="#999999" stroke="#666666" points="105.25,-58 0,-58 0,-38 105.25,-38 105.25,-58"/>
<text xml:space="preserve" text-anchor="middle" x="52.62" y="-44.5" font-family="Helvetica,sans-Serif" font-size="10.00">ber_encode_boolean</text>
</a>
</g>
</g>
<!-- Node2 -->
<g id="Node000002" class="node">
<title>Node2</title>
<g id="a_Node000002"><a xlink:href="group__ber__functions.html#ga0b5f606e5a3877b66ed1ea77b9cfa521" target="_top" xlink:title="Encode a complete TLV (Tag&#45;Length&#45;Value) structure.">
<polygon fill="white" stroke="#666666" points="223.25,-58 141.25,-58 141.25,-38 223.25,-38 223.25,-58"/>
<text xml:space="preserve" text-anchor="middle" x="182.25" y="-44.5" font-family="Helvetica,sans-Serif" font-size="10.00">ber_encode_tlv</text>
</a>
</g>
</g>
<!-- Node1&#45;&gt;Node2 -->
<g id="edge1_Node000001_Node000002" class="edge">
<title>Node1&#45;&gt;Node2</title>
<g id="a_edge1_Node000001_Node000002"><a xlink:title=" ">
<path fill="none" stroke="#63b8ff" d="M105.53,-48C113.51,-48 121.74,-48 129.71,-48"/>
<polygon fill="#63b8ff" stroke="#63b8ff" points="129.62,-51.5 139.62,-48 129.62,-44.5 129.62,-51.5"/>
</a>
</g>
</g>
<!-- Node3 -->
<g id="Node000003" class="node">
<title>Node3</title>
<g id="a_Node000003"><a xlink:href="group__ber__functions.html#gae8c87366b9131a84e9349a936f2a4603" target="_top" xlink:title="Encode a BER length field.">
<polygon fill="white" stroke="#666666" points="361.12,-96 263.38,-96 263.38,-76 361.12,-76 361.12,-96"/>
<text xml:space="preserve" text-anchor="middle" x="312.25" y="-82.5" font-family="Helvetica,sans-Serif" font-size="10.00">ber_encode_length</text>
</a>
</g>
</g>
<!-- Node2&#45;&gt;Node3 -->
<g id="edge2_Node000002_Node000003" class="edge">
<title>Node2&#45;&gt;Node3</title>
<g id="a_edge2_Node000002_Node000003"><a xlink:title=" ">
<path fill="none" stroke="#63b8ff" d="M218.57,-58.48C232.98,-62.76 249.83,-67.77 265.19,-72.33"/>
<polygon fill="#63b8ff" stroke="#63b8ff" points="264.02,-75.63 274.6,-75.12 266.01,-68.92 264.02,-75.63"/>
</a>
</g>
</g>
<!-- Node4 -->
<g id="Node000004" class="node">
<title>Node4</title>
<g id="a_Node000004"><a xlink:href="group__ber__functions.html#ga598f5cfdc4720cc0b4300b291e509048" target="_top" xlink:title="Encode a single&#45;byte ASN.1 tag.">
<polygon fill="white" stroke="#666666" points="354.75,-58 269.75,-58 269.75,-38 354.75,-38 354.75,-58"/>
<text xml:space="preserve" text-anchor="middle" x="312.25" y="-44.5" font-family="Helvetica,sans-Serif" font-size="10.00">ber_encode_tag</text>
</a>
</g>
</g>
<!-- Node2&#45;&gt;Node4 -->
<g id="edge3_Node000002_Node000004" class="edge">
<title>Node2&#45;&gt;Node4</title>
<g id="a_edge3_Node000002_Node000004"><a xlink:title=" ">
<path fill="none" stroke="#63b8ff" d="M223.75,-48C234.74,-48 246.8,-48 258.36,-48"/>
<polygon fill="#63b8ff" stroke="#63b8ff" points="258.18,-51.5 268.18,-48 258.18,-44.5 258.18,-51.5"/>
</a>
</g>
</g>
<!-- Node5 -->
<g id="Node000005" class="node">
<title>Node5</title>
<g id="a_Node000005"><a xlink:href="group__ber__functions.html#ga8601aff017ed95b7f021ca988d85382a" target="_top" xlink:title="Calculate bytes needed to encode a BER length field.">
<polygon fill="white" stroke="#666666" points="365.25,-20 259.25,-20 259.25,0 365.25,0 365.25,-20"/>
<text xml:space="preserve" text-anchor="middle" x="312.25" y="-6.5" font-family="Helvetica,sans-Serif" font-size="10.00">ber_length_of_length</text>
</a>
</g>
</g>
<!-- Node2&#45;&gt;Node5 -->
<g id="edge4_Node000002_Node000005" class="edge">
<title>Node2&#45;&gt;Node5</title>
<g id="a_edge4_Node000002_Node000005"><a xlink:title=" ">
<path fill="none" stroke="#63b8ff" d="M218.57,-37.52C232.98,-33.24 249.83,-28.23 265.19,-23.67"/>
<polygon fill="#63b8ff" stroke="#63b8ff" points="266.01,-27.08 274.6,-20.88 264.02,-20.37 266.01,-27.08"/>
</a>
</g>
</g>
</g>
</svg>
