<?xml version="1.0" encoding="UTF-8" standalone="no"?>
<!DOCTYPE svg PUBLIC "-//W3C//DTD SVG 1.1//EN"
 "http://www.w3.org/Graphics/SVG/1.1/DTD/svg11.dtd">
<!-- Generated by graphviz version 14.1.2 (20260124.0452)
 -->
<!-- Title: ber_length_of_length Pages: 1 -->
<!--zoomable 192 -->

<svg id="main" version="1.1" xmlns="http://www.w3.org/2000/svg" xmlns:xlink="http://www.w3.org/1999/xlink" xml:space="preserve" onload="init(evt)">

<style type="text/css"><![CDATA[
.node, .edge {opacity: 0.7;}
.node.selected, .edge.selected {opacity: 1;}
.edge:hover path { stroke: red; }
.edge:hover polygon { stroke: red; fill: red; }
]]></style>

<defs>
  <circle id="rim" cx="0" cy="0" r="7"/>
  <circle id="rim2" cx="0" cy="0" r="3.5"/>
  <g id="zoomPlus">
    <use xlink:href="#rim" fill="#404040"><set attributeName="fill" to="#808080" begin="zoomplus.mouseover" end="zoomplus.mouseout"/></use>
    <path d="M-4,0h8M0,-4v8" fill="none" stroke="white" stroke-width="1.5" pointer-events="none"/>
  </g>
  <g id="zoomMin">
    <use xlink:href="#rim" fill="#404040"><set attributeName="fill" to="#808080" begin="zoomminus.mouseover" end="zoomminus.mouseout"/></use>
    <path d="M-4,0h8" fill="none" stroke="white" stroke-width="1.5" pointer-events="none"/>
  </g>
  <g id="arrowUp" transform="translate(30 24)">
    <use xlink:href="#rim"/>
    <path pointer-events="none" fill="none" stroke="white" stroke-width="1.5" d="M0,-3.0v7 M-2.5,-0.5L0,-3.0L2.5,-0.5"/>
  </g>
  <g id="arrowRight" transform="rotate(90) translate(36 -43)">
    <use xlink:href="#rim"/>
    <path pointer-events="none" fill="none" stroke="white" stroke-width="1.5" d="M0,-3.0v7 M-2.5,-0.5L0,-3.0L2.5,-0.5"/>
  </g>
  <g id="arrowDown" transform="rotate(180) translate(-30 -48)">
    <use xlink:href="#rim"/>
    <path pointer-events="none" fill="none" stroke="white" stroke-width="1.5" d="M0,-3.0v7 M-2.5,-0.5L0,-3.0L2.5,-0.5"/>
  </g>
  <g id="arrowLeft" transform="rotate(270) translate(-36 17)">
    <use xlink:href="#rim"/>
    <path pointer-events="none" fill="none" stroke="white" stroke-width="1.5" d="M0,-3.0v7 M-2.5,-0.5L0,-3.0L2.5,-0.5"/>
  </g>
  <g id="resetDef">
    <use xlink:href="#rim2" fill="#404040"><set attributeName="fill" to="#808080" begin="reset.mouseover" end="reset.mouseout"/></use>
  </g>
</defs>
<script type="application/ecmascript">
var viewWidth = 527;
var viewHeight = 192;
var sectionId = 'dynsection-10';
</script>
<script type="application/ecmascript" xlink:href="svg.min.js"/>
<svg id="graph" class="graph">
<g id="viewport">
<title>ber_length_of_length</title>
<!-- Node1 -->
<g id="Node000001" class="node">
<title>Node1</title>
<g id="a_Node000001"><a xlink:title="Calculate bytes needed to encode a BER length field.">
<polygon fill="#999999" stroke="#666666" points="518.5,-108 412.5,-108 412.5,-88 518.5,-88 518.5,-108"/>
<text xml:space="preserve" text-anchor="middle" x="465.5" y="-94.5" font-family="Helvetica,sans-Serif" font-size="10.00">ber_length_of_length</text>
</a>
</g>
</g>
<!-- Node2 -->
<g id="Node000002" class="node">
<title>Node2</title>
<g id="a_Node000002"><a xlink:href="group__ber__functions.html#ga0b5f606e5a3877b66ed1ea77b9cfa521" target="_top" xlink:title="Encode a complete TLV (Tag&#45;Length&#45;Value) structure.">
<polygon fill="white" stroke="#666666" points="376.5,-108 294.5,-108 294.5,-88 376.5,-88 376.5,-108"/>
<text xml:space="preserve" text-anchor="middle" x="335.5" y="-94.5" font-family="Helvetica,sans-Serif" font-size="10.00">ber_encode_tlv</text>
</a>
</g>
</g>
<!-- Node1&#45;&gt;Node2 -->
<g id="edge1_Node000001_Node000002" class="edge">
<title>Node1&#45;&gt;Node2</title>
<g id="a_edge1_Node000001_Node000002"><a xlink:title=" ">
<path fill="none" stroke="#63b8ff" d="M400.68,-98C392.58,-98 384.48,-98 376.9,-98"/>
<polygon fill="#63b8ff" stroke="#63b8ff" points="400.55,-101.5 410.55,-98 400.55,-94.5 400.55,-101.5"/>
</a>
</g>
</g>
<!-- Node3 -->
<g id="Node000003" class="node">
<title>Node3</title>
<g id="a_Node000003"><a xlink:href="group__ber__functions.html#ga16600f449b4b203bf6a75ee63ddc7c9b" target="_top" xlink:title="Encode a boolean value.">
<polygon fill="white" stroke="#666666" points="249.88,-184 144.62,-184 144.62,-164 249.88,-164 249.88,-184"/>
<text xml:space="preserve" text-anchor="middle" x="197.25" y="-170.5" font-family="Helvetica,sans-Serif" font-size="10.00">ber_encode_boolean</text>
</a>
</g>
</g>
<!-- Node2&#45;&gt;Node3 -->
<g id="edge2_Node000002_Node000003" class="edge">
<title>Node2&#45;&gt;Node3</title>
<g id="a_edge2_Node000002_Node000003"><a xlink:title=" ">
<path fill="none" stroke="#63b8ff" d="M314.82,-115.72C300.17,-128.14 279.2,-144.37 258.5,-155 252.06,-158.31 244.94,-161.17 237.91,-163.6"/>
<polygon fill="#63b8ff" stroke="#63b8ff" points="317.08,-118.39 322.33,-109.19 312.49,-113.11 317.08,-118.39"/>
</a>
</g>
</g>
<!-- Node4 -->
<g id="Node000004" class="node">
<title>Node4</title>
<g id="a_Node000004"><a xlink:href="group__ber__functions.html#gabce394c789388ac6b60503e8cbf89f2d" target="_top" xlink:title="Encode an octet (byte) string.">
<polygon fill="white" stroke="#666666" points="258.5,-146 136,-146 136,-126 258.5,-126 258.5,-146"/>
<text xml:space="preserve" text-anchor="middle" x="197.25" y="-132.5" font-family="Helvetica,sans-Serif" font-size="10.00">ber_encode_octet_string</text>
</a>
</g>
</g>
<!-- Node2&#45;&gt;Node4 -->
<g id="edge3_Node000002_Node000004" class="edge">
<title>Node2&#45;&gt;Node4</title>
<g id="a_edge3_Node000002_Node000004"><a xlink:title=" ">
<path fill="none" stroke="#63b8ff" d="M286.29,-111.45C269.68,-116.08 251.34,-121.19 235.72,-125.55"/>
<polygon fill="#63b8ff" stroke="#63b8ff" points="286.76,-114.95 295.45,-108.89 284.88,-108.21 286.76,-114.95"/>
</a>
</g>
</g>
<!-- Node5 -->
<g id="Node000005" class="node">
<title>Node5</title>
<g id="a_Node000005"><a xlink:href="group__ber__functions.html#ga7cdf29a8107215d38dc986e0f952020b" target="_top" xlink:title="Encode a signed integer.">
<polygon fill="white" stroke="#666666" points="100,-89 0,-89 0,-69 100,-69 100,-89"/>
<text xml:space="preserve" text-anchor="middle" x="50" y="-75.5" font-family="Helvetica,sans-Serif" font-size="10.00">ber_encode_signed</text>
</a>
</g>
</g>
<!-- Node2&#45;&gt;Node5 -->
<g id="edge4_Node000002_Node000005" class="edge">
<title>Node2&#45;&gt;Node5</title>
<g id="a_edge4_Node000002_Node000005"><a xlink:title=" ">
<path fill="none" stroke="#63b8ff" d="M282.89,-94.54C230.92,-91.06 151.33,-85.72 100.23,-82.3"/>
<polygon fill="#63b8ff" stroke="#63b8ff" points="282.46,-98.02 292.67,-95.2 282.93,-91.04 282.46,-98.02"/>
</a>
</g>
</g>
<!-- Node6 -->
<g id="Node000006" class="node">
<title>Node6</title>
<g id="a_Node000006"><a xlink:href="group__ber__functions.html#gaf975471663de004b1adfb9e209ddc137" target="_top" xlink:title="Encode an unsigned integer.">
<polygon fill="white" stroke="#666666" points="252.5,-70 142,-70 142,-50 252.5,-50 252.5,-70"/>
<text xml:space="preserve" text-anchor="middle" x="197.25" y="-56.5" font-family="Helvetica,sans-Serif" font-size="10.00">ber_encode_unsigned</text>
</a>
</g>
</g>
<!-- Node2&#45;&gt;Node6 -->
<g id="edge5_Node000002_Node000006" class="edge">
<title>Node2&#45;&gt;Node6</title>
<g id="a_edge5_Node000002_Node000006"><a xlink:title=" ">
<path fill="none" stroke="#63b8ff" d="M286.29,-84.55C269.68,-79.92 251.34,-74.81 235.72,-70.45"/>
<polygon fill="#63b8ff" stroke="#63b8ff" points="284.88,-87.79 295.45,-87.11 286.76,-81.05 284.88,-87.79"/>
</a>
</g>
</g>
<!-- Node7 -->
<g id="Node000007" class="node">
<title>Node7</title>
<g id="a_Node000007"><a xlink:href="group__ber__functions.html#gaf86013ff89e2ec24ff3f2eaa38fe2da0" target="_top" xlink:title="Encode a visible (ASCII) string.">
<polygon fill="white" stroke="#666666" points="246.88,-32 147.62,-32 147.62,0 246.88,0 246.88,-32"/>
<text xml:space="preserve" text-anchor="start" x="155.62" y="-18.5" font-family="Helvetica,sans-Serif" font-size="10.00">ber_encode_visible</text>
<text xml:space="preserve" text-anchor="middle" x="197.25" y="-6.5" font-family="Helvetica,sans-Serif" font-size="10.00">_string</text>
</a>
</g>
</g>
<!-- Node2&#45;&gt;Node7 -->
<g id="edge7_Node000002_Node000007" class="edge">
<title>Node2&#45;&gt;Node7</title>
<g id="a_edge7_Node000002_Node000007"><a xlink:title=" ">
<path fill="none" stroke="#63b8ff" d="M313.75,-80.19C299,-68.1 278.36,-52.33 258.5,-41 253.19,-37.97 247.44,-35.11 241.67,-32.47"/>
<polygon fill="#63b8ff" stroke="#63b8ff" points="311.44,-82.82 321.36,-86.54 315.93,-77.45 311.44,-82.82"/>
</a>
</g>
</g>
<!-- Node6&#45;&gt;Node5 -->
<g id="edge6_Node000006_Node000005" class="edge">
<title>Node6&#45;&gt;Node5</title>
<g id="a_edge6_Node000006_Node000005"><a xlink:title=" ">
<path fill="none" stroke="#63b8ff" d="M130.36,-68.62C120.17,-69.95 109.8,-71.31 100.06,-72.58"/>
<polygon fill="#63b8ff" stroke="#63b8ff" points="130.79,-72.09 140.25,-67.33 129.88,-65.15 130.79,-72.09"/>
</a>
</g>
</g>
</g>
</svg>

<g id="navigator" transform="translate(0 0)" fill="#404254">
  <rect fill="#f2f5e9" fill-opacity="0.5" stroke="#606060" stroke-width=".5" x="0" y="0" width="60" height="60"/>
  <use id="zoomplus" xlink:href="#zoomPlus" x="17" y="9" onmousedown="handleZoom(evt,'in')"/>
  <use id="zoomminus" xlink:href="#zoomMin" x="42" y="9" onmousedown="handleZoom(evt,'out')"/>
  <use id="reset" xlink:href="#resetDef" x="30" y="36" onmousedown="handleReset()"/>
   <use id="arrowup" xlink:href="#arrowUp" x="0" y="0" onmousedown="handlePan(0,-1)"/>
  <use id="arrowright" xlink:href="#arrowRight" x="0" y="0" onmousedown="handlePan(1,0)"/>
  <use id="arrowdown" xlink:href="#arrowDown" x="0" y="0" onmousedown="handlePan(0,1)"/>
  <use id="arrowleft" xlink:href="#arrowLeft" x="0" y="0" onmousedown="handlePan(-1,0)"/>
</g>
<svg viewBox="0 0 15 15" width="100%" height="30px" preserveAspectRatio="xMaxYMin meet">
 <g id="arrow_out" transform="scale(0.3 0.3)">
  <a xlink:href="group__ber__functions_ga8601aff017ed95b7f021ca988d85382a_icgraph_org.svg" target="_base">
   <rect id="button" ry="5" rx="5" y="6" x="6" height="38" width="38"
        fill="#f2f5e9" fill-opacity="0.5" stroke="#606060" stroke-width="1.0"/>
   <path id="arrow"
     d="M 11.500037,31.436501 C 11.940474,20.09759 22.043105,11.32322 32.158766,21.979434 L 37.068811,17.246167 C 37.068811,17.246167 37.088388,32 37.088388,32 L 22.160133,31.978069 C 22.160133,31.978069 26.997745,27.140456 26.997745,27.140456 C 18.528582,18.264221 13.291696,25.230495 11.500037,31.436501 z"
     style="fill:#404040;"/>
  </a>
 </g>
</svg>

<style type='text/css'>
<![CDATA[
[data-mouse-over-selected='false'] { opacity: 0.7; }
[data-mouse-over-selected='true']  { opacity: 1.0; }
]]>
</style>
<script type="application/ecmascript"><![CDATA[
document.addEventListener('DOMContentLoaded', (event) => {
  highlightEdges();
  highlightAdjacentNodes();
});
]]></script>
</svg>
