<?xml version="1.0" encoding="UTF-8" standalone="no"?>
<!DOCTYPE svg PUBLIC "-//W3C//DTD SVG 1.1//EN"
 "http://www.w3.org/Graphics/SVG/1.1/DTD/svg11.dtd">
<!-- Generated by graphviz version 14.1.2 (20260124.0452)
 -->
<!-- Title: ber_encode_tag Pages: 1 -->
<svg width="506pt" height="192pt"
 viewBox="0.00 0.00 506.00 192.00" xmlns="http://www.w3.org/2000/svg" xmlns:xlink="http://www.w3.org/1999/xlink">
<g id="graph0" class="graph" transform="scale(1 1) rotate(0) translate(4 188)">
<title>ber_encode_tag</title>
<!-- Node1 -->
<g id="Node000001" class="node">
<title>Node1</title>
<g id="a_Node000001"><a xlink:title="Encode a single&#45;byte ASN.1 tag.">
<polygon fill="#999999" stroke="#666666" points="497.5,-108 412.5,-108 412.5,-88 497.5,-88 497.5,-108"/>
<text xml:space="preserve" text-anchor="middle" x="455" y="-94.5" font-family="Helvetica,sans-Serif" font-size="10.00">ber_encode_tag</text>
</a>
</g>
</g>
<!-- Node2 -->
<g id="Node000002" class="node">
<title>Node2</title>
<g id="a_Node000002"><a xlink:href="group__ber__functions.html#ga0b5f606e5a3877b66ed1ea77b9cfa521" target="_top" xlink:title="Encode a complete TLV (Tag&#45;Length&#45;Value) structure.">
<polygon fill="white" stroke="#666666" points="376.5,-108 294.5,-108 294.5,-88 376.5,-88 376.5,-108"/>
<text xml:space="preserve" text-anchor="middle" x="335.5" y="-94.5" font-family="Helvetica,sans-Serif" font-size="10.00">ber_encode_tlv</text>
</a>
</g>
</g>
<!-- Node1&#45;&gt;Node2 -->
<g id="edge1_Node000001_Node000002" class="edge">
<title>Node1&#45;&gt;Node2</title>
<g id="a_edge1_Node000001_Node000002"><a xlink:title=" ">
<path fill="none" stroke="#63b8ff" d="M400.99,-98C392.91,-98 384.69,-98 376.94,-98"/>
<polygon fill="#63b8ff" stroke="#63b8ff" points="400.73,-101.5 410.73,-98 400.73,-94.5 400.73,-101.5"/>
</a>
</g>
</g>
<!-- Node3 -->
<g id="Node000003" class="node">
<title>Node3</title>
<g id="a_Node000003"><a xlink:href="group__ber__functions.html#ga16600f449b4b203bf6a75ee63ddc7c9b" target="_top" xlink:title="Encode a boolean value.">
<polygon fill="white" stroke="#666666" points="249.88,-184 144.62,-184 144.62,-164 249.88,-164 249.88,-184"/>
<text xml:space="preserve" text-anchor="middle" x="197.25" y="-170.5" font-family="Helvetica,sans-Serif" font-size="10.00">ber_encode_boolean</text>
</a>
</g>
</g>
<!-- Node2&#45;&gt;Node3 -->
<g id="edge2_Node000002_Node000003" class="edge">
<title>Node2&#45;&gt;Node3</title>
<g id="a_edge2_Node000002_Node000003"><a xlink:title=" ">
<path fill="none" stroke="#63b8ff" d="M314.82,-115.72C300.17,-128.14 279.2,-144.37 258.5,-155 252.06,-158.31 244.94,-161.17 237.91,-163.6"/>
<polygon fill="#63b8ff" stroke="#63b8ff" points="317.08,-118.39 322.33,-109.19 312.49,-113.11 317.08,-118.39"/>
</a>
</g>
</g>
<!-- Node4 -->
<g id="Node000004" class="node">
<title>Node4</title>
<g id="a_Node000004"><a xlink:href="group__ber__functions.html#gabce394c789388ac6b60503e8cbf89f2d" target="_top" xlink:title="Encode an octet (byte) string.">
<polygon fill="white" stroke="#666666" points="258.5,-146 136,-146 136,-126 258.5,-126 258.5,-146"/>
<text xml:space="preserve" text-anchor="middle" x="197.25" y="-132.5" font-family="Helvetica,sans-Serif" font-size="10.00">ber_encode_octet_string</text>
</a>
</g>
</g>
<!-- Node2&#45;&gt;Node4 -->
<g id="edge3_Node000002_Node000004" class="edge">
<title>Node2&#45;&gt;Node4</title>
<g id="a_edge3_Node000002_Node000004"><a xlink:title=" ">
<path fill="none" stroke="#63b8ff" d="M286.29,-111.45C269.68,-116.08 251.34,-121.19 235.72,-125.55"/>
<polygon fill="#63b8ff" stroke="#63b8ff" points="286.76,-114.95 295.45,-108.89 284.88,-108.21 286.76,-114.95"/>
</a>
</g>
</g>
<!-- Node5 -->
<g id="Node000005" class="node">
<title>Node5</title>
<g id="a_Node000005"><a xlink:href="group__ber__functions.html#ga7cdf29a8107215d38dc986e0f952020b" target="_top" xlink:title="Encode a signed integer.">
<polygon fill="white" stroke="#666666" points="100,-89 0,-89 0,-69 100,-69 100,-89"/>
<text xml:space="preserve" text-anchor="middle" x="50" y="-75.5" font-family="Helvetica,sans-Serif" font-size="10.00">ber_encode_signed</text>
</a>
</g>
</g>
<!-- Node2&#45;&gt;Node5 -->
<g id="edge4_Node000002_Node000005" class="edge">
<title>Node2&#45;&gt;Node5</title>
<g id="a_edge4_Node000002_Node000005"><a xlink:title=" ">
<path fill="none" stroke="#63b8ff" d="M282.89,-94.54C230.92,-91.06 151.33,-85.72 100.23,-82.3"/>
<polygon fill="#63b8ff" stroke="#63b8ff" points="282.46,-98.02 292.67,-95.2 282.93,-91.04 282.46,-98.02"/>
</a>
</g>
</g>
<!-- Node6 -->
<g id="Node000006" class="node">
<title>Node6</title>
<g id="a_Node000006"><a xlink:href="group__ber__functions.html#gaf975471663de004b1adfb9e209ddc137" target="_top" xlink:title="Encode an unsigned integer.">
<polygon fill="white" stroke="#666666" points="252.5,-70 142,-70 142,-50 252.5,-50 252.5,-70"/>
<text xml:space="preserve" text-anchor="middle" x="197.25" y="-56.5" font-family="Helvetica,sans-Serif" font-size="10.00">ber_encode_unsigned</text>
</a>
</g>
</g>
<!-- Node2&#45;&gt;Node6 -->
<g id="edge5_Node000002_Node000006" class="edge">
<title>Node2&#45;&gt;Node6</title>
<g id="a_edge5_Node000002_Node000006"><a xlink:title=" ">
<path fill="none" stroke="#63b8ff" d="M286.29,-84.55C269.68,-79.92 251.34,-74.81 235.72,-70.45"/>
<polygon fill="#63b8ff" stroke="#63b8ff" points="284.88,-87.79 295.45,-87.11 286.76,-81.05 284.88,-87.79"/>
</a>
</g>
</g>
<!-- Node7 -->
<g id="Node000007" class="node">
<title>Node7</title>
<g id="a_Node000007"><a xlink:href="group__ber__functions.html#gaf86013ff89e2ec24ff3f2eaa38fe2da0" target="_top" xlink:title="Encode a visible (ASCII) string.">
<polygon fill="white" stroke="#666666" points="246.88,-32 147.62,-32 147.62,0 246.88,0 246.88,-32"/>
<text xml:space="preserve" text-anchor="start" x="155.62" y="-18.5" font-family="Helvetica,sans-Serif" font-size="10.00">ber_encode_visible</text>
<text xml:space="preserve" text-anchor="middle" x="197.25" y="-6.5" font-family="Helvetica,sans-Serif" font-size="10.00">_string</text>
</a>
</g>
</g>
<!-- Node2&#45;&gt;Node7 -->
<g id="edge7_Node000002_Node000007" class="edge">
<title>Node2&#45;&gt;Node7</title>
<g id="a_edge7_Node000002_Node000007"><a xlink:title=" ">
<path fill="none" stroke="#63b8ff" d="M313.75,-80.19C299,-68.1 278.36,-52.33 258.5,-41 253.19,-37.97 247.44,-35.11 241.67,-32.47"/>
<polygon fill="#63b8ff" stroke="#63b8ff" points="311.44,-82.82 321.36,-86.54 315.93,-77.45 311.44,-82.82"/>
</a>
</g>
</g>
<!-- Node6&#45;&gt;Node5 -->
<g id="edge6_Node000006_Node000005" class="edge">
<title>Node6&#45;&gt;Node5</title>
<g id="a_edge6_Node000006_Node000005"><a xlink:title=" ">
<path fill="none" stroke="#63b8ff" d="M130.36,-68.62C120.17,-69.95 109.8,-71.31 100.06,-72.58"/>
<polygon fill="#63b8ff" stroke="#63b8ff" points="130.79,-72.09 140.25,-67.33 129.88,-65.15 130.79,-72.09"/>
</a>
</g>
</g>
</g>
</svg>
