<?xml version="1.0" encoding="UTF-8" standalone="no"?>
<!DOCTYPE svg PUBLIC "-//W3C//DTD SVG 1.1//EN"
 "http://www.w3.org/Graphics/SVG/1.1/DTD/svg11.dtd">
<!-- Generated by graphviz version 14.1.2 (20260124.0452)
 -->
<!-- Title: ber_encode_signed Pages: 1 -->
<svg width="515pt" height="104pt"
 viewBox="0.00 0.00 515.00 104.00" xmlns="http://www.w3.org/2000/svg" xmlns:xlink="http://www.w3.org/1999/xlink">
<g id="graph0" class="graph" transform="scale(1 1) rotate(0) translate(4 100)">
<title>ber_encode_signed</title>
<!-- Node1 -->
<g id="Node000001" class="node">
<title>Node1</title>
<g id="a_Node000001"><a xlink:title="Encode a signed integer.">
<polygon fill="#999999" stroke="#666666" points="100,-58 0,-58 0,-38 100,-38 100,-58"/>
<text xml:space="preserve" text-anchor="middle" x="50" y="-44.5" font-family="Helvetica,sans-Serif" font-size="10.00">ber_encode_signed</text>
</a>
</g>
</g>
<!-- Node2 -->
<g id="Node000002" class="node">
<title>Node2</title>
<g id="a_Node000002"><a xlink:href="group__ber__functions.html#ga0b5f606e5a3877b66ed1ea77b9cfa521" target="_top" xlink:title="Encode a complete TLV (Tag&#45;Length&#45;Value) structure.">
<polygon fill="white" stroke="#666666" points="364.5,-58 282.5,-58 282.5,-38 364.5,-38 364.5,-58"/>
<text xml:space="preserve" text-anchor="middle" x="323.5" y="-44.5" font-family="Helvetica,sans-Serif" font-size="10.00">ber_encode_tlv</text>
</a>
</g>
</g>
<!-- Node1&#45;&gt;Node2 -->
<g id="edge1_Node000001_Node000002" class="edge">
<title>Node1&#45;&gt;Node2</title>
<g id="a_edge1_Node000001_Node000002"><a xlink:title=" ">
<path fill="none" stroke="#63b8ff" d="M100.48,-48C148.77,-48 221.91,-48 270.91,-48"/>
<polygon fill="#63b8ff" stroke="#63b8ff" points="270.69,-51.5 280.69,-48 270.69,-44.5 270.69,-51.5"/>
</a>
</g>
</g>
<!-- Node6 -->
<g id="Node000006" class="node">
<title>Node6</title>
<g id="a_Node000006"><a xlink:href="group__ber__functions.html#gaf975471663de004b1adfb9e209ddc137" target="_top" xlink:title="Encode an unsigned integer.">
<polygon fill="white" stroke="#666666" points="246.5,-39 136,-39 136,-19 246.5,-19 246.5,-39"/>
<text xml:space="preserve" text-anchor="middle" x="191.25" y="-25.5" font-family="Helvetica,sans-Serif" font-size="10.00">ber_encode_unsigned</text>
</a>
</g>
</g>
<!-- Node1&#45;&gt;Node6 -->
<g id="edge5_Node000001_Node000006" class="edge">
<title>Node1&#45;&gt;Node6</title>
<g id="a_edge5_Node000001_Node000006"><a xlink:title=" ">
<path fill="none" stroke="#63b8ff" d="M100.49,-41.25C108.24,-40.19 116.37,-39.08 124.42,-37.98"/>
<polygon fill="#63b8ff" stroke="#63b8ff" points="124.78,-41.47 134.22,-36.65 123.84,-34.53 124.78,-41.47"/>
</a>
</g>
</g>
<!-- Node3 -->
<g id="Node000003" class="node">
<title>Node3</title>
<g id="a_Node000003"><a xlink:href="group__ber__functions.html#gae8c87366b9131a84e9349a936f2a4603" target="_top" xlink:title="Encode a BER length field.">
<polygon fill="white" stroke="#666666" points="502.38,-96 404.62,-96 404.62,-76 502.38,-76 502.38,-96"/>
<text xml:space="preserve" text-anchor="middle" x="453.5" y="-82.5" font-family="Helvetica,sans-Serif" font-size="10.00">ber_encode_length</text>
</a>
</g>
</g>
<!-- Node2&#45;&gt;Node3 -->
<g id="edge2_Node000002_Node000003" class="edge">
<title>Node2&#45;&gt;Node3</title>
<g id="a_edge2_Node000002_Node000003"><a xlink:title=" ">
<path fill="none" stroke="#63b8ff" d="M359.82,-58.48C374.23,-62.76 391.08,-67.77 406.44,-72.33"/>
<polygon fill="#63b8ff" stroke="#63b8ff" points="405.27,-75.63 415.85,-75.12 407.26,-68.92 405.27,-75.63"/>
</a>
</g>
</g>
<!-- Node4 -->
<g id="Node000004" class="node">
<title>Node4</title>
<g id="a_Node000004"><a xlink:href="group__ber__functions.html#ga598f5cfdc4720cc0b4300b291e509048" target="_top" xlink:title="Encode a single&#45;byte ASN.1 tag.">
<polygon fill="white" stroke="#666666" points="496,-58 411,-58 411,-38 496,-38 496,-58"/>
<text xml:space="preserve" text-anchor="middle" x="453.5" y="-44.5" font-family="Helvetica,sans-Serif" font-size="10.00">ber_encode_tag</text>
</a>
</g>
</g>
<!-- Node2&#45;&gt;Node4 -->
<g id="edge3_Node000002_Node000004" class="edge">
<title>Node2&#45;&gt;Node4</title>
<g id="a_edge3_Node000002_Node000004"><a xlink:title=" ">
<path fill="none" stroke="#63b8ff" d="M365,-48C375.99,-48 388.05,-48 399.61,-48"/>
<polygon fill="#63b8ff" stroke="#63b8ff" points="399.43,-51.5 409.43,-48 399.43,-44.5 399.43,-51.5"/>
</a>
</g>
</g>
<!-- Node5 -->
<g id="Node000005" class="node">
<title>Node5</title>
<g id="a_Node000005"><a xlink:href="group__ber__functions.html#ga8601aff017ed95b7f021ca988d85382a" target="_top" xlink:title="Calculate bytes needed to encode a BER length field.">
<polygon fill="white" stroke="#666666" points="506.5,-20 400.5,-20 400.5,0 506.5,0 506.5,-20"/>
<text xml:space="preserve" text-anchor="middle" x="453.5" y="-6.5" font-family="Helvetica,sans-Serif" font-size="10.00">ber_length_of_length</text>
</a>
</g>
</g>
<!-- Node2&#45;&gt;Node5 -->
<g id="edge4_Node000002_Node000005" class="edge">
<title>Node2&#45;&gt;Node5</title>
<g id="a_edge4_Node000002_Node000005"><a xlink:title=" ">
<path fill="none" stroke="#63b8ff" d="M359.82,-37.52C374.23,-33.24 391.08,-28.23 406.44,-23.67"/>
<polygon fill="#63b8ff" stroke="#63b8ff" points="407.26,-27.08 415.85,-20.88 405.27,-20.37 407.26,-27.08"/>
</a>
</g>
</g>
<!-- Node6&#45;&gt;Node2 -->
<g id="edge6_Node000006_Node000002" class="edge">
<title>Node6&#45;&gt;Node2</title>
<g id="a_edge6_Node000006_Node000002"><a xlink:title=" ">
<path fill="none" stroke="#63b8ff" d="M246.73,-36.95C254.7,-38.11 262.88,-39.3 270.78,-40.46"/>
<polygon fill="#63b8ff" stroke="#63b8ff" points="270.21,-43.91 280.61,-41.89 271.22,-36.98 270.21,-43.91"/>
</a>
</g>
</g>
</g>
</svg>
