<?xml version="1.0" encoding="UTF-8" standalone="no"?>
<!DOCTYPE svg PUBLIC "-//W3C//DTD SVG 1.1//EN"
 "http://www.w3.org/Graphics/SVG/1.1/DTD/svg11.dtd">
<!-- Generated by graphviz version 14.1.2 (20260124.0452)
 -->
<!-- Title: npcap_queue_create Pages: 1 -->
<!--zoomable 114 -->

<svg id="main" version="1.1" xmlns="http://www.w3.org/2000/svg" xmlns:xlink="http://www.w3.org/1999/xlink" xml:space="preserve" onload="init(evt)">

<style type="text/css"><![CDATA[
.node, .edge {opacity: 0.7;}
.node.selected, .edge.selected {opacity: 1;}
.edge:hover path { stroke: red; }
.edge:hover polygon { stroke: red; fill: red; }
]]></style>

<defs>
  <circle id="rim" cx="0" cy="0" r="7"/>
  <circle id="rim2" cx="0" cy="0" r="3.5"/>
  <g id="zoomPlus">
    <use xlink:href="#rim" fill="#404040"><set attributeName="fill" to="#808080" begin="zoomplus.mouseover" end="zoomplus.mouseout"/></use>
    <path d="M-4,0h8M0,-4v8" fill="none" stroke="white" stroke-width="1.5" pointer-events="none"/>
  </g>
  <g id="zoomMin">
    <use xlink:href="#rim" fill="#404040"><set attributeName="fill" to="#808080" begin="zoomminus.mouseover" end="zoomminus.mouseout"/></use>
    <path d="M-4,0h8" fill="none" stroke="white" stroke-width="1.5" pointer-events="none"/>
  </g>
  <g id="arrowUp" transform="translate(30 24)">
    <use xlink:href="#rim"/>
    <path pointer-events="none" fill="none" stroke="white" stroke-width="1.5" d="M0,-3.0v7 M-2.5,-0.5L0,-3.0L2.5,-0.5"/>
  </g>
  <g id="arrowRight" transform="rotate(90) translate(36 -43)">
    <use xlink:href="#rim"/>
    <path pointer-events="none" fill="none" stroke="white" stroke-width="1.5" d="M0,-3.0v7 M-2.5,-0.5L0,-3.0L2.5,-0.5"/>
  </g>
  <g id="arrowDown" transform="rotate(180) translate(-30 -48)">
    <use xlink:href="#rim"/>
    <path pointer-events="none" fill="none" stroke="white" stroke-width="1.5" d="M0,-3.0v7 M-2.5,-0.5L0,-3.0L2.5,-0.5"/>
  </g>
  <g id="arrowLeft" transform="rotate(270) translate(-36 17)">
    <use xlink:href="#rim"/>
    <path pointer-events="none" fill="none" stroke="white" stroke-width="1.5" d="M0,-3.0v7 M-2.5,-0.5L0,-3.0L2.5,-0.5"/>
  </g>
  <g id="resetDef">
    <use xlink:href="#rim2" fill="#404040"><set attributeName="fill" to="#808080" begin="reset.mouseover" end="reset.mouseout"/></use>
  </g>
</defs>
<script type="application/ecmascript">
var viewWidth = 692;
var viewHeight = 114;
var sectionId = 'dynsection-6';
</script>
<script type="application/ecmascript" xlink:href="svg.min.js"/>
<svg id="graph" class="graph">
<g id="viewport">
<title>npcap_queue_create</title>
<!-- Node1 -->
<g id="Node000001" class="node">
<title>Node1</title>
<g id="a_Node000001"><a xlink:title="Allocate a send queue.">
<polygon fill="#999999" stroke="#666666" points="683.75,-57 577.75,-57 577.75,-37 683.75,-37 683.75,-57"/>
<text xml:space="preserve" text-anchor="middle" x="630.75" y="-43.5" font-family="Helvetica,sans-Serif" font-size="10.00">npcap_queue_create</text>
</a>
</g>
</g>
<!-- Node2 -->
<g id="Node000002" class="node">
<title>Node2</title>
<g id="a_Node000002"><a xlink:href="sv__native__refactored_8cc.html#a186b6b16f2d04a7fd9c7da099fac4fa5" target="_top" xlink:title=" ">
<polygon fill="white" stroke="#666666" points="535,-88 427.5,-88 427.5,-68 535,-68 535,-88"/>
<text xml:space="preserve" text-anchor="middle" x="481.25" y="-74.5" font-family="Helvetica,sans-Serif" font-size="10.00">publisher_loop_batch</text>
</a>
</g>
</g>
<!-- Node1&#45;&gt;Node2 -->
<g id="edge1_Node000001_Node000002" class="edge">
<title>Node1&#45;&gt;Node2</title>
<g id="a_edge1_Node000001_Node000002"><a xlink:title=" ">
<path fill="none" stroke="#63b8ff" d="M568.79,-59.81C556.59,-62.38 543.91,-65.04 532.14,-67.52"/>
<polygon fill="#63b8ff" stroke="#63b8ff" points="569.27,-63.29 578.33,-57.81 567.83,-56.44 569.27,-63.29"/>
</a>
</g>
</g>
<!-- Node4 -->
<g id="Node000004" class="node">
<title>Node4</title>
<g id="a_Node000004"><a xlink:href="class_sv_controller.html#ab8c8181a6f1a3db44e42d2d1dcd3e2ff" target="_top" xlink:title=" ">
<polygon fill="white" stroke="#666666" points="541.75,-32 420.75,-32 420.75,0 541.75,0 541.75,-32"/>
<text xml:space="preserve" text-anchor="start" x="428.75" y="-18.5" font-family="Helvetica,sans-Serif" font-size="10.00">SvController::writerLoop</text>
<text xml:space="preserve" text-anchor="middle" x="481.25" y="-6.5" font-family="Helvetica,sans-Serif" font-size="10.00">Batch</text>
</a>
</g>
</g>
<!-- Node1&#45;&gt;Node4 -->
<g id="edge4_Node000001_Node000004" class="edge">
<title>Node1&#45;&gt;Node4</title>
<g id="a_edge4_Node000001_Node000004"><a xlink:title=" ">
<path fill="none" stroke="#63b8ff" d="M568.81,-34.19C559.98,-32.34 550.9,-30.43 542.09,-28.58"/>
<polygon fill="#63b8ff" stroke="#63b8ff" points="567.83,-37.56 578.33,-36.19 569.27,-30.71 567.83,-37.56"/>
</a>
</g>
</g>
<!-- Node2&#45;&gt;Node2 -->
<g id="edge3_Node000002_Node000002" class="edge">
<title>Node2&#45;&gt;Node2</title>
<g id="a_edge3_Node000002_Node000002"><a xlink:title=" ">
<path fill="none" stroke="#63b8ff" d="M507.67,-99.44C504.27,-103.3 495.46,-106 481.25,-106 455.26,-106 447.34,-96.98 457.5,-88.34"/>
<polygon fill="#63b8ff" stroke="#63b8ff" points="511.1,-98.72 505.36,-89.81 504.29,-100.35 511.1,-98.72"/>
</a>
</g>
</g>
<!-- Node3 -->
<g id="Node000003" class="node">
<title>Node3</title>
<g id="a_Node000003"><a xlink:href="sv__native__refactored_8cc.html#af14f0670e1b30534e33524f8c49a5580" target="_top" xlink:title="Start publishing.">
<polygon fill="white" stroke="#666666" points="379.88,-88 268.62,-88 268.62,-68 379.88,-68 379.88,-88"/>
<text xml:space="preserve" text-anchor="middle" x="324.25" y="-74.5" font-family="Helvetica,sans-Serif" font-size="10.00">npcap_publisher_start</text>
</a>
</g>
</g>
<!-- Node2&#45;&gt;Node3 -->
<g id="edge2_Node000002_Node000003" class="edge">
<title>Node2&#45;&gt;Node3</title>
<g id="a_edge2_Node000002_Node000003"><a xlink:title=" ">
<path fill="none" stroke="#63b8ff" d="M416.11,-78C404.22,-78 391.89,-78 380.3,-78"/>
<polygon fill="#63b8ff" stroke="#63b8ff" points="415.83,-81.5 425.83,-78 415.83,-74.5 415.83,-81.5"/>
</a>
</g>
</g>
<!-- Node4&#45;&gt;Node4 -->
<g id="edge8_Node000004_Node000004" class="edge">
<title>Node4&#45;&gt;Node4</title>
<g id="a_edge8_Node000004_Node000004"><a xlink:title=" ">
<path fill="none" stroke="#63b8ff" d="M506.16,-43.71C502.01,-47.48 493.71,-50 481.25,-50 458.47,-50 449.58,-41.58 454.56,-32.44"/>
<polygon fill="#63b8ff" stroke="#63b8ff" points="509.6,-44.36 507.7,-33.94 502.69,-43.27 509.6,-44.36"/>
</a>
</g>
</g>
<!-- Node5 -->
<g id="Node000005" class="node">
<title>Node5</title>
<g id="a_Node000005"><a xlink:href="class_sv_controller.html#a30dfd716e1e85042e41a2299fac5711f" target="_top" xlink:title=" ">
<polygon fill="white" stroke="#666666" points="384.75,-26 263.75,-26 263.75,-6 384.75,-6 384.75,-26"/>
<text xml:space="preserve" text-anchor="middle" x="324.25" y="-12.5" font-family="Helvetica,sans-Serif" font-size="10.00">SvController::writerLoop</text>
</a>
</g>
</g>
<!-- Node4&#45;&gt;Node5 -->
<g id="edge5_Node000004_Node000005" class="edge">
<title>Node4&#45;&gt;Node5</title>
<g id="a_edge5_Node000004_Node000005"><a xlink:title=" ">
<path fill="none" stroke="#63b8ff" d="M409.06,-16C401.02,-16 392.89,-16 385.02,-16"/>
<polygon fill="#63b8ff" stroke="#63b8ff" points="408.81,-19.5 418.81,-16 408.81,-12.5 408.81,-19.5"/>
</a>
</g>
</g>
<!-- Node6 -->
<g id="Node000006" class="node">
<title>Node6</title>
<g id="a_Node000006"><a xlink:href="class_sv_controller.html#afc0ec922fad685082c626ca36cb764a8" target="_top" xlink:title=" ">
<polygon fill="white" stroke="#666666" points="227.75,-26 121,-26 121,-6 227.75,-6 227.75,-26"/>
<text xml:space="preserve" text-anchor="middle" x="174.38" y="-12.5" font-family="Helvetica,sans-Serif" font-size="10.00">SvController::startAll</text>
</a>
</g>
</g>
<!-- Node5&#45;&gt;Node6 -->
<g id="edge6_Node000005_Node000006" class="edge">
<title>Node5&#45;&gt;Node6</title>
<g id="a_edge6_Node000005_Node000006"><a xlink:title=" ">
<path fill="none" stroke="#63b8ff" d="M252.17,-16C244.09,-16 235.96,-16 228.17,-16"/>
<polygon fill="#63b8ff" stroke="#63b8ff" points="252.02,-19.5 262.02,-16 252.02,-12.5 252.02,-19.5"/>
</a>
</g>
</g>
<!-- Node7 -->
<g id="Node000007" class="node">
<title>Node7</title>
<g id="a_Node000007"><a xlink:href="sv__controller_8cc.html#a1b6b0344797b9edf84722fde0e1c660a" target="_top" xlink:title=" ">
<polygon fill="white" stroke="#666666" points="85,-26 0,-26 0,-6 85,-6 85,-26"/>
<text xml:space="preserve" text-anchor="middle" x="42.5" y="-12.5" font-family="Helvetica,sans-Serif" font-size="10.00">sv_mp_start_all</text>
</a>
</g>
</g>
<!-- Node6&#45;&gt;Node7 -->
<g id="edge7_Node000006_Node000007" class="edge">
<title>Node6&#45;&gt;Node7</title>
<g id="a_edge7_Node000006_Node000007"><a xlink:title=" ">
<path fill="none" stroke="#63b8ff" d="M109.1,-16C100.95,-16 92.79,-16 85.13,-16"/>
<polygon fill="#63b8ff" stroke="#63b8ff" points="109.04,-19.5 119.04,-16 109.04,-12.5 109.04,-19.5"/>
</a>
</g>
</g>
</g>
</svg>

<g id="navigator" transform="translate(0 0)" fill="#404254">
  <rect fill="#f2f5e9" fill-opacity="0.5" stroke="#606060" stroke-width=".5" x="0" y="0" width="60" height="60"/>
  <use id="zoomplus" xlink:href="#zoomPlus" x="17" y="9" onmousedown="handleZoom(evt,'in')"/>
  <use id="zoomminus" xlink:href="#zoomMin" x="42" y="9" onmousedown="handleZoom(evt,'out')"/>
  <use id="reset" xlink:href="#resetDef" x="30" y="36" onmousedown="handleReset()"/>
   <use id="arrowup" xlink:href="#arrowUp" x="0" y="0" onmousedown="handlePan(0,-1)"/>
  <use id="arrowright" xlink:href="#arrowRight" x="0" y="0" onmousedown="handlePan(1,0)"/>
  <use id="arrowdown" xlink:href="#arrowDown" x="0" y="0" onmousedown="handlePan(0,1)"/>
  <use id="arrowleft" xlink:href="#arrowLeft" x="0" y="0" onmousedown="handlePan(-1,0)"/>
</g>
<svg viewBox="0 0 15 15" width="100%" height="30px" preserveAspectRatio="xMaxYMin meet">
 <g id="arrow_out" transform="scale(0.3 0.3)">
  <a xlink:href="npcap__transmitter__impl_8cc_a745d7b22094024f754840a72a108339e_icgraph_org.svg" target="_base">
   <rect id="button" ry="5" rx="5" y="6" x="6" height="38" width="38"
        fill="#f2f5e9" fill-opacity="0.5" stroke="#606060" stroke-width="1.0"/>
   <path id="arrow"
     d="M 11.500037,31.436501 C 11.940474,20.09759 22.043105,11.32322 32.158766,21.979434 L 37.068811,17.246167 C 37.068811,17.246167 37.088388,32 37.088388,32 L 22.160133,31.978069 C 22.160133,31.978069 26.997745,27.140456 26.997745,27.140456 C 18.528582,18.264221 13.291696,25.230495 11.500037,31.436501 z"
     style="fill:#404040;"/>
  </a>
 </g>
</svg>

<style type='text/css'>
<![CDATA[
[data-mouse-over-selected='false'] { opacity: 0.7; }
[data-mouse-over-selected='true']  { opacity: 1.0; }
]]>
</style>
<script type="application/ecmascript"><![CDATA[
document.addEventListener('DOMContentLoaded', (event) => {
  highlightEdges();
  highlightAdjacentNodes();
});
]]></script>
</svg>
