<?xml version="1.0" encoding="UTF-8" standalone="no"?>
<!DOCTYPE svg PUBLIC "-//W3C//DTD SVG 1.1//EN"
 "http://www.w3.org/Graphics/SVG/1.1/DTD/svg11.dtd">
<!-- Generated by graphviz version 14.1.2 (20260124.0452)
 -->
<!-- Title: npcap_load_dll Pages: 1 -->
<svg width="233pt" height="66pt"
 viewBox="0.00 0.00 233.00 66.00" xmlns="http://www.w3.org/2000/svg" xmlns:xlink="http://www.w3.org/1999/xlink">
<g id="graph0" class="graph" transform="scale(1 1) rotate(0) translate(4 62)">
<title>npcap_load_dll</title>
<!-- Node1 -->
<g id="Node000001" class="node">
<title>Node1</title>
<g id="a_Node000001"><a xlink:title="Load Npcap DLL (Windows only).">
<polygon fill="#999999" stroke="#666666" points="224.75,-39 144.25,-39 144.25,-19 224.75,-19 224.75,-39"/>
<text xml:space="preserve" text-anchor="middle" x="184.5" y="-25.5" font-family="Helvetica,sans-Serif" font-size="10.00">npcap_load_dll</text>
</a>
</g>
</g>
<!-- Node2 -->
<g id="Node000002" class="node">
<title>Node2</title>
<g id="a_Node000002"><a xlink:href="npcap__transmitter__impl_8cc.html#a18575c025d56d5b2ce4e6e47c847ac98" target="_top" xlink:title="List available network interfaces.">
<polygon fill="white" stroke="#666666" points="108.25,-58 0,-58 0,-38 108.25,-38 108.25,-58"/>
<text xml:space="preserve" text-anchor="middle" x="54.12" y="-44.5" font-family="Helvetica,sans-Serif" font-size="10.00">npcap_list_interfaces</text>
</a>
</g>
</g>
<!-- Node1&#45;&gt;Node2 -->
<g id="edge1_Node000001_Node000002" class="edge">
<title>Node1&#45;&gt;Node2</title>
<g id="a_edge1_Node000001_Node000002"><a xlink:title=" ">
<path fill="none" stroke="#63b8ff" d="M132.59,-36.53C124.67,-37.71 116.47,-38.92 108.49,-40.1"/>
<polygon fill="#63b8ff" stroke="#63b8ff" points="133.06,-40 142.44,-35.08 132.03,-33.08 133.06,-40"/>
</a>
</g>
</g>
<!-- Node3 -->
<g id="Node000003" class="node">
<title>Node3</title>
<g id="a_Node000003"><a xlink:href="npcap__transmitter__impl_8cc.html#a5a2a6ccf9699c3f92dc3eb8aec729dd5" target="_top" xlink:title="Open a network interface for transmission.">
<polygon fill="white" stroke="#666666" points="88.38,-20 19.88,-20 19.88,0 88.38,0 88.38,-20"/>
<text xml:space="preserve" text-anchor="middle" x="54.12" y="-6.5" font-family="Helvetica,sans-Serif" font-size="10.00">npcap_open</text>
</a>
</g>
</g>
<!-- Node1&#45;&gt;Node3 -->
<g id="edge2_Node000001_Node000003" class="edge">
<title>Node1&#45;&gt;Node3</title>
<g id="a_edge2_Node000001_Node000003"><a xlink:title=" ">
<path fill="none" stroke="#63b8ff" d="M132.85,-21.5C118.03,-19.31 102.2,-16.97 88.72,-14.97"/>
<polygon fill="#63b8ff" stroke="#63b8ff" points="132.03,-24.92 142.44,-22.92 133.06,-18 132.03,-24.92"/>
</a>
</g>
</g>
</g>
</svg>
