<?xml version="1.0" encoding="UTF-8" standalone="no"?>
<!DOCTYPE svg PUBLIC "-//W3C//DTD SVG 1.1//EN"
 "http://www.w3.org/Graphics/SVG/1.1/DTD/svg11.dtd">
<!-- Generated by graphviz version 14.1.2 (20260124.0452)
 -->
<!-- Title: npcap_send_packet_padded Pages: 1 -->
<svg width="733pt" height="114pt"
 viewBox="0.00 0.00 733.00 114.00" xmlns="http://www.w3.org/2000/svg" xmlns:xlink="http://www.w3.org/1999/xlink">
<g id="graph0" class="graph" transform="scale(1 1) rotate(0) translate(4 110)">
<title>npcap_send_packet_padded</title>
<!-- Node1 -->
<g id="Node000001" class="node">
<title>Node1</title>
<g id="a_Node000001"><a xlink:title="Send a packet with trailing zero&#45;padding.">
<polygon fill="#999999" stroke="#666666" points="725,-57 585.25,-57 585.25,-37 725,-37 725,-57"/>
<text xml:space="preserve" text-anchor="middle" x="655.12" y="-43.5" font-family="Helvetica,sans-Serif" font-size="10.00">npcap_send_packet_padded</text>
</a>
</g>
</g>
<!-- Node2 -->
<g id="Node000002" class="node">
<title>Node2</title>
<g id="a_Node000002"><a xlink:href="sv__native__refactored_8cc.html#a27703afec602cc5af011d5661a53b510" target="_top" xlink:title=" ">
<polygon fill="white" stroke="#666666" points="549.25,-88 420.75,-88 420.75,-68 549.25,-68 549.25,-88"/>
<text xml:space="preserve" text-anchor="middle" x="485" y="-74.5" font-family="Helvetica,sans-Serif" font-size="10.00">publisher_loop_immediate</text>
</a>
</g>
</g>
<!-- Node1&#45;&gt;Node2 -->
<g id="edge1_Node000001_Node000002" class="edge">
<title>Node1&#45;&gt;Node2</title>
<g id="a_edge1_Node000001_Node000002"><a xlink:title=" ">
<path fill="none" stroke="#63b8ff" d="M585.91,-59.58C571.62,-62.21 556.69,-64.97 542.86,-67.52"/>
<polygon fill="#63b8ff" stroke="#63b8ff" points="586.52,-63.02 595.72,-57.77 585.25,-56.14 586.52,-63.02"/>
</a>
</g>
</g>
<!-- Node4 -->
<g id="Node000004" class="node">
<title>Node4</title>
<g id="a_Node000004"><a xlink:href="class_sv_controller.html#ab18faef1f888c015ba3850d11320b4a5" target="_top" xlink:title=" ">
<polygon fill="white" stroke="#666666" points="545.5,-32 424.5,-32 424.5,0 545.5,0 545.5,-32"/>
<text xml:space="preserve" text-anchor="start" x="432.5" y="-18.5" font-family="Helvetica,sans-Serif" font-size="10.00">SvController::writerLoop</text>
<text xml:space="preserve" text-anchor="middle" x="485" y="-6.5" font-family="Helvetica,sans-Serif" font-size="10.00">Immediate</text>
</a>
</g>
</g>
<!-- Node1&#45;&gt;Node4 -->
<g id="edge4_Node000001_Node000004" class="edge">
<title>Node1&#45;&gt;Node4</title>
<g id="a_edge4_Node000001_Node000004"><a xlink:title=" ">
<path fill="none" stroke="#63b8ff" d="M586.13,-34.46C572.76,-32 558.81,-29.43 545.73,-27.01"/>
<polygon fill="#63b8ff" stroke="#63b8ff" points="585.25,-37.86 595.72,-36.23 586.52,-30.98 585.25,-37.86"/>
</a>
</g>
</g>
<!-- Node2&#45;&gt;Node2 -->
<g id="edge3_Node000002_Node000002" class="edge">
<title>Node2&#45;&gt;Node2</title>
<g id="a_edge3_Node000002_Node000002"><a xlink:title=" ">
<path fill="none" stroke="#63b8ff" d="M513.41,-99.44C509.75,-103.3 500.28,-106 485,-106 457.06,-106 448.54,-96.98 459.46,-88.34"/>
<polygon fill="#63b8ff" stroke="#63b8ff" points="516.81,-98.61 510.92,-89.8 510.03,-100.36 516.81,-98.61"/>
</a>
</g>
</g>
<!-- Node3 -->
<g id="Node000003" class="node">
<title>Node3</title>
<g id="a_Node000003"><a xlink:href="sv__native__refactored_8cc.html#af14f0670e1b30534e33524f8c49a5580" target="_top" xlink:title="Start publishing.">
<polygon fill="white" stroke="#666666" points="379.88,-88 268.62,-88 268.62,-68 379.88,-68 379.88,-88"/>
<text xml:space="preserve" text-anchor="middle" x="324.25" y="-74.5" font-family="Helvetica,sans-Serif" font-size="10.00">npcap_publisher_start</text>
</a>
</g>
</g>
<!-- Node2&#45;&gt;Node3 -->
<g id="edge2_Node000002_Node000003" class="edge">
<title>Node2&#45;&gt;Node3</title>
<g id="a_edge2_Node000002_Node000003"><a xlink:title=" ">
<path fill="none" stroke="#63b8ff" d="M409.03,-78C399.32,-78 389.53,-78 380.23,-78"/>
<polygon fill="#63b8ff" stroke="#63b8ff" points="408.83,-81.5 418.83,-78 408.83,-74.5 408.83,-81.5"/>
</a>
</g>
</g>
<!-- Node4&#45;&gt;Node4 -->
<g id="edge8_Node000004_Node000004" class="edge">
<title>Node4&#45;&gt;Node4</title>
<g id="a_edge8_Node000004_Node000004"><a xlink:title=" ">
<path fill="none" stroke="#63b8ff" d="M511.79,-43.71C507.32,-47.48 498.39,-50 485,-50 460.51,-50 450.94,-41.58 456.3,-32.44"/>
<polygon fill="#63b8ff" stroke="#63b8ff" points="515.22,-44.38 513.45,-33.93 508.32,-43.21 515.22,-44.38"/>
</a>
</g>
</g>
<!-- Node5 -->
<g id="Node000005" class="node">
<title>Node5</title>
<g id="a_Node000005"><a xlink:href="class_sv_controller.html#a30dfd716e1e85042e41a2299fac5711f" target="_top" xlink:title=" ">
<polygon fill="white" stroke="#666666" points="384.75,-26 263.75,-26 263.75,-6 384.75,-6 384.75,-26"/>
<text xml:space="preserve" text-anchor="middle" x="324.25" y="-12.5" font-family="Helvetica,sans-Serif" font-size="10.00">SvController::writerLoop</text>
</a>
</g>
</g>
<!-- Node4&#45;&gt;Node5 -->
<g id="edge5_Node000004_Node000005" class="edge">
<title>Node4&#45;&gt;Node5</title>
<g id="a_edge5_Node000004_Node000005"><a xlink:title=" ">
<path fill="none" stroke="#63b8ff" d="M413.15,-16C403.8,-16 394.29,-16 385.15,-16"/>
<polygon fill="#63b8ff" stroke="#63b8ff" points="412.92,-19.5 422.92,-16 412.92,-12.5 412.92,-19.5"/>
</a>
</g>
</g>
<!-- Node6 -->
<g id="Node000006" class="node">
<title>Node6</title>
<g id="a_Node000006"><a xlink:href="class_sv_controller.html#afc0ec922fad685082c626ca36cb764a8" target="_top" xlink:title=" ">
<polygon fill="white" stroke="#666666" points="227.75,-26 121,-26 121,-6 227.75,-6 227.75,-26"/>
<text xml:space="preserve" text-anchor="middle" x="174.38" y="-12.5" font-family="Helvetica,sans-Serif" font-size="10.00">SvController::startAll</text>
</a>
</g>
</g>
<!-- Node5&#45;&gt;Node6 -->
<g id="edge6_Node000005_Node000006" class="edge">
<title>Node5&#45;&gt;Node6</title>
<g id="a_edge6_Node000005_Node000006"><a xlink:title=" ">
<path fill="none" stroke="#63b8ff" d="M252.17,-16C244.09,-16 235.96,-16 228.17,-16"/>
<polygon fill="#63b8ff" stroke="#63b8ff" points="252.02,-19.5 262.02,-16 252.02,-12.5 252.02,-19.5"/>
</a>
</g>
</g>
<!-- Node7 -->
<g id="Node000007" class="node">
<title>Node7</title>
<g id="a_Node000007"><a xlink:href="sv__controller_8cc.html#a1b6b0344797b9edf84722fde0e1c660a" target="_top" xlink:title=" ">
<polygon fill="white" stroke="#666666" points="85,-26 0,-26 0,-6 85,-6 85,-26"/>
<text xml:space="preserve" text-anchor="middle" x="42.5" y="-12.5" font-family="Helvetica,sans-Serif" font-size="10.00">sv_mp_start_all</text>
</a>
</g>
</g>
<!-- Node6&#45;&gt;Node7 -->
<g id="edge7_Node000006_Node000007" class="edge">
<title>Node6&#45;&gt;Node7</title>
<g id="a_edge7_Node000006_Node000007"><a xlink:title=" ">
<path fill="none" stroke="#63b8ff" d="M109.1,-16C100.95,-16 92.79,-16 85.13,-16"/>
<polygon fill="#63b8ff" stroke="#63b8ff" points="109.04,-19.5 119.04,-16 109.04,-12.5 109.04,-19.5"/>
</a>
</g>
</g>
</g>
</svg>
