<?xml version="1.0" encoding="UTF-8" standalone="no"?>
<!DOCTYPE svg PUBLIC "-//W3C//DTD SVG 1.1//EN"
 "http://www.w3.org/Graphics/SVG/1.1/DTD/svg11.dtd">
<!-- Generated by graphviz version 14.1.2 (20260124.0452)
 -->
<!-- Title: npcap_transmitter.h Pages: 1 -->
<svg width="413pt" height="140pt"
 viewBox="0.00 0.00 413.00 140.00" xmlns="http://www.w3.org/2000/svg" xmlns:xlink="http://www.w3.org/1999/xlink">

<svg id="main" version="1.1" xmlns="http://www.w3.org/2000/svg" xmlns:xlink="http://www.w3.org/1999/xlink" xml:space="preserve">

<style type="text/css"><![CDATA[
.node, .edge {opacity: 0.7;}
.node.selected, .edge.selected {opacity: 1;}
.edge:hover path { stroke: red; }
.edge:hover polygon { stroke: red; fill: red; }
]]></style>
<script type="application/ecmascript" xlink:href="svg.min.js"/>
<svg id="graph" class="graph">
<g id="graph0" class="graph" transform="scale(1 1) rotate(0) translate(4 136)">
<title>npcap_transmitter.h</title>
<!-- Node1 -->
<g id="Node000001" class="node">
<title>Node1</title>
<g id="a_Node000001"><a xlink:title="Npcap Network Transmitter Module.">
<polygon fill="#999999" stroke="#666666" points="243.5,-132 141.25,-132 141.25,-112 243.5,-112 243.5,-132"/>
<text xml:space="preserve" text-anchor="middle" x="192.38" y="-118.5" font-family="Helvetica,sans-Serif" font-size="10.00">npcap_transmitter.h</text>
</a>
</g>
</g>
<!-- Node2 -->
<g id="Node000002" class="node">
<title>Node2</title>
<g id="a_Node000002"><a xlink:href="npcap__transmitter__impl_8cc.html" target="_top" xlink:title="Npcap Network Transmitter.">
<polygon fill="white" stroke="#666666" points="130.75,-76 0,-76 0,-56 130.75,-56 130.75,-76"/>
<text xml:space="preserve" text-anchor="middle" x="65.38" y="-62.5" font-family="Helvetica,sans-Serif" font-size="10.00">npcap_transmitter_impl.cc</text>
</a>
</g>
</g>
<!-- Node1&#45;&gt;Node2 -->
<g id="edge1_Node000001_Node000002" class="edge">
<title>Node1&#45;&gt;Node2</title>
<g id="a_edge1_Node000001_Node000002"><a xlink:title=" ">
<path fill="none" stroke="#63b8ff" d="M159.78,-107.14C137.16,-97.52 107.63,-84.97 87.67,-76.48"/>
<polygon fill="#63b8ff" stroke="#63b8ff" points="158.29,-110.31 168.86,-111 161.03,-103.87 158.29,-110.31"/>
</a>
</g>
</g>
<!-- Node3 -->
<g id="Node000003" class="node">
<title>Node3</title>
<g id="a_Node000003"><a xlink:href="sv__controller_8cc.html" target="_top" xlink:title="Implementation of SharedBuffer + SvController + Multi&#45;Publisher FFI.">
<polygon fill="white" stroke="#666666" points="234.88,-20 149.88,-20 149.88,0 234.88,0 234.88,-20"/>
<text xml:space="preserve" text-anchor="middle" x="192.38" y="-6.5" font-family="Helvetica,sans-Serif" font-size="10.00">sv_controller.cc</text>
</a>
</g>
</g>
<!-- Node1&#45;&gt;Node3 -->
<g id="edge2_Node000001_Node000003" class="edge">
<title>Node1&#45;&gt;Node3</title>
<g id="a_edge2_Node000001_Node000003"><a xlink:title=" ">
<path fill="none" stroke="#63b8ff" d="M184.11,-100.82C181.39,-93.18 178.73,-84.32 177.38,-76 174.11,-55.88 182.42,-32.7 187.94,-20.18"/>
<polygon fill="#63b8ff" stroke="#63b8ff" points="180.84,-102.08 187.7,-110.16 187.38,-99.57 180.84,-102.08"/>
</a>
</g>
</g>
<!-- Node4 -->
<g id="Node000004" class="node">
<title>Node4</title>
<g id="a_Node000004"><a xlink:href="sv__controller_8h.html" target="_top" xlink:title="Main Controller + SharedBuffer for Multi&#45;Publisher SV System.">
<polygon fill="white" stroke="#666666" points="266.25,-76 186.5,-76 186.5,-56 266.25,-56 266.25,-76"/>
<text xml:space="preserve" text-anchor="middle" x="226.38" y="-62.5" font-family="Helvetica,sans-Serif" font-size="10.00">sv_controller.h</text>
</a>
</g>
</g>
<!-- Node1&#45;&gt;Node4 -->
<g id="edge3_Node000001_Node000004" class="edge">
<title>Node1&#45;&gt;Node4</title>
<g id="a_edge3_Node000001_Node000004"><a xlink:title=" ">
<path fill="none" stroke="#63b8ff" d="M204.42,-101.87C209.89,-93.19 216.1,-83.32 220.52,-76.3"/>
<polygon fill="#63b8ff" stroke="#63b8ff" points="201.47,-99.99 199.1,-110.31 207.39,-103.72 201.47,-99.99"/>
</a>
</g>
</g>
<!-- Node5 -->
<g id="Node000005" class="node">
<title>Node5</title>
<g id="a_Node000005"><a xlink:href="sv__native__refactored_8cc.html" target="_top" xlink:title="SV Publisher &#45; Main Entry Point for Tauri FFI.">
<polygon fill="white" stroke="#666666" points="404.5,-76 284.25,-76 284.25,-56 404.5,-56 404.5,-76"/>
<text xml:space="preserve" text-anchor="middle" x="344.38" y="-62.5" font-family="Helvetica,sans-Serif" font-size="10.00">sv_native_refactored.cc</text>
</a>
</g>
</g>
<!-- Node1&#45;&gt;Node5 -->
<g id="edge5_Node000001_Node000005" class="edge">
<title>Node1&#45;&gt;Node5</title>
<g id="a_edge5_Node000001_Node000005"><a xlink:title=" ">
<path fill="none" stroke="#63b8ff" d="M229.55,-107.79C256.84,-98.1 293.25,-85.16 317.69,-76.48"/>
<polygon fill="#63b8ff" stroke="#63b8ff" points="228.53,-104.44 220.28,-111.09 230.87,-111.04 228.53,-104.44"/>
</a>
</g>
</g>
<!-- Node4&#45;&gt;Node3 -->
<g id="edge4_Node000004_Node000003" class="edge">
<title>Node4&#45;&gt;Node3</title>
<g id="a_edge4_Node000004_Node000003"><a xlink:title=" ">
<path fill="none" stroke="#63b8ff" d="M214.33,-45.87C208.86,-37.19 202.65,-27.32 198.23,-20.3"/>
<polygon fill="#63b8ff" stroke="#63b8ff" points="211.36,-47.72 219.65,-54.31 217.28,-43.99 211.36,-47.72"/>
</a>
</g>
</g>
</g>
</svg>
</svg>

<style type='text/css'>
<![CDATA[
[data-mouse-over-selected='false'] { opacity: 0.7; }
[data-mouse-over-selected='true']  { opacity: 1.0; }
]]>
</style>
<script type="application/ecmascript"><![CDATA[
document.addEventListener('DOMContentLoaded', (event) => {
  highlightEdges();
  highlightAdjacentNodes();
});
]]></script>
</svg>
