<?xml version="1.0" encoding="UTF-8" standalone="no"?>
<!DOCTYPE svg PUBLIC "-//W3C//DTD SVG 1.1//EN"
 "http://www.w3.org/Graphics/SVG/1.1/DTD/svg11.dtd">
<!-- Generated by graphviz version 14.1.2 (20260124.0452)
 -->
<!-- Title: npcap_queue_transmit Pages: 1 -->
<svg width="700pt" height="114pt"
 viewBox="0.00 0.00 700.00 114.00" xmlns="http://www.w3.org/2000/svg" xmlns:xlink="http://www.w3.org/1999/xlink">
<g id="graph0" class="graph" transform="scale(1 1) rotate(0) translate(4 110)">
<title>npcap_queue_transmit</title>
<!-- Node1 -->
<g id="Node000001" class="node">
<title>Node1</title>
<g id="a_Node000001"><a xlink:title="Transmit all packets in the queue.">
<polygon fill="#999999" stroke="#666666" points="692,-57 577.75,-57 577.75,-37 692,-37 692,-57"/>
<text xml:space="preserve" text-anchor="middle" x="634.88" y="-43.5" font-family="Helvetica,sans-Serif" font-size="10.00">npcap_queue_transmit</text>
</a>
</g>
</g>
<!-- Node2 -->
<g id="Node000002" class="node">
<title>Node2</title>
<g id="a_Node000002"><a xlink:href="sv__native__refactored_8cc.html#a186b6b16f2d04a7fd9c7da099fac4fa5" target="_top" xlink:title=" ">
<polygon fill="white" stroke="#666666" points="535,-88 427.5,-88 427.5,-68 535,-68 535,-88"/>
<text xml:space="preserve" text-anchor="middle" x="481.25" y="-74.5" font-family="Helvetica,sans-Serif" font-size="10.00">publisher_loop_batch</text>
</a>
</g>
</g>
<!-- Node1&#45;&gt;Node2 -->
<g id="edge1_Node000001_Node000002" class="edge">
<title>Node1&#45;&gt;Node2</title>
<g id="a_edge1_Node000001_Node000002"><a xlink:title=" ">
<path fill="none" stroke="#63b8ff" d="M571.59,-59.73C558.93,-62.32 545.75,-65.02 533.53,-67.52"/>
<polygon fill="#63b8ff" stroke="#63b8ff" points="571.96,-63.23 581.06,-57.8 570.56,-56.37 571.96,-63.23"/>
</a>
</g>
</g>
<!-- Node4 -->
<g id="Node000004" class="node">
<title>Node4</title>
<g id="a_Node000004"><a xlink:href="class_sv_controller.html#ab8c8181a6f1a3db44e42d2d1dcd3e2ff" target="_top" xlink:title=" ">
<polygon fill="white" stroke="#666666" points="541.75,-32 420.75,-32 420.75,0 541.75,0 541.75,-32"/>
<text xml:space="preserve" text-anchor="start" x="428.75" y="-18.5" font-family="Helvetica,sans-Serif" font-size="10.00">SvController::writerLoop</text>
<text xml:space="preserve" text-anchor="middle" x="481.25" y="-6.5" font-family="Helvetica,sans-Serif" font-size="10.00">Batch</text>
</a>
</g>
</g>
<!-- Node1&#45;&gt;Node4 -->
<g id="edge4_Node000001_Node000004" class="edge">
<title>Node1&#45;&gt;Node4</title>
<g id="a_edge4_Node000001_Node000004"><a xlink:title=" ">
<path fill="none" stroke="#63b8ff" d="M571.38,-34.22C561.72,-32.25 551.77,-30.21 542.17,-28.25"/>
<polygon fill="#63b8ff" stroke="#63b8ff" points="570.56,-37.63 581.06,-36.2 571.96,-30.77 570.56,-37.63"/>
</a>
</g>
</g>
<!-- Node2&#45;&gt;Node2 -->
<g id="edge3_Node000002_Node000002" class="edge">
<title>Node2&#45;&gt;Node2</title>
<g id="a_edge3_Node000002_Node000002"><a xlink:title=" ">
<path fill="none" stroke="#63b8ff" d="M508.4,-99.44C504.9,-103.3 495.85,-106 481.25,-106 454.55,-106 446.41,-96.98 456.84,-88.34"/>
<polygon fill="#63b8ff" stroke="#63b8ff" points="511.82,-98.68 506.02,-89.81 505.02,-100.36 511.82,-98.68"/>
</a>
</g>
</g>
<!-- Node3 -->
<g id="Node000003" class="node">
<title>Node3</title>
<g id="a_Node000003"><a xlink:href="sv__native__refactored_8cc.html#af14f0670e1b30534e33524f8c49a5580" target="_top" xlink:title="Start publishing.">
<polygon fill="white" stroke="#666666" points="379.88,-88 268.62,-88 268.62,-68 379.88,-68 379.88,-88"/>
<text xml:space="preserve" text-anchor="middle" x="324.25" y="-74.5" font-family="Helvetica,sans-Serif" font-size="10.00">npcap_publisher_start</text>
</a>
</g>
</g>
<!-- Node2&#45;&gt;Node3 -->
<g id="edge2_Node000002_Node000003" class="edge">
<title>Node2&#45;&gt;Node3</title>
<g id="a_edge2_Node000002_Node000003"><a xlink:title=" ">
<path fill="none" stroke="#63b8ff" d="M416.11,-78C404.22,-78 391.89,-78 380.3,-78"/>
<polygon fill="#63b8ff" stroke="#63b8ff" points="415.83,-81.5 425.83,-78 415.83,-74.5 415.83,-81.5"/>
</a>
</g>
</g>
<!-- Node4&#45;&gt;Node4 -->
<g id="edge8_Node000004_Node000004" class="edge">
<title>Node4&#45;&gt;Node4</title>
<g id="a_edge8_Node000004_Node000004"><a xlink:title=" ">
<path fill="none" stroke="#63b8ff" d="M506.85,-43.71C502.58,-47.48 494.05,-50 481.25,-50 457.85,-50 448.7,-41.58 453.82,-32.44"/>
<polygon fill="#63b8ff" stroke="#63b8ff" points="510.29,-44.37 508.43,-33.94 503.38,-43.25 510.29,-44.37"/>
</a>
</g>
</g>
<!-- Node5 -->
<g id="Node000005" class="node">
<title>Node5</title>
<g id="a_Node000005"><a xlink:href="class_sv_controller.html#a30dfd716e1e85042e41a2299fac5711f" target="_top" xlink:title=" ">
<polygon fill="white" stroke="#666666" points="384.75,-26 263.75,-26 263.75,-6 384.75,-6 384.75,-26"/>
<text xml:space="preserve" text-anchor="middle" x="324.25" y="-12.5" font-family="Helvetica,sans-Serif" font-size="10.00">SvController::writerLoop</text>
</a>
</g>
</g>
<!-- Node4&#45;&gt;Node5 -->
<g id="edge5_Node000004_Node000005" class="edge">
<title>Node4&#45;&gt;Node5</title>
<g id="a_edge5_Node000004_Node000005"><a xlink:title=" ">
<path fill="none" stroke="#63b8ff" d="M409.06,-16C401.02,-16 392.89,-16 385.02,-16"/>
<polygon fill="#63b8ff" stroke="#63b8ff" points="408.81,-19.5 418.81,-16 408.81,-12.5 408.81,-19.5"/>
</a>
</g>
</g>
<!-- Node6 -->
<g id="Node000006" class="node">
<title>Node6</title>
<g id="a_Node000006"><a xlink:href="class_sv_controller.html#afc0ec922fad685082c626ca36cb764a8" target="_top" xlink:title=" ">
<polygon fill="white" stroke="#666666" points="227.75,-26 121,-26 121,-6 227.75,-6 227.75,-26"/>
<text xml:space="preserve" text-anchor="middle" x="174.38" y="-12.5" font-family="Helvetica,sans-Serif" font-size="10.00">SvController::startAll</text>
</a>
</g>
</g>
<!-- Node5&#45;&gt;Node6 -->
<g id="edge6_Node000005_Node000006" class="edge">
<title>Node5&#45;&gt;Node6</title>
<g id="a_edge6_Node000005_Node000006"><a xlink:title=" ">
<path fill="none" stroke="#63b8ff" d="M252.17,-16C244.09,-16 235.96,-16 228.17,-16"/>
<polygon fill="#63b8ff" stroke="#63b8ff" points="252.02,-19.5 262.02,-16 252.02,-12.5 252.02,-19.5"/>
</a>
</g>
</g>
<!-- Node7 -->
<g id="Node000007" class="node">
<title>Node7</title>
<g id="a_Node000007"><a xlink:href="sv__controller_8cc.html#a1b6b0344797b9edf84722fde0e1c660a" target="_top" xlink:title=" ">
<polygon fill="white" stroke="#666666" points="85,-26 0,-26 0,-6 85,-6 85,-26"/>
<text xml:space="preserve" text-anchor="middle" x="42.5" y="-12.5" font-family="Helvetica,sans-Serif" font-size="10.00">sv_mp_start_all</text>
</a>
</g>
</g>
<!-- Node6&#45;&gt;Node7 -->
<g id="edge7_Node000006_Node000007" class="edge">
<title>Node6&#45;&gt;Node7</title>
<g id="a_edge7_Node000006_Node000007"><a xlink:title=" ">
<path fill="none" stroke="#63b8ff" d="M109.1,-16C100.95,-16 92.79,-16 85.13,-16"/>
<polygon fill="#63b8ff" stroke="#63b8ff" points="109.04,-19.5 119.04,-16 109.04,-12.5 109.04,-19.5"/>
</a>
</g>
</g>
</g>
</svg>
