<?xml version="1.0" encoding="UTF-8" standalone="no"?>
<!DOCTYPE svg PUBLIC "-//W3C//DTD SVG 1.1//EN"
 "http://www.w3.org/Graphics/SVG/1.1/DTD/svg11.dtd">
<!-- Generated by graphviz version 14.1.2 (20260124.0452)
 -->
<!-- Title: npcap_transmitter_impl.cc Pages: 1 -->
<svg width="578pt" height="196pt"
 viewBox="0.00 0.00 578.00 196.00" xmlns="http://www.w3.org/2000/svg" xmlns:xlink="http://www.w3.org/1999/xlink">
<g id="graph0" class="graph" transform="scale(1 1) rotate(0) translate(4 192)">
<title>npcap_transmitter_impl.cc</title>
<!-- Node1 -->
<g id="Node000001" class="node">
<title>Node1</title>
<g id="a_Node000001"><a xlink:title="Npcap Network Transmitter.">
<polygon fill="#999999" stroke="#666666" points="373.88,-188 243.12,-188 243.12,-168 373.88,-168 373.88,-188"/>
<text xml:space="preserve" text-anchor="middle" x="308.5" y="-174.5" font-family="Helvetica,sans-Serif" font-size="10.00">npcap_transmitter_impl.cc</text>
</a>
</g>
</g>
<!-- Node2 -->
<g id="Node000002" class="node">
<title>Node2</title>
<g id="a_Node000002"><a xlink:href="npcap__transmitter_8h.html" target="_top" xlink:title="Npcap Network Transmitter Module.">
<polygon fill="white" stroke="#666666" points="145,-132 0,-132 0,-112 145,-112 145,-132"/>
<text xml:space="preserve" text-anchor="middle" x="72.5" y="-118.5" font-family="Helvetica,sans-Serif" font-size="10.00">../include/npcap_transmitter.h</text>
</a>
</g>
</g>
<!-- Node1&#45;&gt;Node2 -->
<g id="edge1_Node000001_Node000002" class="edge">
<title>Node1&#45;&gt;Node2</title>
<g id="a_edge1_Node000001_Node000002"><a xlink:title=" ">
<path fill="none" stroke="#63b8ff" d="M267.12,-167.53C227.56,-158.48 167.76,-144.8 124.89,-134.99"/>
<polygon fill="#63b8ff" stroke="#63b8ff" points="125.83,-131.61 115.31,-132.79 124.27,-138.44 125.83,-131.61"/>
</a>
</g>
</g>
<!-- Node6 -->
<g id="Node000006" class="node">
<title>Node6</title>
<g id="a_Node000006"><a xlink:title=" ">
<polygon fill="#e0e0e0" stroke="#999999" points="205.62,-132 163.38,-132 163.38,-112 205.62,-112 205.62,-132"/>
<text xml:space="preserve" text-anchor="middle" x="184.5" y="-118.5" font-family="Helvetica,sans-Serif" font-size="10.00">cstdio</text>
</a>
</g>
</g>
<!-- Node1&#45;&gt;Node6 -->
<g id="edge5_Node000001_Node000006" class="edge">
<title>Node1&#45;&gt;Node6</title>
<g id="a_edge5_Node000001_Node000006"><a xlink:title=" ">
<path fill="none" stroke="#63b8ff" d="M286.9,-167.59C267.34,-159.08 238.28,-146.42 216.11,-136.77"/>
<polygon fill="#63b8ff" stroke="#63b8ff" points="217.81,-133.69 207.24,-132.9 215.01,-140.1 217.81,-133.69"/>
</a>
</g>
</g>
<!-- Node7 -->
<g id="Node000007" class="node">
<title>Node7</title>
<g id="a_Node000007"><a xlink:title=" ">
<polygon fill="#e0e0e0" stroke="#999999" points="267.75,-132 223.25,-132 223.25,-112 267.75,-112 267.75,-132"/>
<text xml:space="preserve" text-anchor="middle" x="245.5" y="-118.5" font-family="Helvetica,sans-Serif" font-size="10.00">cstdlib</text>
</a>
</g>
</g>
<!-- Node1&#45;&gt;Node7 -->
<g id="edge6_Node000001_Node000007" class="edge">
<title>Node1&#45;&gt;Node7</title>
<g id="a_edge6_Node000001_Node000007"><a xlink:title=" ">
<path fill="none" stroke="#63b8ff" d="M297.53,-167.59C288.58,-159.93 275.73,-148.91 265.04,-139.75"/>
<polygon fill="#63b8ff" stroke="#63b8ff" points="267.37,-137.13 257.5,-133.28 262.81,-142.45 267.37,-137.13"/>
</a>
</g>
</g>
<!-- Node8 -->
<g id="Node000008" class="node">
<title>Node8</title>
<g id="a_Node000008"><a xlink:title=" ">
<polygon fill="#e0e0e0" stroke="#999999" points="331.12,-132 285.88,-132 285.88,-112 331.12,-112 331.12,-132"/>
<text xml:space="preserve" text-anchor="middle" x="308.5" y="-118.5" font-family="Helvetica,sans-Serif" font-size="10.00">cstring</text>
</a>
</g>
</g>
<!-- Node1&#45;&gt;Node8 -->
<g id="edge7_Node000001_Node000008" class="edge">
<title>Node1&#45;&gt;Node8</title>
<g id="a_edge7_Node000001_Node000008"><a xlink:title=" ">
<path fill="none" stroke="#63b8ff" d="M308.5,-167.59C308.5,-161.01 308.5,-151.96 308.5,-143.73"/>
<polygon fill="#63b8ff" stroke="#63b8ff" points="312,-143.81 308.5,-133.81 305,-143.81 312,-143.81"/>
</a>
</g>
</g>
<!-- Node9 -->
<g id="Node000009" class="node">
<title>Node9</title>
<g id="a_Node000009"><a xlink:title=" ">
<polygon fill="#e0e0e0" stroke="#999999" points="411.75,-132 349.25,-132 349.25,-112 411.75,-112 411.75,-132"/>
<text xml:space="preserve" text-anchor="middle" x="380.5" y="-118.5" font-family="Helvetica,sans-Serif" font-size="10.00">windows.h</text>
</a>
</g>
</g>
<!-- Node1&#45;&gt;Node9 -->
<g id="edge8_Node000001_Node000009" class="edge">
<title>Node1&#45;&gt;Node9</title>
<g id="a_edge8_Node000001_Node000009"><a xlink:title=" ">
<path fill="none" stroke="#63b8ff" d="M321.04,-167.59C331.47,-159.77 346.55,-148.46 358.91,-139.19"/>
<polygon fill="#63b8ff" stroke="#63b8ff" points="360.99,-142.01 366.89,-133.21 356.79,-136.41 360.99,-142.01"/>
</a>
</g>
</g>
<!-- Node10 -->
<g id="Node000010" class="node">
<title>Node10</title>
<g id="a_Node000010"><a xlink:title=" ">
<polygon fill="#e0e0e0" stroke="#999999" points="495.25,-132 429.75,-132 429.75,-112 495.25,-112 495.25,-132"/>
<text xml:space="preserve" text-anchor="middle" x="462.5" y="-118.5" font-family="Helvetica,sans-Serif" font-size="10.00">winsock2.h</text>
</a>
</g>
</g>
<!-- Node1&#45;&gt;Node10 -->
<g id="edge9_Node000001_Node000010" class="edge">
<title>Node1&#45;&gt;Node10</title>
<g id="a_edge9_Node000001_Node000010"><a xlink:title=" ">
<path fill="none" stroke="#63b8ff" d="M335.32,-167.59C360.13,-158.9 397.23,-145.89 424.97,-136.16"/>
<polygon fill="#63b8ff" stroke="#63b8ff" points="425.76,-139.59 434.04,-132.98 423.44,-132.99 425.76,-139.59"/>
</a>
</g>
</g>
<!-- Node11 -->
<g id="Node000011" class="node">
<title>Node11</title>
<g id="a_Node000011"><a xlink:title=" ">
<polygon fill="#e0e0e0" stroke="#999999" points="570.12,-132 512.88,-132 512.88,-112 570.12,-112 570.12,-132"/>
<text xml:space="preserve" text-anchor="middle" x="541.5" y="-118.5" font-family="Helvetica,sans-Serif" font-size="10.00">iphlpapi.h</text>
</a>
</g>
</g>
<!-- Node1&#45;&gt;Node11 -->
<g id="edge10_Node000001_Node000011" class="edge">
<title>Node1&#45;&gt;Node11</title>
<g id="a_edge10_Node000001_Node000011"><a xlink:title=" ">
<path fill="none" stroke="#63b8ff" d="M350.59,-167.5C387.9,-159.04 444.17,-146.2 501.36,-132.72"/>
<polygon fill="#63b8ff" stroke="#63b8ff" points="502.02,-136.16 510.95,-130.46 500.41,-129.35 502.02,-136.16"/>
</a>
</g>
</g>
<!-- Node3 -->
<g id="Node000003" class="node">
<title>Node3</title>
<g id="a_Node000003"><a xlink:href="sv__native_8h.html" target="_top" xlink:title="Header for Tauri FFI &#45; C interface for Rust.">
<polygon fill="white" stroke="#666666" points="105.62,-76 39.38,-76 39.38,-56 105.62,-56 105.62,-76"/>
<text xml:space="preserve" text-anchor="middle" x="72.5" y="-62.5" font-family="Helvetica,sans-Serif" font-size="10.00">sv_native.h</text>
</a>
</g>
</g>
<!-- Node2&#45;&gt;Node3 -->
<g id="edge2_Node000002_Node000003" class="edge">
<title>Node2&#45;&gt;Node3</title>
<g id="a_edge2_Node000002_Node000003"><a xlink:title=" ">
<path fill="none" stroke="#63b8ff" d="M72.5,-111.59C72.5,-105.01 72.5,-95.96 72.5,-87.73"/>
<polygon fill="#63b8ff" stroke="#63b8ff" points="76,-87.81 72.5,-77.81 69,-87.81 76,-87.81"/>
</a>
</g>
</g>
<!-- Node4 -->
<g id="Node000004" class="node">
<title>Node4</title>
<g id="a_Node000004"><a xlink:title=" ">
<polygon fill="#e0e0e0" stroke="#999999" points="62.62,-20 14.38,-20 14.38,0 62.62,0 62.62,-20"/>
<text xml:space="preserve" text-anchor="middle" x="38.5" y="-6.5" font-family="Helvetica,sans-Serif" font-size="10.00">stdint.h</text>
</a>
</g>
</g>
<!-- Node3&#45;&gt;Node4 -->
<g id="edge3_Node000003_Node000004" class="edge">
<title>Node3&#45;&gt;Node4</title>
<g id="a_edge3_Node000003_Node000004"><a xlink:title=" ">
<path fill="none" stroke="#63b8ff" d="M66.58,-55.59C62.14,-48.55 55.92,-38.67 50.46,-30"/>
<polygon fill="#63b8ff" stroke="#63b8ff" points="53.45,-28.18 45.16,-21.58 47.53,-31.91 53.45,-28.18"/>
</a>
</g>
</g>
<!-- Node5 -->
<g id="Node000005" class="node">
<title>Node5</title>
<g id="a_Node000005"><a xlink:title=" ">
<polygon fill="#e0e0e0" stroke="#999999" points="132.12,-20 80.88,-20 80.88,0 132.12,0 132.12,-20"/>
<text xml:space="preserve" text-anchor="middle" x="106.5" y="-6.5" font-family="Helvetica,sans-Serif" font-size="10.00">stddef.h</text>
</a>
</g>
</g>
<!-- Node3&#45;&gt;Node5 -->
<g id="edge4_Node000003_Node000005" class="edge">
<title>Node3&#45;&gt;Node5</title>
<g id="a_edge4_Node000003_Node000005"><a xlink:title=" ">
<path fill="none" stroke="#63b8ff" d="M78.42,-55.59C82.86,-48.55 89.08,-38.67 94.54,-30"/>
<polygon fill="#63b8ff" stroke="#63b8ff" points="97.47,-31.91 99.84,-21.58 91.55,-28.18 97.47,-31.91"/>
</a>
</g>
</g>
</g>
</svg>
