<?xml version="1.0" encoding="UTF-8" standalone="no"?>
<!DOCTYPE svg PUBLIC "-//W3C//DTD SVG 1.1//EN"
 "http://www.w3.org/Graphics/SVG/1.1/DTD/svg11.dtd">
<!-- Generated by graphviz version 14.1.2 (20260124.0452)
 -->
<!-- Title: npcap_sendqueue_available Pages: 1 -->
<svg width="567pt" height="66pt"
 viewBox="0.00 0.00 567.00 66.00" xmlns="http://www.w3.org/2000/svg" xmlns:xlink="http://www.w3.org/1999/xlink">
<g id="graph0" class="graph" transform="scale(1 1) rotate(0) translate(4 62)">
<title>npcap_sendqueue_available</title>
<!-- Node1 -->
<g id="Node000001" class="node">
<title>Node1</title>
<g id="a_Node000001"><a xlink:title="Check if SendQueue API is available.">
<polygon fill="#999999" stroke="#666666" points="559,-39 420.75,-39 420.75,-19 559,-19 559,-39"/>
<text xml:space="preserve" text-anchor="middle" x="489.88" y="-25.5" font-family="Helvetica,sans-Serif" font-size="10.00">npcap_sendqueue_available</text>
</a>
</g>
</g>
<!-- Node2 -->
<g id="Node000002" class="node">
<title>Node2</title>
<g id="a_Node000002"><a xlink:href="sv__native__refactored_8cc.html#af14f0670e1b30534e33524f8c49a5580" target="_top" xlink:title="Start publishing.">
<polygon fill="white" stroke="#666666" points="379.88,-58 268.62,-58 268.62,-38 379.88,-38 379.88,-58"/>
<text xml:space="preserve" text-anchor="middle" x="324.25" y="-44.5" font-family="Helvetica,sans-Serif" font-size="10.00">npcap_publisher_start</text>
</a>
</g>
</g>
<!-- Node1&#45;&gt;Node2 -->
<g id="edge1_Node000001_Node000002" class="edge">
<title>Node1&#45;&gt;Node2</title>
<g id="a_edge1_Node000001_Node000002"><a xlink:title=" ">
<path fill="none" stroke="#63b8ff" d="M409.04,-38.27C399.3,-39.4 389.52,-40.54 380.25,-41.61"/>
<polygon fill="#63b8ff" stroke="#63b8ff" points="409.4,-41.75 418.93,-37.12 408.59,-34.8 409.4,-41.75"/>
</a>
</g>
</g>
<!-- Node3 -->
<g id="Node000003" class="node">
<title>Node3</title>
<g id="a_Node000003"><a xlink:href="class_sv_controller.html#a30dfd716e1e85042e41a2299fac5711f" target="_top" xlink:title=" ">
<polygon fill="white" stroke="#666666" points="384.75,-20 263.75,-20 263.75,0 384.75,0 384.75,-20"/>
<text xml:space="preserve" text-anchor="middle" x="324.25" y="-6.5" font-family="Helvetica,sans-Serif" font-size="10.00">SvController::writerLoop</text>
</a>
</g>
</g>
<!-- Node1&#45;&gt;Node3 -->
<g id="edge2_Node000001_Node000003" class="edge">
<title>Node1&#45;&gt;Node3</title>
<g id="a_edge2_Node000001_Node000003"><a xlink:title=" ">
<path fill="none" stroke="#63b8ff" d="M409.07,-19.73C401,-18.8 392.9,-17.86 385.1,-16.95"/>
<polygon fill="#63b8ff" stroke="#63b8ff" points="408.59,-23.2 418.93,-20.88 409.4,-16.25 408.59,-23.2"/>
</a>
</g>
</g>
<!-- Node4 -->
<g id="Node000004" class="node">
<title>Node4</title>
<g id="a_Node000004"><a xlink:href="class_sv_controller.html#afc0ec922fad685082c626ca36cb764a8" target="_top" xlink:title=" ">
<polygon fill="white" stroke="#666666" points="227.75,-20 121,-20 121,0 227.75,0 227.75,-20"/>
<text xml:space="preserve" text-anchor="middle" x="174.38" y="-6.5" font-family="Helvetica,sans-Serif" font-size="10.00">SvController::startAll</text>
</a>
</g>
</g>
<!-- Node3&#45;&gt;Node4 -->
<g id="edge3_Node000003_Node000004" class="edge">
<title>Node3&#45;&gt;Node4</title>
<g id="a_edge3_Node000003_Node000004"><a xlink:title=" ">
<path fill="none" stroke="#63b8ff" d="M252.17,-10C244.09,-10 235.96,-10 228.17,-10"/>
<polygon fill="#63b8ff" stroke="#63b8ff" points="252.02,-13.5 262.02,-10 252.02,-6.5 252.02,-13.5"/>
</a>
</g>
</g>
<!-- Node5 -->
<g id="Node000005" class="node">
<title>Node5</title>
<g id="a_Node000005"><a xlink:href="sv__controller_8cc.html#a1b6b0344797b9edf84722fde0e1c660a" target="_top" xlink:title=" ">
<polygon fill="white" stroke="#666666" points="85,-20 0,-20 0,0 85,0 85,-20"/>
<text xml:space="preserve" text-anchor="middle" x="42.5" y="-6.5" font-family="Helvetica,sans-Serif" font-size="10.00">sv_mp_start_all</text>
</a>
</g>
</g>
<!-- Node4&#45;&gt;Node5 -->
<g id="edge4_Node000004_Node000005" class="edge">
<title>Node4&#45;&gt;Node5</title>
<g id="a_edge4_Node000004_Node000005"><a xlink:title=" ">
<path fill="none" stroke="#63b8ff" d="M109.1,-10C100.95,-10 92.79,-10 85.13,-10"/>
<polygon fill="#63b8ff" stroke="#63b8ff" points="109.04,-13.5 119.04,-10 109.04,-6.5 109.04,-13.5"/>
</a>
</g>
</g>
</g>
</svg>
