<?xml version="1.0" encoding="UTF-8" standalone="no"?>
<!DOCTYPE svg PUBLIC "-//W3C//DTD SVG 1.1//EN"
 "http://www.w3.org/Graphics/SVG/1.1/DTD/svg11.dtd">
<!-- Generated by graphviz version 14.1.2 (20260124.0452)
 -->
<!-- Title: free_frame_cache Pages: 1 -->
<svg width="705pt" height="140pt"
 viewBox="0.00 0.00 705.00 140.00" xmlns="http://www.w3.org/2000/svg" xmlns:xlink="http://www.w3.org/1999/xlink">
<g id="graph0" class="graph" transform="scale(1 1) rotate(0) translate(4 136)">
<title>free_frame_cache</title>
<!-- Node1 -->
<g id="Node000001" class="node">
<title>Node1</title>
<g id="a_Node000001"><a xlink:title=" ">
<polygon fill="#999999" stroke="#666666" points="697.25,-39 603.25,-39 603.25,-19 697.25,-19 697.25,-39"/>
<text xml:space="preserve" text-anchor="middle" x="650.25" y="-25.5" font-family="Helvetica,sans-Serif" font-size="10.00">free_frame_cache</text>
</a>
</g>
</g>
<!-- Node2 -->
<g id="Node000002" class="node">
<title>Node2</title>
<g id="a_Node000002"><a xlink:href="sv__native__refactored_8cc.html#a2f554ded106c1391e42b140e22584fb3" target="_top" xlink:title=" ">
<polygon fill="white" stroke="#666666" points="560.88,-58 463.12,-58 463.12,-38 560.88,-38 560.88,-58"/>
<text xml:space="preserve" text-anchor="middle" x="512" y="-44.5" font-family="Helvetica,sans-Serif" font-size="10.00">alloc_frame_cache</text>
</a>
</g>
</g>
<!-- Node1&#45;&gt;Node2 -->
<g id="edge1_Node000001_Node000002" class="edge">
<title>Node1&#45;&gt;Node2</title>
<g id="a_edge1_Node000001_Node000002"><a xlink:title=" ">
<path fill="none" stroke="#63b8ff" d="M591.73,-37.02C581.48,-38.45 570.89,-39.93 560.94,-41.31"/>
<polygon fill="#63b8ff" stroke="#63b8ff" points="592.2,-40.49 601.62,-35.64 591.24,-33.56 592.2,-40.49"/>
</a>
</g>
</g>
<!-- Node7 -->
<g id="Node000007" class="node">
<title>Node7</title>
<g id="a_Node000007"><a xlink:href="sv__native__refactored_8cc.html#afc51a55f01e77fb4264498f176d9438e" target="_top" xlink:title="Stop publishing.">
<polygon fill="white" stroke="#666666" points="567.25,-20 456.75,-20 456.75,0 567.25,0 567.25,-20"/>
<text xml:space="preserve" text-anchor="middle" x="512" y="-6.5" font-family="Helvetica,sans-Serif" font-size="10.00">npcap_publisher_stop</text>
</a>
</g>
</g>
<!-- Node1&#45;&gt;Node7 -->
<g id="edge9_Node000001_Node000007" class="edge">
<title>Node1&#45;&gt;Node7</title>
<g id="a_edge9_Node000001_Node000007"><a xlink:title=" ">
<path fill="none" stroke="#63b8ff" d="M591.91,-21C583.84,-19.88 575.57,-18.73 567.56,-17.61"/>
<polygon fill="#63b8ff" stroke="#63b8ff" points="591.24,-24.44 601.62,-22.36 592.2,-17.51 591.24,-24.44"/>
</a>
</g>
</g>
<!-- Node3 -->
<g id="Node000003" class="node">
<title>Node3</title>
<g id="a_Node000003"><a xlink:href="sv__native__refactored_8cc.html#a7e6a8d1afed7cf1fc23dc37a7e5d872a" target="_top" xlink:title=" ">
<polygon fill="white" stroke="#666666" points="408.75,-58 323.75,-58 323.75,-38 408.75,-38 408.75,-58"/>
<text xml:space="preserve" text-anchor="middle" x="366.25" y="-44.5" font-family="Helvetica,sans-Serif" font-size="10.00">prebuild_frames</text>
</a>
</g>
</g>
<!-- Node2&#45;&gt;Node3 -->
<g id="edge2_Node000002_Node000003" class="edge">
<title>Node2&#45;&gt;Node3</title>
<g id="a_edge2_Node000002_Node000003"><a xlink:title=" ">
<path fill="none" stroke="#63b8ff" d="M451.45,-48C437.15,-48 422.18,-48 408.9,-48"/>
<polygon fill="#63b8ff" stroke="#63b8ff" points="451.22,-51.5 461.22,-48 451.22,-44.5 451.22,-51.5"/>
</a>
</g>
</g>
<!-- Node4 -->
<g id="Node000004" class="node">
<title>Node4</title>
<g id="a_Node000004"><a xlink:href="sv__native__refactored_8cc.html#a186b6b16f2d04a7fd9c7da099fac4fa5" target="_top" xlink:title=" ">
<polygon fill="white" stroke="#666666" points="265.25,-114 157.75,-114 157.75,-94 265.25,-94 265.25,-114"/>
<text xml:space="preserve" text-anchor="middle" x="211.5" y="-100.5" font-family="Helvetica,sans-Serif" font-size="10.00">publisher_loop_batch</text>
</a>
</g>
</g>
<!-- Node3&#45;&gt;Node4 -->
<g id="edge3_Node000003_Node000004" class="edge">
<title>Node3&#45;&gt;Node4</title>
<g id="a_edge3_Node000003_Node000004"><a xlink:title=" ">
<path fill="none" stroke="#63b8ff" d="M331.61,-62.84C314.96,-69.95 294.46,-78.34 275.75,-85 267.32,-88 258.16,-90.93 249.49,-93.57"/>
<polygon fill="#63b8ff" stroke="#63b8ff" points="332.76,-66.16 340.56,-58.99 329.99,-59.73 332.76,-66.16"/>
</a>
</g>
</g>
<!-- Node6 -->
<g id="Node000006" class="node">
<title>Node6</title>
<g id="a_Node000006"><a xlink:href="sv__native__refactored_8cc.html#a27703afec602cc5af011d5661a53b510" target="_top" xlink:title=" ">
<polygon fill="white" stroke="#666666" points="275.75,-58 147.25,-58 147.25,-38 275.75,-38 275.75,-58"/>
<text xml:space="preserve" text-anchor="middle" x="211.5" y="-44.5" font-family="Helvetica,sans-Serif" font-size="10.00">publisher_loop_immediate</text>
</a>
</g>
</g>
<!-- Node3&#45;&gt;Node6 -->
<g id="edge6_Node000003_Node000006" class="edge">
<title>Node3&#45;&gt;Node6</title>
<g id="a_edge6_Node000003_Node000006"><a xlink:title=" ">
<path fill="none" stroke="#63b8ff" d="M312.15,-48C300.48,-48 288.01,-48 275.98,-48"/>
<polygon fill="#63b8ff" stroke="#63b8ff" points="312,-51.5 322,-48 312,-44.5 312,-51.5"/>
</a>
</g>
</g>
<!-- Node4&#45;&gt;Node4 -->
<g id="edge5_Node000004_Node000004" class="edge">
<title>Node4&#45;&gt;Node4</title>
<g id="a_edge5_Node000004_Node000004"><a xlink:title=" ">
<path fill="none" stroke="#63b8ff" d="M238.85,-125.44C235.33,-129.3 226.21,-132 211.5,-132 184.6,-132 176.4,-122.98 186.91,-114.34"/>
<polygon fill="#63b8ff" stroke="#63b8ff" points="242.26,-124.67 236.45,-115.81 235.47,-126.36 242.26,-124.67"/>
</a>
</g>
</g>
<!-- Node5 -->
<g id="Node000005" class="node">
<title>Node5</title>
<g id="a_Node000005"><a xlink:href="sv__native__refactored_8cc.html#af14f0670e1b30534e33524f8c49a5580" target="_top" xlink:title="Start publishing.">
<polygon fill="white" stroke="#666666" points="111.25,-86 0,-86 0,-66 111.25,-66 111.25,-86"/>
<text xml:space="preserve" text-anchor="middle" x="55.62" y="-72.5" font-family="Helvetica,sans-Serif" font-size="10.00">npcap_publisher_start</text>
</a>
</g>
</g>
<!-- Node4&#45;&gt;Node5 -->
<g id="edge4_Node000004_Node000005" class="edge">
<title>Node4&#45;&gt;Node5</title>
<g id="a_edge4_Node000004_Node000005"><a xlink:title=" ">
<path fill="none" stroke="#63b8ff" d="M146.55,-92.36C134.91,-90.24 122.86,-88.05 111.51,-85.99"/>
<polygon fill="#63b8ff" stroke="#63b8ff" points="145.59,-95.75 156.06,-94.09 146.84,-88.86 145.59,-95.75"/>
</a>
</g>
</g>
<!-- Node6&#45;&gt;Node5 -->
<g id="edge7_Node000006_Node000005" class="edge">
<title>Node6&#45;&gt;Node5</title>
<g id="a_edge7_Node000006_Node000005"><a xlink:title=" ">
<path fill="none" stroke="#63b8ff" d="M141.9,-60.48C131.78,-62.32 121.47,-64.2 111.67,-65.98"/>
<polygon fill="#63b8ff" stroke="#63b8ff" points="142.5,-63.93 151.71,-58.7 141.25,-57.04 142.5,-63.93"/>
</a>
</g>
</g>
<!-- Node6&#45;&gt;Node6 -->
<g id="edge8_Node000006_Node000006" class="edge">
<title>Node6&#45;&gt;Node6</title>
<g id="a_edge8_Node000006_Node000006"><a xlink:title=" ">
<path fill="none" stroke="#63b8ff" d="M238.85,-69.44C235.33,-73.3 226.21,-76 211.5,-76 184.6,-76 176.4,-66.98 186.91,-58.34"/>
<polygon fill="#63b8ff" stroke="#63b8ff" points="242.26,-68.67 236.45,-59.81 235.47,-70.36 242.26,-68.67"/>
</a>
</g>
</g>
<!-- Node8 -->
<g id="Node000008" class="node">
<title>Node8</title>
<g id="a_Node000008"><a xlink:href="class_sv_controller.html#ac173f4f124e0394b58014d7e3e41f78d" target="_top" xlink:title=" ">
<polygon fill="white" stroke="#666666" points="420.75,-20 311.75,-20 311.75,0 420.75,0 420.75,-20"/>
<text xml:space="preserve" text-anchor="middle" x="366.25" y="-6.5" font-family="Helvetica,sans-Serif" font-size="10.00">SvController::resetAll</text>
</a>
</g>
</g>
<!-- Node7&#45;&gt;Node8 -->
<g id="edge10_Node000007_Node000008" class="edge">
<title>Node7&#45;&gt;Node8</title>
<g id="a_edge10_Node000007_Node000008"><a xlink:title=" ">
<path fill="none" stroke="#63b8ff" d="M445.34,-10C437.26,-10 429.08,-10 421.2,-10"/>
<polygon fill="#63b8ff" stroke="#63b8ff" points="445.14,-13.5 455.14,-10 445.14,-6.5 445.14,-13.5"/>
</a>
</g>
</g>
<!-- Node9 -->
<g id="Node000009" class="node">
<title>Node9</title>
<g id="a_Node000009"><a xlink:href="sv__controller_8cc.html#a5a4e1896309f676cd254911b12b1ab77" target="_top" xlink:title=" ">
<polygon fill="white" stroke="#666666" points="255.12,-20 167.88,-20 167.88,0 255.12,0 255.12,-20"/>
<text xml:space="preserve" text-anchor="middle" x="211.5" y="-6.5" font-family="Helvetica,sans-Serif" font-size="10.00">sv_mp_reset_all</text>
</a>
</g>
</g>
<!-- Node8&#45;&gt;Node9 -->
<g id="edge11_Node000008_Node000009" class="edge">
<title>Node8&#45;&gt;Node9</title>
<g id="a_edge11_Node000008_Node000009"><a xlink:title=" ">
<path fill="none" stroke="#63b8ff" d="M300,-10C284.89,-10 269.19,-10 255.33,-10"/>
<polygon fill="#63b8ff" stroke="#63b8ff" points="299.88,-13.5 309.88,-10 299.88,-6.5 299.88,-13.5"/>
</a>
</g>
</g>
</g>
</svg>
