<?xml version="1.0" encoding="UTF-8" standalone="no"?>
<!DOCTYPE svg PUBLIC "-//W3C//DTD SVG 1.1//EN"
 "http://www.w3.org/Graphics/SVG/1.1/DTD/svg11.dtd">
<!-- Generated by graphviz version 14.1.2 (20260124.0452)
 -->
<!-- Title: sv_mp_configure_publisher Pages: 1 -->
<svg width="503pt" height="66pt"
 viewBox="0.00 0.00 503.00 66.00" xmlns="http://www.w3.org/2000/svg" xmlns:xlink="http://www.w3.org/1999/xlink">
<g id="graph0" class="graph" transform="scale(1 1) rotate(0) translate(4 62)">
<title>sv_mp_configure_publisher</title>
<!-- Node1 -->
<g id="Node000001" class="node">
<title>Node1</title>
<g id="a_Node000001"><a xlink:title=" ">
<polygon fill="#999999" stroke="#666666" points="134.5,-39 0,-39 0,-19 134.5,-19 134.5,-39"/>
<text xml:space="preserve" text-anchor="middle" x="67.25" y="-25.5" font-family="Helvetica,sans-Serif" font-size="10.00">sv_mp_configure_publisher</text>
</a>
</g>
</g>
<!-- Node2 -->
<g id="Node000002" class="node">
<title>Node2</title>
<g id="a_Node000002"><a xlink:href="class_sv_controller.html#ab944012e84223042f41a82ef24d71389" target="_top" xlink:title=" ">
<polygon fill="white" stroke="#666666" points="326.75,-58 170.5,-58 170.5,-38 326.75,-38 326.75,-58"/>
<text xml:space="preserve" text-anchor="middle" x="248.62" y="-44.5" font-family="Helvetica,sans-Serif" font-size="10.00">SvController::configurePublisher</text>
</a>
</g>
</g>
<!-- Node1&#45;&gt;Node2 -->
<g id="edge1_Node000001_Node000002" class="edge">
<title>Node1&#45;&gt;Node2</title>
<g id="a_edge1_Node000001_Node000002"><a xlink:title=" ">
<path fill="none" stroke="#63b8ff" d="M134.79,-36.05C142.65,-36.88 150.76,-37.74 158.87,-38.6"/>
<polygon fill="#63b8ff" stroke="#63b8ff" points="158.48,-42.08 168.79,-39.65 159.21,-35.12 158.48,-42.08"/>
</a>
</g>
</g>
<!-- Node4 -->
<g id="Node000004" class="node">
<title>Node4</title>
<g id="a_Node000004"><a xlink:href="class_sv_controller.html#afc102679fe80499c39d27cb8640394cc" target="_top" xlink:title=" ">
<polygon fill="white" stroke="#666666" points="305,-20 192.25,-20 192.25,0 305,0 305,-20"/>
<text xml:space="preserve" text-anchor="middle" x="248.62" y="-6.5" font-family="Helvetica,sans-Serif" font-size="10.00">SvController::instance</text>
</a>
</g>
</g>
<!-- Node1&#45;&gt;Node4 -->
<g id="edge3_Node000001_Node000004" class="edge">
<title>Node1&#45;&gt;Node4</title>
<g id="a_edge3_Node000001_Node000004"><a xlink:title=" ">
<path fill="none" stroke="#63b8ff" d="M134.79,-21.95C149.72,-20.37 165.58,-18.69 180.54,-17.11"/>
<polygon fill="#63b8ff" stroke="#63b8ff" points="180.69,-20.61 190.27,-16.08 179.96,-13.65 180.69,-20.61"/>
</a>
</g>
</g>
<!-- Node3 -->
<g id="Node000003" class="node">
<title>Node3</title>
<g id="a_Node000003"><a xlink:href="class_sv_controller.html#a72d12914c561f72b1d483dde8de441dd" target="_top" xlink:title=" ">
<polygon fill="white" stroke="#666666" points="495,-58 362.75,-58 362.75,-38 495,-38 495,-58"/>
<text xml:space="preserve" text-anchor="middle" x="428.88" y="-44.5" font-family="Helvetica,sans-Serif" font-size="10.00">SvController::findPublisher</text>
</a>
</g>
</g>
<!-- Node2&#45;&gt;Node3 -->
<g id="edge2_Node000002_Node000003" class="edge">
<title>Node2&#45;&gt;Node3</title>
<g id="a_edge2_Node000002_Node000003"><a xlink:title=" ">
<path fill="none" stroke="#63b8ff" d="M327.03,-48C334.92,-48 342.94,-48 350.82,-48"/>
<polygon fill="#63b8ff" stroke="#63b8ff" points="350.74,-51.5 360.74,-48 350.74,-44.5 350.74,-51.5"/>
</a>
</g>
</g>
<!-- Node5 -->
<g id="Node000005" class="node">
<title>Node5</title>
<g id="a_Node000005"><a xlink:href="class_sv_controller.html#aa5d7c635a8015c90217076cf4722542c" target="_top" xlink:title=" ">
<polygon fill="white" stroke="#666666" points="493.88,-20 363.88,-20 363.88,0 493.88,0 493.88,-20"/>
<text xml:space="preserve" text-anchor="middle" x="428.88" y="-6.5" font-family="Helvetica,sans-Serif" font-size="10.00">SvController::SvController</text>
</a>
</g>
</g>
<!-- Node4&#45;&gt;Node5 -->
<g id="edge4_Node000004_Node000005" class="edge">
<title>Node4&#45;&gt;Node5</title>
<g id="a_edge4_Node000004_Node000005"><a xlink:title=" ">
<path fill="none" stroke="#63b8ff" d="M305.05,-10C319.93,-10 336.29,-10 352.07,-10"/>
<polygon fill="#63b8ff" stroke="#63b8ff" points="351.92,-13.5 361.92,-10 351.92,-6.5 351.92,-13.5"/>
</a>
</g>
</g>
</g>
</svg>
