<?xml version="1.0" encoding="UTF-8" standalone="no"?>
<!DOCTYPE svg PUBLIC "-//W3C//DTD SVG 1.1//EN"
 "http://www.w3.org/Graphics/SVG/1.1/DTD/svg11.dtd">
<!-- Generated by graphviz version 14.1.2 (20260124.0452)
 -->
<!-- Title: npcap_stats_reset Pages: 1 -->
<svg width="690pt" height="314pt"
 viewBox="0.00 0.00 690.00 314.00" xmlns="http://www.w3.org/2000/svg" xmlns:xlink="http://www.w3.org/1999/xlink">
<g id="graph0" class="graph" transform="scale(1 1) rotate(0) translate(4 310)">
<title>npcap_stats_reset</title>
<!-- Node1 -->
<g id="Node000001" class="node">
<title>Node1</title>
<g id="a_Node000001"><a xlink:title="Reset all statistics to zero.">
<polygon fill="#999999" stroke="#666666" points="681.5,-175 585.25,-175 585.25,-155 681.5,-155 681.5,-175"/>
<text xml:space="preserve" text-anchor="middle" x="633.38" y="-161.5" font-family="Helvetica,sans-Serif" font-size="10.00">npcap_stats_reset</text>
</a>
</g>
</g>
<!-- Node2 -->
<g id="Node000002" class="node">
<title>Node2</title>
<g id="a_Node000002"><a xlink:href="sv__native__refactored_8cc.html#a186b6b16f2d04a7fd9c7da099fac4fa5" target="_top" xlink:title=" ">
<polygon fill="white" stroke="#666666" points="538.75,-288 431.25,-288 431.25,-268 538.75,-268 538.75,-288"/>
<text xml:space="preserve" text-anchor="middle" x="485" y="-274.5" font-family="Helvetica,sans-Serif" font-size="10.00">publisher_loop_batch</text>
</a>
</g>
</g>
<!-- Node1&#45;&gt;Node2 -->
<g id="edge1_Node000001_Node000002" class="edge">
<title>Node1&#45;&gt;Node2</title>
<g id="a_edge1_Node000001_Node000002"><a xlink:title=" ">
<path fill="none" stroke="#63b8ff" d="M619.81,-184.84C605.31,-206.18 579.53,-239.62 549.25,-259 543.94,-262.4 537.99,-265.21 531.92,-267.54"/>
<polygon fill="#63b8ff" stroke="#63b8ff" points="622.58,-187 625.16,-176.72 616.73,-183.15 622.58,-187"/>
</a>
</g>
</g>
<!-- Node4 -->
<g id="Node000004" class="node">
<title>Node4</title>
<g id="a_Node000004"><a xlink:href="sv__native__refactored_8cc.html#a27703afec602cc5af011d5661a53b510" target="_top" xlink:title=" ">
<polygon fill="white" stroke="#666666" points="549.25,-232 420.75,-232 420.75,-212 549.25,-212 549.25,-232"/>
<text xml:space="preserve" text-anchor="middle" x="485" y="-218.5" font-family="Helvetica,sans-Serif" font-size="10.00">publisher_loop_immediate</text>
</a>
</g>
</g>
<!-- Node1&#45;&gt;Node4 -->
<g id="edge4_Node000001_Node000004" class="edge">
<title>Node1&#45;&gt;Node4</title>
<g id="a_edge4_Node000001_Node000004"><a xlink:title=" ">
<path fill="none" stroke="#63b8ff" d="M601.47,-180.35C586,-187.72 566.86,-196.36 549.25,-203 541.1,-206.07 532.21,-208.99 523.74,-211.59"/>
<polygon fill="#63b8ff" stroke="#63b8ff" points="602.68,-183.65 610.17,-176.15 599.64,-177.35 602.68,-183.65"/>
</a>
</g>
</g>
<!-- Node5 -->
<g id="Node000005" class="node">
<title>Node5</title>
<g id="a_Node000005"><a xlink:href="sv__native__refactored_8cc.html#ae2056b20c01b052837592dc341ce314e" target="_top" xlink:title=" ">
<polygon fill="white" stroke="#666666" points="539.5,-194 430.5,-194 430.5,-174 539.5,-174 539.5,-194"/>
<text xml:space="preserve" text-anchor="middle" x="485" y="-180.5" font-family="Helvetica,sans-Serif" font-size="10.00">publisher_loop_single</text>
</a>
</g>
</g>
<!-- Node1&#45;&gt;Node5 -->
<g id="edge7_Node000001_Node000005" class="edge">
<title>Node1&#45;&gt;Node5</title>
<g id="a_edge7_Node000001_Node000005"><a xlink:title=" ">
<path fill="none" stroke="#63b8ff" d="M573.49,-172.64C562.39,-174.08 550.83,-175.59 539.88,-177.01"/>
<polygon fill="#63b8ff" stroke="#63b8ff" points="573.88,-176.12 583.35,-171.36 572.98,-169.18 573.88,-176.12"/>
</a>
</g>
</g>
<!-- Node6 -->
<g id="Node000006" class="node">
<title>Node6</title>
<g id="a_Node000006"><a xlink:href="class_sv_controller.html#ac173f4f124e0394b58014d7e3e41f78d" target="_top" xlink:title=" ">
<polygon fill="white" stroke="#666666" points="539.5,-156 430.5,-156 430.5,-136 539.5,-136 539.5,-156"/>
<text xml:space="preserve" text-anchor="middle" x="485" y="-142.5" font-family="Helvetica,sans-Serif" font-size="10.00">SvController::resetAll</text>
</a>
</g>
</g>
<!-- Node1&#45;&gt;Node6 -->
<g id="edge9_Node000001_Node000006" class="edge">
<title>Node1&#45;&gt;Node6</title>
<g id="a_edge9_Node000001_Node000006"><a xlink:title=" ">
<path fill="none" stroke="#63b8ff" d="M573.49,-157.36C562.39,-155.92 550.83,-154.41 539.88,-152.99"/>
<polygon fill="#63b8ff" stroke="#63b8ff" points="572.98,-160.82 583.35,-158.64 573.88,-153.88 572.98,-160.82"/>
</a>
</g>
</g>
<!-- Node8 -->
<g id="Node000008" class="node">
<title>Node8</title>
<g id="a_Node000008"><a xlink:href="class_sv_controller.html#ab8c8181a6f1a3db44e42d2d1dcd3e2ff" target="_top" xlink:title=" ">
<polygon fill="white" stroke="#666666" points="545.5,-100 424.5,-100 424.5,-68 545.5,-68 545.5,-100"/>
<text xml:space="preserve" text-anchor="start" x="432.5" y="-86.5" font-family="Helvetica,sans-Serif" font-size="10.00">SvController::writerLoop</text>
<text xml:space="preserve" text-anchor="middle" x="485" y="-74.5" font-family="Helvetica,sans-Serif" font-size="10.00">Batch</text>
</a>
</g>
</g>
<!-- Node1&#45;&gt;Node8 -->
<g id="edge11_Node000001_Node000008" class="edge">
<title>Node1&#45;&gt;Node8</title>
<g id="a_edge11_Node000001_Node000008"><a xlink:title=" ">
<path fill="none" stroke="#63b8ff" d="M603.76,-149.16C578.35,-135.1 541.37,-114.64 515.66,-100.41"/>
<polygon fill="#63b8ff" stroke="#63b8ff" points="601.77,-152.06 612.21,-153.84 605.16,-145.94 601.77,-152.06"/>
</a>
</g>
</g>
<!-- Node12 -->
<g id="Node000012" class="node">
<title>Node12</title>
<g id="a_Node000012"><a xlink:href="class_sv_controller.html#ab18faef1f888c015ba3850d11320b4a5" target="_top" xlink:title=" ">
<polygon fill="white" stroke="#666666" points="545.5,-32 424.5,-32 424.5,0 545.5,0 545.5,-32"/>
<text xml:space="preserve" text-anchor="start" x="432.5" y="-18.5" font-family="Helvetica,sans-Serif" font-size="10.00">SvController::writerLoop</text>
<text xml:space="preserve" text-anchor="middle" x="485" y="-6.5" font-family="Helvetica,sans-Serif" font-size="10.00">Immediate</text>
</a>
</g>
</g>
<!-- Node1&#45;&gt;Node12 -->
<g id="edge16_Node000001_Node000012" class="edge">
<title>Node1&#45;&gt;Node12</title>
<g id="a_edge16_Node000001_Node000012"><a xlink:title=" ">
<path fill="none" stroke="#63b8ff" d="M619.7,-145.33C604.62,-122.86 577.87,-85.74 549.25,-59 538.67,-49.12 525.64,-39.86 514.15,-32.48"/>
<polygon fill="#63b8ff" stroke="#63b8ff" points="616.68,-147.12 625.11,-153.55 622.53,-143.27 616.68,-147.12"/>
</a>
</g>
</g>
<!-- Node2&#45;&gt;Node2 -->
<g id="edge3_Node000002_Node000002" class="edge">
<title>Node2&#45;&gt;Node2</title>
<g id="a_edge3_Node000002_Node000002"><a xlink:title=" ">
<path fill="none" stroke="#63b8ff" d="M511.22,-299.44C507.85,-303.3 499.1,-306 485,-306 459.21,-306 451.35,-296.98 461.42,-288.34"/>
<polygon fill="#63b8ff" stroke="#63b8ff" points="514.65,-298.73 508.93,-289.81 507.84,-300.35 514.65,-298.73"/>
</a>
</g>
</g>
<!-- Node3 -->
<g id="Node000003" class="node">
<title>Node3</title>
<g id="a_Node000003"><a xlink:href="sv__native__refactored_8cc.html#af14f0670e1b30534e33524f8c49a5580" target="_top" xlink:title="Start publishing.">
<polygon fill="white" stroke="#666666" points="379.88,-232 268.62,-232 268.62,-212 379.88,-212 379.88,-232"/>
<text xml:space="preserve" text-anchor="middle" x="324.25" y="-218.5" font-family="Helvetica,sans-Serif" font-size="10.00">npcap_publisher_start</text>
</a>
</g>
</g>
<!-- Node2&#45;&gt;Node3 -->
<g id="edge2_Node000002_Node000003" class="edge">
<title>Node2&#45;&gt;Node3</title>
<g id="a_edge2_Node000002_Node000003"><a xlink:title=" ">
<path fill="none" stroke="#63b8ff" d="M436.52,-264.18C431.18,-262.49 425.84,-260.75 420.75,-259 396.7,-250.74 369.72,-240.17 350.59,-232.44"/>
<polygon fill="#63b8ff" stroke="#63b8ff" points="435.35,-267.48 445.94,-267.08 437.42,-260.79 435.35,-267.48"/>
</a>
</g>
</g>
<!-- Node4&#45;&gt;Node3 -->
<g id="edge5_Node000004_Node000003" class="edge">
<title>Node4&#45;&gt;Node3</title>
<g id="a_edge5_Node000004_Node000003"><a xlink:title=" ">
<path fill="none" stroke="#63b8ff" d="M409.03,-222C399.32,-222 389.53,-222 380.23,-222"/>
<polygon fill="#63b8ff" stroke="#63b8ff" points="408.83,-225.5 418.83,-222 408.83,-218.5 408.83,-225.5"/>
</a>
</g>
</g>
<!-- Node4&#45;&gt;Node4 -->
<g id="edge6_Node000004_Node000004" class="edge">
<title>Node4&#45;&gt;Node4</title>
<g id="a_edge6_Node000004_Node000004"><a xlink:title=" ">
<path fill="none" stroke="#63b8ff" d="M511.22,-243.44C507.85,-247.3 499.1,-250 485,-250 459.21,-250 451.35,-240.98 461.42,-232.34"/>
<polygon fill="#63b8ff" stroke="#63b8ff" points="514.65,-242.73 508.93,-233.81 507.84,-244.35 514.65,-242.73"/>
</a>
</g>
</g>
<!-- Node5&#45;&gt;Node3 -->
<g id="edge8_Node000005_Node000003" class="edge">
<title>Node5&#45;&gt;Node3</title>
<g id="a_edge8_Node000005_Node000003"><a xlink:title=" ">
<path fill="none" stroke="#63b8ff" d="M429.21,-197.12C409.5,-201.83 387.54,-207.09 368.91,-211.55"/>
<polygon fill="#63b8ff" stroke="#63b8ff" points="429.82,-200.57 438.73,-194.84 428.19,-193.76 429.82,-200.57"/>
</a>
</g>
</g>
<!-- Node7 -->
<g id="Node000007" class="node">
<title>Node7</title>
<g id="a_Node000007"><a xlink:href="sv__controller_8cc.html#a5a4e1896309f676cd254911b12b1ab77" target="_top" xlink:title=" ">
<polygon fill="white" stroke="#666666" points="367.88,-156 280.62,-156 280.62,-136 367.88,-136 367.88,-156"/>
<text xml:space="preserve" text-anchor="middle" x="324.25" y="-142.5" font-family="Helvetica,sans-Serif" font-size="10.00">sv_mp_reset_all</text>
</a>
</g>
</g>
<!-- Node6&#45;&gt;Node7 -->
<g id="edge10_Node000006_Node000007" class="edge">
<title>Node6&#45;&gt;Node7</title>
<g id="a_edge10_Node000006_Node000007"><a xlink:title=" ">
<path fill="none" stroke="#63b8ff" d="M419.14,-146C401.96,-146 383.85,-146 368.16,-146"/>
<polygon fill="#63b8ff" stroke="#63b8ff" points="418.74,-149.5 428.74,-146 418.74,-142.5 418.74,-149.5"/>
</a>
</g>
</g>
<!-- Node8&#45;&gt;Node8 -->
<g id="edge15_Node000008_Node000008" class="edge">
<title>Node8&#45;&gt;Node8</title>
<g id="a_edge15_Node000008_Node000008"><a xlink:title=" ">
<path fill="none" stroke="#63b8ff" d="M509.73,-111.71C505.6,-115.48 497.36,-118 485,-118 462.4,-118 453.57,-109.58 458.51,-100.44"/>
<polygon fill="#63b8ff" stroke="#63b8ff" points="513.17,-112.36 511.26,-101.94 506.25,-111.28 513.17,-112.36"/>
</a>
</g>
</g>
<!-- Node9 -->
<g id="Node000009" class="node">
<title>Node9</title>
<g id="a_Node000009"><a xlink:href="class_sv_controller.html#a30dfd716e1e85042e41a2299fac5711f" target="_top" xlink:title=" ">
<polygon fill="white" stroke="#666666" points="384.75,-60 263.75,-60 263.75,-40 384.75,-40 384.75,-60"/>
<text xml:space="preserve" text-anchor="middle" x="324.25" y="-46.5" font-family="Helvetica,sans-Serif" font-size="10.00">SvController::writerLoop</text>
</a>
</g>
</g>
<!-- Node8&#45;&gt;Node9 -->
<g id="edge12_Node000008_Node000009" class="edge">
<title>Node8&#45;&gt;Node9</title>
<g id="a_edge12_Node000008_Node000009"><a xlink:title=" ">
<path fill="none" stroke="#63b8ff" d="M413.44,-68.89C400.21,-66.06 386.66,-63.15 374.27,-60.5"/>
<polygon fill="#63b8ff" stroke="#63b8ff" points="412.44,-72.25 422.96,-70.93 413.91,-65.41 412.44,-72.25"/>
</a>
</g>
</g>
<!-- Node10 -->
<g id="Node000010" class="node">
<title>Node10</title>
<g id="a_Node000010"><a xlink:href="class_sv_controller.html#afc0ec922fad685082c626ca36cb764a8" target="_top" xlink:title=" ">
<polygon fill="white" stroke="#666666" points="227.75,-60 121,-60 121,-40 227.75,-40 227.75,-60"/>
<text xml:space="preserve" text-anchor="middle" x="174.38" y="-46.5" font-family="Helvetica,sans-Serif" font-size="10.00">SvController::startAll</text>
</a>
</g>
</g>
<!-- Node9&#45;&gt;Node10 -->
<g id="edge13_Node000009_Node000010" class="edge">
<title>Node9&#45;&gt;Node10</title>
<g id="a_edge13_Node000009_Node000010"><a xlink:title=" ">
<path fill="none" stroke="#63b8ff" d="M252.17,-50C244.09,-50 235.96,-50 228.17,-50"/>
<polygon fill="#63b8ff" stroke="#63b8ff" points="252.02,-53.5 262.02,-50 252.02,-46.5 252.02,-53.5"/>
</a>
</g>
</g>
<!-- Node11 -->
<g id="Node000011" class="node">
<title>Node11</title>
<g id="a_Node000011"><a xlink:href="sv__controller_8cc.html#a1b6b0344797b9edf84722fde0e1c660a" target="_top" xlink:title=" ">
<polygon fill="white" stroke="#666666" points="85,-60 0,-60 0,-40 85,-40 85,-60"/>
<text xml:space="preserve" text-anchor="middle" x="42.5" y="-46.5" font-family="Helvetica,sans-Serif" font-size="10.00">sv_mp_start_all</text>
</a>
</g>
</g>
<!-- Node10&#45;&gt;Node11 -->
<g id="edge14_Node000010_Node000011" class="edge">
<title>Node10&#45;&gt;Node11</title>
<g id="a_edge14_Node000010_Node000011"><a xlink:title=" ">
<path fill="none" stroke="#63b8ff" d="M109.1,-50C100.95,-50 92.79,-50 85.13,-50"/>
<polygon fill="#63b8ff" stroke="#63b8ff" points="109.04,-53.5 119.04,-50 109.04,-46.5 109.04,-53.5"/>
</a>
</g>
</g>
<!-- Node12&#45;&gt;Node9 -->
<g id="edge17_Node000012_Node000009" class="edge">
<title>Node12&#45;&gt;Node9</title>
<g id="a_edge17_Node000012_Node000009"><a xlink:title=" ">
<path fill="none" stroke="#63b8ff" d="M413.44,-31.11C400.21,-33.94 386.66,-36.85 374.27,-39.5"/>
<polygon fill="#63b8ff" stroke="#63b8ff" points="413.91,-34.59 422.96,-29.07 412.44,-27.75 413.91,-34.59"/>
</a>
</g>
</g>
<!-- Node12&#45;&gt;Node12 -->
<g id="edge18_Node000012_Node000012" class="edge">
<title>Node12&#45;&gt;Node12</title>
<g id="a_edge18_Node000012_Node000012"><a xlink:title=" ">
<path fill="none" stroke="#63b8ff" d="M509.73,-43.71C505.6,-47.48 497.36,-50 485,-50 462.4,-50 453.57,-41.58 458.51,-32.44"/>
<polygon fill="#63b8ff" stroke="#63b8ff" points="513.17,-44.36 511.26,-33.94 506.25,-43.28 513.17,-44.36"/>
</a>
</g>
</g>
</g>
</svg>
