<?xml version="1.0" encoding="UTF-8" standalone="no"?>
<!DOCTYPE svg PUBLIC "-//W3C//DTD SVG 1.1//EN"
 "http://www.w3.org/Graphics/SVG/1.1/DTD/svg11.dtd">
<!-- Generated by graphviz version 14.1.2 (20260124.0452)
 -->
<!-- Title: npcap_stats_record_failure Pages: 1 -->
<svg width="695pt" height="152pt"
 viewBox="0.00 0.00 695.00 152.00" xmlns="http://www.w3.org/2000/svg" xmlns:xlink="http://www.w3.org/1999/xlink">
<g id="graph0" class="graph" transform="scale(1 1) rotate(0) translate(4 148)">
<title>npcap_stats_record_failure</title>
<!-- Node1 -->
<g id="Node000001" class="node">
<title>Node1</title>
<g id="a_Node000001"><a xlink:title="Record a failed packet transmission.">
<polygon fill="#999999" stroke="#666666" points="686.75,-94 585.25,-94 585.25,-62 686.75,-62 686.75,-94"/>
<text xml:space="preserve" text-anchor="start" x="593.25" y="-80.5" font-family="Helvetica,sans-Serif" font-size="10.00">npcap_stats_record</text>
<text xml:space="preserve" text-anchor="middle" x="636" y="-68.5" font-family="Helvetica,sans-Serif" font-size="10.00">_failure</text>
</a>
</g>
</g>
<!-- Node2 -->
<g id="Node000002" class="node">
<title>Node2</title>
<g id="a_Node000002"><a xlink:href="sv__native__refactored_8cc.html#a27703afec602cc5af011d5661a53b510" target="_top" xlink:title=" ">
<polygon fill="white" stroke="#666666" points="549.25,-126 420.75,-126 420.75,-106 549.25,-106 549.25,-126"/>
<text xml:space="preserve" text-anchor="middle" x="485" y="-112.5" font-family="Helvetica,sans-Serif" font-size="10.00">publisher_loop_immediate</text>
</a>
</g>
</g>
<!-- Node1&#45;&gt;Node2 -->
<g id="edge1_Node000001_Node000002" class="edge">
<title>Node1&#45;&gt;Node2</title>
<g id="a_edge1_Node000001_Node000002"><a xlink:title=" ">
<path fill="none" stroke="#63b8ff" d="M574.11,-93.53C558.16,-97.6 541.35,-101.88 526.74,-105.61"/>
<polygon fill="#63b8ff" stroke="#63b8ff" points="574.68,-97 583.5,-91.13 572.95,-90.21 574.68,-97"/>
</a>
</g>
</g>
<!-- Node4 -->
<g id="Node000004" class="node">
<title>Node4</title>
<g id="a_Node000004"><a xlink:href="sv__native__refactored_8cc.html#ae2056b20c01b052837592dc341ce314e" target="_top" xlink:title=" ">
<polygon fill="white" stroke="#666666" points="539.5,-88 430.5,-88 430.5,-68 539.5,-68 539.5,-88"/>
<text xml:space="preserve" text-anchor="middle" x="485" y="-74.5" font-family="Helvetica,sans-Serif" font-size="10.00">publisher_loop_single</text>
</a>
</g>
</g>
<!-- Node1&#45;&gt;Node4 -->
<g id="edge4_Node000001_Node000004" class="edge">
<title>Node1&#45;&gt;Node4</title>
<g id="a_edge4_Node000001_Node000004"><a xlink:title=" ">
<path fill="none" stroke="#63b8ff" d="M573.56,-78C562.42,-78 550.89,-78 539.99,-78"/>
<polygon fill="#63b8ff" stroke="#63b8ff" points="573.46,-81.5 583.46,-78 573.46,-74.5 573.46,-81.5"/>
</a>
</g>
</g>
<!-- Node5 -->
<g id="Node000005" class="node">
<title>Node5</title>
<g id="a_Node000005"><a xlink:href="class_sv_controller.html#ab18faef1f888c015ba3850d11320b4a5" target="_top" xlink:title=" ">
<polygon fill="white" stroke="#666666" points="545.5,-32 424.5,-32 424.5,0 545.5,0 545.5,-32"/>
<text xml:space="preserve" text-anchor="start" x="432.5" y="-18.5" font-family="Helvetica,sans-Serif" font-size="10.00">SvController::writerLoop</text>
<text xml:space="preserve" text-anchor="middle" x="485" y="-6.5" font-family="Helvetica,sans-Serif" font-size="10.00">Immediate</text>
</a>
</g>
</g>
<!-- Node1&#45;&gt;Node5 -->
<g id="edge6_Node000001_Node000005" class="edge">
<title>Node1&#45;&gt;Node5</title>
<g id="a_edge6_Node000001_Node000005"><a xlink:title=" ">
<path fill="none" stroke="#63b8ff" d="M584.98,-57.19C565.59,-49.12 543.71,-40.01 525.46,-32.42"/>
<polygon fill="#63b8ff" stroke="#63b8ff" points="583.49,-60.36 594.06,-60.97 586.18,-53.89 583.49,-60.36"/>
</a>
</g>
</g>
<!-- Node2&#45;&gt;Node2 -->
<g id="edge3_Node000002_Node000002" class="edge">
<title>Node2&#45;&gt;Node2</title>
<g id="a_edge3_Node000002_Node000002"><a xlink:title=" ">
<path fill="none" stroke="#63b8ff" d="M511.69,-137.44C508.25,-141.3 499.35,-144 485,-144 458.75,-144 450.75,-134.98 461.01,-126.34"/>
<polygon fill="#63b8ff" stroke="#63b8ff" points="515.11,-136.7 509.35,-127.81 508.31,-138.35 515.11,-136.7"/>
</a>
</g>
</g>
<!-- Node3 -->
<g id="Node000003" class="node">
<title>Node3</title>
<g id="a_Node000003"><a xlink:href="sv__native__refactored_8cc.html#af14f0670e1b30534e33524f8c49a5580" target="_top" xlink:title="Start publishing.">
<polygon fill="white" stroke="#666666" points="379.88,-107 268.62,-107 268.62,-87 379.88,-87 379.88,-107"/>
<text xml:space="preserve" text-anchor="middle" x="324.25" y="-93.5" font-family="Helvetica,sans-Serif" font-size="10.00">npcap_publisher_start</text>
</a>
</g>
</g>
<!-- Node2&#45;&gt;Node3 -->
<g id="edge2_Node000002_Node000003" class="edge">
<title>Node2&#45;&gt;Node3</title>
<g id="a_edge2_Node000002_Node000003"><a xlink:title=" ">
<path fill="none" stroke="#63b8ff" d="M409.03,-107.03C399.32,-105.87 389.53,-104.69 380.23,-103.58"/>
<polygon fill="#63b8ff" stroke="#63b8ff" points="408.5,-110.49 418.84,-108.2 409.33,-103.54 408.5,-110.49"/>
</a>
</g>
</g>
<!-- Node4&#45;&gt;Node3 -->
<g id="edge5_Node000004_Node000003" class="edge">
<title>Node4&#45;&gt;Node3</title>
<g id="a_edge5_Node000004_Node000003"><a xlink:title=" ">
<path fill="none" stroke="#63b8ff" d="M419.1,-85.77C406.22,-87.31 392.81,-88.91 380.29,-90.41"/>
<polygon fill="#63b8ff" stroke="#63b8ff" points="419.24,-89.28 428.75,-84.61 418.41,-82.33 419.24,-89.28"/>
</a>
</g>
</g>
<!-- Node5&#45;&gt;Node5 -->
<g id="edge10_Node000005_Node000005" class="edge">
<title>Node5&#45;&gt;Node5</title>
<g id="a_edge10_Node000005_Node000005"><a xlink:title=" ">
<path fill="none" stroke="#63b8ff" d="M510.16,-43.71C505.97,-47.48 497.58,-50 485,-50 462,-50 453.01,-41.58 458.04,-32.44"/>
<polygon fill="#63b8ff" stroke="#63b8ff" points="513.6,-44.36 511.72,-33.94 506.69,-43.26 513.6,-44.36"/>
</a>
</g>
</g>
<!-- Node6 -->
<g id="Node000006" class="node">
<title>Node6</title>
<g id="a_Node000006"><a xlink:href="class_sv_controller.html#a30dfd716e1e85042e41a2299fac5711f" target="_top" xlink:title=" ">
<polygon fill="white" stroke="#666666" points="384.75,-26 263.75,-26 263.75,-6 384.75,-6 384.75,-26"/>
<text xml:space="preserve" text-anchor="middle" x="324.25" y="-12.5" font-family="Helvetica,sans-Serif" font-size="10.00">SvController::writerLoop</text>
</a>
</g>
</g>
<!-- Node5&#45;&gt;Node6 -->
<g id="edge7_Node000005_Node000006" class="edge">
<title>Node5&#45;&gt;Node6</title>
<g id="a_edge7_Node000005_Node000006"><a xlink:title=" ">
<path fill="none" stroke="#63b8ff" d="M413.15,-16C403.8,-16 394.29,-16 385.15,-16"/>
<polygon fill="#63b8ff" stroke="#63b8ff" points="412.92,-19.5 422.92,-16 412.92,-12.5 412.92,-19.5"/>
</a>
</g>
</g>
<!-- Node7 -->
<g id="Node000007" class="node">
<title>Node7</title>
<g id="a_Node000007"><a xlink:href="class_sv_controller.html#afc0ec922fad685082c626ca36cb764a8" target="_top" xlink:title=" ">
<polygon fill="white" stroke="#666666" points="227.75,-26 121,-26 121,-6 227.75,-6 227.75,-26"/>
<text xml:space="preserve" text-anchor="middle" x="174.38" y="-12.5" font-family="Helvetica,sans-Serif" font-size="10.00">SvController::startAll</text>
</a>
</g>
</g>
<!-- Node6&#45;&gt;Node7 -->
<g id="edge8_Node000006_Node000007" class="edge">
<title>Node6&#45;&gt;Node7</title>
<g id="a_edge8_Node000006_Node000007"><a xlink:title=" ">
<path fill="none" stroke="#63b8ff" d="M252.17,-16C244.09,-16 235.96,-16 228.17,-16"/>
<polygon fill="#63b8ff" stroke="#63b8ff" points="252.02,-19.5 262.02,-16 252.02,-12.5 252.02,-19.5"/>
</a>
</g>
</g>
<!-- Node8 -->
<g id="Node000008" class="node">
<title>Node8</title>
<g id="a_Node000008"><a xlink:href="sv__controller_8cc.html#a1b6b0344797b9edf84722fde0e1c660a" target="_top" xlink:title=" ">
<polygon fill="white" stroke="#666666" points="85,-26 0,-26 0,-6 85,-6 85,-26"/>
<text xml:space="preserve" text-anchor="middle" x="42.5" y="-12.5" font-family="Helvetica,sans-Serif" font-size="10.00">sv_mp_start_all</text>
</a>
</g>
</g>
<!-- Node7&#45;&gt;Node8 -->
<g id="edge9_Node000007_Node000008" class="edge">
<title>Node7&#45;&gt;Node8</title>
<g id="a_edge9_Node000007_Node000008"><a xlink:title=" ">
<path fill="none" stroke="#63b8ff" d="M109.1,-16C100.95,-16 92.79,-16 85.13,-16"/>
<polygon fill="#63b8ff" stroke="#63b8ff" points="109.04,-19.5 119.04,-16 109.04,-12.5 109.04,-19.5"/>
</a>
</g>
</g>
</g>
</svg>
