<?xml version="1.0" encoding="UTF-8" standalone="no"?>
<!DOCTYPE svg PUBLIC "-//W3C//DTD SVG 1.1//EN"
 "http://www.w3.org/Graphics/SVG/1.1/DTD/svg11.dtd">
<!-- Generated by graphviz version 14.1.2 (20260124.0452)
 -->
<!-- Title: sv_mp_start_all Pages: 1 -->
<!--zoomable 784 -->

<svg id="main" version="1.1" xmlns="http://www.w3.org/2000/svg" xmlns:xlink="http://www.w3.org/1999/xlink" xml:space="preserve" onload="init(evt)">

<style type="text/css"><![CDATA[
.node, .edge {opacity: 0.7;}
.node.selected, .edge.selected {opacity: 1;}
.edge:hover path { stroke: red; }
.edge:hover polygon { stroke: red; fill: red; }
]]></style>

<defs>
  <circle id="rim" cx="0" cy="0" r="7"/>
  <circle id="rim2" cx="0" cy="0" r="3.5"/>
  <g id="zoomPlus">
    <use xlink:href="#rim" fill="#404040"><set attributeName="fill" to="#808080" begin="zoomplus.mouseover" end="zoomplus.mouseout"/></use>
    <path d="M-4,0h8M0,-4v8" fill="none" stroke="white" stroke-width="1.5" pointer-events="none"/>
  </g>
  <g id="zoomMin">
    <use xlink:href="#rim" fill="#404040"><set attributeName="fill" to="#808080" begin="zoomminus.mouseover" end="zoomminus.mouseout"/></use>
    <path d="M-4,0h8" fill="none" stroke="white" stroke-width="1.5" pointer-events="none"/>
  </g>
  <g id="arrowUp" transform="translate(30 24)">
    <use xlink:href="#rim"/>
    <path pointer-events="none" fill="none" stroke="white" stroke-width="1.5" d="M0,-3.0v7 M-2.5,-0.5L0,-3.0L2.5,-0.5"/>
  </g>
  <g id="arrowRight" transform="rotate(90) translate(36 -43)">
    <use xlink:href="#rim"/>
    <path pointer-events="none" fill="none" stroke="white" stroke-width="1.5" d="M0,-3.0v7 M-2.5,-0.5L0,-3.0L2.5,-0.5"/>
  </g>
  <g id="arrowDown" transform="rotate(180) translate(-30 -48)">
    <use xlink:href="#rim"/>
    <path pointer-events="none" fill="none" stroke="white" stroke-width="1.5" d="M0,-3.0v7 M-2.5,-0.5L0,-3.0L2.5,-0.5"/>
  </g>
  <g id="arrowLeft" transform="rotate(270) translate(-36 17)">
    <use xlink:href="#rim"/>
    <path pointer-events="none" fill="none" stroke="white" stroke-width="1.5" d="M0,-3.0v7 M-2.5,-0.5L0,-3.0L2.5,-0.5"/>
  </g>
  <g id="resetDef">
    <use xlink:href="#rim2" fill="#404040"><set attributeName="fill" to="#808080" begin="reset.mouseover" end="reset.mouseout"/></use>
  </g>
</defs>
<script type="application/ecmascript">
var viewWidth = 925;
var viewHeight = 784;
var sectionId = 'dynsection-22';
</script>
<script type="application/ecmascript" xlink:href="svg.min.js"/>
<svg id="graph" class="graph">
<g id="viewport">
<title>sv_mp_start_all</title>
<!-- Node1 -->
<g id="Node000001" class="node">
<title>Node1</title>
<g id="a_Node000001"><a xlink:title=" ">
<polygon fill="#999999" stroke="#666666" points="85,-200 0,-200 0,-180 85,-180 85,-200"/>
<text xml:space="preserve" text-anchor="middle" x="42.5" y="-186.5" font-family="Helvetica,sans-Serif" font-size="10.00">sv_mp_start_all</text>
</a>
</g>
</g>
<!-- Node2 -->
<g id="Node000002" class="node">
<title>Node2</title>
<g id="a_Node000002"><a xlink:href="class_sv_controller.html#afc102679fe80499c39d27cb8640394cc" target="_top" xlink:title=" ">
<polygon fill="white" stroke="#666666" points="233.75,-244 121,-244 121,-224 233.75,-224 233.75,-244"/>
<text xml:space="preserve" text-anchor="middle" x="177.38" y="-230.5" font-family="Helvetica,sans-Serif" font-size="10.00">SvController::instance</text>
</a>
</g>
</g>
<!-- Node1&#45;&gt;Node2 -->
<g id="edge1_Node000001_Node000002" class="edge">
<title>Node1&#45;&gt;Node2</title>
<g id="a_edge1_Node000001_Node000002"><a xlink:title=" ">
<path fill="none" stroke="#63b8ff" d="M74.99,-200.43C92.7,-206.29 115.03,-213.69 134.23,-220.04"/>
<polygon fill="#63b8ff" stroke="#63b8ff" points="133.08,-223.35 143.67,-223.17 135.28,-216.71 133.08,-223.35"/>
</a>
</g>
</g>
<!-- Node4 -->
<g id="Node000004" class="node">
<title>Node4</title>
<g id="a_Node000004"><a xlink:href="class_sv_controller.html#afc0ec922fad685082c626ca36cb764a8" target="_top" xlink:title=" ">
<polygon fill="white" stroke="#666666" points="230.75,-181 124,-181 124,-161 230.75,-161 230.75,-181"/>
<text xml:space="preserve" text-anchor="middle" x="177.38" y="-167.5" font-family="Helvetica,sans-Serif" font-size="10.00">SvController::startAll</text>
</a>
</g>
</g>
<!-- Node1&#45;&gt;Node4 -->
<g id="edge3_Node000001_Node000004" class="edge">
<title>Node1&#45;&gt;Node4</title>
<g id="a_edge3_Node000001_Node000004"><a xlink:title=" ">
<path fill="none" stroke="#63b8ff" d="M85.18,-184.04C93.84,-182.8 103.15,-181.47 112.4,-180.15"/>
<polygon fill="#63b8ff" stroke="#63b8ff" points="112.69,-183.64 122.1,-178.76 111.7,-176.71 112.69,-183.64"/>
</a>
</g>
</g>
<!-- Node3 -->
<g id="Node000003" class="node">
<title>Node3</title>
<g id="a_Node000003"><a xlink:href="class_sv_controller.html#aa5d7c635a8015c90217076cf4722542c" target="_top" xlink:title=" ">
<polygon fill="white" stroke="#666666" points="399.75,-269 269.75,-269 269.75,-249 399.75,-249 399.75,-269"/>
<text xml:space="preserve" text-anchor="middle" x="334.75" y="-255.5" font-family="Helvetica,sans-Serif" font-size="10.00">SvController::SvController</text>
</a>
</g>
</g>
<!-- Node2&#45;&gt;Node3 -->
<g id="edge2_Node000002_Node000003" class="edge">
<title>Node2&#45;&gt;Node3</title>
<g id="a_edge2_Node000002_Node000003"><a xlink:title=" ">
<path fill="none" stroke="#63b8ff" d="M234.03,-242.95C241.93,-244.23 250.17,-245.55 258.37,-246.87"/>
<polygon fill="#63b8ff" stroke="#63b8ff" points="257.57,-250.29 268,-248.42 258.68,-243.38 257.57,-250.29"/>
</a>
</g>
</g>
<!-- Node5 -->
<g id="Node000005" class="node">
<title>Node5</title>
<g id="a_Node000005"><a xlink:href="npcap__transmitter__impl_8cc.html#abbf1f613938819749a5833ac67f5dc7b" target="_top" xlink:title="Check if an interface is open.">
<polygon fill="white" stroke="#666666" points="375.38,-20 294.12,-20 294.12,0 375.38,0 375.38,-20"/>
<text xml:space="preserve" text-anchor="middle" x="334.75" y="-6.5" font-family="Helvetica,sans-Serif" font-size="10.00">npcap_is_open</text>
</a>
</g>
</g>
<!-- Node4&#45;&gt;Node5 -->
<g id="edge4_Node000004_Node000005" class="edge">
<title>Node4&#45;&gt;Node5</title>
<g id="a_edge4_Node000004_Node000005"><a xlink:title=" ">
<path fill="none" stroke="#63b8ff" d="M182.5,-160.83C193.16,-135.72 224.06,-70.25 269.75,-34 274,-30.63 278.77,-27.7 283.75,-25.15"/>
<polygon fill="#63b8ff" stroke="#63b8ff" points="285.08,-28.39 292.76,-21.09 282.2,-22.01 285.08,-28.39"/>
</a>
</g>
</g>
<!-- Node6 -->
<g id="Node000006" class="node">
<title>Node6</title>
<g id="a_Node000006"><a xlink:href="sv__native__refactored_8cc.html#a2a043b3a2450447e0dbb5e912b86eeca" target="_top" xlink:title=" ">
<polygon fill="white" stroke="#666666" points="384.38,-231 285.12,-231 285.12,-199 384.38,-199 384.38,-231"/>
<text xml:space="preserve" text-anchor="start" x="293.12" y="-217.5" font-family="Helvetica,sans-Serif" font-size="10.00">npcap_publisher_is</text>
<text xml:space="preserve" text-anchor="middle" x="334.75" y="-205.5" font-family="Helvetica,sans-Serif" font-size="10.00">_running</text>
</a>
</g>
</g>
<!-- Node4&#45;&gt;Node6 -->
<g id="edge5_Node000004_Node000006" class="edge">
<title>Node4&#45;&gt;Node6</title>
<g id="a_edge5_Node000004_Node000006"><a xlink:title=" ">
<path fill="none" stroke="#63b8ff" d="M215.2,-181.43C232.68,-186.38 254.03,-192.42 273.76,-198.01"/>
<polygon fill="#63b8ff" stroke="#63b8ff" points="272.81,-201.38 283.39,-200.74 274.72,-194.65 272.81,-201.38"/>
</a>
</g>
</g>
<!-- Node7 -->
<g id="Node000007" class="node">
<title>Node7</title>
<g id="a_Node000007"><a xlink:href="sv__stats__impl_8cc.html#ae7cd346e20d4749f60fa7332dfae0dd7" target="_top" xlink:title="Get current time in milliseconds.">
<polygon fill="white" stroke="#666666" points="916.5,-492 785.75,-492 785.75,-472 916.5,-472 916.5,-492"/>
<text xml:space="preserve" text-anchor="middle" x="851.12" y="-478.5" font-family="Helvetica,sans-Serif" font-size="10.00">npcap_stats_get_time_ms</text>
</a>
</g>
</g>
<!-- Node4&#45;&gt;Node7 -->
<g id="edge6_Node000004_Node000007" class="edge">
<title>Node4&#45;&gt;Node7</title>
<g id="a_edge6_Node000004_Node000007"><a xlink:title=" ">
<path fill="none" stroke="#63b8ff" d="M193.64,-160.62C265.2,-113.36 571.47,73.3 749.75,-67 813.21,-116.94 841.35,-382.46 848.33,-460.45"/>
<polygon fill="#63b8ff" stroke="#63b8ff" points="844.82,-460.49 849.17,-470.15 851.8,-459.89 844.82,-460.49"/>
</a>
</g>
</g>
<!-- Node8 -->
<g id="Node000008" class="node">
<title>Node8</title>
<g id="a_Node000008"><a xlink:href="class_sv_controller.html#a30dfd716e1e85042e41a2299fac5711f" target="_top" xlink:title=" ">
<polygon fill="white" stroke="#666666" points="395.25,-181 274.25,-181 274.25,-161 395.25,-161 395.25,-181"/>
<text xml:space="preserve" text-anchor="middle" x="334.75" y="-167.5" font-family="Helvetica,sans-Serif" font-size="10.00">SvController::writerLoop</text>
</a>
</g>
</g>
<!-- Node4&#45;&gt;Node8 -->
<g id="edge7_Node000004_Node000008" class="edge">
<title>Node4&#45;&gt;Node8</title>
<g id="a_edge7_Node000004_Node000008"><a xlink:title=" ">
<path fill="none" stroke="#63b8ff" d="M230.98,-171C241.13,-171 251.92,-171 262.55,-171"/>
<polygon fill="#63b8ff" stroke="#63b8ff" points="262.46,-174.5 272.46,-171 262.46,-167.5 262.46,-174.5"/>
</a>
</g>
</g>
<!-- Node9 -->
<g id="Node000009" class="node">
<title>Node9</title>
<g id="a_Node000009"><a xlink:href="npcap__transmitter__impl_8cc.html#a3603a13e403ee5dc84d62e476f8c2a86" target="_top" xlink:title="Check if SendQueue API is available.">
<polygon fill="white" stroke="#666666" points="574,-181 435.75,-181 435.75,-161 574,-161 574,-181"/>
<text xml:space="preserve" text-anchor="middle" x="504.88" y="-167.5" font-family="Helvetica,sans-Serif" font-size="10.00">npcap_sendqueue_available</text>
</a>
</g>
</g>
<!-- Node8&#45;&gt;Node9 -->
<g id="edge8_Node000008_Node000009" class="edge">
<title>Node8&#45;&gt;Node9</title>
<g id="a_edge8_Node000008_Node000009"><a xlink:title=" ">
<path fill="none" stroke="#63b8ff" d="M395.5,-171C404.79,-171 414.52,-171 424.17,-171"/>
<polygon fill="#63b8ff" stroke="#63b8ff" points="423.92,-174.5 433.92,-171 423.92,-167.5 423.92,-174.5"/>
</a>
</g>
</g>
<!-- Node10 -->
<g id="Node000010" class="node">
<title>Node10</title>
<g id="a_Node000010"><a xlink:href="class_sv_controller.html#ab8c8181a6f1a3db44e42d2d1dcd3e2ff" target="_top" xlink:title=" ">
<polygon fill="white" stroke="#666666" points="565.38,-523 444.38,-523 444.38,-491 565.38,-491 565.38,-523"/>
<text xml:space="preserve" text-anchor="start" x="452.38" y="-509.5" font-family="Helvetica,sans-Serif" font-size="10.00">SvController::writerLoop</text>
<text xml:space="preserve" text-anchor="middle" x="504.88" y="-497.5" font-family="Helvetica,sans-Serif" font-size="10.00">Batch</text>
</a>
</g>
</g>
<!-- Node8&#45;&gt;Node10 -->
<g id="edge9_Node000008_Node000010" class="edge">
<title>Node8&#45;&gt;Node10</title>
<g id="a_edge9_Node000008_Node000010"><a xlink:title=" ">
<path fill="none" stroke="#63b8ff" d="M388.45,-181.38C392.63,-183.71 396.49,-186.54 399.75,-190 447.71,-240.8 414.28,-276.52 435.75,-343 451.77,-392.6 476.34,-448.22 491.18,-480.27"/>
<polygon fill="#63b8ff" stroke="#63b8ff" points="487.95,-481.62 495.36,-489.2 494.3,-478.66 487.95,-481.62"/>
</a>
</g>
</g>
<!-- Node23 -->
<g id="Node000023" class="node">
<title>Node23</title>
<g id="a_Node000023"><a xlink:href="class_sv_controller.html#ab18faef1f888c015ba3850d11320b4a5" target="_top" xlink:title=" ">
<polygon fill="white" stroke="#666666" points="565.38,-316 444.38,-316 444.38,-284 565.38,-284 565.38,-316"/>
<text xml:space="preserve" text-anchor="start" x="452.38" y="-302.5" font-family="Helvetica,sans-Serif" font-size="10.00">SvController::writerLoop</text>
<text xml:space="preserve" text-anchor="middle" x="504.88" y="-290.5" font-family="Helvetica,sans-Serif" font-size="10.00">Immediate</text>
</a>
</g>
</g>
<!-- Node8&#45;&gt;Node23 -->
<g id="edge28_Node000008_Node000023" class="edge">
<title>Node8&#45;&gt;Node23</title>
<g id="a_edge28_Node000008_Node000023"><a xlink:title=" ">
<path fill="none" stroke="#63b8ff" d="M381.77,-181.45C388.05,-183.78 394.22,-186.6 399.75,-190 435.56,-211.99 467.23,-249.38 485.98,-274.38"/>
<polygon fill="#63b8ff" stroke="#63b8ff" points="483.12,-276.4 491.85,-282.4 488.77,-272.26 483.12,-276.4"/>
</a>
</g>
</g>
<!-- Node10&#45;&gt;Node7 -->
<g id="edge17_Node000010_Node000007" class="edge">
<title>Node10&#45;&gt;Node7</title>
<g id="a_edge17_Node000010_Node000007"><a xlink:title=" ">
<path fill="none" stroke="#63b8ff" d="M518.56,-523.22C536.34,-544.46 570.88,-580.68 610,-595 668.33,-616.35 693.09,-620.45 749.75,-595 792.03,-576 823.76,-529.41 839.36,-502.36"/>
<polygon fill="#63b8ff" stroke="#63b8ff" points="842.35,-504.18 844.14,-493.74 836.23,-500.78 842.35,-504.18"/>
</a>
</g>
</g>
<!-- Node10&#45;&gt;Node10 -->
<g id="edge27_Node000010_Node000010" class="edge">
<title>Node10&#45;&gt;Node10</title>
<g id="a_edge27_Node000010_Node000010"><a xlink:title=" ">
<path fill="none" stroke="#63b8ff" d="M474.5,-523.44C468.83,-532.58 478.96,-541 504.88,-541 519.05,-541 528.5,-538.48 533.23,-534.71"/>
<polygon fill="#63b8ff" stroke="#63b8ff" points="536.66,-535.39 534.98,-524.93 529.77,-534.16 536.66,-535.39"/>
</a>
</g>
</g>
<!-- Node11 -->
<g id="Node000011" class="node">
<title>Node11</title>
<g id="a_Node000011"><a xlink:href="class_sv_controller.html#a02cc9113aeda2832ff4aa7ac87a96953" target="_top" xlink:title=" ">
<polygon fill="white" stroke="#666666" points="749.38,-498 610.38,-498 610.38,-466 749.38,-466 749.38,-498"/>
<text xml:space="preserve" text-anchor="start" x="618.38" y="-484.5" font-family="Helvetica,sans-Serif" font-size="10.00">SvController::checkDuration</text>
<text xml:space="preserve" text-anchor="middle" x="679.88" y="-472.5" font-family="Helvetica,sans-Serif" font-size="10.00">Elapsed</text>
</a>
</g>
</g>
<!-- Node10&#45;&gt;Node11 -->
<g id="edge10_Node000010_Node000011" class="edge">
<title>Node10&#45;&gt;Node11</title>
<g id="a_edge10_Node000010_Node000011"><a xlink:title=" ">
<path fill="none" stroke="#63b8ff" d="M565.41,-498.4C576.19,-496.84 587.58,-495.19 598.83,-493.57"/>
<polygon fill="#63b8ff" stroke="#63b8ff" points="599.11,-497.06 608.51,-492.17 598.11,-490.13 599.11,-497.06"/>
</a>
</g>
</g>
<!-- Node12 -->
<g id="Node000012" class="node">
<title>Node12</title>
<g id="a_Node000012"><a xlink:href="class_sv_controller.html#a8226108f3af97705b3d2caf0e8f130f5" target="_top" xlink:title=" ">
<polygon fill="white" stroke="#666666" points="748.62,-272 611.12,-272 611.12,-240 748.62,-240 748.62,-272"/>
<text xml:space="preserve" text-anchor="start" x="619.12" y="-258.5" font-family="Helvetica,sans-Serif" font-size="10.00">SvController::elevateThread</text>
<text xml:space="preserve" text-anchor="middle" x="679.88" y="-246.5" font-family="Helvetica,sans-Serif" font-size="10.00">Priority</text>
</a>
</g>
</g>
<!-- Node10&#45;&gt;Node12 -->
<g id="edge12_Node000010_Node000012" class="edge">
<title>Node10&#45;&gt;Node12</title>
<g id="a_edge12_Node000010_Node000012"><a xlink:title=" ">
<path fill="none" stroke="#63b8ff" d="M512.55,-490.64C532.8,-441.32 593.15,-296.5 610,-281 610.78,-280.28 611.58,-279.59 612.4,-278.91"/>
<polygon fill="#63b8ff" stroke="#63b8ff" points="614.36,-281.81 620.6,-273.25 610.38,-276.05 614.36,-281.81"/>
</a>
</g>
</g>
<!-- Node13 -->
<g id="Node000013" class="node">
<title>Node13</title>
<g id="a_Node000013"><a xlink:href="npcap__transmitter__impl_8cc.html#a3469e50a088ee2f93c0678e6d0286f56" target="_top" xlink:title="Add a packet to the queue.">
<polygon fill="white" stroke="#666666" points="727.25,-776 632.5,-776 632.5,-756 727.25,-756 727.25,-776"/>
<text xml:space="preserve" text-anchor="middle" x="679.88" y="-762.5" font-family="Helvetica,sans-Serif" font-size="10.00">npcap_queue_add</text>
</a>
</g>
</g>
<!-- Node10&#45;&gt;Node13 -->
<g id="edge13_Node000010_Node000013" class="edge">
<title>Node10&#45;&gt;Node13</title>
<g id="a_edge13_Node000010_Node000013"><a xlink:title=" ">
<path fill="none" stroke="#63b8ff" d="M508.06,-523.24C514.75,-566.48 539.03,-685.34 610,-747 613.58,-750.11 617.63,-752.72 621.93,-754.9"/>
<polygon fill="#63b8ff" stroke="#63b8ff" points="620.33,-758.02 630.9,-758.67 623.04,-751.57 620.33,-758.02"/>
</a>
</g>
</g>
<!-- Node14 -->
<g id="Node000014" class="node">
<title>Node14</title>
<g id="a_Node000014"><a xlink:href="npcap__transmitter__impl_8cc.html#a745d7b22094024f754840a72a108339e" target="_top" xlink:title="Allocate a send queue.">
<polygon fill="white" stroke="#666666" points="732.88,-738 626.88,-738 626.88,-718 732.88,-718 732.88,-738"/>
<text xml:space="preserve" text-anchor="middle" x="679.88" y="-724.5" font-family="Helvetica,sans-Serif" font-size="10.00">npcap_queue_create</text>
</a>
</g>
</g>
<!-- Node10&#45;&gt;Node14 -->
<g id="edge14_Node000010_Node000014" class="edge">
<title>Node10&#45;&gt;Node14</title>
<g id="a_edge14_Node000010_Node000014"><a xlink:title=" ">
<path fill="none" stroke="#63b8ff" d="M509.56,-523.47C519.07,-562.04 548.13,-658.76 610,-709 612,-710.62 614.12,-712.1 616.34,-713.46"/>
<polygon fill="#63b8ff" stroke="#63b8ff" points="614.71,-716.56 625.21,-717.95 617.87,-710.31 614.71,-716.56"/>
</a>
</g>
</g>
<!-- Node15 -->
<g id="Node000015" class="node">
<title>Node15</title>
<g id="a_Node000015"><a xlink:href="npcap__transmitter__impl_8cc.html#ae10474fb21e8e779e37605a98dd327eb" target="_top" xlink:title="Destroy a send queue.">
<polygon fill="white" stroke="#666666" points="735.5,-700 624.25,-700 624.25,-680 735.5,-680 735.5,-700"/>
<text xml:space="preserve" text-anchor="middle" x="679.88" y="-686.5" font-family="Helvetica,sans-Serif" font-size="10.00">npcap_queue_destroy</text>
</a>
</g>
</g>
<!-- Node10&#45;&gt;Node15 -->
<g id="edge15_Node000010_Node000015" class="edge">
<title>Node10&#45;&gt;Node15</title>
<g id="a_edge15_Node000010_Node000015"><a xlink:title=" ">
<path fill="none" stroke="#63b8ff" d="M511.6,-523.32C524.06,-556.43 556.87,-631.68 610,-671 611.76,-672.3 613.6,-673.51 615.51,-674.64"/>
<polygon fill="#63b8ff" stroke="#63b8ff" points="613.62,-677.61 624.13,-678.94 616.74,-671.35 613.62,-677.61"/>
</a>
</g>
</g>
<!-- Node16 -->
<g id="Node000016" class="node">
<title>Node16</title>
<g id="a_Node000016"><a xlink:href="npcap__transmitter__impl_8cc.html#ae6e10a3445bc66c81ead5b438b868ea8" target="_top" xlink:title="Transmit all packets in the queue.">
<polygon fill="white" stroke="#666666" points="737,-662 622.75,-662 622.75,-642 737,-642 737,-662"/>
<text xml:space="preserve" text-anchor="middle" x="679.88" y="-648.5" font-family="Helvetica,sans-Serif" font-size="10.00">npcap_queue_transmit</text>
</a>
</g>
</g>
<!-- Node10&#45;&gt;Node16 -->
<g id="edge16_Node000010_Node000016" class="edge">
<title>Node10&#45;&gt;Node16</title>
<g id="a_edge16_Node000010_Node000016"><a xlink:title=" ">
<path fill="none" stroke="#63b8ff" d="M515.68,-523.1C532.11,-548.8 567.62,-599.14 610,-628 615.3,-631.61 621.19,-634.73 627.24,-637.41"/>
<polygon fill="#63b8ff" stroke="#63b8ff" points="625.5,-640.48 636.08,-640.96 628.11,-633.98 625.5,-640.48"/>
</a>
</g>
</g>
<!-- Node17 -->
<g id="Node000017" class="node">
<title>Node17</title>
<g id="a_Node000017"><a xlink:href="sv__stats__impl_8cc.html#a210b53baa9526fbb867d2a6b3ad925c4" target="_top" xlink:title="Record a successful packet transmission.">
<polygon fill="white" stroke="#666666" points="730.62,-448 629.12,-448 629.12,-416 730.62,-416 730.62,-448"/>
<text xml:space="preserve" text-anchor="start" x="637.12" y="-434.5" font-family="Helvetica,sans-Serif" font-size="10.00">npcap_stats_record</text>
<text xml:space="preserve" text-anchor="middle" x="679.88" y="-422.5" font-family="Helvetica,sans-Serif" font-size="10.00">_packet</text>
</a>
</g>
</g>
<!-- Node10&#45;&gt;Node17 -->
<g id="edge18_Node000010_Node000017" class="edge">
<title>Node10&#45;&gt;Node17</title>
<g id="a_edge18_Node000010_Node000017"><a xlink:title=" ">
<path fill="none" stroke="#63b8ff" d="M537.86,-490.62C558.27,-480.43 585.41,-467.34 610,-457 613.57,-455.5 617.26,-454 621,-452.53"/>
<polygon fill="#63b8ff" stroke="#63b8ff" points="622.09,-455.86 630.17,-449 619.58,-449.33 622.09,-455.86"/>
</a>
</g>
</g>
<!-- Node18 -->
<g id="Node000018" class="node">
<title>Node18</title>
<g id="a_Node000018"><a xlink:href="sv__stats__impl_8cc.html#a4e5f02e3cc9b2b06496cca1b54582e0a" target="_top" xlink:title="Reset all statistics to zero.">
<polygon fill="white" stroke="#666666" points="728,-398 631.75,-398 631.75,-378 728,-378 728,-398"/>
<text xml:space="preserve" text-anchor="middle" x="679.88" y="-384.5" font-family="Helvetica,sans-Serif" font-size="10.00">npcap_stats_reset</text>
</a>
</g>
</g>
<!-- Node10&#45;&gt;Node18 -->
<g id="edge20_Node000010_Node000018" class="edge">
<title>Node10&#45;&gt;Node18</title>
<g id="a_edge20_Node000010_Node000018"><a xlink:title=" ">
<path fill="none" stroke="#63b8ff" d="M518.49,-490.57C536.42,-468.34 571.44,-428.93 610,-407 613.39,-405.07 616.99,-403.33 620.69,-401.76"/>
<polygon fill="#63b8ff" stroke="#63b8ff" points="621.77,-405.09 629.9,-398.3 619.31,-398.54 621.77,-405.09"/>
</a>
</g>
</g>
<!-- Node19 -->
<g id="Node000019" class="node">
<title>Node19</title>
<g id="a_Node000019"><a xlink:href="sv__stats__impl_8cc.html#a4437629953bc0b691829d9c7b77cc061" target="_top" xlink:title="End the current statistics session.">
<polygon fill="white" stroke="#666666" points="744.5,-586 615.25,-586 615.25,-566 744.5,-566 744.5,-586"/>
<text xml:space="preserve" text-anchor="middle" x="679.88" y="-572.5" font-family="Helvetica,sans-Serif" font-size="10.00">npcap_stats_session_end</text>
</a>
</g>
</g>
<!-- Node10&#45;&gt;Node19 -->
<g id="edge21_Node000010_Node000019" class="edge">
<title>Node10&#45;&gt;Node19</title>
<g id="a_edge21_Node000010_Node000019"><a xlink:title=" ">
<path fill="none" stroke="#63b8ff" d="M536.23,-523.35C556.67,-533.92 584.46,-547.43 610,-557 614.97,-558.86 620.19,-560.63 625.46,-562.28"/>
<polygon fill="#63b8ff" stroke="#63b8ff" points="624.21,-565.56 634.79,-565.08 626.22,-558.86 624.21,-565.56"/>
</a>
</g>
</g>
<!-- Node20 -->
<g id="Node000020" class="node">
<title>Node20</title>
<g id="a_Node000020"><a xlink:href="sv__stats__impl_8cc.html#ad0737fafaaf6836a17171d40d5a3f77d" target="_top" xlink:title="Start a new statistics session.">
<polygon fill="white" stroke="#666666" points="734,-548 625.75,-548 625.75,-516 734,-516 734,-548"/>
<text xml:space="preserve" text-anchor="start" x="633.75" y="-534.5" font-family="Helvetica,sans-Serif" font-size="10.00">npcap_stats_session</text>
<text xml:space="preserve" text-anchor="middle" x="679.88" y="-522.5" font-family="Helvetica,sans-Serif" font-size="10.00">_start</text>
</a>
</g>
</g>
<!-- Node10&#45;&gt;Node20 -->
<g id="edge23_Node000010_Node000020" class="edge">
<title>Node10&#45;&gt;Node20</title>
<g id="a_edge23_Node000010_Node000020"><a xlink:title=" ">
<path fill="none" stroke="#63b8ff" d="M565.41,-515.6C581.06,-517.87 598.02,-520.32 613.94,-522.62"/>
<polygon fill="#63b8ff" stroke="#63b8ff" points="613.42,-526.08 623.82,-524.04 614.42,-519.15 613.42,-526.08"/>
</a>
</g>
</g>
<!-- Node21 -->
<g id="Node000021" class="node">
<title>Node21</title>
<g id="a_Node000021"><a xlink:href="class_sv_controller.html#a3c943142f1ce34aac0434603ee3531c0" target="_top" xlink:title=" ">
<polygon fill="white" stroke="#666666" points="747.88,-360 611.88,-360 611.88,-328 747.88,-328 747.88,-360"/>
<text xml:space="preserve" text-anchor="start" x="619.88" y="-346.5" font-family="Helvetica,sans-Serif" font-size="10.00">SvController::restoreThread</text>
<text xml:space="preserve" text-anchor="middle" x="679.88" y="-334.5" font-family="Helvetica,sans-Serif" font-size="10.00">Priority</text>
</a>
</g>
</g>
<!-- Node10&#45;&gt;Node21 -->
<g id="edge25_Node000010_Node000021" class="edge">
<title>Node10&#45;&gt;Node21</title>
<g id="a_edge25_Node000010_Node000021"><a xlink:title=" ">
<path fill="none" stroke="#63b8ff" d="M514.16,-490.52C529.36,-461.86 564.38,-402.71 610,-369 611.51,-367.88 613.08,-366.81 614.69,-365.78"/>
<polygon fill="#63b8ff" stroke="#63b8ff" points="615.99,-369.07 622.99,-361.11 612.56,-362.96 615.99,-369.07"/>
</a>
</g>
</g>
<!-- Node22 -->
<g id="Node000022" class="node">
<title>Node22</title>
<g id="a_Node000022"><a xlink:href="class_sv_controller.html#a94fbbcc5d8c76669fe2c02d8de1927d4" target="_top" xlink:title=" ">
<polygon fill="white" stroke="#666666" points="740.75,-310 619,-310 619,-290 740.75,-290 740.75,-310"/>
<text xml:space="preserve" text-anchor="middle" x="679.88" y="-296.5" font-family="Helvetica,sans-Serif" font-size="10.00">SvController::spinPause</text>
</a>
</g>
</g>
<!-- Node10&#45;&gt;Node22 -->
<g id="edge26_Node000010_Node000022" class="edge">
<title>Node10&#45;&gt;Node22</title>
<g id="a_edge26_Node000010_Node000022"><a xlink:title=" ">
<path fill="none" stroke="#63b8ff" d="M510.23,-490.58C520.8,-453.94 551.38,-365.17 610,-319 611.51,-317.81 613.08,-316.7 614.72,-315.66"/>
<polygon fill="#63b8ff" stroke="#63b8ff" points="616.06,-318.91 623.24,-311.12 612.77,-312.73 616.06,-318.91"/>
</a>
</g>
</g>
<!-- Node11&#45;&gt;Node7 -->
<g id="edge11_Node000011_Node000007" class="edge">
<title>Node11&#45;&gt;Node7</title>
<g id="a_edge11_Node000011_Node000007"><a xlink:title=" ">
<path fill="none" stroke="#63b8ff" d="M749.72,-482C757.74,-482 765.96,-482 774.07,-482"/>
<polygon fill="#63b8ff" stroke="#63b8ff" points="773.93,-485.5 783.93,-482 773.93,-478.5 773.93,-485.5"/>
</a>
</g>
</g>
<!-- Node17&#45;&gt;Node7 -->
<g id="edge19_Node000017_Node000007" class="edge">
<title>Node17&#45;&gt;Node7</title>
<g id="a_edge19_Node000017_Node000007"><a xlink:title=" ">
<path fill="none" stroke="#63b8ff" d="M730.74,-446.73C753.85,-453.56 781.14,-461.62 803.79,-468.31"/>
<polygon fill="#63b8ff" stroke="#63b8ff" points="802.8,-471.67 813.38,-471.14 804.78,-464.95 802.8,-471.67"/>
</a>
</g>
</g>
<!-- Node19&#45;&gt;Node7 -->
<g id="edge22_Node000019_Node000007" class="edge">
<title>Node19&#45;&gt;Node7</title>
<g id="a_edge22_Node000019_Node000007"><a xlink:title=" ">
<path fill="none" stroke="#63b8ff" d="M728.05,-565.52C735.49,-563.15 742.95,-560.33 749.75,-557 780.64,-541.87 811.67,-516.82 830.87,-499.87"/>
<polygon fill="#63b8ff" stroke="#63b8ff" points="833.09,-502.59 838.18,-493.3 828.4,-497.39 833.09,-502.59"/>
</a>
</g>
</g>
<!-- Node20&#45;&gt;Node7 -->
<g id="edge24_Node000020_Node000007" class="edge">
<title>Node20&#45;&gt;Node7</title>
<g id="a_edge24_Node000020_Node000007"><a xlink:title=" ">
<path fill="none" stroke="#63b8ff" d="M734.43,-516.18C756.78,-509.58 782.48,-501.98 803.98,-495.63"/>
<polygon fill="#63b8ff" stroke="#63b8ff" points="804.75,-499.05 813.35,-492.86 802.77,-492.34 804.75,-499.05"/>
</a>
</g>
</g>
<!-- Node23&#45;&gt;Node7 -->
<g id="edge33_Node000023_Node000007" class="edge">
<title>Node23&#45;&gt;Node7</title>
<g id="a_edge33_Node000023_Node000007"><a xlink:title=" ">
<path fill="none" stroke="#63b8ff" d="M523.36,-283.65C542.79,-266.69 575.95,-241.26 610,-231 669.47,-213.08 698.32,-196.18 749.75,-231 828.22,-284.13 845.35,-409.61 849.08,-460.24"/>
<polygon fill="#63b8ff" stroke="#63b8ff" points="845.59,-460.39 849.69,-470.16 852.57,-459.96 845.59,-460.39"/>
</a>
</g>
</g>
<!-- Node23&#45;&gt;Node11 -->
<g id="edge29_Node000023_Node000011" class="edge">
<title>Node23&#45;&gt;Node11</title>
<g id="a_edge29_Node000023_Node000011"><a xlink:title=" ">
<path fill="none" stroke="#63b8ff" d="M512.46,-316.26C526.05,-347.83 560.14,-417.76 610,-457 611.15,-457.91 612.34,-458.78 613.56,-459.63"/>
<polygon fill="#63b8ff" stroke="#63b8ff" points="611.73,-462.62 622.11,-464.76 615.34,-456.61 611.73,-462.62"/>
</a>
</g>
</g>
<!-- Node23&#45;&gt;Node12 -->
<g id="edge30_Node000023_Node000012" class="edge">
<title>Node23&#45;&gt;Node12</title>
<g id="a_edge30_Node000023_Node000012"><a xlink:title=" ">
<path fill="none" stroke="#63b8ff" d="M565.41,-284.86C577.58,-281.76 590.54,-278.47 603.19,-275.25"/>
<polygon fill="#63b8ff" stroke="#63b8ff" points="603.9,-278.68 612.73,-272.82 602.18,-271.9 603.9,-278.68"/>
</a>
</g>
</g>
<!-- Node23&#45;&gt;Node17 -->
<g id="edge35_Node000023_Node000017" class="edge">
<title>Node23&#45;&gt;Node17</title>
<g id="a_edge35_Node000023_Node000017"><a xlink:title=" ">
<path fill="none" stroke="#63b8ff" d="M517.89,-316.38C535.65,-339.54 571.03,-381.82 610,-407 612.7,-408.75 615.55,-410.39 618.48,-411.94"/>
<polygon fill="#63b8ff" stroke="#63b8ff" points="616.78,-415.01 627.31,-416.18 619.81,-408.7 616.78,-415.01"/>
</a>
</g>
</g>
<!-- Node23&#45;&gt;Node18 -->
<g id="edge36_Node000023_Node000018" class="edge">
<title>Node23&#45;&gt;Node18</title>
<g id="a_edge36_Node000023_Node000018"><a xlink:title=" ">
<path fill="none" stroke="#63b8ff" d="M526.26,-316.35C546.46,-331.85 578.82,-354.8 610,-369 613.95,-370.8 618.11,-372.46 622.34,-373.99"/>
<polygon fill="#63b8ff" stroke="#63b8ff" points="620.92,-377.21 631.52,-377.04 623.13,-370.56 620.92,-377.21"/>
</a>
</g>
</g>
<!-- Node23&#45;&gt;Node19 -->
<g id="edge37_Node000023_Node000019" class="edge">
<title>Node23&#45;&gt;Node19</title>
<g id="a_edge37_Node000023_Node000019"><a xlink:title=" ">
<path fill="none" stroke="#63b8ff" d="M512,-316.23C532.84,-371.34 600.29,-548.36 610,-557 611.09,-557.97 612.23,-558.9 613.41,-559.78"/>
<polygon fill="#63b8ff" stroke="#63b8ff" points="611.44,-562.68 621.81,-564.85 615.06,-556.68 611.44,-562.68"/>
</a>
</g>
</g>
<!-- Node23&#45;&gt;Node20 -->
<g id="edge38_Node000023_Node000020" class="edge">
<title>Node23&#45;&gt;Node20</title>
<g id="a_edge38_Node000023_Node000020"><a xlink:title=" ">
<path fill="none" stroke="#63b8ff" d="M509.64,-316.25C519.4,-354.86 549.11,-452.89 610,-507 611.85,-508.65 613.83,-510.19 615.89,-511.63"/>
<polygon fill="#63b8ff" stroke="#63b8ff" points="613.72,-514.42 624.1,-516.56 617.32,-508.41 613.72,-514.42"/>
</a>
</g>
</g>
<!-- Node23&#45;&gt;Node21 -->
<g id="edge39_Node000023_Node000021" class="edge">
<title>Node23&#45;&gt;Node21</title>
<g id="a_edge39_Node000023_Node000021"><a xlink:title=" ">
<path fill="none" stroke="#63b8ff" d="M565.41,-315.14C577.58,-318.24 590.54,-321.53 603.19,-324.75"/>
<polygon fill="#63b8ff" stroke="#63b8ff" points="602.18,-328.1 612.73,-327.18 603.9,-321.32 602.18,-328.1"/>
</a>
</g>
</g>
<!-- Node23&#45;&gt;Node22 -->
<g id="edge40_Node000023_Node000022" class="edge">
<title>Node23&#45;&gt;Node22</title>
<g id="a_edge40_Node000023_Node000022"><a xlink:title=" ">
<path fill="none" stroke="#63b8ff" d="M565.41,-300C578.85,-300 593.26,-300 607.14,-300"/>
<polygon fill="#63b8ff" stroke="#63b8ff" points="607.13,-303.5 617.13,-300 607.13,-296.5 607.13,-303.5"/>
</a>
</g>
</g>
<!-- Node23&#45;&gt;Node23 -->
<g id="edge41_Node000023_Node000023" class="edge">
<title>Node23&#45;&gt;Node23</title>
<g id="a_edge41_Node000023_Node000023"><a xlink:title=" ">
<path fill="none" stroke="#63b8ff" d="M474.5,-316.44C468.83,-325.58 478.96,-334 504.88,-334 519.05,-334 528.5,-331.48 533.23,-327.71"/>
<polygon fill="#63b8ff" stroke="#63b8ff" points="536.66,-328.39 534.98,-317.93 529.77,-327.16 536.66,-328.39"/>
</a>
</g>
</g>
<!-- Node24 -->
<g id="Node000024" class="node">
<title>Node24</title>
<g id="a_Node000024"><a xlink:href="npcap__transmitter__impl_8cc.html#adc39100394280e20f1f1a569849bdf2d" target="_top" xlink:title="Send a single packet.">
<polygon fill="white" stroke="#666666" points="731.38,-96 628.38,-96 628.38,-76 731.38,-76 731.38,-96"/>
<text xml:space="preserve" text-anchor="middle" x="679.88" y="-82.5" font-family="Helvetica,sans-Serif" font-size="10.00">npcap_send_packet</text>
</a>
</g>
</g>
<!-- Node23&#45;&gt;Node24 -->
<g id="edge31_Node000023_Node000024" class="edge">
<title>Node23&#45;&gt;Node24</title>
<g id="a_edge31_Node000023_Node000024"><a xlink:title=" ">
<path fill="none" stroke="#63b8ff" d="M517.08,-283.69C531.31,-262.61 556.14,-224.51 574,-190 592.86,-153.56 579.15,-132.04 610,-105 612.45,-102.85 615.12,-100.95 617.94,-99.26"/>
<polygon fill="#63b8ff" stroke="#63b8ff" points="619.23,-102.52 626.65,-94.96 616.14,-96.24 619.23,-102.52"/>
</a>
</g>
</g>
<!-- Node25 -->
<g id="Node000025" class="node">
<title>Node25</title>
<g id="a_Node000025"><a xlink:href="npcap__transmitter__impl_8cc.html#a53c0941475ca471f1cc998f9641f8b5e" target="_top" xlink:title="Send a packet with trailing zero&#45;padding.">
<polygon fill="white" stroke="#666666" points="749.75,-184 610,-184 610,-164 749.75,-164 749.75,-184"/>
<text xml:space="preserve" text-anchor="middle" x="679.88" y="-170.5" font-family="Helvetica,sans-Serif" font-size="10.00">npcap_send_packet_padded</text>
</a>
</g>
</g>
<!-- Node23&#45;&gt;Node25 -->
<g id="edge32_Node000023_Node000025" class="edge">
<title>Node23&#45;&gt;Node25</title>
<g id="a_edge32_Node000023_Node000025"><a xlink:title=" ">
<path fill="none" stroke="#63b8ff" d="M518.63,-283.6C536.73,-261.33 571.94,-221.61 610,-198 615.86,-194.36 622.35,-191.19 628.92,-188.44"/>
<polygon fill="#63b8ff" stroke="#63b8ff" points="629.77,-191.87 637.85,-185.02 627.26,-185.33 629.77,-191.87"/>
</a>
</g>
</g>
<!-- Node26 -->
<g id="Node000026" class="node">
<title>Node26</title>
<g id="a_Node000026"><a xlink:href="sv__stats__impl_8cc.html#a280e159261a15485b1e0309f59df84e8" target="_top" xlink:title="Record a failed packet transmission.">
<polygon fill="white" stroke="#666666" points="730.62,-146 629.12,-146 629.12,-114 730.62,-114 730.62,-146"/>
<text xml:space="preserve" text-anchor="start" x="637.12" y="-132.5" font-family="Helvetica,sans-Serif" font-size="10.00">npcap_stats_record</text>
<text xml:space="preserve" text-anchor="middle" x="679.88" y="-120.5" font-family="Helvetica,sans-Serif" font-size="10.00">_failure</text>
</a>
</g>
</g>
<!-- Node23&#45;&gt;Node26 -->
<g id="edge34_Node000023_Node000026" class="edge">
<title>Node23&#45;&gt;Node26</title>
<g id="a_edge34_Node000023_Node000026"><a xlink:title=" ">
<path fill="none" stroke="#63b8ff" d="M515.88,-283.64C536.88,-249.75 585.6,-173.48 610,-155 612.75,-152.92 615.69,-150.99 618.75,-149.22"/>
<polygon fill="#63b8ff" stroke="#63b8ff" points="620.19,-152.42 627.5,-144.75 617,-146.19 620.19,-152.42"/>
</a>
</g>
</g>
</g>
</svg>

<g id="navigator" transform="translate(0 0)" fill="#404254">
  <rect fill="#f2f5e9" fill-opacity="0.5" stroke="#606060" stroke-width=".5" x="0" y="0" width="60" height="60"/>
  <use id="zoomplus" xlink:href="#zoomPlus" x="17" y="9" onmousedown="handleZoom(evt,'in')"/>
  <use id="zoomminus" xlink:href="#zoomMin" x="42" y="9" onmousedown="handleZoom(evt,'out')"/>
  <use id="reset" xlink:href="#resetDef" x="30" y="36" onmousedown="handleReset()"/>
   <use id="arrowup" xlink:href="#arrowUp" x="0" y="0" onmousedown="handlePan(0,-1)"/>
  <use id="arrowright" xlink:href="#arrowRight" x="0" y="0" onmousedown="handlePan(1,0)"/>
  <use id="arrowdown" xlink:href="#arrowDown" x="0" y="0" onmousedown="handlePan(0,1)"/>
  <use id="arrowleft" xlink:href="#arrowLeft" x="0" y="0" onmousedown="handlePan(-1,0)"/>
</g>
<svg viewBox="0 0 15 15" width="100%" height="30px" preserveAspectRatio="xMaxYMin meet">
 <g id="arrow_out" transform="scale(0.3 0.3)">
  <a xlink:href="sv__controller_8cc_a1b6b0344797b9edf84722fde0e1c660a_cgraph_org.svg" target="_base">
   <rect id="button" ry="5" rx="5" y="6" x="6" height="38" width="38"
        fill="#f2f5e9" fill-opacity="0.5" stroke="#606060" stroke-width="1.0"/>
   <path id="arrow"
     d="M 11.500037,31.436501 C 11.940474,20.09759 22.043105,11.32322 32.158766,21.979434 L 37.068811,17.246167 C 37.068811,17.246167 37.088388,32 37.088388,32 L 22.160133,31.978069 C 22.160133,31.978069 26.997745,27.140456 26.997745,27.140456 C 18.528582,18.264221 13.291696,25.230495 11.500037,31.436501 z"
     style="fill:#404040;"/>
  </a>
 </g>
</svg>

<style type='text/css'>
<![CDATA[
[data-mouse-over-selected='false'] { opacity: 0.7; }
[data-mouse-over-selected='true']  { opacity: 1.0; }
]]>
</style>
<script type="application/ecmascript"><![CDATA[
document.addEventListener('DOMContentLoaded', (event) => {
  highlightEdges();
  highlightAdjacentNodes();
});
]]></script>
</svg>
