<?xml version="1.0" encoding="UTF-8" standalone="no"?>
<!DOCTYPE svg PUBLIC "-//W3C//DTD SVG 1.1//EN"
 "http://www.w3.org/Graphics/SVG/1.1/DTD/svg11.dtd">
<!-- Generated by graphviz version 14.1.2 (20260124.0452)
 -->
<!-- Title: sv_mp_get_send_mode Pages: 1 -->
<svg width="466pt" height="66pt"
 viewBox="0.00 0.00 466.00 66.00" xmlns="http://www.w3.org/2000/svg" xmlns:xlink="http://www.w3.org/1999/xlink">
<g id="graph0" class="graph" transform="scale(1 1) rotate(0) translate(4 62)">
<title>sv_mp_get_send_mode</title>
<!-- Node1 -->
<g id="Node000001" class="node">
<title>Node1</title>
<g id="a_Node000001"><a xlink:title=" ">
<polygon fill="#999999" stroke="#666666" points="119.5,-39 0,-39 0,-19 119.5,-19 119.5,-39"/>
<text xml:space="preserve" text-anchor="middle" x="59.75" y="-25.5" font-family="Helvetica,sans-Serif" font-size="10.00">sv_mp_get_send_mode</text>
</a>
</g>
</g>
<!-- Node2 -->
<g id="Node000002" class="node">
<title>Node2</title>
<g id="a_Node000002"><a xlink:href="class_sv_controller.html#a57f903698b9a0d7cfdbcc9117951c262" target="_top" xlink:title=" ">
<polygon fill="white" stroke="#666666" points="291.5,-58 155.5,-58 155.5,-38 291.5,-38 291.5,-58"/>
<text xml:space="preserve" text-anchor="middle" x="223.5" y="-44.5" font-family="Helvetica,sans-Serif" font-size="10.00">SvController::getSendMode</text>
</a>
</g>
</g>
<!-- Node1&#45;&gt;Node2 -->
<g id="edge1_Node000001_Node000002" class="edge">
<title>Node1&#45;&gt;Node2</title>
<g id="a_edge1_Node000001_Node000002"><a xlink:title=" ">
<path fill="none" stroke="#63b8ff" d="M119.6,-35.91C127.55,-36.85 135.81,-37.82 144.03,-38.78"/>
<polygon fill="#63b8ff" stroke="#63b8ff" points="143.35,-42.23 153.69,-39.92 144.17,-35.27 143.35,-42.23"/>
</a>
</g>
</g>
<!-- Node3 -->
<g id="Node000003" class="node">
<title>Node3</title>
<g id="a_Node000003"><a xlink:href="class_sv_controller.html#afc102679fe80499c39d27cb8640394cc" target="_top" xlink:title=" ">
<polygon fill="white" stroke="#666666" points="279.88,-20 167.12,-20 167.12,0 279.88,0 279.88,-20"/>
<text xml:space="preserve" text-anchor="middle" x="223.5" y="-6.5" font-family="Helvetica,sans-Serif" font-size="10.00">SvController::instance</text>
</a>
</g>
</g>
<!-- Node1&#45;&gt;Node3 -->
<g id="edge2_Node000001_Node000003" class="edge">
<title>Node1&#45;&gt;Node3</title>
<g id="a_edge2_Node000001_Node000003"><a xlink:title=" ">
<path fill="none" stroke="#63b8ff" d="M119.6,-22.09C131.24,-20.72 143.54,-19.28 155.42,-17.88"/>
<polygon fill="#63b8ff" stroke="#63b8ff" points="155.63,-21.38 165.15,-16.74 154.81,-14.43 155.63,-21.38"/>
</a>
</g>
</g>
<!-- Node4 -->
<g id="Node000004" class="node">
<title>Node4</title>
<g id="a_Node000004"><a xlink:href="class_sv_controller.html#aa5d7c635a8015c90217076cf4722542c" target="_top" xlink:title=" ">
<polygon fill="white" stroke="#666666" points="457.5,-20 327.5,-20 327.5,0 457.5,0 457.5,-20"/>
<text xml:space="preserve" text-anchor="middle" x="392.5" y="-6.5" font-family="Helvetica,sans-Serif" font-size="10.00">SvController::SvController</text>
</a>
</g>
</g>
<!-- Node3&#45;&gt;Node4 -->
<g id="edge3_Node000003_Node000004" class="edge">
<title>Node3&#45;&gt;Node4</title>
<g id="a_edge3_Node000003_Node000004"><a xlink:title=" ">
<path fill="none" stroke="#63b8ff" d="M280.11,-10C291.54,-10 303.76,-10 315.77,-10"/>
<polygon fill="#63b8ff" stroke="#63b8ff" points="315.66,-13.5 325.66,-10 315.66,-6.5 315.66,-13.5"/>
</a>
</g>
</g>
</g>
</svg>
