<?xml version="1.0" encoding="UTF-8" standalone="no"?>
<!DOCTYPE svg PUBLIC "-//W3C//DTD SVG 1.1//EN"
 "http://www.w3.org/Graphics/SVG/1.1/DTD/svg11.dtd">
<!-- Generated by graphviz version 14.1.2 (20260124.0452)
 -->
<!-- Title: prebuild_frames Pages: 1 -->
<svg width="397pt" height="142pt"
 viewBox="0.00 0.00 397.00 142.00" xmlns="http://www.w3.org/2000/svg" xmlns:xlink="http://www.w3.org/1999/xlink">
<g id="graph0" class="graph" transform="scale(1 1) rotate(0) translate(4 138)">
<title>prebuild_frames</title>
<!-- Node1 -->
<g id="Node000001" class="node">
<title>Node1</title>
<g id="a_Node000001"><a xlink:title=" ">
<polygon fill="#999999" stroke="#666666" points="85,-77 0,-77 0,-57 85,-57 85,-77"/>
<text xml:space="preserve" text-anchor="middle" x="42.5" y="-63.5" font-family="Helvetica,sans-Serif" font-size="10.00">prebuild_frames</text>
</a>
</g>
</g>
<!-- Node2 -->
<g id="Node000002" class="node">
<title>Node2</title>
<g id="a_Node000002"><a xlink:href="sv__native__refactored_8cc.html#a2f554ded106c1391e42b140e22584fb3" target="_top" xlink:title=" ">
<polygon fill="white" stroke="#666666" points="238.62,-134 140.88,-134 140.88,-114 238.62,-114 238.62,-134"/>
<text xml:space="preserve" text-anchor="middle" x="189.75" y="-120.5" font-family="Helvetica,sans-Serif" font-size="10.00">alloc_frame_cache</text>
</a>
</g>
</g>
<!-- Node1&#45;&gt;Node2 -->
<g id="edge1_Node000001_Node000002" class="edge">
<title>Node1&#45;&gt;Node2</title>
<g id="a_edge1_Node000001_Node000002"><a xlink:title=" ">
<path fill="none" stroke="#63b8ff" d="M62.18,-77.36C77.61,-85.63 100.28,-97.09 121,-105 125.88,-106.86 131.02,-108.63 136.19,-110.29"/>
<polygon fill="#63b8ff" stroke="#63b8ff" points="134.76,-113.51 145.35,-113.08 136.81,-106.82 134.76,-113.51"/>
</a>
</g>
</g>
<!-- Node4 -->
<g id="Node000004" class="node">
<title>Node4</title>
<g id="a_Node000004"><a xlink:href="sv__native__refactored_8cc.html#a081cf319776daba5ec14c60bec132d64" target="_top" xlink:title=" ">
<polygon fill="white" stroke="#666666" points="232.25,-96 147.25,-96 147.25,-76 232.25,-76 232.25,-96"/>
<text xml:space="preserve" text-anchor="middle" x="189.75" y="-82.5" font-family="Helvetica,sans-Serif" font-size="10.00">g_eq_processor</text>
</a>
</g>
</g>
<!-- Node1&#45;&gt;Node4 -->
<g id="edge3_Node000001_Node000004" class="edge">
<title>Node1&#45;&gt;Node4</title>
<g id="a_edge3_Node000001_Node000004"><a xlink:title=" ">
<path fill="none" stroke="#63b8ff" d="M85.12,-72.44C100.86,-74.5 118.98,-76.87 135.63,-79.05"/>
<polygon fill="#63b8ff" stroke="#63b8ff" points="135,-82.5 145.37,-80.33 135.91,-75.56 135,-82.5"/>
</a>
</g>
</g>
<!-- Node5 -->
<g id="Node000005" class="node">
<title>Node5</title>
<g id="a_Node000005"><a xlink:href="sv__encoder__impl_8cc.html#a58f4a492f4c37293fdfcc0401b72abd1" target="_top" xlink:title="Encode a single SV packet.">
<polygon fill="white" stroke="#666666" points="258.5,-58 121,-58 121,-38 258.5,-38 258.5,-58"/>
<text xml:space="preserve" text-anchor="middle" x="189.75" y="-44.5" font-family="Helvetica,sans-Serif" font-size="10.00">sv_encoder_encode_packet</text>
</a>
</g>
</g>
<!-- Node1&#45;&gt;Node5 -->
<g id="edge4_Node000001_Node000005" class="edge">
<title>Node1&#45;&gt;Node5</title>
<g id="a_edge4_Node000001_Node000005"><a xlink:title=" ">
<path fill="none" stroke="#63b8ff" d="M85.12,-61.56C92.73,-60.56 100.9,-59.49 109.18,-58.41"/>
<polygon fill="#63b8ff" stroke="#63b8ff" points="109.56,-61.89 119.02,-57.12 108.65,-54.95 109.56,-61.89"/>
</a>
</g>
</g>
<!-- Node6 -->
<g id="Node000006" class="node">
<title>Node6</title>
<g id="a_Node000006"><a xlink:href="sv__encoder__impl_8cc.html#a3b78a24c9d83ba55bcd667b3b7fec64c" target="_top" xlink:title="Set encoder configuration.">
<polygon fill="white" stroke="#666666" points="248,-20 131.5,-20 131.5,0 248,0 248,-20"/>
<text xml:space="preserve" text-anchor="middle" x="189.75" y="-6.5" font-family="Helvetica,sans-Serif" font-size="10.00">sv_encoder_set_config</text>
</a>
</g>
</g>
<!-- Node1&#45;&gt;Node6 -->
<g id="edge5_Node000001_Node000006" class="edge">
<title>Node1&#45;&gt;Node6</title>
<g id="a_edge5_Node000001_Node000006"><a xlink:title=" ">
<path fill="none" stroke="#63b8ff" d="M62.18,-56.64C77.61,-48.37 100.28,-36.91 121,-29 125.88,-27.14 131.02,-25.37 136.19,-23.71"/>
<polygon fill="#63b8ff" stroke="#63b8ff" points="136.81,-27.18 145.35,-20.92 134.76,-20.49 136.81,-27.18"/>
</a>
</g>
</g>
<!-- Node3 -->
<g id="Node000003" class="node">
<title>Node3</title>
<g id="a_Node000003"><a xlink:href="sv__native__refactored_8cc.html#a24b2107199112b58a421c0c873ea7d12" target="_top" xlink:title=" ">
<polygon fill="white" stroke="#666666" points="388.5,-134 294.5,-134 294.5,-114 388.5,-114 388.5,-134"/>
<text xml:space="preserve" text-anchor="middle" x="341.5" y="-120.5" font-family="Helvetica,sans-Serif" font-size="10.00">free_frame_cache</text>
</a>
</g>
</g>
<!-- Node2&#45;&gt;Node3 -->
<g id="edge2_Node000002_Node000003" class="edge">
<title>Node2&#45;&gt;Node3</title>
<g id="a_edge2_Node000002_Node000003"><a xlink:title=" ">
<path fill="none" stroke="#63b8ff" d="M238.96,-124C252.92,-124 268.31,-124 282.79,-124"/>
<polygon fill="#63b8ff" stroke="#63b8ff" points="282.66,-127.5 292.66,-124 282.66,-120.5 282.66,-127.5"/>
</a>
</g>
</g>
</g>
</svg>
