<?xml version="1.0" encoding="UTF-8" standalone="no"?>
<!DOCTYPE svg PUBLIC "-//W3C//DTD SVG 1.1//EN"
 "http://www.w3.org/Graphics/SVG/1.1/DTD/svg11.dtd">
<!-- Generated by graphviz version 14.1.2 (20260124.0452)
 -->
<!-- Title: sv_native.h Pages: 1 -->
<svg width="559pt" height="196pt"
 viewBox="0.00 0.00 559.00 196.00" xmlns="http://www.w3.org/2000/svg" xmlns:xlink="http://www.w3.org/1999/xlink">
<g id="graph0" class="graph" transform="scale(1 1) rotate(0) translate(4 192)">
<title>sv_native.h</title>
<!-- Node1 -->
<g id="Node000001" class="node">
<title>Node1</title>
<g id="a_Node000001"><a xlink:title="Header for Tauri FFI &#45; C interface for Rust.">
<polygon fill="#999999" stroke="#666666" points="308.5,-188 242.25,-188 242.25,-168 308.5,-168 308.5,-188"/>
<text xml:space="preserve" text-anchor="middle" x="275.38" y="-174.5" font-family="Helvetica,sans-Serif" font-size="10.00">sv_native.h</text>
</a>
</g>
</g>
<!-- Node2 -->
<g id="Node000002" class="node">
<title>Node2</title>
<g id="a_Node000002"><a xlink:href="npcap__transmitter_8h.html" target="_top" xlink:title="Npcap Network Transmitter Module.">
<polygon fill="white" stroke="#666666" points="247.5,-132 145.25,-132 145.25,-112 247.5,-112 247.5,-132"/>
<text xml:space="preserve" text-anchor="middle" x="196.38" y="-118.5" font-family="Helvetica,sans-Serif" font-size="10.00">npcap_transmitter.h</text>
</a>
</g>
</g>
<!-- Node1&#45;&gt;Node2 -->
<g id="edge1_Node000001_Node000002" class="edge">
<title>Node1&#45;&gt;Node2</title>
<g id="a_edge1_Node000001_Node000002"><a xlink:title=" ">
<path fill="none" stroke="#63b8ff" d="M252.36,-161.27C238.72,-151.94 221.87,-140.43 210.24,-132.48"/>
<polygon fill="#63b8ff" stroke="#63b8ff" points="250.13,-163.99 260.36,-166.74 254.08,-158.21 250.13,-163.99"/>
</a>
</g>
</g>
<!-- Node6 -->
<g id="Node000006" class="node">
<title>Node6</title>
<g id="a_Node000006"><a xlink:href="sv__native__refactored_8cc.html" target="_top" xlink:title="SV Publisher &#45; Main Entry Point for Tauri FFI.">
<polygon fill="white" stroke="#666666" points="306.5,-76 186.25,-76 186.25,-56 306.5,-56 306.5,-76"/>
<text xml:space="preserve" text-anchor="middle" x="246.38" y="-62.5" font-family="Helvetica,sans-Serif" font-size="10.00">sv_native_refactored.cc</text>
</a>
</g>
</g>
<!-- Node1&#45;&gt;Node6 -->
<g id="edge7_Node000001_Node000006" class="edge">
<title>Node1&#45;&gt;Node6</title>
<g id="a_edge7_Node000001_Node000006"><a xlink:title=" ">
<path fill="none" stroke="#63b8ff" d="M270.01,-156.64C263.7,-132.72 253.5,-94.03 248.84,-76.35"/>
<polygon fill="#63b8ff" stroke="#63b8ff" points="266.58,-157.38 272.52,-166.16 273.35,-155.6 266.58,-157.38"/>
</a>
</g>
</g>
<!-- Node7 -->
<g id="Node000007" class="node">
<title>Node7</title>
<g id="a_Node000007"><a xlink:href="sv__stats_8h.html" target="_top" xlink:title="Transmission Statistics Module.">
<polygon fill="white" stroke="#666666" points="395.25,-132 333.5,-132 333.5,-112 395.25,-112 395.25,-132"/>
<text xml:space="preserve" text-anchor="middle" x="364.38" y="-118.5" font-family="Helvetica,sans-Serif" font-size="10.00">sv_stats.h</text>
</a>
</g>
</g>
<!-- Node1&#45;&gt;Node7 -->
<g id="edge8_Node000001_Node000007" class="edge">
<title>Node1&#45;&gt;Node7</title>
<g id="a_edge8_Node000001_Node000007"><a xlink:title=" ">
<path fill="none" stroke="#63b8ff" d="M300.41,-161.81C315.93,-152.39 335.4,-140.58 348.75,-132.48"/>
<polygon fill="#63b8ff" stroke="#63b8ff" points="298.91,-158.63 292.17,-166.81 302.54,-164.61 298.91,-158.63"/>
</a>
</g>
</g>
<!-- Node3 -->
<g id="Node000003" class="node">
<title>Node3</title>
<g id="a_Node000003"><a xlink:href="npcap__transmitter__impl_8cc.html" target="_top" xlink:title="Npcap Network Transmitter.">
<polygon fill="white" stroke="#666666" points="130.75,-76 0,-76 0,-56 130.75,-56 130.75,-76"/>
<text xml:space="preserve" text-anchor="middle" x="65.38" y="-62.5" font-family="Helvetica,sans-Serif" font-size="10.00">npcap_transmitter_impl.cc</text>
</a>
</g>
</g>
<!-- Node2&#45;&gt;Node3 -->
<g id="edge2_Node000002_Node000003" class="edge">
<title>Node2&#45;&gt;Node3</title>
<g id="a_edge2_Node000002_Node000003"><a xlink:title=" ">
<path fill="none" stroke="#63b8ff" d="M163.07,-107.27C139.7,-97.64 109.06,-85.01 88.37,-76.48"/>
<polygon fill="#63b8ff" stroke="#63b8ff" points="161.58,-110.44 172.16,-111.02 164.25,-103.97 161.58,-110.44"/>
</a>
</g>
</g>
<!-- Node4 -->
<g id="Node000004" class="node">
<title>Node4</title>
<g id="a_Node000004"><a xlink:href="sv__controller_8cc.html" target="_top" xlink:title="Implementation of SharedBuffer + SvController + Multi&#45;Publisher FFI.">
<polygon fill="white" stroke="#666666" points="406.88,-20 321.88,-20 321.88,0 406.88,0 406.88,-20"/>
<text xml:space="preserve" text-anchor="middle" x="364.38" y="-6.5" font-family="Helvetica,sans-Serif" font-size="10.00">sv_controller.cc</text>
</a>
</g>
</g>
<!-- Node2&#45;&gt;Node4 -->
<g id="edge3_Node000002_Node000004" class="edge">
<title>Node2&#45;&gt;Node4</title>
<g id="a_edge3_Node000002_Node000004"><a xlink:title=" ">
<path fill="none" stroke="#63b8ff" d="M182.53,-102.03C174.16,-88.05 166.94,-69.25 177.38,-56 194.99,-33.64 272.09,-21.1 321.63,-15.22"/>
<polygon fill="#63b8ff" stroke="#63b8ff" points="179.6,-103.95 188.05,-110.35 185.44,-100.08 179.6,-103.95"/>
</a>
</g>
</g>
<!-- Node5 -->
<g id="Node000005" class="node">
<title>Node5</title>
<g id="a_Node000005"><a xlink:href="sv__controller_8h.html" target="_top" xlink:title="Main Controller + SharedBuffer for Multi&#45;Publisher SV System.">
<polygon fill="white" stroke="#666666" points="404.25,-76 324.5,-76 324.5,-56 404.25,-56 404.25,-76"/>
<text xml:space="preserve" text-anchor="middle" x="364.38" y="-62.5" font-family="Helvetica,sans-Serif" font-size="10.00">sv_controller.h</text>
</a>
</g>
</g>
<!-- Node2&#45;&gt;Node5 -->
<g id="edge4_Node000002_Node000005" class="edge">
<title>Node2&#45;&gt;Node5</title>
<g id="a_edge4_Node000002_Node000005"><a xlink:title=" ">
<path fill="none" stroke="#63b8ff" d="M236.27,-108.18C266.55,-98.44 307.51,-85.28 334.88,-76.48"/>
<polygon fill="#63b8ff" stroke="#63b8ff" points="235.53,-104.74 227.08,-111.13 237.67,-111.4 235.53,-104.74"/>
</a>
</g>
</g>
<!-- Node2&#45;&gt;Node6 -->
<g id="edge6_Node000002_Node000006" class="edge">
<title>Node2&#45;&gt;Node6</title>
<g id="a_edge6_Node000002_Node000006"><a xlink:title=" ">
<path fill="none" stroke="#63b8ff" d="M212.78,-103.29C221.12,-94.28 230.91,-83.7 237.77,-76.3"/>
<polygon fill="#63b8ff" stroke="#63b8ff" points="210.34,-100.77 206.11,-110.48 215.47,-105.52 210.34,-100.77"/>
</a>
</g>
</g>
<!-- Node5&#45;&gt;Node4 -->
<g id="edge5_Node000005_Node000004" class="edge">
<title>Node5&#45;&gt;Node4</title>
<g id="a_edge5_Node000005_Node000004"><a xlink:title=" ">
<path fill="none" stroke="#63b8ff" d="M364.38,-44.13C364.38,-35.9 364.38,-26.85 364.38,-20.3"/>
<polygon fill="#63b8ff" stroke="#63b8ff" points="360.88,-44.08 364.38,-54.08 367.88,-44.08 360.88,-44.08"/>
</a>
</g>
</g>
<!-- Node7&#45;&gt;Node4 -->
<g id="edge9_Node000007_Node000004" class="edge">
<title>Node7&#45;&gt;Node4</title>
<g id="a_edge9_Node000007_Node000004"><a xlink:title=" ">
<path fill="none" stroke="#63b8ff" d="M389.15,-105.03C398.59,-97.49 408.29,-87.58 413.38,-76 423.1,-53.88 397.97,-32.31 380.21,-20.42"/>
<polygon fill="#63b8ff" stroke="#63b8ff" points="387.19,-102.13 381.2,-110.87 391.34,-107.77 387.19,-102.13"/>
</a>
</g>
</g>
<!-- Node7&#45;&gt;Node5 -->
<g id="edge10_Node000007_Node000005" class="edge">
<title>Node7&#45;&gt;Node5</title>
<g id="a_edge10_Node000007_Node000005"><a xlink:title=" ">
<path fill="none" stroke="#63b8ff" d="M364.38,-100.13C364.38,-91.9 364.38,-82.85 364.38,-76.3"/>
<polygon fill="#63b8ff" stroke="#63b8ff" points="360.88,-100.08 364.38,-110.08 367.88,-100.08 360.88,-100.08"/>
</a>
</g>
</g>
<!-- Node7&#45;&gt;Node6 -->
<g id="edge11_Node000007_Node000006" class="edge">
<title>Node7&#45;&gt;Node6</title>
<g id="a_edge11_Node000007_Node000006"><a xlink:title=" ">
<path fill="none" stroke="#63b8ff" d="M333.51,-106.88C312.58,-97.3 285.47,-84.89 267.09,-76.48"/>
<polygon fill="#63b8ff" stroke="#63b8ff" points="331.9,-109.99 342.44,-110.96 334.81,-103.62 331.9,-109.99"/>
</a>
</g>
</g>
<!-- Node8 -->
<g id="Node000008" class="node">
<title>Node8</title>
<g id="a_Node000008"><a xlink:href="sv__stats__impl_8cc.html" target="_top" xlink:title="Transmission Statistics Tracker.">
<polygon fill="white" stroke="#666666" points="550.5,-76 460.25,-76 460.25,-56 550.5,-56 550.5,-76"/>
<text xml:space="preserve" text-anchor="middle" x="505.38" y="-62.5" font-family="Helvetica,sans-Serif" font-size="10.00">sv_stats_impl.cc</text>
</a>
</g>
</g>
<!-- Node7&#45;&gt;Node8 -->
<g id="edge12_Node000007_Node000008" class="edge">
<title>Node7&#45;&gt;Node8</title>
<g id="a_edge12_Node000007_Node000008"><a xlink:title=" ">
<path fill="none" stroke="#63b8ff" d="M399.54,-107.53C424.78,-97.87 458.15,-85.08 480.62,-76.48"/>
<polygon fill="#63b8ff" stroke="#63b8ff" points="398.44,-104.21 390.35,-111.05 400.94,-110.74 398.44,-104.21"/>
</a>
</g>
</g>
</g>
</svg>
