<?xml version="1.0" encoding="UTF-8" standalone="no"?>
<!DOCTYPE svg PUBLIC "-//W3C//DTD SVG 1.1//EN"
 "http://www.w3.org/Graphics/SVG/1.1/DTD/svg11.dtd">
<!-- Generated by graphviz version 14.1.2 (20260124.0452)
 -->
<!-- Title: npcap_publisher_start Pages: 1 -->
<!--zoomable 938 -->

<svg id="main" version="1.1" xmlns="http://www.w3.org/2000/svg" xmlns:xlink="http://www.w3.org/1999/xlink" xml:space="preserve" onload="init(evt)">

<style type="text/css"><![CDATA[
.node, .edge {opacity: 0.7;}
.node.selected, .edge.selected {opacity: 1;}
.edge:hover path { stroke: red; }
.edge:hover polygon { stroke: red; fill: red; }
]]></style>

<defs>
  <circle id="rim" cx="0" cy="0" r="7"/>
  <circle id="rim2" cx="0" cy="0" r="3.5"/>
  <g id="zoomPlus">
    <use xlink:href="#rim" fill="#404040"><set attributeName="fill" to="#808080" begin="zoomplus.mouseover" end="zoomplus.mouseout"/></use>
    <path d="M-4,0h8M0,-4v8" fill="none" stroke="white" stroke-width="1.5" pointer-events="none"/>
  </g>
  <g id="zoomMin">
    <use xlink:href="#rim" fill="#404040"><set attributeName="fill" to="#808080" begin="zoomminus.mouseover" end="zoomminus.mouseout"/></use>
    <path d="M-4,0h8" fill="none" stroke="white" stroke-width="1.5" pointer-events="none"/>
  </g>
  <g id="arrowUp" transform="translate(30 24)">
    <use xlink:href="#rim"/>
    <path pointer-events="none" fill="none" stroke="white" stroke-width="1.5" d="M0,-3.0v7 M-2.5,-0.5L0,-3.0L2.5,-0.5"/>
  </g>
  <g id="arrowRight" transform="rotate(90) translate(36 -43)">
    <use xlink:href="#rim"/>
    <path pointer-events="none" fill="none" stroke="white" stroke-width="1.5" d="M0,-3.0v7 M-2.5,-0.5L0,-3.0L2.5,-0.5"/>
  </g>
  <g id="arrowDown" transform="rotate(180) translate(-30 -48)">
    <use xlink:href="#rim"/>
    <path pointer-events="none" fill="none" stroke="white" stroke-width="1.5" d="M0,-3.0v7 M-2.5,-0.5L0,-3.0L2.5,-0.5"/>
  </g>
  <g id="arrowLeft" transform="rotate(270) translate(-36 17)">
    <use xlink:href="#rim"/>
    <path pointer-events="none" fill="none" stroke="white" stroke-width="1.5" d="M0,-3.0v7 M-2.5,-0.5L0,-3.0L2.5,-0.5"/>
  </g>
  <g id="resetDef">
    <use xlink:href="#rim2" fill="#404040"><set attributeName="fill" to="#808080" begin="reset.mouseover" end="reset.mouseout"/></use>
  </g>
</defs>
<script type="application/ecmascript">
var viewWidth = 810;
var viewHeight = 938;
var sectionId = 'dynsection-3';
</script>
<script type="application/ecmascript" xlink:href="svg.min.js"/>
<svg id="graph" class="graph">
<g id="viewport">
<title>npcap_publisher_start</title>
<!-- Node1 -->
<g id="Node000001" class="node">
<title>Node1</title>
<g id="a_Node000001"><a xlink:title="Start publishing.">
<polygon fill="#999999" stroke="#666666" points="111.25,-550 0,-550 0,-530 111.25,-530 111.25,-550"/>
<text xml:space="preserve" text-anchor="middle" x="55.62" y="-536.5" font-family="Helvetica,sans-Serif" font-size="10.00">npcap_publisher_start</text>
</a>
</g>
</g>
<!-- Node2 -->
<g id="Node000002" class="node">
<title>Node2</title>
<g id="a_Node000002"><a xlink:href="sv__native__refactored_8cc.html#a73998198f95089da56c389e492a471e5" target="_top" xlink:title=" ">
<polygon fill="white" stroke="#666666" points="602.12,-588 529.88,-588 529.88,-568 602.12,-568 602.12,-588"/>
<text xml:space="preserve" text-anchor="middle" x="566" y="-574.5" font-family="Helvetica,sans-Serif" font-size="10.00">get_time_ms</text>
</a>
</g>
</g>
<!-- Node1&#45;&gt;Node2 -->
<g id="edge1_Node000001_Node000002" class="edge">
<title>Node1&#45;&gt;Node2</title>
<g id="a_edge1_Node000001_Node000002"><a xlink:title=" ">
<path fill="none" stroke="#63b8ff" d="M102.08,-529.55C153.01,-520.72 235.03,-515.57 285.5,-559 338.12,-604.28 267.05,-667.94 321.5,-711 370.22,-749.53 405.44,-738.25 461.25,-711 509.32,-687.53 541.61,-629.84 556.17,-598.71"/>
<polygon fill="#63b8ff" stroke="#63b8ff" points="559.36,-600.15 560.26,-589.59 552.97,-597.29 559.36,-600.15"/>
</a>
</g>
</g>
<!-- Node4 -->
<g id="Node000004" class="node">
<title>Node4</title>
<g id="a_Node000004"><a xlink:href="npcap__transmitter__impl_8cc.html#abbf1f613938819749a5833ac67f5dc7b" target="_top" xlink:title="Check if an interface is open.">
<polygon fill="white" stroke="#666666" points="257,-626 175.75,-626 175.75,-606 257,-606 257,-626"/>
<text xml:space="preserve" text-anchor="middle" x="216.38" y="-612.5" font-family="Helvetica,sans-Serif" font-size="10.00">npcap_is_open</text>
</a>
</g>
</g>
<!-- Node1&#45;&gt;Node4 -->
<g id="edge3_Node000001_Node000004" class="edge">
<title>Node1&#45;&gt;Node4</title>
<g id="a_edge3_Node000001_Node000004"><a xlink:title=" ">
<path fill="none" stroke="#63b8ff" d="M70.35,-550.42C87.51,-563.02 118.19,-584.14 147.25,-597 152.79,-599.45 158.73,-601.67 164.71,-603.64"/>
<polygon fill="#63b8ff" stroke="#63b8ff" points="163.4,-606.9 173.98,-606.5 165.45,-600.21 163.4,-606.9"/>
</a>
</g>
</g>
<!-- Node5 -->
<g id="Node000005" class="node">
<title>Node5</title>
<g id="a_Node000005"><a xlink:href="npcap__transmitter__impl_8cc.html#a3603a13e403ee5dc84d62e476f8c2a86" target="_top" xlink:title="Check if SendQueue API is available.">
<polygon fill="white" stroke="#666666" points="285.5,-588 147.25,-588 147.25,-568 285.5,-568 285.5,-588"/>
<text xml:space="preserve" text-anchor="middle" x="216.38" y="-574.5" font-family="Helvetica,sans-Serif" font-size="10.00">npcap_sendqueue_available</text>
</a>
</g>
</g>
<!-- Node1&#45;&gt;Node5 -->
<g id="edge4_Node000001_Node000005" class="edge">
<title>Node1&#45;&gt;Node5</title>
<g id="a_edge4_Node000001_Node000005"><a xlink:title=" ">
<path fill="none" stroke="#63b8ff" d="M100.42,-550.48C119.08,-554.95 141.03,-560.21 160.73,-564.92"/>
<polygon fill="#63b8ff" stroke="#63b8ff" points="159.71,-568.27 170.25,-567.2 161.34,-561.47 159.71,-568.27"/>
</a>
</g>
</g>
<!-- Node6 -->
<g id="Node000006" class="node">
<title>Node6</title>
<g id="a_Node000006"><a xlink:href="sv__native__refactored_8cc.html#a186b6b16f2d04a7fd9c7da099fac4fa5" target="_top" xlink:title=" ">
<polygon fill="white" stroke="#666666" points="270.12,-664 162.62,-664 162.62,-644 270.12,-644 270.12,-664"/>
<text xml:space="preserve" text-anchor="middle" x="216.38" y="-650.5" font-family="Helvetica,sans-Serif" font-size="10.00">publisher_loop_batch</text>
</a>
</g>
</g>
<!-- Node1&#45;&gt;Node6 -->
<g id="edge5_Node000001_Node000006" class="edge">
<title>Node1&#45;&gt;Node6</title>
<g id="a_edge5_Node000001_Node000006"><a xlink:title=" ">
<path fill="none" stroke="#63b8ff" d="M63.54,-550.32C77.17,-569.86 109.53,-612.36 147.25,-635 149.83,-636.55 152.53,-637.97 155.32,-639.28"/>
<polygon fill="#63b8ff" stroke="#63b8ff" points="153.71,-642.4 164.28,-642.98 156.37,-635.93 153.71,-642.4"/>
</a>
</g>
</g>
<!-- Node25 -->
<g id="Node000025" class="node">
<title>Node25</title>
<g id="a_Node000025"><a xlink:href="sv__native__refactored_8cc.html#a27703afec602cc5af011d5661a53b510" target="_top" xlink:title=" ">
<polygon fill="white" stroke="#666666" points="280.62,-475 152.12,-475 152.12,-455 280.62,-455 280.62,-475"/>
<text xml:space="preserve" text-anchor="middle" x="216.38" y="-461.5" font-family="Helvetica,sans-Serif" font-size="10.00">publisher_loop_immediate</text>
</a>
</g>
</g>
<!-- Node1&#45;&gt;Node25 -->
<g id="edge30_Node000001_Node000025" class="edge">
<title>Node1&#45;&gt;Node25</title>
<g id="a_edge30_Node000001_Node000025"><a xlink:title=" ">
<path fill="none" stroke="#63b8ff" d="M78.7,-529.57C105.75,-516.79 151.83,-495.02 182.92,-480.33"/>
<polygon fill="#63b8ff" stroke="#63b8ff" points="184.32,-483.54 191.87,-476.11 181.33,-477.21 184.32,-483.54"/>
</a>
</g>
</g>
<!-- Node29 -->
<g id="Node000029" class="node">
<title>Node29</title>
<g id="a_Node000029"><a xlink:href="sv__native__refactored_8cc.html#ae2056b20c01b052837592dc341ce314e" target="_top" xlink:title=" ">
<polygon fill="white" stroke="#666666" points="270.88,-298 161.88,-298 161.88,-278 270.88,-278 270.88,-298"/>
<text xml:space="preserve" text-anchor="middle" x="216.38" y="-284.5" font-family="Helvetica,sans-Serif" font-size="10.00">publisher_loop_single</text>
</a>
</g>
</g>
<!-- Node1&#45;&gt;Node29 -->
<g id="edge45_Node000001_Node000029" class="edge">
<title>Node1&#45;&gt;Node29</title>
<g id="a_edge45_Node000001_Node000029"><a xlink:title=" ">
<path fill="none" stroke="#63b8ff" d="M63.04,-529.81C86.93,-491.9 170.9,-358.6 202.88,-307.83"/>
<polygon fill="#63b8ff" stroke="#63b8ff" points="205.7,-309.92 208.07,-299.6 199.78,-306.19 205.7,-309.92"/>
</a>
</g>
</g>
<!-- Node30 -->
<g id="Node000030" class="node">
<title>Node30</title>
<g id="a_Node000030"><a xlink:href="sv__controller_8cc.html#acbaa0a307291cbd4eebd6c6d94ff2963" target="_top" xlink:title=" ">
<polygon fill="white" stroke="#666666" points="263.75,-58 169,-58 169,-38 263.75,-38 263.75,-58"/>
<text xml:space="preserve" text-anchor="middle" x="216.38" y="-44.5" font-family="Helvetica,sans-Serif" font-size="10.00">sv_mp_is_running</text>
</a>
</g>
</g>
<!-- Node1&#45;&gt;Node30 -->
<g id="edge56_Node000001_Node000030" class="edge">
<title>Node1&#45;&gt;Node30</title>
<g id="a_edge56_Node000001_Node000030"><a xlink:title=" ">
<path fill="none" stroke="#63b8ff" d="M59.94,-529.72C79.63,-468.7 181.28,-153.68 208.6,-68.99"/>
<polygon fill="#63b8ff" stroke="#63b8ff" points="211.87,-70.25 211.61,-59.66 205.21,-68.1 211.87,-70.25"/>
</a>
</g>
</g>
<!-- Node3 -->
<g id="Node000003" class="node">
<title>Node3</title>
<g id="a_Node000003"><a xlink:href="sv__stats__impl_8cc.html#ae7cd346e20d4749f60fa7332dfae0dd7" target="_top" xlink:title="Get current time in milliseconds.">
<polygon fill="white" stroke="#666666" points="801.5,-482 670.75,-482 670.75,-462 801.5,-462 801.5,-482"/>
<text xml:space="preserve" text-anchor="middle" x="736.12" y="-468.5" font-family="Helvetica,sans-Serif" font-size="10.00">npcap_stats_get_time_ms</text>
</a>
</g>
</g>
<!-- Node2&#45;&gt;Node3 -->
<g id="edge2_Node000002_Node000003" class="edge">
<title>Node2&#45;&gt;Node3</title>
<g id="a_edge2_Node000002_Node000003"><a xlink:title=" ">
<path fill="none" stroke="#63b8ff" d="M583.43,-567.64C612.76,-549.15 674.33,-510.33 709.34,-488.25"/>
<polygon fill="#63b8ff" stroke="#63b8ff" points="711.01,-491.34 717.6,-483.05 707.27,-485.42 711.01,-491.34"/>
</a>
</g>
</g>
<!-- Node6&#45;&gt;Node2 -->
<g id="edge9_Node000006_Node000002" class="edge">
<title>Node6&#45;&gt;Node2</title>
<g id="a_edge9_Node000006_Node000002"><a xlink:title=" ">
<path fill="none" stroke="#63b8ff" d="M225.09,-664.43C240.66,-684.48 278.06,-727.83 321.5,-744 379.71,-765.67 406.92,-774.11 461.25,-744 517.84,-712.63 547.64,-636.1 559.2,-598.94"/>
<polygon fill="#63b8ff" stroke="#63b8ff" points="562.42,-600.4 561.9,-589.81 555.71,-598.41 562.42,-600.4"/>
</a>
</g>
</g>
<!-- Node6&#45;&gt;Node6 -->
<g id="edge27_Node000006_Node000006" class="edge">
<title>Node6&#45;&gt;Node6</title>
<g id="a_edge27_Node000006_Node000006"><a xlink:title=" ">
<path fill="none" stroke="#63b8ff" d="M190.83,-664.34C179.92,-672.98 188.43,-682 216.38,-682 231.66,-682 241.13,-679.3 244.79,-675.44"/>
<polygon fill="#63b8ff" stroke="#63b8ff" points="248.19,-674.61 242.3,-665.8 241.41,-676.36 248.19,-674.61"/>
</a>
</g>
</g>
<!-- Node7 -->
<g id="Node000007" class="node">
<title>Node7</title>
<g id="a_Node000007"><a xlink:href="sv__native__refactored_8cc.html#aa18783d233bbd1ff97330bfb332b2305" target="_top" xlink:title=" ">
<polygon fill="white" stroke="#666666" points="451.88,-588 330.88,-588 330.88,-568 451.88,-568 451.88,-588"/>
<text xml:space="preserve" text-anchor="middle" x="391.38" y="-574.5" font-family="Helvetica,sans-Serif" font-size="10.00">check_duration_elapsed</text>
</a>
</g>
</g>
<!-- Node6&#45;&gt;Node7 -->
<g id="edge6_Node000006_Node000007" class="edge">
<title>Node6&#45;&gt;Node7</title>
<g id="a_edge6_Node000006_Node000007"><a xlink:title=" ">
<path fill="none" stroke="#63b8ff" d="M267.08,-643.57C273.51,-641.24 279.82,-638.42 285.5,-635 305.43,-622.99 301.56,-608.98 321.5,-597 324.1,-595.44 326.84,-594 329.65,-592.68"/>
<polygon fill="#63b8ff" stroke="#63b8ff" points="330.8,-595.99 338.73,-588.95 328.15,-589.51 330.8,-595.99"/>
</a>
</g>
</g>
<!-- Node8 -->
<g id="Node000008" class="node">
<title>Node8</title>
<g id="a_Node000008"><a xlink:href="sv__native__refactored_8cc.html#a866cf9a417d9328fcde6e029c4ca97b0" target="_top" xlink:title=" ">
<polygon fill="white" stroke="#666666" points="448.5,-626 334.25,-626 334.25,-606 448.5,-606 448.5,-626"/>
<text xml:space="preserve" text-anchor="middle" x="391.38" y="-612.5" font-family="Helvetica,sans-Serif" font-size="10.00">elevate_thread_priority</text>
</a>
</g>
</g>
<!-- Node6&#45;&gt;Node8 -->
<g id="edge8_Node000006_Node000008" class="edge">
<title>Node6&#45;&gt;Node8</title>
<g id="a_edge8_Node000006_Node000008"><a xlink:title=" ">
<path fill="none" stroke="#63b8ff" d="M265.11,-643.52C285.72,-638.99 310.03,-633.65 331.73,-628.88"/>
<polygon fill="#63b8ff" stroke="#63b8ff" points="332.31,-632.34 341.32,-626.77 330.8,-625.5 332.31,-632.34"/>
</a>
</g>
</g>
<!-- Node9 -->
<g id="Node000009" class="node">
<title>Node9</title>
<g id="a_Node000009"><a xlink:href="npcap__transmitter__impl_8cc.html#a3469e50a088ee2f93c0678e6d0286f56" target="_top" xlink:title="Add a packet to the queue.">
<polygon fill="white" stroke="#666666" points="438.75,-930 344,-930 344,-910 438.75,-910 438.75,-930"/>
<text xml:space="preserve" text-anchor="middle" x="391.38" y="-916.5" font-family="Helvetica,sans-Serif" font-size="10.00">npcap_queue_add</text>
</a>
</g>
</g>
<!-- Node6&#45;&gt;Node9 -->
<g id="edge10_Node000006_Node000009" class="edge">
<title>Node6&#45;&gt;Node9</title>
<g id="a_edge10_Node000006_Node000009"><a xlink:title=" ">
<path fill="none" stroke="#63b8ff" d="M218.54,-664.29C223.36,-702.02 245.26,-834.07 321.5,-901 325.07,-904.13 329.1,-906.75 333.39,-908.94"/>
<polygon fill="#63b8ff" stroke="#63b8ff" points="331.78,-912.06 342.36,-912.72 334.51,-905.61 331.78,-912.06"/>
</a>
</g>
</g>
<!-- Node10 -->
<g id="Node000010" class="node">
<title>Node10</title>
<g id="a_Node000010"><a xlink:href="npcap__transmitter__impl_8cc.html#a745d7b22094024f754840a72a108339e" target="_top" xlink:title="Allocate a send queue.">
<polygon fill="white" stroke="#666666" points="444.38,-892 338.38,-892 338.38,-872 444.38,-872 444.38,-892"/>
<text xml:space="preserve" text-anchor="middle" x="391.38" y="-878.5" font-family="Helvetica,sans-Serif" font-size="10.00">npcap_queue_create</text>
</a>
</g>
</g>
<!-- Node6&#45;&gt;Node10 -->
<g id="edge11_Node000006_Node000010" class="edge">
<title>Node6&#45;&gt;Node10</title>
<g id="a_edge11_Node000006_Node000010"><a xlink:title=" ">
<path fill="none" stroke="#63b8ff" d="M219.35,-664.1C226.51,-697.84 254.22,-807.6 321.5,-863 323.48,-864.63 325.6,-866.13 327.81,-867.49"/>
<polygon fill="#63b8ff" stroke="#63b8ff" points="326.16,-870.58 336.66,-872.01 329.34,-864.35 326.16,-870.58"/>
</a>
</g>
</g>
<!-- Node11 -->
<g id="Node000011" class="node">
<title>Node11</title>
<g id="a_Node000011"><a xlink:href="npcap__transmitter__impl_8cc.html#ae10474fb21e8e779e37605a98dd327eb" target="_top" xlink:title="Destroy a send queue.">
<polygon fill="white" stroke="#666666" points="447,-854 335.75,-854 335.75,-834 447,-834 447,-854"/>
<text xml:space="preserve" text-anchor="middle" x="391.38" y="-840.5" font-family="Helvetica,sans-Serif" font-size="10.00">npcap_queue_destroy</text>
</a>
</g>
</g>
<!-- Node6&#45;&gt;Node11 -->
<g id="edge12_Node000006_Node000011" class="edge">
<title>Node6&#45;&gt;Node11</title>
<g id="a_edge12_Node000006_Node000011"><a xlink:title=" ">
<path fill="none" stroke="#63b8ff" d="M220.61,-664.32C230.5,-694.13 263.24,-781.03 321.5,-825 323.07,-826.18 324.7,-827.29 326.39,-828.33"/>
<polygon fill="#63b8ff" stroke="#63b8ff" points="324.73,-831.41 335.22,-832.87 327.93,-825.18 324.73,-831.41"/>
</a>
</g>
</g>
<!-- Node12 -->
<g id="Node000012" class="node">
<title>Node12</title>
<g id="a_Node000012"><a xlink:href="npcap__transmitter__impl_8cc.html#ae6e10a3445bc66c81ead5b438b868ea8" target="_top" xlink:title="Transmit all packets in the queue.">
<polygon fill="white" stroke="#666666" points="448.5,-816 334.25,-816 334.25,-796 448.5,-796 448.5,-816"/>
<text xml:space="preserve" text-anchor="middle" x="391.38" y="-802.5" font-family="Helvetica,sans-Serif" font-size="10.00">npcap_queue_transmit</text>
</a>
</g>
</g>
<!-- Node6&#45;&gt;Node12 -->
<g id="edge13_Node000006_Node000012" class="edge">
<title>Node6&#45;&gt;Node12</title>
<g id="a_edge13_Node000006_Node000012"><a xlink:title=" ">
<path fill="none" stroke="#63b8ff" d="M223,-664.25C236.68,-688.29 274.12,-748.77 321.5,-782 326.55,-785.54 332.18,-788.61 337.98,-791.25"/>
<polygon fill="#63b8ff" stroke="#63b8ff" points="336.53,-794.44 347.11,-794.98 339.18,-787.96 336.53,-794.44"/>
</a>
</g>
</g>
<!-- Node13 -->
<g id="Node000013" class="node">
<title>Node13</title>
<g id="a_Node000013"><a xlink:href="sv__stats__impl_8cc.html#a210b53baa9526fbb867d2a6b3ad925c4" target="_top" xlink:title="Record a successful packet transmission.">
<polygon fill="white" stroke="#666666" points="442.12,-462 340.62,-462 340.62,-430 442.12,-430 442.12,-462"/>
<text xml:space="preserve" text-anchor="start" x="348.62" y="-448.5" font-family="Helvetica,sans-Serif" font-size="10.00">npcap_stats_record</text>
<text xml:space="preserve" text-anchor="middle" x="391.38" y="-436.5" font-family="Helvetica,sans-Serif" font-size="10.00">_packet</text>
</a>
</g>
</g>
<!-- Node6&#45;&gt;Node13 -->
<g id="edge14_Node000006_Node000013" class="edge">
<title>Node6&#45;&gt;Node13</title>
<g id="a_edge14_Node000006_Node000013"><a xlink:title=" ">
<path fill="none" stroke="#63b8ff" d="M270.52,-645.56C276.11,-642.9 281.28,-639.46 285.5,-635 336.77,-580.78 272.33,-527.14 321.5,-471 324.14,-467.99 327.16,-465.34 330.45,-463.01"/>
<polygon fill="#63b8ff" stroke="#63b8ff" points="332.1,-466.1 338.96,-458.02 328.56,-460.06 332.1,-466.1"/>
</a>
</g>
</g>
<!-- Node14 -->
<g id="Node000014" class="node">
<title>Node14</title>
<g id="a_Node000014"><a xlink:href="sv__stats__impl_8cc.html#a4e5f02e3cc9b2b06496cca1b54582e0a" target="_top" xlink:title="Reset all statistics to zero.">
<polygon fill="white" stroke="#666666" points="439.5,-298 343.25,-298 343.25,-278 439.5,-278 439.5,-298"/>
<text xml:space="preserve" text-anchor="middle" x="391.38" y="-284.5" font-family="Helvetica,sans-Serif" font-size="10.00">npcap_stats_reset</text>
</a>
</g>
</g>
<!-- Node6&#45;&gt;Node14 -->
<g id="edge16_Node000006_Node000014" class="edge">
<title>Node6&#45;&gt;Node14</title>
<g id="a_edge16_Node000006_Node000014"><a xlink:title=" ">
<path fill="none" stroke="#63b8ff" d="M270.34,-646.3C276.1,-643.54 281.37,-639.87 285.5,-635 380.43,-523.22 226.41,-418.65 321.5,-307 324.67,-303.28 328.49,-300.26 332.69,-297.8"/>
<polygon fill="#63b8ff" stroke="#63b8ff" points="334.05,-301.03 341.67,-293.68 331.12,-294.67 334.05,-301.03"/>
</a>
</g>
</g>
<!-- Node15 -->
<g id="Node000015" class="node">
<title>Node15</title>
<g id="a_Node000015"><a xlink:href="sv__stats__impl_8cc.html#a4437629953bc0b691829d9c7b77cc061" target="_top" xlink:title="End the current statistics session.">
<polygon fill="white" stroke="#666666" points="456,-412 326.75,-412 326.75,-392 456,-392 456,-412"/>
<text xml:space="preserve" text-anchor="middle" x="391.38" y="-398.5" font-family="Helvetica,sans-Serif" font-size="10.00">npcap_stats_session_end</text>
</a>
</g>
</g>
<!-- Node6&#45;&gt;Node15 -->
<g id="edge17_Node000006_Node000015" class="edge">
<title>Node6&#45;&gt;Node15</title>
<g id="a_edge17_Node000006_Node000015"><a xlink:title=" ">
<path fill="none" stroke="#63b8ff" d="M270.41,-645.92C276.09,-643.21 281.31,-639.65 285.5,-635 350.01,-563.31 256.88,-492.6 321.5,-421 322.08,-420.36 322.67,-419.74 323.29,-419.14"/>
<polygon fill="#63b8ff" stroke="#63b8ff" points="325.08,-422.18 330.94,-413.36 320.86,-416.59 325.08,-422.18"/>
</a>
</g>
</g>
<!-- Node16 -->
<g id="Node000016" class="node">
<title>Node16</title>
<g id="a_Node000016"><a xlink:href="sv__stats__impl_8cc.html#ad0737fafaaf6836a17171d40d5a3f77d" target="_top" xlink:title="Start a new statistics session.">
<polygon fill="white" stroke="#666666" points="445.5,-512 337.25,-512 337.25,-480 445.5,-480 445.5,-512"/>
<text xml:space="preserve" text-anchor="start" x="345.25" y="-498.5" font-family="Helvetica,sans-Serif" font-size="10.00">npcap_stats_session</text>
<text xml:space="preserve" text-anchor="middle" x="391.38" y="-486.5" font-family="Helvetica,sans-Serif" font-size="10.00">_start</text>
</a>
</g>
</g>
<!-- Node6&#45;&gt;Node16 -->
<g id="edge19_Node000006_Node000016" class="edge">
<title>Node6&#45;&gt;Node16</title>
<g id="a_edge19_Node000006_Node000016"><a xlink:title=" ">
<path fill="none" stroke="#63b8ff" d="M270.29,-644.27C275.78,-641.84 280.99,-638.8 285.5,-635 314.08,-610.92 299.3,-589.06 321.5,-559 332.29,-544.38 346.85,-530.49 359.79,-519.48"/>
<polygon fill="#63b8ff" stroke="#63b8ff" points="361.78,-522.38 367.27,-513.31 357.33,-516.98 361.78,-522.38"/>
</a>
</g>
</g>
<!-- Node17 -->
<g id="Node000017" class="node">
<title>Node17</title>
<g id="a_Node000017"><a xlink:href="sv__native__refactored_8cc.html#a7e6a8d1afed7cf1fc23dc37a7e5d872a" target="_top" xlink:title=" ">
<polygon fill="white" stroke="#666666" points="433.88,-374 348.88,-374 348.88,-354 433.88,-354 433.88,-374"/>
<text xml:space="preserve" text-anchor="middle" x="391.38" y="-360.5" font-family="Helvetica,sans-Serif" font-size="10.00">prebuild_frames</text>
</a>
</g>
</g>
<!-- Node6&#45;&gt;Node17 -->
<g id="edge21_Node000006_Node000017" class="edge">
<title>Node6&#45;&gt;Node17</title>
<g id="a_edge21_Node000006_Node000017"><a xlink:title=" ">
<path fill="none" stroke="#63b8ff" d="M270.52,-646.02C276.18,-643.29 281.37,-639.71 285.5,-635 360.13,-549.97 246.75,-467.93 321.5,-383 325.96,-377.93 331.64,-374.16 337.82,-371.36"/>
<polygon fill="#63b8ff" stroke="#63b8ff" points="338.9,-374.69 347.14,-368.02 336.54,-368.1 338.9,-374.69"/>
</a>
</g>
</g>
<!-- Node23 -->
<g id="Node000023" class="node">
<title>Node23</title>
<g id="a_Node000023"><a xlink:href="sv__native__refactored_8cc.html#a9e741bc398d62c9cc67a447fcf2f2d52" target="_top" xlink:title=" ">
<polygon fill="white" stroke="#666666" points="447.75,-702 335,-702 335,-682 447.75,-682 447.75,-702"/>
<text xml:space="preserve" text-anchor="middle" x="391.38" y="-688.5" font-family="Helvetica,sans-Serif" font-size="10.00">restore_thread_priority</text>
</a>
</g>
</g>
<!-- Node6&#45;&gt;Node23 -->
<g id="edge28_Node000006_Node000023" class="edge">
<title>Node6&#45;&gt;Node23</title>
<g id="a_edge28_Node000006_Node000023"><a xlink:title=" ">
<path fill="none" stroke="#63b8ff" d="M265.11,-664.48C285.72,-669.01 310.03,-674.35 331.73,-679.12"/>
<polygon fill="#63b8ff" stroke="#63b8ff" points="330.8,-682.5 341.32,-681.23 332.31,-675.66 330.8,-682.5"/>
</a>
</g>
</g>
<!-- Node24 -->
<g id="Node000024" class="node">
<title>Node24</title>
<g id="a_Node000024"><a xlink:href="sv__native__refactored_8cc.html#a172e4a5cb3e8a1f59552a7990cfd53be" target="_top" xlink:title=" ">
<polygon fill="white" stroke="#666666" points="424.12,-664 358.62,-664 358.62,-644 424.12,-644 424.12,-664"/>
<text xml:space="preserve" text-anchor="middle" x="391.38" y="-650.5" font-family="Helvetica,sans-Serif" font-size="10.00">spin_pause</text>
</a>
</g>
</g>
<!-- Node6&#45;&gt;Node24 -->
<g id="edge29_Node000006_Node000024" class="edge">
<title>Node6&#45;&gt;Node24</title>
<g id="a_edge29_Node000006_Node000024"><a xlink:title=" ">
<path fill="none" stroke="#63b8ff" d="M270.22,-654C294.79,-654 323.64,-654 346.92,-654"/>
<polygon fill="#63b8ff" stroke="#63b8ff" points="346.68,-657.5 356.68,-654 346.68,-650.5 346.68,-657.5"/>
</a>
</g>
</g>
<!-- Node7&#45;&gt;Node2 -->
<g id="edge7_Node000007_Node000002" class="edge">
<title>Node7&#45;&gt;Node2</title>
<g id="a_edge7_Node000007_Node000002"><a xlink:title=" ">
<path fill="none" stroke="#63b8ff" d="M452.27,-578C473.84,-578 497.85,-578 518.15,-578"/>
<polygon fill="#63b8ff" stroke="#63b8ff" points="518.11,-581.5 528.11,-578 518.11,-574.5 518.11,-581.5"/>
</a>
</g>
</g>
<!-- Node13&#45;&gt;Node3 -->
<g id="edge15_Node000013_Node000003" class="edge">
<title>Node13&#45;&gt;Node3</title>
<g id="a_edge15_Node000013_Node000003"><a xlink:title=" ">
<path fill="none" stroke="#63b8ff" d="M442.58,-449.81C499.62,-454.14 593.32,-461.24 659.28,-466.25"/>
<polygon fill="#63b8ff" stroke="#63b8ff" points="658.69,-469.71 668.93,-466.98 659.22,-462.73 658.69,-469.71"/>
</a>
</g>
</g>
<!-- Node15&#45;&gt;Node3 -->
<g id="edge18_Node000015_Node000003" class="edge">
<title>Node15&#45;&gt;Node3</title>
<g id="a_edge18_Node000015_Node000003"><a xlink:title=" ">
<path fill="none" stroke="#63b8ff" d="M446.83,-412.46C495.99,-421.98 570.29,-436.55 634.75,-450 648.53,-452.87 663.35,-456.07 677.26,-459.11"/>
<polygon fill="#63b8ff" stroke="#63b8ff" points="676.19,-462.46 686.71,-461.18 677.69,-455.62 676.19,-462.46"/>
</a>
</g>
</g>
<!-- Node16&#45;&gt;Node3 -->
<g id="edge20_Node000016_Node000003" class="edge">
<title>Node16&#45;&gt;Node3</title>
<g id="a_edge20_Node000016_Node000003"><a xlink:title=" ">
<path fill="none" stroke="#63b8ff" d="M445.93,-492.25C503.12,-488.25 594.24,-481.86 658.91,-477.34"/>
<polygon fill="#63b8ff" stroke="#63b8ff" points="659.01,-480.84 668.74,-476.65 658.52,-473.86 659.01,-480.84"/>
</a>
</g>
</g>
<!-- Node18 -->
<g id="Node000018" class="node">
<title>Node18</title>
<g id="a_Node000018"><a xlink:href="sv__native__refactored_8cc.html#a2f554ded106c1391e42b140e22584fb3" target="_top" xlink:title=" ">
<polygon fill="white" stroke="#666666" points="614.88,-374 517.12,-374 517.12,-354 614.88,-354 614.88,-374"/>
<text xml:space="preserve" text-anchor="middle" x="566" y="-360.5" font-family="Helvetica,sans-Serif" font-size="10.00">alloc_frame_cache</text>
</a>
</g>
</g>
<!-- Node17&#45;&gt;Node18 -->
<g id="edge22_Node000017_Node000018" class="edge">
<title>Node17&#45;&gt;Node18</title>
<g id="a_edge22_Node000017_Node000018"><a xlink:title=" ">
<path fill="none" stroke="#63b8ff" d="M434.16,-364C455.6,-364 482.08,-364 505.61,-364"/>
<polygon fill="#63b8ff" stroke="#63b8ff" points="505.36,-367.5 515.36,-364 505.36,-360.5 505.36,-367.5"/>
</a>
</g>
</g>
<!-- Node20 -->
<g id="Node000020" class="node">
<title>Node20</title>
<g id="a_Node000020"><a xlink:href="sv__native__refactored_8cc.html#a081cf319776daba5ec14c60bec132d64" target="_top" xlink:title=" ">
<polygon fill="white" stroke="#666666" points="608.5,-316 523.5,-316 523.5,-296 608.5,-296 608.5,-316"/>
<text xml:space="preserve" text-anchor="middle" x="566" y="-302.5" font-family="Helvetica,sans-Serif" font-size="10.00">g_eq_processor</text>
</a>
</g>
</g>
<!-- Node17&#45;&gt;Node20 -->
<g id="edge24_Node000017_Node000020" class="edge">
<title>Node17&#45;&gt;Node20</title>
<g id="a_edge24_Node000017_Node000020"><a xlink:title=" ">
<path fill="none" stroke="#63b8ff" d="M432.62,-353.56C442.06,-350.92 452.05,-347.99 461.25,-345 483.84,-337.65 508.77,-328.32 528.53,-320.63"/>
<polygon fill="#63b8ff" stroke="#63b8ff" points="529.78,-323.9 537.81,-316.99 527.22,-317.38 529.78,-323.9"/>
</a>
</g>
</g>
<!-- Node21 -->
<g id="Node000021" class="node">
<title>Node21</title>
<g id="a_Node000021"><a xlink:href="sv__encoder__impl_8cc.html#a58f4a492f4c37293fdfcc0401b72abd1" target="_top" xlink:title="Encode a single SV packet.">
<polygon fill="white" stroke="#666666" points="634.75,-237 497.25,-237 497.25,-217 634.75,-217 634.75,-237"/>
<text xml:space="preserve" text-anchor="middle" x="566" y="-223.5" font-family="Helvetica,sans-Serif" font-size="10.00">sv_encoder_encode_packet</text>
</a>
</g>
</g>
<!-- Node17&#45;&gt;Node21 -->
<g id="edge25_Node000017_Node000021" class="edge">
<title>Node17&#45;&gt;Node21</title>
<g id="a_edge25_Node000017_Node000021"><a xlink:title=" ">
<path fill="none" stroke="#63b8ff" d="M434.37,-357.73C443.84,-354.93 453.4,-350.87 461.25,-345 485.54,-326.83 477.69,-310.19 497.25,-287 510.58,-271.19 528.12,-255.78 542.01,-244.53"/>
<polygon fill="#63b8ff" stroke="#63b8ff" points="544.09,-247.35 549.76,-238.4 539.74,-241.86 544.09,-247.35"/>
</a>
</g>
</g>
<!-- Node22 -->
<g id="Node000022" class="node">
<title>Node22</title>
<g id="a_Node000022"><a xlink:href="sv__encoder__impl_8cc.html#a3b78a24c9d83ba55bcd667b3b7fec64c" target="_top" xlink:title="Set encoder configuration.">
<polygon fill="white" stroke="#666666" points="624.25,-117 507.75,-117 507.75,-97 624.25,-97 624.25,-117"/>
<text xml:space="preserve" text-anchor="middle" x="566" y="-103.5" font-family="Helvetica,sans-Serif" font-size="10.00">sv_encoder_set_config</text>
</a>
</g>
</g>
<!-- Node17&#45;&gt;Node22 -->
<g id="edge26_Node000017_Node000022" class="edge">
<title>Node17&#45;&gt;Node22</title>
<g id="a_edge26_Node000017_Node000022"><a xlink:title=" ">
<path fill="none" stroke="#63b8ff" d="M434.31,-359.73C444.23,-356.9 454.01,-352.32 461.25,-345 505.49,-300.21 471.35,-265.38 497.25,-208 511.07,-177.38 533.88,-145.8 549.17,-126.29"/>
<polygon fill="#63b8ff" stroke="#63b8ff" points="551.75,-128.68 555.25,-118.68 546.28,-124.31 551.75,-128.68"/>
</a>
</g>
</g>
<!-- Node19 -->
<g id="Node000019" class="node">
<title>Node19</title>
<g id="a_Node000019"><a xlink:href="sv__native__refactored_8cc.html#a24b2107199112b58a421c0c873ea7d12" target="_top" xlink:title=" ">
<polygon fill="white" stroke="#666666" points="783.12,-374 689.12,-374 689.12,-354 783.12,-354 783.12,-374"/>
<text xml:space="preserve" text-anchor="middle" x="736.12" y="-360.5" font-family="Helvetica,sans-Serif" font-size="10.00">free_frame_cache</text>
</a>
</g>
</g>
<!-- Node18&#45;&gt;Node19 -->
<g id="edge23_Node000018_Node000019" class="edge">
<title>Node18&#45;&gt;Node19</title>
<g id="a_edge23_Node000018_Node000019"><a xlink:title=" ">
<path fill="none" stroke="#63b8ff" d="M615.18,-364C634.57,-364 657.11,-364 677.37,-364"/>
<polygon fill="#63b8ff" stroke="#63b8ff" points="677.16,-367.5 687.16,-364 677.16,-360.5 677.16,-367.5"/>
</a>
</g>
</g>
<!-- Node25&#45;&gt;Node2 -->
<g id="edge33_Node000025_Node000002" class="edge">
<title>Node25&#45;&gt;Node2</title>
<g id="a_edge33_Node000025_Node000002"><a xlink:title=" ">
<path fill="none" stroke="#63b8ff" d="M233.33,-475.31C253.24,-487.77 288.67,-508.58 321.5,-521 357.17,-534.5 458.55,-556.31 518.66,-568.67"/>
<polygon fill="#63b8ff" stroke="#63b8ff" points="517.76,-572.06 528.26,-570.64 519.16,-565.2 517.76,-572.06"/>
</a>
</g>
</g>
<!-- Node25&#45;&gt;Node7 -->
<g id="edge31_Node000025_Node000007" class="edge">
<title>Node25&#45;&gt;Node7</title>
<g id="a_edge31_Node000025_Node000007"><a xlink:title=" ">
<path fill="none" stroke="#63b8ff" d="M229.04,-475.4C254.01,-497.6 311.24,-548.11 321.5,-554 327.92,-557.69 335,-560.94 342.1,-563.77"/>
<polygon fill="#63b8ff" stroke="#63b8ff" points="340.44,-566.88 351.03,-567.08 342.87,-560.32 340.44,-566.88"/>
</a>
</g>
</g>
<!-- Node25&#45;&gt;Node8 -->
<g id="edge32_Node000025_Node000008" class="edge">
<title>Node25&#45;&gt;Node8</title>
<g id="a_edge32_Node000025_Node000008"><a xlink:title=" ">
<path fill="none" stroke="#63b8ff" d="M231.85,-475.38C246.72,-486.59 269.84,-505.6 285.5,-526 307.05,-554.06 294.11,-574.61 321.5,-597 322.82,-598.08 324.2,-599.1 325.62,-600.06"/>
<polygon fill="#63b8ff" stroke="#63b8ff" points="323.83,-603.07 334.27,-604.86 327.23,-596.95 323.83,-603.07"/>
</a>
</g>
</g>
<!-- Node25&#45;&gt;Node13 -->
<g id="edge37_Node000025_Node000013" class="edge">
<title>Node25&#45;&gt;Node13</title>
<g id="a_edge37_Node000025_Node000013"><a xlink:title=" ">
<path fill="none" stroke="#63b8ff" d="M280.81,-458.03C296.56,-456.3 313.42,-454.45 329.07,-452.73"/>
<polygon fill="#63b8ff" stroke="#63b8ff" points="329.15,-456.25 338.71,-451.67 328.39,-449.29 329.15,-456.25"/>
</a>
</g>
</g>
<!-- Node25&#45;&gt;Node14 -->
<g id="edge38_Node000025_Node000014" class="edge">
<title>Node25&#45;&gt;Node14</title>
<g id="a_edge38_Node000025_Node000014"><a xlink:title=" ">
<path fill="none" stroke="#63b8ff" d="M221.16,-454.66C232.04,-426.37 266.23,-347.18 321.5,-307 324.91,-304.52 328.63,-302.36 332.52,-300.49"/>
<polygon fill="#63b8ff" stroke="#63b8ff" points="333.77,-303.76 341.7,-296.73 331.12,-297.28 333.77,-303.76"/>
</a>
</g>
</g>
<!-- Node25&#45;&gt;Node15 -->
<g id="edge39_Node000025_Node000015" class="edge">
<title>Node25&#45;&gt;Node15</title>
<g id="a_edge39_Node000025_Node000015"><a xlink:title=" ">
<path fill="none" stroke="#63b8ff" d="M239.79,-454.52C260.66,-445.01 292.77,-430.99 321.5,-421 326.85,-419.14 332.49,-417.34 338.14,-415.63"/>
<polygon fill="#63b8ff" stroke="#63b8ff" points="338.87,-419.06 347.5,-412.91 336.92,-412.34 338.87,-419.06"/>
</a>
</g>
</g>
<!-- Node25&#45;&gt;Node16 -->
<g id="edge40_Node000025_Node000016" class="edge">
<title>Node25&#45;&gt;Node16</title>
<g id="a_edge40_Node000025_Node000016"><a xlink:title=" ">
<path fill="none" stroke="#63b8ff" d="M275.94,-475.5C291.95,-478.36 309.39,-481.49 325.72,-484.41"/>
<polygon fill="#63b8ff" stroke="#63b8ff" points="324.86,-487.82 335.32,-486.14 326.1,-480.93 324.86,-487.82"/>
</a>
</g>
</g>
<!-- Node25&#45;&gt;Node17 -->
<g id="edge41_Node000025_Node000017" class="edge">
<title>Node25&#45;&gt;Node17</title>
<g id="a_edge41_Node000025_Node000017"><a xlink:title=" ">
<path fill="none" stroke="#63b8ff" d="M227.62,-454.57C245.24,-437.22 283.1,-402.42 321.5,-383 326.63,-380.41 332.15,-378.13 337.77,-376.14"/>
<polygon fill="#63b8ff" stroke="#63b8ff" points="338.7,-379.52 347.14,-373.13 336.55,-372.86 338.7,-379.52"/>
</a>
</g>
</g>
<!-- Node25&#45;&gt;Node23 -->
<g id="edge43_Node000025_Node000023" class="edge">
<title>Node25&#45;&gt;Node23</title>
<g id="a_edge43_Node000025_Node000023"><a xlink:title=" ">
<path fill="none" stroke="#63b8ff" d="M233.71,-475.31C249.38,-486.07 272.51,-504.35 285.5,-526 320.1,-583.68 274.63,-624.75 321.5,-673 322.69,-674.22 323.95,-675.37 325.27,-676.45"/>
<polygon fill="#63b8ff" stroke="#63b8ff" points="323.16,-679.25 333.46,-681.72 326.95,-673.36 323.16,-679.25"/>
</a>
</g>
</g>
<!-- Node25&#45;&gt;Node24 -->
<g id="edge44_Node000025_Node000024" class="edge">
<title>Node25&#45;&gt;Node24</title>
<g id="a_edge44_Node000025_Node000024"><a xlink:title=" ">
<path fill="none" stroke="#63b8ff" d="M233.06,-475.34C248.45,-486.23 271.58,-504.75 285.5,-526 313.45,-568.68 284.54,-599.83 321.5,-635 328.61,-641.76 337.89,-646.16 347.33,-649"/>
<polygon fill="#63b8ff" stroke="#63b8ff" points="346.35,-652.37 356.9,-651.33 348.01,-645.57 346.35,-652.37"/>
</a>
</g>
</g>
<!-- Node25&#45;&gt;Node25 -->
<g id="edge42_Node000025_Node000025" class="edge">
<title>Node25&#45;&gt;Node25</title>
<g id="a_edge42_Node000025_Node000025"><a xlink:title=" ">
<path fill="none" stroke="#63b8ff" d="M190.83,-475.34C179.92,-483.98 188.43,-493 216.38,-493 231.66,-493 241.13,-490.3 244.79,-486.44"/>
<polygon fill="#63b8ff" stroke="#63b8ff" points="248.19,-485.61 242.3,-476.8 241.41,-487.36 248.19,-485.61"/>
</a>
</g>
</g>
<!-- Node26 -->
<g id="Node000026" class="node">
<title>Node26</title>
<g id="a_Node000026"><a xlink:href="npcap__transmitter__impl_8cc.html#adc39100394280e20f1f1a569849bdf2d" target="_top" xlink:title="Send a single packet.">
<polygon fill="white" stroke="#666666" points="442.88,-210 339.88,-210 339.88,-190 442.88,-190 442.88,-210"/>
<text xml:space="preserve" text-anchor="middle" x="391.38" y="-196.5" font-family="Helvetica,sans-Serif" font-size="10.00">npcap_send_packet</text>
</a>
</g>
</g>
<!-- Node25&#45;&gt;Node26 -->
<g id="edge34_Node000025_Node000026" class="edge">
<title>Node25&#45;&gt;Node26</title>
<g id="a_edge34_Node000025_Node000026"><a xlink:title=" ">
<path fill="none" stroke="#63b8ff" d="M221.91,-454.68C232.94,-429.5 262.01,-362.91 285.5,-307 301.87,-268.04 289.89,-247.05 321.5,-219 323.94,-216.84 326.6,-214.92 329.41,-213.22"/>
<polygon fill="#63b8ff" stroke="#63b8ff" points="330.7,-216.48 338.1,-208.9 327.59,-210.21 330.7,-216.48"/>
</a>
</g>
</g>
<!-- Node27 -->
<g id="Node000027" class="node">
<title>Node27</title>
<g id="a_Node000027"><a xlink:href="npcap__transmitter__impl_8cc.html#a53c0941475ca471f1cc998f9641f8b5e" target="_top" xlink:title="Send a packet with trailing zero&#45;padding.">
<polygon fill="white" stroke="#666666" points="461.25,-336 321.5,-336 321.5,-316 461.25,-316 461.25,-336"/>
<text xml:space="preserve" text-anchor="middle" x="391.38" y="-322.5" font-family="Helvetica,sans-Serif" font-size="10.00">npcap_send_packet_padded</text>
</a>
</g>
</g>
<!-- Node25&#45;&gt;Node27 -->
<g id="edge35_Node000025_Node000027" class="edge">
<title>Node25&#45;&gt;Node27</title>
<g id="a_edge35_Node000025_Node000027"><a xlink:title=" ">
<path fill="none" stroke="#63b8ff" d="M223.44,-454.51C237.53,-431.12 274.84,-374.43 321.5,-345 323.8,-343.55 326.21,-342.21 328.7,-340.97"/>
<polygon fill="#63b8ff" stroke="#63b8ff" points="330.08,-344.18 337.87,-337.01 327.31,-337.76 330.08,-344.18"/>
</a>
</g>
</g>
<!-- Node28 -->
<g id="Node000028" class="node">
<title>Node28</title>
<g id="a_Node000028"><a xlink:href="sv__stats__impl_8cc.html#a280e159261a15485b1e0309f59df84e8" target="_top" xlink:title="Record a failed packet transmission.">
<polygon fill="white" stroke="#666666" points="442.12,-260 340.62,-260 340.62,-228 442.12,-228 442.12,-260"/>
<text xml:space="preserve" text-anchor="start" x="348.62" y="-246.5" font-family="Helvetica,sans-Serif" font-size="10.00">npcap_stats_record</text>
<text xml:space="preserve" text-anchor="middle" x="391.38" y="-234.5" font-family="Helvetica,sans-Serif" font-size="10.00">_failure</text>
</a>
</g>
</g>
<!-- Node25&#45;&gt;Node28 -->
<g id="edge36_Node000025_Node000028" class="edge">
<title>Node25&#45;&gt;Node28</title>
<g id="a_edge36_Node000025_Node000028"><a xlink:title=" ">
<path fill="none" stroke="#63b8ff" d="M219.96,-454.82C228.6,-422.77 259.55,-322.83 321.5,-269 324.15,-266.7 327.03,-264.6 330.06,-262.69"/>
<polygon fill="#63b8ff" stroke="#63b8ff" points="331.7,-265.78 338.82,-257.94 328.36,-259.63 331.7,-265.78"/>
</a>
</g>
</g>
<!-- Node29&#45;&gt;Node7 -->
<g id="edge46_Node000029_Node000007" class="edge">
<title>Node29&#45;&gt;Node7</title>
<g id="a_edge46_Node000029_Node000007"><a xlink:title=" ">
<path fill="none" stroke="#63b8ff" d="M221.87,-298.42C240.89,-342.42 314.04,-511.19 321.5,-521 333.4,-536.66 350.4,-550.79 364.54,-561.06"/>
<polygon fill="#63b8ff" stroke="#63b8ff" points="362.33,-563.79 372.52,-566.66 366.34,-558.05 362.33,-563.79"/>
</a>
</g>
</g>
<!-- Node29&#45;&gt;Node13 -->
<g id="edge50_Node000029_Node000013" class="edge">
<title>Node29&#45;&gt;Node13</title>
<g id="a_edge50_Node000029_Node000013"><a xlink:title=" ">
<path fill="none" stroke="#63b8ff" d="M222.72,-298.25C236.07,-322.9 273.31,-386.05 321.5,-421 324.16,-422.93 326.97,-424.72 329.9,-426.38"/>
<polygon fill="#63b8ff" stroke="#63b8ff" points="328.29,-429.49 338.8,-430.88 331.45,-423.24 328.29,-429.49"/>
</a>
</g>
</g>
<!-- Node29&#45;&gt;Node14 -->
<g id="edge51_Node000029_Node000014" class="edge">
<title>Node29&#45;&gt;Node14</title>
<g id="a_edge51_Node000029_Node000014"><a xlink:title=" ">
<path fill="none" stroke="#63b8ff" d="M271.16,-288C290.23,-288 311.78,-288 331.26,-288"/>
<polygon fill="#63b8ff" stroke="#63b8ff" points="331.26,-291.5 341.26,-288 331.26,-284.5 331.26,-291.5"/>
</a>
</g>
</g>
<!-- Node29&#45;&gt;Node15 -->
<g id="edge52_Node000029_Node000015" class="edge">
<title>Node29&#45;&gt;Node15</title>
<g id="a_edge52_Node000029_Node000015"><a xlink:title=" ">
<path fill="none" stroke="#63b8ff" d="M225.68,-298.28C241.97,-317.77 280.15,-360.18 321.5,-383 324.5,-384.66 327.65,-386.17 330.89,-387.57"/>
<polygon fill="#63b8ff" stroke="#63b8ff" points="329.44,-390.76 340.03,-391.06 331.94,-384.22 329.44,-390.76"/>
</a>
</g>
</g>
<!-- Node29&#45;&gt;Node16 -->
<g id="edge53_Node000029_Node000016" class="edge">
<title>Node29&#45;&gt;Node16</title>
<g id="a_edge53_Node000029_Node000016"><a xlink:title=" ">
<path fill="none" stroke="#63b8ff" d="M220.43,-298.37C230.04,-329.2 262.55,-421.26 321.5,-471 323.4,-472.6 325.4,-474.1 327.49,-475.51"/>
<polygon fill="#63b8ff" stroke="#63b8ff" points="325.39,-478.33 335.79,-480.34 328.91,-472.29 325.39,-478.33"/>
</a>
</g>
</g>
<!-- Node29&#45;&gt;Node20 -->
<g id="edge47_Node000029_Node000020" class="edge">
<title>Node29&#45;&gt;Node20</title>
<g id="a_edge47_Node000029_Node000020"><a xlink:title=" ">
<path fill="none" stroke="#63b8ff" d="M223.29,-277.77C237.05,-255.13 273.74,-201.16 321.5,-181 378.72,-156.84 407.74,-149.47 461.25,-181 489.7,-197.77 476.59,-220.24 497.25,-246 510.19,-262.13 527.73,-277.54 541.72,-288.7"/>
<polygon fill="#63b8ff" stroke="#63b8ff" points="539.5,-291.41 549.55,-294.78 543.8,-285.88 539.5,-291.41"/>
</a>
</g>
</g>
<!-- Node29&#45;&gt;Node21 -->
<g id="edge54_Node000029_Node000021" class="edge">
<title>Node29&#45;&gt;Node21</title>
<g id="a_edge54_Node000029_Node000021"><a xlink:title=" ">
<path fill="none" stroke="#63b8ff" d="M221.55,-277.86C232.94,-251.72 267.4,-182.23 321.5,-156 377.39,-128.9 401.91,-137.64 461.25,-156 494.73,-166.36 527.03,-191.66 546.45,-209.08"/>
<polygon fill="#63b8ff" stroke="#63b8ff" points="543.84,-211.42 553.56,-215.64 548.59,-206.28 543.84,-211.42"/>
</a>
</g>
</g>
<!-- Node29&#45;&gt;Node22 -->
<g id="edge55_Node000029_Node000022" class="edge">
<title>Node29&#45;&gt;Node22</title>
<g id="a_edge55_Node000029_Node000022"><a xlink:title=" ">
<path fill="none" stroke="#63b8ff" d="M220.95,-277.53C231.32,-248.97 264.31,-169.58 321.5,-135 373.89,-103.32 444.3,-98.41 495.93,-100.18"/>
<polygon fill="#63b8ff" stroke="#63b8ff" points="495.65,-103.67 505.79,-100.62 495.96,-96.67 495.65,-103.67"/>
</a>
</g>
</g>
<!-- Node29&#45;&gt;Node26 -->
<g id="edge48_Node000029_Node000026" class="edge">
<title>Node29&#45;&gt;Node26</title>
<g id="a_edge48_Node000029_Node000026"><a xlink:title=" ">
<path fill="none" stroke="#63b8ff" d="M230.06,-277.64C248.93,-262.72 285.97,-235.17 321.5,-219 325.45,-217.2 329.61,-215.54 333.84,-214.01"/>
<polygon fill="#63b8ff" stroke="#63b8ff" points="334.63,-217.44 343.02,-210.96 332.42,-210.79 334.63,-217.44"/>
</a>
</g>
</g>
<!-- Node29&#45;&gt;Node28 -->
<g id="edge49_Node000029_Node000028" class="edge">
<title>Node29&#45;&gt;Node28</title>
<g id="a_edge49_Node000029_Node000028"><a xlink:title=" ">
<path fill="none" stroke="#63b8ff" d="M258.37,-277.57C279.59,-272.18 305.92,-265.48 329.47,-259.49"/>
<polygon fill="#63b8ff" stroke="#63b8ff" points="330.12,-262.94 338.95,-257.08 328.39,-256.15 330.12,-262.94"/>
</a>
</g>
</g>
<!-- Node31 -->
<g id="Node000031" class="node">
<title>Node31</title>
<g id="a_Node000031"><a xlink:href="class_sv_controller.html#afc102679fe80499c39d27cb8640394cc" target="_top" xlink:title=" ">
<polygon fill="white" stroke="#666666" points="447.75,-58 335,-58 335,-38 447.75,-38 447.75,-58"/>
<text xml:space="preserve" text-anchor="middle" x="391.38" y="-44.5" font-family="Helvetica,sans-Serif" font-size="10.00">SvController::instance</text>
</a>
</g>
</g>
<!-- Node30&#45;&gt;Node31 -->
<g id="edge57_Node000030_Node000031" class="edge">
<title>Node30&#45;&gt;Node31</title>
<g id="a_edge57_Node000030_Node000031"><a xlink:title=" ">
<path fill="none" stroke="#63b8ff" d="M264.19,-48C282.34,-48 303.47,-48 323.19,-48"/>
<polygon fill="#63b8ff" stroke="#63b8ff" points="323.09,-51.5 333.09,-48 323.09,-44.5 323.09,-51.5"/>
</a>
</g>
</g>
<!-- Node33 -->
<g id="Node000033" class="node">
<title>Node33</title>
<g id="a_Node000033"><a xlink:href="class_sv_controller.html#acd42f31d359ef053588fdaf246483359" target="_top" xlink:title=" ">
<polygon fill="white" stroke="#666666" points="451.12,-20 331.62,-20 331.62,0 451.12,0 451.12,-20"/>
<text xml:space="preserve" text-anchor="middle" x="391.38" y="-6.5" font-family="Helvetica,sans-Serif" font-size="10.00">SvController::isRunning</text>
</a>
</g>
</g>
<!-- Node30&#45;&gt;Node33 -->
<g id="edge59_Node000030_Node000033" class="edge">
<title>Node30&#45;&gt;Node33</title>
<g id="a_edge59_Node000030_Node000033"><a xlink:title=" ">
<path fill="none" stroke="#63b8ff" d="M264.19,-37.72C284.9,-33.17 309.48,-27.77 331.42,-22.95"/>
<polygon fill="#63b8ff" stroke="#63b8ff" points="332.12,-26.38 341.14,-20.81 330.62,-19.54 332.12,-26.38"/>
</a>
</g>
</g>
<!-- Node32 -->
<g id="Node000032" class="node">
<title>Node32</title>
<g id="a_Node000032"><a xlink:href="class_sv_controller.html#aa5d7c635a8015c90217076cf4722542c" target="_top" xlink:title=" ">
<polygon fill="white" stroke="#666666" points="631,-58 501,-58 501,-38 631,-38 631,-58"/>
<text xml:space="preserve" text-anchor="middle" x="566" y="-44.5" font-family="Helvetica,sans-Serif" font-size="10.00">SvController::SvController</text>
</a>
</g>
</g>
<!-- Node31&#45;&gt;Node32 -->
<g id="edge58_Node000031_Node000032" class="edge">
<title>Node31&#45;&gt;Node32</title>
<g id="a_edge58_Node000031_Node000032"><a xlink:title=" ">
<path fill="none" stroke="#63b8ff" d="M447.94,-48C461.04,-48 475.21,-48 489.03,-48"/>
<polygon fill="#63b8ff" stroke="#63b8ff" points="489,-51.5 499,-48 489,-44.5 489,-51.5"/>
</a>
</g>
</g>
</g>
</svg>

<g id="navigator" transform="translate(0 0)" fill="#404254">
  <rect fill="#f2f5e9" fill-opacity="0.5" stroke="#606060" stroke-width=".5" x="0" y="0" width="60" height="60"/>
  <use id="zoomplus" xlink:href="#zoomPlus" x="17" y="9" onmousedown="handleZoom(evt,'in')"/>
  <use id="zoomminus" xlink:href="#zoomMin" x="42" y="9" onmousedown="handleZoom(evt,'out')"/>
  <use id="reset" xlink:href="#resetDef" x="30" y="36" onmousedown="handleReset()"/>
   <use id="arrowup" xlink:href="#arrowUp" x="0" y="0" onmousedown="handlePan(0,-1)"/>
  <use id="arrowright" xlink:href="#arrowRight" x="0" y="0" onmousedown="handlePan(1,0)"/>
  <use id="arrowdown" xlink:href="#arrowDown" x="0" y="0" onmousedown="handlePan(0,1)"/>
  <use id="arrowleft" xlink:href="#arrowLeft" x="0" y="0" onmousedown="handlePan(-1,0)"/>
</g>
<svg viewBox="0 0 15 15" width="100%" height="30px" preserveAspectRatio="xMaxYMin meet">
 <g id="arrow_out" transform="scale(0.3 0.3)">
  <a xlink:href="sv__publisher_8h_af14f0670e1b30534e33524f8c49a5580_cgraph_org.svg" target="_base">
   <rect id="button" ry="5" rx="5" y="6" x="6" height="38" width="38"
        fill="#f2f5e9" fill-opacity="0.5" stroke="#606060" stroke-width="1.0"/>
   <path id="arrow"
     d="M 11.500037,31.436501 C 11.940474,20.09759 22.043105,11.32322 32.158766,21.979434 L 37.068811,17.246167 C 37.068811,17.246167 37.088388,32 37.088388,32 L 22.160133,31.978069 C 22.160133,31.978069 26.997745,27.140456 26.997745,27.140456 C 18.528582,18.264221 13.291696,25.230495 11.500037,31.436501 z"
     style="fill:#404040;"/>
  </a>
 </g>
</svg>

<style type='text/css'>
<![CDATA[
[data-mouse-over-selected='false'] { opacity: 0.7; }
[data-mouse-over-selected='true']  { opacity: 1.0; }
]]>
</style>
<script type="application/ecmascript"><![CDATA[
document.addEventListener('DOMContentLoaded', (event) => {
  highlightEdges();
  highlightAdjacentNodes();
});
]]></script>
</svg>
