<?xml version="1.0" encoding="UTF-8" standalone="no"?>
<!DOCTYPE svg PUBLIC "-//W3C//DTD SVG 1.1//EN"
 "http://www.w3.org/Graphics/SVG/1.1/DTD/svg11.dtd">
<!-- Generated by graphviz version 14.1.2 (20260124.0452)
 -->
<!-- Title: sv_mp_reset_all Pages: 1 -->
<svg width="540pt" height="104pt"
 viewBox="0.00 0.00 540.00 104.00" xmlns="http://www.w3.org/2000/svg" xmlns:xlink="http://www.w3.org/1999/xlink">
<g id="graph0" class="graph" transform="scale(1 1) rotate(0) translate(4 100)">
<title>sv_mp_reset_all</title>
<!-- Node1 -->
<g id="Node000001" class="node">
<title>Node1</title>
<g id="a_Node000001"><a xlink:title=" ">
<polygon fill="#999999" stroke="#666666" points="87.25,-77 0,-77 0,-57 87.25,-57 87.25,-77"/>
<text xml:space="preserve" text-anchor="middle" x="43.62" y="-63.5" font-family="Helvetica,sans-Serif" font-size="10.00">sv_mp_reset_all</text>
</a>
</g>
</g>
<!-- Node2 -->
<g id="Node000002" class="node">
<title>Node2</title>
<g id="a_Node000002"><a xlink:href="class_sv_controller.html#afc102679fe80499c39d27cb8640394cc" target="_top" xlink:title=" ">
<polygon fill="white" stroke="#666666" points="236,-96 123.25,-96 123.25,-76 236,-76 236,-96"/>
<text xml:space="preserve" text-anchor="middle" x="179.62" y="-82.5" font-family="Helvetica,sans-Serif" font-size="10.00">SvController::instance</text>
</a>
</g>
</g>
<!-- Node1&#45;&gt;Node2 -->
<g id="edge1_Node000001_Node000002" class="edge">
<title>Node1&#45;&gt;Node2</title>
<g id="a_edge1_Node000001_Node000002"><a xlink:title=" ">
<path fill="none" stroke="#63b8ff" d="M87.39,-73.06C95.19,-74.17 103.48,-75.35 111.78,-76.52"/>
<polygon fill="#63b8ff" stroke="#63b8ff" points="111.15,-79.97 121.54,-77.91 112.13,-73.04 111.15,-79.97"/>
</a>
</g>
</g>
<!-- Node4 -->
<g id="Node000004" class="node">
<title>Node4</title>
<g id="a_Node000004"><a xlink:href="class_sv_controller.html#ac173f4f124e0394b58014d7e3e41f78d" target="_top" xlink:title=" ">
<polygon fill="white" stroke="#666666" points="234.12,-58 125.12,-58 125.12,-38 234.12,-38 234.12,-58"/>
<text xml:space="preserve" text-anchor="middle" x="179.62" y="-44.5" font-family="Helvetica,sans-Serif" font-size="10.00">SvController::resetAll</text>
</a>
</g>
</g>
<!-- Node1&#45;&gt;Node4 -->
<g id="edge3_Node000001_Node000004" class="edge">
<title>Node1&#45;&gt;Node4</title>
<g id="a_edge3_Node000001_Node000004"><a xlink:title=" ">
<path fill="none" stroke="#63b8ff" d="M87.39,-60.94C95.79,-59.74 104.78,-58.47 113.72,-57.2"/>
<polygon fill="#63b8ff" stroke="#63b8ff" points="114.06,-60.69 123.47,-55.82 113.08,-53.76 114.06,-60.69"/>
</a>
</g>
</g>
<!-- Node3 -->
<g id="Node000003" class="node">
<title>Node3</title>
<g id="a_Node000003"><a xlink:href="class_sv_controller.html#aa5d7c635a8015c90217076cf4722542c" target="_top" xlink:title=" ">
<polygon fill="white" stroke="#666666" points="402,-96 272,-96 272,-76 402,-76 402,-96"/>
<text xml:space="preserve" text-anchor="middle" x="337" y="-82.5" font-family="Helvetica,sans-Serif" font-size="10.00">SvController::SvController</text>
</a>
</g>
</g>
<!-- Node2&#45;&gt;Node3 -->
<g id="edge2_Node000002_Node000003" class="edge">
<title>Node2&#45;&gt;Node3</title>
<g id="a_edge2_Node000002_Node000003"><a xlink:title=" ">
<path fill="none" stroke="#63b8ff" d="M236.28,-86C244.09,-86 252.23,-86 260.34,-86"/>
<polygon fill="#63b8ff" stroke="#63b8ff" points="260.23,-89.5 270.23,-86 260.23,-82.5 260.23,-89.5"/>
</a>
</g>
</g>
<!-- Node5 -->
<g id="Node000005" class="node">
<title>Node5</title>
<g id="a_Node000005"><a xlink:href="sv__native__refactored_8cc.html#afc51a55f01e77fb4264498f176d9438e" target="_top" xlink:title="Stop publishing.">
<polygon fill="white" stroke="#666666" points="392.25,-58 281.75,-58 281.75,-38 392.25,-38 392.25,-58"/>
<text xml:space="preserve" text-anchor="middle" x="337" y="-44.5" font-family="Helvetica,sans-Serif" font-size="10.00">npcap_publisher_stop</text>
</a>
</g>
</g>
<!-- Node4&#45;&gt;Node5 -->
<g id="edge4_Node000004_Node000005" class="edge">
<title>Node4&#45;&gt;Node5</title>
<g id="a_edge4_Node000004_Node000005"><a xlink:title=" ">
<path fill="none" stroke="#63b8ff" d="M234.53,-48C246.02,-48 258.28,-48 270.16,-48"/>
<polygon fill="#63b8ff" stroke="#63b8ff" points="269.89,-51.5 279.89,-48 269.89,-44.5 269.89,-51.5"/>
</a>
</g>
</g>
<!-- Node7 -->
<g id="Node000007" class="node">
<title>Node7</title>
<g id="a_Node000007"><a xlink:href="sv__stats__impl_8cc.html#a4e5f02e3cc9b2b06496cca1b54582e0a" target="_top" xlink:title="Reset all statistics to zero.">
<polygon fill="white" stroke="#666666" points="385.12,-20 288.88,-20 288.88,0 385.12,0 385.12,-20"/>
<text xml:space="preserve" text-anchor="middle" x="337" y="-6.5" font-family="Helvetica,sans-Serif" font-size="10.00">npcap_stats_reset</text>
</a>
</g>
</g>
<!-- Node4&#45;&gt;Node7 -->
<g id="edge6_Node000004_Node000007" class="edge">
<title>Node4&#45;&gt;Node7</title>
<g id="a_edge6_Node000004_Node000007"><a xlink:title=" ">
<path fill="none" stroke="#63b8ff" d="M223.49,-37.52C241.66,-33.07 263.04,-27.84 282.25,-23.15"/>
<polygon fill="#63b8ff" stroke="#63b8ff" points="282.92,-26.59 291.8,-20.81 281.26,-19.79 282.92,-26.59"/>
</a>
</g>
</g>
<!-- Node6 -->
<g id="Node000006" class="node">
<title>Node6</title>
<g id="a_Node000006"><a xlink:href="sv__native__refactored_8cc.html#a24b2107199112b58a421c0c873ea7d12" target="_top" xlink:title=" ">
<polygon fill="white" stroke="#666666" points="532,-58 438,-58 438,-38 532,-38 532,-58"/>
<text xml:space="preserve" text-anchor="middle" x="485" y="-44.5" font-family="Helvetica,sans-Serif" font-size="10.00">free_frame_cache</text>
</a>
</g>
</g>
<!-- Node5&#45;&gt;Node6 -->
<g id="edge5_Node000005_Node000006" class="edge">
<title>Node5&#45;&gt;Node6</title>
<g id="a_edge5_Node000005_Node000006"><a xlink:title=" ">
<path fill="none" stroke="#63b8ff" d="M392.37,-48C403.44,-48 415.12,-48 426.3,-48"/>
<polygon fill="#63b8ff" stroke="#63b8ff" points="426.22,-51.5 436.22,-48 426.22,-44.5 426.22,-51.5"/>
</a>
</g>
</g>
</g>
</svg>
