<?xml version="1.0" encoding="UTF-8" standalone="no"?>
<!DOCTYPE svg PUBLIC "-//W3C//DTD SVG 1.1//EN"
 "http://www.w3.org/Graphics/SVG/1.1/DTD/svg11.dtd">
<!-- Generated by graphviz version 14.1.2 (20260124.0452)
 -->
<!-- Title: sv_mp_set_usb_pad_size Pages: 1 -->
<svg width="484pt" height="66pt"
 viewBox="0.00 0.00 484.00 66.00" xmlns="http://www.w3.org/2000/svg" xmlns:xlink="http://www.w3.org/1999/xlink">
<g id="graph0" class="graph" transform="scale(1 1) rotate(0) translate(4 62)">
<title>sv_mp_set_usb_pad_size</title>
<!-- Node1 -->
<g id="Node000001" class="node">
<title>Node1</title>
<g id="a_Node000001"><a xlink:title=" ">
<polygon fill="#999999" stroke="#666666" points="129.25,-39 0,-39 0,-19 129.25,-19 129.25,-39"/>
<text xml:space="preserve" text-anchor="middle" x="64.62" y="-25.5" font-family="Helvetica,sans-Serif" font-size="10.00">sv_mp_set_usb_pad_size</text>
</a>
</g>
</g>
<!-- Node2 -->
<g id="Node000002" class="node">
<title>Node2</title>
<g id="a_Node000002"><a xlink:href="class_sv_controller.html#afc102679fe80499c39d27cb8640394cc" target="_top" xlink:title=" ">
<polygon fill="white" stroke="#666666" points="293.75,-58 181,-58 181,-38 293.75,-38 293.75,-58"/>
<text xml:space="preserve" text-anchor="middle" x="237.38" y="-44.5" font-family="Helvetica,sans-Serif" font-size="10.00">SvController::instance</text>
</a>
</g>
</g>
<!-- Node1&#45;&gt;Node2 -->
<g id="edge1_Node000001_Node000002" class="edge">
<title>Node1&#45;&gt;Node2</title>
<g id="a_edge1_Node000001_Node000002"><a xlink:title=" ">
<path fill="none" stroke="#63b8ff" d="M129.69,-36.13C142.65,-37.57 156.3,-39.09 169.35,-40.54"/>
<polygon fill="#63b8ff" stroke="#63b8ff" points="168.81,-44 179.13,-41.63 169.58,-37.05 168.81,-44"/>
</a>
</g>
</g>
<!-- Node4 -->
<g id="Node000004" class="node">
<title>Node4</title>
<g id="a_Node000004"><a xlink:href="class_sv_controller.html#a948866637ade53a082e1b56b80d0a389" target="_top" xlink:title=" ">
<polygon fill="white" stroke="#666666" points="309.5,-20 165.25,-20 165.25,0 309.5,0 309.5,-20"/>
<text xml:space="preserve" text-anchor="middle" x="237.38" y="-6.5" font-family="Helvetica,sans-Serif" font-size="10.00">SvController::setUsbPadSize</text>
</a>
</g>
</g>
<!-- Node1&#45;&gt;Node4 -->
<g id="edge3_Node000001_Node000004" class="edge">
<title>Node1&#45;&gt;Node4</title>
<g id="a_edge3_Node000001_Node000004"><a xlink:title=" ">
<path fill="none" stroke="#63b8ff" d="M129.69,-21.87C137.47,-21.01 145.51,-20.11 153.51,-19.22"/>
<polygon fill="#63b8ff" stroke="#63b8ff" points="153.73,-22.72 163.28,-18.13 152.95,-15.76 153.73,-22.72"/>
</a>
</g>
</g>
<!-- Node3 -->
<g id="Node000003" class="node">
<title>Node3</title>
<g id="a_Node000003"><a xlink:href="class_sv_controller.html#aa5d7c635a8015c90217076cf4722542c" target="_top" xlink:title=" ">
<polygon fill="white" stroke="#666666" points="475.5,-58 345.5,-58 345.5,-38 475.5,-38 475.5,-58"/>
<text xml:space="preserve" text-anchor="middle" x="410.5" y="-44.5" font-family="Helvetica,sans-Serif" font-size="10.00">SvController::SvController</text>
</a>
</g>
</g>
<!-- Node2&#45;&gt;Node3 -->
<g id="edge2_Node000002_Node000003" class="edge">
<title>Node2&#45;&gt;Node3</title>
<g id="a_edge2_Node000002_Node000003"><a xlink:title=" ">
<path fill="none" stroke="#63b8ff" d="M293.93,-48C306.74,-48 320.58,-48 334.07,-48"/>
<polygon fill="#63b8ff" stroke="#63b8ff" points="333.79,-51.5 343.79,-48 333.79,-44.5 333.79,-51.5"/>
</a>
</g>
</g>
</g>
</svg>
