<?xml version="1.0" encoding="UTF-8" standalone="no"?>
<!DOCTYPE svg PUBLIC "-//W3C//DTD SVG 1.1//EN"
 "http://www.w3.org/Graphics/SVG/1.1/DTD/svg11.dtd">
<!-- Generated by graphviz version 14.1.2 (20260124.0452)
 -->
<!-- Title: sv_mp_stop_all Pages: 1 -->
<svg width="407pt" height="66pt"
 viewBox="0.00 0.00 407.00 66.00" xmlns="http://www.w3.org/2000/svg" xmlns:xlink="http://www.w3.org/1999/xlink">
<g id="graph0" class="graph" transform="scale(1 1) rotate(0) translate(4 62)">
<title>sv_mp_stop_all</title>
<!-- Node1 -->
<g id="Node000001" class="node">
<title>Node1</title>
<g id="a_Node000001"><a xlink:title=" ">
<polygon fill="#999999" stroke="#666666" points="84.25,-39 0,-39 0,-19 84.25,-19 84.25,-39"/>
<text xml:space="preserve" text-anchor="middle" x="42.12" y="-25.5" font-family="Helvetica,sans-Serif" font-size="10.00">sv_mp_stop_all</text>
</a>
</g>
</g>
<!-- Node2 -->
<g id="Node000002" class="node">
<title>Node2</title>
<g id="a_Node000002"><a xlink:href="class_sv_controller.html#afc102679fe80499c39d27cb8640394cc" target="_top" xlink:title=" ">
<polygon fill="white" stroke="#666666" points="233,-58 120.25,-58 120.25,-38 233,-38 233,-58"/>
<text xml:space="preserve" text-anchor="middle" x="176.62" y="-44.5" font-family="Helvetica,sans-Serif" font-size="10.00">SvController::instance</text>
</a>
</g>
</g>
<!-- Node1&#45;&gt;Node2 -->
<g id="edge1_Node000001_Node000002" class="edge">
<title>Node1&#45;&gt;Node2</title>
<g id="a_edge1_Node000001_Node000002"><a xlink:title=" ">
<path fill="none" stroke="#63b8ff" d="M84.69,-34.96C92.41,-36.07 100.65,-37.25 108.91,-38.43"/>
<polygon fill="#63b8ff" stroke="#63b8ff" points="108.23,-41.87 118.62,-39.83 109.22,-34.94 108.23,-41.87"/>
</a>
</g>
</g>
<!-- Node4 -->
<g id="Node000004" class="node">
<title>Node4</title>
<g id="a_Node000004"><a xlink:href="class_sv_controller.html#a51afae55d03efa7994819e67608dffbf" target="_top" xlink:title=" ">
<polygon fill="white" stroke="#666666" points="229.62,-20 123.62,-20 123.62,0 229.62,0 229.62,-20"/>
<text xml:space="preserve" text-anchor="middle" x="176.62" y="-6.5" font-family="Helvetica,sans-Serif" font-size="10.00">SvController::stopAll</text>
</a>
</g>
</g>
<!-- Node1&#45;&gt;Node4 -->
<g id="edge3_Node000001_Node000004" class="edge">
<title>Node1&#45;&gt;Node4</title>
<g id="a_edge3_Node000001_Node000004"><a xlink:title=" ">
<path fill="none" stroke="#63b8ff" d="M84.69,-23.04C93.43,-21.79 102.84,-20.44 112.17,-19.1"/>
<polygon fill="#63b8ff" stroke="#63b8ff" points="112.57,-22.58 121.97,-17.69 111.58,-15.65 112.57,-22.58"/>
</a>
</g>
</g>
<!-- Node3 -->
<g id="Node000003" class="node">
<title>Node3</title>
<g id="a_Node000003"><a xlink:href="class_sv_controller.html#aa5d7c635a8015c90217076cf4722542c" target="_top" xlink:title=" ">
<polygon fill="white" stroke="#666666" points="399,-58 269,-58 269,-38 399,-38 399,-58"/>
<text xml:space="preserve" text-anchor="middle" x="334" y="-44.5" font-family="Helvetica,sans-Serif" font-size="10.00">SvController::SvController</text>
</a>
</g>
</g>
<!-- Node2&#45;&gt;Node3 -->
<g id="edge2_Node000002_Node000003" class="edge">
<title>Node2&#45;&gt;Node3</title>
<g id="a_edge2_Node000002_Node000003"><a xlink:title=" ">
<path fill="none" stroke="#63b8ff" d="M233.28,-48C241.09,-48 249.23,-48 257.34,-48"/>
<polygon fill="#63b8ff" stroke="#63b8ff" points="257.23,-51.5 267.23,-48 257.23,-44.5 257.23,-51.5"/>
</a>
</g>
</g>
</g>
</svg>
