<?xml version="1.0" encoding="UTF-8" standalone="no"?>
<!DOCTYPE svg PUBLIC "-//W3C//DTD SVG 1.1//EN"
 "http://www.w3.org/Graphics/SVG/1.1/DTD/svg11.dtd">
<!-- Generated by graphviz version 14.1.2 (20260124.0452)
 -->
<!-- Title: sv_publisher_instance.cc Pages: 1 -->
<svg width="473pt" height="208pt"
 viewBox="0.00 0.00 473.00 208.00" xmlns="http://www.w3.org/2000/svg" xmlns:xlink="http://www.w3.org/1999/xlink">
<g id="graph0" class="graph" transform="scale(1 1) rotate(0) translate(4 204)">
<title>sv_publisher_instance.cc</title>
<!-- Node1 -->
<g id="Node000001" class="node">
<title>Node1</title>
<g id="a_Node000001"><a xlink:title="Implementation of SvPublisherInstance.">
<polygon fill="#999999" stroke="#666666" points="399.38,-200 273.12,-200 273.12,-180 399.38,-180 399.38,-200"/>
<text xml:space="preserve" text-anchor="middle" x="336.25" y="-186.5" font-family="Helvetica,sans-Serif" font-size="10.00">sv_publisher_instance.cc</text>
</a>
</g>
</g>
<!-- Node2 -->
<g id="Node000002" class="node">
<title>Node2</title>
<g id="a_Node000002"><a xlink:href="sv__publisher__instance_8h.html" target="_top" xlink:title="Single SV Publisher Instance (one Merging Unit).">
<polygon fill="white" stroke="#666666" points="284,-144 170.5,-144 170.5,-112 284,-112 284,-144"/>
<text xml:space="preserve" text-anchor="start" x="178.5" y="-130.5" font-family="Helvetica,sans-Serif" font-size="10.00">../include/sv_publisher</text>
<text xml:space="preserve" text-anchor="middle" x="227.25" y="-118.5" font-family="Helvetica,sans-Serif" font-size="10.00">_instance.h</text>
</a>
</g>
</g>
<!-- Node1&#45;&gt;Node2 -->
<g id="edge1_Node000001_Node000002" class="edge">
<title>Node1&#45;&gt;Node2</title>
<g id="a_edge1_Node000001_Node000002"><a xlink:title=" ">
<path fill="none" stroke="#63b8ff" d="M319.22,-179.62C304.77,-171.67 283.51,-159.97 265.07,-149.82"/>
<polygon fill="#63b8ff" stroke="#63b8ff" points="266.95,-146.86 256.5,-145.1 263.58,-152.99 266.95,-146.86"/>
</a>
</g>
</g>
<!-- Node3 -->
<g id="Node000003" class="node">
<title>Node3</title>
<g id="a_Node000003"><a xlink:href="sv__encoder_8h.html" target="_top" xlink:title="IEC 61850&#45;9&#45;2LE SV Packet Encoder.">
<polygon fill="white" stroke="#666666" points="74.5,-76 0,-76 0,-56 74.5,-56 74.5,-76"/>
<text xml:space="preserve" text-anchor="middle" x="37.25" y="-62.5" font-family="Helvetica,sans-Serif" font-size="10.00">sv_encoder.h</text>
</a>
</g>
</g>
<!-- Node1&#45;&gt;Node3 -->
<g id="edge13_Node000001_Node000003" class="edge">
<title>Node1&#45;&gt;Node3</title>
<g id="a_edge13_Node000001_Node000003"><a xlink:title=" ">
<path fill="none" stroke="#63b8ff" d="M282.41,-179.57C247.08,-172.33 200.34,-160.7 161.25,-144 122.92,-127.63 82.65,-100.5 58.76,-83.2"/>
<polygon fill="#63b8ff" stroke="#63b8ff" points="60.92,-80.45 50.8,-77.35 56.78,-86.09 60.92,-80.45"/>
</a>
</g>
</g>
<!-- Node9 -->
<g id="Node000009" class="node">
<title>Node9</title>
<g id="a_Node000009"><a xlink:title=" ">
<polygon fill="#e0e0e0" stroke="#999999" points="338.38,-76 296.12,-76 296.12,-56 338.38,-56 338.38,-76"/>
<text xml:space="preserve" text-anchor="middle" x="317.25" y="-62.5" font-family="Helvetica,sans-Serif" font-size="10.00">cstdio</text>
</a>
</g>
</g>
<!-- Node1&#45;&gt;Node9 -->
<g id="edge14_Node000001_Node000009" class="edge">
<title>Node1&#45;&gt;Node9</title>
<g id="a_edge14_Node000001_Node000009"><a xlink:title=" ">
<path fill="none" stroke="#63b8ff" d="M334.82,-179.83C331.78,-160.31 324.61,-114.25 320.43,-87.4"/>
<polygon fill="#63b8ff" stroke="#63b8ff" points="323.92,-87.11 318.93,-77.77 317.01,-88.19 323.92,-87.11"/>
</a>
</g>
</g>
<!-- Node10 -->
<g id="Node000010" class="node">
<title>Node10</title>
<g id="a_Node000010"><a xlink:title=" ">
<polygon fill="#e0e0e0" stroke="#999999" points="401.88,-76 356.62,-76 356.62,-56 401.88,-56 401.88,-76"/>
<text xml:space="preserve" text-anchor="middle" x="379.25" y="-62.5" font-family="Helvetica,sans-Serif" font-size="10.00">cstring</text>
</a>
</g>
</g>
<!-- Node1&#45;&gt;Node10 -->
<g id="edge15_Node000001_Node000010" class="edge">
<title>Node1&#45;&gt;Node10</title>
<g id="a_edge15_Node000001_Node000010"><a xlink:title=" ">
<path fill="none" stroke="#63b8ff" d="M339.48,-179.83C346.39,-160.22 362.74,-113.83 372.19,-87.04"/>
<polygon fill="#63b8ff" stroke="#63b8ff" points="375.45,-88.3 375.48,-77.7 368.85,-85.97 375.45,-88.3"/>
</a>
</g>
</g>
<!-- Node11 -->
<g id="Node000011" class="node">
<title>Node11</title>
<g id="a_Node000011"><a xlink:title=" ">
<polygon fill="#e0e0e0" stroke="#999999" points="454.25,-76 420.25,-76 420.25,-56 454.25,-56 454.25,-76"/>
<text xml:space="preserve" text-anchor="middle" x="437.25" y="-62.5" font-family="Helvetica,sans-Serif" font-size="10.00">new</text>
</a>
</g>
</g>
<!-- Node1&#45;&gt;Node11 -->
<g id="edge17_Node000001_Node000011" class="edge">
<title>Node1&#45;&gt;Node11</title>
<g id="a_edge17_Node000001_Node000011"><a xlink:title=" ">
<path fill="none" stroke="#63b8ff" d="M343.84,-179.83C360.51,-159.69 400.57,-111.31 422.42,-84.91"/>
<polygon fill="#63b8ff" stroke="#63b8ff" points="424.92,-87.38 428.61,-77.44 419.53,-82.91 424.92,-87.38"/>
</a>
</g>
</g>
<!-- Node12 -->
<g id="Node000012" class="node">
<title>Node12</title>
<g id="a_Node000012"><a xlink:title=" ">
<polygon fill="#e0e0e0" stroke="#999999" points="464.75,-138 421.75,-138 421.75,-118 464.75,-118 464.75,-138"/>
<text xml:space="preserve" text-anchor="middle" x="443.25" y="-124.5" font-family="Helvetica,sans-Serif" font-size="10.00">cmath</text>
</a>
</g>
</g>
<!-- Node1&#45;&gt;Node12 -->
<g id="edge16_Node000001_Node000012" class="edge">
<title>Node1&#45;&gt;Node12</title>
<g id="a_edge16_Node000001_Node000012"><a xlink:title=" ">
<path fill="none" stroke="#63b8ff" d="M352.97,-179.62C370.01,-170.07 396.7,-155.11 416.64,-143.92"/>
<polygon fill="#63b8ff" stroke="#63b8ff" points="418.32,-146.99 425.33,-139.05 414.89,-140.89 418.32,-146.99"/>
</a>
</g>
</g>
<!-- Node2&#45;&gt;Node3 -->
<g id="edge2_Node000002_Node000003" class="edge">
<title>Node2&#45;&gt;Node3</title>
<g id="a_edge2_Node000002_Node000003"><a xlink:title=" ">
<path fill="none" stroke="#63b8ff" d="M178.32,-111.55C147.22,-101.73 107.42,-89.16 78.04,-79.88"/>
<polygon fill="#63b8ff" stroke="#63b8ff" points="79.35,-76.63 68.76,-76.95 77.25,-83.3 79.35,-76.63"/>
</a>
</g>
</g>
<!-- Node4 -->
<g id="Node000004" class="node">
<title>Node4</title>
<g id="a_Node000004"><a xlink:title=" ">
<polygon fill="#e0e0e0" stroke="#999999" points="152.88,-20 107.62,-20 107.62,0 152.88,0 152.88,-20"/>
<text xml:space="preserve" text-anchor="middle" x="130.25" y="-6.5" font-family="Helvetica,sans-Serif" font-size="10.00">cstdint</text>
</a>
</g>
</g>
<!-- Node2&#45;&gt;Node4 -->
<g id="edge8_Node000002_Node000004" class="edge">
<title>Node2&#45;&gt;Node4</title>
<g id="a_edge8_Node000002_Node000004"><a xlink:title=" ">
<path fill="none" stroke="#63b8ff" d="M201.23,-111.58C187.67,-102.54 171.6,-90.14 160.25,-76 149.42,-62.51 141.5,-44.46 136.52,-30.81"/>
<polygon fill="#63b8ff" stroke="#63b8ff" points="139.92,-29.95 133.4,-21.6 133.3,-32.2 139.92,-29.95"/>
</a>
</g>
</g>
<!-- Node5 -->
<g id="Node000005" class="node">
<title>Node5</title>
<g id="a_Node000005"><a xlink:title=" ">
<polygon fill="#e0e0e0" stroke="#999999" points="80.38,-20 32.12,-20 32.12,0 80.38,0 80.38,-20"/>
<text xml:space="preserve" text-anchor="middle" x="56.25" y="-6.5" font-family="Helvetica,sans-Serif" font-size="10.00">cstddef</text>
</a>
</g>
</g>
<!-- Node2&#45;&gt;Node5 -->
<g id="edge9_Node000002_Node000005" class="edge">
<title>Node2&#45;&gt;Node5</title>
<g id="a_edge9_Node000002_Node000005"><a xlink:title=" ">
<path fill="none" stroke="#63b8ff" d="M200.36,-111.56C183.67,-101.76 161.92,-88.6 143.25,-76 119.91,-60.25 94.19,-40.75 76.82,-27.24"/>
<polygon fill="#63b8ff" stroke="#63b8ff" points="79.31,-24.75 69.28,-21.35 75,-30.27 79.31,-24.75"/>
</a>
</g>
</g>
<!-- Node6 -->
<g id="Node000006" class="node">
<title>Node6</title>
<g id="a_Node000006"><a xlink:href="equation__processor_8h.html" target="_top" xlink:title="Equation Processing for SV Publisher.">
<polygon fill="white" stroke="#666666" points="277.75,-76 168.75,-76 168.75,-56 277.75,-56 277.75,-76"/>
<text xml:space="preserve" text-anchor="middle" x="223.25" y="-62.5" font-family="Helvetica,sans-Serif" font-size="10.00">equation_processor.h</text>
</a>
</g>
</g>
<!-- Node2&#45;&gt;Node6 -->
<g id="edge5_Node000002_Node000006" class="edge">
<title>Node2&#45;&gt;Node6</title>
<g id="a_edge5_Node000002_Node000006"><a xlink:title=" ">
<path fill="none" stroke="#63b8ff" d="M226.22,-111.55C225.74,-104.34 225.16,-95.66 224.64,-87.88"/>
<polygon fill="#63b8ff" stroke="#63b8ff" points="228.14,-87.66 223.98,-77.92 221.15,-88.13 228.14,-87.66"/>
</a>
</g>
</g>
<!-- Node2&#45;&gt;Node9 -->
<g id="edge10_Node000002_Node000009" class="edge">
<title>Node2&#45;&gt;Node9</title>
<g id="a_edge10_Node000002_Node000009"><a xlink:title=" ">
<path fill="none" stroke="#63b8ff" d="M250.43,-111.55C263.71,-102.69 280.34,-91.61 293.68,-82.71"/>
<polygon fill="#63b8ff" stroke="#63b8ff" points="295.5,-85.71 301.88,-77.25 291.62,-79.88 295.5,-85.71"/>
</a>
</g>
</g>
<!-- Node2&#45;&gt;Node10 -->
<g id="edge11_Node000002_Node000010" class="edge">
<title>Node2&#45;&gt;Node10</title>
<g id="a_edge11_Node000002_Node000010"><a xlink:title=" ">
<path fill="none" stroke="#63b8ff" d="M266.39,-111.55C291,-101.84 322.4,-89.44 345.83,-80.19"/>
<polygon fill="#63b8ff" stroke="#63b8ff" points="346.88,-83.54 354.9,-76.61 344.31,-77.03 346.88,-83.54"/>
</a>
</g>
</g>
<!-- Node2&#45;&gt;Node11 -->
<g id="edge12_Node000002_Node000011" class="edge">
<title>Node2&#45;&gt;Node11</title>
<g id="a_edge12_Node000002_Node000011"><a xlink:title=" ">
<path fill="none" stroke="#63b8ff" d="M284.3,-112.18C318.21,-103.14 362.27,-91.01 409.25,-76.49"/>
<polygon fill="#63b8ff" stroke="#63b8ff" points="410.01,-79.92 418.51,-73.61 407.92,-73.24 410.01,-79.92"/>
</a>
</g>
</g>
<!-- Node3&#45;&gt;Node4 -->
<g id="edge3_Node000003_Node000004" class="edge">
<title>Node3&#45;&gt;Node4</title>
<g id="a_edge3_Node000003_Node000004"><a xlink:title=" ">
<path fill="none" stroke="#63b8ff" d="M53.45,-55.59C67.5,-47.44 88.08,-35.48 104.41,-26"/>
<polygon fill="#63b8ff" stroke="#63b8ff" points="105.72,-29.29 112.62,-21.24 102.21,-23.23 105.72,-29.29"/>
</a>
</g>
</g>
<!-- Node3&#45;&gt;Node5 -->
<g id="edge4_Node000003_Node000005" class="edge">
<title>Node3&#45;&gt;Node5</title>
<g id="a_edge4_Node000003_Node000005"><a xlink:title=" ">
<path fill="none" stroke="#63b8ff" d="M40.56,-55.59C42.93,-48.86 46.21,-39.53 49.16,-31.15"/>
<polygon fill="#63b8ff" stroke="#63b8ff" points="52.46,-32.32 52.48,-21.73 45.86,-30 52.46,-32.32"/>
</a>
</g>
</g>
<!-- Node7 -->
<g id="Node000007" class="node">
<title>Node7</title>
<g id="a_Node000007"><a xlink:title=" ">
<polygon fill="#e0e0e0" stroke="#999999" points="233.38,-20 185.12,-20 185.12,0 233.38,0 233.38,-20"/>
<text xml:space="preserve" text-anchor="middle" x="209.25" y="-6.5" font-family="Helvetica,sans-Serif" font-size="10.00">stdint.h</text>
</a>
</g>
</g>
<!-- Node6&#45;&gt;Node7 -->
<g id="edge6_Node000006_Node000007" class="edge">
<title>Node6&#45;&gt;Node7</title>
<g id="a_edge6_Node000006_Node000007"><a xlink:title=" ">
<path fill="none" stroke="#63b8ff" d="M220.81,-55.59C219.08,-48.93 216.7,-39.75 214.55,-31.44"/>
<polygon fill="#63b8ff" stroke="#63b8ff" points="217.94,-30.56 212.04,-21.76 211.16,-32.32 217.94,-30.56"/>
</a>
</g>
</g>
<!-- Node8 -->
<g id="Node000008" class="node">
<title>Node8</title>
<g id="a_Node000008"><a xlink:title=" ">
<polygon fill="#e0e0e0" stroke="#999999" points="302.88,-20 251.62,-20 251.62,0 302.88,0 302.88,-20"/>
<text xml:space="preserve" text-anchor="middle" x="277.25" y="-6.5" font-family="Helvetica,sans-Serif" font-size="10.00">stddef.h</text>
</a>
</g>
</g>
<!-- Node6&#45;&gt;Node8 -->
<g id="edge7_Node000006_Node000008" class="edge">
<title>Node6&#45;&gt;Node8</title>
<g id="a_edge7_Node000006_Node000008"><a xlink:title=" ">
<path fill="none" stroke="#63b8ff" d="M232.66,-55.59C240.17,-48.08 250.9,-37.35 259.95,-28.3"/>
<polygon fill="#63b8ff" stroke="#63b8ff" points="262.29,-30.91 266.88,-21.37 257.34,-25.96 262.29,-30.91"/>
</a>
</g>
</g>
</g>
</svg>
