<?xml version="1.0" encoding="UTF-8" standalone="no"?>
<!DOCTYPE svg PUBLIC "-//W3C//DTD SVG 1.1//EN"
 "http://www.w3.org/Graphics/SVG/1.1/DTD/svg11.dtd">
<!-- Generated by graphviz version 14.1.2 (20260124.0452)
 -->
<!-- Title: sv_controller.h Pages: 1 -->
<svg width="1167pt" height="196pt"
 viewBox="0.00 0.00 1167.00 196.00" xmlns="http://www.w3.org/2000/svg" xmlns:xlink="http://www.w3.org/1999/xlink">
<g id="graph0" class="graph" transform="scale(1 1) rotate(0) translate(4 192)">
<title>sv_controller.h</title>
<!-- Node1 -->
<g id="Node000001" class="node">
<title>Node1</title>
<g id="a_Node000001"><a xlink:title="Main Controller + SharedBuffer for Multi&#45;Publisher SV System.">
<polygon fill="#999999" stroke="#666666" points="775.5,-188 695.75,-188 695.75,-168 775.5,-168 775.5,-188"/>
<text xml:space="preserve" text-anchor="middle" x="735.62" y="-174.5" font-family="Helvetica,sans-Serif" font-size="10.00">sv_controller.h</text>
</a>
</g>
</g>
<!-- Node2 -->
<g id="Node000002" class="node">
<title>Node2</title>
<g id="a_Node000002"><a xlink:href="sv__publisher__instance_8h.html" target="_top" xlink:title="Single SV Publisher Instance (one Merging Unit).">
<polygon fill="white" stroke="#666666" points="284.12,-132 163.12,-132 163.12,-112 284.12,-112 284.12,-132"/>
<text xml:space="preserve" text-anchor="middle" x="223.62" y="-118.5" font-family="Helvetica,sans-Serif" font-size="10.00">sv_publisher_instance.h</text>
</a>
</g>
</g>
<!-- Node1&#45;&gt;Node2 -->
<g id="edge1_Node000001_Node000002" class="edge">
<title>Node1&#45;&gt;Node2</title>
<g id="a_edge1_Node000001_Node000002"><a xlink:title=" ">
<path fill="none" stroke="#63b8ff" d="M695.45,-172.76C609.16,-163.66 405.09,-142.14 295.75,-130.61"/>
<polygon fill="#63b8ff" stroke="#63b8ff" points="296.33,-127.15 286.02,-129.58 295.59,-134.11 296.33,-127.15"/>
</a>
</g>
</g>
<!-- Node9 -->
<g id="Node000009" class="node">
<title>Node9</title>
<g id="a_Node000009"><a xlink:title=" ">
<polygon fill="#e0e0e0" stroke="#999999" points="453.75,-76 411.5,-76 411.5,-56 453.75,-56 453.75,-76"/>
<text xml:space="preserve" text-anchor="middle" x="432.62" y="-62.5" font-family="Helvetica,sans-Serif" font-size="10.00">cstdio</text>
</a>
</g>
</g>
<!-- Node1&#45;&gt;Node9 -->
<g id="edge25_Node000001_Node000009" class="edge">
<title>Node1&#45;&gt;Node9</title>
<g id="a_edge25_Node000001_Node000009"><a xlink:title=" ">
<path fill="none" stroke="#63b8ff" d="M695.51,-177.74C616.37,-178.26 444.55,-174.34 407.62,-132 396,-118.67 405.82,-99.36 416.37,-85.25"/>
<polygon fill="#63b8ff" stroke="#63b8ff" points="418.98,-87.59 422.58,-77.62 413.56,-83.16 418.98,-87.59"/>
</a>
</g>
</g>
<!-- Node12 -->
<g id="Node000012" class="node">
<title>Node12</title>
<g id="a_Node000012"><a xlink:href="npcap__transmitter_8h.html" target="_top" xlink:title="Npcap Network Transmitter Module.">
<polygon fill="white" stroke="#666666" points="598.75,-132 496.5,-132 496.5,-112 598.75,-112 598.75,-132"/>
<text xml:space="preserve" text-anchor="middle" x="547.62" y="-118.5" font-family="Helvetica,sans-Serif" font-size="10.00">npcap_transmitter.h</text>
</a>
</g>
</g>
<!-- Node1&#45;&gt;Node12 -->
<g id="edge13_Node000001_Node000012" class="edge">
<title>Node1&#45;&gt;Node12</title>
<g id="a_edge13_Node000001_Node000012"><a xlink:title=" ">
<path fill="none" stroke="#63b8ff" d="M702.88,-167.59C672.07,-158.74 625.7,-145.43 591.66,-135.65"/>
<polygon fill="#63b8ff" stroke="#63b8ff" points="592.66,-132.29 582.08,-132.9 590.73,-139.02 592.66,-132.29"/>
</a>
</g>
</g>
<!-- Node14 -->
<g id="Node000014" class="node">
<title>Node14</title>
<g id="a_Node000014"><a xlink:href="sv__stats_8h.html" target="_top" xlink:title="Transmission Statistics Module.">
<polygon fill="white" stroke="#666666" points="478.5,-132 416.75,-132 416.75,-112 478.5,-112 478.5,-132"/>
<text xml:space="preserve" text-anchor="middle" x="447.62" y="-118.5" font-family="Helvetica,sans-Serif" font-size="10.00">sv_stats.h</text>
</a>
</g>
</g>
<!-- Node1&#45;&gt;Node14 -->
<g id="edge17_Node000001_Node000014" class="edge">
<title>Node1&#45;&gt;Node14</title>
<g id="a_edge17_Node000001_Node000014"><a xlink:title=" ">
<path fill="none" stroke="#63b8ff" d="M695.58,-170.26C648.68,-162.26 568.37,-148.19 489.69,-132.35"/>
<polygon fill="#63b8ff" stroke="#63b8ff" points="490.59,-128.96 480.09,-130.41 489.2,-135.82 490.59,-128.96"/>
</a>
</g>
</g>
<!-- Node15 -->
<g id="Node000015" class="node">
<title>Node15</title>
<g id="a_Node000015"><a xlink:title=" ">
<polygon fill="#e0e0e0" stroke="#999999" points="660.12,-132 617.12,-132 617.12,-112 660.12,-112 660.12,-132"/>
<text xml:space="preserve" text-anchor="middle" x="638.62" y="-118.5" font-family="Helvetica,sans-Serif" font-size="10.00">vector</text>
</a>
</g>
</g>
<!-- Node1&#45;&gt;Node15 -->
<g id="edge19_Node000001_Node000015" class="edge">
<title>Node1&#45;&gt;Node15</title>
<g id="a_edge19_Node000001_Node000015"><a xlink:title=" ">
<path fill="none" stroke="#63b8ff" d="M718.73,-167.59C704.08,-159.44 682.6,-147.48 665.58,-138"/>
<polygon fill="#63b8ff" stroke="#63b8ff" points="667.42,-135.02 656.98,-133.22 664.01,-141.14 667.42,-135.02"/>
</a>
</g>
</g>
<!-- Node16 -->
<g id="Node000016" class="node">
<title>Node16</title>
<g id="a_Node000016"><a xlink:title=" ">
<polygon fill="#e0e0e0" stroke="#999999" points="729.25,-132 678,-132 678,-112 729.25,-112 729.25,-132"/>
<text xml:space="preserve" text-anchor="middle" x="703.62" y="-118.5" font-family="Helvetica,sans-Serif" font-size="10.00">memory</text>
</a>
</g>
</g>
<!-- Node1&#45;&gt;Node16 -->
<g id="edge20_Node000001_Node000016" class="edge">
<title>Node1&#45;&gt;Node16</title>
<g id="a_edge20_Node000001_Node000016"><a xlink:title=" ">
<path fill="none" stroke="#63b8ff" d="M730.05,-167.59C725.88,-160.55 720.02,-150.67 714.88,-142"/>
<polygon fill="#63b8ff" stroke="#63b8ff" points="718.02,-140.42 709.91,-133.6 711.99,-143.99 718.02,-140.42"/>
</a>
</g>
</g>
<!-- Node17 -->
<g id="Node000017" class="node">
<title>Node17</title>
<g id="a_Node000017"><a xlink:title=" ">
<polygon fill="#e0e0e0" stroke="#999999" points="790.12,-132 747.12,-132 747.12,-112 790.12,-112 790.12,-132"/>
<text xml:space="preserve" text-anchor="middle" x="768.62" y="-118.5" font-family="Helvetica,sans-Serif" font-size="10.00">thread</text>
</a>
</g>
</g>
<!-- Node1&#45;&gt;Node17 -->
<g id="edge21_Node000001_Node000017" class="edge">
<title>Node1&#45;&gt;Node17</title>
<g id="a_edge21_Node000001_Node000017"><a xlink:title=" ">
<path fill="none" stroke="#63b8ff" d="M741.37,-167.59C745.68,-160.55 751.72,-150.67 757.01,-142"/>
<polygon fill="#63b8ff" stroke="#63b8ff" points="759.93,-143.95 762.15,-133.59 753.95,-140.3 759.93,-143.95"/>
</a>
</g>
</g>
<!-- Node18 -->
<g id="Node000018" class="node">
<title>Node18</title>
<g id="a_Node000018"><a xlink:title=" ">
<polygon fill="#e0e0e0" stroke="#999999" points="853.25,-132 808,-132 808,-112 853.25,-112 853.25,-132"/>
<text xml:space="preserve" text-anchor="middle" x="830.62" y="-118.5" font-family="Helvetica,sans-Serif" font-size="10.00">atomic</text>
</a>
</g>
</g>
<!-- Node1&#45;&gt;Node18 -->
<g id="edge22_Node000001_Node000018" class="edge">
<title>Node1&#45;&gt;Node18</title>
<g id="a_edge22_Node000001_Node000018"><a xlink:title=" ">
<path fill="none" stroke="#63b8ff" d="M752.17,-167.59C766.52,-159.44 787.55,-147.48 804.23,-138"/>
<polygon fill="#63b8ff" stroke="#63b8ff" points="805.67,-141.21 812.63,-133.23 802.21,-135.13 805.67,-141.21"/>
</a>
</g>
</g>
<!-- Node19 -->
<g id="Node000019" class="node">
<title>Node19</title>
<g id="a_Node000019"><a xlink:title=" ">
<polygon fill="#e0e0e0" stroke="#999999" points="914.12,-132 871.12,-132 871.12,-112 914.12,-112 914.12,-132"/>
<text xml:space="preserve" text-anchor="middle" x="892.62" y="-118.5" font-family="Helvetica,sans-Serif" font-size="10.00">mutex</text>
</a>
</g>
</g>
<!-- Node1&#45;&gt;Node19 -->
<g id="edge23_Node000001_Node000019" class="edge">
<title>Node1&#45;&gt;Node19</title>
<g id="a_edge23_Node000001_Node000019"><a xlink:title=" ">
<path fill="none" stroke="#63b8ff" d="M762.97,-167.59C789.96,-158.31 831.24,-144.11 859.95,-134.24"/>
<polygon fill="#63b8ff" stroke="#63b8ff" points="860.9,-137.61 869.22,-131.05 858.62,-130.99 860.9,-137.61"/>
</a>
</g>
</g>
<!-- Node20 -->
<g id="Node000020" class="node">
<title>Node20</title>
<g id="a_Node000020"><a xlink:title=" ">
<polygon fill="#e0e0e0" stroke="#999999" points="987.5,-132 931.75,-132 931.75,-112 987.5,-112 987.5,-132"/>
<text xml:space="preserve" text-anchor="middle" x="959.62" y="-118.5" font-family="Helvetica,sans-Serif" font-size="10.00">algorithm</text>
</a>
</g>
</g>
<!-- Node1&#45;&gt;Node20 -->
<g id="edge24_Node000001_Node000020" class="edge">
<title>Node1&#45;&gt;Node20</title>
<g id="a_edge24_Node000001_Node000020"><a xlink:title=" ">
<path fill="none" stroke="#63b8ff" d="M775.63,-167.55C811.33,-159.09 865.33,-146.22 920.33,-132.79"/>
<polygon fill="#63b8ff" stroke="#63b8ff" points="920.98,-136.24 929.86,-130.46 919.32,-129.44 920.98,-136.24"/>
</a>
</g>
</g>
<!-- Node21 -->
<g id="Node000021" class="node">
<title>Node21</title>
<g id="a_Node000021"><a xlink:title=" ">
<polygon fill="#e0e0e0" stroke="#999999" points="1067.88,-132 1005.38,-132 1005.38,-112 1067.88,-112 1067.88,-132"/>
<text xml:space="preserve" text-anchor="middle" x="1036.62" y="-118.5" font-family="Helvetica,sans-Serif" font-size="10.00">windows.h</text>
</a>
</g>
</g>
<!-- Node1&#45;&gt;Node21 -->
<g id="edge26_Node000001_Node000021" class="edge">
<title>Node1&#45;&gt;Node21</title>
<g id="a_edge26_Node000001_Node000021"><a xlink:title=" ">
<path fill="none" stroke="#63b8ff" d="M775.98,-170.69C825.16,-162.86 911.04,-148.73 994.05,-132.43"/>
<polygon fill="#63b8ff" stroke="#63b8ff" points="994.6,-135.89 1003.73,-130.52 993.24,-129.03 994.6,-135.89"/>
</a>
</g>
</g>
<!-- Node22 -->
<g id="Node000022" class="node">
<title>Node22</title>
<g id="a_Node000022"><a xlink:title=" ">
<polygon fill="#e0e0e0" stroke="#999999" points="1159.12,-132 1086.12,-132 1086.12,-112 1159.12,-112 1159.12,-132"/>
<text xml:space="preserve" text-anchor="middle" x="1122.62" y="-118.5" font-family="Helvetica,sans-Serif" font-size="10.00">mmsystem.h</text>
</a>
</g>
</g>
<!-- Node1&#45;&gt;Node22 -->
<g id="edge27_Node000001_Node000022" class="edge">
<title>Node1&#45;&gt;Node22</title>
<g id="a_edge27_Node000001_Node000022"><a xlink:title=" ">
<path fill="none" stroke="#63b8ff" d="M775.9,-172.5C837.82,-165.42 960.37,-150.68 1074.72,-132.22"/>
<polygon fill="#63b8ff" stroke="#63b8ff" points="1074.95,-135.73 1084.26,-130.67 1073.83,-128.82 1074.95,-135.73"/>
</a>
</g>
</g>
<!-- Node3 -->
<g id="Node000003" class="node">
<title>Node3</title>
<g id="a_Node000003"><a xlink:href="sv__encoder_8h.html" target="_top" xlink:title="IEC 61850&#45;9&#45;2LE SV Packet Encoder.">
<polygon fill="white" stroke="#666666" points="227.88,-76 153.38,-76 153.38,-56 227.88,-56 227.88,-76"/>
<text xml:space="preserve" text-anchor="middle" x="190.62" y="-62.5" font-family="Helvetica,sans-Serif" font-size="10.00">sv_encoder.h</text>
</a>
</g>
</g>
<!-- Node2&#45;&gt;Node3 -->
<g id="edge2_Node000002_Node000003" class="edge">
<title>Node2&#45;&gt;Node3</title>
<g id="a_edge2_Node000002_Node000003"><a xlink:title=" ">
<path fill="none" stroke="#63b8ff" d="M217.88,-111.59C213.57,-104.55 207.53,-94.67 202.24,-86"/>
<polygon fill="#63b8ff" stroke="#63b8ff" points="205.3,-84.3 197.1,-77.59 199.32,-87.95 205.3,-84.3"/>
</a>
</g>
</g>
<!-- Node4 -->
<g id="Node000004" class="node">
<title>Node4</title>
<g id="a_Node000004"><a xlink:title=" ">
<polygon fill="#e0e0e0" stroke="#999999" points="180.25,-20 135,-20 135,0 180.25,0 180.25,-20"/>
<text xml:space="preserve" text-anchor="middle" x="157.62" y="-6.5" font-family="Helvetica,sans-Serif" font-size="10.00">cstdint</text>
</a>
</g>
</g>
<!-- Node2&#45;&gt;Node4 -->
<g id="edge8_Node000002_Node000004" class="edge">
<title>Node2&#45;&gt;Node4</title>
<g id="a_edge8_Node000002_Node000004"><a xlink:title=" ">
<path fill="none" stroke="#63b8ff" d="M191.74,-111.6C174.53,-104.72 154.78,-93.47 144.62,-76 136.58,-62.16 141.11,-44.18 146.93,-30.64"/>
<polygon fill="#63b8ff" stroke="#63b8ff" points="149.98,-32.38 151.21,-21.85 143.68,-29.31 149.98,-32.38"/>
</a>
</g>
</g>
<!-- Node5 -->
<g id="Node000005" class="node">
<title>Node5</title>
<g id="a_Node000005"><a xlink:title=" ">
<polygon fill="#e0e0e0" stroke="#999999" points="246.75,-20 198.5,-20 198.5,0 246.75,0 246.75,-20"/>
<text xml:space="preserve" text-anchor="middle" x="222.62" y="-6.5" font-family="Helvetica,sans-Serif" font-size="10.00">cstddef</text>
</a>
</g>
</g>
<!-- Node2&#45;&gt;Node5 -->
<g id="edge9_Node000002_Node000005" class="edge">
<title>Node2&#45;&gt;Node5</title>
<g id="a_edge9_Node000002_Node000005"><a xlink:title=" ">
<path fill="none" stroke="#63b8ff" d="M227.53,-111.79C232.38,-99.24 239.67,-76.02 236.62,-56 235.37,-47.72 232.88,-38.86 230.34,-31.22"/>
<polygon fill="#63b8ff" stroke="#63b8ff" points="233.66,-30.12 227,-21.88 227.07,-32.48 233.66,-30.12"/>
</a>
</g>
</g>
<!-- Node6 -->
<g id="Node000006" class="node">
<title>Node6</title>
<g id="a_Node000006"><a xlink:href="equation__processor_8h.html" target="_top" xlink:title="Equation Processing for SV Publisher.">
<polygon fill="white" stroke="#666666" points="393.12,-76 284.12,-76 284.12,-56 393.12,-56 393.12,-76"/>
<text xml:space="preserve" text-anchor="middle" x="338.62" y="-62.5" font-family="Helvetica,sans-Serif" font-size="10.00">equation_processor.h</text>
</a>
</g>
</g>
<!-- Node2&#45;&gt;Node6 -->
<g id="edge5_Node000002_Node000006" class="edge">
<title>Node2&#45;&gt;Node6</title>
<g id="a_edge5_Node000002_Node000006"><a xlink:title=" ">
<path fill="none" stroke="#63b8ff" d="M243.66,-111.59C261.44,-103.24 287.69,-90.92 308.09,-81.34"/>
<polygon fill="#63b8ff" stroke="#63b8ff" points="309.5,-84.54 317.07,-77.12 306.53,-78.21 309.5,-84.54"/>
</a>
</g>
</g>
<!-- Node2&#45;&gt;Node9 -->
<g id="edge10_Node000002_Node000009" class="edge">
<title>Node2&#45;&gt;Node9</title>
<g id="a_edge10_Node000002_Node000009"><a xlink:title=" ">
<path fill="none" stroke="#63b8ff" d="M263.57,-111.5C297.59,-103.3 348.02,-90.84 400.22,-76.58"/>
<polygon fill="#63b8ff" stroke="#63b8ff" points="400.86,-80.03 409.57,-74.01 399,-73.29 400.86,-80.03"/>
</a>
</g>
</g>
<!-- Node10 -->
<g id="Node000010" class="node">
<title>Node10</title>
<g id="a_Node000010"><a xlink:title=" ">
<polygon fill="#e0e0e0" stroke="#999999" points="45.25,-76 0,-76 0,-56 45.25,-56 45.25,-76"/>
<text xml:space="preserve" text-anchor="middle" x="22.62" y="-62.5" font-family="Helvetica,sans-Serif" font-size="10.00">cstring</text>
</a>
</g>
</g>
<!-- Node2&#45;&gt;Node10 -->
<g id="edge11_Node000002_Node000010" class="edge">
<title>Node2&#45;&gt;Node10</title>
<g id="a_edge11_Node000002_Node000010"><a xlink:title=" ">
<path fill="none" stroke="#63b8ff" d="M187.65,-111.58C155.68,-103.17 107.41,-90.39 56.57,-76.51"/>
<polygon fill="#63b8ff" stroke="#63b8ff" points="57.72,-73.19 47.15,-73.93 55.87,-79.94 57.72,-73.19"/>
</a>
</g>
</g>
<!-- Node11 -->
<g id="Node000011" class="node">
<title>Node11</title>
<g id="a_Node000011"><a xlink:title=" ">
<polygon fill="#e0e0e0" stroke="#999999" points="97.62,-76 63.62,-76 63.62,-56 97.62,-56 97.62,-76"/>
<text xml:space="preserve" text-anchor="middle" x="80.62" y="-62.5" font-family="Helvetica,sans-Serif" font-size="10.00">new</text>
</a>
</g>
</g>
<!-- Node2&#45;&gt;Node11 -->
<g id="edge12_Node000002_Node000011" class="edge">
<title>Node2&#45;&gt;Node11</title>
<g id="a_edge12_Node000002_Node000011"><a xlink:title=" ">
<path fill="none" stroke="#63b8ff" d="M198.72,-111.59C173.62,-102.12 134.97,-87.52 108.78,-77.63"/>
<polygon fill="#63b8ff" stroke="#63b8ff" points="110.06,-74.37 99.47,-74.12 107.59,-80.92 110.06,-74.37"/>
</a>
</g>
</g>
<!-- Node3&#45;&gt;Node4 -->
<g id="edge3_Node000003_Node000004" class="edge">
<title>Node3&#45;&gt;Node4</title>
<g id="a_edge3_Node000003_Node000004"><a xlink:title=" ">
<path fill="none" stroke="#63b8ff" d="M184.88,-55.59C180.57,-48.55 174.53,-38.67 169.24,-30"/>
<polygon fill="#63b8ff" stroke="#63b8ff" points="172.3,-28.3 164.1,-21.59 166.32,-31.95 172.3,-28.3"/>
</a>
</g>
</g>
<!-- Node3&#45;&gt;Node5 -->
<g id="edge4_Node000003_Node000005" class="edge">
<title>Node3&#45;&gt;Node5</title>
<g id="a_edge4_Node000003_Node000005"><a xlink:title=" ">
<path fill="none" stroke="#63b8ff" d="M196.2,-55.59C200.37,-48.55 206.23,-38.67 211.37,-30"/>
<polygon fill="#63b8ff" stroke="#63b8ff" points="214.26,-31.99 216.34,-21.6 208.23,-28.42 214.26,-31.99"/>
</a>
</g>
</g>
<!-- Node7 -->
<g id="Node000007" class="node">
<title>Node7</title>
<g id="a_Node000007"><a xlink:title=" ">
<polygon fill="#e0e0e0" stroke="#999999" points="503.75,-20 455.5,-20 455.5,0 503.75,0 503.75,-20"/>
<text xml:space="preserve" text-anchor="middle" x="479.62" y="-6.5" font-family="Helvetica,sans-Serif" font-size="10.00">stdint.h</text>
</a>
</g>
</g>
<!-- Node6&#45;&gt;Node7 -->
<g id="edge6_Node000006_Node000007" class="edge">
<title>Node6&#45;&gt;Node7</title>
<g id="a_edge6_Node000006_Node000007"><a xlink:title=" ">
<path fill="none" stroke="#63b8ff" d="M363.19,-55.59C385.73,-46.96 419.37,-34.08 444.71,-24.37"/>
<polygon fill="#63b8ff" stroke="#63b8ff" points="445.85,-27.68 453.93,-20.84 443.34,-21.15 445.85,-27.68"/>
</a>
</g>
</g>
<!-- Node8 -->
<g id="Node000008" class="node">
<title>Node8</title>
<g id="a_Node000008"><a xlink:title=" ">
<polygon fill="#e0e0e0" stroke="#999999" points="388.25,-20 337,-20 337,0 388.25,0 388.25,-20"/>
<text xml:space="preserve" text-anchor="middle" x="362.62" y="-6.5" font-family="Helvetica,sans-Serif" font-size="10.00">stddef.h</text>
</a>
</g>
</g>
<!-- Node6&#45;&gt;Node8 -->
<g id="edge7_Node000006_Node000008" class="edge">
<title>Node6&#45;&gt;Node8</title>
<g id="a_edge7_Node000006_Node000008"><a xlink:title=" ">
<path fill="none" stroke="#63b8ff" d="M342.81,-55.59C345.87,-48.7 350.14,-39.1 353.93,-30.57"/>
<polygon fill="#63b8ff" stroke="#63b8ff" points="357.01,-32.24 357.88,-21.68 350.62,-29.4 357.01,-32.24"/>
</a>
</g>
</g>
<!-- Node13 -->
<g id="Node000013" class="node">
<title>Node13</title>
<g id="a_Node000013"><a xlink:href="sv__native_8h.html" target="_top" xlink:title="Header for Tauri FFI &#45; C interface for Rust.">
<polygon fill="white" stroke="#666666" points="537.75,-76 471.5,-76 471.5,-56 537.75,-56 537.75,-76"/>
<text xml:space="preserve" text-anchor="middle" x="504.62" y="-62.5" font-family="Helvetica,sans-Serif" font-size="10.00">sv_native.h</text>
</a>
</g>
</g>
<!-- Node12&#45;&gt;Node13 -->
<g id="edge14_Node000012_Node000013" class="edge">
<title>Node12&#45;&gt;Node13</title>
<g id="a_edge14_Node000012_Node000013"><a xlink:title=" ">
<path fill="none" stroke="#63b8ff" d="M540.13,-111.59C534.34,-104.32 526.14,-94.02 519.08,-85.15"/>
<polygon fill="#63b8ff" stroke="#63b8ff" points="521.94,-83.12 512.97,-77.48 516.46,-87.49 521.94,-83.12"/>
</a>
</g>
</g>
<!-- Node13&#45;&gt;Node7 -->
<g id="edge15_Node000013_Node000007" class="edge">
<title>Node13&#45;&gt;Node7</title>
<g id="a_edge15_Node000013_Node000007"><a xlink:title=" ">
<path fill="none" stroke="#63b8ff" d="M500.27,-55.59C497.08,-48.7 492.64,-39.1 488.69,-30.57"/>
<polygon fill="#63b8ff" stroke="#63b8ff" points="491.94,-29.28 484.57,-21.67 485.59,-32.22 491.94,-29.28"/>
</a>
</g>
</g>
<!-- Node13&#45;&gt;Node8 -->
<g id="edge16_Node000013_Node000008" class="edge">
<title>Node13&#45;&gt;Node8</title>
<g id="a_edge16_Node000013_Node000008"><a xlink:title=" ">
<path fill="none" stroke="#63b8ff" d="M479.89,-55.59C457.33,-47.01 423.72,-34.23 398.26,-24.55"/>
<polygon fill="#63b8ff" stroke="#63b8ff" points="399.56,-21.3 388.97,-21.02 397.07,-27.84 399.56,-21.3"/>
</a>
</g>
</g>
<!-- Node14&#45;&gt;Node13 -->
<g id="edge18_Node000014_Node000013" class="edge">
<title>Node14&#45;&gt;Node13</title>
<g id="a_edge18_Node000014_Node000013"><a xlink:title=" ">
<path fill="none" stroke="#63b8ff" d="M457.55,-111.59C465.56,-104.01 477.04,-93.13 486.66,-84.02"/>
<polygon fill="#63b8ff" stroke="#63b8ff" points="488.86,-86.76 493.71,-77.34 484.04,-81.68 488.86,-86.76"/>
</a>
</g>
</g>
</g>
</svg>
