<?xml version="1.0" encoding="UTF-8" standalone="no"?>
<!DOCTYPE svg PUBLIC "-//W3C//DTD SVG 1.1//EN"
 "http://www.w3.org/Graphics/SVG/1.1/DTD/svg11.dtd">
<!-- Generated by graphviz version 14.1.2 (20260124.0452)
 -->
<!-- Title: sv_publisher_instance.h Pages: 1 -->
<svg width="444pt" height="140pt"
 viewBox="0.00 0.00 444.00 140.00" xmlns="http://www.w3.org/2000/svg" xmlns:xlink="http://www.w3.org/1999/xlink">

<svg id="main" version="1.1" xmlns="http://www.w3.org/2000/svg" xmlns:xlink="http://www.w3.org/1999/xlink" xml:space="preserve">

<style type="text/css"><![CDATA[
.node, .edge {opacity: 0.7;}
.node.selected, .edge.selected {opacity: 1;}
.edge:hover path { stroke: red; }
.edge:hover polygon { stroke: red; fill: red; }
]]></style>
<script type="application/ecmascript" xlink:href="svg.min.js"/>
<svg id="graph" class="graph">
<g id="graph0" class="graph" transform="scale(1 1) rotate(0) translate(4 136)">
<title>sv_publisher_instance.h</title>
<!-- Node1 -->
<g id="Node000001" class="node">
<title>Node1</title>
<g id="a_Node000001"><a xlink:title="Single SV Publisher Instance (one Merging Unit).">
<polygon fill="#999999" stroke="#666666" points="265.12,-132 144.12,-132 144.12,-112 265.12,-112 265.12,-132"/>
<text xml:space="preserve" text-anchor="middle" x="204.62" y="-118.5" font-family="Helvetica,sans-Serif" font-size="10.00">sv_publisher_instance.h</text>
</a>
</g>
</g>
<!-- Node2 -->
<g id="Node000002" class="node">
<title>Node2</title>
<g id="a_Node000002"><a xlink:href="sv__encoder_8h.html" target="_top" xlink:title="IEC 61850&#45;9&#45;2LE SV Packet Encoder.">
<polygon fill="white" stroke="#666666" points="93.88,-76 19.38,-76 19.38,-56 93.88,-56 93.88,-76"/>
<text xml:space="preserve" text-anchor="middle" x="56.62" y="-62.5" font-family="Helvetica,sans-Serif" font-size="10.00">sv_encoder.h</text>
</a>
</g>
</g>
<!-- Node1&#45;&gt;Node2 -->
<g id="edge1_Node000001_Node000002" class="edge">
<title>Node1&#45;&gt;Node2</title>
<g id="a_edge1_Node000001_Node000002"><a xlink:title=" ">
<path fill="none" stroke="#63b8ff" d="M178.85,-111.59C155.22,-102.97 119.98,-90.12 93.41,-80.42"/>
<polygon fill="#63b8ff" stroke="#63b8ff" points="94.62,-77.14 84.03,-77 92.22,-83.71 94.62,-77.14"/>
</a>
</g>
</g>
<!-- Node3 -->
<g id="Node000003" class="node">
<title>Node3</title>
<g id="a_Node000003"><a xlink:title=" ">
<polygon fill="#e0e0e0" stroke="#999999" points="45.25,-20 0,-20 0,0 45.25,0 45.25,-20"/>
<text xml:space="preserve" text-anchor="middle" x="22.62" y="-6.5" font-family="Helvetica,sans-Serif" font-size="10.00">cstdint</text>
</a>
</g>
</g>
<!-- Node1&#45;&gt;Node3 -->
<g id="edge7_Node000001_Node000003" class="edge">
<title>Node1&#45;&gt;Node3</title>
<g id="a_edge7_Node000001_Node000003"><a xlink:title=" ">
<path fill="none" stroke="#63b8ff" d="M143.67,-115.06C93.16,-108.74 27.08,-96.71 10.62,-76 0.37,-63.1 5.4,-44.22 11.79,-30.12"/>
<polygon fill="#63b8ff" stroke="#63b8ff" points="14.81,-31.9 16.25,-21.4 8.58,-28.71 14.81,-31.9"/>
</a>
</g>
</g>
<!-- Node4 -->
<g id="Node000004" class="node">
<title>Node4</title>
<g id="a_Node000004"><a xlink:title=" ">
<polygon fill="#e0e0e0" stroke="#999999" points="118.75,-20 70.5,-20 70.5,0 118.75,0 118.75,-20"/>
<text xml:space="preserve" text-anchor="middle" x="94.62" y="-6.5" font-family="Helvetica,sans-Serif" font-size="10.00">cstddef</text>
</a>
</g>
</g>
<!-- Node1&#45;&gt;Node4 -->
<g id="edge8_Node000001_Node000004" class="edge">
<title>Node1&#45;&gt;Node4</title>
<g id="a_edge8_Node000001_Node000004"><a xlink:title=" ">
<path fill="none" stroke="#63b8ff" d="M188.52,-111.56C175.09,-103.22 155.92,-90.22 141.62,-76 127.6,-62.05 114.67,-43.58 105.94,-29.89"/>
<polygon fill="#63b8ff" stroke="#63b8ff" points="108.92,-28.06 100.69,-21.4 102.97,-31.75 108.92,-28.06"/>
</a>
</g>
</g>
<!-- Node5 -->
<g id="Node000005" class="node">
<title>Node5</title>
<g id="a_Node000005"><a xlink:href="equation__processor_8h.html" target="_top" xlink:title="Equation Processing for SV Publisher.">
<polygon fill="white" stroke="#666666" points="259.12,-76 150.12,-76 150.12,-56 259.12,-56 259.12,-76"/>
<text xml:space="preserve" text-anchor="middle" x="204.62" y="-62.5" font-family="Helvetica,sans-Serif" font-size="10.00">equation_processor.h</text>
</a>
</g>
</g>
<!-- Node1&#45;&gt;Node5 -->
<g id="edge4_Node000001_Node000005" class="edge">
<title>Node1&#45;&gt;Node5</title>
<g id="a_edge4_Node000001_Node000005"><a xlink:title=" ">
<path fill="none" stroke="#63b8ff" d="M204.62,-111.59C204.62,-105.01 204.62,-95.96 204.62,-87.73"/>
<polygon fill="#63b8ff" stroke="#63b8ff" points="208.13,-87.81 204.63,-77.81 201.13,-87.81 208.13,-87.81"/>
</a>
</g>
</g>
<!-- Node8 -->
<g id="Node000008" class="node">
<title>Node8</title>
<g id="a_Node000008"><a xlink:title=" ">
<polygon fill="#e0e0e0" stroke="#999999" points="319.75,-76 277.5,-76 277.5,-56 319.75,-56 319.75,-76"/>
<text xml:space="preserve" text-anchor="middle" x="298.62" y="-62.5" font-family="Helvetica,sans-Serif" font-size="10.00">cstdio</text>
</a>
</g>
</g>
<!-- Node1&#45;&gt;Node8 -->
<g id="edge9_Node000001_Node000008" class="edge">
<title>Node1&#45;&gt;Node8</title>
<g id="a_edge9_Node000001_Node000008"><a xlink:title=" ">
<path fill="none" stroke="#63b8ff" d="M221,-111.59C235.2,-103.44 256.01,-91.48 272.51,-82"/>
<polygon fill="#63b8ff" stroke="#63b8ff" points="273.88,-85.25 280.81,-77.23 270.4,-79.18 273.88,-85.25"/>
</a>
</g>
</g>
<!-- Node9 -->
<g id="Node000009" class="node">
<title>Node9</title>
<g id="a_Node000009"><a xlink:title=" ">
<polygon fill="#e0e0e0" stroke="#999999" points="383.25,-76 338,-76 338,-56 383.25,-56 383.25,-76"/>
<text xml:space="preserve" text-anchor="middle" x="360.62" y="-62.5" font-family="Helvetica,sans-Serif" font-size="10.00">cstring</text>
</a>
</g>
</g>
<!-- Node1&#45;&gt;Node9 -->
<g id="edge10_Node000001_Node000009" class="edge">
<title>Node1&#45;&gt;Node9</title>
<g id="a_edge10_Node000001_Node000009"><a xlink:title=" ">
<path fill="none" stroke="#63b8ff" d="M231.8,-111.59C258.31,-102.42 298.69,-88.44 327.17,-78.58"/>
<polygon fill="#63b8ff" stroke="#63b8ff" points="328.08,-81.97 336.39,-75.39 325.79,-75.35 328.08,-81.97"/>
</a>
</g>
</g>
<!-- Node10 -->
<g id="Node000010" class="node">
<title>Node10</title>
<g id="a_Node000010"><a xlink:title=" ">
<polygon fill="#e0e0e0" stroke="#999999" points="435.62,-76 401.62,-76 401.62,-56 435.62,-56 435.62,-76"/>
<text xml:space="preserve" text-anchor="middle" x="418.62" y="-62.5" font-family="Helvetica,sans-Serif" font-size="10.00">new</text>
</a>
</g>
</g>
<!-- Node1&#45;&gt;Node10 -->
<g id="edge11_Node000001_Node000010" class="edge">
<title>Node1&#45;&gt;Node10</title>
<g id="a_edge11_Node000001_Node000010"><a xlink:title=" ">
<path fill="none" stroke="#63b8ff" d="M249.77,-111.5C285.59,-103.67 337.13,-91.77 390.34,-76.46"/>
<polygon fill="#63b8ff" stroke="#63b8ff" points="391.29,-79.83 399.91,-73.67 389.33,-73.11 391.29,-79.83"/>
</a>
</g>
</g>
<!-- Node2&#45;&gt;Node3 -->
<g id="edge2_Node000002_Node000003" class="edge">
<title>Node2&#45;&gt;Node3</title>
<g id="a_edge2_Node000002_Node000003"><a xlink:title=" ">
<path fill="none" stroke="#63b8ff" d="M50.7,-55.59C46.27,-48.55 40.05,-38.67 34.59,-30"/>
<polygon fill="#63b8ff" stroke="#63b8ff" points="37.58,-28.18 29.29,-21.58 31.65,-31.91 37.58,-28.18"/>
</a>
</g>
</g>
<!-- Node2&#45;&gt;Node4 -->
<g id="edge3_Node000002_Node000004" class="edge">
<title>Node2&#45;&gt;Node4</title>
<g id="a_edge3_Node000002_Node000004"><a xlink:title=" ">
<path fill="none" stroke="#63b8ff" d="M63.24,-55.59C68.31,-48.39 75.46,-38.23 81.65,-29.43"/>
<polygon fill="#63b8ff" stroke="#63b8ff" points="84.32,-31.73 87.21,-21.54 78.59,-27.7 84.32,-31.73"/>
</a>
</g>
</g>
<!-- Node6 -->
<g id="Node000006" class="node">
<title>Node6</title>
<g id="a_Node000006"><a xlink:title=" ">
<polygon fill="#e0e0e0" stroke="#999999" points="187.75,-20 139.5,-20 139.5,0 187.75,0 187.75,-20"/>
<text xml:space="preserve" text-anchor="middle" x="163.62" y="-6.5" font-family="Helvetica,sans-Serif" font-size="10.00">stdint.h</text>
</a>
</g>
</g>
<!-- Node5&#45;&gt;Node6 -->
<g id="edge5_Node000005_Node000006" class="edge">
<title>Node5&#45;&gt;Node6</title>
<g id="a_edge5_Node000005_Node000006"><a xlink:title=" ">
<path fill="none" stroke="#63b8ff" d="M197.48,-55.59C192.02,-48.39 184.3,-38.23 177.62,-29.43"/>
<polygon fill="#63b8ff" stroke="#63b8ff" points="180.43,-27.35 171.6,-21.5 174.86,-31.58 180.43,-27.35"/>
</a>
</g>
</g>
<!-- Node7 -->
<g id="Node000007" class="node">
<title>Node7</title>
<g id="a_Node000007"><a xlink:title=" ">
<polygon fill="#e0e0e0" stroke="#999999" points="257.25,-20 206,-20 206,0 257.25,0 257.25,-20"/>
<text xml:space="preserve" text-anchor="middle" x="231.62" y="-6.5" font-family="Helvetica,sans-Serif" font-size="10.00">stddef.h</text>
</a>
</g>
</g>
<!-- Node5&#45;&gt;Node7 -->
<g id="edge6_Node000005_Node000007" class="edge">
<title>Node5&#45;&gt;Node7</title>
<g id="a_edge6_Node000005_Node000007"><a xlink:title=" ">
<path fill="none" stroke="#63b8ff" d="M209.33,-55.59C212.77,-48.7 217.57,-39.1 221.84,-30.57"/>
<polygon fill="#63b8ff" stroke="#63b8ff" points="224.96,-32.16 226.3,-21.65 218.7,-29.03 224.96,-32.16"/>
</a>
</g>
</g>
</g>
</svg>
</svg>

<style type='text/css'>
<![CDATA[
[data-mouse-over-selected='false'] { opacity: 0.7; }
[data-mouse-over-selected='true']  { opacity: 1.0; }
]]>
</style>
<script type="application/ecmascript"><![CDATA[
document.addEventListener('DOMContentLoaded', (event) => {
  highlightEdges();
  highlightAdjacentNodes();
});
]]></script>
</svg>
