<?xml version="1.0" encoding="UTF-8" standalone="no"?>
<!DOCTYPE svg PUBLIC "-//W3C//DTD SVG 1.1//EN"
 "http://www.w3.org/Graphics/SVG/1.1/DTD/svg11.dtd">
<!-- Generated by graphviz version 14.1.2 (20260124.0452)
 -->
<!-- Title: npcap_stats_get_time_ms Pages: 1 -->
<!--zoomable 538 -->

<svg id="main" version="1.1" xmlns="http://www.w3.org/2000/svg" xmlns:xlink="http://www.w3.org/1999/xlink" xml:space="preserve" onload="init(evt)">

<style type="text/css"><![CDATA[
.node, .edge {opacity: 0.7;}
.node.selected, .edge.selected {opacity: 1;}
.edge:hover path { stroke: red; }
.edge:hover polygon { stroke: red; fill: red; }
]]></style>

<defs>
  <circle id="rim" cx="0" cy="0" r="7"/>
  <circle id="rim2" cx="0" cy="0" r="3.5"/>
  <g id="zoomPlus">
    <use xlink:href="#rim" fill="#404040"><set attributeName="fill" to="#808080" begin="zoomplus.mouseover" end="zoomplus.mouseout"/></use>
    <path d="M-4,0h8M0,-4v8" fill="none" stroke="white" stroke-width="1.5" pointer-events="none"/>
  </g>
  <g id="zoomMin">
    <use xlink:href="#rim" fill="#404040"><set attributeName="fill" to="#808080" begin="zoomminus.mouseover" end="zoomminus.mouseout"/></use>
    <path d="M-4,0h8" fill="none" stroke="white" stroke-width="1.5" pointer-events="none"/>
  </g>
  <g id="arrowUp" transform="translate(30 24)">
    <use xlink:href="#rim"/>
    <path pointer-events="none" fill="none" stroke="white" stroke-width="1.5" d="M0,-3.0v7 M-2.5,-0.5L0,-3.0L2.5,-0.5"/>
  </g>
  <g id="arrowRight" transform="rotate(90) translate(36 -43)">
    <use xlink:href="#rim"/>
    <path pointer-events="none" fill="none" stroke="white" stroke-width="1.5" d="M0,-3.0v7 M-2.5,-0.5L0,-3.0L2.5,-0.5"/>
  </g>
  <g id="arrowDown" transform="rotate(180) translate(-30 -48)">
    <use xlink:href="#rim"/>
    <path pointer-events="none" fill="none" stroke="white" stroke-width="1.5" d="M0,-3.0v7 M-2.5,-0.5L0,-3.0L2.5,-0.5"/>
  </g>
  <g id="arrowLeft" transform="rotate(270) translate(-36 17)">
    <use xlink:href="#rim"/>
    <path pointer-events="none" fill="none" stroke="white" stroke-width="1.5" d="M0,-3.0v7 M-2.5,-0.5L0,-3.0L2.5,-0.5"/>
  </g>
  <g id="resetDef">
    <use xlink:href="#rim2" fill="#404040"><set attributeName="fill" to="#808080" begin="reset.mouseover" end="reset.mouseout"/></use>
  </g>
</defs>
<script type="application/ecmascript">
var viewWidth = 1082;
var viewHeight = 538;
var sectionId = 'dynsection-3';
</script>
<script type="application/ecmascript" xlink:href="svg.min.js"/>
<svg id="graph" class="graph">
<g id="viewport">
<title>npcap_stats_get_time_ms</title>
<!-- Node1 -->
<g id="Node000001" class="node">
<title>Node1</title>
<g id="a_Node000001"><a xlink:title="Get current time in milliseconds.">
<polygon fill="#999999" stroke="#666666" points="1073.5,-322 942.75,-322 942.75,-302 1073.5,-302 1073.5,-322"/>
<text xml:space="preserve" text-anchor="middle" x="1008.12" y="-308.5" font-family="Helvetica,sans-Serif" font-size="10.00">npcap_stats_get_time_ms</text>
</a>
</g>
</g>
<!-- Node2 -->
<g id="Node000002" class="node">
<title>Node2</title>
<g id="a_Node000002"><a xlink:href="class_sv_controller.html#a02cc9113aeda2832ff4aa7ac87a96953" target="_top" xlink:title=" ">
<polygon fill="white" stroke="#666666" points="724.25,-460 585.25,-460 585.25,-428 724.25,-428 724.25,-460"/>
<text xml:space="preserve" text-anchor="start" x="593.25" y="-446.5" font-family="Helvetica,sans-Serif" font-size="10.00">SvController::checkDuration</text>
<text xml:space="preserve" text-anchor="middle" x="654.75" y="-434.5" font-family="Helvetica,sans-Serif" font-size="10.00">Elapsed</text>
</a>
</g>
</g>
<!-- Node1&#45;&gt;Node2 -->
<g id="edge1_Node000001_Node000002" class="edge">
<title>Node1&#45;&gt;Node2</title>
<g id="a_edge1_Node000001_Node000002"><a xlink:title=" ">
<path fill="none" stroke="#63b8ff" d="M994.3,-331.5C977.38,-355.43 945.2,-395.13 906.75,-414 849.82,-441.94 777.19,-447.89 724.72,-447.78"/>
<polygon fill="#63b8ff" stroke="#63b8ff" points="996.97,-333.8 999.73,-323.57 991.19,-329.84 996.97,-333.8"/>
</a>
</g>
</g>
<!-- Node3 -->
<g id="Node000003" class="node">
<title>Node3</title>
<g id="a_Node000003"><a xlink:href="class_sv_controller.html#ab8c8181a6f1a3db44e42d2d1dcd3e2ff" target="_top" xlink:title=" ">
<polygon fill="white" stroke="#666666" points="545.5,-372 424.5,-372 424.5,-340 545.5,-340 545.5,-372"/>
<text xml:space="preserve" text-anchor="start" x="432.5" y="-358.5" font-family="Helvetica,sans-Serif" font-size="10.00">SvController::writerLoop</text>
<text xml:space="preserve" text-anchor="middle" x="485" y="-346.5" font-family="Helvetica,sans-Serif" font-size="10.00">Batch</text>
</a>
</g>
</g>
<!-- Node1&#45;&gt;Node3 -->
<g id="edge47_Node000001_Node000003" class="edge">
<title>Node1&#45;&gt;Node3</title>
<g id="a_edge47_Node000001_Node000003"><a xlink:title=" ">
<path fill="none" stroke="#63b8ff" d="M972.19,-326.64C953.12,-334.18 928.94,-343.02 906.75,-349 768.11,-386.38 727.75,-398.67 585.25,-381 570.79,-379.21 555.41,-376 541.18,-372.46"/>
<polygon fill="#63b8ff" stroke="#63b8ff" points="973.4,-329.92 981.37,-322.94 970.79,-323.43 973.4,-329.92"/>
</a>
</g>
</g>
<!-- Node5 -->
<g id="Node000005" class="node">
<title>Node5</title>
<g id="a_Node000005"><a xlink:href="class_sv_controller.html#afc0ec922fad685082c626ca36cb764a8" target="_top" xlink:title=" ">
<polygon fill="white" stroke="#666666" points="227.75,-485 121,-485 121,-465 227.75,-465 227.75,-485"/>
<text xml:space="preserve" text-anchor="middle" x="174.38" y="-471.5" font-family="Helvetica,sans-Serif" font-size="10.00">SvController::startAll</text>
</a>
</g>
</g>
<!-- Node1&#45;&gt;Node5 -->
<g id="edge46_Node000001_Node000005" class="edge">
<title>Node1&#45;&gt;Node5</title>
<g id="a_edge46_Node000001_Node000005"><a xlink:title=" ">
<path fill="none" stroke="#63b8ff" d="M1001.2,-333.07C989.65,-369.97 960.43,-445.89 906.75,-483 813.65,-547.36 768.93,-526 655.75,-526 655.75,-526 655.75,-526 484,-526 385.43,-526 271.5,-500.36 213.53,-485.44"/>
<polygon fill="#63b8ff" stroke="#63b8ff" points="1004.52,-334.2 1004.02,-323.62 997.81,-332.2 1004.52,-334.2"/>
</a>
</g>
</g>
<!-- Node7 -->
<g id="Node000007" class="node">
<title>Node7</title>
<g id="a_Node000007"><a xlink:href="class_sv_controller.html#ab18faef1f888c015ba3850d11320b4a5" target="_top" xlink:title=" ">
<polygon fill="white" stroke="#666666" points="545.5,-440 424.5,-440 424.5,-408 545.5,-408 545.5,-440"/>
<text xml:space="preserve" text-anchor="start" x="432.5" y="-426.5" font-family="Helvetica,sans-Serif" font-size="10.00">SvController::writerLoop</text>
<text xml:space="preserve" text-anchor="middle" x="485" y="-414.5" font-family="Helvetica,sans-Serif" font-size="10.00">Immediate</text>
</a>
</g>
</g>
<!-- Node1&#45;&gt;Node7 -->
<g id="edge48_Node000001_Node000007" class="edge">
<title>Node1&#45;&gt;Node7</title>
<g id="a_edge48_Node000001_Node000007"><a xlink:title=" ">
<path fill="none" stroke="#63b8ff" d="M997.89,-332.64C983.26,-362.69 951.73,-417.74 906.75,-444 782.98,-516.26 725.34,-499.27 585.25,-469 559.73,-463.48 532.88,-450.84 513.56,-440.35"/>
<polygon fill="#63b8ff" stroke="#63b8ff" points="1000.94,-334.37 1002.02,-323.83 994.6,-331.4 1000.94,-334.37"/>
</a>
</g>
</g>
<!-- Node8 -->
<g id="Node000008" class="node">
<title>Node8</title>
<g id="a_Node000008"><a xlink:href="sv__native__refactored_8cc.html#a73998198f95089da56c389e492a471e5" target="_top" xlink:title=" ">
<polygon fill="white" stroke="#666666" points="869.62,-215 797.38,-215 797.38,-195 869.62,-195 869.62,-215"/>
<text xml:space="preserve" text-anchor="middle" x="833.5" y="-201.5" font-family="Helvetica,sans-Serif" font-size="10.00">get_time_ms</text>
</a>
</g>
</g>
<!-- Node1&#45;&gt;Node8 -->
<g id="edge10_Node000001_Node000008" class="edge">
<title>Node1&#45;&gt;Node8</title>
<g id="a_edge10_Node000001_Node000008"><a xlink:title=" ">
<path fill="none" stroke="#63b8ff" d="M980.92,-295.76C945.04,-273.52 881.65,-234.23 851.43,-215.5"/>
<polygon fill="#63b8ff" stroke="#63b8ff" points="978.63,-298.45 988.97,-300.75 982.32,-292.5 978.63,-298.45"/>
</a>
</g>
</g>
<!-- Node15 -->
<g id="Node000015" class="node">
<title>Node15</title>
<g id="a_Node000015"><a xlink:href="class_sv_controller.html#af0e1968bd02dc648bed03d77021d90fc" target="_top" xlink:title=" ">
<polygon fill="white" stroke="#666666" points="901.5,-177 765.5,-177 765.5,-145 901.5,-145 901.5,-177"/>
<text xml:space="preserve" text-anchor="start" x="773.5" y="-163.5" font-family="Helvetica,sans-Serif" font-size="10.00">SvController::getRemaining</text>
<text xml:space="preserve" text-anchor="middle" x="833.5" y="-151.5" font-family="Helvetica,sans-Serif" font-size="10.00">Seconds</text>
</a>
</g>
</g>
<!-- Node1&#45;&gt;Node15 -->
<g id="edge24_Node000001_Node000015" class="edge">
<title>Node1&#45;&gt;Node15</title>
<g id="a_edge24_Node000001_Node000015"><a xlink:title=" ">
<path fill="none" stroke="#63b8ff" d="M996.02,-291.78C979.84,-264.12 947.27,-214.66 906.75,-186 902.2,-182.78 897.2,-179.94 892.01,-177.45"/>
<polygon fill="#63b8ff" stroke="#63b8ff" points="992.84,-293.27 1000.82,-300.23 998.92,-289.81 992.84,-293.27"/>
</a>
</g>
</g>
<!-- Node17 -->
<g id="Node000017" class="node">
<title>Node17</title>
<g id="a_Node000017"><a xlink:href="sv__stats__impl_8cc.html#aac2dd307185d5de57076023675e180b2" target="_top" xlink:title="Get session duration in milliseconds.">
<polygon fill="white" stroke="#666666" points="906.75,-127 760.25,-127 760.25,-107 906.75,-107 906.75,-127"/>
<text xml:space="preserve" text-anchor="middle" x="833.5" y="-113.5" font-family="Helvetica,sans-Serif" font-size="10.00">npcap_stats_get_duration_ms</text>
</a>
</g>
</g>
<!-- Node1&#45;&gt;Node17 -->
<g id="edge26_Node000001_Node000017" class="edge">
<title>Node1&#45;&gt;Node17</title>
<g id="a_edge26_Node000001_Node000017"><a xlink:title=" ">
<path fill="none" stroke="#63b8ff" d="M1001.04,-290.8C989.24,-253.59 959.64,-176.61 906.75,-136 902.22,-132.52 897.12,-129.68 891.77,-127.36"/>
<polygon fill="#63b8ff" stroke="#63b8ff" points="997.68,-291.78 1003.93,-300.34 1004.38,-289.75 997.68,-291.78"/>
</a>
</g>
</g>
<!-- Node18 -->
<g id="Node000018" class="node">
<title>Node18</title>
<g id="a_Node000018"><a xlink:href="sv__stats__impl_8cc.html#a210b53baa9526fbb867d2a6b3ad925c4" target="_top" xlink:title="Record a successful packet transmission.">
<polygon fill="white" stroke="#666666" points="705.5,-372 604,-372 604,-340 705.5,-340 705.5,-372"/>
<text xml:space="preserve" text-anchor="start" x="612" y="-358.5" font-family="Helvetica,sans-Serif" font-size="10.00">npcap_stats_record</text>
<text xml:space="preserve" text-anchor="middle" x="654.75" y="-346.5" font-family="Helvetica,sans-Serif" font-size="10.00">_packet</text>
</a>
</g>
</g>
<!-- Node1&#45;&gt;Node18 -->
<g id="edge27_Node000001_Node000018" class="edge">
<title>Node1&#45;&gt;Node18</title>
<g id="a_edge27_Node000001_Node000018"><a xlink:title=" ">
<path fill="none" stroke="#63b8ff" d="M931.17,-322.75C922.93,-323.87 914.67,-324.97 906.75,-326 837.11,-335.02 756.48,-344.48 705.79,-350.31"/>
<polygon fill="#63b8ff" stroke="#63b8ff" points="931.42,-326.25 940.86,-321.43 930.47,-319.32 931.42,-326.25"/>
</a>
</g>
</g>
<!-- Node19 -->
<g id="Node000019" class="node">
<title>Node19</title>
<g id="a_Node000019"><a xlink:href="sv__stats__impl_8cc.html#a4437629953bc0b691829d9c7b77cc061" target="_top" xlink:title="End the current statistics session.">
<polygon fill="white" stroke="#666666" points="719.38,-322 590.12,-322 590.12,-302 719.38,-302 719.38,-322"/>
<text xml:space="preserve" text-anchor="middle" x="654.75" y="-308.5" font-family="Helvetica,sans-Serif" font-size="10.00">npcap_stats_session_end</text>
</a>
</g>
</g>
<!-- Node1&#45;&gt;Node19 -->
<g id="edge33_Node000001_Node000019" class="edge">
<title>Node1&#45;&gt;Node19</title>
<g id="a_edge33_Node000001_Node000019"><a xlink:title=" ">
<path fill="none" stroke="#63b8ff" d="M930.79,-312C867.67,-312 779.06,-312 719.64,-312"/>
<polygon fill="#63b8ff" stroke="#63b8ff" points="930.75,-315.5 940.75,-312 930.75,-308.5 930.75,-315.5"/>
</a>
</g>
</g>
<!-- Node20 -->
<g id="Node000020" class="node">
<title>Node20</title>
<g id="a_Node000020"><a xlink:href="sv__stats__impl_8cc.html#ad0737fafaaf6836a17171d40d5a3f77d" target="_top" xlink:title="Start a new statistics session.">
<polygon fill="white" stroke="#666666" points="708.88,-284 600.62,-284 600.62,-252 708.88,-252 708.88,-284"/>
<text xml:space="preserve" text-anchor="start" x="608.62" y="-270.5" font-family="Helvetica,sans-Serif" font-size="10.00">npcap_stats_session</text>
<text xml:space="preserve" text-anchor="middle" x="654.75" y="-258.5" font-family="Helvetica,sans-Serif" font-size="10.00">_start</text>
</a>
</g>
</g>
<!-- Node1&#45;&gt;Node20 -->
<g id="edge39_Node000001_Node000020" class="edge">
<title>Node1&#45;&gt;Node20</title>
<g id="a_edge39_Node000001_Node000020"><a xlink:title=" ">
<path fill="none" stroke="#63b8ff" d="M930.96,-302.46C864.06,-294.08 768.43,-282.11 709.31,-274.71"/>
<polygon fill="#63b8ff" stroke="#63b8ff" points="930.41,-305.92 940.77,-303.69 931.28,-298.97 930.41,-305.92"/>
</a>
</g>
</g>
<!-- Node21 -->
<g id="Node000021" class="node">
<title>Node21</title>
<g id="a_Node000021"><a xlink:href="sv__stats__impl_8cc.html#aa26db425129d2d13d27066a7ad0a272f" target="_top" xlink:title="Update rate calculations (call periodically).">
<polygon fill="white" stroke="#666666" points="885.38,-89 781.62,-89 781.62,-57 885.38,-57 885.38,-89"/>
<text xml:space="preserve" text-anchor="start" x="789.62" y="-75.5" font-family="Helvetica,sans-Serif" font-size="10.00">npcap_stats_update</text>
<text xml:space="preserve" text-anchor="middle" x="833.5" y="-63.5" font-family="Helvetica,sans-Serif" font-size="10.00">_rates</text>
</a>
</g>
</g>
<!-- Node1&#45;&gt;Node21 -->
<g id="edge45_Node000001_Node000021" class="edge">
<title>Node1&#45;&gt;Node21</title>
<g id="a_edge45_Node000001_Node000021"><a xlink:title=" ">
<path fill="none" stroke="#63b8ff" d="M1002.91,-290.63C993.41,-247.93 966.32,-151.6 906.75,-98 900.63,-92.5 893.24,-88.19 885.55,-84.83"/>
<polygon fill="#63b8ff" stroke="#63b8ff" points="999.48,-291.29 1004.96,-300.35 1006.33,-289.84 999.48,-291.29"/>
</a>
</g>
</g>
<!-- Node2&#45;&gt;Node3 -->
<g id="edge2_Node000002_Node000003" class="edge">
<title>Node2&#45;&gt;Node3</title>
<g id="a_edge2_Node000002_Node000003"><a xlink:title=" ">
<path fill="none" stroke="#63b8ff" d="M603.77,-422.92C597.48,-420.03 591.18,-417.02 585.25,-414 559.82,-401.05 531.83,-384.47 512.08,-372.36"/>
<polygon fill="#63b8ff" stroke="#63b8ff" points="602.33,-426.11 612.88,-427.02 605.2,-419.72 602.33,-426.11"/>
</a>
</g>
</g>
<!-- Node2&#45;&gt;Node7 -->
<g id="edge7_Node000002_Node000007" class="edge">
<title>Node2&#45;&gt;Node7</title>
<g id="a_edge7_Node000002_Node000007"><a xlink:title=" ">
<path fill="none" stroke="#63b8ff" d="M573.64,-434.45C564.25,-433.33 554.79,-432.2 545.75,-431.12"/>
<polygon fill="#63b8ff" stroke="#63b8ff" points="573.19,-437.92 583.53,-435.63 574.02,-430.97 573.19,-437.92"/>
</a>
</g>
</g>
<!-- Node3&#45;&gt;Node3 -->
<g id="edge6_Node000003_Node000003" class="edge">
<title>Node3&#45;&gt;Node3</title>
<g id="a_edge6_Node000003_Node000003"><a xlink:title=" ">
<path fill="none" stroke="#63b8ff" d="M511.79,-383.71C507.32,-387.48 498.39,-390 485,-390 460.51,-390 450.94,-381.58 456.3,-372.44"/>
<polygon fill="#63b8ff" stroke="#63b8ff" points="515.22,-384.38 513.45,-373.93 508.32,-383.21 515.22,-384.38"/>
</a>
</g>
</g>
<!-- Node4 -->
<g id="Node000004" class="node">
<title>Node4</title>
<g id="a_Node000004"><a xlink:href="class_sv_controller.html#a30dfd716e1e85042e41a2299fac5711f" target="_top" xlink:title=" ">
<polygon fill="white" stroke="#666666" points="384.75,-434 263.75,-434 263.75,-414 384.75,-414 384.75,-434"/>
<text xml:space="preserve" text-anchor="middle" x="324.25" y="-420.5" font-family="Helvetica,sans-Serif" font-size="10.00">SvController::writerLoop</text>
</a>
</g>
</g>
<!-- Node3&#45;&gt;Node4 -->
<g id="edge3_Node000003_Node000004" class="edge">
<title>Node3&#45;&gt;Node4</title>
<g id="a_edge3_Node000003_Node000004"><a xlink:title=" ">
<path fill="none" stroke="#63b8ff" d="M435.03,-376.98C406.65,-389.13 372.16,-403.91 349.51,-413.61"/>
<polygon fill="#63b8ff" stroke="#63b8ff" points="436.37,-380.21 444.18,-373.06 433.61,-373.78 436.37,-380.21"/>
</a>
</g>
</g>
<!-- Node4&#45;&gt;Node5 -->
<g id="edge4_Node000004_Node000005" class="edge">
<title>Node4&#45;&gt;Node5</title>
<g id="a_edge4_Node000004_Node000005"><a xlink:title=" ">
<path fill="none" stroke="#63b8ff" d="M282.28,-438.13C257.99,-446.51 227.74,-456.94 205.62,-464.57"/>
<polygon fill="#63b8ff" stroke="#63b8ff" points="283.23,-441.51 291.54,-434.94 280.94,-434.89 283.23,-441.51"/>
</a>
</g>
</g>
<!-- Node6 -->
<g id="Node000006" class="node">
<title>Node6</title>
<g id="a_Node000006"><a xlink:href="sv__controller_8cc.html#a1b6b0344797b9edf84722fde0e1c660a" target="_top" xlink:title=" ">
<polygon fill="white" stroke="#666666" points="85,-485 0,-485 0,-465 85,-465 85,-485"/>
<text xml:space="preserve" text-anchor="middle" x="42.5" y="-471.5" font-family="Helvetica,sans-Serif" font-size="10.00">sv_mp_start_all</text>
</a>
</g>
</g>
<!-- Node5&#45;&gt;Node6 -->
<g id="edge5_Node000005_Node000006" class="edge">
<title>Node5&#45;&gt;Node6</title>
<g id="a_edge5_Node000005_Node000006"><a xlink:title=" ">
<path fill="none" stroke="#63b8ff" d="M109.1,-475C100.95,-475 92.79,-475 85.13,-475"/>
<polygon fill="#63b8ff" stroke="#63b8ff" points="109.04,-478.5 119.04,-475 109.04,-471.5 109.04,-478.5"/>
</a>
</g>
</g>
<!-- Node7&#45;&gt;Node4 -->
<g id="edge8_Node000007_Node000004" class="edge">
<title>Node7&#45;&gt;Node4</title>
<g id="a_edge8_Node000007_Node000004"><a xlink:title=" ">
<path fill="none" stroke="#63b8ff" d="M413.15,-424C403.8,-424 394.29,-424 385.15,-424"/>
<polygon fill="#63b8ff" stroke="#63b8ff" points="412.92,-427.5 422.92,-424 412.92,-420.5 412.92,-427.5"/>
</a>
</g>
</g>
<!-- Node7&#45;&gt;Node7 -->
<g id="edge9_Node000007_Node000007" class="edge">
<title>Node7&#45;&gt;Node7</title>
<g id="a_edge9_Node000007_Node000007"><a xlink:title=" ">
<path fill="none" stroke="#63b8ff" d="M511.79,-451.71C507.32,-455.48 498.39,-458 485,-458 460.51,-458 450.94,-449.58 456.3,-440.44"/>
<polygon fill="#63b8ff" stroke="#63b8ff" points="515.22,-452.38 513.45,-441.93 508.32,-451.21 515.22,-452.38"/>
</a>
</g>
</g>
<!-- Node9 -->
<g id="Node000009" class="node">
<title>Node9</title>
<g id="a_Node000009"><a xlink:href="sv__native__refactored_8cc.html#aa18783d233bbd1ff97330bfb332b2305" target="_top" xlink:title=" ">
<polygon fill="white" stroke="#666666" points="715.25,-196 594.25,-196 594.25,-176 715.25,-176 715.25,-196"/>
<text xml:space="preserve" text-anchor="middle" x="654.75" y="-182.5" font-family="Helvetica,sans-Serif" font-size="10.00">check_duration_elapsed</text>
</a>
</g>
</g>
<!-- Node8&#45;&gt;Node9 -->
<g id="edge11_Node000008_Node000009" class="edge">
<title>Node8&#45;&gt;Node9</title>
<g id="a_edge11_Node000008_Node000009"><a xlink:title=" ">
<path fill="none" stroke="#63b8ff" d="M785.72,-199.97C764.28,-197.67 738.6,-194.91 715.75,-192.45"/>
<polygon fill="#63b8ff" stroke="#63b8ff" points="785.34,-203.45 795.65,-201.04 786.08,-196.49 785.34,-203.45"/>
</a>
</g>
</g>
<!-- Node10 -->
<g id="Node000010" class="node">
<title>Node10</title>
<g id="a_Node000010"><a xlink:href="sv__native__refactored_8cc.html#a186b6b16f2d04a7fd9c7da099fac4fa5" target="_top" xlink:title=" ">
<polygon fill="white" stroke="#666666" points="538.75,-210 431.25,-210 431.25,-190 538.75,-190 538.75,-210"/>
<text xml:space="preserve" text-anchor="middle" x="485" y="-196.5" font-family="Helvetica,sans-Serif" font-size="10.00">publisher_loop_batch</text>
</a>
</g>
</g>
<!-- Node8&#45;&gt;Node10 -->
<g id="edge22_Node000008_Node000010" class="edge">
<title>Node8&#45;&gt;Node10</title>
<g id="a_edge22_Node000008_Node000010"><a xlink:title=" ">
<path fill="none" stroke="#63b8ff" d="M786.21,-194.51C777.47,-192.06 768.49,-189.21 760.25,-186 743.39,-179.43 741.81,-171.35 724.25,-167 664.28,-152.15 646.23,-157.13 585.25,-167 558.72,-171.29 529.69,-181.65 509.92,-189.63"/>
<polygon fill="#63b8ff" stroke="#63b8ff" points="785.05,-197.82 795.61,-197.01 786.85,-191.06 785.05,-197.82"/>
</a>
</g>
</g>
<!-- Node11 -->
<g id="Node000011" class="node">
<title>Node11</title>
<g id="a_Node000011"><a xlink:href="sv__native__refactored_8cc.html#af14f0670e1b30534e33524f8c49a5580" target="_top" xlink:title="Start publishing.">
<polygon fill="white" stroke="#666666" points="379.88,-238 268.62,-238 268.62,-218 379.88,-218 379.88,-238"/>
<text xml:space="preserve" text-anchor="middle" x="324.25" y="-224.5" font-family="Helvetica,sans-Serif" font-size="10.00">npcap_publisher_start</text>
</a>
</g>
</g>
<!-- Node8&#45;&gt;Node11 -->
<g id="edge21_Node000008_Node000011" class="edge">
<title>Node8&#45;&gt;Node11</title>
<g id="a_edge21_Node000008_Node000011"><a xlink:title=" ">
<path fill="none" stroke="#63b8ff" d="M786.03,-196.23C777.18,-193.61 768.21,-190.26 760.25,-186 741.38,-175.89 744.26,-161.61 724.25,-154 597.67,-105.87 549.72,-139.69 420.75,-181 392.07,-190.19 361.19,-206.73 342.55,-217.54"/>
<polygon fill="#63b8ff" stroke="#63b8ff" points="785.05,-199.59 795.62,-198.78 786.85,-192.83 785.05,-199.59"/>
</a>
</g>
</g>
<!-- Node12 -->
<g id="Node000012" class="node">
<title>Node12</title>
<g id="a_Node000012"><a xlink:href="sv__native__refactored_8cc.html#a27703afec602cc5af011d5661a53b510" target="_top" xlink:title=" ">
<polygon fill="white" stroke="#666666" points="549.25,-266 420.75,-266 420.75,-246 549.25,-246 549.25,-266"/>
<text xml:space="preserve" text-anchor="middle" x="485" y="-252.5" font-family="Helvetica,sans-Serif" font-size="10.00">publisher_loop_immediate</text>
</a>
</g>
</g>
<!-- Node8&#45;&gt;Node12 -->
<g id="edge23_Node000008_Node000012" class="edge">
<title>Node8&#45;&gt;Node12</title>
<g id="a_edge23_Node000008_Node000012"><a xlink:title=" ">
<path fill="none" stroke="#63b8ff" d="M785.85,-211.87C724.87,-220.84 617.81,-236.6 549.48,-246.66"/>
<polygon fill="#63b8ff" stroke="#63b8ff" points="786.17,-215.36 795.55,-210.44 785.15,-208.43 786.17,-215.36"/>
</a>
</g>
</g>
<!-- Node14 -->
<g id="Node000014" class="node">
<title>Node14</title>
<g id="a_Node000014"><a xlink:href="sv__native__refactored_8cc.html#ad10747c0808be2841677ed9716c7634e" target="_top" xlink:title="Get remaining time in seconds.">
<polygon fill="white" stroke="#666666" points="708.88,-82 600.62,-82 600.62,-50 708.88,-50 708.88,-82"/>
<text xml:space="preserve" text-anchor="start" x="608.62" y="-68.5" font-family="Helvetica,sans-Serif" font-size="10.00">npcap_get_remaining</text>
<text xml:space="preserve" text-anchor="middle" x="654.75" y="-56.5" font-family="Helvetica,sans-Serif" font-size="10.00">_seconds</text>
</a>
</g>
</g>
<!-- Node8&#45;&gt;Node14 -->
<g id="edge20_Node000008_Node000014" class="edge">
<title>Node8&#45;&gt;Node14</title>
<g id="a_edge20_Node000008_Node000014"><a xlink:title=" ">
<path fill="none" stroke="#63b8ff" d="M786.06,-199.57C776.7,-196.71 767.51,-192.42 760.25,-186 727.97,-157.47 754.22,-126.95 724.25,-96 719.01,-90.59 712.63,-86.09 705.89,-82.37"/>
<polygon fill="#63b8ff" stroke="#63b8ff" points="785.01,-202.91 795.56,-201.94 786.7,-196.12 785.01,-202.91"/>
</a>
</g>
</g>
<!-- Node9&#45;&gt;Node10 -->
<g id="edge12_Node000009_Node000010" class="edge">
<title>Node9&#45;&gt;Node10</title>
<g id="a_edge12_Node000009_Node000010"><a xlink:title=" ">
<path fill="none" stroke="#63b8ff" d="M583,-191.9C568.27,-193.13 552.97,-194.41 539.01,-195.58"/>
<polygon fill="#63b8ff" stroke="#63b8ff" points="582.95,-195.42 592.63,-191.1 582.37,-188.45 582.95,-195.42"/>
</a>
</g>
</g>
<!-- Node9&#45;&gt;Node12 -->
<g id="edge15_Node000009_Node000012" class="edge">
<title>Node9&#45;&gt;Node12</title>
<g id="a_edge15_Node000009_Node000012"><a xlink:title=" ">
<path fill="none" stroke="#63b8ff" d="M606.67,-200.34C599.34,-203.18 591.97,-206.41 585.25,-210 567.61,-219.42 567.1,-227.98 549.25,-237 542.7,-240.31 535.47,-243.15 528.31,-245.55"/>
<polygon fill="#63b8ff" stroke="#63b8ff" points="607.7,-203.69 615.9,-196.97 605.3,-197.11 607.7,-203.69"/>
</a>
</g>
</g>
<!-- Node13 -->
<g id="Node000013" class="node">
<title>Node13</title>
<g id="a_Node000013"><a xlink:href="sv__native__refactored_8cc.html#ae2056b20c01b052837592dc341ce314e" target="_top" xlink:title=" ">
<polygon fill="white" stroke="#666666" points="539.5,-322 430.5,-322 430.5,-302 539.5,-302 539.5,-322"/>
<text xml:space="preserve" text-anchor="middle" x="485" y="-308.5" font-family="Helvetica,sans-Serif" font-size="10.00">publisher_loop_single</text>
</a>
</g>
</g>
<!-- Node9&#45;&gt;Node13 -->
<g id="edge18_Node000009_Node000013" class="edge">
<title>Node9&#45;&gt;Node13</title>
<g id="a_edge18_Node000009_Node000013"><a xlink:title=" ">
<path fill="none" stroke="#63b8ff" d="M630.27,-203.14C616.42,-213.82 598.97,-228.29 585.25,-243 566.58,-263.03 571.55,-277.11 549.25,-293 544.4,-296.46 538.9,-299.3 533.23,-301.63"/>
<polygon fill="#63b8ff" stroke="#63b8ff" points="632.12,-206.13 637.99,-197.31 627.9,-200.54 632.12,-206.13"/>
</a>
</g>
</g>
<!-- Node10&#45;&gt;Node10 -->
<g id="edge14_Node000010_Node000010" class="edge">
<title>Node10&#45;&gt;Node10</title>
<g id="a_edge14_Node000010_Node000010"><a xlink:title=" ">
<path fill="none" stroke="#63b8ff" d="M513.41,-221.44C509.75,-225.3 500.28,-228 485,-228 457.06,-228 448.54,-218.98 459.46,-210.34"/>
<polygon fill="#63b8ff" stroke="#63b8ff" points="516.81,-220.61 510.92,-211.8 510.03,-222.36 516.81,-220.61"/>
</a>
</g>
</g>
<!-- Node10&#45;&gt;Node11 -->
<g id="edge13_Node000010_Node000011" class="edge">
<title>Node10&#45;&gt;Node11</title>
<g id="a_edge13_Node000010_Node000011"><a xlink:title=" ">
<path fill="none" stroke="#63b8ff" d="M419.82,-211.32C406.73,-213.63 393.07,-216.04 380.33,-218.29"/>
<polygon fill="#63b8ff" stroke="#63b8ff" points="420.41,-214.77 429.65,-209.59 419.19,-207.88 420.41,-214.77"/>
</a>
</g>
</g>
<!-- Node12&#45;&gt;Node11 -->
<g id="edge16_Node000012_Node000011" class="edge">
<title>Node12&#45;&gt;Node11</title>
<g id="a_edge16_Node000012_Node000011"><a xlink:title=" ">
<path fill="none" stroke="#63b8ff" d="M413.76,-243.61C402.52,-241.63 391.03,-239.6 380.21,-237.69"/>
<polygon fill="#63b8ff" stroke="#63b8ff" points="412.94,-247.02 423.4,-245.31 414.16,-240.13 412.94,-247.02"/>
</a>
</g>
</g>
<!-- Node12&#45;&gt;Node12 -->
<g id="edge17_Node000012_Node000012" class="edge">
<title>Node12&#45;&gt;Node12</title>
<g id="a_edge17_Node000012_Node000012"><a xlink:title=" ">
<path fill="none" stroke="#63b8ff" d="M513.41,-277.44C509.75,-281.3 500.28,-284 485,-284 457.06,-284 448.54,-274.98 459.46,-266.34"/>
<polygon fill="#63b8ff" stroke="#63b8ff" points="516.81,-276.61 510.92,-267.8 510.03,-278.36 516.81,-276.61"/>
</a>
</g>
</g>
<!-- Node13&#45;&gt;Node11 -->
<g id="edge19_Node000013_Node000011" class="edge">
<title>Node13&#45;&gt;Node11</title>
<g id="a_edge19_Node000013_Node000011"><a xlink:title=" ">
<path fill="none" stroke="#63b8ff" d="M431.75,-297.7C427.98,-296.25 424.27,-294.68 420.75,-293 388.7,-277.73 355.32,-252.5 337.77,-238.39"/>
<polygon fill="#63b8ff" stroke="#63b8ff" points="430.46,-300.96 441.06,-301.01 432.81,-294.36 430.46,-300.96"/>
</a>
</g>
</g>
<!-- Node16 -->
<g id="Node000016" class="node">
<title>Node16</title>
<g id="a_Node000016"><a xlink:href="sv__controller_8cc.html#a18632d17429f282727988ddac33d95cc" target="_top" xlink:title=" ">
<polygon fill="white" stroke="#666666" points="710.38,-32 599.12,-32 599.12,0 710.38,0 710.38,-32"/>
<text xml:space="preserve" text-anchor="start" x="607.12" y="-18.5" font-family="Helvetica,sans-Serif" font-size="10.00">sv_mp_get_remaining</text>
<text xml:space="preserve" text-anchor="middle" x="654.75" y="-6.5" font-family="Helvetica,sans-Serif" font-size="10.00">_seconds</text>
</a>
</g>
</g>
<!-- Node15&#45;&gt;Node16 -->
<g id="edge25_Node000015_Node000016" class="edge">
<title>Node15&#45;&gt;Node16</title>
<g id="a_edge25_Node000015_Node000016"><a xlink:title=" ">
<path fill="none" stroke="#63b8ff" d="M762.17,-137.78C761.52,-137.2 760.87,-136.61 760.25,-136 727.86,-104.54 756.37,-72.73 724.25,-41 720.29,-37.09 715.66,-33.78 710.72,-30.98"/>
<polygon fill="#63b8ff" stroke="#63b8ff" points="760.02,-140.54 770.16,-143.62 764.15,-134.89 760.02,-140.54"/>
</a>
</g>
</g>
<!-- Node18&#45;&gt;Node3 -->
<g id="edge31_Node000018_Node000003" class="edge">
<title>Node18&#45;&gt;Node3</title>
<g id="a_edge31_Node000018_Node000003"><a xlink:title=" ">
<path fill="none" stroke="#63b8ff" d="M592.47,-356C577.23,-356 560.92,-356 545.75,-356"/>
<polygon fill="#63b8ff" stroke="#63b8ff" points="592.36,-359.5 602.36,-356 592.36,-352.5 592.36,-359.5"/>
</a>
</g>
</g>
<!-- Node18&#45;&gt;Node7 -->
<g id="edge32_Node000018_Node000007" class="edge">
<title>Node18&#45;&gt;Node7</title>
<g id="a_edge32_Node000018_Node000007"><a xlink:title=" ">
<path fill="none" stroke="#63b8ff" d="M603.69,-376.76C586.46,-383.87 567.03,-391.83 549.25,-399 542.35,-401.78 535.02,-404.71 527.88,-407.54"/>
<polygon fill="#63b8ff" stroke="#63b8ff" points="604.8,-380.09 612.71,-373.04 602.13,-373.62 604.8,-380.09"/>
</a>
</g>
</g>
<!-- Node18&#45;&gt;Node10 -->
<g id="edge28_Node000018_Node000010" class="edge">
<title>Node18&#45;&gt;Node10</title>
<g id="a_edge28_Node000018_Node000010"><a xlink:title=" ">
<path fill="none" stroke="#63b8ff" d="M593.86,-337.96C590.77,-335.89 587.87,-333.58 585.25,-331 553.37,-299.62 578.19,-271.11 549.25,-237 539.37,-225.36 524.86,-216.5 512.22,-210.38"/>
<polygon fill="#63b8ff" stroke="#63b8ff" points="591.86,-340.85 602.28,-342.76 595.33,-334.77 591.86,-340.85"/>
</a>
</g>
</g>
<!-- Node18&#45;&gt;Node12 -->
<g id="edge29_Node000018_Node000012" class="edge">
<title>Node18&#45;&gt;Node12</title>
<g id="a_edge29_Node000018_Node000012"><a xlink:title=" ">
<path fill="none" stroke="#63b8ff" d="M593.65,-335.97C590.75,-334.42 587.93,-332.76 585.25,-331 565.81,-318.23 567.47,-307.46 549.25,-293 536.2,-282.64 519.94,-273.19 507.18,-266.44"/>
<polygon fill="#63b8ff" stroke="#63b8ff" points="591.89,-339.01 602.42,-340.22 594.94,-332.71 591.89,-339.01"/>
</a>
</g>
</g>
<!-- Node18&#45;&gt;Node13 -->
<g id="edge30_Node000018_Node000013" class="edge">
<title>Node18&#45;&gt;Node13</title>
<g id="a_edge30_Node000018_Node000013"><a xlink:title=" ">
<path fill="none" stroke="#63b8ff" d="M592.8,-340.01C570.49,-334.16 545.84,-327.7 525.85,-322.45"/>
<polygon fill="#63b8ff" stroke="#63b8ff" points="591.85,-343.38 602.41,-342.53 593.62,-336.61 591.85,-343.38"/>
</a>
</g>
</g>
<!-- Node19&#45;&gt;Node3 -->
<g id="edge37_Node000019_Node000003" class="edge">
<title>Node19&#45;&gt;Node3</title>
<g id="a_edge37_Node000019_Node000003"><a xlink:title=" ">
<path fill="none" stroke="#63b8ff" d="M603.11,-325.28C585.07,-330.02 564.57,-335.39 545.83,-340.31"/>
<polygon fill="#63b8ff" stroke="#63b8ff" points="603.75,-328.73 612.53,-322.81 601.97,-321.96 603.75,-328.73"/>
</a>
</g>
</g>
<!-- Node19&#45;&gt;Node7 -->
<g id="edge38_Node000019_Node000007" class="edge">
<title>Node19&#45;&gt;Node7</title>
<g id="a_edge38_Node000019_Node000007"><a xlink:title=" ">
<path fill="none" stroke="#63b8ff" d="M589.91,-327.63C588.3,-328.68 586.74,-329.8 585.25,-331 558.6,-352.43 574.73,-376.19 549.25,-399 545.64,-402.23 541.57,-405.06 537.27,-407.55"/>
<polygon fill="#63b8ff" stroke="#63b8ff" points="591.21,-330.91 598.34,-323.07 587.88,-324.75 591.21,-330.91"/>
</a>
</g>
</g>
<!-- Node19&#45;&gt;Node10 -->
<g id="edge34_Node000019_Node000010" class="edge">
<title>Node19&#45;&gt;Node10</title>
<g id="a_edge34_Node000019_Node000010"><a xlink:title=" ">
<path fill="none" stroke="#63b8ff" d="M590.73,-296.61C588.84,-295.49 587,-294.29 585.25,-293 561.43,-275.45 570.61,-257.48 549.25,-237 537.68,-225.91 522.18,-216.77 509.42,-210.35"/>
<polygon fill="#63b8ff" stroke="#63b8ff" points="588.8,-299.56 599.31,-300.89 591.92,-293.3 588.8,-299.56"/>
</a>
</g>
</g>
<!-- Node19&#45;&gt;Node12 -->
<g id="edge35_Node000019_Node000012" class="edge">
<title>Node19&#45;&gt;Node12</title>
<g id="a_edge35_Node000019_Node000012"><a xlink:title=" ">
<path fill="none" stroke="#63b8ff" d="M603.01,-298.46C597,-296.7 590.97,-294.86 585.25,-293 560.06,-284.83 531.81,-274.14 511.91,-266.36"/>
<polygon fill="#63b8ff" stroke="#63b8ff" points="601.7,-301.72 612.28,-301.11 603.63,-294.99 601.7,-301.72"/>
</a>
</g>
</g>
<!-- Node19&#45;&gt;Node13 -->
<g id="edge36_Node000019_Node000013" class="edge">
<title>Node19&#45;&gt;Node13</title>
<g id="a_edge36_Node000019_Node000013"><a xlink:title=" ">
<path fill="none" stroke="#63b8ff" d="M578.51,-312C565.49,-312 552.19,-312 539.88,-312"/>
<polygon fill="#63b8ff" stroke="#63b8ff" points="578.34,-315.5 588.34,-312 578.34,-308.5 578.34,-315.5"/>
</a>
</g>
</g>
<!-- Node20&#45;&gt;Node3 -->
<g id="edge43_Node000020_Node000003" class="edge">
<title>Node20&#45;&gt;Node3</title>
<g id="a_edge43_Node000020_Node000003"><a xlink:title=" ">
<path fill="none" stroke="#63b8ff" d="M590.9,-289.55C588.97,-290.65 587.08,-291.8 585.25,-293 565.81,-305.77 568.52,-317.97 549.25,-331 544.55,-334.17 539.4,-337.04 534.11,-339.59"/>
<polygon fill="#63b8ff" stroke="#63b8ff" points="592.27,-292.78 599.57,-285.1 589.07,-286.55 592.27,-292.78"/>
</a>
</g>
</g>
<!-- Node20&#45;&gt;Node7 -->
<g id="edge44_Node000020_Node000007" class="edge">
<title>Node20&#45;&gt;Node7</title>
<g id="a_edge44_Node000020_Node000007"><a xlink:title=" ">
<path fill="none" stroke="#63b8ff" d="M590.92,-287.97C588.91,-289.53 587.01,-291.2 585.25,-293 550.47,-328.58 583.56,-362.97 549.25,-399 546.16,-402.25 542.59,-405.09 538.75,-407.56"/>
<polygon fill="#63b8ff" stroke="#63b8ff" points="592.55,-291.09 599.05,-282.72 588.75,-285.21 592.55,-291.09"/>
</a>
</g>
</g>
<!-- Node20&#45;&gt;Node10 -->
<g id="edge40_Node000020_Node000010" class="edge">
<title>Node20&#45;&gt;Node10</title>
<g id="a_edge40_Node000020_Node000010"><a xlink:title=" ">
<path fill="none" stroke="#63b8ff" d="M602.8,-247.34C572.66,-235.13 535.78,-220.18 511.63,-210.39"/>
<polygon fill="#63b8ff" stroke="#63b8ff" points="601.16,-250.46 611.74,-250.97 603.79,-243.97 601.16,-250.46"/>
</a>
</g>
</g>
<!-- Node20&#45;&gt;Node12 -->
<g id="edge41_Node000020_Node000012" class="edge">
<title>Node20&#45;&gt;Node12</title>
<g id="a_edge41_Node000020_Node000012"><a xlink:title=" ">
<path fill="none" stroke="#63b8ff" d="M589.03,-263.37C576.08,-262.44 562.49,-261.47 549.58,-260.55"/>
<polygon fill="#63b8ff" stroke="#63b8ff" points="588.48,-266.84 598.7,-264.06 588.98,-259.86 588.48,-266.84"/>
</a>
</g>
</g>
<!-- Node20&#45;&gt;Node13 -->
<g id="edge42_Node000020_Node000013" class="edge">
<title>Node20&#45;&gt;Node13</title>
<g id="a_edge42_Node000020_Node000013"><a xlink:title=" ">
<path fill="none" stroke="#63b8ff" d="M589.27,-284.91C567.98,-290.5 544.93,-296.54 526.02,-301.5"/>
<polygon fill="#63b8ff" stroke="#63b8ff" points="589.96,-288.35 598.75,-282.43 588.19,-281.58 589.96,-288.35"/>
</a>
</g>
</g>
</g>
</svg>

<g id="navigator" transform="translate(0 0)" fill="#404254">
  <rect fill="#f2f5e9" fill-opacity="0.5" stroke="#606060" stroke-width=".5" x="0" y="0" width="60" height="60"/>
  <use id="zoomplus" xlink:href="#zoomPlus" x="17" y="9" onmousedown="handleZoom(evt,'in')"/>
  <use id="zoomminus" xlink:href="#zoomMin" x="42" y="9" onmousedown="handleZoom(evt,'out')"/>
  <use id="reset" xlink:href="#resetDef" x="30" y="36" onmousedown="handleReset()"/>
   <use id="arrowup" xlink:href="#arrowUp" x="0" y="0" onmousedown="handlePan(0,-1)"/>
  <use id="arrowright" xlink:href="#arrowRight" x="0" y="0" onmousedown="handlePan(1,0)"/>
  <use id="arrowdown" xlink:href="#arrowDown" x="0" y="0" onmousedown="handlePan(0,1)"/>
  <use id="arrowleft" xlink:href="#arrowLeft" x="0" y="0" onmousedown="handlePan(-1,0)"/>
</g>
<svg viewBox="0 0 15 15" width="100%" height="30px" preserveAspectRatio="xMaxYMin meet">
 <g id="arrow_out" transform="scale(0.3 0.3)">
  <a xlink:href="sv__stats_8h_ae7cd346e20d4749f60fa7332dfae0dd7_icgraph_org.svg" target="_base">
   <rect id="button" ry="5" rx="5" y="6" x="6" height="38" width="38"
        fill="#f2f5e9" fill-opacity="0.5" stroke="#606060" stroke-width="1.0"/>
   <path id="arrow"
     d="M 11.500037,31.436501 C 11.940474,20.09759 22.043105,11.32322 32.158766,21.979434 L 37.068811,17.246167 C 37.068811,17.246167 37.088388,32 37.088388,32 L 22.160133,31.978069 C 22.160133,31.978069 26.997745,27.140456 26.997745,27.140456 C 18.528582,18.264221 13.291696,25.230495 11.500037,31.436501 z"
     style="fill:#404040;"/>
  </a>
 </g>
</svg>

<style type='text/css'>
<![CDATA[
[data-mouse-over-selected='false'] { opacity: 0.7; }
[data-mouse-over-selected='true']  { opacity: 1.0; }
]]>
</style>
<script type="application/ecmascript"><![CDATA[
document.addEventListener('DOMContentLoaded', (event) => {
  highlightEdges();
  highlightAdjacentNodes();
});
]]></script>
</svg>
