<?xml version="1.0" encoding="UTF-8" standalone="no"?>
<!DOCTYPE svg PUBLIC "-//W3C//DTD SVG 1.1//EN"
 "http://www.w3.org/Graphics/SVG/1.1/DTD/svg11.dtd">
<!-- Generated by graphviz version 14.1.2 (20260124.0452)
 -->
<!-- Title: publisher_loop_single Pages: 1 -->
<!--zoomable 382 -->

<svg id="main" version="1.1" xmlns="http://www.w3.org/2000/svg" xmlns:xlink="http://www.w3.org/1999/xlink" xml:space="preserve" onload="init(evt)">

<style type="text/css"><![CDATA[
.node, .edge {opacity: 0.7;}
.node.selected, .edge.selected {opacity: 1;}
.edge:hover path { stroke: red; }
.edge:hover polygon { stroke: red; fill: red; }
]]></style>

<defs>
  <circle id="rim" cx="0" cy="0" r="7"/>
  <circle id="rim2" cx="0" cy="0" r="3.5"/>
  <g id="zoomPlus">
    <use xlink:href="#rim" fill="#404040"><set attributeName="fill" to="#808080" begin="zoomplus.mouseover" end="zoomplus.mouseout"/></use>
    <path d="M-4,0h8M0,-4v8" fill="none" stroke="white" stroke-width="1.5" pointer-events="none"/>
  </g>
  <g id="zoomMin">
    <use xlink:href="#rim" fill="#404040"><set attributeName="fill" to="#808080" begin="zoomminus.mouseover" end="zoomminus.mouseout"/></use>
    <path d="M-4,0h8" fill="none" stroke="white" stroke-width="1.5" pointer-events="none"/>
  </g>
  <g id="arrowUp" transform="translate(30 24)">
    <use xlink:href="#rim"/>
    <path pointer-events="none" fill="none" stroke="white" stroke-width="1.5" d="M0,-3.0v7 M-2.5,-0.5L0,-3.0L2.5,-0.5"/>
  </g>
  <g id="arrowRight" transform="rotate(90) translate(36 -43)">
    <use xlink:href="#rim"/>
    <path pointer-events="none" fill="none" stroke="white" stroke-width="1.5" d="M0,-3.0v7 M-2.5,-0.5L0,-3.0L2.5,-0.5"/>
  </g>
  <g id="arrowDown" transform="rotate(180) translate(-30 -48)">
    <use xlink:href="#rim"/>
    <path pointer-events="none" fill="none" stroke="white" stroke-width="1.5" d="M0,-3.0v7 M-2.5,-0.5L0,-3.0L2.5,-0.5"/>
  </g>
  <g id="arrowLeft" transform="rotate(270) translate(-36 17)">
    <use xlink:href="#rim"/>
    <path pointer-events="none" fill="none" stroke="white" stroke-width="1.5" d="M0,-3.0v7 M-2.5,-0.5L0,-3.0L2.5,-0.5"/>
  </g>
  <g id="resetDef">
    <use xlink:href="#rim2" fill="#404040"><set attributeName="fill" to="#808080" begin="reset.mouseover" end="reset.mouseout"/></use>
  </g>
</defs>
<script type="application/ecmascript">
var viewWidth = 623;
var viewHeight = 382;
var sectionId = 'dynsection-24';
</script>
<script type="application/ecmascript" xlink:href="svg.min.js"/>
<svg id="graph" class="graph">
<g id="viewport">
<title>publisher_loop_single</title>
<!-- Node1 -->
<g id="Node000001" class="node">
<title>Node1</title>
<g id="a_Node000001"><a xlink:title=" ">
<polygon fill="#999999" stroke="#666666" points="109,-191 0,-191 0,-171 109,-171 109,-191"/>
<text xml:space="preserve" text-anchor="middle" x="54.5" y="-177.5" font-family="Helvetica,sans-Serif" font-size="10.00">publisher_loop_single</text>
</a>
</g>
</g>
<!-- Node2 -->
<g id="Node000002" class="node">
<title>Node2</title>
<g id="a_Node000002"><a xlink:href="sv__native__refactored_8cc.html#aa18783d233bbd1ff97330bfb332b2305" target="_top" xlink:title=" ">
<polygon fill="white" stroke="#666666" points="274.25,-374 153.25,-374 153.25,-354 274.25,-354 274.25,-374"/>
<text xml:space="preserve" text-anchor="middle" x="213.75" y="-360.5" font-family="Helvetica,sans-Serif" font-size="10.00">check_duration_elapsed</text>
</a>
</g>
</g>
<!-- Node1&#45;&gt;Node2 -->
<g id="edge1_Node000001_Node000002" class="edge">
<title>Node1&#45;&gt;Node2</title>
<g id="a_edge1_Node000001_Node000002"><a xlink:title=" ">
<path fill="none" stroke="#63b8ff" d="M58.08,-191.28C65.87,-220.19 91.96,-302.78 145,-345 146.48,-346.18 148.03,-347.28 149.63,-348.32"/>
<polygon fill="#63b8ff" stroke="#63b8ff" points="147.51,-351.15 157.98,-352.81 150.83,-344.99 147.51,-351.15"/>
</a>
</g>
</g>
<!-- Node5 -->
<g id="Node000005" class="node">
<title>Node5</title>
<g id="a_Node000005"><a xlink:href="sv__native__refactored_8cc.html#a081cf319776daba5ec14c60bec132d64" target="_top" xlink:title=" ">
<polygon fill="white" stroke="#666666" points="256.25,-336 171.25,-336 171.25,-316 256.25,-316 256.25,-336"/>
<text xml:space="preserve" text-anchor="middle" x="213.75" y="-322.5" font-family="Helvetica,sans-Serif" font-size="10.00">g_eq_processor</text>
</a>
</g>
</g>
<!-- Node1&#45;&gt;Node5 -->
<g id="edge4_Node000001_Node000005" class="edge">
<title>Node1&#45;&gt;Node5</title>
<g id="a_edge4_Node000001_Node000005"><a xlink:title=" ">
<path fill="none" stroke="#63b8ff" d="M59.85,-191.29C70.58,-215.39 100.68,-275.8 145,-307 149.69,-310.3 154.93,-313.03 160.37,-315.28"/>
<polygon fill="#63b8ff" stroke="#63b8ff" points="158.96,-318.5 169.56,-318.56 161.31,-311.9 158.96,-318.5"/>
</a>
</g>
</g>
<!-- Node6 -->
<g id="Node000006" class="node">
<title>Node6</title>
<g id="a_Node000006"><a xlink:href="npcap__transmitter__impl_8cc.html#adc39100394280e20f1f1a569849bdf2d" target="_top" xlink:title="Send a single packet.">
<polygon fill="white" stroke="#666666" points="265.25,-298 162.25,-298 162.25,-278 265.25,-278 265.25,-298"/>
<text xml:space="preserve" text-anchor="middle" x="213.75" y="-284.5" font-family="Helvetica,sans-Serif" font-size="10.00">npcap_send_packet</text>
</a>
</g>
</g>
<!-- Node1&#45;&gt;Node6 -->
<g id="edge5_Node000001_Node000006" class="edge">
<title>Node1&#45;&gt;Node6</title>
<g id="a_edge5_Node000001_Node000006"><a xlink:title=" ">
<path fill="none" stroke="#63b8ff" d="M63.14,-191.39C77.23,-209.82 109.18,-248.24 145,-269 147.77,-270.61 150.69,-272.09 153.7,-273.44"/>
<polygon fill="#63b8ff" stroke="#63b8ff" points="152.15,-276.6 162.74,-277.05 154.75,-270.09 152.15,-276.6"/>
</a>
</g>
</g>
<!-- Node7 -->
<g id="Node000007" class="node">
<title>Node7</title>
<g id="a_Node000007"><a xlink:href="sv__stats__impl_8cc.html#a280e159261a15485b1e0309f59df84e8" target="_top" xlink:title="Record a failed packet transmission.">
<polygon fill="white" stroke="#666666" points="264.5,-260 163,-260 163,-228 264.5,-228 264.5,-260"/>
<text xml:space="preserve" text-anchor="start" x="171" y="-246.5" font-family="Helvetica,sans-Serif" font-size="10.00">npcap_stats_record</text>
<text xml:space="preserve" text-anchor="middle" x="213.75" y="-234.5" font-family="Helvetica,sans-Serif" font-size="10.00">_failure</text>
</a>
</g>
</g>
<!-- Node1&#45;&gt;Node7 -->
<g id="edge6_Node000001_Node000007" class="edge">
<title>Node1&#45;&gt;Node7</title>
<g id="a_edge6_Node000001_Node000007"><a xlink:title=" ">
<path fill="none" stroke="#63b8ff" d="M81.47,-191.4C103.11,-200.07 134.6,-212.69 161.31,-223.39"/>
<polygon fill="#63b8ff" stroke="#63b8ff" points="159.67,-226.51 170.26,-226.98 162.28,-220.01 159.67,-226.51"/>
</a>
</g>
</g>
<!-- Node8 -->
<g id="Node000008" class="node">
<title>Node8</title>
<g id="a_Node000008"><a xlink:href="sv__stats__impl_8cc.html#a210b53baa9526fbb867d2a6b3ad925c4" target="_top" xlink:title="Record a successful packet transmission.">
<polygon fill="white" stroke="#666666" points="433.88,-212 332.38,-212 332.38,-180 433.88,-180 433.88,-212"/>
<text xml:space="preserve" text-anchor="start" x="340.38" y="-198.5" font-family="Helvetica,sans-Serif" font-size="10.00">npcap_stats_record</text>
<text xml:space="preserve" text-anchor="middle" x="383.12" y="-186.5" font-family="Helvetica,sans-Serif" font-size="10.00">_packet</text>
</a>
</g>
</g>
<!-- Node1&#45;&gt;Node8 -->
<g id="edge7_Node000001_Node000008" class="edge">
<title>Node1&#45;&gt;Node8</title>
<g id="a_edge7_Node000001_Node000008"><a xlink:title=" ">
<path fill="none" stroke="#63b8ff" d="M109.44,-183.48C167.57,-186.15 259.91,-190.39 320.77,-193.18"/>
<polygon fill="#63b8ff" stroke="#63b8ff" points="320.47,-196.67 330.62,-193.63 320.79,-189.68 320.47,-196.67"/>
</a>
</g>
</g>
<!-- Node9 -->
<g id="Node000009" class="node">
<title>Node9</title>
<g id="a_Node000009"><a xlink:href="sv__stats__impl_8cc.html#a4e5f02e3cc9b2b06496cca1b54582e0a" target="_top" xlink:title="Reset all statistics to zero.">
<polygon fill="white" stroke="#666666" points="261.88,-172 165.62,-172 165.62,-152 261.88,-152 261.88,-172"/>
<text xml:space="preserve" text-anchor="middle" x="213.75" y="-158.5" font-family="Helvetica,sans-Serif" font-size="10.00">npcap_stats_reset</text>
</a>
</g>
</g>
<!-- Node1&#45;&gt;Node9 -->
<g id="edge9_Node000001_Node000009" class="edge">
<title>Node1&#45;&gt;Node9</title>
<g id="a_edge9_Node000001_Node000009"><a xlink:title=" ">
<path fill="none" stroke="#63b8ff" d="M109.18,-174.51C123.71,-172.76 139.51,-170.85 154.3,-169.06"/>
<polygon fill="#63b8ff" stroke="#63b8ff" points="154.36,-172.58 163.86,-167.91 153.52,-165.63 154.36,-172.58"/>
</a>
</g>
</g>
<!-- Node10 -->
<g id="Node000010" class="node">
<title>Node10</title>
<g id="a_Node000010"><a xlink:href="sv__stats__impl_8cc.html#a4437629953bc0b691829d9c7b77cc061" target="_top" xlink:title="End the current statistics session.">
<polygon fill="white" stroke="#666666" points="447.75,-159 318.5,-159 318.5,-139 447.75,-139 447.75,-159"/>
<text xml:space="preserve" text-anchor="middle" x="383.12" y="-145.5" font-family="Helvetica,sans-Serif" font-size="10.00">npcap_stats_session_end</text>
</a>
</g>
</g>
<!-- Node1&#45;&gt;Node10 -->
<g id="edge10_Node000001_Node000010" class="edge">
<title>Node1&#45;&gt;Node10</title>
<g id="a_edge10_Node000001_Node000010"><a xlink:title=" ">
<path fill="none" stroke="#63b8ff" d="M73.99,-170.54C91.61,-161.21 119.19,-148.25 145,-143 198.31,-132.15 259.75,-134.1 306.73,-138.52"/>
<polygon fill="#63b8ff" stroke="#63b8ff" points="306.23,-141.99 316.53,-139.51 306.93,-135.02 306.23,-141.99"/>
</a>
</g>
</g>
<!-- Node11 -->
<g id="Node000011" class="node">
<title>Node11</title>
<g id="a_Node000011"><a xlink:href="sv__stats__impl_8cc.html#ad0737fafaaf6836a17171d40d5a3f77d" target="_top" xlink:title="Start a new statistics session.">
<polygon fill="white" stroke="#666666" points="437.25,-115 329,-115 329,-83 437.25,-83 437.25,-115"/>
<text xml:space="preserve" text-anchor="start" x="337" y="-101.5" font-family="Helvetica,sans-Serif" font-size="10.00">npcap_stats_session</text>
<text xml:space="preserve" text-anchor="middle" x="383.12" y="-89.5" font-family="Helvetica,sans-Serif" font-size="10.00">_start</text>
</a>
</g>
</g>
<!-- Node1&#45;&gt;Node11 -->
<g id="edge12_Node000001_Node000011" class="edge">
<title>Node1&#45;&gt;Node11</title>
<g id="a_edge12_Node000001_Node000011"><a xlink:title=" ">
<path fill="none" stroke="#63b8ff" d="M69.9,-170.69C86.95,-159.04 116.63,-140.46 145,-131 201.37,-112.21 268.77,-104.43 317.28,-101.22"/>
<polygon fill="#63b8ff" stroke="#63b8ff" points="317.29,-104.72 327.06,-100.62 316.86,-97.74 317.29,-104.72"/>
</a>
</g>
</g>
<!-- Node12 -->
<g id="Node000012" class="node">
<title>Node12</title>
<g id="a_Node000012"><a xlink:href="sv__encoder__impl_8cc.html#a58f4a492f4c37293fdfcc0401b72abd1" target="_top" xlink:title="Encode a single SV packet.">
<polygon fill="white" stroke="#666666" points="282.5,-58 145,-58 145,-38 282.5,-38 282.5,-58"/>
<text xml:space="preserve" text-anchor="middle" x="213.75" y="-44.5" font-family="Helvetica,sans-Serif" font-size="10.00">sv_encoder_encode_packet</text>
</a>
</g>
</g>
<!-- Node1&#45;&gt;Node12 -->
<g id="edge14_Node000001_Node000012" class="edge">
<title>Node1&#45;&gt;Node12</title>
<g id="a_edge14_Node000001_Node000012"><a xlink:title=" ">
<path fill="none" stroke="#63b8ff" d="M61.28,-170.71C73.8,-149.32 105.52,-99.71 145,-72 150.04,-68.46 155.66,-65.39 161.45,-62.75"/>
<polygon fill="#63b8ff" stroke="#63b8ff" points="162.63,-66.05 170.55,-59.01 159.97,-59.57 162.63,-66.05"/>
</a>
</g>
</g>
<!-- Node13 -->
<g id="Node000013" class="node">
<title>Node13</title>
<g id="a_Node000013"><a xlink:href="sv__encoder__impl_8cc.html#a3b78a24c9d83ba55bcd667b3b7fec64c" target="_top" xlink:title="Set encoder configuration.">
<polygon fill="white" stroke="#666666" points="272,-20 155.5,-20 155.5,0 272,0 272,-20"/>
<text xml:space="preserve" text-anchor="middle" x="213.75" y="-6.5" font-family="Helvetica,sans-Serif" font-size="10.00">sv_encoder_set_config</text>
</a>
</g>
</g>
<!-- Node1&#45;&gt;Node13 -->
<g id="edge15_Node000001_Node000013" class="edge">
<title>Node1&#45;&gt;Node13</title>
<g id="a_edge15_Node000001_Node000013"><a xlink:title=" ">
<path fill="none" stroke="#63b8ff" d="M58.56,-170.68C67.25,-143.18 94.77,-67.67 145,-29 146.53,-27.82 148.13,-26.72 149.79,-25.68"/>
<polygon fill="#63b8ff" stroke="#63b8ff" points="151.19,-28.9 158.42,-21.16 147.94,-22.69 151.19,-28.9"/>
</a>
</g>
</g>
<!-- Node3 -->
<g id="Node000003" class="node">
<title>Node3</title>
<g id="a_Node000003"><a xlink:href="sv__native__refactored_8cc.html#a73998198f95089da56c389e492a471e5" target="_top" xlink:title=" ">
<polygon fill="white" stroke="#666666" points="419.25,-312 347,-312 347,-292 419.25,-292 419.25,-312"/>
<text xml:space="preserve" text-anchor="middle" x="383.12" y="-298.5" font-family="Helvetica,sans-Serif" font-size="10.00">get_time_ms</text>
</a>
</g>
</g>
<!-- Node2&#45;&gt;Node3 -->
<g id="edge2_Node000002_Node000003" class="edge">
<title>Node2&#45;&gt;Node3</title>
<g id="a_edge2_Node000002_Node000003"><a xlink:title=" ">
<path fill="none" stroke="#63b8ff" d="M255.51,-353.52C264.47,-350.96 273.86,-348.06 282.5,-345 305.47,-336.86 330.66,-325.97 349.96,-317.19"/>
<polygon fill="#63b8ff" stroke="#63b8ff" points="351.31,-320.42 358.93,-313.06 348.38,-314.06 351.31,-320.42"/>
</a>
</g>
</g>
<!-- Node4 -->
<g id="Node000004" class="node">
<title>Node4</title>
<g id="a_Node000004"><a xlink:href="sv__stats__impl_8cc.html#ae7cd346e20d4749f60fa7332dfae0dd7" target="_top" xlink:title="Get current time in milliseconds.">
<polygon fill="white" stroke="#666666" points="614.5,-181 483.75,-181 483.75,-161 614.5,-161 614.5,-181"/>
<text xml:space="preserve" text-anchor="middle" x="549.12" y="-167.5" font-family="Helvetica,sans-Serif" font-size="10.00">npcap_stats_get_time_ms</text>
</a>
</g>
</g>
<!-- Node3&#45;&gt;Node4 -->
<g id="edge3_Node000003_Node000004" class="edge">
<title>Node3&#45;&gt;Node4</title>
<g id="a_edge3_Node000003_Node000004"><a xlink:title=" ">
<path fill="none" stroke="#63b8ff" d="M397.27,-291.5C425.48,-268.97 492.05,-215.79 526.55,-188.23"/>
<polygon fill="#63b8ff" stroke="#63b8ff" points="528.56,-191.11 534.19,-182.13 524.19,-185.64 528.56,-191.11"/>
</a>
</g>
</g>
<!-- Node8&#45;&gt;Node4 -->
<g id="edge8_Node000008_Node000004" class="edge">
<title>Node8&#45;&gt;Node4</title>
<g id="a_edge8_Node000008_Node000004"><a xlink:title=" ">
<path fill="none" stroke="#63b8ff" d="M434.22,-188.36C446.24,-186.53 459.35,-184.53 472.25,-182.57"/>
<polygon fill="#63b8ff" stroke="#63b8ff" points="472.65,-186.05 482.01,-181.08 471.59,-179.13 472.65,-186.05"/>
</a>
</g>
</g>
<!-- Node10&#45;&gt;Node4 -->
<g id="edge11_Node000010_Node000004" class="edge">
<title>Node10&#45;&gt;Node4</title>
<g id="a_edge11_Node000010_Node000004"><a xlink:title=" ">
<path fill="none" stroke="#63b8ff" d="M448,-157.57C455.89,-158.63 464.01,-159.72 472.05,-160.8"/>
<polygon fill="#63b8ff" stroke="#63b8ff" points="471.47,-164.25 481.84,-162.11 472.4,-157.31 471.47,-164.25"/>
</a>
</g>
</g>
<!-- Node11&#45;&gt;Node4 -->
<g id="edge13_Node000011_Node000004" class="edge">
<title>Node11&#45;&gt;Node4</title>
<g id="a_edge13_Node000011_Node000004"><a xlink:title=" ">
<path fill="none" stroke="#63b8ff" d="M421.34,-115.34C449.08,-127.52 486.69,-144.03 513.73,-155.9"/>
<polygon fill="#63b8ff" stroke="#63b8ff" points="512.3,-159.1 522.87,-159.91 515.12,-152.69 512.3,-159.1"/>
</a>
</g>
</g>
</g>
</svg>

<g id="navigator" transform="translate(0 0)" fill="#404254">
  <rect fill="#f2f5e9" fill-opacity="0.5" stroke="#606060" stroke-width=".5" x="0" y="0" width="60" height="60"/>
  <use id="zoomplus" xlink:href="#zoomPlus" x="17" y="9" onmousedown="handleZoom(evt,'in')"/>
  <use id="zoomminus" xlink:href="#zoomMin" x="42" y="9" onmousedown="handleZoom(evt,'out')"/>
  <use id="reset" xlink:href="#resetDef" x="30" y="36" onmousedown="handleReset()"/>
   <use id="arrowup" xlink:href="#arrowUp" x="0" y="0" onmousedown="handlePan(0,-1)"/>
  <use id="arrowright" xlink:href="#arrowRight" x="0" y="0" onmousedown="handlePan(1,0)"/>
  <use id="arrowdown" xlink:href="#arrowDown" x="0" y="0" onmousedown="handlePan(0,1)"/>
  <use id="arrowleft" xlink:href="#arrowLeft" x="0" y="0" onmousedown="handlePan(-1,0)"/>
</g>
<svg viewBox="0 0 15 15" width="100%" height="30px" preserveAspectRatio="xMaxYMin meet">
 <g id="arrow_out" transform="scale(0.3 0.3)">
  <a xlink:href="sv__native__refactored_8cc_ae2056b20c01b052837592dc341ce314e_cgraph_org.svg" target="_base">
   <rect id="button" ry="5" rx="5" y="6" x="6" height="38" width="38"
        fill="#f2f5e9" fill-opacity="0.5" stroke="#606060" stroke-width="1.0"/>
   <path id="arrow"
     d="M 11.500037,31.436501 C 11.940474,20.09759 22.043105,11.32322 32.158766,21.979434 L 37.068811,17.246167 C 37.068811,17.246167 37.088388,32 37.088388,32 L 22.160133,31.978069 C 22.160133,31.978069 26.997745,27.140456 26.997745,27.140456 C 18.528582,18.264221 13.291696,25.230495 11.500037,31.436501 z"
     style="fill:#404040;"/>
  </a>
 </g>
</svg>

<style type='text/css'>
<![CDATA[
[data-mouse-over-selected='false'] { opacity: 0.7; }
[data-mouse-over-selected='true']  { opacity: 1.0; }
]]>
</style>
<script type="application/ecmascript"><![CDATA[
document.addEventListener('DOMContentLoaded', (event) => {
  highlightEdges();
  highlightAdjacentNodes();
});
]]></script>
</svg>
