<?xml version="1.0" encoding="UTF-8" standalone="no"?>
<!DOCTYPE svg PUBLIC "-//W3C//DTD SVG 1.1//EN"
 "http://www.w3.org/Graphics/SVG/1.1/DTD/svg11.dtd">
<!-- Generated by graphviz version 14.1.2 (20260124.0452)
 -->
<!-- Title: sv_stats_impl.cc Pages: 1 -->
<svg width="366pt" height="196pt"
 viewBox="0.00 0.00 366.00 196.00" xmlns="http://www.w3.org/2000/svg" xmlns:xlink="http://www.w3.org/1999/xlink">

<svg id="main" version="1.1" xmlns="http://www.w3.org/2000/svg" xmlns:xlink="http://www.w3.org/1999/xlink" xml:space="preserve">

<style type="text/css"><![CDATA[
.node, .edge {opacity: 0.7;}
.node.selected, .edge.selected {opacity: 1;}
.edge:hover path { stroke: red; }
.edge:hover polygon { stroke: red; fill: red; }
]]></style>
<script type="application/ecmascript" xlink:href="svg.min.js"/>
<svg id="graph" class="graph">
<g id="graph0" class="graph" transform="scale(1 1) rotate(0) translate(4 192)">
<title>sv_stats_impl.cc</title>
<!-- Node1 -->
<g id="Node000001" class="node">
<title>Node1</title>
<g id="a_Node000001"><a xlink:title="Transmission Statistics Tracker.">
<polygon fill="#999999" stroke="#666666" points="256.25,-188 166,-188 166,-168 256.25,-168 256.25,-188"/>
<text xml:space="preserve" text-anchor="middle" x="211.12" y="-174.5" font-family="Helvetica,sans-Serif" font-size="10.00">sv_stats_impl.cc</text>
</a>
</g>
</g>
<!-- Node2 -->
<g id="Node000002" class="node">
<title>Node2</title>
<g id="a_Node000002"><a xlink:href="sv__stats_8h.html" target="_top" xlink:title="Transmission Statistics Module.">
<polygon fill="white" stroke="#666666" points="110.38,-132 5.88,-132 5.88,-112 110.38,-112 110.38,-132"/>
<text xml:space="preserve" text-anchor="middle" x="58.12" y="-118.5" font-family="Helvetica,sans-Serif" font-size="10.00">../include/sv_stats.h</text>
</a>
</g>
</g>
<!-- Node1&#45;&gt;Node2 -->
<g id="edge1_Node000001_Node000002" class="edge">
<title>Node1&#45;&gt;Node2</title>
<g id="a_edge1_Node000001_Node000002"><a xlink:title=" ">
<path fill="none" stroke="#63b8ff" d="M184.47,-167.59C159.94,-158.94 123.3,-146 95.78,-136.29"/>
<polygon fill="#63b8ff" stroke="#63b8ff" points="97.01,-133.01 86.41,-132.98 94.68,-139.61 97.01,-133.01"/>
</a>
</g>
</g>
<!-- Node6 -->
<g id="Node000006" class="node">
<title>Node6</title>
<g id="a_Node000006"><a xlink:title=" ">
<polygon fill="#e0e0e0" stroke="#999999" points="170.25,-132 128,-132 128,-112 170.25,-112 170.25,-132"/>
<text xml:space="preserve" text-anchor="middle" x="149.12" y="-118.5" font-family="Helvetica,sans-Serif" font-size="10.00">cstdio</text>
</a>
</g>
</g>
<!-- Node1&#45;&gt;Node6 -->
<g id="edge5_Node000001_Node000006" class="edge">
<title>Node1&#45;&gt;Node6</title>
<g id="a_edge5_Node000001_Node000006"><a xlink:title=" ">
<path fill="none" stroke="#63b8ff" d="M200.33,-167.59C191.52,-159.93 178.87,-148.91 168.35,-139.75"/>
<polygon fill="#63b8ff" stroke="#63b8ff" points="170.78,-137.22 160.94,-133.29 166.18,-142.5 170.78,-137.22"/>
</a>
</g>
</g>
<!-- Node7 -->
<g id="Node000007" class="node">
<title>Node7</title>
<g id="a_Node000007"><a xlink:title=" ">
<polygon fill="#e0e0e0" stroke="#999999" points="233.75,-132 188.5,-132 188.5,-112 233.75,-112 233.75,-132"/>
<text xml:space="preserve" text-anchor="middle" x="211.12" y="-118.5" font-family="Helvetica,sans-Serif" font-size="10.00">cstring</text>
</a>
</g>
</g>
<!-- Node1&#45;&gt;Node7 -->
<g id="edge6_Node000001_Node000007" class="edge">
<title>Node1&#45;&gt;Node7</title>
<g id="a_edge6_Node000001_Node000007"><a xlink:title=" ">
<path fill="none" stroke="#63b8ff" d="M211.12,-167.59C211.12,-161.01 211.12,-151.96 211.12,-143.73"/>
<polygon fill="#63b8ff" stroke="#63b8ff" points="214.63,-143.81 211.13,-133.81 207.63,-143.81 214.63,-143.81"/>
</a>
</g>
</g>
<!-- Node8 -->
<g id="Node000008" class="node">
<title>Node8</title>
<g id="a_Node000008"><a xlink:title=" ">
<polygon fill="#e0e0e0" stroke="#999999" points="294.62,-132 251.62,-132 251.62,-112 294.62,-112 294.62,-132"/>
<text xml:space="preserve" text-anchor="middle" x="273.12" y="-118.5" font-family="Helvetica,sans-Serif" font-size="10.00">mutex</text>
</a>
</g>
</g>
<!-- Node1&#45;&gt;Node8 -->
<g id="edge7_Node000001_Node000008" class="edge">
<title>Node1&#45;&gt;Node8</title>
<g id="a_edge7_Node000001_Node000008"><a xlink:title=" ">
<path fill="none" stroke="#63b8ff" d="M221.92,-167.59C230.73,-159.93 243.38,-148.91 253.9,-139.75"/>
<polygon fill="#63b8ff" stroke="#63b8ff" points="256.07,-142.5 261.31,-133.29 251.47,-137.22 256.07,-142.5"/>
</a>
</g>
</g>
<!-- Node9 -->
<g id="Node000009" class="node">
<title>Node9</title>
<g id="a_Node000009"><a xlink:title=" ">
<polygon fill="#e0e0e0" stroke="#999999" points="357.75,-132 312.5,-132 312.5,-112 357.75,-112 357.75,-132"/>
<text xml:space="preserve" text-anchor="middle" x="335.12" y="-118.5" font-family="Helvetica,sans-Serif" font-size="10.00">chrono</text>
</a>
</g>
</g>
<!-- Node1&#45;&gt;Node9 -->
<g id="edge8_Node000001_Node000009" class="edge">
<title>Node1&#45;&gt;Node9</title>
<g id="a_edge8_Node000001_Node000009"><a xlink:title=" ">
<path fill="none" stroke="#63b8ff" d="M232.72,-167.59C252.08,-159.17 280.73,-146.69 302.81,-137.07"/>
<polygon fill="#63b8ff" stroke="#63b8ff" points="304.2,-140.29 311.97,-133.08 301.4,-133.87 304.2,-140.29"/>
</a>
</g>
</g>
<!-- Node3 -->
<g id="Node000003" class="node">
<title>Node3</title>
<g id="a_Node000003"><a xlink:href="sv__native_8h.html" target="_top" xlink:title="Header for Tauri FFI &#45; C interface for Rust.">
<polygon fill="white" stroke="#666666" points="91.25,-76 25,-76 25,-56 91.25,-56 91.25,-76"/>
<text xml:space="preserve" text-anchor="middle" x="58.12" y="-62.5" font-family="Helvetica,sans-Serif" font-size="10.00">sv_native.h</text>
</a>
</g>
</g>
<!-- Node2&#45;&gt;Node3 -->
<g id="edge2_Node000002_Node000003" class="edge">
<title>Node2&#45;&gt;Node3</title>
<g id="a_edge2_Node000002_Node000003"><a xlink:title=" ">
<path fill="none" stroke="#63b8ff" d="M58.12,-111.59C58.12,-105.01 58.12,-95.96 58.12,-87.73"/>
<polygon fill="#63b8ff" stroke="#63b8ff" points="61.63,-87.81 58.13,-77.81 54.63,-87.81 61.63,-87.81"/>
</a>
</g>
</g>
<!-- Node4 -->
<g id="Node000004" class="node">
<title>Node4</title>
<g id="a_Node000004"><a xlink:title=" ">
<polygon fill="#e0e0e0" stroke="#999999" points="48.25,-20 0,-20 0,0 48.25,0 48.25,-20"/>
<text xml:space="preserve" text-anchor="middle" x="24.12" y="-6.5" font-family="Helvetica,sans-Serif" font-size="10.00">stdint.h</text>
</a>
</g>
</g>
<!-- Node3&#45;&gt;Node4 -->
<g id="edge3_Node000003_Node000004" class="edge">
<title>Node3&#45;&gt;Node4</title>
<g id="a_edge3_Node000003_Node000004"><a xlink:title=" ">
<path fill="none" stroke="#63b8ff" d="M52.2,-55.59C47.77,-48.55 41.55,-38.67 36.09,-30"/>
<polygon fill="#63b8ff" stroke="#63b8ff" points="39.08,-28.18 30.79,-21.58 33.15,-31.91 39.08,-28.18"/>
</a>
</g>
</g>
<!-- Node5 -->
<g id="Node000005" class="node">
<title>Node5</title>
<g id="a_Node000005"><a xlink:title=" ">
<polygon fill="#e0e0e0" stroke="#999999" points="117.75,-20 66.5,-20 66.5,0 117.75,0 117.75,-20"/>
<text xml:space="preserve" text-anchor="middle" x="92.12" y="-6.5" font-family="Helvetica,sans-Serif" font-size="10.00">stddef.h</text>
</a>
</g>
</g>
<!-- Node3&#45;&gt;Node5 -->
<g id="edge4_Node000003_Node000005" class="edge">
<title>Node3&#45;&gt;Node5</title>
<g id="a_edge4_Node000003_Node000005"><a xlink:title=" ">
<path fill="none" stroke="#63b8ff" d="M64.05,-55.59C68.48,-48.55 74.7,-38.67 80.16,-30"/>
<polygon fill="#63b8ff" stroke="#63b8ff" points="83.1,-31.91 85.46,-21.58 77.17,-28.18 83.1,-31.91"/>
</a>
</g>
</g>
</g>
</svg>
</svg>

<style type='text/css'>
<![CDATA[
[data-mouse-over-selected='false'] { opacity: 0.7; }
[data-mouse-over-selected='true']  { opacity: 1.0; }
]]>
</style>
<script type="application/ecmascript"><![CDATA[
document.addEventListener('DOMContentLoaded', (event) => {
  highlightEdges();
  highlightAdjacentNodes();
});
]]></script>
</svg>
