<?xml version="1.0" encoding="UTF-8" standalone="no"?>
<!DOCTYPE svg PUBLIC "-//W3C//DTD SVG 1.1//EN"
 "http://www.w3.org/Graphics/SVG/1.1/DTD/svg11.dtd">
<!-- Generated by graphviz version 14.1.2 (20260124.0452)
 -->
<!-- Title: sv_mp_set_usb_min_gap_us Pages: 1 -->
<svg width="507pt" height="66pt"
 viewBox="0.00 0.00 507.00 66.00" xmlns="http://www.w3.org/2000/svg" xmlns:xlink="http://www.w3.org/1999/xlink">
<g id="graph0" class="graph" transform="scale(1 1) rotate(0) translate(4 62)">
<title>sv_mp_set_usb_min_gap_us</title>
<!-- Node1 -->
<g id="Node000001" class="node">
<title>Node1</title>
<g id="a_Node000001"><a xlink:title=" ">
<polygon fill="#999999" stroke="#666666" points="142.75,-39 0,-39 0,-19 142.75,-19 142.75,-39"/>
<text xml:space="preserve" text-anchor="middle" x="71.38" y="-25.5" font-family="Helvetica,sans-Serif" font-size="10.00">sv_mp_set_usb_min_gap_us</text>
</a>
</g>
</g>
<!-- Node2 -->
<g id="Node000002" class="node">
<title>Node2</title>
<g id="a_Node000002"><a xlink:href="class_sv_controller.html#afc102679fe80499c39d27cb8640394cc" target="_top" xlink:title=" ">
<polygon fill="white" stroke="#666666" points="312.12,-58 199.38,-58 199.38,-38 312.12,-38 312.12,-58"/>
<text xml:space="preserve" text-anchor="middle" x="255.75" y="-44.5" font-family="Helvetica,sans-Serif" font-size="10.00">SvController::instance</text>
</a>
</g>
</g>
<!-- Node1&#45;&gt;Node2 -->
<g id="edge1_Node000001_Node000002" class="edge">
<title>Node1&#45;&gt;Node2</title>
<g id="a_edge1_Node000001_Node000002"><a xlink:title=" ">
<path fill="none" stroke="#63b8ff" d="M143.15,-36.37C157.76,-37.9 173.12,-39.5 187.6,-41"/>
<polygon fill="#63b8ff" stroke="#63b8ff" points="187.18,-44.48 197.49,-42.03 187.91,-37.52 187.18,-44.48"/>
</a>
</g>
</g>
<!-- Node4 -->
<g id="Node000004" class="node">
<title>Node4</title>
<g id="a_Node000004"><a xlink:href="class_sv_controller.html#a4764ecd7b84b796a71c45388c4179af7" target="_top" xlink:title=" ">
<polygon fill="white" stroke="#666666" points="332.75,-20 178.75,-20 178.75,0 332.75,0 332.75,-20"/>
<text xml:space="preserve" text-anchor="middle" x="255.75" y="-6.5" font-family="Helvetica,sans-Serif" font-size="10.00">SvController::setUsbMinGapUs</text>
</a>
</g>
</g>
<!-- Node1&#45;&gt;Node4 -->
<g id="edge3_Node000001_Node000004" class="edge">
<title>Node1&#45;&gt;Node4</title>
<g id="a_edge3_Node000001_Node000004"><a xlink:title=" ">
<path fill="none" stroke="#63b8ff" d="M143.15,-21.63C150.97,-20.81 159.01,-19.97 167.01,-19.14"/>
<polygon fill="#63b8ff" stroke="#63b8ff" points="167.19,-22.64 176.77,-18.12 166.46,-15.68 167.19,-22.64"/>
</a>
</g>
</g>
<!-- Node3 -->
<g id="Node000003" class="node">
<title>Node3</title>
<g id="a_Node000003"><a xlink:href="class_sv_controller.html#aa5d7c635a8015c90217076cf4722542c" target="_top" xlink:title=" ">
<polygon fill="white" stroke="#666666" points="498.75,-58 368.75,-58 368.75,-38 498.75,-38 498.75,-58"/>
<text xml:space="preserve" text-anchor="middle" x="433.75" y="-44.5" font-family="Helvetica,sans-Serif" font-size="10.00">SvController::SvController</text>
</a>
</g>
</g>
<!-- Node2&#45;&gt;Node3 -->
<g id="edge2_Node000002_Node000003" class="edge">
<title>Node2&#45;&gt;Node3</title>
<g id="a_edge2_Node000002_Node000003"><a xlink:title=" ">
<path fill="none" stroke="#63b8ff" d="M312.44,-48C326.64,-48 342.15,-48 357.17,-48"/>
<polygon fill="#63b8ff" stroke="#63b8ff" points="357.01,-51.5 367.01,-48 357.01,-44.5 357.01,-51.5"/>
</a>
</g>
</g>
</g>
</svg>
