<?xml version="1.0" encoding="UTF-8" standalone="no"?>
<!DOCTYPE svg PUBLIC "-//W3C//DTD SVG 1.1//EN"
 "http://www.w3.org/Graphics/SVG/1.1/DTD/svg11.dtd">
<!-- Generated by graphviz version 14.1.2 (20260124.0452)
 -->
<!-- Title: sv_mp_set_publisher_equations Pages: 1 -->
<svg width="451pt" height="78pt"
 viewBox="0.00 0.00 451.00 78.00" xmlns="http://www.w3.org/2000/svg" xmlns:xlink="http://www.w3.org/1999/xlink">

<svg id="main" version="1.1" xmlns="http://www.w3.org/2000/svg" xmlns:xlink="http://www.w3.org/1999/xlink" xml:space="preserve">

<style type="text/css"><![CDATA[
.node, .edge {opacity: 0.7;}
.node.selected, .edge.selected {opacity: 1;}
.edge:hover path { stroke: red; }
.edge:hover polygon { stroke: red; fill: red; }
]]></style>
<script type="application/ecmascript" xlink:href="svg.min.js"/>
<svg id="graph" class="graph">
<g id="graph0" class="graph" transform="scale(1 1) rotate(0) translate(4 74)">
<title>sv_mp_set_publisher_equations</title>
<!-- Node1 -->
<g id="Node000001" class="node">
<title>Node1</title>
<g id="a_Node000001"><a xlink:title=" ">
<polygon fill="#999999" stroke="#666666" points="108.25,-54 0,-54 0,-22 108.25,-22 108.25,-54"/>
<text xml:space="preserve" text-anchor="start" x="8" y="-40.5" font-family="Helvetica,sans-Serif" font-size="10.00">sv_mp_set_publisher</text>
<text xml:space="preserve" text-anchor="middle" x="54.12" y="-28.5" font-family="Helvetica,sans-Serif" font-size="10.00">_equations</text>
</a>
</g>
</g>
<!-- Node2 -->
<g id="Node000002" class="node">
<title>Node2</title>
<g id="a_Node000002"><a xlink:href="class_sv_controller.html#afc102679fe80499c39d27cb8640394cc" target="_top" xlink:title=" ">
<polygon fill="white" stroke="#666666" points="265.62,-70 152.88,-70 152.88,-50 265.62,-50 265.62,-70"/>
<text xml:space="preserve" text-anchor="middle" x="209.25" y="-56.5" font-family="Helvetica,sans-Serif" font-size="10.00">SvController::instance</text>
</a>
</g>
</g>
<!-- Node1&#45;&gt;Node2 -->
<g id="edge1_Node000001_Node000002" class="edge">
<title>Node1&#45;&gt;Node2</title>
<g id="a_edge1_Node000001_Node000002"><a xlink:title=" ">
<path fill="none" stroke="#63b8ff" d="M108.68,-45.69C119.18,-47.2 130.31,-48.8 141.19,-50.36"/>
<polygon fill="#63b8ff" stroke="#63b8ff" points="140.49,-53.8 150.89,-51.76 141.49,-46.87 140.49,-53.8"/>
</a>
</g>
</g>
<!-- Node4 -->
<g id="Node000004" class="node">
<title>Node4</title>
<g id="a_Node000004"><a xlink:href="class_sv_controller.html#a2f73efbc4d8210e348f18b954228b3da" target="_top" xlink:title=" ">
<polygon fill="white" stroke="#666666" points="274.25,-32 144.25,-32 144.25,0 274.25,0 274.25,-32"/>
<text xml:space="preserve" text-anchor="start" x="152.25" y="-18.5" font-family="Helvetica,sans-Serif" font-size="10.00">SvController::setPublisher</text>
<text xml:space="preserve" text-anchor="middle" x="209.25" y="-6.5" font-family="Helvetica,sans-Serif" font-size="10.00">Equations</text>
</a>
</g>
</g>
<!-- Node1&#45;&gt;Node4 -->
<g id="edge3_Node000001_Node000004" class="edge">
<title>Node1&#45;&gt;Node4</title>
<g id="a_edge3_Node000001_Node000004"><a xlink:title=" ">
<path fill="none" stroke="#63b8ff" d="M108.68,-30.31C116.42,-29.19 124.5,-28.03 132.57,-26.87"/>
<polygon fill="#63b8ff" stroke="#63b8ff" points="133.04,-30.34 142.44,-25.46 132.04,-23.41 133.04,-30.34"/>
</a>
</g>
</g>
<!-- Node3 -->
<g id="Node000003" class="node">
<title>Node3</title>
<g id="a_Node000003"><a xlink:href="class_sv_controller.html#aa5d7c635a8015c90217076cf4722542c" target="_top" xlink:title=" ">
<polygon fill="white" stroke="#666666" points="441.38,-70 311.38,-70 311.38,-50 441.38,-50 441.38,-70"/>
<text xml:space="preserve" text-anchor="middle" x="376.38" y="-56.5" font-family="Helvetica,sans-Serif" font-size="10.00">SvController::SvController</text>
</a>
</g>
</g>
<!-- Node2&#45;&gt;Node3 -->
<g id="edge2_Node000002_Node000003" class="edge">
<title>Node2&#45;&gt;Node3</title>
<g id="a_edge2_Node000002_Node000003"><a xlink:title=" ">
<path fill="none" stroke="#63b8ff" d="M265.69,-60C276.59,-60 288.19,-60 299.61,-60"/>
<polygon fill="#63b8ff" stroke="#63b8ff" points="299.43,-63.5 309.43,-60 299.43,-56.5 299.43,-63.5"/>
</a>
</g>
</g>
<!-- Node5 -->
<g id="Node000005" class="node">
<title>Node5</title>
<g id="a_Node000005"><a xlink:href="class_sv_controller.html#a72d12914c561f72b1d483dde8de441dd" target="_top" xlink:title=" ">
<polygon fill="white" stroke="#666666" points="442.5,-26 310.25,-26 310.25,-6 442.5,-6 442.5,-26"/>
<text xml:space="preserve" text-anchor="middle" x="376.38" y="-12.5" font-family="Helvetica,sans-Serif" font-size="10.00">SvController::findPublisher</text>
</a>
</g>
</g>
<!-- Node4&#45;&gt;Node5 -->
<g id="edge4_Node000004_Node000005" class="edge">
<title>Node4&#45;&gt;Node5</title>
<g id="a_edge4_Node000004_Node000005"><a xlink:title=" ">
<path fill="none" stroke="#63b8ff" d="M274.56,-16C282.44,-16 290.55,-16 298.59,-16"/>
<polygon fill="#63b8ff" stroke="#63b8ff" points="298.36,-19.5 308.36,-16 298.36,-12.5 298.36,-19.5"/>
</a>
</g>
</g>
</g>
</svg>
</svg>

<style type='text/css'>
<![CDATA[
[data-mouse-over-selected='false'] { opacity: 0.7; }
[data-mouse-over-selected='true']  { opacity: 1.0; }
]]>
</style>
<script type="application/ecmascript"><![CDATA[
document.addEventListener('DOMContentLoaded', (event) => {
  highlightEdges();
  highlightAdjacentNodes();
});
]]></script>
</svg>
