<?xml version="1.0" encoding="UTF-8" standalone="no"?>
<!DOCTYPE svg PUBLIC "-//W3C//DTD SVG 1.1//EN"
 "http://www.w3.org/Graphics/SVG/1.1/DTD/svg11.dtd">
<!-- Generated by graphviz version 14.1.2 (20260124.0452)
 -->
<!-- Title: g_eq_processor Pages: 1 -->
<svg width="572pt" height="180pt"
 viewBox="0.00 0.00 572.00 180.00" xmlns="http://www.w3.org/2000/svg" xmlns:xlink="http://www.w3.org/1999/xlink">
<g id="graph0" class="graph" transform="scale(1 1) rotate(0) translate(4 176)">
<title>g_eq_processor</title>
<!-- Node1 -->
<g id="Node000001" class="node">
<title>Node1</title>
<g id="a_Node000001"><a xlink:title=" ">
<polygon fill="#999999" stroke="#666666" points="564.25,-96 479.25,-96 479.25,-76 564.25,-76 564.25,-96"/>
<text xml:space="preserve" text-anchor="middle" x="521.75" y="-82.5" font-family="Helvetica,sans-Serif" font-size="10.00">g_eq_processor</text>
</a>
</g>
</g>
<!-- Node2 -->
<g id="Node000002" class="node">
<title>Node2</title>
<g id="a_Node000002"><a xlink:href="sv__native__refactored_8cc.html#a3bd4dbe7d50b9f716bd13a2f2cc23d36" target="_top" xlink:title="Get a sample frame with current configuration Returns the actual encoded frame bytes that would be tr...">
<polygon fill="white" stroke="#666666" points="441.38,-172 313.62,-172 313.62,-152 441.38,-152 441.38,-172"/>
<text xml:space="preserve" text-anchor="middle" x="377.5" y="-158.5" font-family="Helvetica,sans-Serif" font-size="10.00">npcap_get_sample_frame</text>
</a>
</g>
</g>
<!-- Node1&#45;&gt;Node2 -->
<g id="edge1_Node000001_Node000002" class="edge">
<title>Node1&#45;&gt;Node2</title>
<g id="a_edge1_Node000001_Node000002"><a xlink:title=" ">
<path fill="none" stroke="#63b8ff" d="M500.85,-103.69C485.91,-116.18 464.45,-132.5 443.25,-143 436.53,-146.33 429.12,-149.18 421.79,-151.58"/>
<polygon fill="#63b8ff" stroke="#63b8ff" points="502.79,-106.64 508.11,-97.47 498.24,-101.32 502.79,-106.64"/>
</a>
</g>
</g>
<!-- Node3 -->
<g id="Node000003" class="node">
<title>Node3</title>
<g id="a_Node000003"><a xlink:href="sv__native__refactored_8cc.html#ad95641f4c43fe76520997147c879bbdd" target="_top" xlink:title=" ">
<polygon fill="white" stroke="#666666" points="443.25,-134 311.75,-134 311.75,-114 443.25,-114 443.25,-134"/>
<text xml:space="preserve" text-anchor="middle" x="377.5" y="-120.5" font-family="Helvetica,sans-Serif" font-size="10.00">npcap_publisher_configure</text>
</a>
</g>
</g>
<!-- Node1&#45;&gt;Node3 -->
<g id="edge2_Node000001_Node000003" class="edge">
<title>Node1&#45;&gt;Node3</title>
<g id="a_edge2_Node000001_Node000003"><a xlink:title=" ">
<path fill="none" stroke="#63b8ff" d="M470.42,-99.45C453.08,-104.08 433.93,-109.19 417.62,-113.55"/>
<polygon fill="#63b8ff" stroke="#63b8ff" points="471.28,-102.84 480.04,-96.87 469.48,-96.07 471.28,-102.84"/>
</a>
</g>
</g>
<!-- Node4 -->
<g id="Node000004" class="node">
<title>Node4</title>
<g id="a_Node000004"><a xlink:href="sv__native__refactored_8cc.html#a92621875bc2806bd7381c6779243efb1" target="_top" xlink:title="Set equations for channels.">
<polygon fill="white" stroke="#666666" points="431.62,-96 323.38,-96 323.38,-76 431.62,-76 431.62,-96"/>
<text xml:space="preserve" text-anchor="middle" x="377.5" y="-82.5" font-family="Helvetica,sans-Serif" font-size="10.00">npcap_set_equations</text>
</a>
</g>
</g>
<!-- Node1&#45;&gt;Node4 -->
<g id="edge3_Node000001_Node000004" class="edge">
<title>Node1&#45;&gt;Node4</title>
<g id="a_edge3_Node000001_Node000004"><a xlink:title=" ">
<path fill="none" stroke="#63b8ff" d="M467.51,-86C455.91,-86 443.62,-86 432.01,-86"/>
<polygon fill="#63b8ff" stroke="#63b8ff" points="467.33,-89.5 477.33,-86 467.33,-82.5 467.33,-89.5"/>
</a>
</g>
</g>
<!-- Node5 -->
<g id="Node000005" class="node">
<title>Node5</title>
<g id="a_Node000005"><a xlink:href="sv__native__refactored_8cc.html#a7e6a8d1afed7cf1fc23dc37a7e5d872a" target="_top" xlink:title=" ">
<polygon fill="white" stroke="#666666" points="420,-58 335,-58 335,-38 420,-38 420,-58"/>
<text xml:space="preserve" text-anchor="middle" x="377.5" y="-44.5" font-family="Helvetica,sans-Serif" font-size="10.00">prebuild_frames</text>
</a>
</g>
</g>
<!-- Node1&#45;&gt;Node5 -->
<g id="edge4_Node000001_Node000005" class="edge">
<title>Node1&#45;&gt;Node5</title>
<g id="a_edge4_Node000001_Node000005"><a xlink:title=" ">
<path fill="none" stroke="#63b8ff" d="M470.42,-72.55C453.08,-67.92 433.93,-62.81 417.62,-58.45"/>
<polygon fill="#63b8ff" stroke="#63b8ff" points="469.48,-75.93 480.04,-75.13 471.28,-69.16 469.48,-75.93"/>
</a>
</g>
</g>
<!-- Node9 -->
<g id="Node000009" class="node">
<title>Node9</title>
<g id="a_Node000009"><a xlink:href="sv__native__refactored_8cc.html#ae2056b20c01b052837592dc341ce314e" target="_top" xlink:title=" ">
<polygon fill="white" stroke="#666666" points="266,-20 157,-20 157,0 266,0 266,-20"/>
<text xml:space="preserve" text-anchor="middle" x="211.5" y="-6.5" font-family="Helvetica,sans-Serif" font-size="10.00">publisher_loop_single</text>
</a>
</g>
</g>
<!-- Node1&#45;&gt;Node9 -->
<g id="edge11_Node000001_Node000009" class="edge">
<title>Node1&#45;&gt;Node9</title>
<g id="a_edge11_Node000001_Node000009"><a xlink:title=" ">
<path fill="none" stroke="#63b8ff" d="M502.69,-68.14C488.01,-54.83 466.05,-37.53 443.25,-29 385.46,-7.37 314.01,-4.85 266.06,-6.3"/>
<polygon fill="#63b8ff" stroke="#63b8ff" points="500.06,-70.46 509.74,-74.76 504.85,-65.36 500.06,-70.46"/>
</a>
</g>
</g>
<!-- Node6 -->
<g id="Node000006" class="node">
<title>Node6</title>
<g id="a_Node000006"><a xlink:href="sv__native__refactored_8cc.html#a186b6b16f2d04a7fd9c7da099fac4fa5" target="_top" xlink:title=" ">
<polygon fill="white" stroke="#666666" points="265.25,-114 157.75,-114 157.75,-94 265.25,-94 265.25,-114"/>
<text xml:space="preserve" text-anchor="middle" x="211.5" y="-100.5" font-family="Helvetica,sans-Serif" font-size="10.00">publisher_loop_batch</text>
</a>
</g>
</g>
<!-- Node5&#45;&gt;Node6 -->
<g id="edge5_Node000005_Node000006" class="edge">
<title>Node5&#45;&gt;Node6</title>
<g id="a_edge5_Node000005_Node000006"><a xlink:title=" ">
<path fill="none" stroke="#63b8ff" d="M326.08,-61.84C321.2,-63.46 316.35,-65.19 311.75,-67 295.1,-73.54 292.38,-78.4 275.75,-85 267.86,-88.13 259.25,-91.04 250.99,-93.59"/>
<polygon fill="#63b8ff" stroke="#63b8ff" points="326.83,-65.27 335.3,-58.91 324.71,-58.6 326.83,-65.27"/>
</a>
</g>
</g>
<!-- Node8 -->
<g id="Node000008" class="node">
<title>Node8</title>
<g id="a_Node000008"><a xlink:href="sv__native__refactored_8cc.html#a27703afec602cc5af011d5661a53b510" target="_top" xlink:title=" ">
<polygon fill="white" stroke="#666666" points="275.75,-58 147.25,-58 147.25,-38 275.75,-38 275.75,-58"/>
<text xml:space="preserve" text-anchor="middle" x="211.5" y="-44.5" font-family="Helvetica,sans-Serif" font-size="10.00">publisher_loop_immediate</text>
</a>
</g>
</g>
<!-- Node5&#45;&gt;Node8 -->
<g id="edge8_Node000005_Node000008" class="edge">
<title>Node5&#45;&gt;Node8</title>
<g id="a_edge8_Node000005_Node000008"><a xlink:title=" ">
<path fill="none" stroke="#63b8ff" d="M323.5,-48C308.44,-48 291.88,-48 276.25,-48"/>
<polygon fill="#63b8ff" stroke="#63b8ff" points="323.18,-51.5 333.18,-48 323.18,-44.5 323.18,-51.5"/>
</a>
</g>
</g>
<!-- Node6&#45;&gt;Node6 -->
<g id="edge7_Node000006_Node000006" class="edge">
<title>Node6&#45;&gt;Node6</title>
<g id="a_edge7_Node000006_Node000006"><a xlink:title=" ">
<path fill="none" stroke="#63b8ff" d="M239.05,-125.44C235.5,-129.3 226.32,-132 211.5,-132 184.4,-132 176.15,-122.98 186.73,-114.34"/>
<polygon fill="#63b8ff" stroke="#63b8ff" points="242.46,-124.66 236.63,-115.81 235.67,-126.36 242.46,-124.66"/>
</a>
</g>
</g>
<!-- Node7 -->
<g id="Node000007" class="node">
<title>Node7</title>
<g id="a_Node000007"><a xlink:href="sv__native__refactored_8cc.html#af14f0670e1b30534e33524f8c49a5580" target="_top" xlink:title="Start publishing.">
<polygon fill="white" stroke="#666666" points="111.25,-58 0,-58 0,-38 111.25,-38 111.25,-58"/>
<text xml:space="preserve" text-anchor="middle" x="55.62" y="-44.5" font-family="Helvetica,sans-Serif" font-size="10.00">npcap_publisher_start</text>
</a>
</g>
</g>
<!-- Node6&#45;&gt;Node7 -->
<g id="edge6_Node000006_Node000007" class="edge">
<title>Node6&#45;&gt;Node7</title>
<g id="a_edge6_Node000006_Node000007"><a xlink:title=" ">
<path fill="none" stroke="#63b8ff" d="M162.79,-90.2C157.52,-88.52 152.26,-86.77 147.25,-85 124.18,-76.85 98.39,-66.16 80.24,-58.37"/>
<polygon fill="#63b8ff" stroke="#63b8ff" points="161.48,-93.46 172.07,-93.09 163.56,-86.78 161.48,-93.46"/>
</a>
</g>
</g>
<!-- Node8&#45;&gt;Node7 -->
<g id="edge9_Node000008_Node000007" class="edge">
<title>Node8&#45;&gt;Node7</title>
<g id="a_edge9_Node000008_Node000007"><a xlink:title=" ">
<path fill="none" stroke="#63b8ff" d="M135.63,-48C127.53,-48 119.4,-48 111.6,-48"/>
<polygon fill="#63b8ff" stroke="#63b8ff" points="135.51,-51.5 145.51,-48 135.51,-44.5 135.51,-51.5"/>
</a>
</g>
</g>
<!-- Node8&#45;&gt;Node8 -->
<g id="edge10_Node000008_Node000008" class="edge">
<title>Node8&#45;&gt;Node8</title>
<g id="a_edge10_Node000008_Node000008"><a xlink:title=" ">
<path fill="none" stroke="#63b8ff" d="M239.05,-69.44C235.5,-73.3 226.32,-76 211.5,-76 184.4,-76 176.15,-66.98 186.73,-58.34"/>
<polygon fill="#63b8ff" stroke="#63b8ff" points="242.46,-68.66 236.63,-59.81 235.67,-70.36 242.46,-68.66"/>
</a>
</g>
</g>
<!-- Node9&#45;&gt;Node7 -->
<g id="edge12_Node000009_Node000007" class="edge">
<title>Node9&#45;&gt;Node7</title>
<g id="a_edge12_Node000009_Node000007"><a xlink:title=" ">
<path fill="none" stroke="#63b8ff" d="M157.12,-23.18C138.09,-27.88 116.92,-33.11 98.94,-37.55"/>
<polygon fill="#63b8ff" stroke="#63b8ff" points="157.71,-26.64 166.58,-20.85 156.03,-19.85 157.71,-26.64"/>
</a>
</g>
</g>
</g>
</svg>
