<?xml version="1.0" encoding="UTF-8" standalone="no"?>
<!DOCTYPE svg PUBLIC "-//W3C//DTD SVG 1.1//EN"
 "http://www.w3.org/Graphics/SVG/1.1/DTD/svg11.dtd">
<!-- Generated by graphviz version 14.1.2 (20260124.0452)
 -->
<!-- Title: sv_native_refactored.cc Pages: 1 -->
<svg width="1186pt" height="196pt"
 viewBox="0.00 0.00 1186.00 196.00" xmlns="http://www.w3.org/2000/svg" xmlns:xlink="http://www.w3.org/1999/xlink">
<g id="graph0" class="graph" transform="scale(1 1) rotate(0) translate(4 192)">
<title>sv_native_refactored.cc</title>
<!-- Node1 -->
<g id="Node000001" class="node">
<title>Node1</title>
<g id="a_Node000001"><a xlink:title="SV Publisher &#45; Main Entry Point for Tauri FFI.">
<polygon fill="#999999" stroke="#666666" points="712.38,-188 592.13,-188 592.13,-168 712.38,-168 712.38,-188"/>
<text xml:space="preserve" text-anchor="middle" x="652.26" y="-174.5" font-family="Helvetica,sans-Serif" font-size="10.00">sv_native_refactored.cc</text>
</a>
</g>
</g>
<!-- Node2 -->
<g id="Node000002" class="node">
<title>Node2</title>
<g id="a_Node000002"><a xlink:href="sv__native_8h.html" target="_top" xlink:title="Header for Tauri FFI &#45; C interface for Rust.">
<polygon fill="white" stroke="#666666" points="187.76,-76 78.76,-76 78.76,-56 187.76,-56 187.76,-76"/>
<text xml:space="preserve" text-anchor="middle" x="133.26" y="-62.5" font-family="Helvetica,sans-Serif" font-size="10.00">../include/sv_native.h</text>
</a>
</g>
</g>
<!-- Node1&#45;&gt;Node2 -->
<g id="edge1_Node000001_Node000002" class="edge">
<title>Node1&#45;&gt;Node2</title>
<g id="a_edge1_Node000001_Node000002"><a xlink:title=" ">
<path fill="none" stroke="#63b8ff" d="M591.73,-177.36C438.88,-177.64 46.61,-174.2 7.26,-132 -16.79,-106.22 25.5,-88.95 67.43,-78.72"/>
<polygon fill="#63b8ff" stroke="#63b8ff" points="68.17,-82.14 77.13,-76.49 66.6,-75.32 68.17,-82.14"/>
</a>
</g>
</g>
<!-- Node5 -->
<g id="Node000005" class="node">
<title>Node5</title>
<g id="a_Node000005"><a xlink:href="npcap__transmitter_8h.html" target="_top" xlink:title="Npcap Network Transmitter Module.">
<polygon fill="white" stroke="#666666" points="161.76,-132 16.76,-132 16.76,-112 161.76,-112 161.76,-132"/>
<text xml:space="preserve" text-anchor="middle" x="89.26" y="-118.5" font-family="Helvetica,sans-Serif" font-size="10.00">../include/npcap_transmitter.h</text>
</a>
</g>
</g>
<!-- Node1&#45;&gt;Node5 -->
<g id="edge4_Node000001_Node000005" class="edge">
<title>Node1&#45;&gt;Node5</title>
<g id="a_edge4_Node000001_Node000005"><a xlink:title=" ">
<path fill="none" stroke="#63b8ff" d="M591.86,-171.66C502.83,-163.73 330.8,-148.13 173.43,-132.21"/>
<polygon fill="#63b8ff" stroke="#63b8ff" points="173.94,-128.74 163.63,-131.21 173.23,-135.7 173.94,-128.74"/>
</a>
</g>
</g>
<!-- Node6 -->
<g id="Node000006" class="node">
<title>Node6</title>
<g id="a_Node000006"><a xlink:href="sv__encoder_8h.html" target="_top" xlink:title="IEC 61850&#45;9&#45;2LE SV Packet Encoder.">
<polygon fill="white" stroke="#666666" points="457.88,-132 340.63,-132 340.63,-112 457.88,-112 457.88,-132"/>
<text xml:space="preserve" text-anchor="middle" x="399.26" y="-118.5" font-family="Helvetica,sans-Serif" font-size="10.00">../include/sv_encoder.h</text>
</a>
</g>
</g>
<!-- Node1&#45;&gt;Node6 -->
<g id="edge6_Node000001_Node000006" class="edge">
<title>Node1&#45;&gt;Node6</title>
<g id="a_edge6_Node000001_Node000006"><a xlink:title=" ">
<path fill="none" stroke="#63b8ff" d="M607.9,-167.53C565.22,-158.42 500.56,-144.62 454.54,-134.8"/>
<polygon fill="#63b8ff" stroke="#63b8ff" points="455.55,-131.44 445.04,-132.77 454.09,-138.28 455.55,-131.44"/>
</a>
</g>
</g>
<!-- Node9 -->
<g id="Node000009" class="node">
<title>Node9</title>
<g id="a_Node000009"><a xlink:href="sv__stats_8h.html" target="_top" xlink:title="Transmission Statistics Module.">
<polygon fill="white" stroke="#666666" points="284.51,-132 180.01,-132 180.01,-112 284.51,-112 284.51,-132"/>
<text xml:space="preserve" text-anchor="middle" x="232.26" y="-118.5" font-family="Helvetica,sans-Serif" font-size="10.00">../include/sv_stats.h</text>
</a>
</g>
</g>
<!-- Node1&#45;&gt;Node9 -->
<g id="edge9_Node000001_Node000009" class="edge">
<title>Node1&#45;&gt;Node9</title>
<g id="a_edge9_Node000001_Node000009"><a xlink:title=" ">
<path fill="none" stroke="#63b8ff" d="M591.79,-169.48C521.3,-160.68 401.29,-145.57 298.26,-132 297.58,-131.91 296.89,-131.82 296.2,-131.73"/>
<polygon fill="#63b8ff" stroke="#63b8ff" points="296.72,-128.27 286.35,-130.42 295.8,-135.21 296.72,-128.27"/>
</a>
</g>
</g>
<!-- Node10 -->
<g id="Node000010" class="node">
<title>Node10</title>
<g id="a_Node000010"><a xlink:href="equation__processor_8h.html" target="_top" xlink:title="Equation Processing for SV Publisher.">
<polygon fill="white" stroke="#666666" points="314.76,-76 205.76,-76 205.76,-56 314.76,-56 314.76,-76"/>
<text xml:space="preserve" text-anchor="middle" x="260.26" y="-62.5" font-family="Helvetica,sans-Serif" font-size="10.00">equation_processor.h</text>
</a>
</g>
</g>
<!-- Node1&#45;&gt;Node10 -->
<g id="edge11_Node000001_Node000010" class="edge">
<title>Node1&#45;&gt;Node10</title>
<g id="a_edge11_Node000001_Node000010"><a xlink:title=" ">
<path fill="none" stroke="#63b8ff" d="M591.95,-172.83C512.13,-166.57 376.25,-153.2 331.26,-132 308.22,-121.15 287.45,-100.19 274.42,-84.99"/>
<polygon fill="#63b8ff" stroke="#63b8ff" points="277.37,-83.08 268.31,-77.59 271.97,-87.53 277.37,-83.08"/>
</a>
</g>
</g>
<!-- Node11 -->
<g id="Node000011" class="node">
<title>Node11</title>
<g id="a_Node000011"><a xlink:title=" ">
<polygon fill="#e0e0e0" stroke="#999999" points="518.38,-132 476.13,-132 476.13,-112 518.38,-112 518.38,-132"/>
<text xml:space="preserve" text-anchor="middle" x="497.26" y="-118.5" font-family="Helvetica,sans-Serif" font-size="10.00">cstdio</text>
</a>
</g>
</g>
<!-- Node1&#45;&gt;Node11 -->
<g id="edge14_Node000001_Node000011" class="edge">
<title>Node1&#45;&gt;Node11</title>
<g id="a_edge14_Node000001_Node000011"><a xlink:title=" ">
<path fill="none" stroke="#63b8ff" d="M625.26,-167.59C598.46,-158.26 557.39,-143.95 529.03,-134.07"/>
<polygon fill="#63b8ff" stroke="#63b8ff" points="530.5,-130.87 519.9,-130.89 528.19,-137.48 530.5,-130.87"/>
</a>
</g>
</g>
<!-- Node12 -->
<g id="Node000012" class="node">
<title>Node12</title>
<g id="a_Node000012"><a xlink:title=" ">
<polygon fill="#e0e0e0" stroke="#999999" points="580.51,-132 536.01,-132 536.01,-112 580.51,-112 580.51,-132"/>
<text xml:space="preserve" text-anchor="middle" x="558.26" y="-118.5" font-family="Helvetica,sans-Serif" font-size="10.00">cstdlib</text>
</a>
</g>
</g>
<!-- Node1&#45;&gt;Node12 -->
<g id="edge15_Node000001_Node000012" class="edge">
<title>Node1&#45;&gt;Node12</title>
<g id="a_edge15_Node000001_Node000012"><a xlink:title=" ">
<path fill="none" stroke="#63b8ff" d="M635.88,-167.59C621.68,-159.44 600.87,-147.48 584.38,-138"/>
<polygon fill="#63b8ff" stroke="#63b8ff" points="586.48,-135.18 576.07,-133.23 583,-141.25 586.48,-135.18"/>
</a>
</g>
</g>
<!-- Node13 -->
<g id="Node000013" class="node">
<title>Node13</title>
<g id="a_Node000013"><a xlink:title=" ">
<polygon fill="#e0e0e0" stroke="#999999" points="643.88,-132 598.63,-132 598.63,-112 643.88,-112 643.88,-132"/>
<text xml:space="preserve" text-anchor="middle" x="621.26" y="-118.5" font-family="Helvetica,sans-Serif" font-size="10.00">cstring</text>
</a>
</g>
</g>
<!-- Node1&#45;&gt;Node13 -->
<g id="edge16_Node000001_Node000013" class="edge">
<title>Node1&#45;&gt;Node13</title>
<g id="a_edge16_Node000001_Node000013"><a xlink:title=" ">
<path fill="none" stroke="#63b8ff" d="M646.86,-167.59C642.81,-160.55 637.14,-150.67 632.16,-142"/>
<polygon fill="#63b8ff" stroke="#63b8ff" points="635.36,-140.54 627.35,-133.61 629.29,-144.03 635.36,-140.54"/>
</a>
</g>
</g>
<!-- Node14 -->
<g id="Node000014" class="node">
<title>Node14</title>
<g id="a_Node000014"><a xlink:title=" ">
<polygon fill="#e0e0e0" stroke="#999999" points="704.76,-132 661.76,-132 661.76,-112 704.76,-112 704.76,-132"/>
<text xml:space="preserve" text-anchor="middle" x="683.26" y="-118.5" font-family="Helvetica,sans-Serif" font-size="10.00">cmath</text>
</a>
</g>
</g>
<!-- Node1&#45;&gt;Node14 -->
<g id="edge17_Node000001_Node000014" class="edge">
<title>Node1&#45;&gt;Node14</title>
<g id="a_edge17_Node000001_Node000014"><a xlink:title=" ">
<path fill="none" stroke="#63b8ff" d="M657.66,-167.59C661.7,-160.55 667.37,-150.67 672.35,-142"/>
<polygon fill="#63b8ff" stroke="#63b8ff" points="675.22,-144.03 677.16,-133.61 669.15,-140.54 675.22,-144.03"/>
</a>
</g>
</g>
<!-- Node15 -->
<g id="Node000015" class="node">
<title>Node15</title>
<g id="a_Node000015"><a xlink:title=" ">
<polygon fill="#e0e0e0" stroke="#999999" points="757.26,-132 723.26,-132 723.26,-112 757.26,-112 757.26,-132"/>
<text xml:space="preserve" text-anchor="middle" x="740.26" y="-118.5" font-family="Helvetica,sans-Serif" font-size="10.00">new</text>
</a>
</g>
</g>
<!-- Node1&#45;&gt;Node15 -->
<g id="edge18_Node000001_Node000015" class="edge">
<title>Node1&#45;&gt;Node15</title>
<g id="a_edge18_Node000001_Node000015"><a xlink:title=" ">
<path fill="none" stroke="#63b8ff" d="M667.58,-167.59C680.75,-159.51 699.99,-147.71 715.37,-138.27"/>
<polygon fill="#63b8ff" stroke="#63b8ff" points="716.83,-141.48 723.52,-133.27 713.16,-135.52 716.83,-141.48"/>
</a>
</g>
</g>
<!-- Node16 -->
<g id="Node000016" class="node">
<title>Node16</title>
<g id="a_Node000016"><a xlink:title=" ">
<polygon fill="#e0e0e0" stroke="#999999" points="820.88,-132 775.63,-132 775.63,-112 820.88,-112 820.88,-132"/>
<text xml:space="preserve" text-anchor="middle" x="798.26" y="-118.5" font-family="Helvetica,sans-Serif" font-size="10.00">atomic</text>
</a>
</g>
</g>
<!-- Node1&#45;&gt;Node16 -->
<g id="edge19_Node000001_Node000016" class="edge">
<title>Node1&#45;&gt;Node16</title>
<g id="a_edge19_Node000001_Node000016"><a xlink:title=" ">
<path fill="none" stroke="#63b8ff" d="M677.69,-167.59C701.85,-158.66 738.33,-145.17 764.83,-135.36"/>
<polygon fill="#63b8ff" stroke="#63b8ff" points="765.93,-138.69 774.09,-131.94 763.5,-132.12 765.93,-138.69"/>
</a>
</g>
</g>
<!-- Node17 -->
<g id="Node000017" class="node">
<title>Node17</title>
<g id="a_Node000017"><a xlink:title=" ">
<polygon fill="#e0e0e0" stroke="#999999" points="881.76,-132 838.76,-132 838.76,-112 881.76,-112 881.76,-132"/>
<text xml:space="preserve" text-anchor="middle" x="860.26" y="-118.5" font-family="Helvetica,sans-Serif" font-size="10.00">thread</text>
</a>
</g>
</g>
<!-- Node1&#45;&gt;Node17 -->
<g id="edge20_Node000001_Node000017" class="edge">
<title>Node1&#45;&gt;Node17</title>
<g id="a_edge20_Node000001_Node000017"><a xlink:title=" ">
<path fill="none" stroke="#63b8ff" d="M691.63,-167.57C725.38,-159.37 775.57,-146.91 827.28,-132.74"/>
<polygon fill="#63b8ff" stroke="#63b8ff" points="828.16,-136.13 836.87,-130.1 826.3,-129.38 828.16,-136.13"/>
</a>
</g>
</g>
<!-- Node18 -->
<g id="Node000018" class="node">
<title>Node18</title>
<g id="a_Node000018"><a xlink:title=" ">
<polygon fill="#e0e0e0" stroke="#999999" points="942.76,-132 899.76,-132 899.76,-112 942.76,-112 942.76,-132"/>
<text xml:space="preserve" text-anchor="middle" x="921.26" y="-118.5" font-family="Helvetica,sans-Serif" font-size="10.00">mutex</text>
</a>
</g>
</g>
<!-- Node1&#45;&gt;Node18 -->
<g id="edge21_Node000001_Node000018" class="edge">
<title>Node1&#45;&gt;Node18</title>
<g id="a_edge21_Node000001_Node000018"><a xlink:title=" ">
<path fill="none" stroke="#63b8ff" d="M712.05,-167.54C758.06,-159.85 823.41,-148.06 888.51,-132.49"/>
<polygon fill="#63b8ff" stroke="#63b8ff" points="889.01,-135.97 897.9,-130.21 887.36,-129.17 889.01,-135.97"/>
</a>
</g>
</g>
<!-- Node19 -->
<g id="Node000019" class="node">
<title>Node19</title>
<g id="a_Node000019"><a xlink:title=" ">
<polygon fill="#e0e0e0" stroke="#999999" points="1005.88,-132 960.63,-132 960.63,-112 1005.88,-112 1005.88,-132"/>
<text xml:space="preserve" text-anchor="middle" x="983.26" y="-118.5" font-family="Helvetica,sans-Serif" font-size="10.00">chrono</text>
</a>
</g>
</g>
<!-- Node1&#45;&gt;Node19 -->
<g id="edge22_Node000001_Node000019" class="edge">
<title>Node1&#45;&gt;Node19</title>
<g id="a_edge22_Node000001_Node000019"><a xlink:title=" ">
<path fill="none" stroke="#63b8ff" d="M712.74,-170.34C771.14,-163.36 862.22,-151.07 949.19,-132.45"/>
<polygon fill="#63b8ff" stroke="#63b8ff" points="949.82,-135.9 958.84,-130.35 948.33,-129.06 949.82,-135.9"/>
</a>
</g>
</g>
<!-- Node20 -->
<g id="Node000020" class="node">
<title>Node20</title>
<g id="a_Node000020"><a xlink:title=" ">
<polygon fill="#e0e0e0" stroke="#999999" points="1086.51,-132 1024.01,-132 1024.01,-112 1086.51,-112 1086.51,-132"/>
<text xml:space="preserve" text-anchor="middle" x="1055.26" y="-118.5" font-family="Helvetica,sans-Serif" font-size="10.00">windows.h</text>
</a>
</g>
</g>
<!-- Node1&#45;&gt;Node20 -->
<g id="edge23_Node000001_Node000020" class="edge">
<title>Node1&#45;&gt;Node20</title>
<g id="a_edge23_Node000001_Node000020"><a xlink:title=" ">
<path fill="none" stroke="#63b8ff" d="M712.58,-171.35C782.5,-164.39 901.4,-151.31 1012.77,-132.29"/>
<polygon fill="#63b8ff" stroke="#63b8ff" points="1013.12,-135.78 1022.38,-130.62 1011.93,-128.88 1013.12,-135.78"/>
</a>
</g>
</g>
<!-- Node21 -->
<g id="Node000021" class="node">
<title>Node21</title>
<g id="a_Node000021"><a xlink:title=" ">
<polygon fill="#e0e0e0" stroke="#999999" points="1177.76,-132 1104.76,-132 1104.76,-112 1177.76,-112 1177.76,-132"/>
<text xml:space="preserve" text-anchor="middle" x="1141.26" y="-118.5" font-family="Helvetica,sans-Serif" font-size="10.00">mmsystem.h</text>
</a>
</g>
</g>
<!-- Node1&#45;&gt;Node21 -->
<g id="edge24_Node000001_Node000021" class="edge">
<title>Node1&#45;&gt;Node21</title>
<g id="a_edge24_Node000001_Node000021"><a xlink:title=" ">
<path fill="none" stroke="#63b8ff" d="M712.66,-172.63C795.97,-166.22 951.01,-152.88 1093.31,-132.16"/>
<polygon fill="#63b8ff" stroke="#63b8ff" points="1093.52,-135.66 1102.9,-130.74 1092.5,-128.74 1093.52,-135.66"/>
</a>
</g>
</g>
<!-- Node3 -->
<g id="Node000003" class="node">
<title>Node3</title>
<g id="a_Node000003"><a xlink:title=" ">
<polygon fill="#e0e0e0" stroke="#999999" points="186.38,-20 138.13,-20 138.13,0 186.38,0 186.38,-20"/>
<text xml:space="preserve" text-anchor="middle" x="162.26" y="-6.5" font-family="Helvetica,sans-Serif" font-size="10.00">stdint.h</text>
</a>
</g>
</g>
<!-- Node2&#45;&gt;Node3 -->
<g id="edge2_Node000002_Node000003" class="edge">
<title>Node2&#45;&gt;Node3</title>
<g id="a_edge2_Node000002_Node000003"><a xlink:title=" ">
<path fill="none" stroke="#63b8ff" d="M138.31,-55.59C142.05,-48.63 147.28,-38.89 151.9,-30.29"/>
<polygon fill="#63b8ff" stroke="#63b8ff" points="154.9,-32.1 156.55,-21.63 148.73,-28.79 154.9,-32.1"/>
</a>
</g>
</g>
<!-- Node4 -->
<g id="Node000004" class="node">
<title>Node4</title>
<g id="a_Node000004"><a xlink:title=" ">
<polygon fill="#e0e0e0" stroke="#999999" points="270.88,-20 219.63,-20 219.63,0 270.88,0 270.88,-20"/>
<text xml:space="preserve" text-anchor="middle" x="245.26" y="-6.5" font-family="Helvetica,sans-Serif" font-size="10.00">stddef.h</text>
</a>
</g>
</g>
<!-- Node2&#45;&gt;Node4 -->
<g id="edge3_Node000002_Node000004" class="edge">
<title>Node2&#45;&gt;Node4</title>
<g id="a_edge3_Node000002_Node000004"><a xlink:title=" ">
<path fill="none" stroke="#63b8ff" d="M152.77,-55.59C170,-47.28 195.42,-35.03 215.24,-25.47"/>
<polygon fill="#63b8ff" stroke="#63b8ff" points="216.74,-28.63 224.23,-21.14 213.7,-22.33 216.74,-28.63"/>
</a>
</g>
</g>
<!-- Node5&#45;&gt;Node2 -->
<g id="edge5_Node000005_Node000002" class="edge">
<title>Node5&#45;&gt;Node2</title>
<g id="a_edge5_Node000005_Node000002"><a xlink:title=" ">
<path fill="none" stroke="#63b8ff" d="M96.92,-111.59C102.85,-104.32 111.24,-94.02 118.47,-85.15"/>
<polygon fill="#63b8ff" stroke="#63b8ff" points="121.12,-87.43 124.72,-77.47 115.69,-83.01 121.12,-87.43"/>
</a>
</g>
</g>
<!-- Node7 -->
<g id="Node000007" class="node">
<title>Node7</title>
<g id="a_Node000007"><a xlink:title=" ">
<polygon fill="#e0e0e0" stroke="#999999" points="388.88,-76 343.63,-76 343.63,-56 388.88,-56 388.88,-76"/>
<text xml:space="preserve" text-anchor="middle" x="366.26" y="-62.5" font-family="Helvetica,sans-Serif" font-size="10.00">cstdint</text>
</a>
</g>
</g>
<!-- Node6&#45;&gt;Node7 -->
<g id="edge7_Node000006_Node000007" class="edge">
<title>Node6&#45;&gt;Node7</title>
<g id="a_edge7_Node000006_Node000007"><a xlink:title=" ">
<path fill="none" stroke="#63b8ff" d="M393.51,-111.59C389.2,-104.55 383.17,-94.67 377.87,-86"/>
<polygon fill="#63b8ff" stroke="#63b8ff" points="380.93,-84.3 372.73,-77.59 374.96,-87.95 380.93,-84.3"/>
</a>
</g>
</g>
<!-- Node8 -->
<g id="Node000008" class="node">
<title>Node8</title>
<g id="a_Node000008"><a xlink:title=" ">
<polygon fill="#e0e0e0" stroke="#999999" points="455.38,-76 407.13,-76 407.13,-56 455.38,-56 455.38,-76"/>
<text xml:space="preserve" text-anchor="middle" x="431.26" y="-62.5" font-family="Helvetica,sans-Serif" font-size="10.00">cstddef</text>
</a>
</g>
</g>
<!-- Node6&#45;&gt;Node8 -->
<g id="edge8_Node000006_Node000008" class="edge">
<title>Node6&#45;&gt;Node8</title>
<g id="a_edge8_Node000006_Node000008"><a xlink:title=" ">
<path fill="none" stroke="#63b8ff" d="M404.83,-111.59C409.01,-104.55 414.86,-94.67 420,-86"/>
<polygon fill="#63b8ff" stroke="#63b8ff" points="422.89,-87.99 424.97,-77.6 416.87,-84.42 422.89,-87.99"/>
</a>
</g>
</g>
<!-- Node9&#45;&gt;Node2 -->
<g id="edge10_Node000009_Node000002" class="edge">
<title>Node9&#45;&gt;Node2</title>
<g id="a_edge10_Node000009_Node000002"><a xlink:title=" ">
<path fill="none" stroke="#63b8ff" d="M215.01,-111.59C199.91,-103.36 177.73,-91.26 160.27,-81.74"/>
<polygon fill="#63b8ff" stroke="#63b8ff" points="162.42,-78.92 151.96,-77.2 159.07,-85.07 162.42,-78.92"/>
</a>
</g>
</g>
<!-- Node10&#45;&gt;Node3 -->
<g id="edge12_Node000010_Node000003" class="edge">
<title>Node10&#45;&gt;Node3</title>
<g id="a_edge12_Node000010_Node000003"><a xlink:title=" ">
<path fill="none" stroke="#63b8ff" d="M243.19,-55.59C228.38,-47.44 206.69,-35.48 189.49,-26"/>
<polygon fill="#63b8ff" stroke="#63b8ff" points="191.23,-22.97 180.79,-21.21 187.85,-29.1 191.23,-22.97"/>
</a>
</g>
</g>
<!-- Node10&#45;&gt;Node4 -->
<g id="edge13_Node000010_Node000004" class="edge">
<title>Node10&#45;&gt;Node4</title>
<g id="a_edge13_Node000010_Node000004"><a xlink:title=" ">
<path fill="none" stroke="#63b8ff" d="M257.64,-55.59C255.77,-48.86 253.18,-39.53 250.85,-31.15"/>
<polygon fill="#63b8ff" stroke="#63b8ff" points="254.29,-30.46 248.24,-21.76 247.55,-32.33 254.29,-30.46"/>
</a>
</g>
</g>
</g>
</svg>
