<?xml version="1.0" encoding="UTF-8" standalone="no"?>
<!DOCTYPE svg PUBLIC "-//W3C//DTD SVG 1.1//EN"
 "http://www.w3.org/Graphics/SVG/1.1/DTD/svg11.dtd">
<!-- Generated by graphviz version 14.1.2 (20260124.0452)
 -->
<!-- Title: sv_mp_is_running Pages: 1 -->
<svg width="424pt" height="66pt"
 viewBox="0.00 0.00 424.00 66.00" xmlns="http://www.w3.org/2000/svg" xmlns:xlink="http://www.w3.org/1999/xlink">
<g id="graph0" class="graph" transform="scale(1 1) rotate(0) translate(4 62)">
<title>sv_mp_is_running</title>
<!-- Node1 -->
<g id="Node000001" class="node">
<title>Node1</title>
<g id="a_Node000001"><a xlink:title=" ">
<polygon fill="#999999" stroke="#666666" points="94.75,-39 0,-39 0,-19 94.75,-19 94.75,-39"/>
<text xml:space="preserve" text-anchor="middle" x="47.38" y="-25.5" font-family="Helvetica,sans-Serif" font-size="10.00">sv_mp_is_running</text>
</a>
</g>
</g>
<!-- Node2 -->
<g id="Node000002" class="node">
<title>Node2</title>
<g id="a_Node000002"><a xlink:href="class_sv_controller.html#afc102679fe80499c39d27cb8640394cc" target="_top" xlink:title=" ">
<polygon fill="white" stroke="#666666" points="246.88,-58 134.12,-58 134.12,-38 246.88,-38 246.88,-58"/>
<text xml:space="preserve" text-anchor="middle" x="190.5" y="-44.5" font-family="Helvetica,sans-Serif" font-size="10.00">SvController::instance</text>
</a>
</g>
</g>
<!-- Node1&#45;&gt;Node2 -->
<g id="edge1_Node000001_Node000002" class="edge">
<title>Node1&#45;&gt;Node2</title>
<g id="a_edge1_Node000001_Node000002"><a xlink:title=" ">
<path fill="none" stroke="#63b8ff" d="M94.98,-35.27C103.88,-36.47 113.36,-37.75 122.75,-39.01"/>
<polygon fill="#63b8ff" stroke="#63b8ff" points="122.24,-42.48 132.62,-40.34 123.18,-35.54 122.24,-42.48"/>
</a>
</g>
</g>
<!-- Node4 -->
<g id="Node000004" class="node">
<title>Node4</title>
<g id="a_Node000004"><a xlink:href="class_sv_controller.html#acd42f31d359ef053588fdaf246483359" target="_top" xlink:title=" ">
<polygon fill="white" stroke="#666666" points="250.25,-20 130.75,-20 130.75,0 250.25,0 250.25,-20"/>
<text xml:space="preserve" text-anchor="middle" x="190.5" y="-6.5" font-family="Helvetica,sans-Serif" font-size="10.00">SvController::isRunning</text>
</a>
</g>
</g>
<!-- Node1&#45;&gt;Node4 -->
<g id="edge3_Node000001_Node000004" class="edge">
<title>Node1&#45;&gt;Node4</title>
<g id="a_edge3_Node000001_Node000004"><a xlink:title=" ">
<path fill="none" stroke="#63b8ff" d="M94.98,-22.73C102.76,-21.68 110.98,-20.57 119.2,-19.46"/>
<polygon fill="#63b8ff" stroke="#63b8ff" points="119.42,-22.97 128.87,-18.16 118.49,-16.03 119.42,-22.97"/>
</a>
</g>
</g>
<!-- Node3 -->
<g id="Node000003" class="node">
<title>Node3</title>
<g id="a_Node000003"><a xlink:href="class_sv_controller.html#aa5d7c635a8015c90217076cf4722542c" target="_top" xlink:title=" ">
<polygon fill="white" stroke="#666666" points="416.25,-58 286.25,-58 286.25,-38 416.25,-38 416.25,-58"/>
<text xml:space="preserve" text-anchor="middle" x="351.25" y="-44.5" font-family="Helvetica,sans-Serif" font-size="10.00">SvController::SvController</text>
</a>
</g>
</g>
<!-- Node2&#45;&gt;Node3 -->
<g id="edge2_Node000002_Node000003" class="edge">
<title>Node2&#45;&gt;Node3</title>
<g id="a_edge2_Node000002_Node000003"><a xlink:title=" ">
<path fill="none" stroke="#63b8ff" d="M247.02,-48C255.92,-48 265.26,-48 274.54,-48"/>
<polygon fill="#63b8ff" stroke="#63b8ff" points="274.27,-51.5 284.27,-48 274.27,-44.5 274.27,-51.5"/>
</a>
</g>
</g>
</g>
</svg>
