<?xml version="1.0" encoding="UTF-8" standalone="no"?>
<!DOCTYPE svg PUBLIC "-//W3C//DTD SVG 1.1//EN"
 "http://www.w3.org/Graphics/SVG/1.1/DTD/svg11.dtd">
<!-- Generated by graphviz version 14.1.2 (20260124.0452)
 -->
<!-- Title: publisher_loop_immediate Pages: 1 -->
<!--zoomable 505 -->

<svg id="main" version="1.1" xmlns="http://www.w3.org/2000/svg" xmlns:xlink="http://www.w3.org/1999/xlink" xml:space="preserve" onload="init(evt)">

<style type="text/css"><![CDATA[
.node, .edge {opacity: 0.7;}
.node.selected, .edge.selected {opacity: 1;}
.edge:hover path { stroke: red; }
.edge:hover polygon { stroke: red; fill: red; }
]]></style>

<defs>
  <circle id="rim" cx="0" cy="0" r="7"/>
  <circle id="rim2" cx="0" cy="0" r="3.5"/>
  <g id="zoomPlus">
    <use xlink:href="#rim" fill="#404040"><set attributeName="fill" to="#808080" begin="zoomplus.mouseover" end="zoomplus.mouseout"/></use>
    <path d="M-4,0h8M0,-4v8" fill="none" stroke="white" stroke-width="1.5" pointer-events="none"/>
  </g>
  <g id="zoomMin">
    <use xlink:href="#rim" fill="#404040"><set attributeName="fill" to="#808080" begin="zoomminus.mouseover" end="zoomminus.mouseout"/></use>
    <path d="M-4,0h8" fill="none" stroke="white" stroke-width="1.5" pointer-events="none"/>
  </g>
  <g id="arrowUp" transform="translate(30 24)">
    <use xlink:href="#rim"/>
    <path pointer-events="none" fill="none" stroke="white" stroke-width="1.5" d="M0,-3.0v7 M-2.5,-0.5L0,-3.0L2.5,-0.5"/>
  </g>
  <g id="arrowRight" transform="rotate(90) translate(36 -43)">
    <use xlink:href="#rim"/>
    <path pointer-events="none" fill="none" stroke="white" stroke-width="1.5" d="M0,-3.0v7 M-2.5,-0.5L0,-3.0L2.5,-0.5"/>
  </g>
  <g id="arrowDown" transform="rotate(180) translate(-30 -48)">
    <use xlink:href="#rim"/>
    <path pointer-events="none" fill="none" stroke="white" stroke-width="1.5" d="M0,-3.0v7 M-2.5,-0.5L0,-3.0L2.5,-0.5"/>
  </g>
  <g id="arrowLeft" transform="rotate(270) translate(-36 17)">
    <use xlink:href="#rim"/>
    <path pointer-events="none" fill="none" stroke="white" stroke-width="1.5" d="M0,-3.0v7 M-2.5,-0.5L0,-3.0L2.5,-0.5"/>
  </g>
  <g id="resetDef">
    <use xlink:href="#rim2" fill="#404040"><set attributeName="fill" to="#808080" begin="reset.mouseover" end="reset.mouseout"/></use>
  </g>
</defs>
<script type="application/ecmascript">
var viewWidth = 653;
var viewHeight = 505;
var sectionId = 'dynsection-22';
</script>
<script type="application/ecmascript" xlink:href="svg.min.js"/>
<svg id="graph" class="graph">
<g id="viewport">
<title>publisher_loop_immediate</title>
<!-- Node1 -->
<g id="Node000001" class="node">
<title>Node1</title>
<g id="a_Node000001"><a xlink:title=" ">
<polygon fill="#999999" stroke="#666666" points="128.5,-257 0,-257 0,-237 128.5,-237 128.5,-257"/>
<text xml:space="preserve" text-anchor="middle" x="64.25" y="-243.5" font-family="Helvetica,sans-Serif" font-size="10.00">publisher_loop_immediate</text>
</a>
</g>
</g>
<!-- Node1&#45;&gt;Node1 -->
<g id="edge22_Node000001_Node000001" class="edge">
<title>Node1&#45;&gt;Node1</title>
<g id="a_edge22_Node000001_Node000001"><a xlink:title=" ">
<path fill="none" stroke="#63b8ff" d="M37.22,-257.34C25.67,-265.98 34.68,-275 64.25,-275 80.42,-275 90.45,-272.3 94.32,-268.44"/>
<polygon fill="#63b8ff" stroke="#63b8ff" points="97.7,-267.52 91.68,-258.8 90.94,-269.37 97.7,-267.52"/>
</a>
</g>
</g>
<!-- Node2 -->
<g id="Node000002" class="node">
<title>Node2</title>
<g id="a_Node000002"><a xlink:href="sv__native__refactored_8cc.html#aa18783d233bbd1ff97330bfb332b2305" target="_top" xlink:title=" ">
<polygon fill="white" stroke="#666666" points="294.88,-497 173.88,-497 173.88,-477 294.88,-477 294.88,-497"/>
<text xml:space="preserve" text-anchor="middle" x="234.38" y="-483.5" font-family="Helvetica,sans-Serif" font-size="10.00">check_duration_elapsed</text>
</a>
</g>
</g>
<!-- Node1&#45;&gt;Node2 -->
<g id="edge1_Node000001_Node000002" class="edge">
<title>Node1&#45;&gt;Node2</title>
<g id="a_edge1_Node000001_Node000002"><a xlink:title=" ">
<path fill="none" stroke="#63b8ff" d="M67.02,-257.25C73.46,-291.53 98.84,-403.32 164.5,-463 168.18,-466.35 172.36,-469.23 176.79,-471.72"/>
<polygon fill="#63b8ff" stroke="#63b8ff" points="174.92,-474.7 185.44,-475.89 177.96,-468.4 174.92,-474.7"/>
</a>
</g>
</g>
<!-- Node3 -->
<g id="Node000003" class="node">
<title>Node3</title>
<g id="a_Node000003"><a xlink:href="sv__native__refactored_8cc.html#a73998198f95089da56c389e492a471e5" target="_top" xlink:title=" ">
<polygon fill="white" stroke="#666666" points="445.12,-459 372.88,-459 372.88,-439 445.12,-439 445.12,-459"/>
<text xml:space="preserve" text-anchor="middle" x="409" y="-445.5" font-family="Helvetica,sans-Serif" font-size="10.00">get_time_ms</text>
</a>
</g>
</g>
<!-- Node1&#45;&gt;Node3 -->
<g id="edge5_Node000001_Node000003" class="edge">
<title>Node1&#45;&gt;Node3</title>
<g id="a_edge5_Node000001_Node000003"><a xlink:title=" ">
<path fill="none" stroke="#63b8ff" d="M67.24,-257.21C74.1,-289.23 99.93,-388.08 164.5,-430 223.68,-468.43 308.82,-464.92 361.16,-457.77"/>
<polygon fill="#63b8ff" stroke="#63b8ff" points="361.56,-461.24 370.94,-456.32 360.54,-454.32 361.56,-461.24"/>
</a>
</g>
</g>
<!-- Node5 -->
<g id="Node000005" class="node">
<title>Node5</title>
<g id="a_Node000005"><a xlink:href="sv__native__refactored_8cc.html#a866cf9a417d9328fcde6e029c4ca97b0" target="_top" xlink:title=" ">
<polygon fill="white" stroke="#666666" points="291.5,-421 177.25,-421 177.25,-401 291.5,-401 291.5,-421"/>
<text xml:space="preserve" text-anchor="middle" x="234.38" y="-407.5" font-family="Helvetica,sans-Serif" font-size="10.00">elevate_thread_priority</text>
</a>
</g>
</g>
<!-- Node1&#45;&gt;Node5 -->
<g id="edge4_Node000001_Node000005" class="edge">
<title>Node1&#45;&gt;Node5</title>
<g id="a_edge4_Node000001_Node000005"><a xlink:title=" ">
<path fill="none" stroke="#63b8ff" d="M69.28,-257.26C80.25,-283.85 113.35,-355.49 164.5,-392 166.32,-393.3 168.22,-394.51 170.19,-395.63"/>
<polygon fill="#63b8ff" stroke="#63b8ff" points="168.57,-398.74 179.09,-399.94 171.62,-392.44 168.57,-398.74"/>
</a>
</g>
</g>
<!-- Node6 -->
<g id="Node000006" class="node">
<title>Node6</title>
<g id="a_Node000006"><a xlink:href="npcap__transmitter__impl_8cc.html#adc39100394280e20f1f1a569849bdf2d" target="_top" xlink:title="Send a single packet.">
<polygon fill="white" stroke="#666666" points="285.88,-383 182.88,-383 182.88,-363 285.88,-363 285.88,-383"/>
<text xml:space="preserve" text-anchor="middle" x="234.38" y="-369.5" font-family="Helvetica,sans-Serif" font-size="10.00">npcap_send_packet</text>
</a>
</g>
</g>
<!-- Node1&#45;&gt;Node6 -->
<g id="edge6_Node000001_Node000006" class="edge">
<title>Node1&#45;&gt;Node6</title>
<g id="a_edge6_Node000001_Node000006"><a xlink:title=" ">
<path fill="none" stroke="#63b8ff" d="M71.84,-257.3C86.06,-278.69 121.84,-328.08 164.5,-354 166.96,-355.49 169.54,-356.87 172.19,-358.15"/>
<polygon fill="#63b8ff" stroke="#63b8ff" points="170.76,-361.34 181.34,-361.96 173.46,-354.88 170.76,-361.34"/>
</a>
</g>
</g>
<!-- Node7 -->
<g id="Node000007" class="node">
<title>Node7</title>
<g id="a_Node000007"><a xlink:href="npcap__transmitter__impl_8cc.html#a53c0941475ca471f1cc998f9641f8b5e" target="_top" xlink:title="Send a packet with trailing zero&#45;padding.">
<polygon fill="white" stroke="#666666" points="304.25,-345 164.5,-345 164.5,-325 304.25,-325 304.25,-345"/>
<text xml:space="preserve" text-anchor="middle" x="234.38" y="-331.5" font-family="Helvetica,sans-Serif" font-size="10.00">npcap_send_packet_padded</text>
</a>
</g>
</g>
<!-- Node1&#45;&gt;Node7 -->
<g id="edge7_Node000001_Node000007" class="edge">
<title>Node1&#45;&gt;Node7</title>
<g id="a_edge7_Node000001_Node000007"><a xlink:title=" ">
<path fill="none" stroke="#63b8ff" d="M77.25,-257.39C95.12,-272.37 130.3,-299.97 164.5,-316 168.26,-317.76 172.21,-319.39 176.24,-320.88"/>
<polygon fill="#63b8ff" stroke="#63b8ff" points="175,-324.16 185.59,-324.05 177.25,-317.53 175,-324.16"/>
</a>
</g>
</g>
<!-- Node8 -->
<g id="Node000008" class="node">
<title>Node8</title>
<g id="a_Node000008"><a xlink:href="sv__stats__impl_8cc.html#a280e159261a15485b1e0309f59df84e8" target="_top" xlink:title="Record a failed packet transmission.">
<polygon fill="white" stroke="#666666" points="285.12,-307 183.62,-307 183.62,-275 285.12,-275 285.12,-307"/>
<text xml:space="preserve" text-anchor="start" x="191.62" y="-293.5" font-family="Helvetica,sans-Serif" font-size="10.00">npcap_stats_record</text>
<text xml:space="preserve" text-anchor="middle" x="234.38" y="-281.5" font-family="Helvetica,sans-Serif" font-size="10.00">_failure</text>
</a>
</g>
</g>
<!-- Node1&#45;&gt;Node8 -->
<g id="edge8_Node000001_Node000008" class="edge">
<title>Node1&#45;&gt;Node8</title>
<g id="a_edge8_Node000001_Node000008"><a xlink:title=" ">
<path fill="none" stroke="#63b8ff" d="M105.09,-257.43C125.11,-262.67 149.81,-269.13 172.17,-274.98"/>
<polygon fill="#63b8ff" stroke="#63b8ff" points="171.25,-278.36 181.81,-277.5 173.02,-271.59 171.25,-278.36"/>
</a>
</g>
</g>
<!-- Node9 -->
<g id="Node000009" class="node">
<title>Node9</title>
<g id="a_Node000009"><a xlink:href="sv__stats__impl_8cc.html#a210b53baa9526fbb867d2a6b3ad925c4" target="_top" xlink:title="Record a successful packet transmission.">
<polygon fill="white" stroke="#666666" points="459.75,-272 358.25,-272 358.25,-240 459.75,-240 459.75,-272"/>
<text xml:space="preserve" text-anchor="start" x="366.25" y="-258.5" font-family="Helvetica,sans-Serif" font-size="10.00">npcap_stats_record</text>
<text xml:space="preserve" text-anchor="middle" x="409" y="-246.5" font-family="Helvetica,sans-Serif" font-size="10.00">_packet</text>
</a>
</g>
</g>
<!-- Node1&#45;&gt;Node9 -->
<g id="edge9_Node000001_Node000009" class="edge">
<title>Node1&#45;&gt;Node9</title>
<g id="a_edge9_Node000001_Node000009"><a xlink:title=" ">
<path fill="none" stroke="#63b8ff" d="M128.92,-248.67C191.03,-250.3 284.88,-252.77 346.3,-254.38"/>
<polygon fill="#63b8ff" stroke="#63b8ff" points="346.16,-257.88 356.25,-254.64 346.34,-250.88 346.16,-257.88"/>
</a>
</g>
</g>
<!-- Node10 -->
<g id="Node000010" class="node">
<title>Node10</title>
<g id="a_Node000010"><a xlink:href="sv__stats__impl_8cc.html#a4e5f02e3cc9b2b06496cca1b54582e0a" target="_top" xlink:title="Reset all statistics to zero.">
<polygon fill="white" stroke="#666666" points="282.5,-219 186.25,-219 186.25,-199 282.5,-199 282.5,-219"/>
<text xml:space="preserve" text-anchor="middle" x="234.38" y="-205.5" font-family="Helvetica,sans-Serif" font-size="10.00">npcap_stats_reset</text>
</a>
</g>
</g>
<!-- Node1&#45;&gt;Node10 -->
<g id="edge11_Node000001_Node000010" class="edge">
<title>Node1&#45;&gt;Node10</title>
<g id="a_edge11_Node000001_Node000010"><a xlink:title=" ">
<path fill="none" stroke="#63b8ff" d="M111.64,-236.52C131.57,-232.01 155.08,-226.7 176.09,-221.95"/>
<polygon fill="#63b8ff" stroke="#63b8ff" points="176.68,-225.4 185.66,-219.78 175.14,-218.57 176.68,-225.4"/>
</a>
</g>
</g>
<!-- Node11 -->
<g id="Node000011" class="node">
<title>Node11</title>
<g id="a_Node000011"><a xlink:href="sv__stats__impl_8cc.html#a4437629953bc0b691829d9c7b77cc061" target="_top" xlink:title="End the current statistics session.">
<polygon fill="white" stroke="#666666" points="473.62,-222 344.38,-222 344.38,-202 473.62,-202 473.62,-222"/>
<text xml:space="preserve" text-anchor="middle" x="409" y="-208.5" font-family="Helvetica,sans-Serif" font-size="10.00">npcap_stats_session_end</text>
</a>
</g>
</g>
<!-- Node1&#45;&gt;Node11 -->
<g id="edge12_Node000001_Node000011" class="edge">
<title>Node1&#45;&gt;Node11</title>
<g id="a_edge12_Node000001_Node000011"><a xlink:title=" ">
<path fill="none" stroke="#63b8ff" d="M78.06,-236.66C96.08,-222.84 130.52,-199.06 164.5,-190 232.04,-171.99 313.44,-186.25 362.93,-198.72"/>
<polygon fill="#63b8ff" stroke="#63b8ff" points="361.86,-202.06 372.42,-201.2 363.63,-195.29 361.86,-202.06"/>
</a>
</g>
</g>
<!-- Node12 -->
<g id="Node000012" class="node">
<title>Node12</title>
<g id="a_Node000012"><a xlink:href="sv__stats__impl_8cc.html#ad0737fafaaf6836a17171d40d5a3f77d" target="_top" xlink:title="Start a new statistics session.">
<polygon fill="white" stroke="#666666" points="463.12,-184 354.88,-184 354.88,-152 463.12,-152 463.12,-184"/>
<text xml:space="preserve" text-anchor="start" x="362.88" y="-170.5" font-family="Helvetica,sans-Serif" font-size="10.00">npcap_stats_session</text>
<text xml:space="preserve" text-anchor="middle" x="409" y="-158.5" font-family="Helvetica,sans-Serif" font-size="10.00">_start</text>
</a>
</g>
</g>
<!-- Node1&#45;&gt;Node12 -->
<g id="edge14_Node000001_Node000012" class="edge">
<title>Node1&#45;&gt;Node12</title>
<g id="a_edge14_Node000001_Node000012"><a xlink:title=" ">
<path fill="none" stroke="#63b8ff" d="M75.39,-236.71C92.17,-220.48 127.54,-189.48 164.5,-177 222.69,-157.35 293.2,-157.1 343.34,-160.56"/>
<polygon fill="#63b8ff" stroke="#63b8ff" points="342.92,-164.03 353.16,-161.31 343.46,-157.05 342.92,-164.03"/>
</a>
</g>
</g>
<!-- Node13 -->
<g id="Node000013" class="node">
<title>Node13</title>
<g id="a_Node000013"><a xlink:href="sv__native__refactored_8cc.html#a7e6a8d1afed7cf1fc23dc37a7e5d872a" target="_top" xlink:title=" ">
<polygon fill="white" stroke="#666666" points="276.88,-105 191.88,-105 191.88,-85 276.88,-85 276.88,-105"/>
<text xml:space="preserve" text-anchor="middle" x="234.38" y="-91.5" font-family="Helvetica,sans-Serif" font-size="10.00">prebuild_frames</text>
</a>
</g>
</g>
<!-- Node1&#45;&gt;Node13 -->
<g id="edge16_Node000001_Node000013" class="edge">
<title>Node1&#45;&gt;Node13</title>
<g id="a_edge16_Node000001_Node000013"><a xlink:title=" ">
<path fill="none" stroke="#63b8ff" d="M70.48,-236.74C83.25,-212.68 118.38,-152.16 164.5,-119 169.51,-115.4 175.11,-112.3 180.9,-109.64"/>
<polygon fill="#63b8ff" stroke="#63b8ff" points="182.1,-112.93 190.02,-105.89 179.44,-106.45 182.1,-112.93"/>
</a>
</g>
</g>
<!-- Node19 -->
<g id="Node000019" class="node">
<title>Node19</title>
<g id="a_Node000019"><a xlink:href="sv__native__refactored_8cc.html#a9e741bc398d62c9cc67a447fcf2f2d52" target="_top" xlink:title=" ">
<polygon fill="white" stroke="#666666" points="290.75,-67 178,-67 178,-47 290.75,-47 290.75,-67"/>
<text xml:space="preserve" text-anchor="middle" x="234.38" y="-53.5" font-family="Helvetica,sans-Serif" font-size="10.00">restore_thread_priority</text>
</a>
</g>
</g>
<!-- Node1&#45;&gt;Node19 -->
<g id="edge23_Node000001_Node000019" class="edge">
<title>Node1&#45;&gt;Node19</title>
<g id="a_edge23_Node000001_Node000019"><a xlink:title=" ">
<path fill="none" stroke="#63b8ff" d="M68.18,-236.69C77.2,-206.89 107.42,-120.03 164.5,-76 166.02,-74.83 167.61,-73.73 169.25,-72.7"/>
<polygon fill="#63b8ff" stroke="#63b8ff" points="170.58,-75.95 177.8,-68.2 167.32,-69.75 170.58,-75.95"/>
</a>
</g>
</g>
<!-- Node20 -->
<g id="Node000020" class="node">
<title>Node20</title>
<g id="a_Node000020"><a xlink:href="sv__native__refactored_8cc.html#a172e4a5cb3e8a1f59552a7990cfd53be" target="_top" xlink:title=" ">
<polygon fill="white" stroke="#666666" points="267.12,-29 201.62,-29 201.62,-9 267.12,-9 267.12,-29"/>
<text xml:space="preserve" text-anchor="middle" x="234.38" y="-15.5" font-family="Helvetica,sans-Serif" font-size="10.00">spin_pause</text>
</a>
</g>
</g>
<!-- Node1&#45;&gt;Node20 -->
<g id="edge24_Node000001_Node000020" class="edge">
<title>Node1&#45;&gt;Node20</title>
<g id="a_edge24_Node000001_Node000020"><a xlink:title=" ">
<path fill="none" stroke="#63b8ff" d="M66.98,-236.91C73.31,-203.2 98.35,-93.52 164.5,-38 171.79,-31.88 180.91,-27.72 190.1,-24.89"/>
<polygon fill="#63b8ff" stroke="#63b8ff" points="190.92,-28.3 199.75,-22.44 189.2,-21.51 190.92,-28.3"/>
</a>
</g>
</g>
<!-- Node2&#45;&gt;Node3 -->
<g id="edge2_Node000002_Node000003" class="edge">
<title>Node2&#45;&gt;Node3</title>
<g id="a_edge2_Node000002_Node000003"><a xlink:title=" ">
<path fill="none" stroke="#63b8ff" d="M283,-476.52C307.47,-471.13 337.17,-464.59 361.47,-459.24"/>
<polygon fill="#63b8ff" stroke="#63b8ff" points="362.08,-462.69 371.1,-457.12 360.58,-455.86 362.08,-462.69"/>
</a>
</g>
</g>
<!-- Node4 -->
<g id="Node000004" class="node">
<title>Node4</title>
<g id="a_Node000004"><a xlink:href="sv__stats__impl_8cc.html#ae7cd346e20d4749f60fa7332dfae0dd7" target="_top" xlink:title="Get current time in milliseconds.">
<polygon fill="white" stroke="#666666" points="644.5,-244 513.75,-244 513.75,-224 644.5,-224 644.5,-244"/>
<text xml:space="preserve" text-anchor="middle" x="579.12" y="-230.5" font-family="Helvetica,sans-Serif" font-size="10.00">npcap_stats_get_time_ms</text>
</a>
</g>
</g>
<!-- Node3&#45;&gt;Node4 -->
<g id="edge3_Node000003_Node000004" class="edge">
<title>Node3&#45;&gt;Node4</title>
<g id="a_edge3_Node000003_Node000004"><a xlink:title=" ">
<path fill="none" stroke="#63b8ff" d="M418.11,-438.63C444.57,-404.79 528.7,-297.2 563.17,-253.12"/>
<polygon fill="#63b8ff" stroke="#63b8ff" points="565.76,-255.49 569.17,-245.46 560.25,-251.18 565.76,-255.49"/>
</a>
</g>
</g>
<!-- Node9&#45;&gt;Node4 -->
<g id="edge10_Node000009_Node000004" class="edge">
<title>Node9&#45;&gt;Node4</title>
<g id="a_edge10_Node000009_Node000004"><a xlink:title=" ">
<path fill="none" stroke="#63b8ff" d="M459.99,-249.46C473.2,-247.73 487.77,-245.82 502.02,-243.96"/>
<polygon fill="#63b8ff" stroke="#63b8ff" points="502.4,-247.44 511.86,-242.67 501.49,-240.5 502.4,-247.44"/>
</a>
</g>
</g>
<!-- Node11&#45;&gt;Node4 -->
<g id="edge13_Node000011_Node000004" class="edge">
<title>Node11&#45;&gt;Node4</title>
<g id="a_edge13_Node000011_Node000004"><a xlink:title=" ">
<path fill="none" stroke="#63b8ff" d="M474.04,-220.38C483.21,-221.58 492.72,-222.82 502.09,-224.05"/>
<polygon fill="#63b8ff" stroke="#63b8ff" points="501.56,-227.51 511.93,-225.34 502.46,-220.57 501.56,-227.51"/>
</a>
</g>
</g>
<!-- Node12&#45;&gt;Node4 -->
<g id="edge15_Node000012_Node000004" class="edge">
<title>Node12&#45;&gt;Node4</title>
<g id="a_edge15_Node000012_Node000004"><a xlink:title=" ">
<path fill="none" stroke="#63b8ff" d="M455.27,-184.46C462.79,-187.27 470.5,-190.18 477.75,-193 499.56,-201.47 523.85,-211.39 543.08,-219.34"/>
<polygon fill="#63b8ff" stroke="#63b8ff" points="541.49,-222.47 552.07,-223.07 544.18,-216.01 541.49,-222.47"/>
</a>
</g>
</g>
<!-- Node14 -->
<g id="Node000014" class="node">
<title>Node14</title>
<g id="a_Node000014"><a xlink:href="sv__native__refactored_8cc.html#a2f554ded106c1391e42b140e22584fb3" target="_top" xlink:title=" ">
<polygon fill="white" stroke="#666666" points="457.88,-134 360.12,-134 360.12,-114 457.88,-114 457.88,-134"/>
<text xml:space="preserve" text-anchor="middle" x="409" y="-120.5" font-family="Helvetica,sans-Serif" font-size="10.00">alloc_frame_cache</text>
</a>
</g>
</g>
<!-- Node13&#45;&gt;Node14 -->
<g id="edge17_Node000013_Node000014" class="edge">
<title>Node13&#45;&gt;Node14</title>
<g id="a_edge17_Node000013_Node000014"><a xlink:title=" ">
<path fill="none" stroke="#63b8ff" d="M277.16,-102.02C298.6,-105.62 325.08,-110.07 348.61,-114.02"/>
<polygon fill="#63b8ff" stroke="#63b8ff" points="347.94,-117.46 358.39,-115.67 349.1,-110.56 347.94,-117.46"/>
</a>
</g>
</g>
<!-- Node16 -->
<g id="Node000016" class="node">
<title>Node16</title>
<g id="a_Node000016"><a xlink:href="sv__native__refactored_8cc.html#a081cf319776daba5ec14c60bec132d64" target="_top" xlink:title=" ">
<polygon fill="white" stroke="#666666" points="451.5,-96 366.5,-96 366.5,-76 451.5,-76 451.5,-96"/>
<text xml:space="preserve" text-anchor="middle" x="409" y="-82.5" font-family="Helvetica,sans-Serif" font-size="10.00">g_eq_processor</text>
</a>
</g>
</g>
<!-- Node13&#45;&gt;Node16 -->
<g id="edge19_Node000013_Node000016" class="edge">
<title>Node13&#45;&gt;Node16</title>
<g id="a_edge19_Node000013_Node000016"><a xlink:title=" ">
<path fill="none" stroke="#63b8ff" d="M277.16,-92.82C300.51,-91.6 329.83,-90.08 354.8,-88.77"/>
<polygon fill="#63b8ff" stroke="#63b8ff" points="354.98,-92.27 364.79,-88.25 354.62,-85.28 354.98,-92.27"/>
</a>
</g>
</g>
<!-- Node17 -->
<g id="Node000017" class="node">
<title>Node17</title>
<g id="a_Node000017"><a xlink:href="sv__encoder__impl_8cc.html#a58f4a492f4c37293fdfcc0401b72abd1" target="_top" xlink:title="Encode a single SV packet.">
<polygon fill="white" stroke="#666666" points="477.75,-58 340.25,-58 340.25,-38 477.75,-38 477.75,-58"/>
<text xml:space="preserve" text-anchor="middle" x="409" y="-44.5" font-family="Helvetica,sans-Serif" font-size="10.00">sv_encoder_encode_packet</text>
</a>
</g>
</g>
<!-- Node13&#45;&gt;Node17 -->
<g id="edge20_Node000013_Node000017" class="edge">
<title>Node13&#45;&gt;Node17</title>
<g id="a_edge20_Node000013_Node000017"><a xlink:title=" ">
<path fill="none" stroke="#63b8ff" d="M273.69,-84.57C298.74,-77.75 331.71,-68.77 358.71,-61.42"/>
<polygon fill="#63b8ff" stroke="#63b8ff" points="359.31,-64.88 368.04,-58.88 357.47,-58.13 359.31,-64.88"/>
</a>
</g>
</g>
<!-- Node18 -->
<g id="Node000018" class="node">
<title>Node18</title>
<g id="a_Node000018"><a xlink:href="sv__encoder__impl_8cc.html#a3b78a24c9d83ba55bcd667b3b7fec64c" target="_top" xlink:title="Set encoder configuration.">
<polygon fill="white" stroke="#666666" points="467.25,-20 350.75,-20 350.75,0 467.25,0 467.25,-20"/>
<text xml:space="preserve" text-anchor="middle" x="409" y="-6.5" font-family="Helvetica,sans-Serif" font-size="10.00">sv_encoder_set_config</text>
</a>
</g>
</g>
<!-- Node13&#45;&gt;Node18 -->
<g id="edge21_Node000013_Node000018" class="edge">
<title>Node13&#45;&gt;Node18</title>
<g id="a_edge21_Node000013_Node000018"><a xlink:title=" ">
<path fill="none" stroke="#63b8ff" d="M277.33,-88.06C286.7,-85.28 296.23,-81.41 304.25,-76 326.07,-61.29 318.46,-43.75 340.25,-29 342.23,-27.66 344.29,-26.42 346.43,-25.26"/>
<polygon fill="#63b8ff" stroke="#63b8ff" points="347.84,-28.47 355.44,-21.09 344.9,-22.11 347.84,-28.47"/>
</a>
</g>
</g>
<!-- Node15 -->
<g id="Node000015" class="node">
<title>Node15</title>
<g id="a_Node000015"><a xlink:href="sv__native__refactored_8cc.html#a24b2107199112b58a421c0c873ea7d12" target="_top" xlink:title=" ">
<polygon fill="white" stroke="#666666" points="626.12,-134 532.12,-134 532.12,-114 626.12,-114 626.12,-134"/>
<text xml:space="preserve" text-anchor="middle" x="579.12" y="-120.5" font-family="Helvetica,sans-Serif" font-size="10.00">free_frame_cache</text>
</a>
</g>
</g>
<!-- Node14&#45;&gt;Node15 -->
<g id="edge18_Node000014_Node000015" class="edge">
<title>Node14&#45;&gt;Node15</title>
<g id="a_edge18_Node000014_Node000015"><a xlink:title=" ">
<path fill="none" stroke="#63b8ff" d="M458.18,-124C477.57,-124 500.11,-124 520.37,-124"/>
<polygon fill="#63b8ff" stroke="#63b8ff" points="520.16,-127.5 530.16,-124 520.16,-120.5 520.16,-127.5"/>
</a>
</g>
</g>
</g>
</svg>

<g id="navigator" transform="translate(0 0)" fill="#404254">
  <rect fill="#f2f5e9" fill-opacity="0.5" stroke="#606060" stroke-width=".5" x="0" y="0" width="60" height="60"/>
  <use id="zoomplus" xlink:href="#zoomPlus" x="17" y="9" onmousedown="handleZoom(evt,'in')"/>
  <use id="zoomminus" xlink:href="#zoomMin" x="42" y="9" onmousedown="handleZoom(evt,'out')"/>
  <use id="reset" xlink:href="#resetDef" x="30" y="36" onmousedown="handleReset()"/>
   <use id="arrowup" xlink:href="#arrowUp" x="0" y="0" onmousedown="handlePan(0,-1)"/>
  <use id="arrowright" xlink:href="#arrowRight" x="0" y="0" onmousedown="handlePan(1,0)"/>
  <use id="arrowdown" xlink:href="#arrowDown" x="0" y="0" onmousedown="handlePan(0,1)"/>
  <use id="arrowleft" xlink:href="#arrowLeft" x="0" y="0" onmousedown="handlePan(-1,0)"/>
</g>
<svg viewBox="0 0 15 15" width="100%" height="30px" preserveAspectRatio="xMaxYMin meet">
 <g id="arrow_out" transform="scale(0.3 0.3)">
  <a xlink:href="sv__native__refactored_8cc_a27703afec602cc5af011d5661a53b510_cgraph_org.svg" target="_base">
   <rect id="button" ry="5" rx="5" y="6" x="6" height="38" width="38"
        fill="#f2f5e9" fill-opacity="0.5" stroke="#606060" stroke-width="1.0"/>
   <path id="arrow"
     d="M 11.500037,31.436501 C 11.940474,20.09759 22.043105,11.32322 32.158766,21.979434 L 37.068811,17.246167 C 37.068811,17.246167 37.088388,32 37.088388,32 L 22.160133,31.978069 C 22.160133,31.978069 26.997745,27.140456 26.997745,27.140456 C 18.528582,18.264221 13.291696,25.230495 11.500037,31.436501 z"
     style="fill:#404040;"/>
  </a>
 </g>
</svg>

<style type='text/css'>
<![CDATA[
[data-mouse-over-selected='false'] { opacity: 0.7; }
[data-mouse-over-selected='true']  { opacity: 1.0; }
]]>
</style>
<script type="application/ecmascript"><![CDATA[
document.addEventListener('DOMContentLoaded', (event) => {
  highlightEdges();
  highlightAdjacentNodes();
});
]]></script>
</svg>
