<?xml version="1.0" encoding="UTF-8" standalone="no"?>
<!DOCTYPE svg PUBLIC "-//W3C//DTD SVG 1.1//EN"
 "http://www.w3.org/Graphics/SVG/1.1/DTD/svg11.dtd">
<!-- Generated by graphviz version 14.1.2 (20260124.0452)
 -->
<!-- Title: sv_encoder.h Pages: 1 -->
<svg width="441pt" height="196pt"
 viewBox="0.00 0.00 441.00 196.00" xmlns="http://www.w3.org/2000/svg" xmlns:xlink="http://www.w3.org/1999/xlink">
<g id="graph0" class="graph" transform="scale(1 1) rotate(0) translate(4 192)">
<title>sv_encoder.h</title>
<!-- Node1 -->
<g id="Node000001" class="node">
<title>Node1</title>
<g id="a_Node000001"><a xlink:title="IEC 61850&#45;9&#45;2LE SV Packet Encoder.">
<polygon fill="#999999" stroke="#666666" points="262.75,-188 188.25,-188 188.25,-168 262.75,-168 262.75,-188"/>
<text xml:space="preserve" text-anchor="middle" x="225.5" y="-174.5" font-family="Helvetica,sans-Serif" font-size="10.00">sv_encoder.h</text>
</a>
</g>
</g>
<!-- Node2 -->
<g id="Node000002" class="node">
<title>Node2</title>
<g id="a_Node000002"><a xlink:href="sv__encoder__impl_8cc.html" target="_top" xlink:title="IEC 61850&#45;9&#45;2LE Sampled Values Packet Encoder.">
<polygon fill="white" stroke="#666666" points="103,-132 0,-132 0,-112 103,-112 103,-132"/>
<text xml:space="preserve" text-anchor="middle" x="51.5" y="-118.5" font-family="Helvetica,sans-Serif" font-size="10.00">sv_encoder_impl.cc</text>
</a>
</g>
</g>
<!-- Node1&#45;&gt;Node2 -->
<g id="edge1_Node000001_Node000002" class="edge">
<title>Node1&#45;&gt;Node2</title>
<g id="a_edge1_Node000001_Node000002"><a xlink:title=" ">
<path fill="none" stroke="#63b8ff" d="M184.59,-164.31C153.19,-154.56 110.52,-141.32 82.04,-132.48"/>
<polygon fill="#63b8ff" stroke="#63b8ff" points="183.16,-167.52 193.75,-167.15 185.23,-160.84 183.16,-167.52"/>
</a>
</g>
</g>
<!-- Node3 -->
<g id="Node000003" class="node">
<title>Node3</title>
<g id="a_Node000003"><a xlink:href="sv__native__refactored_8cc.html" target="_top" xlink:title="SV Publisher &#45; Main Entry Point for Tauri FFI.">
<polygon fill="white" stroke="#666666" points="241.62,-132 121.38,-132 121.38,-112 241.62,-112 241.62,-132"/>
<text xml:space="preserve" text-anchor="middle" x="181.5" y="-118.5" font-family="Helvetica,sans-Serif" font-size="10.00">sv_native_refactored.cc</text>
</a>
</g>
</g>
<!-- Node1&#45;&gt;Node3 -->
<g id="edge2_Node000001_Node000003" class="edge">
<title>Node1&#45;&gt;Node3</title>
<g id="a_edge2_Node000001_Node000003"><a xlink:title=" ">
<path fill="none" stroke="#63b8ff" d="M210.61,-158.72C203.37,-149.84 194.98,-139.55 189.08,-132.3"/>
<polygon fill="#63b8ff" stroke="#63b8ff" points="207.85,-160.88 216.88,-166.42 213.28,-156.46 207.85,-160.88"/>
</a>
</g>
</g>
<!-- Node4 -->
<g id="Node000004" class="node">
<title>Node4</title>
<g id="a_Node000004"><a xlink:href="sv__publisher__instance_8cc.html" target="_top" xlink:title="Implementation of SvPublisherInstance.">
<polygon fill="white" stroke="#666666" points="332.62,-76 206.38,-76 206.38,-56 332.62,-56 332.62,-76"/>
<text xml:space="preserve" text-anchor="middle" x="269.5" y="-62.5" font-family="Helvetica,sans-Serif" font-size="10.00">sv_publisher_instance.cc</text>
</a>
</g>
</g>
<!-- Node1&#45;&gt;Node4 -->
<g id="edge3_Node000001_Node000004" class="edge">
<title>Node1&#45;&gt;Node4</title>
<g id="a_edge3_Node000001_Node000004"><a xlink:title=" ">
<path fill="none" stroke="#63b8ff" d="M237.27,-158.03C241.82,-150.18 246.81,-140.84 250.5,-132 258.48,-112.91 264.47,-89.34 267.43,-76.48"/>
<polygon fill="#63b8ff" stroke="#63b8ff" points="234.42,-155.98 232.28,-166.36 240.43,-159.58 234.42,-155.98"/>
</a>
</g>
</g>
<!-- Node5 -->
<g id="Node000005" class="node">
<title>Node5</title>
<g id="a_Node000005"><a xlink:href="sv__publisher__instance_8h.html" target="_top" xlink:title="Single SV Publisher Instance (one Merging Unit).">
<polygon fill="white" stroke="#666666" points="419,-132 298,-132 298,-112 419,-112 419,-132"/>
<text xml:space="preserve" text-anchor="middle" x="358.5" y="-118.5" font-family="Helvetica,sans-Serif" font-size="10.00">sv_publisher_instance.h</text>
</a>
</g>
</g>
<!-- Node1&#45;&gt;Node5 -->
<g id="edge4_Node000001_Node000005" class="edge">
<title>Node1&#45;&gt;Node5</title>
<g id="a_edge4_Node000001_Node000005"><a xlink:title=" ">
<path fill="none" stroke="#63b8ff" d="M259.31,-163.27C283.04,-153.64 314.15,-141.01 335.15,-132.48"/>
<polygon fill="#63b8ff" stroke="#63b8ff" points="258.02,-160.02 250.07,-167.02 260.65,-166.51 258.02,-160.02"/>
</a>
</g>
</g>
<!-- Node5&#45;&gt;Node4 -->
<g id="edge7_Node000005_Node000004" class="edge">
<title>Node5&#45;&gt;Node4</title>
<g id="a_edge7_Node000005_Node000004"><a xlink:title=" ">
<path fill="none" stroke="#63b8ff" d="M333.47,-105.81C317.94,-96.39 298.48,-84.58 285.12,-76.48"/>
<polygon fill="#63b8ff" stroke="#63b8ff" points="331.34,-108.61 341.7,-110.81 334.97,-102.63 331.34,-108.61"/>
</a>
</g>
</g>
<!-- Node6 -->
<g id="Node000006" class="node">
<title>Node6</title>
<g id="a_Node000006"><a xlink:href="sv__controller_8h.html" target="_top" xlink:title="Main Controller + SharedBuffer for Multi&#45;Publisher SV System.">
<polygon fill="white" stroke="#666666" points="430.38,-76 350.62,-76 350.62,-56 430.38,-56 430.38,-76"/>
<text xml:space="preserve" text-anchor="middle" x="390.5" y="-62.5" font-family="Helvetica,sans-Serif" font-size="10.00">sv_controller.h</text>
</a>
</g>
</g>
<!-- Node5&#45;&gt;Node6 -->
<g id="edge5_Node000005_Node000006" class="edge">
<title>Node5&#45;&gt;Node6</title>
<g id="a_edge5_Node000005_Node000006"><a xlink:title=" ">
<path fill="none" stroke="#63b8ff" d="M369.84,-101.87C374.98,-93.19 380.83,-83.32 384.99,-76.3"/>
<polygon fill="#63b8ff" stroke="#63b8ff" points="366.93,-99.9 364.85,-110.29 372.95,-103.47 366.93,-99.9"/>
</a>
</g>
</g>
<!-- Node7 -->
<g id="Node000007" class="node">
<title>Node7</title>
<g id="a_Node000007"><a xlink:href="sv__controller_8cc.html" target="_top" xlink:title="Implementation of SharedBuffer + SvController + Multi&#45;Publisher FFI.">
<polygon fill="white" stroke="#666666" points="433,-20 348,-20 348,0 433,0 433,-20"/>
<text xml:space="preserve" text-anchor="middle" x="390.5" y="-6.5" font-family="Helvetica,sans-Serif" font-size="10.00">sv_controller.cc</text>
</a>
</g>
</g>
<!-- Node6&#45;&gt;Node7 -->
<g id="edge6_Node000006_Node000007" class="edge">
<title>Node6&#45;&gt;Node7</title>
<g id="a_edge6_Node000006_Node000007"><a xlink:title=" ">
<path fill="none" stroke="#63b8ff" d="M390.5,-44.13C390.5,-35.9 390.5,-26.85 390.5,-20.3"/>
<polygon fill="#63b8ff" stroke="#63b8ff" points="387,-44.08 390.5,-54.08 394,-44.08 387,-44.08"/>
</a>
</g>
</g>
</g>
</svg>
