<?xml version="1.0" encoding="UTF-8" standalone="no"?>
<!DOCTYPE svg PUBLIC "-//W3C//DTD SVG 1.1//EN"
 "http://www.w3.org/Graphics/SVG/1.1/DTD/svg11.dtd">
<!-- Generated by graphviz version 14.1.2 (20260124.0452)
 -->
<!-- Title: sv_mp_is_duration_complete Pages: 1 -->
<svg width="473pt" height="78pt"
 viewBox="0.00 0.00 473.00 78.00" xmlns="http://www.w3.org/2000/svg" xmlns:xlink="http://www.w3.org/1999/xlink">
<g id="graph0" class="graph" transform="scale(1 1) rotate(0) translate(4 74)">
<title>sv_mp_is_duration_complete</title>
<!-- Node1 -->
<g id="Node000001" class="node">
<title>Node1</title>
<g id="a_Node000001"><a xlink:title=" ">
<polygon fill="#999999" stroke="#666666" points="142.75,-48 0,-48 0,-28 142.75,-28 142.75,-48"/>
<text xml:space="preserve" text-anchor="middle" x="71.38" y="-34.5" font-family="Helvetica,sans-Serif" font-size="10.00">sv_mp_is_duration_complete</text>
</a>
</g>
</g>
<!-- Node2 -->
<g id="Node000002" class="node">
<title>Node2</title>
<g id="a_Node000002"><a xlink:href="class_sv_controller.html#afc102679fe80499c39d27cb8640394cc" target="_top" xlink:title=" ">
<polygon fill="white" stroke="#666666" points="295.25,-70 182.5,-70 182.5,-50 295.25,-50 295.25,-70"/>
<text xml:space="preserve" text-anchor="middle" x="238.88" y="-56.5" font-family="Helvetica,sans-Serif" font-size="10.00">SvController::instance</text>
</a>
</g>
</g>
<!-- Node1&#45;&gt;Node2 -->
<g id="edge1_Node000001_Node000002" class="edge">
<title>Node1&#45;&gt;Node2</title>
<g id="a_edge1_Node000001_Node000002"><a xlink:title=" ">
<path fill="none" stroke="#63b8ff" d="M143.04,-47.39C152.25,-48.62 161.65,-49.87 170.8,-51.08"/>
<polygon fill="#63b8ff" stroke="#63b8ff" points="170.33,-54.55 180.7,-52.4 171.25,-47.61 170.33,-54.55"/>
</a>
</g>
</g>
<!-- Node4 -->
<g id="Node000004" class="node">
<title>Node4</title>
<g id="a_Node000004"><a xlink:href="class_sv_controller.html#a5660c44cf803d1fc8d9cb1e853bb6d8e" target="_top" xlink:title=" ">
<polygon fill="white" stroke="#666666" points="299,-32 178.75,-32 178.75,0 299,0 299,-32"/>
<text xml:space="preserve" text-anchor="start" x="186.75" y="-18.5" font-family="Helvetica,sans-Serif" font-size="10.00">SvController::isDuration</text>
<text xml:space="preserve" text-anchor="middle" x="238.88" y="-6.5" font-family="Helvetica,sans-Serif" font-size="10.00">Complete</text>
</a>
</g>
</g>
<!-- Node1&#45;&gt;Node4 -->
<g id="edge3_Node000001_Node000004" class="edge">
<title>Node1&#45;&gt;Node4</title>
<g id="a_edge3_Node000001_Node000004"><a xlink:title=" ">
<path fill="none" stroke="#63b8ff" d="M143.04,-28.61C151.04,-27.54 159.2,-26.46 167.2,-25.39"/>
<polygon fill="#63b8ff" stroke="#63b8ff" points="167.43,-28.9 176.88,-24.11 166.51,-21.96 167.43,-28.9"/>
</a>
</g>
</g>
<!-- Node3 -->
<g id="Node000003" class="node">
<title>Node3</title>
<g id="a_Node000003"><a xlink:href="class_sv_controller.html#aa5d7c635a8015c90217076cf4722542c" target="_top" xlink:title=" ">
<polygon fill="white" stroke="#666666" points="465,-70 335,-70 335,-50 465,-50 465,-70"/>
<text xml:space="preserve" text-anchor="middle" x="400" y="-56.5" font-family="Helvetica,sans-Serif" font-size="10.00">SvController::SvController</text>
</a>
</g>
</g>
<!-- Node2&#45;&gt;Node3 -->
<g id="edge2_Node000002_Node000003" class="edge">
<title>Node2&#45;&gt;Node3</title>
<g id="a_edge2_Node000002_Node000003"><a xlink:title=" ">
<path fill="none" stroke="#63b8ff" d="M295.53,-60C304.51,-60 313.95,-60 323.31,-60"/>
<polygon fill="#63b8ff" stroke="#63b8ff" points="323.14,-63.5 333.14,-60 323.14,-56.5 323.14,-63.5"/>
</a>
</g>
</g>
</g>
</svg>
