<?xml version="1.0" encoding="UTF-8" standalone="no"?>
<!DOCTYPE svg PUBLIC "-//W3C//DTD SVG 1.1//EN"
 "http://www.w3.org/Graphics/SVG/1.1/DTD/svg11.dtd">
<!-- Generated by graphviz version 14.1.2 (20260124.0452)
 -->
<!-- Title: sv_stats.h Pages: 1 -->
<svg width="371pt" height="140pt"
 viewBox="0.00 0.00 371.00 140.00" xmlns="http://www.w3.org/2000/svg" xmlns:xlink="http://www.w3.org/1999/xlink">
<g id="graph0" class="graph" transform="scale(1 1) rotate(0) translate(4 136)">
<title>sv_stats.h</title>
<!-- Node1 -->
<g id="Node000001" class="node">
<title>Node1</title>
<g id="a_Node000001"><a xlink:title="Transmission Statistics Module.">
<polygon fill="#999999" stroke="#666666" points="166.38,-132 104.62,-132 104.62,-112 166.38,-112 166.38,-132"/>
<text xml:space="preserve" text-anchor="middle" x="135.5" y="-118.5" font-family="Helvetica,sans-Serif" font-size="10.00">sv_stats.h</text>
</a>
</g>
</g>
<!-- Node2 -->
<g id="Node000002" class="node">
<title>Node2</title>
<g id="a_Node000002"><a xlink:href="sv__controller_8cc.html" target="_top" xlink:title="Implementation of SharedBuffer + SvController + Multi&#45;Publisher FFI.">
<polygon fill="white" stroke="#666666" points="85,-20 0,-20 0,0 85,0 85,-20"/>
<text xml:space="preserve" text-anchor="middle" x="42.5" y="-6.5" font-family="Helvetica,sans-Serif" font-size="10.00">sv_controller.cc</text>
</a>
</g>
</g>
<!-- Node1&#45;&gt;Node2 -->
<g id="edge1_Node000001_Node000002" class="edge">
<title>Node1&#45;&gt;Node2</title>
<g id="a_edge1_Node000001_Node000002"><a xlink:title=" ">
<path fill="none" stroke="#63b8ff" d="M93.05,-114.91C69.49,-109.12 42.07,-97.86 27.5,-76 15.94,-58.65 28.05,-33.57 36.26,-20.2"/>
<polygon fill="#63b8ff" stroke="#63b8ff" points="92.24,-118.31 102.75,-117.01 93.72,-111.47 92.24,-118.31"/>
</a>
</g>
</g>
<!-- Node3 -->
<g id="Node000003" class="node">
<title>Node3</title>
<g id="a_Node000003"><a xlink:href="sv__controller_8h.html" target="_top" xlink:title="Main Controller + SharedBuffer for Multi&#45;Publisher SV System.">
<polygon fill="white" stroke="#666666" points="116.38,-76 36.62,-76 36.62,-56 116.38,-56 116.38,-76"/>
<text xml:space="preserve" text-anchor="middle" x="76.5" y="-62.5" font-family="Helvetica,sans-Serif" font-size="10.00">sv_controller.h</text>
</a>
</g>
</g>
<!-- Node1&#45;&gt;Node3 -->
<g id="edge2_Node000001_Node000003" class="edge">
<title>Node1&#45;&gt;Node3</title>
<g id="a_edge2_Node000001_Node000003"><a xlink:title=" ">
<path fill="none" stroke="#63b8ff" d="M116.76,-103.85C106.79,-94.72 94.92,-83.86 86.66,-76.3"/>
<polygon fill="#63b8ff" stroke="#63b8ff" points="114.37,-106.4 124.11,-110.57 119.09,-101.24 114.37,-106.4"/>
</a>
</g>
</g>
<!-- Node4 -->
<g id="Node000004" class="node">
<title>Node4</title>
<g id="a_Node000004"><a xlink:href="sv__native__refactored_8cc.html" target="_top" xlink:title="SV Publisher &#45; Main Entry Point for Tauri FFI.">
<polygon fill="white" stroke="#666666" points="254.62,-76 134.38,-76 134.38,-56 254.62,-56 254.62,-76"/>
<text xml:space="preserve" text-anchor="middle" x="194.5" y="-62.5" font-family="Helvetica,sans-Serif" font-size="10.00">sv_native_refactored.cc</text>
</a>
</g>
</g>
<!-- Node1&#45;&gt;Node4 -->
<g id="edge4_Node000001_Node000004" class="edge">
<title>Node1&#45;&gt;Node4</title>
<g id="a_edge4_Node000001_Node000004"><a xlink:title=" ">
<path fill="none" stroke="#63b8ff" d="M154.24,-103.85C164.21,-94.72 176.08,-83.86 184.34,-76.3"/>
<polygon fill="#63b8ff" stroke="#63b8ff" points="151.91,-101.24 146.89,-110.57 156.63,-106.4 151.91,-101.24"/>
</a>
</g>
</g>
<!-- Node5 -->
<g id="Node000005" class="node">
<title>Node5</title>
<g id="a_Node000005"><a xlink:href="sv__stats__impl_8cc.html" target="_top" xlink:title="Transmission Statistics Tracker.">
<polygon fill="white" stroke="#666666" points="362.62,-76 272.38,-76 272.38,-56 362.62,-56 362.62,-76"/>
<text xml:space="preserve" text-anchor="middle" x="317.5" y="-62.5" font-family="Helvetica,sans-Serif" font-size="10.00">sv_stats_impl.cc</text>
</a>
</g>
</g>
<!-- Node1&#45;&gt;Node5 -->
<g id="edge5_Node000001_Node000005" class="edge">
<title>Node1&#45;&gt;Node5</title>
<g id="a_edge5_Node000001_Node000005"><a xlink:title=" ">
<path fill="none" stroke="#63b8ff" d="M177.46,-108.55C210.44,-98.76 255.67,-85.34 285.71,-76.43"/>
<polygon fill="#63b8ff" stroke="#63b8ff" points="176.83,-105.09 168.24,-111.29 178.82,-111.8 176.83,-105.09"/>
</a>
</g>
</g>
<!-- Node3&#45;&gt;Node2 -->
<g id="edge3_Node000003_Node000002" class="edge">
<title>Node3&#45;&gt;Node2</title>
<g id="a_edge3_Node000003_Node000002"><a xlink:title=" ">
<path fill="none" stroke="#63b8ff" d="M64.45,-45.87C58.99,-37.19 52.77,-27.32 48.35,-20.3"/>
<polygon fill="#63b8ff" stroke="#63b8ff" points="61.48,-47.72 69.77,-54.31 67.4,-43.99 61.48,-47.72"/>
</a>
</g>
</g>
</g>
</svg>
