<?xml version="1.0" encoding="UTF-8" standalone="no"?>
<!DOCTYPE svg PUBLIC "-//W3C//DTD SVG 1.1//EN"
 "http://www.w3.org/Graphics/SVG/1.1/DTD/svg11.dtd">
<!-- Generated by graphviz version 14.1.2 (20260124.0452)
 -->
<!-- Title: get_time_ms Pages: 1 -->
<svg width="549pt" height="228pt"
 viewBox="0.00 0.00 549.00 228.00" xmlns="http://www.w3.org/2000/svg" xmlns:xlink="http://www.w3.org/1999/xlink">
<g id="graph0" class="graph" transform="scale(1 1) rotate(0) translate(4 224)">
<title>get_time_ms</title>
<!-- Node1 -->
<g id="Node000001" class="node">
<title>Node1</title>
<g id="a_Node000001"><a xlink:title=" ">
<polygon fill="#999999" stroke="#666666" points="541,-108 468.75,-108 468.75,-88 541,-88 541,-108"/>
<text xml:space="preserve" text-anchor="middle" x="504.88" y="-94.5" font-family="Helvetica,sans-Serif" font-size="10.00">get_time_ms</text>
</a>
</g>
</g>
<!-- Node2 -->
<g id="Node000002" class="node">
<title>Node2</title>
<g id="a_Node000002"><a xlink:href="sv__native__refactored_8cc.html#aa18783d233bbd1ff97330bfb332b2305" target="_top" xlink:title=" ">
<polygon fill="white" stroke="#666666" points="432.75,-155 311.75,-155 311.75,-135 432.75,-135 432.75,-155"/>
<text xml:space="preserve" text-anchor="middle" x="372.25" y="-141.5" font-family="Helvetica,sans-Serif" font-size="10.00">check_duration_elapsed</text>
</a>
</g>
</g>
<!-- Node1&#45;&gt;Node2 -->
<g id="edge1_Node000001_Node000002" class="edge">
<title>Node1&#45;&gt;Node2</title>
<g id="a_edge1_Node000001_Node000002"><a xlink:title=" ">
<path fill="none" stroke="#63b8ff" d="M464.23,-112.27C444.23,-119.46 420.41,-128.03 402.16,-134.6"/>
<polygon fill="#63b8ff" stroke="#63b8ff" points="465.24,-115.62 473.46,-108.94 462.87,-109.04 465.24,-115.62"/>
</a>
</g>
</g>
<!-- Node3 -->
<g id="Node000003" class="node">
<title>Node3</title>
<g id="a_Node000003"><a xlink:href="sv__native__refactored_8cc.html#a186b6b16f2d04a7fd9c7da099fac4fa5" target="_top" xlink:title=" ">
<polygon fill="white" stroke="#666666" points="265.25,-202 157.75,-202 157.75,-182 265.25,-182 265.25,-202"/>
<text xml:space="preserve" text-anchor="middle" x="211.5" y="-188.5" font-family="Helvetica,sans-Serif" font-size="10.00">publisher_loop_batch</text>
</a>
</g>
</g>
<!-- Node1&#45;&gt;Node3 -->
<g id="edge12_Node000001_Node000003" class="edge">
<title>Node1&#45;&gt;Node3</title>
<g id="a_edge12_Node000001_Node000003"><a xlink:title=" ">
<path fill="none" stroke="#63b8ff" d="M489.14,-117.11C476.1,-132.51 455.62,-153.31 432.75,-164 379.67,-188.81 311.98,-194.03 265.74,-194.17"/>
<polygon fill="#63b8ff" stroke="#63b8ff" points="491.71,-119.49 495.3,-109.53 486.27,-115.08 491.71,-119.49"/>
</a>
</g>
</g>
<!-- Node4 -->
<g id="Node000004" class="node">
<title>Node4</title>
<g id="a_Node000004"><a xlink:href="sv__native__refactored_8cc.html#af14f0670e1b30534e33524f8c49a5580" target="_top" xlink:title="Start publishing.">
<polygon fill="white" stroke="#666666" points="111.25,-136 0,-136 0,-116 111.25,-116 111.25,-136"/>
<text xml:space="preserve" text-anchor="middle" x="55.62" y="-122.5" font-family="Helvetica,sans-Serif" font-size="10.00">npcap_publisher_start</text>
</a>
</g>
</g>
<!-- Node1&#45;&gt;Node4 -->
<g id="edge11_Node000001_Node000004" class="edge">
<title>Node1&#45;&gt;Node4</title>
<g id="a_edge11_Node000001_Node000004"><a xlink:title=" ">
<path fill="none" stroke="#63b8ff" d="M457.43,-87.09C388.61,-72.79 255.95,-52.49 147.25,-79 118.32,-86.06 88.33,-104.09 71.13,-115.66"/>
<polygon fill="#63b8ff" stroke="#63b8ff" points="456.33,-90.43 466.84,-89.09 457.79,-83.58 456.33,-90.43"/>
</a>
</g>
</g>
<!-- Node5 -->
<g id="Node000005" class="node">
<title>Node5</title>
<g id="a_Node000005"><a xlink:href="sv__native__refactored_8cc.html#a27703afec602cc5af011d5661a53b510" target="_top" xlink:title=" ">
<polygon fill="white" stroke="#666666" points="275.75,-108 147.25,-108 147.25,-88 275.75,-88 275.75,-108"/>
<text xml:space="preserve" text-anchor="middle" x="211.5" y="-94.5" font-family="Helvetica,sans-Serif" font-size="10.00">publisher_loop_immediate</text>
</a>
</g>
</g>
<!-- Node1&#45;&gt;Node5 -->
<g id="edge13_Node000001_Node000005" class="edge">
<title>Node1&#45;&gt;Node5</title>
<g id="a_edge13_Node000001_Node000005"><a xlink:title=" ">
<path fill="none" stroke="#63b8ff" d="M457.22,-98C408.17,-98 330.69,-98 276.08,-98"/>
<polygon fill="#63b8ff" stroke="#63b8ff" points="456.92,-101.5 466.92,-98 456.92,-94.5 456.92,-101.5"/>
</a>
</g>
</g>
<!-- Node7 -->
<g id="Node000007" class="node">
<title>Node7</title>
<g id="a_Node000007"><a xlink:href="sv__native__refactored_8cc.html#ad10747c0808be2841677ed9716c7634e" target="_top" xlink:title="Get remaining time in seconds.">
<polygon fill="white" stroke="#666666" points="426.38,-32 318.12,-32 318.12,0 426.38,0 426.38,-32"/>
<text xml:space="preserve" text-anchor="start" x="326.12" y="-18.5" font-family="Helvetica,sans-Serif" font-size="10.00">npcap_get_remaining</text>
<text xml:space="preserve" text-anchor="middle" x="372.25" y="-6.5" font-family="Helvetica,sans-Serif" font-size="10.00">_seconds</text>
</a>
</g>
</g>
<!-- Node1&#45;&gt;Node7 -->
<g id="edge10_Node000001_Node000007" class="edge">
<title>Node1&#45;&gt;Node7</title>
<g id="a_edge10_Node000001_Node000007"><a xlink:title=" ">
<path fill="none" stroke="#63b8ff" d="M482.24,-80.74C468.47,-70.12 450.03,-56.57 432.75,-46 424.95,-41.23 416.3,-36.55 408.07,-32.35"/>
<polygon fill="#63b8ff" stroke="#63b8ff" points="479.73,-83.22 489.76,-86.62 484.04,-77.71 479.73,-83.22"/>
</a>
</g>
</g>
<!-- Node2&#45;&gt;Node3 -->
<g id="edge2_Node000002_Node000003" class="edge">
<title>Node2&#45;&gt;Node3</title>
<g id="a_edge2_Node000002_Node000003"><a xlink:title=" ">
<path fill="none" stroke="#63b8ff" d="M325.12,-158.66C300.5,-165.95 270.68,-174.78 247.91,-181.52"/>
<polygon fill="#63b8ff" stroke="#63b8ff" points="325.97,-162.06 334.57,-155.86 323.98,-155.34 325.97,-162.06"/>
</a>
</g>
</g>
<!-- Node2&#45;&gt;Node5 -->
<g id="edge5_Node000002_Node000005" class="edge">
<title>Node2&#45;&gt;Node5</title>
<g id="a_edge5_Node000002_Node000005"><a xlink:title=" ">
<path fill="none" stroke="#63b8ff" d="M325.12,-131.34C300.5,-124.05 270.68,-115.22 247.91,-108.48"/>
<polygon fill="#63b8ff" stroke="#63b8ff" points="323.98,-134.66 334.57,-134.14 325.97,-127.94 323.98,-134.66"/>
</a>
</g>
</g>
<!-- Node6 -->
<g id="Node000006" class="node">
<title>Node6</title>
<g id="a_Node000006"><a xlink:href="sv__native__refactored_8cc.html#ae2056b20c01b052837592dc341ce314e" target="_top" xlink:title=" ">
<polygon fill="white" stroke="#666666" points="266,-164 157,-164 157,-144 266,-144 266,-164"/>
<text xml:space="preserve" text-anchor="middle" x="211.5" y="-150.5" font-family="Helvetica,sans-Serif" font-size="10.00">publisher_loop_single</text>
</a>
</g>
</g>
<!-- Node2&#45;&gt;Node6 -->
<g id="edge8_Node000002_Node000006" class="edge">
<title>Node2&#45;&gt;Node6</title>
<g id="a_edge8_Node000002_Node000006"><a xlink:title=" ">
<path fill="none" stroke="#63b8ff" d="M300.38,-149.02C288.97,-149.66 277.31,-150.33 266.38,-150.95"/>
<polygon fill="#63b8ff" stroke="#63b8ff" points="300.39,-152.52 310.17,-148.46 299.99,-145.53 300.39,-152.52"/>
</a>
</g>
</g>
<!-- Node3&#45;&gt;Node3 -->
<g id="edge4_Node000003_Node000003" class="edge">
<title>Node3&#45;&gt;Node3</title>
<g id="a_edge4_Node000003_Node000003"><a xlink:title=" ">
<path fill="none" stroke="#63b8ff" d="M239.05,-213.44C235.5,-217.3 226.32,-220 211.5,-220 184.4,-220 176.15,-210.98 186.73,-202.34"/>
<polygon fill="#63b8ff" stroke="#63b8ff" points="242.46,-212.66 236.63,-203.81 235.67,-214.36 242.46,-212.66"/>
</a>
</g>
</g>
<!-- Node3&#45;&gt;Node4 -->
<g id="edge3_Node000003_Node000004" class="edge">
<title>Node3&#45;&gt;Node4</title>
<g id="a_edge3_Node000003_Node000004"><a xlink:title=" ">
<path fill="none" stroke="#63b8ff" d="M160.84,-178.05C156.2,-176.46 151.61,-174.77 147.25,-173 120.97,-162.35 92.14,-146.65 74.21,-136.38"/>
<polygon fill="#63b8ff" stroke="#63b8ff" points="159.61,-181.33 170.2,-181.1 161.78,-174.68 159.61,-181.33"/>
</a>
</g>
</g>
<!-- Node5&#45;&gt;Node4 -->
<g id="edge6_Node000005_Node000004" class="edge">
<title>Node5&#45;&gt;Node4</title>
<g id="a_edge6_Node000005_Node000004"><a xlink:title=" ">
<path fill="none" stroke="#63b8ff" d="M141.9,-110.48C131.78,-112.32 121.47,-114.2 111.67,-115.98"/>
<polygon fill="#63b8ff" stroke="#63b8ff" points="142.5,-113.93 151.71,-108.7 141.25,-107.04 142.5,-113.93"/>
</a>
</g>
</g>
<!-- Node5&#45;&gt;Node5 -->
<g id="edge7_Node000005_Node000005" class="edge">
<title>Node5&#45;&gt;Node5</title>
<g id="a_edge7_Node000005_Node000005"><a xlink:title=" ">
<path fill="none" stroke="#63b8ff" d="M239.05,-119.44C235.5,-123.3 226.32,-126 211.5,-126 184.4,-126 176.15,-116.98 186.73,-108.34"/>
<polygon fill="#63b8ff" stroke="#63b8ff" points="242.46,-118.66 236.63,-109.81 235.67,-120.36 242.46,-118.66"/>
</a>
</g>
</g>
<!-- Node6&#45;&gt;Node4 -->
<g id="edge9_Node000006_Node000004" class="edge">
<title>Node6&#45;&gt;Node4</title>
<g id="a_edge9_Node000006_Node000004"><a xlink:title=" ">
<path fill="none" stroke="#63b8ff" d="M145.57,-142.19C134.31,-140.14 122.69,-138.02 111.72,-136.02"/>
<polygon fill="#63b8ff" stroke="#63b8ff" points="144.73,-145.59 155.19,-143.94 145.98,-138.7 144.73,-145.59"/>
</a>
</g>
</g>
</g>
</svg>
