<?xml version="1.0" encoding="UTF-8" standalone="no"?>
<!DOCTYPE svg PUBLIC "-//W3C//DTD SVG 1.1//EN"
 "http://www.w3.org/Graphics/SVG/1.1/DTD/svg11.dtd">
<!-- Generated by graphviz version 14.1.2 (20260124.0452)
 -->
<!-- Title: sv_mp_get_publisher_count Pages: 1 -->
<svg width="448pt" height="78pt"
 viewBox="0.00 0.00 448.00 78.00" xmlns="http://www.w3.org/2000/svg" xmlns:xlink="http://www.w3.org/1999/xlink">
<g id="graph0" class="graph" transform="scale(1 1) rotate(0) translate(4 74)">
<title>sv_mp_get_publisher_count</title>
<!-- Node1 -->
<g id="Node000001" class="node">
<title>Node1</title>
<g id="a_Node000001"><a xlink:title=" ">
<polygon fill="#999999" stroke="#666666" points="108.25,-48 0,-48 0,-16 108.25,-16 108.25,-48"/>
<text xml:space="preserve" text-anchor="start" x="8" y="-34.5" font-family="Helvetica,sans-Serif" font-size="10.00">sv_mp_get_publisher</text>
<text xml:space="preserve" text-anchor="middle" x="54.12" y="-22.5" font-family="Helvetica,sans-Serif" font-size="10.00">_count</text>
</a>
</g>
</g>
<!-- Node2 -->
<g id="Node000002" class="node">
<title>Node2</title>
<g id="a_Node000002"><a xlink:href="class_sv_controller.html#a033d3c28d15fbe3106e8ba48ac04fbad" target="_top" xlink:title=" ">
<polygon fill="white" stroke="#666666" points="274.25,-70 144.25,-70 144.25,-38 274.25,-38 274.25,-70"/>
<text xml:space="preserve" text-anchor="start" x="152.25" y="-56.5" font-family="Helvetica,sans-Serif" font-size="10.00">SvController::getPublisher</text>
<text xml:space="preserve" text-anchor="middle" x="209.25" y="-44.5" font-family="Helvetica,sans-Serif" font-size="10.00">Count</text>
</a>
</g>
</g>
<!-- Node1&#45;&gt;Node2 -->
<g id="edge1_Node000001_Node000002" class="edge">
<title>Node1&#45;&gt;Node2</title>
<g id="a_edge1_Node000001_Node000002"><a xlink:title=" ">
<path fill="none" stroke="#63b8ff" d="M108.68,-39.69C116.42,-40.81 124.5,-41.97 132.57,-43.13"/>
<polygon fill="#63b8ff" stroke="#63b8ff" points="132.04,-46.59 142.44,-44.54 133.04,-39.66 132.04,-46.59"/>
</a>
</g>
</g>
<!-- Node3 -->
<g id="Node000003" class="node">
<title>Node3</title>
<g id="a_Node000003"><a xlink:href="class_sv_controller.html#afc102679fe80499c39d27cb8640394cc" target="_top" xlink:title=" ">
<polygon fill="white" stroke="#666666" points="265.62,-20 152.88,-20 152.88,0 265.62,0 265.62,-20"/>
<text xml:space="preserve" text-anchor="middle" x="209.25" y="-6.5" font-family="Helvetica,sans-Serif" font-size="10.00">SvController::instance</text>
</a>
</g>
</g>
<!-- Node1&#45;&gt;Node3 -->
<g id="edge2_Node000001_Node000003" class="edge">
<title>Node1&#45;&gt;Node3</title>
<g id="a_edge2_Node000001_Node000003"><a xlink:title=" ">
<path fill="none" stroke="#63b8ff" d="M108.68,-24.31C119.18,-22.8 130.31,-21.2 141.19,-19.64"/>
<polygon fill="#63b8ff" stroke="#63b8ff" points="141.49,-23.13 150.89,-18.24 140.49,-16.2 141.49,-23.13"/>
</a>
</g>
</g>
<!-- Node4 -->
<g id="Node000004" class="node">
<title>Node4</title>
<g id="a_Node000004"><a xlink:href="class_sv_controller.html#aa5d7c635a8015c90217076cf4722542c" target="_top" xlink:title=" ">
<polygon fill="white" stroke="#666666" points="440.25,-20 310.25,-20 310.25,0 440.25,0 440.25,-20"/>
<text xml:space="preserve" text-anchor="middle" x="375.25" y="-6.5" font-family="Helvetica,sans-Serif" font-size="10.00">SvController::SvController</text>
</a>
</g>
</g>
<!-- Node3&#45;&gt;Node4 -->
<g id="edge3_Node000003_Node000004" class="edge">
<title>Node3&#45;&gt;Node4</title>
<g id="a_edge3_Node000003_Node000004"><a xlink:title=" ">
<path fill="none" stroke="#63b8ff" d="M265.77,-10C276.33,-10 287.53,-10 298.59,-10"/>
<polygon fill="#63b8ff" stroke="#63b8ff" points="298.5,-13.5 308.5,-10 298.5,-6.5 298.5,-13.5"/>
</a>
</g>
</g>
</g>
</svg>
