<?xml version="1.0" encoding="UTF-8" standalone="no"?>
<!DOCTYPE svg PUBLIC "-//W3C//DTD SVG 1.1//EN"
 "http://www.w3.org/Graphics/SVG/1.1/DTD/svg11.dtd">
<!-- Generated by graphviz version 14.1.2 (20260124.0452)
 -->
<!-- Title: sv_mp_remove_all_publishers Pages: 1 -->
<svg width="523pt" height="66pt"
 viewBox="0.00 0.00 523.00 66.00" xmlns="http://www.w3.org/2000/svg" xmlns:xlink="http://www.w3.org/1999/xlink">
<g id="graph0" class="graph" transform="scale(1 1) rotate(0) translate(4 62)">
<title>sv_mp_remove_all_publishers</title>
<!-- Node1 -->
<g id="Node000001" class="node">
<title>Node1</title>
<g id="a_Node000001"><a xlink:title=" ">
<polygon fill="#999999" stroke="#666666" points="147.25,-39 0,-39 0,-19 147.25,-19 147.25,-39"/>
<text xml:space="preserve" text-anchor="middle" x="73.62" y="-25.5" font-family="Helvetica,sans-Serif" font-size="10.00">sv_mp_remove_all_publishers</text>
</a>
</g>
</g>
<!-- Node2 -->
<g id="Node000002" class="node">
<title>Node2</title>
<g id="a_Node000002"><a xlink:href="class_sv_controller.html#afc102679fe80499c39d27cb8640394cc" target="_top" xlink:title=" ">
<polygon fill="white" stroke="#666666" points="322.25,-58 209.5,-58 209.5,-38 322.25,-38 322.25,-58"/>
<text xml:space="preserve" text-anchor="middle" x="265.88" y="-44.5" font-family="Helvetica,sans-Serif" font-size="10.00">SvController::instance</text>
</a>
</g>
</g>
<!-- Node1&#45;&gt;Node2 -->
<g id="edge1_Node000001_Node000002" class="edge">
<title>Node1&#45;&gt;Node2</title>
<g id="a_edge1_Node000001_Node000002"><a xlink:title=" ">
<path fill="none" stroke="#63b8ff" d="M147.64,-36.29C164.24,-37.95 181.79,-39.7 198.12,-41.33"/>
<polygon fill="#63b8ff" stroke="#63b8ff" points="197.39,-44.78 207.69,-42.29 198.09,-37.81 197.39,-44.78"/>
</a>
</g>
</g>
<!-- Node4 -->
<g id="Node000004" class="node">
<title>Node4</title>
<g id="a_Node000004"><a xlink:href="class_sv_controller.html#a5cb6536920f73a6b6cdf8f2c58023620" target="_top" xlink:title=" ">
<polygon fill="white" stroke="#666666" points="348.5,-20 183.25,-20 183.25,0 348.5,0 348.5,-20"/>
<text xml:space="preserve" text-anchor="middle" x="265.88" y="-6.5" font-family="Helvetica,sans-Serif" font-size="10.00">SvController::removeAllPublishers</text>
</a>
</g>
</g>
<!-- Node1&#45;&gt;Node4 -->
<g id="edge3_Node000001_Node000004" class="edge">
<title>Node1&#45;&gt;Node4</title>
<g id="a_edge3_Node000001_Node000004"><a xlink:title=" ">
<path fill="none" stroke="#63b8ff" d="M147.64,-21.71C155.47,-20.93 163.52,-20.12 171.55,-19.32"/>
<polygon fill="#63b8ff" stroke="#63b8ff" points="171.75,-22.82 181.36,-18.34 171.06,-15.85 171.75,-22.82"/>
</a>
</g>
</g>
<!-- Node3 -->
<g id="Node000003" class="node">
<title>Node3</title>
<g id="a_Node000003"><a xlink:href="class_sv_controller.html#aa5d7c635a8015c90217076cf4722542c" target="_top" xlink:title=" ">
<polygon fill="white" stroke="#666666" points="514.5,-58 384.5,-58 384.5,-38 514.5,-38 514.5,-58"/>
<text xml:space="preserve" text-anchor="middle" x="449.5" y="-44.5" font-family="Helvetica,sans-Serif" font-size="10.00">SvController::SvController</text>
</a>
</g>
</g>
<!-- Node2&#45;&gt;Node3 -->
<g id="edge2_Node000002_Node000003" class="edge">
<title>Node2&#45;&gt;Node3</title>
<g id="a_edge2_Node000002_Node000003"><a xlink:title=" ">
<path fill="none" stroke="#63b8ff" d="M322.36,-48C338.36,-48 356.1,-48 373.09,-48"/>
<polygon fill="#63b8ff" stroke="#63b8ff" points="372.61,-51.5 382.61,-48 372.61,-44.5 372.61,-51.5"/>
</a>
</g>
</g>
</g>
</svg>
