<?xml version="1.0" encoding="UTF-8" standalone="no"?>
<!DOCTYPE svg PUBLIC "-//W3C//DTD SVG 1.1//EN"
 "http://www.w3.org/Graphics/SVG/1.1/DTD/svg11.dtd">
<!-- Generated by graphviz version 14.1.2 (20260124.0452)
 -->
<!-- Title: publisher_loop_batch Pages: 1 -->
<svg width="613pt" height="531pt"
 viewBox="0.00 0.00 613.00 531.00" xmlns="http://www.w3.org/2000/svg" xmlns:xlink="http://www.w3.org/1999/xlink">
<g id="graph0" class="graph" transform="scale(1 1) rotate(0) translate(4 527)">
<title>publisher_loop_batch</title>
<!-- Node1 -->
<g id="Node000001" class="node">
<title>Node1</title>
<g id="a_Node000001"><a xlink:title=" ">
<polygon fill="#999999" stroke="#666666" points="107.5,-276 0,-276 0,-256 107.5,-256 107.5,-276"/>
<text xml:space="preserve" text-anchor="middle" x="53.75" y="-262.5" font-family="Helvetica,sans-Serif" font-size="10.00">publisher_loop_batch</text>
</a>
</g>
</g>
<!-- Node1&#45;&gt;Node1 -->
<g id="edge23_Node000001_Node000001" class="edge">
<title>Node1&#45;&gt;Node1</title>
<g id="a_edge23_Node000001_Node000001"><a xlink:title=" ">
<path fill="none" stroke="#63b8ff" d="M29.88,-276.34C19.67,-284.98 27.63,-294 53.75,-294 68.03,-294 76.89,-291.3 80.31,-287.44"/>
<polygon fill="#63b8ff" stroke="#63b8ff" points="83.73,-286.71 77.98,-277.81 76.93,-288.35 83.73,-286.71"/>
</a>
</g>
</g>
<!-- Node2 -->
<g id="Node000002" class="node">
<title>Node2</title>
<g id="a_Node000002"><a xlink:href="sv__native__refactored_8cc.html#aa18783d233bbd1ff97330bfb332b2305" target="_top" xlink:title=" ">
<polygon fill="white" stroke="#666666" points="264.5,-523 143.5,-523 143.5,-503 264.5,-503 264.5,-523"/>
<text xml:space="preserve" text-anchor="middle" x="204" y="-509.5" font-family="Helvetica,sans-Serif" font-size="10.00">check_duration_elapsed</text>
</a>
</g>
</g>
<!-- Node1&#45;&gt;Node2 -->
<g id="edge1_Node000001_Node000002" class="edge">
<title>Node1&#45;&gt;Node2</title>
<g id="a_edge1_Node000001_Node000002"><a xlink:title=" ">
<path fill="none" stroke="#63b8ff" d="M55.99,-276.44C60.66,-311.37 80.3,-425.51 143.5,-489 146.64,-492.15 150.24,-494.9 154.09,-497.3"/>
<polygon fill="#63b8ff" stroke="#63b8ff" points="152.24,-500.28 162.71,-501.87 155.51,-494.09 152.24,-500.28"/>
</a>
</g>
</g>
<!-- Node3 -->
<g id="Node000003" class="node">
<title>Node3</title>
<g id="a_Node000003"><a xlink:href="sv__native__refactored_8cc.html#a73998198f95089da56c389e492a471e5" target="_top" xlink:title=" ">
<polygon fill="white" stroke="#666666" points="405.38,-485 333.12,-485 333.12,-465 405.38,-465 405.38,-485"/>
<text xml:space="preserve" text-anchor="middle" x="369.25" y="-471.5" font-family="Helvetica,sans-Serif" font-size="10.00">get_time_ms</text>
</a>
</g>
</g>
<!-- Node1&#45;&gt;Node3 -->
<g id="edge5_Node000001_Node000003" class="edge">
<title>Node1&#45;&gt;Node3</title>
<g id="a_edge5_Node000001_Node000003"><a xlink:title=" ">
<path fill="none" stroke="#63b8ff" d="M55.97,-276.07C60.51,-308.6 79.6,-411.43 143.5,-456 195.83,-492.5 272.59,-490.24 321.49,-483.76"/>
<polygon fill="#63b8ff" stroke="#63b8ff" points="321.79,-487.26 331.19,-482.36 320.79,-480.33 321.79,-487.26"/>
</a>
</g>
</g>
<!-- Node5 -->
<g id="Node000005" class="node">
<title>Node5</title>
<g id="a_Node000005"><a xlink:href="sv__native__refactored_8cc.html#a866cf9a417d9328fcde6e029c4ca97b0" target="_top" xlink:title=" ">
<polygon fill="white" stroke="#666666" points="261.12,-447 146.88,-447 146.88,-427 261.12,-427 261.12,-447"/>
<text xml:space="preserve" text-anchor="middle" x="204" y="-433.5" font-family="Helvetica,sans-Serif" font-size="10.00">elevate_thread_priority</text>
</a>
</g>
</g>
<!-- Node1&#45;&gt;Node5 -->
<g id="edge4_Node000001_Node000005" class="edge">
<title>Node1&#45;&gt;Node5</title>
<g id="a_edge4_Node000001_Node000005"><a xlink:title=" ">
<path fill="none" stroke="#63b8ff" d="M57.84,-276.23C66.58,-303.47 94.14,-378.44 143.5,-418 144.98,-419.19 146.54,-420.3 148.16,-421.35"/>
<polygon fill="#63b8ff" stroke="#63b8ff" points="146.15,-424.24 156.61,-425.9 149.46,-418.08 146.15,-424.24"/>
</a>
</g>
</g>
<!-- Node6 -->
<g id="Node000006" class="node">
<title>Node6</title>
<g id="a_Node000006"><a xlink:href="npcap__transmitter__impl_8cc.html#a3469e50a088ee2f93c0678e6d0286f56" target="_top" xlink:title="Add a packet to the queue.">
<polygon fill="white" stroke="#666666" points="251.38,-409 156.62,-409 156.62,-389 251.38,-389 251.38,-409"/>
<text xml:space="preserve" text-anchor="middle" x="204" y="-395.5" font-family="Helvetica,sans-Serif" font-size="10.00">npcap_queue_add</text>
</a>
</g>
</g>
<!-- Node1&#45;&gt;Node6 -->
<g id="edge6_Node000001_Node000006" class="edge">
<title>Node1&#45;&gt;Node6</title>
<g id="a_edge6_Node000001_Node000006"><a xlink:title=" ">
<path fill="none" stroke="#63b8ff" d="M59.9,-276.19C71.64,-298.4 102.57,-351.44 143.5,-380 145.33,-381.28 147.26,-382.48 149.25,-383.6"/>
<polygon fill="#63b8ff" stroke="#63b8ff" points="147.71,-386.74 158.24,-387.91 150.74,-380.43 147.71,-386.74"/>
</a>
</g>
</g>
<!-- Node7 -->
<g id="Node000007" class="node">
<title>Node7</title>
<g id="a_Node000007"><a xlink:href="npcap__transmitter__impl_8cc.html#a745d7b22094024f754840a72a108339e" target="_top" xlink:title="Allocate a send queue.">
<polygon fill="white" stroke="#666666" points="257,-371 151,-371 151,-351 257,-351 257,-371"/>
<text xml:space="preserve" text-anchor="middle" x="204" y="-357.5" font-family="Helvetica,sans-Serif" font-size="10.00">npcap_queue_create</text>
</a>
</g>
</g>
<!-- Node1&#45;&gt;Node7 -->
<g id="edge7_Node000001_Node000007" class="edge">
<title>Node1&#45;&gt;Node7</title>
<g id="a_edge7_Node000001_Node000007"><a xlink:title=" ">
<path fill="none" stroke="#63b8ff" d="M64.13,-276.34C79.31,-292.51 110.9,-323.82 143.5,-342 146.3,-343.56 149.24,-345.01 152.26,-346.36"/>
<polygon fill="#63b8ff" stroke="#63b8ff" points="150.72,-349.52 161.31,-349.99 153.33,-343.02 150.72,-349.52"/>
</a>
</g>
</g>
<!-- Node8 -->
<g id="Node000008" class="node">
<title>Node8</title>
<g id="a_Node000008"><a xlink:href="npcap__transmitter__impl_8cc.html#ae10474fb21e8e779e37605a98dd327eb" target="_top" xlink:title="Destroy a send queue.">
<polygon fill="white" stroke="#666666" points="259.62,-333 148.38,-333 148.38,-313 259.62,-313 259.62,-333"/>
<text xml:space="preserve" text-anchor="middle" x="204" y="-319.5" font-family="Helvetica,sans-Serif" font-size="10.00">npcap_queue_destroy</text>
</a>
</g>
</g>
<!-- Node1&#45;&gt;Node8 -->
<g id="edge8_Node000001_Node000008" class="edge">
<title>Node1&#45;&gt;Node8</title>
<g id="a_edge8_Node000001_Node000008"><a xlink:title=" ">
<path fill="none" stroke="#63b8ff" d="M77.49,-276.45C95.28,-284.45 120.73,-295.51 143.5,-304 147.96,-305.66 152.64,-307.31 157.33,-308.91"/>
<polygon fill="#63b8ff" stroke="#63b8ff" points="156.17,-312.21 166.76,-312.03 158.37,-305.56 156.17,-312.21"/>
</a>
</g>
</g>
<!-- Node9 -->
<g id="Node000009" class="node">
<title>Node9</title>
<g id="a_Node000009"><a xlink:href="npcap__transmitter__impl_8cc.html#ae6e10a3445bc66c81ead5b438b868ea8" target="_top" xlink:title="Transmit all packets in the queue.">
<polygon fill="white" stroke="#666666" points="261.12,-295 146.88,-295 146.88,-275 261.12,-275 261.12,-295"/>
<text xml:space="preserve" text-anchor="middle" x="204" y="-281.5" font-family="Helvetica,sans-Serif" font-size="10.00">npcap_queue_transmit</text>
</a>
</g>
</g>
<!-- Node1&#45;&gt;Node9 -->
<g id="edge9_Node000001_Node000009" class="edge">
<title>Node1&#45;&gt;Node9</title>
<g id="a_edge9_Node000001_Node000009"><a xlink:title=" ">
<path fill="none" stroke="#63b8ff" d="M107.85,-272.81C116.77,-273.95 126.13,-275.15 135.36,-276.33"/>
<polygon fill="#63b8ff" stroke="#63b8ff" points="134.64,-279.77 145.01,-277.57 135.53,-272.82 134.64,-279.77"/>
</a>
</g>
</g>
<!-- Node10 -->
<g id="Node000010" class="node">
<title>Node10</title>
<g id="a_Node000010"><a xlink:href="sv__stats__impl_8cc.html#a210b53baa9526fbb867d2a6b3ad925c4" target="_top" xlink:title="Record a successful packet transmission.">
<polygon fill="white" stroke="#666666" points="420,-272 318.5,-272 318.5,-240 420,-240 420,-272"/>
<text xml:space="preserve" text-anchor="start" x="326.5" y="-258.5" font-family="Helvetica,sans-Serif" font-size="10.00">npcap_stats_record</text>
<text xml:space="preserve" text-anchor="middle" x="369.25" y="-246.5" font-family="Helvetica,sans-Serif" font-size="10.00">_packet</text>
</a>
</g>
</g>
<!-- Node1&#45;&gt;Node10 -->
<g id="edge10_Node000001_Node000010" class="edge">
<title>Node1&#45;&gt;Node10</title>
<g id="a_edge10_Node000001_Node000010"><a xlink:title=" ">
<path fill="none" stroke="#63b8ff" d="M107.93,-264.3C163.04,-262.55 249.07,-259.8 306.99,-257.95"/>
<polygon fill="#63b8ff" stroke="#63b8ff" points="306.78,-261.46 316.67,-257.65 306.56,-254.47 306.78,-261.46"/>
</a>
</g>
</g>
<!-- Node11 -->
<g id="Node000011" class="node">
<title>Node11</title>
<g id="a_Node000011"><a xlink:href="sv__stats__impl_8cc.html#a4e5f02e3cc9b2b06496cca1b54582e0a" target="_top" xlink:title="Reset all statistics to zero.">
<polygon fill="white" stroke="#666666" points="252.12,-219 155.88,-219 155.88,-199 252.12,-199 252.12,-219"/>
<text xml:space="preserve" text-anchor="middle" x="204" y="-205.5" font-family="Helvetica,sans-Serif" font-size="10.00">npcap_stats_reset</text>
</a>
</g>
</g>
<!-- Node1&#45;&gt;Node11 -->
<g id="edge12_Node000001_Node000011" class="edge">
<title>Node1&#45;&gt;Node11</title>
<g id="a_edge12_Node000001_Node000011"><a xlink:title=" ">
<path fill="none" stroke="#63b8ff" d="M81.94,-255.55C105.27,-246.57 139.15,-233.55 165.13,-223.56"/>
<polygon fill="#63b8ff" stroke="#63b8ff" points="166.24,-226.88 174.32,-220.03 163.73,-220.35 166.24,-226.88"/>
</a>
</g>
</g>
<!-- Node12 -->
<g id="Node000012" class="node">
<title>Node12</title>
<g id="a_Node000012"><a xlink:href="sv__stats__impl_8cc.html#a4437629953bc0b691829d9c7b77cc061" target="_top" xlink:title="End the current statistics session.">
<polygon fill="white" stroke="#666666" points="433.88,-222 304.62,-222 304.62,-202 433.88,-202 433.88,-222"/>
<text xml:space="preserve" text-anchor="middle" x="369.25" y="-208.5" font-family="Helvetica,sans-Serif" font-size="10.00">npcap_stats_session_end</text>
</a>
</g>
</g>
<!-- Node1&#45;&gt;Node12 -->
<g id="edge13_Node000001_Node000012" class="edge">
<title>Node1&#45;&gt;Node12</title>
<g id="a_edge13_Node000001_Node000012"><a xlink:title=" ">
<path fill="none" stroke="#63b8ff" d="M62.64,-255.56C76.63,-238.01 107.73,-203.22 143.5,-190 193.94,-171.35 211.02,-184.39 264.5,-190 281.91,-191.83 300.69,-195.33 317.43,-199.01"/>
<polygon fill="#63b8ff" stroke="#63b8ff" points="316.65,-202.42 327.18,-201.24 318.21,-195.6 316.65,-202.42"/>
</a>
</g>
</g>
<!-- Node13 -->
<g id="Node000013" class="node">
<title>Node13</title>
<g id="a_Node000013"><a xlink:href="sv__stats__impl_8cc.html#ad0737fafaaf6836a17171d40d5a3f77d" target="_top" xlink:title="Start a new statistics session.">
<polygon fill="white" stroke="#666666" points="423.38,-184 315.12,-184 315.12,-152 423.38,-152 423.38,-184"/>
<text xml:space="preserve" text-anchor="start" x="323.12" y="-170.5" font-family="Helvetica,sans-Serif" font-size="10.00">npcap_stats_session</text>
<text xml:space="preserve" text-anchor="middle" x="369.25" y="-158.5" font-family="Helvetica,sans-Serif" font-size="10.00">_start</text>
</a>
</g>
</g>
<!-- Node1&#45;&gt;Node13 -->
<g id="edge15_Node000001_Node000013" class="edge">
<title>Node1&#45;&gt;Node13</title>
<g id="a_edge15_Node000001_Node000013"><a xlink:title=" ">
<path fill="none" stroke="#63b8ff" d="M60.99,-255.73C73.65,-235.98 104.52,-193.12 143.5,-176 193.92,-153.85 257,-153.68 303.49,-157.99"/>
<polygon fill="#63b8ff" stroke="#63b8ff" points="303.13,-161.47 313.43,-159.02 303.85,-154.51 303.13,-161.47"/>
</a>
</g>
</g>
<!-- Node14 -->
<g id="Node000014" class="node">
<title>Node14</title>
<g id="a_Node000014"><a xlink:href="sv__native__refactored_8cc.html#a7e6a8d1afed7cf1fc23dc37a7e5d872a" target="_top" xlink:title=" ">
<polygon fill="white" stroke="#666666" points="246.5,-105 161.5,-105 161.5,-85 246.5,-85 246.5,-105"/>
<text xml:space="preserve" text-anchor="middle" x="204" y="-91.5" font-family="Helvetica,sans-Serif" font-size="10.00">prebuild_frames</text>
</a>
</g>
</g>
<!-- Node1&#45;&gt;Node14 -->
<g id="edge17_Node000001_Node000014" class="edge">
<title>Node1&#45;&gt;Node14</title>
<g id="a_edge17_Node000001_Node000014"><a xlink:title=" ">
<path fill="none" stroke="#63b8ff" d="M58.37,-255.54C68.05,-229.05 96.98,-158.63 143.5,-119 147.37,-115.7 151.76,-112.82 156.35,-110.3"/>
<polygon fill="#63b8ff" stroke="#63b8ff" points="157.75,-113.51 165.24,-106.03 154.71,-107.2 157.75,-113.51"/>
</a>
</g>
</g>
<!-- Node20 -->
<g id="Node000020" class="node">
<title>Node20</title>
<g id="a_Node000020"><a xlink:href="sv__native__refactored_8cc.html#a9e741bc398d62c9cc67a447fcf2f2d52" target="_top" xlink:title=" ">
<polygon fill="white" stroke="#666666" points="260.38,-67 147.62,-67 147.62,-47 260.38,-47 260.38,-67"/>
<text xml:space="preserve" text-anchor="middle" x="204" y="-53.5" font-family="Helvetica,sans-Serif" font-size="10.00">restore_thread_priority</text>
</a>
</g>
</g>
<!-- Node1&#45;&gt;Node20 -->
<g id="edge24_Node000001_Node000020" class="edge">
<title>Node1&#45;&gt;Node20</title>
<g id="a_edge24_Node000001_Node000020"><a xlink:title=" ">
<path fill="none" stroke="#63b8ff" d="M56.58,-255.61C62.71,-223.82 85.55,-126.98 143.5,-76 144.6,-75.03 145.75,-74.12 146.94,-73.24"/>
<polygon fill="#63b8ff" stroke="#63b8ff" points="148.61,-76.32 155.43,-68.21 145.04,-70.3 148.61,-76.32"/>
</a>
</g>
</g>
<!-- Node21 -->
<g id="Node000021" class="node">
<title>Node21</title>
<g id="a_Node000021"><a xlink:href="sv__native__refactored_8cc.html#a172e4a5cb3e8a1f59552a7990cfd53be" target="_top" xlink:title=" ">
<polygon fill="white" stroke="#666666" points="236.75,-29 171.25,-29 171.25,-9 236.75,-9 236.75,-29"/>
<text xml:space="preserve" text-anchor="middle" x="204" y="-15.5" font-family="Helvetica,sans-Serif" font-size="10.00">spin_pause</text>
</a>
</g>
</g>
<!-- Node1&#45;&gt;Node21 -->
<g id="edge25_Node000001_Node000021" class="edge">
<title>Node1&#45;&gt;Node21</title>
<g id="a_edge25_Node000001_Node000021"><a xlink:title=" ">
<path fill="none" stroke="#63b8ff" d="M55.68,-255.64C59.42,-219.95 76.64,-100.83 143.5,-38 148.31,-33.48 154.19,-30.04 160.37,-27.41"/>
<polygon fill="#63b8ff" stroke="#63b8ff" points="161.2,-30.83 169.48,-24.22 158.88,-24.22 161.2,-30.83"/>
</a>
</g>
</g>
<!-- Node2&#45;&gt;Node3 -->
<g id="edge2_Node000002_Node000003" class="edge">
<title>Node2&#45;&gt;Node3</title>
<g id="a_edge2_Node000002_Node000003"><a xlink:title=" ">
<path fill="none" stroke="#63b8ff" d="M250.04,-502.52C272.32,-497.33 299.19,-491.07 321.68,-485.84"/>
<polygon fill="#63b8ff" stroke="#63b8ff" points="322.24,-489.3 331.19,-483.63 320.65,-482.49 322.24,-489.3"/>
</a>
</g>
</g>
<!-- Node4 -->
<g id="Node000004" class="node">
<title>Node4</title>
<g id="a_Node000004"><a xlink:href="sv__stats__impl_8cc.html#ae7cd346e20d4749f60fa7332dfae0dd7" target="_top" xlink:title="Get current time in milliseconds.">
<polygon fill="white" stroke="#666666" points="604.75,-244 474,-244 474,-224 604.75,-224 604.75,-244"/>
<text xml:space="preserve" text-anchor="middle" x="539.38" y="-230.5" font-family="Helvetica,sans-Serif" font-size="10.00">npcap_stats_get_time_ms</text>
</a>
</g>
</g>
<!-- Node3&#45;&gt;Node4 -->
<g id="edge3_Node000003_Node000004" class="edge">
<title>Node3&#45;&gt;Node4</title>
<g id="a_edge3_Node000003_Node000004"><a xlink:title=" ">
<path fill="none" stroke="#63b8ff" d="M377.47,-464.64C403.23,-427.72 490.85,-302.12 524.79,-253.47"/>
<polygon fill="#63b8ff" stroke="#63b8ff" points="527.46,-255.76 530.31,-245.56 521.72,-251.76 527.46,-255.76"/>
</a>
</g>
</g>
<!-- Node10&#45;&gt;Node4 -->
<g id="edge11_Node000010_Node000004" class="edge">
<title>Node10&#45;&gt;Node4</title>
<g id="a_edge11_Node000010_Node000004"><a xlink:title=" ">
<path fill="none" stroke="#63b8ff" d="M420.24,-249.46C433.45,-247.73 448.02,-245.82 462.27,-243.96"/>
<polygon fill="#63b8ff" stroke="#63b8ff" points="462.65,-247.44 472.11,-242.67 461.74,-240.5 462.65,-247.44"/>
</a>
</g>
</g>
<!-- Node12&#45;&gt;Node4 -->
<g id="edge14_Node000012_Node000004" class="edge">
<title>Node12&#45;&gt;Node4</title>
<g id="a_edge14_Node000012_Node000004"><a xlink:title=" ">
<path fill="none" stroke="#63b8ff" d="M434.29,-220.38C443.46,-221.58 452.97,-222.82 462.34,-224.05"/>
<polygon fill="#63b8ff" stroke="#63b8ff" points="461.81,-227.51 472.18,-225.34 462.71,-220.57 461.81,-227.51"/>
</a>
</g>
</g>
<!-- Node13&#45;&gt;Node4 -->
<g id="edge16_Node000013_Node000004" class="edge">
<title>Node13&#45;&gt;Node4</title>
<g id="a_edge16_Node000013_Node000004"><a xlink:title=" ">
<path fill="none" stroke="#63b8ff" d="M415.52,-184.46C423.04,-187.27 430.75,-190.18 438,-193 459.81,-201.47 484.1,-211.39 503.33,-219.34"/>
<polygon fill="#63b8ff" stroke="#63b8ff" points="501.74,-222.47 512.32,-223.07 504.43,-216.01 501.74,-222.47"/>
</a>
</g>
</g>
<!-- Node15 -->
<g id="Node000015" class="node">
<title>Node15</title>
<g id="a_Node000015"><a xlink:href="sv__native__refactored_8cc.html#a2f554ded106c1391e42b140e22584fb3" target="_top" xlink:title=" ">
<polygon fill="white" stroke="#666666" points="418.12,-134 320.38,-134 320.38,-114 418.12,-114 418.12,-134"/>
<text xml:space="preserve" text-anchor="middle" x="369.25" y="-120.5" font-family="Helvetica,sans-Serif" font-size="10.00">alloc_frame_cache</text>
</a>
</g>
</g>
<!-- Node14&#45;&gt;Node15 -->
<g id="edge18_Node000014_Node000015" class="edge">
<title>Node14&#45;&gt;Node15</title>
<g id="a_edge18_Node000014_Node000015"><a xlink:title=" ">
<path fill="none" stroke="#63b8ff" d="M246.62,-102.39C265.51,-105.75 288.2,-109.78 308.83,-113.45"/>
<polygon fill="#63b8ff" stroke="#63b8ff" points="308.1,-116.87 318.56,-115.17 309.33,-109.98 308.1,-116.87"/>
</a>
</g>
</g>
<!-- Node17 -->
<g id="Node000017" class="node">
<title>Node17</title>
<g id="a_Node000017"><a xlink:href="sv__native__refactored_8cc.html#a081cf319776daba5ec14c60bec132d64" target="_top" xlink:title=" ">
<polygon fill="white" stroke="#666666" points="411.75,-96 326.75,-96 326.75,-76 411.75,-76 411.75,-96"/>
<text xml:space="preserve" text-anchor="middle" x="369.25" y="-82.5" font-family="Helvetica,sans-Serif" font-size="10.00">g_eq_processor</text>
</a>
</g>
</g>
<!-- Node14&#45;&gt;Node17 -->
<g id="edge20_Node000014_Node000017" class="edge">
<title>Node14&#45;&gt;Node17</title>
<g id="a_edge20_Node000014_Node000017"><a xlink:title=" ">
<path fill="none" stroke="#63b8ff" d="M246.62,-92.71C267.45,-91.56 292.91,-90.15 315.14,-88.93"/>
<polygon fill="#63b8ff" stroke="#63b8ff" points="315.12,-92.43 324.91,-88.39 314.74,-85.44 315.12,-92.43"/>
</a>
</g>
</g>
<!-- Node18 -->
<g id="Node000018" class="node">
<title>Node18</title>
<g id="a_Node000018"><a xlink:href="sv__encoder__impl_8cc.html#a58f4a492f4c37293fdfcc0401b72abd1" target="_top" xlink:title="Encode a single SV packet.">
<polygon fill="white" stroke="#666666" points="438,-58 300.5,-58 300.5,-38 438,-38 438,-58"/>
<text xml:space="preserve" text-anchor="middle" x="369.25" y="-44.5" font-family="Helvetica,sans-Serif" font-size="10.00">sv_encoder_encode_packet</text>
</a>
</g>
</g>
<!-- Node14&#45;&gt;Node18 -->
<g id="edge21_Node000014_Node000018" class="edge">
<title>Node14&#45;&gt;Node18</title>
<g id="a_edge21_Node000014_Node000018"><a xlink:title=" ">
<path fill="none" stroke="#63b8ff" d="M240.35,-84.53C258.34,-79.23 280.57,-72.72 300.5,-67 306.74,-65.21 313.32,-63.34 319.81,-61.51"/>
<polygon fill="#63b8ff" stroke="#63b8ff" points="320.46,-64.96 329.14,-58.88 318.57,-58.22 320.46,-64.96"/>
</a>
</g>
</g>
<!-- Node19 -->
<g id="Node000019" class="node">
<title>Node19</title>
<g id="a_Node000019"><a xlink:href="sv__encoder__impl_8cc.html#a3b78a24c9d83ba55bcd667b3b7fec64c" target="_top" xlink:title="Set encoder configuration.">
<polygon fill="white" stroke="#666666" points="427.5,-20 311,-20 311,0 427.5,0 427.5,-20"/>
<text xml:space="preserve" text-anchor="middle" x="369.25" y="-6.5" font-family="Helvetica,sans-Serif" font-size="10.00">sv_encoder_set_config</text>
</a>
</g>
</g>
<!-- Node14&#45;&gt;Node19 -->
<g id="edge22_Node000014_Node000019" class="edge">
<title>Node14&#45;&gt;Node19</title>
<g id="a_edge22_Node000014_Node000019"><a xlink:title=" ">
<path fill="none" stroke="#63b8ff" d="M246.87,-85.23C253.08,-82.78 259.18,-79.74 264.5,-76 286.02,-60.86 278.71,-43.75 300.5,-29 302.48,-27.66 304.54,-26.42 306.68,-25.26"/>
<polygon fill="#63b8ff" stroke="#63b8ff" points="308.09,-28.47 315.69,-21.09 305.15,-22.11 308.09,-28.47"/>
</a>
</g>
</g>
<!-- Node16 -->
<g id="Node000016" class="node">
<title>Node16</title>
<g id="a_Node000016"><a xlink:href="sv__native__refactored_8cc.html#a24b2107199112b58a421c0c873ea7d12" target="_top" xlink:title=" ">
<polygon fill="white" stroke="#666666" points="586.38,-134 492.38,-134 492.38,-114 586.38,-114 586.38,-134"/>
<text xml:space="preserve" text-anchor="middle" x="539.38" y="-120.5" font-family="Helvetica,sans-Serif" font-size="10.00">free_frame_cache</text>
</a>
</g>
</g>
<!-- Node15&#45;&gt;Node16 -->
<g id="edge19_Node000015_Node000016" class="edge">
<title>Node15&#45;&gt;Node16</title>
<g id="a_edge19_Node000015_Node000016"><a xlink:title=" ">
<path fill="none" stroke="#63b8ff" d="M418.43,-124C437.82,-124 460.36,-124 480.62,-124"/>
<polygon fill="#63b8ff" stroke="#63b8ff" points="480.41,-127.5 490.41,-124 480.41,-120.5 480.41,-127.5"/>
</a>
</g>
</g>
</g>
</svg>
