<?xml version="1.0" encoding="UTF-8" standalone="no"?>
<!DOCTYPE svg PUBLIC "-//W3C//DTD SVG 1.1//EN"
 "http://www.w3.org/Graphics/SVG/1.1/DTD/svg11.dtd">
<!-- Generated by graphviz version 14.1.2 (20260124.0452)
 -->
<!-- Title: sv_encoder_encode_packet Pages: 1 -->
<svg width="621pt" height="154pt"
 viewBox="0.00 0.00 621.00 154.00" xmlns="http://www.w3.org/2000/svg" xmlns:xlink="http://www.w3.org/1999/xlink">
<g id="graph0" class="graph" transform="scale(1 1) rotate(0) translate(4 150)">
<title>sv_encoder_encode_packet</title>
<!-- Node1 -->
<g id="Node000001" class="node">
<title>Node1</title>
<g id="a_Node000001"><a xlink:title="Encode a single SV packet.">
<polygon fill="#999999" stroke="#666666" points="613,-86 475.5,-86 475.5,-66 613,-66 613,-86"/>
<text xml:space="preserve" text-anchor="middle" x="544.25" y="-72.5" font-family="Helvetica,sans-Serif" font-size="10.00">sv_encoder_encode_packet</text>
</a>
</g>
</g>
<!-- Node2 -->
<g id="Node000002" class="node">
<title>Node2</title>
<g id="a_Node000002"><a xlink:href="sv__native__refactored_8cc.html#a3bd4dbe7d50b9f716bd13a2f2cc23d36" target="_top" xlink:title="Get a sample frame with current configuration Returns the actual encoded frame bytes that would be tr...">
<polygon fill="white" stroke="#666666" points="439.5,-146 311.75,-146 311.75,-126 439.5,-126 439.5,-146"/>
<text xml:space="preserve" text-anchor="middle" x="375.62" y="-132.5" font-family="Helvetica,sans-Serif" font-size="10.00">npcap_get_sample_frame</text>
</a>
</g>
</g>
<!-- Node1&#45;&gt;Node2 -->
<g id="edge1_Node000001_Node000002" class="edge">
<title>Node1&#45;&gt;Node2</title>
<g id="a_edge1_Node000001_Node000002"><a xlink:title=" ">
<path fill="none" stroke="#63b8ff" d="M508.26,-90.67C488.27,-98.83 462.65,-108.94 439.5,-117 430.99,-119.96 421.75,-122.9 413.03,-125.56"/>
<polygon fill="#63b8ff" stroke="#63b8ff" points="509.41,-93.97 517.33,-86.93 506.75,-87.5 509.41,-93.97"/>
</a>
</g>
</g>
<!-- Node3 -->
<g id="Node000003" class="node">
<title>Node3</title>
<g id="a_Node000003"><a xlink:href="sv__native__refactored_8cc.html#a7e6a8d1afed7cf1fc23dc37a7e5d872a" target="_top" xlink:title=" ">
<polygon fill="white" stroke="#666666" points="418.12,-108 333.12,-108 333.12,-88 418.12,-88 418.12,-108"/>
<text xml:space="preserve" text-anchor="middle" x="375.62" y="-94.5" font-family="Helvetica,sans-Serif" font-size="10.00">prebuild_frames</text>
</a>
</g>
</g>
<!-- Node1&#45;&gt;Node3 -->
<g id="edge2_Node000001_Node000003" class="edge">
<title>Node1&#45;&gt;Node3</title>
<g id="a_edge2_Node000001_Node000003"><a xlink:title=" ">
<path fill="none" stroke="#63b8ff" d="M464.08,-86.45C448.34,-88.53 432.39,-90.64 418.51,-92.47"/>
<polygon fill="#63b8ff" stroke="#63b8ff" points="464.52,-89.93 473.98,-85.15 463.6,-82.99 464.52,-89.93"/>
</a>
</g>
</g>
<!-- Node7 -->
<g id="Node000007" class="node">
<title>Node7</title>
<g id="a_Node000007"><a xlink:href="class_sv_publisher_instance.html#a79f270111ac8d2c0951a3f97ecf36a12" target="_top" xlink:title=" ">
<polygon fill="white" stroke="#666666" points="428.62,-70 322.62,-70 322.62,-38 428.62,-38 428.62,-70"/>
<text xml:space="preserve" text-anchor="start" x="330.62" y="-56.5" font-family="Helvetica,sans-Serif" font-size="10.00">SvPublisherInstance</text>
<text xml:space="preserve" text-anchor="middle" x="375.62" y="-44.5" font-family="Helvetica,sans-Serif" font-size="10.00">::prebuildFrames</text>
</a>
</g>
</g>
<!-- Node1&#45;&gt;Node7 -->
<g id="edge9_Node000001_Node000007" class="edge">
<title>Node1&#45;&gt;Node7</title>
<g id="a_edge9_Node000001_Node000007"><a xlink:title=" ">
<path fill="none" stroke="#63b8ff" d="M464.12,-65.55C452.2,-63.98 440.17,-62.39 429,-60.92"/>
<polygon fill="#63b8ff" stroke="#63b8ff" points="463.6,-69.01 473.98,-66.85 464.52,-62.07 463.6,-69.01"/>
</a>
</g>
</g>
<!-- Node8 -->
<g id="Node000008" class="node">
<title>Node8</title>
<g id="a_Node000008"><a xlink:href="sv__native__refactored_8cc.html#ae2056b20c01b052837592dc341ce314e" target="_top" xlink:title=" ">
<polygon fill="white" stroke="#666666" points="266,-20 157,-20 157,0 266,0 266,-20"/>
<text xml:space="preserve" text-anchor="middle" x="211.5" y="-6.5" font-family="Helvetica,sans-Serif" font-size="10.00">publisher_loop_single</text>
</a>
</g>
</g>
<!-- Node1&#45;&gt;Node8 -->
<g id="edge10_Node000001_Node000008" class="edge">
<title>Node1&#45;&gt;Node8</title>
<g id="a_edge10_Node000001_Node000008"><a xlink:title=" ">
<path fill="none" stroke="#63b8ff" d="M515.09,-60.06C494.75,-49.34 466.27,-35.96 439.5,-29 381.51,-13.92 312.66,-10.03 266.11,-9.37"/>
<polygon fill="#63b8ff" stroke="#63b8ff" points="513.42,-63.13 523.88,-64.8 516.74,-56.97 513.42,-63.13"/>
</a>
</g>
</g>
<!-- Node4 -->
<g id="Node000004" class="node">
<title>Node4</title>
<g id="a_Node000004"><a xlink:href="sv__native__refactored_8cc.html#a186b6b16f2d04a7fd9c7da099fac4fa5" target="_top" xlink:title=" ">
<polygon fill="white" stroke="#666666" points="265.25,-114 157.75,-114 157.75,-94 265.25,-94 265.25,-114"/>
<text xml:space="preserve" text-anchor="middle" x="211.5" y="-100.5" font-family="Helvetica,sans-Serif" font-size="10.00">publisher_loop_batch</text>
</a>
</g>
</g>
<!-- Node3&#45;&gt;Node4 -->
<g id="edge3_Node000003_Node000004" class="edge">
<title>Node3&#45;&gt;Node4</title>
<g id="a_edge3_Node000003_Node000004"><a xlink:title=" ">
<path fill="none" stroke="#63b8ff" d="M321.41,-99.97C303.45,-100.63 283.4,-101.38 265.46,-102.04"/>
<polygon fill="#63b8ff" stroke="#63b8ff" points="321.5,-103.47 331.36,-99.6 321.24,-96.47 321.5,-103.47"/>
</a>
</g>
</g>
<!-- Node6 -->
<g id="Node000006" class="node">
<title>Node6</title>
<g id="a_Node000006"><a xlink:href="sv__native__refactored_8cc.html#a27703afec602cc5af011d5661a53b510" target="_top" xlink:title=" ">
<polygon fill="white" stroke="#666666" points="275.75,-58 147.25,-58 147.25,-38 275.75,-38 275.75,-58"/>
<text xml:space="preserve" text-anchor="middle" x="211.5" y="-44.5" font-family="Helvetica,sans-Serif" font-size="10.00">publisher_loop_immediate</text>
</a>
</g>
</g>
<!-- Node3&#45;&gt;Node6 -->
<g id="edge6_Node000003_Node000006" class="edge">
<title>Node3&#45;&gt;Node6</title>
<g id="a_edge6_Node000003_Node000006"><a xlink:title=" ">
<path fill="none" stroke="#63b8ff" d="M328.79,-84.2C323.05,-82.46 317.26,-80.69 311.75,-79 289.66,-72.21 264.85,-64.46 245.56,-58.41"/>
<polygon fill="#63b8ff" stroke="#63b8ff" points="327.65,-87.52 338.24,-87.07 329.68,-80.82 327.65,-87.52"/>
</a>
</g>
</g>
<!-- Node4&#45;&gt;Node4 -->
<g id="edge5_Node000004_Node000004" class="edge">
<title>Node4&#45;&gt;Node4</title>
<g id="a_edge5_Node000004_Node000004"><a xlink:title=" ">
<path fill="none" stroke="#63b8ff" d="M239.05,-125.44C235.5,-129.3 226.32,-132 211.5,-132 184.4,-132 176.15,-122.98 186.73,-114.34"/>
<polygon fill="#63b8ff" stroke="#63b8ff" points="242.46,-124.66 236.63,-115.81 235.67,-126.36 242.46,-124.66"/>
</a>
</g>
</g>
<!-- Node5 -->
<g id="Node000005" class="node">
<title>Node5</title>
<g id="a_Node000005"><a xlink:href="sv__native__refactored_8cc.html#af14f0670e1b30534e33524f8c49a5580" target="_top" xlink:title="Start publishing.">
<polygon fill="white" stroke="#666666" points="111.25,-58 0,-58 0,-38 111.25,-38 111.25,-58"/>
<text xml:space="preserve" text-anchor="middle" x="55.62" y="-44.5" font-family="Helvetica,sans-Serif" font-size="10.00">npcap_publisher_start</text>
</a>
</g>
</g>
<!-- Node4&#45;&gt;Node5 -->
<g id="edge4_Node000004_Node000005" class="edge">
<title>Node4&#45;&gt;Node5</title>
<g id="a_edge4_Node000004_Node000005"><a xlink:title=" ">
<path fill="none" stroke="#63b8ff" d="M162.79,-90.2C157.52,-88.52 152.26,-86.77 147.25,-85 124.18,-76.85 98.39,-66.16 80.24,-58.37"/>
<polygon fill="#63b8ff" stroke="#63b8ff" points="161.48,-93.46 172.07,-93.09 163.56,-86.78 161.48,-93.46"/>
</a>
</g>
</g>
<!-- Node6&#45;&gt;Node5 -->
<g id="edge7_Node000006_Node000005" class="edge">
<title>Node6&#45;&gt;Node5</title>
<g id="a_edge7_Node000006_Node000005"><a xlink:title=" ">
<path fill="none" stroke="#63b8ff" d="M135.63,-48C127.53,-48 119.4,-48 111.6,-48"/>
<polygon fill="#63b8ff" stroke="#63b8ff" points="135.51,-51.5 145.51,-48 135.51,-44.5 135.51,-51.5"/>
</a>
</g>
</g>
<!-- Node6&#45;&gt;Node6 -->
<g id="edge8_Node000006_Node000006" class="edge">
<title>Node6&#45;&gt;Node6</title>
<g id="a_edge8_Node000006_Node000006"><a xlink:title=" ">
<path fill="none" stroke="#63b8ff" d="M239.05,-69.44C235.5,-73.3 226.32,-76 211.5,-76 184.4,-76 176.15,-66.98 186.73,-58.34"/>
<polygon fill="#63b8ff" stroke="#63b8ff" points="242.46,-68.66 236.63,-59.81 235.67,-70.36 242.46,-68.66"/>
</a>
</g>
</g>
<!-- Node8&#45;&gt;Node5 -->
<g id="edge11_Node000008_Node000005" class="edge">
<title>Node8&#45;&gt;Node5</title>
<g id="a_edge11_Node000008_Node000005"><a xlink:title=" ">
<path fill="none" stroke="#63b8ff" d="M157.12,-23.18C138.09,-27.88 116.92,-33.11 98.94,-37.55"/>
<polygon fill="#63b8ff" stroke="#63b8ff" points="157.71,-26.64 166.58,-20.85 156.03,-19.85 157.71,-26.64"/>
</a>
</g>
</g>
</g>
</svg>
