<?xml version="1.0" encoding="UTF-8" standalone="no"?>
<!DOCTYPE svg PUBLIC "-//W3C//DTD SVG 1.1//EN"
 "http://www.w3.org/Graphics/SVG/1.1/DTD/svg11.dtd">
<!-- Generated by graphviz version 14.1.2 (20260124.0452)
 -->
<!-- Title: sv_controller.cc Pages: 1 -->
<!--zoomable 252 -->

<svg id="main" version="1.1" xmlns="http://www.w3.org/2000/svg" xmlns:xlink="http://www.w3.org/1999/xlink" xml:space="preserve" onload="init(evt)">

<style type="text/css"><![CDATA[
.node, .edge {opacity: 0.7;}
.node.selected, .edge.selected {opacity: 1;}
.edge:hover path { stroke: red; }
.edge:hover polygon { stroke: red; fill: red; }
]]></style>

<defs>
  <circle id="rim" cx="0" cy="0" r="7"/>
  <circle id="rim2" cx="0" cy="0" r="3.5"/>
  <g id="zoomPlus">
    <use xlink:href="#rim" fill="#404040"><set attributeName="fill" to="#808080" begin="zoomplus.mouseover" end="zoomplus.mouseout"/></use>
    <path d="M-4,0h8M0,-4v8" fill="none" stroke="white" stroke-width="1.5" pointer-events="none"/>
  </g>
  <g id="zoomMin">
    <use xlink:href="#rim" fill="#404040"><set attributeName="fill" to="#808080" begin="zoomminus.mouseover" end="zoomminus.mouseout"/></use>
    <path d="M-4,0h8" fill="none" stroke="white" stroke-width="1.5" pointer-events="none"/>
  </g>
  <g id="arrowUp" transform="translate(30 24)">
    <use xlink:href="#rim"/>
    <path pointer-events="none" fill="none" stroke="white" stroke-width="1.5" d="M0,-3.0v7 M-2.5,-0.5L0,-3.0L2.5,-0.5"/>
  </g>
  <g id="arrowRight" transform="rotate(90) translate(36 -43)">
    <use xlink:href="#rim"/>
    <path pointer-events="none" fill="none" stroke="white" stroke-width="1.5" d="M0,-3.0v7 M-2.5,-0.5L0,-3.0L2.5,-0.5"/>
  </g>
  <g id="arrowDown" transform="rotate(180) translate(-30 -48)">
    <use xlink:href="#rim"/>
    <path pointer-events="none" fill="none" stroke="white" stroke-width="1.5" d="M0,-3.0v7 M-2.5,-0.5L0,-3.0L2.5,-0.5"/>
  </g>
  <g id="arrowLeft" transform="rotate(270) translate(-36 17)">
    <use xlink:href="#rim"/>
    <path pointer-events="none" fill="none" stroke="white" stroke-width="1.5" d="M0,-3.0v7 M-2.5,-0.5L0,-3.0L2.5,-0.5"/>
  </g>
  <g id="resetDef">
    <use xlink:href="#rim2" fill="#404040"><set attributeName="fill" to="#808080" begin="reset.mouseover" end="reset.mouseout"/></use>
  </g>
</defs>
<script type="application/ecmascript">
var viewWidth = 1128;
var viewHeight = 252;
var sectionId = 'dynsection-0';
</script>
<script type="application/ecmascript" xlink:href="svg.min.js"/>
<svg id="graph" class="graph">
<g id="viewport">
<title>sv_controller.cc</title>
<!-- Node1 -->
<g id="Node000001" class="node">
<title>Node1</title>
<g id="a_Node000001"><a xlink:title="Implementation of SharedBuffer + SvController + Multi&#45;Publisher FFI.">
<polygon fill="#999999" stroke="#666666" points="602.38,-244 517.38,-244 517.38,-224 602.38,-224 602.38,-244"/>
<text xml:space="preserve" text-anchor="middle" x="559.88" y="-230.5" font-family="Helvetica,sans-Serif" font-size="10.00">sv_controller.cc</text>
</a>
</g>
</g>
<!-- Node2 -->
<g id="Node000002" class="node">
<title>Node2</title>
<g id="a_Node000002"><a xlink:href="sv__controller_8h.html" target="_top" xlink:title="Main Controller + SharedBuffer for Multi&#45;Publisher SV System.">
<polygon fill="white" stroke="#666666" points="621.12,-188 498.62,-188 498.62,-168 621.12,-168 621.12,-188"/>
<text xml:space="preserve" text-anchor="middle" x="559.88" y="-174.5" font-family="Helvetica,sans-Serif" font-size="10.00">../include/sv_controller.h</text>
</a>
</g>
</g>
<!-- Node1&#45;&gt;Node2 -->
<g id="edge1_Node000001_Node000002" class="edge">
<title>Node1&#45;&gt;Node2</title>
<g id="a_edge1_Node000001_Node000002"><a xlink:title=" ">
<path fill="none" stroke="#63b8ff" d="M559.88,-223.59C559.88,-217.01 559.88,-207.96 559.88,-199.73"/>
<polygon fill="#63b8ff" stroke="#63b8ff" points="563.38,-199.81 559.88,-189.81 556.38,-199.81 563.38,-199.81"/>
</a>
</g>
</g>
<!-- Node10 -->
<g id="Node000010" class="node">
<title>Node10</title>
<g id="a_Node000010"><a xlink:title=" ">
<polygon fill="#e0e0e0" stroke="#999999" points="969,-76 926.75,-76 926.75,-56 969,-56 969,-76"/>
<text xml:space="preserve" text-anchor="middle" x="947.88" y="-62.5" font-family="Helvetica,sans-Serif" font-size="10.00">cstdio</text>
</a>
</g>
</g>
<!-- Node1&#45;&gt;Node10 -->
<g id="edge31_Node000001_Node000010" class="edge">
<title>Node1&#45;&gt;Node10</title>
<g id="a_edge31_Node000001_Node000010"><a xlink:title=" ">
<path fill="none" stroke="#63b8ff" d="M602.82,-228.38C694.9,-217.48 906.4,-186.91 948.88,-132 958.6,-119.43 957.32,-101.03 954.21,-87.02"/>
<polygon fill="#63b8ff" stroke="#63b8ff" points="957.63,-86.27 951.63,-77.54 950.88,-88.11 957.63,-86.27"/>
</a>
</g>
</g>
<!-- Node11 -->
<g id="Node000011" class="node">
<title>Node11</title>
<g id="a_Node000011"><a xlink:title=" ">
<polygon fill="#e0e0e0" stroke="#999999" points="143.5,-76 98.25,-76 98.25,-56 143.5,-56 143.5,-76"/>
<text xml:space="preserve" text-anchor="middle" x="120.88" y="-62.5" font-family="Helvetica,sans-Serif" font-size="10.00">cstring</text>
</a>
</g>
</g>
<!-- Node1&#45;&gt;Node11 -->
<g id="edge32_Node000001_Node000011" class="edge">
<title>Node1&#45;&gt;Node11</title>
<g id="a_edge32_Node000001_Node000011"><a xlink:title=" ">
<path fill="none" stroke="#63b8ff" d="M517.56,-223.52C453.61,-208.42 329.29,-176.08 229.88,-132 213,-124.52 171.5,-98.97 144.86,-82.22"/>
<polygon fill="#63b8ff" stroke="#63b8ff" points="147.06,-79.48 136.73,-77.1 143.32,-85.4 147.06,-79.48"/>
</a>
</g>
</g>
<!-- Node13 -->
<g id="Node000013" class="node">
<title>Node13</title>
<g id="a_Node000013"><a xlink:href="npcap__transmitter_8h.html" target="_top" xlink:title="Npcap Network Transmitter Module.">
<polygon fill="white" stroke="#666666" points="182,-132 79.75,-132 79.75,-112 182,-112 182,-132"/>
<text xml:space="preserve" text-anchor="middle" x="130.88" y="-118.5" font-family="Helvetica,sans-Serif" font-size="10.00">npcap_transmitter.h</text>
</a>
</g>
</g>
<!-- Node1&#45;&gt;Node13 -->
<g id="edge29_Node000001_Node000013" class="edge">
<title>Node1&#45;&gt;Node13</title>
<g id="a_edge29_Node000001_Node000013"><a xlink:title=" ">
<path fill="none" stroke="#63b8ff" d="M516.9,-231.18C433.19,-227.06 251.59,-215.2 195.88,-188 174.23,-177.43 155.51,-156.73 143.8,-141.52"/>
<polygon fill="#63b8ff" stroke="#63b8ff" points="146.79,-139.68 138.04,-133.69 141.15,-143.82 146.79,-139.68"/>
</a>
</g>
</g>
<!-- Node15 -->
<g id="Node000015" class="node">
<title>Node15</title>
<g id="a_Node000015"><a xlink:href="sv__stats_8h.html" target="_top" xlink:title="Transmission Statistics Module.">
<polygon fill="white" stroke="#666666" points="61.75,-132 0,-132 0,-112 61.75,-112 61.75,-132"/>
<text xml:space="preserve" text-anchor="middle" x="30.88" y="-118.5" font-family="Helvetica,sans-Serif" font-size="10.00">sv_stats.h</text>
</a>
</g>
</g>
<!-- Node1&#45;&gt;Node15 -->
<g id="edge30_Node000001_Node000015" class="edge">
<title>Node1&#45;&gt;Node15</title>
<g id="a_edge30_Node000001_Node000015"><a xlink:title=" ">
<path fill="none" stroke="#63b8ff" d="M517.16,-232.81C443.69,-231.47 289.32,-224.13 164.88,-188 124.72,-176.34 81.82,-153.47 55.67,-138.21"/>
<polygon fill="#63b8ff" stroke="#63b8ff" points="57.55,-135.26 47.17,-133.16 53.98,-141.28 57.55,-135.26"/>
</a>
</g>
</g>
<!-- Node24 -->
<g id="Node000024" class="node">
<title>Node24</title>
<g id="a_Node000024"><a xlink:title=" ">
<polygon fill="#e0e0e0" stroke="#999999" points="1059.5,-188 1014.25,-188 1014.25,-168 1059.5,-168 1059.5,-188"/>
<text xml:space="preserve" text-anchor="middle" x="1036.88" y="-174.5" font-family="Helvetica,sans-Serif" font-size="10.00">chrono</text>
</a>
</g>
</g>
<!-- Node1&#45;&gt;Node24 -->
<g id="edge33_Node000001_Node000024" class="edge">
<title>Node1&#45;&gt;Node24</title>
<g id="a_edge33_Node000001_Node000024"><a xlink:title=" ">
<path fill="none" stroke="#63b8ff" d="M602.61,-230.58C681.55,-225.67 855.33,-212.85 999.88,-188 1000.87,-187.83 1001.88,-187.65 1002.9,-187.45"/>
<polygon fill="#63b8ff" stroke="#63b8ff" points="1003.36,-190.93 1012.4,-185.42 1001.89,-184.09 1003.36,-190.93"/>
</a>
</g>
</g>
<!-- Node25 -->
<g id="Node000025" class="node">
<title>Node25</title>
<g id="a_Node000025"><a xlink:title=" ">
<polygon fill="#e0e0e0" stroke="#999999" points="1120.38,-188 1077.38,-188 1077.38,-168 1120.38,-168 1120.38,-188"/>
<text xml:space="preserve" text-anchor="middle" x="1098.88" y="-174.5" font-family="Helvetica,sans-Serif" font-size="10.00">cmath</text>
</a>
</g>
</g>
<!-- Node1&#45;&gt;Node25 -->
<g id="edge34_Node000001_Node000025" class="edge">
<title>Node1&#45;&gt;Node25</title>
<g id="a_edge34_Node000001_Node000025"><a xlink:title=" ">
<path fill="none" stroke="#63b8ff" d="M602.85,-232.14C689.15,-229.78 889.68,-221.14 1065.75,-188.26"/>
<polygon fill="#63b8ff" stroke="#63b8ff" points="1066.39,-191.7 1075.56,-186.39 1065.08,-184.82 1066.39,-191.7"/>
</a>
</g>
</g>
<!-- Node3 -->
<g id="Node000003" class="node">
<title>Node3</title>
<g id="a_Node000003"><a xlink:href="sv__publisher__instance_8h.html" target="_top" xlink:title="Single SV Publisher Instance (one Merging Unit).">
<polygon fill="white" stroke="#666666" points="359.38,-132 238.38,-132 238.38,-112 359.38,-112 359.38,-132"/>
<text xml:space="preserve" text-anchor="middle" x="298.88" y="-118.5" font-family="Helvetica,sans-Serif" font-size="10.00">sv_publisher_instance.h</text>
</a>
</g>
</g>
<!-- Node2&#45;&gt;Node3 -->
<g id="edge2_Node000002_Node000003" class="edge">
<title>Node2&#45;&gt;Node3</title>
<g id="a_edge2_Node000002_Node000003"><a xlink:title=" ">
<path fill="none" stroke="#63b8ff" d="M514.11,-167.53C469.99,-158.4 403.1,-144.56 355.61,-134.74"/>
<polygon fill="#63b8ff" stroke="#63b8ff" points="356.57,-131.36 346.07,-132.76 355.15,-138.22 356.57,-131.36"/>
</a>
</g>
</g>
<!-- Node2&#45;&gt;Node10 -->
<g id="edge26_Node000002_Node000010" class="edge">
<title>Node2&#45;&gt;Node10</title>
<g id="a_edge26_Node000002_Node000010"><a xlink:title=" ">
<path fill="none" stroke="#63b8ff" d="M621.42,-177.43C714.18,-176.81 883.8,-170.27 928.88,-132 941.63,-121.17 946.08,-102.3 947.51,-87.67"/>
<polygon fill="#63b8ff" stroke="#63b8ff" points="951,-87.9 948.04,-77.72 944.01,-87.52 951,-87.9"/>
</a>
</g>
</g>
<!-- Node2&#45;&gt;Node13 -->
<g id="edge14_Node000002_Node000013" class="edge">
<title>Node2&#45;&gt;Node13</title>
<g id="a_edge14_Node000002_Node000013"><a xlink:title=" ">
<path fill="none" stroke="#63b8ff" d="M498.41,-169.26C417.39,-159.07 275.61,-141.22 193.85,-130.93"/>
<polygon fill="#63b8ff" stroke="#63b8ff" points="194.34,-127.46 183.98,-129.68 193.46,-134.41 194.34,-127.46"/>
</a>
</g>
</g>
<!-- Node2&#45;&gt;Node15 -->
<g id="edge18_Node000002_Node000015" class="edge">
<title>Node2&#45;&gt;Node15</title>
<g id="a_edge18_Node000002_Node000015"><a xlink:title=" ">
<path fill="none" stroke="#63b8ff" d="M498.19,-173.89C407.32,-168.75 231.97,-156.67 73.62,-132.24"/>
<polygon fill="#63b8ff" stroke="#63b8ff" points="74.16,-128.78 63.74,-130.7 73.08,-135.7 74.16,-128.78"/>
</a>
</g>
</g>
<!-- Node16 -->
<g id="Node000016" class="node">
<title>Node16</title>
<g id="a_Node000016"><a xlink:title=" ">
<polygon fill="#e0e0e0" stroke="#999999" points="420.38,-132 377.38,-132 377.38,-112 420.38,-112 420.38,-132"/>
<text xml:space="preserve" text-anchor="middle" x="398.88" y="-118.5" font-family="Helvetica,sans-Serif" font-size="10.00">vector</text>
</a>
</g>
</g>
<!-- Node2&#45;&gt;Node16 -->
<g id="edge20_Node000002_Node000016" class="edge">
<title>Node2&#45;&gt;Node16</title>
<g id="a_edge20_Node000002_Node000016"><a xlink:title=" ">
<path fill="none" stroke="#63b8ff" d="M531.83,-167.59C503.71,-158.16 460.46,-143.66 430.99,-133.77"/>
<polygon fill="#63b8ff" stroke="#63b8ff" points="432.45,-130.57 421.86,-130.71 430.22,-137.21 432.45,-130.57"/>
</a>
</g>
</g>
<!-- Node17 -->
<g id="Node000017" class="node">
<title>Node17</title>
<g id="a_Node000017"><a xlink:title=" ">
<polygon fill="#e0e0e0" stroke="#999999" points="489.5,-132 438.25,-132 438.25,-112 489.5,-112 489.5,-132"/>
<text xml:space="preserve" text-anchor="middle" x="463.88" y="-118.5" font-family="Helvetica,sans-Serif" font-size="10.00">memory</text>
</a>
</g>
</g>
<!-- Node2&#45;&gt;Node17 -->
<g id="edge21_Node000002_Node000017" class="edge">
<title>Node2&#45;&gt;Node17</title>
<g id="a_edge21_Node000002_Node000017"><a xlink:title=" ">
<path fill="none" stroke="#63b8ff" d="M543.15,-167.59C528.65,-159.44 507.4,-147.48 490.55,-138"/>
<polygon fill="#63b8ff" stroke="#63b8ff" points="492.48,-135.07 482.05,-133.22 489.05,-141.17 492.48,-135.07"/>
</a>
</g>
</g>
<!-- Node18 -->
<g id="Node000018" class="node">
<title>Node18</title>
<g id="a_Node000018"><a xlink:title=" ">
<polygon fill="#e0e0e0" stroke="#999999" points="550.38,-132 507.38,-132 507.38,-112 550.38,-112 550.38,-132"/>
<text xml:space="preserve" text-anchor="middle" x="528.88" y="-118.5" font-family="Helvetica,sans-Serif" font-size="10.00">thread</text>
</a>
</g>
</g>
<!-- Node2&#45;&gt;Node18 -->
<g id="edge22_Node000002_Node000018" class="edge">
<title>Node2&#45;&gt;Node18</title>
<g id="a_edge22_Node000002_Node000018"><a xlink:title=" ">
<path fill="none" stroke="#63b8ff" d="M554.48,-167.59C550.43,-160.55 544.76,-150.67 539.78,-142"/>
<polygon fill="#63b8ff" stroke="#63b8ff" points="542.98,-140.54 534.97,-133.61 536.91,-144.03 542.98,-140.54"/>
</a>
</g>
</g>
<!-- Node19 -->
<g id="Node000019" class="node">
<title>Node19</title>
<g id="a_Node000019"><a xlink:title=" ">
<polygon fill="#e0e0e0" stroke="#999999" points="613.5,-132 568.25,-132 568.25,-112 613.5,-112 613.5,-132"/>
<text xml:space="preserve" text-anchor="middle" x="590.88" y="-118.5" font-family="Helvetica,sans-Serif" font-size="10.00">atomic</text>
</a>
</g>
</g>
<!-- Node2&#45;&gt;Node19 -->
<g id="edge23_Node000002_Node000019" class="edge">
<title>Node2&#45;&gt;Node19</title>
<g id="a_edge23_Node000002_Node000019"><a xlink:title=" ">
<path fill="none" stroke="#63b8ff" d="M565.27,-167.59C569.32,-160.55 574.99,-150.67 579.97,-142"/>
<polygon fill="#63b8ff" stroke="#63b8ff" points="582.84,-144.03 584.78,-133.61 576.77,-140.54 582.84,-144.03"/>
</a>
</g>
</g>
<!-- Node20 -->
<g id="Node000020" class="node">
<title>Node20</title>
<g id="a_Node000020"><a xlink:title=" ">
<polygon fill="#e0e0e0" stroke="#999999" points="674.38,-132 631.38,-132 631.38,-112 674.38,-112 674.38,-132"/>
<text xml:space="preserve" text-anchor="middle" x="652.88" y="-118.5" font-family="Helvetica,sans-Serif" font-size="10.00">mutex</text>
</a>
</g>
</g>
<!-- Node2&#45;&gt;Node20 -->
<g id="edge24_Node000002_Node000020" class="edge">
<title>Node2&#45;&gt;Node20</title>
<g id="a_edge24_Node000002_Node000020"><a xlink:title=" ">
<path fill="none" stroke="#63b8ff" d="M576.07,-167.59C590.12,-159.44 610.71,-147.48 627.03,-138"/>
<polygon fill="#63b8ff" stroke="#63b8ff" points="628.35,-141.29 635.24,-133.24 624.83,-135.23 628.35,-141.29"/>
</a>
</g>
</g>
<!-- Node21 -->
<g id="Node000021" class="node">
<title>Node21</title>
<g id="a_Node000021"><a xlink:title=" ">
<polygon fill="#e0e0e0" stroke="#999999" points="747.75,-132 692,-132 692,-112 747.75,-112 747.75,-132"/>
<text xml:space="preserve" text-anchor="middle" x="719.88" y="-118.5" font-family="Helvetica,sans-Serif" font-size="10.00">algorithm</text>
</a>
</g>
</g>
<!-- Node2&#45;&gt;Node21 -->
<g id="edge25_Node000002_Node000021" class="edge">
<title>Node2&#45;&gt;Node21</title>
<g id="a_edge25_Node000002_Node000021"><a xlink:title=" ">
<path fill="none" stroke="#63b8ff" d="M587.74,-167.59C613.63,-158.86 652.4,-145.77 681.26,-136.03"/>
<polygon fill="#63b8ff" stroke="#63b8ff" points="682,-139.48 690.35,-132.96 679.76,-132.85 682,-139.48"/>
</a>
</g>
</g>
<!-- Node22 -->
<g id="Node000022" class="node">
<title>Node22</title>
<g id="a_Node000022"><a xlink:title=" ">
<polygon fill="#e0e0e0" stroke="#999999" points="828.12,-132 765.62,-132 765.62,-112 828.12,-112 828.12,-132"/>
<text xml:space="preserve" text-anchor="middle" x="796.88" y="-118.5" font-family="Helvetica,sans-Serif" font-size="10.00">windows.h</text>
</a>
</g>
</g>
<!-- Node2&#45;&gt;Node22 -->
<g id="edge27_Node000002_Node000022" class="edge">
<title>Node2&#45;&gt;Node22</title>
<g id="a_edge27_Node000002_Node000022"><a xlink:title=" ">
<path fill="none" stroke="#63b8ff" d="M601.43,-167.53C644.32,-157.76 710.92,-142.58 754.22,-132.72"/>
<polygon fill="#63b8ff" stroke="#63b8ff" points="754.79,-136.18 763.76,-130.55 753.23,-129.35 754.79,-136.18"/>
</a>
</g>
</g>
<!-- Node23 -->
<g id="Node000023" class="node">
<title>Node23</title>
<g id="a_Node000023"><a xlink:title=" ">
<polygon fill="#e0e0e0" stroke="#999999" points="919.38,-132 846.38,-132 846.38,-112 919.38,-112 919.38,-132"/>
<text xml:space="preserve" text-anchor="middle" x="882.88" y="-118.5" font-family="Helvetica,sans-Serif" font-size="10.00">mmsystem.h</text>
</a>
</g>
</g>
<!-- Node2&#45;&gt;Node23 -->
<g id="edge28_Node000002_Node000023" class="edge">
<title>Node2&#45;&gt;Node23</title>
<g id="a_edge28_Node000002_Node000023"><a xlink:title=" ">
<path fill="none" stroke="#63b8ff" d="M621.58,-167.56C675.26,-159.21 755.42,-146.43 835.01,-132.28"/>
<polygon fill="#63b8ff" stroke="#63b8ff" points="835.52,-135.75 844.75,-130.54 834.29,-128.86 835.52,-135.75"/>
</a>
</g>
</g>
<!-- Node4 -->
<g id="Node000004" class="node">
<title>Node4</title>
<g id="a_Node000004"><a xlink:href="sv__encoder_8h.html" target="_top" xlink:title="IEC 61850&#45;9&#45;2LE SV Packet Encoder.">
<polygon fill="white" stroke="#666666" points="401.12,-76 326.62,-76 326.62,-56 401.12,-56 401.12,-76"/>
<text xml:space="preserve" text-anchor="middle" x="363.88" y="-62.5" font-family="Helvetica,sans-Serif" font-size="10.00">sv_encoder.h</text>
</a>
</g>
</g>
<!-- Node3&#45;&gt;Node4 -->
<g id="edge3_Node000003_Node000004" class="edge">
<title>Node3&#45;&gt;Node4</title>
<g id="a_edge3_Node000003_Node000004"><a xlink:title=" ">
<path fill="none" stroke="#63b8ff" d="M310.2,-111.59C319.52,-103.85 332.95,-92.69 344.05,-83.47"/>
<polygon fill="#63b8ff" stroke="#63b8ff" points="346.06,-86.35 351.52,-77.27 341.59,-80.96 346.06,-86.35"/>
</a>
</g>
</g>
<!-- Node5 -->
<g id="Node000005" class="node">
<title>Node5</title>
<g id="a_Node000005"><a xlink:title=" ">
<polygon fill="#e0e0e0" stroke="#999999" points="350.5,-20 305.25,-20 305.25,0 350.5,0 350.5,-20"/>
<text xml:space="preserve" text-anchor="middle" x="327.88" y="-6.5" font-family="Helvetica,sans-Serif" font-size="10.00">cstdint</text>
</a>
</g>
</g>
<!-- Node3&#45;&gt;Node5 -->
<g id="edge9_Node000003_Node000005" class="edge">
<title>Node3&#45;&gt;Node5</title>
<g id="a_edge9_Node000003_Node000005"><a xlink:title=" ">
<path fill="none" stroke="#63b8ff" d="M301.35,-111.62C306.01,-93.92 316.21,-55.24 322.52,-31.32"/>
<polygon fill="#63b8ff" stroke="#63b8ff" points="325.86,-32.38 325.02,-21.82 319.09,-30.6 325.86,-32.38"/>
</a>
</g>
</g>
<!-- Node6 -->
<g id="Node000006" class="node">
<title>Node6</title>
<g id="a_Node000006"><a xlink:title=" ">
<polygon fill="#e0e0e0" stroke="#999999" points="446,-20 397.75,-20 397.75,0 446,0 446,-20"/>
<text xml:space="preserve" text-anchor="middle" x="421.88" y="-6.5" font-family="Helvetica,sans-Serif" font-size="10.00">cstddef</text>
</a>
</g>
</g>
<!-- Node3&#45;&gt;Node6 -->
<g id="edge10_Node000003_Node000006" class="edge">
<title>Node3&#45;&gt;Node6</title>
<g id="a_edge10_Node000003_Node000006"><a xlink:title=" ">
<path fill="none" stroke="#63b8ff" d="M359.55,-112.04C400.48,-104.62 449.25,-92.58 461.88,-76 473.75,-60.4 458.54,-41.12 443.58,-27.62"/>
<polygon fill="#63b8ff" stroke="#63b8ff" points="446.08,-25.15 436.17,-21.39 441.57,-30.51 446.08,-25.15"/>
</a>
</g>
</g>
<!-- Node7 -->
<g id="Node000007" class="node">
<title>Node7</title>
<g id="a_Node000007"><a xlink:href="equation__processor_8h.html" target="_top" xlink:title="Equation Processing for SV Publisher.">
<polygon fill="white" stroke="#666666" points="270.38,-76 161.38,-76 161.38,-56 270.38,-56 270.38,-76"/>
<text xml:space="preserve" text-anchor="middle" x="215.88" y="-62.5" font-family="Helvetica,sans-Serif" font-size="10.00">equation_processor.h</text>
</a>
</g>
</g>
<!-- Node3&#45;&gt;Node7 -->
<g id="edge6_Node000003_Node000007" class="edge">
<title>Node3&#45;&gt;Node7</title>
<g id="a_edge6_Node000003_Node000007"><a xlink:title=" ">
<path fill="none" stroke="#63b8ff" d="M284.42,-111.59C272.12,-103.59 254.2,-91.93 239.77,-82.54"/>
<polygon fill="#63b8ff" stroke="#63b8ff" points="242,-79.82 231.71,-77.3 238.19,-85.69 242,-79.82"/>
</a>
</g>
</g>
<!-- Node3&#45;&gt;Node10 -->
<g id="edge11_Node000003_Node000010" class="edge">
<title>Node3&#45;&gt;Node10</title>
<g id="a_edge11_Node000003_Node000010"><a xlink:title=" ">
<path fill="none" stroke="#63b8ff" d="M359.56,-113.01C362.71,-112.65 365.83,-112.31 368.88,-112 576.25,-90.62 826.37,-74.42 914.89,-68.98"/>
<polygon fill="#63b8ff" stroke="#63b8ff" points="915,-72.48 924.77,-68.38 914.58,-65.49 915,-72.48"/>
</a>
</g>
</g>
<!-- Node3&#45;&gt;Node11 -->
<g id="edge12_Node000003_Node000011" class="edge">
<title>Node3&#45;&gt;Node11</title>
<g id="a_edge12_Node000003_Node000011"><a xlink:title=" ">
<path fill="none" stroke="#63b8ff" d="M267.87,-111.59C236.24,-102 187.3,-87.15 154.69,-77.26"/>
<polygon fill="#63b8ff" stroke="#63b8ff" points="155.92,-73.98 145.34,-74.42 153.89,-80.67 155.92,-73.98"/>
</a>
</g>
</g>
<!-- Node12 -->
<g id="Node000012" class="node">
<title>Node12</title>
<g id="a_Node000012"><a xlink:title=" ">
<polygon fill="#e0e0e0" stroke="#999999" points="452.88,-76 418.88,-76 418.88,-56 452.88,-56 452.88,-76"/>
<text xml:space="preserve" text-anchor="middle" x="435.88" y="-62.5" font-family="Helvetica,sans-Serif" font-size="10.00">new</text>
</a>
</g>
</g>
<!-- Node3&#45;&gt;Node12 -->
<g id="edge13_Node000003_Node000012" class="edge">
<title>Node3&#45;&gt;Node12</title>
<g id="a_edge13_Node000003_Node000012"><a xlink:title=" ">
<path fill="none" stroke="#63b8ff" d="M322.74,-111.59C346.54,-102.21 383.07,-87.81 408.15,-77.93"/>
<polygon fill="#63b8ff" stroke="#63b8ff" points="409.35,-81.22 417.37,-74.3 406.78,-74.71 409.35,-81.22"/>
</a>
</g>
</g>
<!-- Node4&#45;&gt;Node5 -->
<g id="edge4_Node000004_Node000005" class="edge">
<title>Node4&#45;&gt;Node5</title>
<g id="a_edge4_Node000004_Node000005"><a xlink:title=" ">
<path fill="none" stroke="#63b8ff" d="M357.6,-55.59C352.86,-48.47 346.18,-38.45 340.35,-29.72"/>
<polygon fill="#63b8ff" stroke="#63b8ff" points="343.37,-27.94 334.91,-21.56 337.55,-31.82 343.37,-27.94"/>
</a>
</g>
</g>
<!-- Node4&#45;&gt;Node6 -->
<g id="edge5_Node000004_Node000006" class="edge">
<title>Node4&#45;&gt;Node6</title>
<g id="a_edge5_Node000004_Node000006"><a xlink:title=" ">
<path fill="none" stroke="#63b8ff" d="M373.98,-55.59C382.13,-48.01 393.81,-37.13 403.59,-28.02"/>
<polygon fill="#63b8ff" stroke="#63b8ff" points="405.85,-30.71 410.78,-21.33 401.08,-25.58 405.85,-30.71"/>
</a>
</g>
</g>
<!-- Node8 -->
<g id="Node000008" class="node">
<title>Node8</title>
<g id="a_Node000008"><a xlink:title=" ">
<polygon fill="#e0e0e0" stroke="#999999" points="97,-20 48.75,-20 48.75,0 97,0 97,-20"/>
<text xml:space="preserve" text-anchor="middle" x="72.88" y="-6.5" font-family="Helvetica,sans-Serif" font-size="10.00">stdint.h</text>
</a>
</g>
</g>
<!-- Node7&#45;&gt;Node8 -->
<g id="edge7_Node000007_Node000008" class="edge">
<title>Node7&#45;&gt;Node8</title>
<g id="a_edge7_Node000007_Node000008"><a xlink:title=" ">
<path fill="none" stroke="#63b8ff" d="M190.97,-55.59C168,-46.92 133.68,-33.96 107.94,-24.24"/>
<polygon fill="#63b8ff" stroke="#63b8ff" points="109.51,-21.09 98.91,-20.83 107.03,-27.64 109.51,-21.09"/>
</a>
</g>
</g>
<!-- Node9 -->
<g id="Node000009" class="node">
<title>Node9</title>
<g id="a_Node000009"><a xlink:title=" ">
<polygon fill="#e0e0e0" stroke="#999999" points="191.5,-20 140.25,-20 140.25,0 191.5,0 191.5,-20"/>
<text xml:space="preserve" text-anchor="middle" x="165.88" y="-6.5" font-family="Helvetica,sans-Serif" font-size="10.00">stddef.h</text>
</a>
</g>
</g>
<!-- Node7&#45;&gt;Node9 -->
<g id="edge8_Node000007_Node000009" class="edge">
<title>Node7&#45;&gt;Node9</title>
<g id="a_edge8_Node000007_Node000009"><a xlink:title=" ">
<path fill="none" stroke="#63b8ff" d="M207.17,-55.59C200.28,-48.16 190.48,-37.58 182.16,-28.58"/>
<polygon fill="#63b8ff" stroke="#63b8ff" points="184.88,-26.37 175.51,-21.41 179.74,-31.12 184.88,-26.37"/>
</a>
</g>
</g>
<!-- Node14 -->
<g id="Node000014" class="node">
<title>Node14</title>
<g id="a_Node000014"><a xlink:href="sv__native_8h.html" target="_top" xlink:title="Header for Tauri FFI &#45; C interface for Rust.">
<polygon fill="white" stroke="#666666" points="80,-76 13.75,-76 13.75,-56 80,-56 80,-76"/>
<text xml:space="preserve" text-anchor="middle" x="46.88" y="-62.5" font-family="Helvetica,sans-Serif" font-size="10.00">sv_native.h</text>
</a>
</g>
</g>
<!-- Node13&#45;&gt;Node14 -->
<g id="edge15_Node000013_Node000014" class="edge">
<title>Node13&#45;&gt;Node14</title>
<g id="a_edge15_Node000013_Node000014"><a xlink:title=" ">
<path fill="none" stroke="#63b8ff" d="M116.24,-111.59C103.79,-103.59 85.66,-91.93 71.05,-82.54"/>
<polygon fill="#63b8ff" stroke="#63b8ff" points="73.2,-79.76 62.89,-77.3 69.41,-85.65 73.2,-79.76"/>
</a>
</g>
</g>
<!-- Node14&#45;&gt;Node8 -->
<g id="edge16_Node000014_Node000008" class="edge">
<title>Node14&#45;&gt;Node8</title>
<g id="a_edge16_Node000014_Node000008"><a xlink:title=" ">
<path fill="none" stroke="#63b8ff" d="M51.4,-55.59C54.72,-48.7 59.34,-39.1 63.45,-30.57"/>
<polygon fill="#63b8ff" stroke="#63b8ff" points="66.56,-32.19 67.74,-21.66 60.25,-29.15 66.56,-32.19"/>
</a>
</g>
</g>
<!-- Node14&#45;&gt;Node9 -->
<g id="edge17_Node000014_Node000009" class="edge">
<title>Node14&#45;&gt;Node9</title>
<g id="a_edge17_Node000014_Node000009"><a xlink:title=" ">
<path fill="none" stroke="#63b8ff" d="M67.6,-55.59C86.09,-47.21 113.42,-34.8 134.57,-25.21"/>
<polygon fill="#63b8ff" stroke="#63b8ff" points="135.95,-28.42 143.61,-21.1 133.05,-22.05 135.95,-28.42"/>
</a>
</g>
</g>
<!-- Node15&#45;&gt;Node14 -->
<g id="edge19_Node000015_Node000014" class="edge">
<title>Node15&#45;&gt;Node14</title>
<g id="a_edge19_Node000015_Node000014"><a xlink:title=" ">
<path fill="none" stroke="#63b8ff" d="M33.66,-111.59C35.66,-104.86 38.42,-95.53 40.9,-87.15"/>
<polygon fill="#63b8ff" stroke="#63b8ff" points="44.2,-88.33 43.69,-77.75 37.49,-86.34 44.2,-88.33"/>
</a>
</g>
</g>
</g>
</svg>

<g id="navigator" transform="translate(0 0)" fill="#404254">
  <rect fill="#f2f5e9" fill-opacity="0.5" stroke="#606060" stroke-width=".5" x="0" y="0" width="60" height="60"/>
  <use id="zoomplus" xlink:href="#zoomPlus" x="17" y="9" onmousedown="handleZoom(evt,'in')"/>
  <use id="zoomminus" xlink:href="#zoomMin" x="42" y="9" onmousedown="handleZoom(evt,'out')"/>
  <use id="reset" xlink:href="#resetDef" x="30" y="36" onmousedown="handleReset()"/>
   <use id="arrowup" xlink:href="#arrowUp" x="0" y="0" onmousedown="handlePan(0,-1)"/>
  <use id="arrowright" xlink:href="#arrowRight" x="0" y="0" onmousedown="handlePan(1,0)"/>
  <use id="arrowdown" xlink:href="#arrowDown" x="0" y="0" onmousedown="handlePan(0,1)"/>
  <use id="arrowleft" xlink:href="#arrowLeft" x="0" y="0" onmousedown="handlePan(-1,0)"/>
</g>
<svg viewBox="0 0 15 15" width="100%" height="30px" preserveAspectRatio="xMaxYMin meet">
 <g id="arrow_out" transform="scale(0.3 0.3)">
  <a xlink:href="sv__controller_8cc__incl_org.svg" target="_base">
   <rect id="button" ry="5" rx="5" y="6" x="6" height="38" width="38"
        fill="#f2f5e9" fill-opacity="0.5" stroke="#606060" stroke-width="1.0"/>
   <path id="arrow"
     d="M 11.500037,31.436501 C 11.940474,20.09759 22.043105,11.32322 32.158766,21.979434 L 37.068811,17.246167 C 37.068811,17.246167 37.088388,32 37.088388,32 L 22.160133,31.978069 C 22.160133,31.978069 26.997745,27.140456 26.997745,27.140456 C 18.528582,18.264221 13.291696,25.230495 11.500037,31.436501 z"
     style="fill:#404040;"/>
  </a>
 </g>
</svg>

<style type='text/css'>
<![CDATA[
[data-mouse-over-selected='false'] { opacity: 0.7; }
[data-mouse-over-selected='true']  { opacity: 1.0; }
]]>
</style>
<script type="application/ecmascript"><![CDATA[
document.addEventListener('DOMContentLoaded', (event) => {
  highlightEdges();
  highlightAdjacentNodes();
});
]]></script>
</svg>
